<?xml version="1.0" encoding="UTF-8" standalone="no"?>
<svg width="350px" height="100px" viewBox="0 0 350 100" version="1.1" xmlns="http://www.w3.org/2000/svg" xmlns:xlink="http://www.w3.org/1999/xlink">
    <!-- Generator: Sketch 3.8.3 (29802) - http://www.bohemiancoding.com/sketch -->
    <title>crowdcrafting_white</title>
    <desc>Created with Sketch.</desc>
    <defs></defs>
    <g id="Page-1" stroke="none" stroke-width="1" fill="none" fill-rule="evenodd">
        <g id="Desktop-Copy-8" transform="translate(-1298.000000, -412.000000)" fill="#FFFFFF">
            <g id="crowdcrafting_white" transform="translate(1298.000000, 412.000000)">
                <rect id="Rectangle-109-Copy-2" fill-opacity="0.00999999978" x="0" y="0" width="350" height="100"></rect>
                <g id="Crowdcrafting-logo" transform="translate(24.000000, 25.000000)">
                    <path d="M227.195873,3.30133929 L220.490018,3.30133929 L220.490018,11.570625 L209.89,11.570625 C209.89,9.15176786 210.272048,7.5225 211.034325,6.68646429 C211.798422,5.84860714 213.051904,5.43058929 214.79659,5.43058929 C215.12406,5.43058929 215.622542,5.46610714 216.296584,5.54078571 L216.296584,0.272303571 C215.368753,0.0910714286 214.460934,0 213.569488,0 C206.682614,0 203.22144,3.85596429 203.185054,11.570625 L198.442199,11.570625 L198.442199,17.3299821 L203.185054,17.3299821 L203.185054,39.46125 L209.89,39.46125 L209.89,17.3299821 L220.490018,17.3299821 L220.490018,30.6746786 C220.490018,33.5488929 221.279584,35.8038214 222.861446,37.4421964 C224.443307,39.0805714 226.613705,39.8974821 229.375367,39.8974821 L229.512723,39.8974821 C231.05638,39.8974821 232.482693,39.6251786 233.792572,39.0805714 L233.792572,33.5397857 C232.864741,33.9405 231.801373,34.1408571 230.60338,34.1408571 C229.330795,34.1408571 228.444807,33.9295714 227.945416,33.5115536 C227.444205,33.0935357 227.195873,32.2839107 227.195873,31.0835893 L227.195873,17.3299821 L233.792572,17.3299821 L233.792572,11.570625 L227.195873,11.570625 L227.195873,3.30133929 Z M190.785771,29.74575 C190.785771,32.5653214 189.113855,33.9760179 185.770024,33.9760179 L185.714536,33.9760179 C182.20788,33.9760179 180.454096,32.4851786 180.454096,29.5007679 C180.472289,27.081 182.580831,25.8715714 186.777904,25.8715714 C187.885843,25.8897857 189.222102,26.0072679 190.785771,26.2258393 L190.785771,29.74575 Z M185.197861,11.1353036 C182.072343,11.1353036 179.227904,11.6525893 176.665452,12.6898929 L176.665452,18.1195714 C178.972295,17.1751607 181.690295,16.7006786 184.815813,16.7006786 C188.759096,16.7006786 190.730283,18.4583571 190.730283,21.9673393 C188.986506,21.7150714 187.350976,21.5866607 185.823693,21.5866607 C183.698777,21.5866607 181.85403,21.8270893 180.291271,22.3088571 C178.727602,22.790625 177.545982,23.3689286 176.747319,24.0428571 C175.946837,24.715875 175.316458,25.4981786 174.852542,26.3897679 C174.389536,27.2804464 174.103,28.0226786 173.994753,28.6128214 C173.885596,29.2047857 173.830108,29.7830893 173.830108,30.3468214 C173.830108,33.0042857 174.797964,35.2583036 176.733675,37.11525 C178.668476,38.970375 181.680289,39.8974821 185.770024,39.8974821 C189.749693,39.8974821 192.696922,38.9758393 194.615349,37.1298214 C196.531048,35.2828929 197.490717,33.0753214 197.490717,30.5089286 L197.490717,22.9773214 C197.490717,19.1395714 196.437355,16.2061607 194.328813,14.1761786 C192.221181,12.1489286 189.17662,11.1353036 185.197861,11.1353036 L185.197861,11.1353036 Z M161.076976,13.2836786 C160.277404,13.5805714 159.649753,13.8364821 159.196753,14.0541429 L159.196753,39.46125 L165.901699,39.46125 L165.901699,17.8226786 C167.900175,17.2398214 170.298892,16.9283571 173.09694,16.8928393 L173.09694,11.1353036 C170.716416,11.1708214 168.317699,11.46225 165.901699,12.0114107 C163.484789,12.5614821 161.876548,12.9867857 161.076976,13.2836786 L161.076976,13.2836786 Z M294.813855,33.2128393 C293.504886,33.4669286 292.169536,33.5953393 290.806898,33.5953393 C288.752934,33.5953393 287.225651,33.0343393 286.227777,31.9159821 C285.227175,30.7967143 284.727783,28.6729286 284.727783,25.5428036 C284.727783,22.5237857 285.181693,20.3626607 286.090422,19.0630714 C286.999151,17.7625714 288.344506,17.1095893 290.125578,17.1095893 L290.206536,17.1095893 C293.277476,17.1095893 294.813855,18.1487143 294.813855,20.2224107 L294.813855,33.2128393 Z M298.751681,13.80825 C296.907843,12.0259821 294.031566,11.1353036 290.125578,11.1353036 C289.234133,11.1353036 288.344506,11.2081607 287.45397,11.3520536 C286.563434,11.4977679 285.522807,11.8711607 284.333,12.4704107 C283.142283,13.0723929 282.111663,13.8546964 281.239319,14.8182321 C280.366066,15.7826786 279.611976,17.1788036 278.976139,19.0075179 C278.340301,20.8362321 278.022837,22.9773214 278.022837,25.4344286 C278.022837,29.8368214 279.102578,33.2128393 281.265699,35.5588393 C283.42791,37.9066607 286.536145,39.0805714 290.588584,39.0805714 C291.913928,39.0632679 293.322048,38.9084464 294.813855,38.6161071 L294.813855,40.1424643 C294.813855,40.76175 294.768373,41.2489821 294.678319,41.6050714 C294.586446,41.9584286 294.364494,42.3910179 294.009735,42.8991964 C293.654976,43.4101071 292.987301,43.7816786 292.005801,44.0184643 C291.025211,44.25525 289.752627,44.3745536 288.189867,44.3745536 C285.572837,44.3745536 283.147741,44.00025 280.91094,43.2552857 L280.91094,49.2323036 C283.327849,49.9772679 286.009464,50.3506607 288.953964,50.3506607 C291.042494,50.3506607 292.878145,50.1075 294.459096,49.6266429 C296.040958,49.144875 297.266241,48.5574643 298.138584,47.8680536 C299.010928,47.1759107 299.711349,46.3380536 300.23712,45.3563036 C300.764711,44.3745536 301.109464,43.4829643 301.273199,42.680625 C301.437843,41.8801071 301.518801,41.035875 301.518801,40.1424643 L301.518801,20.304375 C301.518801,17.7571071 300.595518,15.5923393 298.751681,13.80825 L298.751681,13.80825 Z M138.619819,14.8455536 C136.347542,17.3199643 135.212313,20.8863214 135.212313,25.5428036 C135.212313,30.1637679 136.347542,33.7128214 138.619819,36.1863214 C140.891187,38.6607321 144.143145,39.8974821 148.378422,39.8974821 C151.104608,39.8974821 153.783494,39.3792857 156.418717,38.3428929 L156.418717,32.748375 C154.110054,33.6773036 151.803211,34.1408571 149.495458,34.1408571 C146.933916,34.1408571 145.029133,33.5434286 143.784747,32.3513036 C142.540361,31.1619107 141.918169,28.8905893 141.918169,25.5428036 C141.918169,22.1595 142.540361,19.8808929 143.784747,18.7069821 C145.029133,17.5330714 146.933916,16.9456607 149.495458,16.9456607 C151.912367,16.9456607 154.219211,17.3928214 156.418717,18.2835 L156.418717,12.6898929 C153.783494,11.6525893 151.104608,11.1353036 148.378422,11.1353036 C144.143145,11.1353036 140.891187,12.3711429 138.619819,14.8455536 L138.619819,14.8455536 Z M261.916777,11.1353036 C257.48138,11.1353036 253.219723,12.1543929 249.131807,14.19075 L249.131807,39.46125 L255.836753,39.46125 L255.836753,17.5476429 C257.653301,17.2197857 259.381614,17.0567679 261.017145,17.0567679 C262.468928,17.0567679 263.660554,17.193375 264.585657,17.4656786 C265.513488,17.7379821 266.182072,18.1487143 266.59141,18.6942321 C266.999837,19.2388393 267.271819,19.7634107 267.408265,20.2633929 C267.544711,20.763375 267.612934,21.3872143 267.612934,22.1330893 L267.612934,39.46125 L274.31788,39.46125 L274.31788,22.7059286 C274.31788,19.0485 273.223584,16.2061607 271.032265,14.1761786 C268.841855,12.1489286 265.802753,11.1353036 261.916777,11.1353036 L261.916777,11.1353036 Z M237.113663,39.46125 L243.793139,39.46125 L243.793139,11.570625 L237.113663,11.570625 L237.113663,39.46125 Z M3.40750602,14.8455536 C1.13522892,17.3199643 0,20.8863214 0,25.5428036 C0,30.1637679 1.13522892,33.7128214 3.40750602,36.1863214 C5.67978313,38.6607321 8.93356024,39.8974821 13.1661084,39.8974821 C15.8913855,39.8974821 18.5711807,39.3792857 21.2082229,38.3428929 L21.2082229,32.748375 C18.9004699,33.6773036 16.5927169,34.1408571 14.2840542,34.1408571 C11.7216024,34.1408571 9.81772892,33.5434286 8.57334337,32.3513036 C7.32895783,31.1619107 6.70676506,28.8905893 6.70676506,25.5428036 C6.70676506,22.1595 7.32895783,19.8808929 8.57334337,18.7069821 C9.81772892,17.5330714 11.7216024,16.9456607 14.2840542,16.9456607 C16.7000542,16.9456607 19.0087169,17.3928214 21.2082229,18.2835 L21.2082229,12.6898929 C18.5711807,11.6525893 15.8913855,11.1353036 13.1661084,11.1353036 C8.93356024,11.1353036 5.67978313,12.3711429 3.40750602,14.8455536 L3.40750602,14.8455536 Z M25.8664819,13.2836786 C25.066,13.5805714 24.4401687,13.8364821 23.9853494,14.0541429 L23.9853494,39.46125 L30.6921145,39.46125 L30.6921145,17.8226786 C32.6896807,17.2398214 35.0893072,16.9283571 37.8864458,16.8928393 L37.8864458,11.1353036 C35.5068313,11.1708214 33.1072048,11.46225 30.6921145,12.0114107 C28.2715663,12.5614821 26.6651446,12.9867857 25.8664819,13.2836786 L25.8664819,13.2836786 Z M125.620175,31.1282143 C125.620175,33.1363393 123.930976,34.1408571 120.551669,34.1408571 C118.424024,34.1408571 116.934036,33.4104643 116.080795,31.9496786 C115.225735,30.4907143 114.798205,28.1183036 114.798205,24.8333571 C114.798205,21.6932143 115.343988,19.4983929 116.433735,18.2498036 C117.525301,16.9993929 119.115349,16.3737321 121.20388,16.3737321 C122.840319,16.3910357 124.312114,16.5476786 125.620175,16.8391071 L125.620175,31.1282143 Z M125.620175,11.570625 C124.02103,11.2810179 122.476464,11.1353036 120.986476,11.1353036 C116.825789,11.1353036 113.636596,12.3410893 111.420717,14.7563036 C109.201199,17.1715179 108.092349,20.6495357 108.092349,25.1885357 C108.092349,27.6857143 108.411633,29.886 109.04747,31.7912143 C109.682398,33.6964286 110.45559,35.1408214 111.364319,36.1243929 C112.273958,37.1097857 113.340964,37.912125 114.568976,38.5314107 C115.79244,39.1497857 116.865813,39.5322857 117.783639,39.6798214 C118.701464,39.8255357 119.623837,39.8974821 120.551669,39.8974821 C124.530428,39.8974821 127.487663,38.9740179 129.423373,37.1243571 C131.359084,35.2756071 132.32694,33.0653036 132.32694,30.4961786 L132.32694,0.846964286 L125.620175,0.846964286 L125.620175,11.570625 Z M56.4458012,32.5707857 C55.3915301,33.7820357 53.7650964,34.38675 51.5665,34.38675 C49.3679036,34.38675 47.7378313,33.7820357 46.6735542,32.5707857 C45.6101867,31.3613571 45.0798675,29.0217321 45.0798675,25.5564643 C45.0798675,22.0921071 45.6101867,19.74975 46.6735542,18.5293929 C47.7378313,17.3108571 49.3679036,16.7006786 51.5665,16.7006786 C53.7650964,16.7006786 55.3915301,17.3108571 56.4458012,18.5293929 C57.4991627,19.74975 58.026753,22.0921071 58.026753,25.5564643 C58.026753,29.0217321 57.4991627,31.3613571 56.4458012,32.5707857 L56.4458012,32.5707857 Z M51.5519458,11.188125 C47.3093916,11.188125 44.0528855,12.4266964 41.7815181,14.9001964 C39.509241,17.3746071 38.3749217,20.9236607 38.3749217,25.5428036 C38.3749217,30.1637679 39.509241,33.7128214 41.7815181,36.1863214 C44.0528855,38.6607321 47.3093916,39.8974821 51.5519458,39.8974821 C55.7954096,39.8974821 59.0519157,38.6607321 61.3241928,36.1863214 C63.5946506,33.7128214 64.7316988,30.1637679 64.7316988,25.5428036 C64.7316988,20.9236607 63.5946506,17.3746071 61.3241928,14.9001964 C59.0519157,12.4266964 55.7954096,11.188125 51.5519458,11.188125 L51.5519458,11.188125 Z M94.1948916,31.6828393 L88.9071627,11.570625 L83.1536988,11.570625 L77.8423193,31.6828393 L71.9260301,11.570625 L64.8390361,11.570625 L74.7040663,39.46125 L81.4108313,39.46125 L86.0445301,23.415375 L90.622741,39.46125 L97.3276867,39.46125 L107.197265,11.570625 L100.110271,11.570625 L94.1948916,31.6828393 Z" id="Fill-53-Copy"></path>
                </g>
            </g>
        </g>
    </g>
</svg>