<?xml version="1.0" encoding="UTF-8" standalone="no"?>
<svg width="250px" height="100px" viewBox="0 0 250 100" version="1.1" xmlns="http://www.w3.org/2000/svg" xmlns:xlink="http://www.w3.org/1999/xlink">
    <!-- Generator: Sketch 3.8.3 (29802) - http://www.bohemiancoding.com/sketch -->
    <title>pybossa_white</title>
    <desc>Created with Sketch.</desc>
    <defs></defs>
    <g id="Page-1" stroke="none" stroke-width="1" fill="none" fill-rule="evenodd">
        <g id="Desktop-Copy-8" transform="translate(-1298.000000, -250.000000)" fill="#FFFFFF">
            <g id="pybossa_white" transform="translate(1298.000000, 250.000000)">
                <rect id="Rectangle-109-Copy" fill-opacity="0.00999999978" x="0" y="0" width="250" height="100"></rect>
                <g id="pybossa-logo" transform="translate(29.000000, 23.000000)">
                    <path d="M106.968,34.835 C105.809,36.165 104.021,36.829 101.604,36.829 C99.187,36.829 97.395,36.165 96.226,34.835 C95.056,33.507 94.472,30.94 94.472,27.135 C94.472,23.329 95.056,20.757 96.226,19.418 C97.395,18.081 99.187,17.411 101.604,17.411 C104.021,17.411 105.809,18.081 106.968,19.418 C108.126,20.757 108.705,23.329 108.705,27.135 C108.705,30.94 108.126,33.507 106.968,34.835 L106.968,34.835 Z M101.589,11.357 C96.925,11.357 93.343,12.716 90.847,15.434 C88.349,18.15 87.101,22.046 87.101,27.12 C87.101,32.194 88.349,36.089 90.847,38.808 C93.343,41.524 96.925,42.882 101.589,42.882 C106.253,42.882 109.835,41.524 112.332,38.808 C114.828,36.089 116.076,32.194 116.076,27.12 C116.076,22.046 114.828,18.15 112.332,15.434 C109.835,12.716 106.253,11.357 101.589,11.357 L101.589,11.357 Z M184.15,31.733 C184.15,34.831 182.312,36.38 178.636,36.38 L178.575,36.38 C174.72,36.38 172.792,34.741 172.792,31.464 C172.812,28.809 175.13,27.48 179.745,27.48 C180.963,27.499 182.432,27.629 184.15,27.869 L184.15,31.733 Z M188.045,14.639 C185.728,12.412 182.382,11.298 178.007,11.298 C174.571,11.298 171.445,11.867 168.627,13.005 L168.627,18.969 C171.164,17.932 174.151,17.411 177.587,17.411 C181.922,17.411 184.09,19.339 184.09,23.193 C182.173,22.915 180.374,22.774 178.696,22.774 C176.359,22.774 174.331,23.04 172.613,23.568 C170.894,24.099 169.595,24.732 168.718,25.472 C167.838,26.211 167.144,27.069 166.634,28.049 C166.125,29.027 165.811,29.842 165.691,30.491 C165.572,31.14 165.511,31.774 165.511,32.394 C165.511,35.312 166.575,37.788 168.702,39.825 C170.829,41.864 174.141,42.882 178.636,42.882 C183.011,42.882 186.251,41.868 188.361,39.841 C190.468,37.815 191.522,35.39 191.522,32.573 L191.522,24.302 C191.522,20.088 190.363,16.867 188.045,14.639 L188.045,14.639 Z M134.668,25.007 C133.239,24.378 131.806,23.879 130.367,23.509 C128.929,23.14 127.71,22.71 126.712,22.221 C125.713,21.731 125.214,21.058 125.214,20.198 C125.214,18.48 126.972,17.621 130.489,17.621 C133.125,17.621 135.482,18.11 137.56,19.089 L137.56,13.485 C135.023,12.027 132.236,11.298 129.199,11.298 C125.963,11.298 123.261,12.122 121.093,13.77 C118.925,15.418 117.842,17.78 117.842,20.856 C117.842,22.814 118.347,24.437 119.355,25.727 C120.364,27.016 121.582,27.939 123.011,28.498 C124.439,29.059 125.867,29.541 127.296,29.951 C128.724,30.362 129.944,30.841 130.951,31.39 C131.96,31.94 132.466,32.663 132.466,33.563 C132.466,34.542 132.146,35.274 131.506,35.765 C130.867,36.255 129.489,36.499 127.371,36.499 C124.294,36.499 121.406,35.599 118.711,33.802 L118.711,40.364 C121.666,42.042 124.905,42.882 128.419,42.882 C131.856,42.882 134.618,42.034 136.705,40.335 C138.793,38.638 139.837,36.499 139.837,33.923 C139.837,31.606 139.332,29.695 138.322,28.198 C137.315,26.7 136.096,25.638 134.668,25.007 L134.668,25.007 Z M76.587,34.169 C75.647,35.763 74.009,36.56 71.672,36.56 C67.996,36.56 66.158,35.456 66.158,33.253 L66.158,17.562 C67.535,17.223 69.123,17.051 70.923,17.051 C73.22,17.051 74.974,17.737 76.182,19.11 C77.39,20.482 77.994,22.893 77.994,26.339 C77.994,29.966 77.526,32.577 76.587,34.169 L76.587,34.169 Z M71.194,11.298 C69.594,11.298 67.916,11.457 66.158,11.776 L66.158,0 L58.785,0 L58.785,32.56 C58.785,35.401 59.84,37.831 61.947,39.851 C64.056,41.872 67.297,42.882 71.672,42.882 C72.687,42.882 73.696,42.802 74.699,42.642 C75.703,42.481 76.888,42.062 78.25,41.382 C79.614,40.7 80.781,39.819 81.756,38.739 C82.733,37.659 83.574,36.073 84.291,33.981 C85.009,31.89 85.365,29.473 85.365,26.73 C85.365,21.746 84.143,17.927 81.697,15.275 C79.248,12.623 75.748,11.298 71.194,11.298 L71.194,11.298 Z M158.338,25.007 C156.909,24.378 155.476,23.879 154.037,23.509 C152.599,23.14 151.381,22.71 150.382,22.221 C149.382,21.731 148.883,21.058 148.883,20.198 C148.883,18.48 150.641,17.621 154.156,17.621 C156.794,17.621 159.151,18.11 161.23,19.089 L161.23,13.485 C158.693,12.027 155.906,11.298 152.868,11.298 C149.632,11.298 146.93,12.122 144.763,13.77 C142.595,15.418 141.512,17.78 141.512,20.856 C141.512,22.814 142.016,24.437 143.025,25.727 C144.034,27.016 145.252,27.939 146.681,28.498 C148.109,29.059 149.536,29.541 150.966,29.951 C152.394,30.362 153.613,30.841 154.621,31.39 C155.63,31.94 156.134,32.663 156.134,33.563 C156.134,34.542 155.815,35.274 155.176,35.765 C154.536,36.255 153.156,36.499 151.041,36.499 C147.964,36.499 145.077,35.599 142.381,33.802 L142.381,40.364 C145.337,42.042 148.572,42.882 152.089,42.882 C155.525,42.882 158.288,42.034 160.375,40.335 C162.462,38.638 163.507,36.499 163.507,33.923 C163.507,31.606 163.002,29.695 161.993,28.198 C160.984,26.7 159.766,25.638 158.338,25.007 L158.338,25.007 Z M17.335,35.226 C16.087,36.614 14.276,37.308 11.899,37.308 C10.578,37.308 9.071,37.19 7.371,36.948 L7.371,20.978 C7.371,18.779 9.21,17.681 12.886,17.681 C15.224,17.681 16.862,18.48 17.8,20.078 C18.739,21.676 19.207,24.273 19.207,27.869 C19.207,31.386 18.582,33.837 17.335,35.226 L17.335,35.226 Z M23.015,15.493 C22.033,14.415 20.862,13.536 19.492,12.856 C18.123,12.177 16.936,11.757 15.927,11.598 C14.918,11.438 13.905,11.357 12.886,11.357 C8.511,11.357 5.27,12.372 3.16,14.398 C1.054,16.427 0,18.85 0,21.665 L0,53.759 L7.371,53.759 L7.371,42.462 C9.01,42.821 10.688,43.001 12.406,43.001 C16.981,43.001 20.496,41.663 22.953,38.985 C25.41,36.31 26.64,32.474 26.64,27.48 C26.64,24.743 26.28,22.331 25.562,20.243 C24.843,18.154 23.992,16.571 23.015,15.493 L23.015,15.493 Z M41.889,33.144 L35.028,11.776 L27.205,11.776 L38.203,40.815 C36.386,45.769 34.416,48.247 32.301,48.247 C31.16,48.247 30.003,47.995 28.822,47.497 L28.822,53.64 C30.403,54.198 31.949,54.48 33.468,54.48 C35.528,54.48 37.514,53.704 39.433,52.157 C41.351,50.606 43.128,47.606 44.767,43.151 L56.423,11.776 L48.632,11.776 L41.889,33.144 Z" id="Fill-51-Copy-2"></path>
                </g>
            </g>
        </g>
    </g>
</svg>