<?xml version="1.0" encoding="UTF-8" standalone="no"?>
<svg width="250px" height="100px" viewBox="0 0 250 100" version="1.1" xmlns="http://www.w3.org/2000/svg" xmlns:xlink="http://www.w3.org/1999/xlink">
    <!-- Generator: Sketch 3.8.3 (29802) - http://www.bohemiancoding.com/sketch -->
    <title>scifabric_white</title>
    <desc>Created with Sketch.</desc>
    <defs></defs>
    <g id="Page-1" stroke="none" stroke-width="1" fill="none" fill-rule="evenodd">
        <g id="Desktop-Copy-8" transform="translate(-1298.000000, -92.000000)" fill="#FFFFFF">
            <g id="scifabric_white" transform="translate(1298.000000, 92.000000)">
                <rect id="Rectangle-109" fill-opacity="0.00999999978" x="0" y="0" width="250" height="100"></rect>
                <g id="scifabric-logo" transform="translate(28.000000, 27.000000)">
                    <path d="M99.083,32.663 C99.083,35.76 97.245,37.308 93.57,37.308 L93.509,37.308 C89.654,37.308 87.727,35.67 87.727,32.393 C87.745,29.736 90.064,28.408 94.678,28.408 C95.896,28.428 97.365,28.559 99.083,28.798 L99.083,32.663 Z M92.939,12.226 C89.504,12.226 86.377,12.795 83.561,13.934 L83.561,19.898 C86.098,18.859 89.084,18.339 92.521,18.339 C96.855,18.339 99.023,20.268 99.023,24.123 C97.105,23.844 95.309,23.703 93.629,23.703 C91.292,23.703 89.266,23.968 87.547,24.497 C85.828,25.026 84.529,25.662 83.65,26.4 C82.771,27.141 82.077,27.999 81.566,28.978 C81.059,29.956 80.744,30.77 80.625,31.42 C80.504,32.068 80.443,32.704 80.443,33.322 C80.443,36.24 81.508,38.717 83.637,40.755 C85.764,42.792 89.074,43.809 93.57,43.809 C97.943,43.809 101.186,42.797 103.293,40.769 C105.4,38.742 106.455,36.319 106.455,33.502 L106.455,25.231 C106.455,21.017 105.296,17.796 102.979,15.567 C100.661,13.341 97.314,12.226 92.939,12.226 L92.939,12.226 Z M185.851,18.609 C188.508,18.609 191.045,19.099 193.461,20.077 L193.461,13.934 C190.564,12.795 187.619,12.226 184.623,12.226 C179.967,12.226 176.392,13.585 173.895,16.302 C171.396,19.018 170.148,22.934 170.148,28.049 C170.148,33.122 171.396,37.017 173.895,39.735 C176.392,42.453 179.967,43.809 184.623,43.809 C187.619,43.809 190.564,43.241 193.461,42.102 L193.461,35.96 C190.924,36.978 188.388,37.488 185.851,37.488 C183.033,37.488 180.94,36.833 179.572,35.524 C178.203,34.218 177.52,31.725 177.52,28.049 C177.52,24.332 178.203,21.831 179.572,20.543 C180.94,19.254 183.033,18.609 185.851,18.609 L185.851,18.609 Z M128.057,35.099 C127.117,36.692 125.479,37.488 123.143,37.488 C119.467,37.488 117.629,36.386 117.629,34.181 L117.629,18.491 C119.007,18.15 120.596,17.979 122.393,17.979 C124.689,17.979 126.443,18.667 127.652,20.039 C128.859,21.411 129.465,23.821 129.465,27.267 C129.465,30.894 128.996,33.506 128.057,35.099 L128.057,35.099 Z M122.663,12.226 C121.064,12.226 119.387,12.387 117.629,12.706 L117.629,0.93 L110.258,0.93 L110.258,33.488 C110.258,36.329 111.311,38.759 113.418,40.78 C115.525,42.8 118.768,43.809 123.143,43.809 C124.156,43.809 125.166,43.731 126.17,43.57 C127.175,43.409 128.357,42.989 129.721,42.31 C131.084,41.629 132.251,40.748 133.227,39.667 C134.201,38.588 135.046,37.001 135.764,34.909 C136.479,32.817 136.837,30.4 136.837,27.659 C136.837,22.675 135.613,18.856 133.167,16.204 C130.721,13.552 127.219,12.226 122.663,12.226 L122.663,12.226 Z M158.885,43.331 L166.226,43.331 L166.226,12.706 L158.885,12.706 L158.885,43.331 Z M81.167,12.706 L74.125,12.706 C74.125,10.049 74.545,8.262 75.384,7.343 C76.223,6.424 77.602,5.964 79.52,5.964 C79.879,5.964 80.43,6.004 81.167,6.084 L81.167,0.3 C80.148,0.1 79.148,0 78.171,0 C70.6,0 66.793,4.235 66.754,12.706 L61.54,12.706 L61.54,19.029 L66.754,19.029 L66.754,43.331 L74.125,43.331 L74.125,19.029 L81.167,19.029 L81.167,12.706 Z M16.826,25.936 C15.398,25.307 13.965,24.808 12.525,24.438 C11.088,24.068 9.869,23.639 8.871,23.149 C7.871,22.659 7.373,21.985 7.373,21.126 C7.373,19.408 9.13,18.549 12.646,18.549 C15.283,18.549 17.641,19.039 19.719,20.017 L19.719,14.414 C17.182,12.956 14.395,12.226 11.357,12.226 C8.121,12.226 5.42,13.05 3.252,14.698 C1.084,16.347 0,18.709 0,21.786 C0,23.743 0.505,25.366 1.514,26.655 C2.521,27.944 3.74,28.867 5.169,29.427 C6.598,29.986 8.025,30.471 9.455,30.88 C10.883,31.291 12.102,31.769 13.109,32.318 C14.119,32.868 14.624,33.593 14.624,34.492 C14.624,35.47 14.305,36.204 13.664,36.693 C13.025,37.184 11.646,37.428 9.529,37.428 C6.453,37.428 3.566,36.528 0.869,34.731 L0.869,41.293 C3.826,42.972 7.062,43.809 10.578,43.809 C14.014,43.809 16.775,42.962 18.863,41.264 C20.951,39.565 21.995,37.428 21.995,34.851 C21.995,32.534 21.49,30.625 20.48,29.127 C19.473,27.629 18.254,26.565 16.826,25.936 L16.826,25.936 Z M50.785,43.331 L58.127,43.331 L58.127,12.706 L50.785,12.706 L50.785,43.331 Z M27.984,16.302 C25.486,19.018 24.239,22.934 24.239,28.049 C24.239,33.122 25.486,37.017 27.984,39.735 C30.482,42.453 34.059,43.809 38.713,43.809 C41.709,43.809 44.656,43.241 47.553,42.102 L47.553,35.96 C45.016,36.978 42.479,37.488 39.941,37.488 C37.125,37.488 35.031,36.833 33.664,35.524 C32.295,34.218 31.611,31.725 31.611,28.049 C31.611,24.332 32.295,21.831 33.664,20.543 C35.031,19.254 37.125,18.609 39.941,18.609 C42.598,18.609 45.135,19.099 47.553,20.077 L47.553,13.934 C44.656,12.795 41.709,12.226 38.713,12.226 C34.059,12.226 30.482,13.585 27.984,16.302 L27.984,16.302 Z M142.557,14.586 C141.677,14.913 140.988,15.195 140.49,15.433 L140.49,43.331 L147.861,43.331 L147.861,19.57 C150.059,18.93 152.695,18.59 155.771,18.549 L155.771,12.226 C153.154,12.267 150.518,12.588 147.861,13.191 C145.204,13.795 143.436,14.26 142.557,14.586 L142.557,14.586 Z" id="Fill-49-Copy"></path>
                </g>
            </g>
        </g>
    </g>
</svg>