<svg xmlns="http://www.w3.org/2000/svg" width="347" height="126" viewBox="0 0 347 126">
    <g fill="none" fill-rule="evenodd">
        <path fill="#2BADD0" d="M180.843 91.267h17.756V73.512h-17.756zM210.436 61.674h17.756V43.918h-17.756z"/>
        <path fill="#14A987" d="M180.843 55.756h17.756V38h-17.756zM210.436 85.348h17.756V67.592h-17.756z"/>
        <path fill="#F8B917" d="M180.844 85.348H198.6V67.592h-17.756zM210.436 55.756h17.755V38h-17.755z"/>
        <path fill="#14A987" d="M240.029 55.756h17.755V38h-17.755zM240 29.755h17.755V12H240zM0 29.755h17.755V12H0z"/>
        <path fill="#2BADD0" d="M299.214 61.674h17.756V43.918h-17.756zM269.622 91.267h17.755V73.512h-17.755z"/>
        <path fill="#14A987" d="M299.214 85.348h17.756V67.592h-17.756z"/>
        <path fill="#F8B917" d="M299.214 55.756h17.756V38h-17.756zM269.621 85.348h17.756V67.592h-17.756z"/>
        <path fill="#2BADD0" d="M328.807 91.267h17.755V73.512h-17.755z"/>
        <path fill="#14A987" d="M328.807 55.756h17.755V38h-17.755z"/>
        <path fill="#F8B917" d="M328.807 85.349h17.755V67.593h-17.755z"/>
        <path fill="#14A987" d="M0 55.756h17.755V38H0zM29.593 85.348h17.756V67.592H29.593z"/>
        <path fill="#F8B917" d="M29.593 55.756h17.755V38H29.593zM59.185 85.348h17.756V67.592H59.185zM59 111.982h17.756V94.226H59z"/>
        <path fill="#2BADD0" d="M118.37 61.674h17.756V43.918H118.37zM88.778 91.267h17.756V73.512H88.778z"/>
        <path fill="#14A987" d="M118.37 85.348h17.756V67.592H118.37z"/>
        <path fill="#F8B917" d="M118.371 55.756h17.755V38h-17.755zM118 29.755h17.755V12H118z"/>
        <path fill="#14A987" d="M88.778 55.756h17.756V38H88.778z"/>
        <path fill="#F8B917" d="M88.778 85.348h17.756V67.592H88.778z"/>
        <path fill="#2BADD0" d="M147.964 91.267h17.755V73.512h-17.755z"/>
        <path fill="#14A987" d="M148 119.855h17.755V102.1H148z"/>
        <path fill="#F8B917" d="M147.963 85.349h17.756V67.593h-17.756z"/>
    </g>
</svg>
