<svg xmlns="http://www.w3.org/2000/svg" xmlns:xlink="http://www.w3.org/1999/xlink" width="304" height="204" viewBox="0 0 304 204">
    <defs>
        <path id="a" d="M.836 203.3h302.968V.743H.836z"/>
    </defs>
    <g fill="none" fill-rule="evenodd" transform="translate(0 -.175)">
        <path fill="#E8B79E" d="M287.247 80.806c0 5.377-5.67 11.69-11.047 11.69a9.734 9.734 0 0 1-9.735-9.736V71.002h20.885l-.103 9.804z"/>
        <path fill="#623F3C" d="M288.179 70.864v7.612s-.328 8.354-4.989 10.788l.846-6.387s2.641.363 2.641-5.023c0-1.967-.784-2.019-1.398-2.019-.828 0-1.45 1.243-1.45 1.243h-1.553v-3.004l.005-.02-.057.02s.104-3.08-3.081-3.08h-12.678s-2.417-.13-2.417-7.587h14.914s9.217-1.243 9.217 7.457"/>
        <path fill="#FEFEFE" d="M18.599 90.3a1.886 1.886 0 0 1 2.325-1.291l7.902 2.259a1.886 1.886 0 0 1 1.29 2.325 1.887 1.887 0 0 1-2.324 1.29l-7.902-2.258a1.887 1.887 0 0 1-1.291-2.325"/>
        <path fill="#372221" d="M31.781 55.438l.59-.05a2.744 2.744 0 0 1 2.964 2.488l.015.17.58-.052a3.232 3.232 0 0 1 3.49 2.93l.066.77a3.19 3.19 0 0 1-.588 2.118c.093.255.165.521.19.804l.067.768a3.232 3.232 0 0 1-2.93 3.49l-.695.06a3.23 3.23 0 0 1-3.488-2.93l-.067-.769a3.19 3.19 0 0 1 .587-2.119 3.155 3.155 0 0 1-.189-.804l-.067-.768a2.745 2.745 0 0 1-2.958-2.489l-.056-.653a2.744 2.744 0 0 1 2.49-2.964"/>
        <path fill="#AE8E75" d="M35.054 63.5s5.703 16.726-1.542 22.883c-1.3 1.104-2.901 1.705-4.55 1.996l.439 5.045-9.343.813-.578-6.633-.755-8.674-1.221-14.031 17.55-1.4z"/>
        <path fill="#FEFEFE" d="M29.8 91.561l-.018-.23a2.43 2.43 0 0 0-2.604-2.23l-5.975.463a2.431 2.431 0 0 0-2.23 2.605l.018.231a2.431 2.431 0 0 0 2.604 2.23l5.976-.465a2.431 2.431 0 0 0 2.229-2.604"/>
        <path fill="#372221" d="M22.66 71.103l10.882-.947c3.015-.263 5.267-2.944 5.005-5.96l-.046-.524c-.262-3.015-2.944-5.267-5.959-5.005l-10.882.947c-3.015.263-5.268 2.945-5.005 5.96l.046.524c.262 3.015 2.944 5.267 5.96 5.005M30.5 85.719a2.171 2.171 0 0 0 .801-2.953l-4.307-7.515a2.168 2.168 0 0 0-2.952-.802 2.17 2.17 0 0 0-.802 2.953l4.306 7.515a2.17 2.17 0 0 0 2.953.802"/>
        <path fill="#372221" d="M32.813 86.518l1.1-.096a4.171 4.171 0 0 0 3.783-4.504l-.035-.396a4.17 4.17 0 0 0-4.504-3.782l-1.1.095a4.17 4.17 0 0 0-3.782 4.504l.034.397a4.172 4.172 0 0 0 4.504 3.782M27.461 60.176l.276-.024a2.904 2.904 0 0 0 2.633-3.135l-.03-.34a2.903 2.903 0 0 0-3.135-2.631l-.276.024a2.903 2.903 0 0 0-2.633 3.135l.03.338a2.904 2.904 0 0 0 3.135 2.633"/>
        <path fill="#372221" d="M16.622 67.644a2.734 2.734 0 0 1-1.539-2.214l-.056-.653a2.742 2.742 0 0 1 1.497-2.677l-.046-.526c-.13-1.5.99-2.833 2.49-2.964l.59-.051c.37-.032.727.013 1.06.119.043-1.363 1.094-2.522 2.485-2.643l.59-.051c1.5-.131 2.834.99 2.964 2.489l.057.653c.13 1.5-.99 2.834-2.49 2.964l-.59.052a2.717 2.717 0 0 1-1.06-.12 2.736 2.736 0 0 1-1.493 2.355l.031.347c.034-.003.066-.011.1-.014l.185-.016c2.896-.252 5.471 1.91 5.723 4.807l.21 2.41c.252 2.896-1.91 5.47-4.807 5.723l-.184.016c-.26.023-.516.019-.769.005a2.725 2.725 0 0 1-1.806.919l-.59.05a2.745 2.745 0 0 1-2.964-2.488l-.057-.653a2.723 2.723 0 0 1 .581-1.92c-.017-.077-.037-.154-.05-.233a2.735 2.735 0 0 1-1.69-2.28l-.057-.653c-.105-1.213.614-2.306 1.685-2.753"/>
        <path fill="#F58920" d="M23.887 99.874a4.38 4.38 0 0 1 4.094-4.624l19.89-1.21a4.38 4.38 0 0 1 4.624 4.095 4.38 4.38 0 0 1-4.094 4.624l-19.89 1.209a4.38 4.38 0 0 1-4.624-4.094"/>
        <path fill="#F58920" d="M46.592 99.648a4.38 4.38 0 0 1 2.385-5.697l18.439-7.554a4.38 4.38 0 0 1 5.697 2.385 4.38 4.38 0 0 1-2.385 5.697l-18.44 7.554a4.38 4.38 0 0 1-5.696-2.385"/>
        <path fill="#404041" d="M280.753 99.953a4.38 4.38 0 0 0-4.094-4.624l-19.89-1.21a4.38 4.38 0 0 0-4.624 4.095 4.38 4.38 0 0 0 4.094 4.624l19.89 1.209a4.38 4.38 0 0 0 4.624-4.094"/>
        <path fill="#404041" d="M258.049 99.728a4.38 4.38 0 0 0-2.385-5.697l-18.44-7.555a4.379 4.379 0 0 0-5.696 2.386 4.38 4.38 0 0 0 2.385 5.697l18.439 7.553a4.38 4.38 0 0 0 5.697-2.384"/>
        <path fill="#FBBD81" d="M232.955 92.784l-.807.108a3.777 3.777 0 0 1-4.23-3.235l-.049-.357a3.778 3.778 0 0 1 3.235-4.231l.807-.108a3.777 3.777 0 0 1 4.231 3.235l.048.357a3.777 3.777 0 0 1-3.235 4.23"/>
        <path fill="#FBBD81" d="M232.178 86.492l-.318.042a1.204 1.204 0 1 1-.319-2.387l.318-.043a1.205 1.205 0 1 1 .32 2.388"/>
        <path fill="#020302" d="M253.764 201.551s9.57-3.25 14.418-3.555c4.848-.303 6.91-.508 7.038 1.778.127 2.285 0 3.047 0 3.047s-20.47.103-21.456 0c-1.968-.207-2.783-.378 0-1.27"/>
        <path fill="#FEFEFE" d="M286.042 90.379a1.885 1.885 0 0 0-2.325-1.291l-7.902 2.259a1.886 1.886 0 0 0-1.291 2.325 1.887 1.887 0 0 0 2.325 1.291l7.902-2.259a1.887 1.887 0 0 0 1.29-2.325"/>
        <path fill="#404041" d="M266.966 197.99l-1.843-35.542c0-2.97 2.43-5.4 5.401-5.4h.19c2.97 0 5.4 2.43 5.4 5.4l-1.841 35.541"/>
        <path fill="#020302" d="M269.748 201.984s9.57-3.251 14.418-3.555c4.848-.303 6.91-.508 7.038 1.778.126 2.285 0 3.047 0 3.047s-20.47.103-21.457 0c-1.968-.207-2.783-.378 0-1.27"/>
        <path fill="#404041" d="M282.369 198.867l-2.763-35.163c0-3.074 2.516-5.59 5.59-5.59h.196c3.074 0 5.589 2.516 5.589 5.59l-1.842 34.242"/>
        <path fill="#404041" d="M267.934 164.706l-.385-.408c-2.213-2.344-2.106-6.074.24-8.287l20-18.882c2.343-2.213 6.072-2.106 8.286.238l.385.408c2.214 2.345 2.106 6.074-.238 8.288l-20 18.88c-2.345 2.215-6.075 2.108-8.288-.237"/>
        <path fill="#404041" d="M282.688 166.983l-.44-.298c-2.522-1.72-3.18-5.19-1.461-7.713l11.355-16.667c1.719-2.523 5.189-3.18 7.712-1.462l.439.3c2.523 1.719 3.18 5.19 1.462 7.713L290.4 165.522c-1.718 2.523-5.19 3.18-7.712 1.462"/>
        <path fill="#404041" d="M298.15 144.577l-5.513 1.576c-4.123 1.179-8.461-1.23-9.64-5.354l-11.013-38.524c-1.178-4.123 1.23-8.461 5.354-9.64l5.514-1.576c4.123-1.18 8.46 1.23 9.64 5.354l11.013 38.524c1.179 4.123-1.231 8.46-5.354 9.64"/>
        <path fill="#4D4E4E" d="M270.854 74.035l-4.616-.031-.022 3.327 4.616.031.022-3.327zm-5.284-.635l5.96.04-.03 4.526-5.96-.039.03-4.527z"/>
        <path fill="#4D4E4E" d="M271.041 75.912l14.237.095.001-.171-14.237-.095z"/>
        <mask id="b" fill="#fff">
            <use xlink:href="#a"/>
        </mask>
        <path fill="#EE4043" d="M72.435 50.377H59.598v72.337h180.337V50.377h-10.46c-7.664 22.687-39.907 39.717-78.52 39.717-38.612 0-70.856-17.03-78.52-39.717z" mask="url(#b)"/>
        <path fill="#E8B79E" d="M234.86 120.983l-3.403.154a3.958 3.958 0 0 1-4.121-3.763 3.959 3.959 0 0 1 3.764-4.121l3.404-.154a3.957 3.957 0 0 1 4.12 3.763 3.957 3.957 0 0 1-3.763 4.121" mask="url(#b)"/>
        <path fill="#E8B79E" d="M232.93 114.557l-.322.015a1.205 1.205 0 0 1-.109-2.407l.321-.014a1.204 1.204 0 1 1 .11 2.406" mask="url(#b)"/>
        <path fill="#404041" d="M254.922 117.578l-.242-.403a4.921 4.921 0 0 1 1.697-6.729l25.25-15.088a4.921 4.921 0 0 1 6.73 1.695l.241.403a4.921 4.921 0 0 1-1.696 6.73l-25.251 15.087c-2.317 1.385-5.346.622-6.73-1.695" mask="url(#b)"/>
        <path fill="#404041" d="M234.933 116.735l-.021-.47a4.92 4.92 0 0 1 4.68-5.123l15.745-.714a4.922 4.922 0 0 1 5.124 4.68l.021.469a4.92 4.92 0 0 1-4.679 5.124l-15.746.714a4.922 4.922 0 0 1-5.124-4.68" mask="url(#b)"/>
        <path fill="#FEFEFE" d="M236.684 120.881l-1.823.102-.927-8.149 1.772-.408z" mask="url(#b)"/>
        <path fill="#020302" d="M50.877 201.472s-9.571-3.251-14.418-3.555c-4.848-.303-6.911-.508-7.038 1.778-.127 2.285 0 3.047 0 3.047s20.47.103 21.456 0c1.968-.207 2.783-.378 0-1.27" mask="url(#b)"/>
        <path fill="#B25326" d="M36.458 197.917l3.058-35.548c0-2.97-2.43-5.4-5.4-5.4h-.189c-2.97 0-5.4 2.43-5.4 5.4l1.662 35.365" mask="url(#b)"/>
        <path fill="#020302" d="M34.893 201.905s-9.571-3.251-14.418-3.555c-4.848-.303-6.911-.508-7.038 1.778-.127 2.285 0 3.047 0 3.047s20.47.103 21.456 0c1.968-.207 2.783-.378 0-1.27" mask="url(#b)"/>
        <path fill="#B25326" d="M21.715 198.583l3.319-34.958c0-3.074-2.515-5.59-5.59-5.59h-.195c-3.074 0-5.59 2.516-5.59 5.59l1.396 34.4" mask="url(#b)"/>
        <path fill="#B25326" d="M36.706 164.627l.385-.408c2.214-2.344 2.106-6.074-.238-8.287l-20-18.882c-2.345-2.214-6.075-2.106-8.288.238l-.385.408c-2.213 2.345-2.106 6.074.24 8.288l20 18.88c2.343 2.215 6.072 2.108 8.286-.237" mask="url(#b)"/>
        <path fill="#B25326" d="M21.953 166.904l.439-.299c2.523-1.719 3.18-5.189 1.462-7.712l-11.355-16.667c-1.72-2.523-5.19-3.18-7.712-1.462l-.44.3c-2.522 1.718-3.18 5.188-1.461 7.711l11.354 16.667c1.719 2.523 5.19 3.181 7.713 1.462" mask="url(#b)"/>
        <path fill="#F58920" d="M6.49 144.498l5.514 1.576c4.123 1.179 8.46-1.23 9.64-5.353l11.013-38.525c1.179-4.123-1.231-8.461-5.354-9.64l-5.515-1.576c-4.122-1.18-8.46 1.23-9.64 5.354L1.136 134.858c-1.178 4.123 1.23 8.46 5.353 9.64" mask="url(#b)"/>
        <path fill="#AE8E75" d="M69.78 120.904l3.404.154a3.958 3.958 0 0 0 4.12-3.763 3.958 3.958 0 0 0-3.763-4.121l-3.404-.154a3.957 3.957 0 0 0-4.12 3.763 3.957 3.957 0 0 0 3.763 4.12" mask="url(#b)"/>
        <path fill="#AE8E75" d="M71.711 114.478l.321.015a1.205 1.205 0 0 0 .11-2.407l-.322-.014a1.204 1.204 0 1 0-.109 2.406" mask="url(#b)"/>
        <path fill="#F58920" d="M49.72 117.499l.24-.403a4.921 4.921 0 0 0-1.696-6.73L23.014 95.28a4.921 4.921 0 0 0-6.73 1.695l-.242.403a4.923 4.923 0 0 0 1.696 6.73l25.252 15.088a4.921 4.921 0 0 0 6.73-1.696" mask="url(#b)"/>
        <path fill="#F58920" d="M69.707 116.656l.022-.47a4.92 4.92 0 0 0-4.68-5.124l-15.746-.713a4.922 4.922 0 0 0-5.123 4.68l-.022.469a4.92 4.92 0 0 0 4.68 5.123l15.745.715a4.922 4.922 0 0 0 5.124-4.68" mask="url(#b)"/>
        <path fill="#FEFEFE" d="M67.956 120.802l1.823.102.927-8.149-1.773-.408z" mask="url(#b)"/>
        <path fill="#F8BA17" d="M163.86 85.495c-22.9-6.853-35.907-30.97-29.054-53.868 6.852-22.9 30.969-35.908 53.869-29.055 22.899 6.852 35.906 30.97 29.053 53.87-6.853 22.899-30.97 35.905-53.868 29.053z" mask="url(#b)"/>
        <path fill="#362221" d="M159.087 48.62c-1.2-.583-2.507.634-1.96 1.851 2.404 5.355 7.289 9.8 13.708 11.72 6.415 1.92 12.94.891 17.889-2.265 1.125-.716.705-2.45-.618-2.622-4.567-.607-9.614-1.689-14.836-3.25-5.223-1.564-10.037-3.434-14.183-5.434M193.407 42.33c-.237-.249-.66-.083-.693.256-.25 2.636 1.64 5.264 4.606 6.151 2.967.888 5.99-.269 7.228-2.61.161-.3-.1-.67-.435-.594-1.782.401-3.776.355-5.762-.24-1.985-.594-3.675-1.65-4.944-2.964M152.177 29.99c-.237-.247-.66-.081-.695.258-.249 2.636 1.643 5.264 4.61 6.152 2.965.887 5.987-.27 7.228-2.61.159-.301-.103-.672-.44-.596-1.781.4-3.773.356-5.757-.238-1.986-.594-3.677-1.651-4.946-2.965" mask="url(#b)"/>
        <path fill="#E45825" d="M206.386 62.047a6.67 6.67 0 0 1-8.304 4.477 6.67 6.67 0 0 1-4.481-8.303 6.674 6.674 0 1 1 12.785 3.826M153.991 46.368a6.671 6.671 0 0 1-8.305 4.477 6.67 6.67 0 0 1-4.479-8.303 6.674 6.674 0 0 1 8.305-4.482 6.674 6.674 0 0 1 4.48 8.308" mask="url(#b)"/>
    </g>
</svg>
