<?xml version="1.0" encoding="UTF-8" standalone="no"?>
<svg width="1036px" height="1048px" viewBox="0 0 1036 1048" version="1.1" xmlns="http://www.w3.org/2000/svg" xmlns:xlink="http://www.w3.org/1999/xlink">
    <!-- Generator: Sketch 46.2 (44496) - http://www.bohemiancoding.com/sketch -->
    <title>crowd</title>
    <desc>Created with Sketch.</desc>
    <defs>
        <polygon id="path-1" points="0 470 709.785 470 709.785 0.411 0 0.411"></polygon>
        <polygon id="path-3" points="77.51 0.893 0 0.893 0 97.9038 0 194.9146 77.51 194.9146 77.51 0.893"></polygon>
        <polygon id="path-5" points="0 424.107 322.998 424.107 322.998 1 0 1"></polygon>
        <polygon id="path-7" points="0 28.3005 0 0.4665 25.5988 0.4665 25.5988 28.3005"></polygon>
        <polygon id="path-9" points="0 117 91.089 117 91.089 0.09 0 0.09"></polygon>
    </defs>
    <g id="Sample-UI" stroke="none" stroke-width="1" fill="none" fill-rule="evenodd">
        <g id="how-it-works" transform="translate(-162.000000, -1349.000000)">
            <g id="crowd" transform="translate(162.000000, 1341.000000)">
                <text id="ARTIFICIAL-INTELLIGE" font-family="SourceSansPro-Semibold, Source Sans Pro" font-size="18" font-weight="500" line-spacing="29" fill="#087DA1">
                    <tspan x="125.862844" y="821">ARTIFICIAL INTELLIGENCE</tspan>
                </text>
                <g id="Page-1" transform="translate(0.000000, 205.000000)">
                    <polygon id="Fill-1" fill="#2BADD0" points="496.4346 1.0005 498.1086 159.9715 709.7846 159.9715 709.7846 1.0005"></polygon>
                    <polygon id="Fill-2" fill="#067FA2" points="275.4728 21.9992 547.5438 14.4992 541.4728 233.7212 343.2558 229.0112"></polygon>
                    <polygon id="Fill-3" fill="#008E6F" points="197.4623 64.17 441.0893 51.998 437.9433 188.661 197.6903 120.329"></polygon>
                    <polygon id="Fill-4" fill="#00583E" points="441.0895 51.9978 275.4725 21.9988 275.4725 60.2728"></polygon>
                    <polygon id="Fill-5" fill="#004E6F" points="496.4346 1.0005 496.4346 15.9085 547.5436 14.4995"></polygon>
                    <g id="Group-182" transform="translate(0.000000, 0.589000)">
                        <path d="M658.8311,167.7592 C659.2321,169.8102 659.6331,171.8612 660.0331,173.9122 C657.0051,174.7872 653.9781,175.6632 650.9501,176.5382 L643.2021,176.5382 L642.6051,174.5122 L650.9501,172.8242 L655.1571,169.1102 C656.3821,168.6592 657.6071,168.2092 658.8311,167.7592 Z" id="Fill-6" fill="#2A3540"></path>
                        <polygon id="Fill-8" fill="#2A3540" points="679.4023 169.1099 681.4743 174.9629 681.4743 181.9409 677.5993 185.9929 674.7943 185.3179 672.8573 181.0409 674.7943 176.5379 674.7943 169.1099"></polygon>
                        <polygon id="Fill-10" fill="#32484E" points="647.5921 36.3106 649.8291 36.4436 649.8291 37.3656 647.4901 36.8526"></polygon>
                        <polygon id="Fill-12" fill="#425263" points="676.1802 139.3487 673.6702 132.3487 668.0282 97.6927 655.8492 102.3377 656.2702 103.9177 652.0842 104.7847 652.4152 109.4217 658.2062 111.1907 663.5402 131.2287 665.4362 135.2677 673.1802 169.8797 677.4952 171.5237 681.4742 168.4557"></polygon>
                        <path d="M644.4045,52.8051 C643.1575,61.8131 641.9105,70.8211 640.6645,79.8281 C639.5955,88.4951 638.5265,97.1631 637.4585,105.8301 C638.2155,106.5111 638.9725,107.1931 639.7295,107.8751 L643.5365,107.1221 L647.2095,81.8741 C646.2745,72.1841 645.3395,62.4951 644.4045,52.8051" id="Fill-14" fill="#D4EEF6"></path>
                        <path d="M643.2022,96.926 C644.2962,107.478 645.3902,118.031 646.4842,128.583 L649.5472,141.585 L652.9532,164.081 L652.9532,168.828 L656.7602,170.686 L660.5672,169.241 L658.2632,139.522 L656.5602,123.63 L654.9572,100.102 C651.0392,99.043 647.1202,97.985 643.2022,96.926" id="Fill-16" fill="#425263"></path>
                        <path d="M657.3617,46.8773 C660.7017,47.4023 664.0407,47.9283 667.3797,48.4533 C669.0727,48.8533 670.7647,49.2533 672.4567,49.6533 C672.5897,50.7043 672.7237,51.7543 672.8567,52.8053 C671.2987,58.3323 669.7397,63.8603 668.1817,69.3883 C667.7807,74.1903 667.3797,78.9923 666.9797,83.7943 C667.6477,88.9223 668.3147,94.0493 668.9827,99.1773 C667.4467,101.8533 665.9107,104.5293 664.3747,107.2053 L654.5567,110.3573 L650.9497,108.1063 L648.7457,110.3573 L643.1357,104.7293 C642.9797,99.8273 642.8237,94.9253 642.6677,90.0223 C642.4257,82.3913 642.9377,76.5233 643.3357,69.0123 C643.5547,64.8853 643.8877,59.4163 644.4047,52.9553 C646.9207,51.3793 649.4357,49.8033 651.9517,48.2283 C653.7547,47.7773 655.5587,47.3273 657.3617,46.8773" id="Fill-18" fill="#EDF7FB"></path>
                        <path d="M672.4562,49.6537 C671.0982,50.5727 669.7402,51.4927 668.3822,52.4117 C667.9812,54.9517 667.5802,57.4927 667.1802,60.0327 C668.4932,65.5247 669.8072,71.0167 671.1202,76.5087 C671.1652,77.4277 671.2092,78.3467 671.2542,79.2667 C671.3872,80.1377 671.5212,81.0087 671.6542,81.8797 C671.2542,89.0957 670.8532,96.3127 670.4522,103.5287 C671.3432,104.0797 672.2332,104.6297 673.1242,105.1797 C674.2372,104.9297 675.3502,104.6797 676.4632,104.4297 C677.3852,96.7257 678.2332,88.9177 679.0012,81.0087 C679.1382,79.6027 679.2722,78.1997 679.4022,76.7987 C677.7992,69.2507 676.1962,61.7017 674.5932,54.1537 L672.4562,49.6537 Z" id="Fill-20" fill="#EDF7FB"></path>
                        <path d="M652.653,48.6783 C652.463,46.9523 652.274,45.2263 652.084,43.5013 L656.56,40.9123 C658.386,41.2123 660.211,41.5123 662.037,41.8123 C661.981,43.5383 661.926,45.2643 661.87,46.9903 C662.137,47.2303 662.404,47.4713 662.671,47.7123 C661.503,48.9353 660.334,50.1573 659.165,51.3793 L653.254,53.4053 L651.885,51.3793 C652.141,50.4793 652.397,49.5783 652.653,48.6783" id="Fill-22" fill="#FCCA94"></path>
                        <path d="M649.2133,34.0464 C649.1573,31.7394 649.1023,29.4314 649.0463,27.1244 C650.2153,25.8054 651.3843,24.4854 652.5523,23.1664 C655.3803,23.1914 658.2073,23.2164 661.0353,23.2414 C662.8163,25.3424 664.5973,27.4434 666.3783,29.5444 C665.9863,32.3164 665.5943,35.0884 665.2023,37.8604 C664.3923,39.3654 663.5823,40.8704 662.7713,42.3754 C662.2703,42.4124 661.7703,42.4504 661.2693,42.4874 C659.1943,40.3764 657.1203,38.2644 655.0463,36.1524 C653.1023,35.4504 651.1573,34.7484 649.2133,34.0464" id="Fill-24" fill="#5A4C3E"></path>
                        <path d="M661.124,42.0682 L658.628,44.5692 L653.281,47.2682 L650.698,46.6162 L649.632,40.5592 C649.737,38.3632 649.843,36.1672 649.948,33.9712 L649.948,31.4202 C650.994,31.1952 652.041,30.9702 653.087,30.7452 C654.169,31.7152 655.25,32.6862 656.332,33.6572 L659.88,35.3612 L660.324,37.7632 L661.929,36.5632 L663.086,38.2662 L662.194,40.4672 L660.679,41.0672 L661.124,42.0682 Z" id="Fill-26" fill="#FDD8AF"></path>
                        <polygon id="Fill-28" fill="#D4EEF6" points="661.9226 45.36 663.3736 47.823 656.8106 54.812 654.4066 50.873"></polygon>
                        <polygon id="Fill-30" fill="#D4EEF6" points="652.4757 47.0648 651.9517 48.2278 651.3007 53.5738 652.7277 50.6758 652.6527 48.6778"></polygon>
                        <polygon id="Fill-32" fill="#ABDEEC" points="654.4062 50.873 654.4062 53.011 655.4852 52.641"></polygon>
                        <polygon id="Fill-34" fill="#ABDEEC" points="652.7281 50.6761 652.5731 52.3971 652.1721 51.8051"></polygon>
                        <path d="M652.5172,36.7891 C653.2522,36.6581 653.9862,36.5261 654.7212,36.3951 C655.5732,36.6201 656.4242,36.8451 657.2762,37.0701 C657.2882,37.5041 657.3012,37.9381 657.3132,38.3731 L656.7412,39.6031 L655.1912,40.2781 L653.4192,39.6591 C653.1012,39.2281 652.7842,38.7961 652.4672,38.3651 C652.4842,37.8391 652.5002,37.3141 652.5172,36.7891" id="Fill-36" fill="#D4EEF6"></path>
                        <path d="M648.9981,36.1137 L647.5921,36.3107 L647.3421,37.6327 L647.5921,38.8147 L648.8281,39.6447 L650.2471,39.1527 C650.4471,38.7207 650.6481,38.2897 650.8481,37.8587 C650.7981,37.5017 650.7481,37.1457 650.6981,36.7887 C650.1311,36.5637 649.5651,36.3387 648.9981,36.1137" id="Fill-38" fill="#D4EEF6"></path>
                        <polygon id="Fill-40" fill="#32484E" points="657.276 37.0705 661.543 36.8525 660.324 37.7635 657.313 37.8795"></polygon>
                        <polygon id="Fill-42" fill="#32484E" points="652.4899 37.6482 651.4169 37.3652 650.8479 37.8582 650.6979 36.7892 651.3009 36.6352 652.5169 36.7892"></polygon>
                        <polygon id="Fill-44" fill="#D4EEF6" points="663.3741 66.7617 659.8331 66.3117 656.6271 66.3117 656.3591 68.1127 659.8661 68.4877 663.3741 69.0877"></polygon>
                        <polygon id="Fill-46" fill="#D4EEF6" points="653.2541 53.4055 651.3001 56.4065 650.9501 108.1065 652.0141 57.0075"></polygon>
                        <polygon id="Fill-48" fill="#D4EEF6" points="668.8502 67.0167 666.3782 60.0087 668.3822 52.4117 665.3092 60.6837"></polygon>
                        <polygon id="Fill-50" fill="#D4EEF6" points="671.9887 77.4167 674.5267 78.6177 677.5987 77.4167 675.3277 79.2927 674.1257 79.2927 672.8567 78.6177 673.2907 79.8927 674.7937 80.3397 675.5287 80.3397 674.7937 81.0937 673.2907 80.3397 672.8567 80.3397"></polygon>
                        <path d="M641.4323,104.6171 L637.5383,105.1801 L637.4583,108.7811 L638.9273,112.9461 L641.4323,114.4091 L642.3343,116.0971 L643.2023,117.2231 C644.1373,116.3221 643.2023,115.1971 643.2023,115.1971 L642.6053,112.6081 L642.3343,109.7941 L643.6173,111.4831 L644.0373,113.9591 L644.9653,113.9291 L644.5223,109.6581 L643.5363,107.1221 L641.4323,104.6171 Z" id="Fill-52" fill="#FDD8AF"></path>
                        <polygon id="Fill-54" fill="#FCC385" points="669.4506 111.032 671.0536 113.059 672.5226 110.357 669.7176 110.357"></polygon>
                        <polygon id="Fill-56" fill="#846137" points="670.604 109.105 667.919 109.339 667.736 116.134 668.919 115.963 668.957 111.047 677.53 110.793 677.402 114.812 678.723 114.633 678.771 108.65"></polygon>
                        <path d="M685.5667,113.9379 L660.5677,115.9199 L661.4317,136.8459 C662.5237,137.5459 663.6167,138.2459 664.7087,138.9459 C672.3457,137.4979 679.9827,136.0499 687.6197,134.6019 L685.5667,113.9379 Z" id="Fill-58" fill="#846137"></path>
                        <path d="M672.1377,102.0494 C673.0407,101.9174 673.9437,101.7854 674.8467,101.6534 C675.2607,102.3404 675.6747,103.0274 676.0887,103.7134 C676.0417,104.2684 675.9947,104.8234 675.9477,105.3784 C676.1827,105.9854 676.4177,106.5934 676.6527,107.2014 C676.7237,108.2844 676.7937,109.3674 676.8647,110.4504 C676.5347,111.0314 676.2057,111.6134 675.8767,112.1944 C674.8657,112.4844 673.8547,112.7754 672.8437,113.0664 C672.4767,113.4884 672.1097,113.9114 671.7427,114.3344 L670.6847,113.3834 C670.5847,112.1744 670.4857,110.9654 670.3857,109.7574 C669.9187,109.5564 669.4507,109.3564 668.9827,109.1564 C669.0937,108.2404 669.2047,107.3244 669.3157,106.4084 C669.8567,105.8004 670.3977,105.1934 670.9387,104.5854 C671.3387,103.7404 671.7377,102.8944 672.1377,102.0494" id="Fill-60" fill="#FDD8AF"></path>
                        <polygon id="Fill-62" fill="#986E3F" points="685.5667 113.9379 687.6197 123.3009 664.0737 127.0149 660.5677 115.9199"></polygon>
                        <polygon id="Fill-64" fill="#F9CEBE" points="151.8817 247.8195 156.9437 247.1865 162.6387 187.7105 151.8817 187.7105"></polygon>
                        <polygon id="Fill-66" fill="#F9CEBE" points="170.0725 247.8195 175.1345 247.1865 180.8295 187.7105 170.0725 187.7105"></polygon>
                        <path d="M145.4621,143.2843 L144.9101,163.3653 L142.6451,170.8993 L143.7011,175.6753 L145.4421,177.8573 C145.4421,177.8573 146.5881,178.1553 146.7111,176.9153 C146.8341,175.6753 147.2541,170.0923 147.2541,170.0923 C147.2541,170.0923 148.0621,169.7593 148.2101,170.8293 C148.3581,171.8983 148.8471,173.5103 150.0911,173.4553 L149.6981,168.3833 L148.5381,163.7823 L148.5161,163.7793 L151.4451,144.3983 L157.7871,118.3153 L149.6581,117.2903 L145.4621,143.2843 Z" id="Fill-68" fill="#F9CEBE"></path>
                        <path d="M162.346,249.9467 L156.944,247.0427 L151.827,246.9917 C151.827,246.9917 150.349,249.9467 150.863,253.2877 L166.329,253.2877 C166.329,253.2877 166.072,250.3317 162.346,249.9467" id="Fill-70" fill="#76C052"></path>
                        <path d="M183.7006,249.9467 L175.4506,246.9917 L170.0176,246.9917 C170.0176,246.9917 168.5396,249.9467 169.0536,253.2877 L187.6836,253.2877 C187.6836,253.2877 187.4266,250.3317 183.7006,249.9467" id="Fill-72" fill="#76C052"></path>
                        <path d="M154.4126,112.4161 C151.3226,113.2191 149.9756,115.7541 149.5316,116.8271 L146.3456,122.9351 C146.5626,123.0081 147.8366,123.7331 149.4086,124.6511 C150.5386,121.9011 152.9366,117.4511 153.5106,116.3141 C155.2526,112.8611 159.6856,111.9151 162.6116,110.6761 C162.6416,110.5941 167.1916,108.3151 167.1576,108.0711 C167.1556,108.0531 167.1606,108.0381 167.1606,108.0211 L167.0666,107.9871 L154.4126,112.4161 Z" id="Fill-74" fill="#000000"></path>
                        <path d="M189.6356,163.5133 L186.0516,143.2773 L184.0936,119.0593 L175.6956,118.1603 L180.0266,144.1333 L186.0686,163.8233 L186.0486,163.8253 L184.7626,168.3923 L184.2296,173.4523 C185.4726,173.5413 186.0056,171.9433 186.1826,170.8783 C186.3606,169.8133 187.1596,170.1683 187.1596,170.1683 C187.1596,170.1683 187.4256,175.7603 187.5146,177.0033 C187.6036,178.2463 188.7566,177.9793 188.7566,177.9793 L190.5566,175.8473 L191.7436,171.1013 L189.6876,163.5093 L189.6356,163.5133 Z" id="Fill-76" fill="#F9CEBE"></path>
                        <path d="M177.2182,148.5853 L177.9382,134.6623 C179.3082,133.8113 180.2482,132.2183 180.2482,130.3813 L180.2482,130.0403 C180.2482,130.0403 180.1482,128.7283 179.9222,126.9853 C182.5302,125.4483 185.8552,123.5093 186.2332,123.3833 L183.9812,117.3203 L183.9952,117.3203 L183.4242,116.0193 C182.7632,114.8213 181.4452,113.1363 179.0862,112.4643 L167.1832,108.3033 C167.1732,108.2263 166.1722,108.2263 166.1632,108.3033 L154.4122,112.4163 C151.3232,113.2193 149.9752,115.7543 149.5322,116.8273 L146.3452,122.9353 C146.8502,123.1033 153.0322,126.7823 155.5052,128.2593 L156.9062,148.5803 L152.2972,160.9223 C151.6032,163.1583 151.2892,168.6573 151.3672,170.9973 L151.8812,187.7103 L180.9872,187.7103 L180.9872,169.2703 C180.9872,167.4383 180.7902,162.4483 180.4002,160.6583 L177.2182,148.5853 Z" id="Fill-78" fill="#64ADC2"></path>
                        <path d="M162.4272,112.2051 C162.4272,114.6511 164.4102,116.6341 166.8562,116.6341 C169.3022,116.6341 171.2852,114.6511 171.2852,112.2051 L171.2852,102.2921 L162.4272,102.2921 L162.4272,112.2051 Z" id="Fill-80" fill="#F9CEBE"></path>
                        <path d="M179.485,90.8604 C179.699,84.3934 174.63,78.9764 168.163,78.7614 C161.696,78.5474 156.279,83.6164 156.064,90.0834 C155.85,96.5514 160.919,101.9684 167.386,102.1824 C173.854,102.3974 179.271,97.3274 179.485,90.8604" id="Fill-82" fill="#2E404A"></path>
                        <path d="M177.6267,94.9807 C177.5547,94.9687 177.4827,94.9617 177.4117,94.9607 C177.4127,85.5347 171.7197,83.2797 168.0177,83.1457 L168.0177,83.1457 C168.0127,83.1447 168.0067,83.1447 168.0017,83.1447 C167.9967,83.1447 167.9917,83.1447 167.9867,83.1447 L167.9867,83.1447 C164.2837,83.0337 158.4537,84.9057 157.8307,94.3127 C157.7697,94.3107 157.7077,94.3117 157.6457,94.3177 C156.5217,94.4347 155.7017,95.8457 155.8157,97.4707 C155.9297,99.0947 156.9347,100.3177 158.0587,100.2017 C158.1367,100.1937 158.2127,100.1777 158.2867,100.1577 C158.9427,102.7197 160.0587,104.1797 160.5797,104.8907 C161.3087,105.8867 165.0957,109.1417 167.1207,109.2407 L167.1207,109.2417 C167.1257,109.2417 167.1317,109.2417 167.1367,109.2417 C167.1417,109.2417 167.1467,109.2427 167.1517,109.2427 L167.1517,109.2417 C169.1797,109.2777 173.1737,106.2807 173.9667,105.3347 C174.5347,104.6587 175.7477,103.2737 176.5727,100.7537 C176.6547,100.7837 176.7377,100.8087 176.8247,100.8237 C177.9387,101.0137 179.0217,99.8607 179.2427,98.2477 C179.4647,96.6337 178.7407,95.1707 177.6267,94.9807" id="Fill-84" fill="#F9CEBE"></path>
                        <path d="M167.2705,105.6739 C168.7535,105.7229 169.9865,104.8519 170.0235,103.7289 L164.6525,103.5509 C164.6155,104.6739 165.7875,105.6249 167.2705,105.6739" id="Fill-86" fill="#FFFFFF"></path>
                        <path d="M167.5608,80.2108 C160.6088,79.9798 158.2938,86.0008 158.2008,88.8048 C155.5638,92.2258 158.2078,95.4518 160.1168,96.6178 C160.1388,95.9658 160.1468,95.7268 160.1738,94.8938 C160.2488,92.6278 162.4738,90.6008 165.6988,91.0568 C168.5888,91.4668 170.4688,89.8888 172.1048,87.1528 C174.1328,83.4838 171.8568,80.3528 167.5608,80.2108" id="Fill-88" fill="#2E404A"></path>
                        <path d="M171.8452,85.9969 C171.8452,85.9969 173.2502,92.6449 177.6272,94.9809 C178.6152,89.0789 179.0412,90.3429 177.8852,87.1799 C176.7292,84.0159 171.9932,81.5379 171.9932,81.5379 L171.8452,85.9969 Z" id="Fill-90" fill="#2E404A"></path>
                        <path d="M165.8996,80.6675 C165.8996,80.6675 160.2576,71.2845 152.7176,78.1765 C145.1786,85.0695 153.1816,98.5645 148.7126,100.4995 C153.5356,100.0375 154.9456,93.2775 154.6726,87.2775 C154.4326,81.9725 159.1546,79.5685 162.6936,81.8555 C164.1796,82.8165 165.8996,80.6675 165.8996,80.6675" id="Fill-92" fill="#2E404A"></path>
                        <path d="M606.6897,247.8657 L601.6587,247.8657 C601.6287,247.8657 601.6047,247.8407 601.6047,247.8107 L601.6047,205.2217 C601.6047,204.2497 601.3997,203.7607 601.2257,203.6367 C600.8557,203.3767 599.7257,203.4747 599.0017,203.7327 L597.2187,198.9117 C597.6317,198.7577 601.3357,197.4577 604.1527,199.4117 C605.3347,200.2317 606.7447,201.9057 606.7447,205.2217 L606.7447,247.8107 C606.7447,247.8407 606.7197,247.8657 606.6897,247.8657" id="Fill-94" fill="#CCDBE2"></path>
                        <path d="M607.8712,253.1768 C607.8772,254.4318 607.2082,255.5938 606.1182,256.2178 L605.6052,256.5118 L605.6272,255.9098 C605.6282,255.8918 605.6282,255.8728 605.6282,255.8548 C605.6262,255.5578 605.5182,255.2798 605.3252,255.0638 L605.0672,254.7758 L605.3902,254.5628 C605.8482,254.2598 606.1222,253.7538 606.1222,253.2078 C606.1142,252.2978 605.3792,251.5758 604.4842,251.5838 C603.5972,251.5918 602.8752,252.3198 602.8752,253.2068 C602.8802,253.7388 603.1242,254.2118 603.5432,254.5188 L603.8552,254.7468 L603.5842,255.0218 C603.3642,255.2468 603.2422,255.5438 603.2422,255.8578 C603.2422,255.8908 603.2432,255.9118 603.2442,255.9318 L603.2792,256.5328 L602.7642,256.2508 C601.6512,255.6408 600.9572,254.4758 600.9512,253.2078 C600.9512,251.9798 601.5922,250.8628 602.6382,250.2398 C602.6542,250.2298 602.6642,250.2128 602.6642,250.1948 L602.6432,247.9518 C602.6432,247.9218 602.6672,247.8968 602.6972,247.8968 L606.0272,247.8658 C606.0572,247.8658 606.0822,247.8898 606.0822,247.9208 L606.1032,250.1638 C606.1032,250.1818 606.1132,250.1988 606.1292,250.2078 C607.1982,250.8178 607.8602,251.9348 607.8712,253.1768 Z" id="Fill-96" fill="#9CB6C2"></path>
                        <path d="M547.1997,229.5309 L552.2307,229.5309 C552.2607,229.5309 552.2847,229.5059 552.2847,229.4759 L552.2847,204.1999 C552.2847,203.2279 552.4897,202.7389 552.6637,202.6149 C553.0337,202.3549 554.1637,202.4529 554.8877,202.7109 L556.6707,197.8899 C556.2577,197.7359 552.5537,196.4359 549.7367,198.3899 C548.5547,199.2099 547.1447,200.8839 547.1447,204.1999 L547.1447,229.4759 C547.1447,229.5059 547.1697,229.5309 547.1997,229.5309" id="Fill-98" fill="#CCDBE2"></path>
                        <mask id="mask-2" fill="white">
                            <use xlink:href="#path-1"></use>
                        </mask>
                        <g id="Clip-101"></g>
                        <polygon id="Fill-100" fill="#CCDBE2" mask="url(#mask-2)" points="566.547 191.529 587.845 191.529 587.845 179.251 566.547 179.251"></polygon>
                        <path d="M546.0182,234.8421 C546.0122,236.0971 546.6812,237.2591 547.7712,237.8831 L548.2842,238.1771 L548.2622,237.5751 C548.2612,237.5571 548.2612,237.5381 548.2612,237.5201 C548.2632,237.2231 548.3712,236.9451 548.5642,236.7291 L548.8222,236.4411 L548.4992,236.2281 C548.0412,235.9251 547.7672,235.4191 547.7672,234.8731 C547.7752,233.9631 548.5102,233.2411 549.4052,233.2491 C550.2922,233.2571 551.0142,233.9851 551.0142,234.8721 C551.0092,235.4041 550.7652,235.8771 550.3462,236.1841 L550.0342,236.4121 L550.3052,236.6871 C550.5262,236.9121 550.6472,237.2091 550.6472,237.5231 C550.6472,237.5561 550.6462,237.5761 550.6452,237.5971 L550.6102,238.1981 L551.1252,237.9161 C552.2382,237.3061 552.9322,236.1411 552.9382,234.8731 C552.9382,233.6451 552.2972,232.5281 551.2512,231.9051 C551.2352,231.8951 551.2252,231.8781 551.2252,231.8601 L551.2462,229.6171 C551.2462,229.5871 551.2222,229.5621 551.1922,229.5621 L547.8622,229.5311 C547.8322,229.5311 547.8072,229.5551 547.8072,229.5861 L547.7862,231.8291 C547.7862,231.8471 547.7762,231.8641 547.7602,231.8731 C546.6912,232.4831 546.0292,233.6001 546.0182,234.8421 Z" id="Fill-102" fill="#9CB6C2" mask="url(#mask-2)"></path>
                        <polygon id="Fill-103" fill="#CCDBE2" mask="url(#mask-2)" points="561.618 302.188 574.146 302.188 574.146 225.355 561.618 225.355"></polygon>
                        <polygon id="Fill-104" fill="#9CB6C2" mask="url(#mask-2)" points="554.1 272.561 567.631 272.561 567.631 259.427 554.1 259.427"></polygon>
                        <path d="M574.1462,311.4589 L556.7062,311.4589 C554.1602,311.4589 552.0962,309.3949 552.0962,306.8489 L552.0962,305.0439 C552.0962,302.4979 554.1602,300.4339 556.7062,300.4339 L574.1462,300.4339 L574.1462,311.4589 Z" id="Fill-105" fill="#9CB6C2" mask="url(#mask-2)"></path>
                        <polygon id="Fill-106" fill="#9CB6C2" mask="url(#mask-2)" points="543.66 170.231 555.771 170.231 555.771 167.224 543.66 167.224"></polygon>
                        <path d="M539.6495,162.7139 C542.9705,162.7139 545.6635,165.4059 545.6635,168.7279 C545.6635,172.0489 542.9705,174.7409 539.6495,174.7409 C536.3285,174.7409 533.6355,172.0489 533.6355,168.7279 C533.6355,165.4059 536.3285,162.7139 539.6495,162.7139" id="Fill-107" fill="#CCDBE2" mask="url(#mask-2)"></path>
                        <polygon id="Fill-108" fill="#9CB6C2" mask="url(#mask-2)" points="598.787 170.231 610.898 170.231 610.898 167.224 598.787 167.224"></polygon>
                        <path d="M614.6558,162.7139 C617.9768,162.7139 620.6698,165.4059 620.6698,168.7279 C620.6698,172.0489 617.9768,174.7409 614.6558,174.7409 C611.3348,174.7409 608.6418,172.0489 608.6418,168.7279 C608.6418,165.4059 611.3348,162.7139 614.6558,162.7139" id="Fill-109" fill="#CCDBE2" mask="url(#mask-2)"></path>
                        <path d="M558.916,175.7432 L560.311,175.7432 C562.27,175.7432 563.873,174.1402 563.873,172.1812 L563.873,165.0232 C563.873,163.0642 562.27,161.4612 560.311,161.4612 L558.916,161.4612 C556.957,161.4612 555.354,163.0642 555.354,165.0232 L555.354,172.1812 C555.354,174.1402 556.957,175.7432 558.916,175.7432" id="Fill-110" fill="#CCDBE2" mask="url(#mask-2)"></path>
                        <path d="M593.8298,175.7432 L595.2238,175.7432 C597.1838,175.7432 598.7868,174.1402 598.7868,172.1812 L598.7868,165.0232 C598.7868,163.0642 597.1838,161.4612 595.2238,161.4612 L593.8298,161.4612 C591.8708,161.4612 590.2678,163.0642 590.2678,165.0232 L590.2678,172.1812 C590.2678,174.1402 591.8708,175.7432 593.8298,175.7432" id="Fill-111" fill="#CCDBE2" mask="url(#mask-2)"></path>
                        <path d="M566.9011,152.4406 L586.8791,152.4406 C590.4951,152.4406 593.4271,155.3726 593.4271,158.9886 L593.4271,174.4566 C593.4271,178.0736 590.4951,181.0046 586.8791,181.0046 L566.9011,181.0046 C563.2841,181.0046 560.3531,178.0736 560.3531,174.4566 L560.3531,158.9886 C560.3531,155.3726 563.2841,152.4406 566.9011,152.4406" id="Fill-112" fill="#9CB6C2" mask="url(#mask-2)"></path>
                        <path d="M584.3237,157.7025 C585.8457,157.7025 587.0797,158.9365 587.0797,160.4585 C587.0797,161.9805 585.8457,163.2145 584.3237,163.2145 C582.8017,163.2145 581.5677,161.9805 581.5677,160.4585 C581.5677,158.9365 582.8017,157.7025 584.3237,157.7025" id="Fill-113" fill="#68828E" mask="url(#mask-2)"></path>
                        <path d="M576.5566,175.0795 C576.6616,175.0795 576.7386,175.0775 576.7836,175.0755 C580.7686,175.0695 582.8956,173.0955 583.9786,171.4395 C585.1376,169.6665 585.3536,167.8955 585.3616,167.8205 C585.4146,167.3625 585.0866,166.9485 584.6276,166.8955 C584.1706,166.8435 583.7566,167.1705 583.7026,167.6265 C583.6736,167.8625 582.9286,173.4045 576.7646,173.4045 L576.7026,173.4065 C576.4616,173.4235 570.7356,173.7375 570.0786,167.3885 C570.0306,166.9295 569.6216,166.5985 569.1616,166.6435 C568.7026,166.6915 568.3696,167.1015 568.4166,167.5605 C569.1526,174.6745 575.1986,175.0795 576.5566,175.0795" id="Fill-114" fill="#68828E" mask="url(#mask-2)"></path>
                        <polygon id="Fill-115" fill="#CCDBE2" mask="url(#mask-2)" points="580.495 302.188 593.023 302.188 593.023 225.355 580.495 225.355"></polygon>
                        <polygon id="Fill-116" fill="#9CB6C2" mask="url(#mask-2)" points="587.01 272.561 600.541 272.561 600.541 259.427 587.01 259.427"></polygon>
                        <path d="M580.4952,311.4589 L597.9352,311.4589 C600.4812,311.4589 602.5452,309.3949 602.5452,306.8489 L602.5452,305.0439 C602.5452,302.4979 600.4812,300.4339 597.9352,300.4339 L580.4952,300.4339 L580.4952,311.4589 Z" id="Fill-117" fill="#9CB6C2" mask="url(#mask-2)"></path>
                        <path d="M560.1448,189.5243 L594.3338,189.5243 C597.2548,189.5243 599.6218,192.1213 599.6218,195.3253 L599.6218,221.3083 C599.6218,224.5123 597.2548,227.1093 594.3338,227.1093 L560.1448,227.1093 C557.2248,227.1093 554.8568,224.5123 554.8568,221.3083 L554.8568,195.3253 C554.8568,192.1213 557.2248,189.5243 560.1448,189.5243" id="Fill-118" fill="#9CB6C2" mask="url(#mask-2)"></path>
                        <path d="M571.9268,224.8869 L582.5068,224.8869 C590.1598,224.8869 596.3648,218.6829 596.3648,211.0289 L596.3648,205.6039 C596.3648,197.9509 590.1598,191.7469 582.5068,191.7469 L571.9268,191.7469 C564.2728,191.7469 558.0688,197.9509 558.0688,205.6039 L558.0688,211.0289 C558.0688,218.6829 564.2728,224.8869 571.9268,224.8869" id="Fill-119" fill="#CCDBE2" mask="url(#mask-2)"></path>
                        <path d="M569.7553,217.1442 L585.3893,217.1442 C590.2053,217.1442 594.1093,213.2402 594.1093,208.4232 L594.1093,205.0102 C594.1093,200.1942 590.2053,196.2892 585.3893,196.2892 L569.7553,196.2892 C564.9393,196.2892 561.0343,200.1942 561.0343,205.0102 L561.0343,208.4232 C561.0343,213.2402 564.9393,217.1442 569.7553,217.1442" id="Fill-120" fill="#68828E" mask="url(#mask-2)"></path>
                        <path d="M569.4561,157.7025 C570.9781,157.7025 572.2121,158.9365 572.2121,160.4585 C572.2121,161.9805 570.9781,163.2145 569.4561,163.2145 C567.9341,163.2145 566.7001,161.9805 566.7001,160.4585 C566.7001,158.9365 567.9341,157.7025 569.4561,157.7025" id="Fill-121" fill="#68828E" mask="url(#mask-2)"></path>
                        <path d="M198.2346,289.9008 C317.1746,303.7328 436.1136,317.5638 555.0536,331.3958 C555.1076,248.5678 555.1626,165.7398 555.2166,82.9108 C435.9656,76.4678 316.7136,70.0248 197.4626,63.5808 C197.7196,139.0208 197.9776,214.4608 198.2346,289.9008" id="Fill-122" fill="#14A987" mask="url(#mask-2)"></path>
                        <path d="M0,172.9027 C93.237,162.4037 186.475,151.9037 279.712,141.4047 L277.491,366.6247 C184.994,391.5467 92.497,416.4677 0,441.3897 C0,351.8937 0,262.3987 0,172.9027" id="Fill-123" fill="#008E6F" mask="url(#mask-2)"></path>
                        <path d="M475.8967,263.5549 L475.8967,263.5549 C467.7597,263.5549 461.1637,256.9589 461.1637,248.8219 L461.1637,197.6119 C461.1637,192.6349 465.1977,188.6009 470.1747,188.6009 L481.6187,188.6009 C486.5957,188.6009 490.6297,192.6349 490.6297,197.6119 L490.6297,248.8219 C490.6297,256.9589 484.0337,263.5549 475.8967,263.5549" id="Fill-124" fill="#4A3222" mask="url(#mask-2)"></path>
                        <path d="M488.5898,209.5219 C487.2748,221.6269 463.1738,222.4379 462.9818,209.5219 C462.8448,200.2579 468.7148,192.7469 475.7858,192.7469 C482.8568,192.7469 489.5898,200.3119 488.5898,209.5219" id="Fill-125" fill="#FBD3AB" mask="url(#mask-2)"></path>
                        <path d="M471.6703,205.2951 C471.6703,205.4381 470.8363,205.5541 469.8073,205.5541 C468.7783,205.5541 467.9443,205.4381 467.9443,205.2951 C467.9443,205.1521 468.7783,205.0361 469.8073,205.0361 C470.8363,205.0361 471.6703,205.1521 471.6703,205.2951" id="Fill-126" fill="#9B5A3C" mask="url(#mask-2)"></path>
                        <path d="M483.4481,205.036 C483.4481,205.179 482.6141,205.295 481.5851,205.295 C480.5561,205.295 479.7221,205.179 479.7221,205.036 C479.7221,204.893 480.5561,204.777 481.5851,204.777 C482.6141,204.777 483.4481,204.893 483.4481,205.036" id="Fill-127" fill="#9B5A3C" mask="url(#mask-2)"></path>
                        <path d="M465.3309,263.3927 C465.7449,260.1197 466.0439,256.9747 466.2799,254.0437 L466.3059,233.7277 C463.2339,234.1907 460.9189,236.1927 460.7279,238.6927 C460.7219,238.7737 460.7259,238.8647 460.7199,238.9457 C460.7129,239.4987 460.0869,258.9567 458.8739,266.8647 C458.4419,269.5607 456.8319,278.1627 456.3309,280.8287 L462.2129,281.6087 C463.2199,275.5497 464.5539,269.5357 465.3309,263.3927" id="Fill-128" fill="#FBD3AB" mask="url(#mask-2)"></path>
                        <path d="M459.042,289.9241 C459.042,289.9241 461.003,283.5741 461.072,283.4761 C461.054,284.0441 461.09,284.9271 461.416,285.5161 C461.416,285.5161 461.77,286.8841 462.579,285.8281 L462.916,281.3591 L462.523,279.4641 L459.093,275.8481 C459.063,275.8471 458.953,276.0391 458.938,276.0601 C458.792,276.2641 458.648,276.4711 458.507,276.6781 C458.049,277.3501 457.611,278.0361 457.2,278.7381 C456.255,280.3511 455.449,282.1171 455.149,283.9751 C455.008,284.8461 454.954,285.7921 455.107,286.6731 C455.183,287.1081 455.311,287.5791 455.61,287.9181 C455.998,288.3571 456.519,288.2491 456.983,288.5321 C457.131,288.6221 457.123,288.9111 457.183,289.0551 C457.301,289.3421 457.641,289.4661 457.819,289.7041 C457.981,289.9201 458.031,290.2631 458.347,290.3401 C458.595,290.3991 458.964,290.1761 459.042,289.9241" id="Fill-129" fill="#FBD3AB" mask="url(#mask-2)"></path>
                        <path d="M482.0994,359.1772 C482.0994,359.1772 480.8464,324.3752 480.4584,313.0542 C480.1824,304.9742 479.3524,283.6102 479.3524,283.6102 L490.7424,283.6102 L492.3964,359.1772 L482.0994,359.1772 Z" id="Fill-130" fill="#8061A9" mask="url(#mask-2)"></path>
                        <path d="M462.9475,359.192 C462.7355,357.907 463.4935,331.18 463.1855,319.814 C462.9255,310.216 463.5665,284.8 463.6955,283.61 L476.3815,283.61 C476.3505,283.896 473.2905,310.581 473.5315,319.509 C473.8215,330.2 473.8975,358.869 473.9485,359.177 L462.9475,359.192 Z" id="Fill-131" fill="#8061A9" mask="url(#mask-2)"></path>
                        <path d="M465.8476,260.3817 L465.8476,260.3817 L472.8886,260.3817 L490.1166,260.3817 C490.9586,263.6557 492.2366,270.6827 491.5686,283.6107 L471.2686,283.6107 L462.8946,283.6107 C463.5776,268.0957 465.3226,261.3117 465.8476,260.3817" id="Fill-132" fill="#957AB6" mask="url(#mask-2)"></path>
                        <path d="M464.3376,241.1016 C464.2866,241.8816 464.2486,242.5676 464.2486,242.8276 C464.2486,245.4126 465.8476,260.3816 465.8476,260.3816 L490.1166,260.3816 L491.3916,241.5626 L464.3376,241.1016 Z" id="Fill-133" fill="#957AB6" mask="url(#mask-2)"></path>
                        <path d="M489.7366,258.9798 L489.7436,258.9588 C489.7666,258.9588 489.7676,258.9688 489.8036,258.9798 L489.7366,258.9798 Z" id="Fill-134" fill="#E4A06E" mask="url(#mask-2)"></path>
                        <path d="M472.9097,365.3785 C472.9067,366.1595 472.8527,367.0465 472.7167,368.0845 L460.6607,368.0845 L465.2717,365.3785 L472.9097,365.3785 Z" id="Fill-135" fill="#148040" mask="url(#mask-2)"></path>
                        <path d="M453.0973,365.6967 C453.0973,365.6967 456.6833,365.7857 459.1603,364.4557 C460.3463,363.8187 464.6063,360.8287 464.6063,360.8287 L471.4873,360.8287 C471.4873,360.8287 472.9293,360.6497 472.9093,365.3787 L465.2713,365.3787 L460.6603,368.0837 L453.0973,368.0837 L453.0973,365.6967 Z" id="Fill-136" fill="#14A987" mask="url(#mask-2)"></path>
                        <path d="M471.487,360.8284 L464.607,360.8284 L459.16,364.4564 L471.487,360.8284 C471.487,360.8284 472.441,360.8284 471.487,360.8284" id="Fill-137" fill="#414242" mask="url(#mask-2)"></path>
                        <path d="M492.2889,365.3785 C492.2859,366.1595 492.2319,367.0465 492.0969,368.0845 L480.0399,368.0845 L484.6509,365.3785 L492.2889,365.3785 Z" id="Fill-138" fill="#148040" mask="url(#mask-2)"></path>
                        <path d="M473.9151,365.6967 C473.9151,365.6967 476.8851,365.3547 479.3611,364.0257 C480.5481,363.3877 482.5481,360.8287 482.5481,360.8287 L490.8661,360.8287 C490.8661,360.8287 492.3081,360.6497 492.2891,365.3787 L484.6511,365.3787 L480.0401,368.0837 L473.9151,368.0837 L473.9151,365.6967 Z" id="Fill-139" fill="#14A987" mask="url(#mask-2)"></path>
                        <path d="M490.8662,360.8284 L482.5482,360.8284 L479.3612,364.0254 L490.8662,360.8284 C490.8662,360.8284 491.8202,360.8284 490.8662,360.8284" id="Fill-140" fill="#504344" mask="url(#mask-2)"></path>
                        <polygon id="Fill-141" fill="#E4A06E" mask="url(#mask-2)" points="465.613 360.828 471.487 360.828 471.487 359.177 465.613 359.177"></polygon>
                        <polygon id="Fill-142" fill="#E4A06E" mask="url(#mask-2)" points="484.631 360.828 490.505 360.828 490.505 359.177 484.631 359.177"></polygon>
                        <path d="M466.8308,240.3361 C468.2118,234.2741 469.7808,225.8971 469.7808,225.8971 C469.7808,225.8971 465.0418,226.4731 464.6508,226.6151 C463.4608,227.0471 461.5378,228.4241 461.1288,230.6761 C461.1288,230.6761 460.0988,237.2451 459.6908,240.3361 L466.8308,240.3361 Z" id="Fill-143" fill="#8061A9" mask="url(#mask-2)"></path>
                        <path d="M491.4291,239.2269 L490.7101,226.9679 L480.3021,225.8289 L471.9681,225.7339 L465.4121,226.4319 C465.2921,226.4539 465.1841,226.4869 465.0651,226.5079 L464.4891,237.9579 C464.4501,237.9439 464.3061,241.1669 464.2111,242.6209 L491.2651,243.0829 L491.4291,239.2269 Z" id="Fill-144" fill="#A086BD" mask="url(#mask-2)"></path>
                        <path d="M480.666,213.0085 L472.981,213.0085 L473.065,226.2465 C476.147,231.1475 480.666,226.2465 480.666,226.2465 L480.666,213.0085 Z" id="Fill-145" fill="#FBD3AB" mask="url(#mask-2)"></path>
                        <polygon id="Fill-146" fill="#FBD3AB" mask="url(#mask-2)" points="474.2655 236.0603 473.0655 226.2463 480.6655 226.2463"></polygon>
                        <polygon id="Fill-147" fill="#724F9F" mask="url(#mask-2)" points="473.0945 226.0434 471.0585 226.2774 473.0135 238.7514 474.4665 236.0144"></polygon>
                        <polygon id="Fill-148" fill="#8061A9" mask="url(#mask-2)" points="483.8662 226.1236 481.1502 225.8266 474.4812 235.7386 474.4672 235.6346 473.0142 238.3716 473.4312 241.0356"></polygon>
                        <polygon id="Fill-149" fill="#F1F1F1" mask="url(#mask-2)" points="481.736 246.8002 482.431 246.8002 482.43 242.1992 481.736 242.1832"></polygon>
                        <polygon id="Fill-150" fill="#F1F1F1" mask="url(#mask-2)" points="487.7776 242.2818 487.7786 246.7998 488.4386 246.7998 488.4386 242.2978"></polygon>
                        <path d="M481.5334,247.5828 L481.5334,245.7698 C481.5334,245.7008 481.5894,245.6448 481.6594,245.6448 L482.5084,245.6448 C482.5774,245.6448 482.6334,245.7008 482.6334,245.7698 L482.6334,247.5828 C482.6334,247.6518 482.5774,247.7088 482.5084,247.7088 L481.6594,247.7088 C481.5894,247.7088 481.5334,247.6518 481.5334,247.5828" id="Fill-151" fill="#3A3637" mask="url(#mask-2)"></path>
                        <path d="M487.5584,247.4523 L487.5584,245.6393 C487.5584,245.5703 487.6144,245.5143 487.6844,245.5143 L488.5334,245.5143 C488.6024,245.5143 488.6584,245.5703 488.6584,245.6393 L488.6584,247.4523 C488.6584,247.5213 488.6024,247.5783 488.5334,247.5783 L487.6844,247.5783 C487.6144,247.5783 487.5584,247.5213 487.5584,247.4523" id="Fill-152" fill="#3A3637" mask="url(#mask-2)"></path>
                        <path d="M469.1295,238.9116 L467.9805,238.8836 L468.1825,230.4046 C468.1745,230.3796 467.9605,228.0736 469.4015,226.4936 C470.2635,225.5496 471.4945,225.0816 473.0985,225.0886 L473.0905,226.2386 C471.8755,226.2326 470.8875,226.5736 470.2575,227.2636 C469.1625,228.4586 469.3275,230.3436 469.3305,230.3626 L469.1295,238.9116 Z" id="Fill-153" fill="#3A3637" mask="url(#mask-2)"></path>
                        <path d="M484.5175,236.9307 L484.3615,230.4327 C484.3655,230.3427 484.5315,228.4587 483.4375,227.2627 C482.8065,226.5747 481.8215,226.2447 480.6035,226.2387 L480.5945,225.0887 C482.2215,225.0717 483.4335,225.5497 484.2925,226.4937 C485.7325,228.0747 485.5185,230.3787 485.5095,230.4757 L485.6665,236.9027 L484.5175,236.9307 Z" id="Fill-154" fill="#3A3637" mask="url(#mask-2)"></path>
                        <path d="M468.4098,237.1784 C469.3598,237.0984 470.1938,237.8034 470.2738,238.7534 C470.3538,239.7034 469.6488,240.5374 468.6988,240.6174 C467.7488,240.6974 466.9148,239.9924 466.8348,239.0424 C466.7548,238.0924 467.4598,237.2584 468.4098,237.1784" id="Fill-155" fill="#F1F1F1" mask="url(#mask-2)"></path>
                        <path d="M488.5867,240.2208 C488.6197,237.0428 486.6047,235.9828 485.5047,235.8648 C484.1947,235.8178 483.1797,236.2328 482.4947,237.0838 C481.4547,238.3768 481.6007,240.1938 481.6047,240.2148 L481.6047,242.1828 L482.5617,242.1988 L482.5607,240.1608 C482.5587,240.1468 482.4557,238.7528 483.2017,237.8328 C483.6907,237.2288 484.4417,236.9288 485.4437,236.9698 C485.6707,236.9978 487.6587,237.3208 487.6287,240.2148 L487.6287,242.2818 L488.5867,242.2978 L488.5867,240.2208 Z" id="Fill-156" fill="#3A3637" mask="url(#mask-2)"></path>
                        <polygon id="Fill-157" fill="#00583E" mask="url(#mask-2)" points="477.8723 248.5792 485.3803 270.8032 465.2203 270.5012 457.7133 248.2772"></polygon>
                        <path d="M489.7366,258.9798 L489.7436,258.9588 C489.7666,258.9588 489.7676,258.9688 489.8036,258.9798 L489.7366,258.9798 Z M473.9406,253.9558 L475.0836,260.3078 C475.0836,260.3078 490.2026,261.3738 492.6826,260.6008 C497.4306,259.1188 499.6356,254.4918 498.5876,248.0428 L496.9366,234.4378 C496.3026,230.5358 493.3276,226.9298 489.7576,226.9068 C489.7576,226.9068 489.9286,231.2418 490.1466,235.2318 C490.3186,238.3738 491.6636,239.3998 491.6636,239.3998 L492.8306,248.0058 C493.3446,251.1658 492.1036,253.7878 489.9966,254.4078 C489.6786,254.4918 473.9406,253.9558 473.9406,253.9558 L473.9406,253.9558 Z" id="Fill-158" fill="#FBD3AB" mask="url(#mask-2)"></path>
                        <path d="M491.5127,239.3215 L491.5877,241.1015 L498.0787,241.1015 L496.8517,234.2395 C496.1987,230.3805 493.0787,226.8855 489.5447,226.8855 C489.5447,226.8855 489.7427,231.2565 489.9847,235.2045 C490.1747,238.3135 491.5127,239.3215 491.5127,239.3215" id="Fill-159" fill="#8061A9" mask="url(#mask-2)"></path>
                        <path d="M465.6129,250.3279 L471.5769,250.4169 C472.6779,250.4339 473.3469,249.8249 473.0949,249.0529 L463.1089,248.9289 C463.4239,249.6899 464.5239,250.3109 465.6129,250.3279" id="Fill-160" fill="#515050" mask="url(#mask-2)"></path>
                        <path d="M463.0805,248.8719 C463.0875,248.8909 463.1015,248.9089 463.1085,248.9289 L473.0945,249.0529 C473.0905,249.0419 473.0915,249.0329 473.0875,249.0219 C472.8055,248.2349 471.6715,247.5829 470.5555,247.5659 L464.5915,247.4769 C463.4755,247.4599 462.7985,248.0849 463.0805,248.8719" id="Fill-161" fill="#828383" mask="url(#mask-2)"></path>
                        <path d="M462.3076,256.0205 C462.3056,256.4155 462.6566,256.5745 462.8416,256.8275 C463.0466,257.1075 463.0896,257.5445 463.3626,257.7685 C463.4986,257.8805 463.8056,257.9555 463.8616,258.1555 C464.0396,258.7855 463.7896,259.3685 464.1516,259.9525 C464.4326,260.4055 464.8976,260.6935 465.3366,260.9095 C466.2276,261.3475 467.2426,261.5585 468.2006,261.6465 C470.2416,261.8345 472.3186,261.3995 474.2706,260.7555 C475.1206,260.4745 475.9606,260.1585 476.7906,259.8145 C477.0466,259.7085 477.3016,259.5995 477.5556,259.4865 C477.5826,259.4745 477.8136,259.4005 477.8196,259.3655 L474.8946,254.2655 L472.9946,253.2505 L468.1816,252.3455 C466.8556,252.9915 468.2086,253.8075 468.2086,253.8075 C468.7466,254.3645 469.6696,254.6625 470.2746,254.8075 C470.1536,254.8605 462.9286,255.3215 462.9286,255.3215 C462.6416,255.3405 462.3086,255.7105 462.3076,256.0205" id="Fill-162" fill="#FBD3AB" mask="url(#mask-2)"></path>
                        <path d="M146.7998,302.2318 C129.5128,302.5238 115.1328,288.6228 114.8408,271.3338 C114.5488,254.0458 128.4508,239.6668 145.7388,239.3748 C163.0238,239.0828 177.4018,252.9848 177.6938,270.2728 C177.9858,287.5618 164.0848,301.9398 146.7998,302.2318 L146.7998,302.2318 Z M145.6058,231.5198 C123.9978,231.8848 106.6168,249.8608 106.9818,271.4668 C107.3468,293.0718 125.3238,310.4518 146.9328,310.0868 C168.5388,309.7228 185.9178,291.7448 185.5528,270.1398 C185.1878,248.5338 167.2118,231.1548 145.6058,231.5198 L145.6058,231.5198 Z M138.7088,288.6148 L161.9798,270.5378 L138.1118,253.2578 L138.7088,288.6148 Z" id="Fill-163" fill="#14A987" mask="url(#mask-2)"></path>
                        <polygon id="Fill-164" fill="#C29175" mask="url(#mask-2)" points="171.3342 463.5539 165.9852 464.2229 164.6482 400.7059 176.0142 400.7059"></polygon>
                        <polygon id="Fill-165" fill="#C29175" mask="url(#mask-2)" points="190.5564 463.5539 185.2074 464.2229 183.8704 400.7059 195.2364 400.7059"></polygon>
                        <path d="M157.8647,353.7615 L162.2987,326.2935 L170.8887,327.3775 L164.1867,354.9385 L161.0917,375.4185 L161.1147,375.4215 L162.3407,380.2835 L162.7567,385.6435 C161.4417,385.7005 160.9257,383.9975 160.7687,382.8675 C160.6117,381.7365 159.7577,382.0885 159.7577,382.0885 C159.7577,382.0885 159.3137,387.9885 159.1847,389.2985 C159.0547,390.6085 157.8427,390.2935 157.8427,390.2935 L156.0037,387.9885 L154.8887,382.9415 L157.2807,374.9815 L157.8647,353.7615 Z" id="Fill-166" fill="#C29175" mask="url(#mask-2)"></path>
                        <path d="M190.5809,463.3404 L199.6079,466.4704 C203.5449,466.8774 203.8169,470.0004 203.8169,470.0004 L184.1309,470.0004 C183.5879,466.4704 185.1489,463.3474 185.1489,463.3474 L190.5809,463.3404 Z" id="Fill-167" fill="#575352" mask="url(#mask-2)"></path>
                        <path d="M200.7549,353.7537 L204.5419,375.1367 L204.5969,375.1327 L206.7699,383.1557 L205.5159,388.1697 L203.6139,390.4237 C203.6139,390.4237 202.3949,390.7047 202.3009,389.3917 C202.2069,388.0787 201.9259,382.1687 201.9259,382.1687 C201.9259,382.1687 201.0809,381.7937 200.8939,382.9197 C200.7059,384.0447 200.1429,385.7337 198.8299,385.6397 L199.3929,380.2937 L200.7519,375.4667 L200.7739,375.4647 L194.3889,354.6587 L189.8129,327.2137 L198.6869,328.1637 L200.7549,353.7537 Z" id="Fill-168" fill="#C29175" mask="url(#mask-2)"></path>
                        <path d="M158.7983,332.2589 L162.1653,325.8049 C162.6343,324.6709 164.0573,321.9929 167.3223,321.1439 L179.7383,316.7979 C179.7493,316.7159 179.7543,316.6339 179.7653,316.5519 C179.7683,316.5329 179.7623,316.5179 179.7623,316.4999 L179.8613,316.4629 L180.2773,316.6089 L180.6943,316.4629 L180.7933,316.4999 C180.7933,316.5179 180.7873,316.5329 180.7903,316.5519 C180.8013,316.6339 180.8063,316.7159 180.8173,316.7979 L193.3953,321.1949 C195.8873,321.9049 197.2803,323.6849 197.9783,324.9509 L198.2823,325.5569 C198.4913,326.0179 200.9473,332.7329 200.9473,332.7329 C200.5473,332.8659 197.0353,334.9139 194.2783,336.5379 C194.3213,336.0669 191.4213,359.3629 191.4213,359.3629 L194.7833,372.1209 C195.1953,374.0119 195.4033,379.2839 195.4033,381.2199 L195.4033,400.7059 L164.6483,400.7059 L164.1043,383.0459 C164.0213,380.5729 164.3543,374.7619 165.0873,372.3989 L169.9583,359.3569 L168.4773,337.8849 C165.8643,336.3239 159.3323,332.4369 158.7983,332.2589" id="Fill-169" fill="#F9CEBE" mask="url(#mask-2)"></path>
                        <path d="M169.9582,359.3574 C169.9582,359.3574 184.2792,359.4394 191.4472,359.4614 L194.7832,372.1204 C195.1952,374.0114 195.4032,379.2844 195.4032,381.2204 L195.4032,400.7064 L164.6482,400.7064 L164.1042,383.0454 C164.0222,380.5734 164.3542,374.7614 165.0872,372.3994 L169.9582,359.3574 Z" id="Fill-170" fill="#EE4144" mask="url(#mask-2)"></path>
                        <path d="M190.8714,308.5803 C190.8714,313.6493 186.7614,317.7593 181.6924,317.7593 C176.6234,317.7593 172.5134,313.6493 172.5134,308.5803 L172.5134,297.4933 L190.8714,297.4933 L190.8714,308.5803 Z" id="Fill-171" fill="#E9B89E" mask="url(#mask-2)"></path>
                        <path d="M185.1518,318.5745 C185.1518,318.5745 181.9788,319.2915 180.3928,319.2995 C178.8588,319.3085 175.9428,318.7865 175.7918,318.6355 L175.7918,310.4465 L185.1518,310.4465 L185.1518,318.5745 Z" id="Fill-172" fill="#E9B89E" mask="url(#mask-2)"></path>
                        <path d="M171.359,463.3926 L177.043,466.4706 C180.98,466.8776 181.252,469.9996 181.252,469.9996 L164.909,469.9996 C164.366,466.4706 165.927,463.3476 165.927,463.3476 L171.359,463.3926 Z" id="Fill-173" fill="#575352" mask="url(#mask-2)"></path>
                        <path d="M178.0242,287.3383 L183.8852,287.3383 C189.2902,287.3383 193.6702,291.7193 193.6702,297.1233 L193.6702,332.3773 C193.6702,336.2243 190.5522,339.3433 186.7042,339.3433 L174.4232,339.3433 C170.5762,339.3433 167.4572,336.2243 167.4572,332.3773 L168.2392,297.1233 C168.2392,291.7193 172.6202,287.3383 178.0242,287.3383" id="Fill-174" fill="#0C1F25" mask="url(#mask-2)"></path>
                        <polygon id="Fill-175" fill="#008E6F" mask="url(#mask-2)" points="515.4963 114.607 361.4463 107.914 361.5013 104.227 515.5513 110.92"></polygon>
                        <polygon id="Fill-176" fill="#008E6F" mask="url(#mask-2)" points="515.35 124.3991 361.3 117.7061 361.355 114.0191 515.405 120.7121"></polygon>
                        <polygon id="Fill-177" fill="#008E6F" mask="url(#mask-2)" points="515.2037 134.1913 337.3097 127.1423 337.3647 123.4553 515.2587 130.5043"></polygon>
                        <polygon id="Fill-178" fill="#008E6F" mask="url(#mask-2)" points="515.0574 143.9835 337.1634 136.9345 337.2184 133.2465 515.1124 140.2965"></polygon>
                        <polygon id="Fill-179" fill="#008E6F" mask="url(#mask-2)" points="488.1987 153.3765 337.0167 146.7265 337.0717 143.0385 488.2537 149.6885"></polygon>
                        <path d="M342.2278,102.9538 L343.2188,109.4768 C343.4738,110.8578 343.7268,112.3768 343.9238,113.9208 L343.9788,113.9218 C344.2778,112.3848 344.6858,110.8478 345.0368,109.5318 L346.5508,104.0188 L349.8548,104.0678 L351.1238,109.4568 C351.4598,110.9768 351.7948,112.4968 352.0468,114.0428 L352.1018,114.0438 C352.3178,112.5048 352.6158,110.9948 352.9418,109.4568 L353.1778,104.1328 L357.2808,104.1938 L353.9498,117.5968 L350.0118,117.5378 L348.8158,112.7828 C348.5058,111.4558 348.2748,110.2688 348.0248,108.5848 L347.9698,108.5838 C347.6968,110.2598 347.4028,111.5228 347.0258,112.7558 L345.6058,117.4718 L341.6688,117.4128 L337.9598,102.8898 L342.2278,102.9538 Z" id="Fill-180" fill="#008E6F" mask="url(#mask-2)"></path>
                        <path d="M582.8949,66.0234 L590.3129,88.4604 C591.0129,90.5034 590.4129,93.2704 588.0679,95.6604 C584.8059,98.9764 580.3539,99.3574 578.0709,97.5254 C575.7909,95.6924 575.6789,91.6494 578.9369,88.3314 C581.1289,86.1004 583.8609,85.2004 586.1109,85.4044 L580.2079,67.5514 L576.4029,56.0424 L603.2729,40.7744 L604.2239,43.6524 L607.0779,52.2834 L615.2589,77.0294 C615.9539,79.0734 615.3519,81.8364 613.0109,84.2214 C609.7499,87.5384 605.2979,87.9194 603.0149,86.0874 C600.7349,84.2534 600.6239,80.2104 603.8809,76.8924 C606.0729,74.6624 608.8059,73.7624 611.0539,73.9664 L604.3909,53.8114 L582.8949,66.0234 Z" id="Fill-181" fill="#AFE0F1" mask="url(#mask-2)"></path>
                    </g>
                </g>
                <g id="Page-1" transform="translate(713.000000, 205.000000)">
                    <path d="M77.5098,29.624 C142.0618,29.082 206.6138,28.54 271.1658,27.998 L271.1658,192.99 L77.5098,195.022 L77.5098,29.624 Z" id="Fill-1" fill="#2BADD0"></path>
                    <g id="Group-5" transform="translate(0.000000, 0.107000)">
                        <mask id="mask-4" fill="white">
                            <use xlink:href="#path-3"></use>
                        </mask>
                        <g id="Clip-4"></g>
                        <polygon id="Fill-3" fill="#AFE0F1" mask="url(#mask-4)" points="0 0.8926 77.51 29.5166 77.51 194.9146 0 159.8646"></polygon>
                    </g>
                    <polygon id="Fill-6" fill="#FFD872" points="271.1658 27.9982 222.9298 70.9002 222.9298 277.7532 271.1658 192.9902"></polygon>
                    <polygon id="Fill-8" fill="#F8B917" points="222.9302 70.9003 19.4722 70.9003 20.7832 276.8583 222.9302 277.7533"></polygon>
                    <polygon id="Fill-10" fill="#F58820" points="286.2598 90.5252 314.0778 90.5252 312.9508 125.2962 314.0778 136.0822 285.9578 136.0822 286.7508 125.1932"></polygon>
                    <path d="M300.0824,85.1629 C300.0844,85.1459 300.0794,85.1319 300.0794,85.1149 L300.1694,85.0829 L314.6824,90.5249 C319.0674,91.6589 320.0244,95.3879 320.0244,95.3879 L299.8644,94.4089 C299.8784,94.1049 299.8954,93.8019 299.9064,93.4979 C300.0074,90.7269 299.7004,87.9169 300.0824,85.1629" id="Fill-12" fill="#F58820"></path>
                    <path d="M322.9979,105.8704 C322.3929,106.0724 311.8609,108.1634 311.8609,108.1634 L310.6509,93.4484 L319.9239,95.0604 L322.9979,105.8704 Z" id="Fill-14" fill="#F58820"></path>
                    <path d="M286.0146,90.5252 L300.5276,85.0822 L300.6176,85.1152 C300.6176,85.1312 300.6126,85.1462 300.6146,85.1632 C300.9966,87.9172 300.6896,90.7262 300.7906,93.4982 C300.8016,93.8022 300.8186,94.1052 300.8326,94.4092 L280.6726,95.3882 C280.6726,95.3882 281.6306,91.6592 286.0146,90.5252" id="Fill-16" fill="#F58820"></path>
                    <path d="M276.6031,140.4258 L276.8051,121.2378 L279.2621,101.9148 L288.3511,96.1638 L283.7321,119.8828 L280.9301,140.7178 L282.1711,145.6408 L282.5791,150.9148 C281.2851,150.9708 280.7781,149.2958 280.6241,148.1838 C280.4701,147.0718 279.6291,147.4178 279.6291,147.4178 C279.6291,147.4178 279.1931,153.2218 279.0651,154.5108 C278.9371,155.7998 277.7451,155.4898 277.7451,155.4898 L275.9361,153.2218 L274.8391,148.2568 L276.5971,140.4258 L276.6031,140.4258 Z" id="Fill-18" fill="#C29175"></path>
                    <path d="M290.0461,93.448 L288.8361,108.163 C288.8361,108.163 278.3041,106.072 277.6991,105.87 L280.7731,95.061 L290.0461,93.448 Z" id="Fill-20" fill="#F58820"></path>
                    <path d="M307.1922,73.2986 C307.1922,78.0876 302.1412,83.7106 297.3522,83.7106 C292.5632,83.7106 288.6812,79.8286 288.6812,75.0396 L288.6812,64.5656 L307.2842,64.5656 L307.1922,73.2986 Z" id="Fill-22" fill="#C29175"></path>
                    <path d="M303.5637,88.1813 C303.5637,91.0343 301.2507,93.3473 298.3977,93.3473 C295.5447,93.3473 293.2317,91.0343 293.2317,88.1813 L293.2317,76.6193 L303.5637,76.6193 L303.5637,88.1813 Z" id="Fill-24" fill="#C29175"></path>
                    <path d="M314.0779,135.8805 L314.4809,145.3305 C304.9019,145.3305 295.3219,145.3425 285.7439,145.4535 L285.9579,135.9305 L314.0779,135.8805 Z" id="Fill-26" fill="#F58820"></path>
                    <path d="M314.229,139.3577 L314.758,153.4177 L314.683,224.7767 L308.635,224.1727 L300.536,154.0797 L299.135,154.1447 L296.087,224.7767 L290.039,224.1727 L285.504,154.7787 L285.882,139.4397 C286.031,139.5437 314.12,139.3807 314.229,139.3577" id="Fill-28" fill="#736C6B"></path>
                    <path d="M307.7861,64.7554 L307.7861,71.5354 C307.7861,71.5354 307.4941,78.9774 303.3431,81.1454 L304.0961,75.4564 C304.0961,75.4564 306.4481,75.7794 306.4481,70.9824 C306.4481,69.2294 305.7501,69.1834 305.2031,69.1834 C304.4651,69.1834 303.9121,70.2904 303.9121,70.2904 L302.5281,70.2904 L302.5281,67.6154 L302.5321,67.5964 L302.4821,67.6154 C302.4821,67.6154 302.5741,64.8704 299.7381,64.8704 L288.4451,64.8704 C288.4451,64.8704 286.2921,64.7554 286.2921,58.1134 L299.5761,58.1134 C299.5761,58.1134 307.7861,57.0064 307.7861,64.7554" id="Fill-30" fill="#62403C"></path>
                    <path d="M301.8931,83.7744 C298.8071,86.9914 295.4071,85.0824 295.4071,85.0824 L295.4071,84.2454 C298.3101,85.9194 301.8931,83.7744 301.8931,83.7744" id="Fill-32" fill="#000000"></path>
                    <polygon id="Fill-34" fill="#000000" points="299.1346 154.1446 296.1396 223.9856 294.9296 223.9856 298.8566 154.1716"></polygon>
                    <path d="M298.3177,78.3381 L296.1957,78.3381 C294.6017,78.3381 293.3087,77.0461 293.3087,75.4521 L295.4317,75.4521 C297.0257,75.4521 298.3177,76.7441 298.3177,78.3381" id="Fill-36" fill="#62403C"></path>
                    <path d="M291.5172,75.4517 L293.6392,75.4517 C293.6392,77.0457 292.3472,78.3377 290.7532,78.3377 L288.6312,78.3377 C288.6312,76.7437 289.9232,75.4517 291.5172,75.4517" id="Fill-38" fill="#62403C"></path>
                    <path d="M304.681,226.8101 L308.973,223.9861 L314.735,223.9861 C314.735,223.9861 316.147,226.8101 315.656,230.0031 L300.874,230.0031 C300.874,230.0031 301.12,227.1791 304.681,226.8101" id="Fill-40" fill="#372322"></path>
                    <path d="M283.0617,226.8101 L289.7367,223.9861 L296.1397,223.9861 C296.1397,223.9861 297.5517,226.8101 297.0607,230.0031 L279.2547,230.0031 C279.2547,230.0031 279.5007,227.1791 283.0617,226.8101" id="Fill-42" fill="#372322"></path>
                    <mask id="mask-6" fill="white">
                        <use xlink:href="#path-5"></use>
                    </mask>
                    <g id="Clip-45"></g>
                    <polygon id="Fill-44" fill="#372322" mask="url(#mask-6)" points="285.319 140.716 314.625 140.716 314.625 137.541 285.319 137.541"></polygon>
                    <path d="M297.893,137.2448 L299.455,137.2448 C300.496,137.2448 301.339,138.0878 301.339,139.1288 C301.339,140.1688 300.496,141.0128 299.455,141.0128 L297.893,141.0128 C296.853,141.0128 296.009,140.1688 296.009,139.1288 C296.009,138.0878 296.853,137.2448 297.893,137.2448" id="Fill-46" fill="#E8B942" mask="url(#mask-6)"></path>
                    <path d="M320.6218,118.3519 L313.8798,114.8929 L312.6188,107.8009 L321.3948,105.9999 C321.3948,105.9999 321.8728,115.2609 320.6218,118.3519" id="Fill-47" fill="#A98069" mask="url(#mask-6)"></path>
                    <path d="M302.4392,72.9865 L308.2662,73.9415 C308.6992,74.0125 308.9932,74.4245 308.9232,74.8625 L307.0732,86.4075 C307.0032,86.8445 306.5952,87.1415 306.1622,87.0705 L300.3352,86.1155 C299.9022,86.0445 299.6092,85.6325 299.6792,85.1945 L301.5292,73.6505 C301.5992,73.2125 302.0072,72.9155 302.4392,72.9865" id="Fill-48" fill="#414242" mask="url(#mask-6)"></path>
                    <path d="M301.5324,77.9562 C301.1624,77.3322 301.2114,76.8152 301.4254,76.6482 C301.6394,76.4812 302.0174,76.6662 302.0174,76.6662 L305.0394,77.4872 L305.9194,77.9432 L305.8054,77.7112 C305.8054,77.7112 305.1164,77.2852 304.1734,76.3172 C303.3254,75.4452 304.0794,74.7842 304.0794,74.7842 L307.4264,76.4392 L309.4054,79.1092 L310.5974,81.0732 L311.8684,83.8452 L313.2624,90.1292 L320.7234,111.3042 C320.7234,111.3042 322.5984,120.9572 317.0484,122.6962 C317.0484,122.6962 313.7994,123.7782 311.7254,109.4442 L308.2214,90.8192 C308.2214,90.8192 306.8724,90.4162 305.8824,88.3682 L304.8094,84.4852 L302.4564,83.2902 C301.5994,82.8572 301.0514,81.4632 301.7614,81.5502 L304.6804,82.4192 L305.4464,82.9022 L303.4434,80.3722 L301.1434,79.1072 C300.5124,78.5082 300.6754,78.0742 300.8254,77.9182 C301.0254,77.7122 301.5324,77.9562 301.5324,77.9562" id="Fill-49" fill="#C29175" mask="url(#mask-6)"></path>
                    <polygon id="Fill-50" fill="#000000" mask="url(#mask-6)" points="307.0372 81.6694 305.0822 79.6334 301.5322 77.9564 301.3822 77.6474 305.3732 79.3184"></polygon>
                    <polygon id="Fill-51" fill="#5E341C" mask="url(#mask-6)" points="198.6938 413.9584 198.6938 420.1304 203.8878 421.5814 207.9068 420.1304 206.6268 412.8384"></polygon>
                    <polygon id="Fill-52" fill="#5E341C" mask="url(#mask-6)" points="161.3547 416.1531 161.3547 422.1641 166.1667 424.1071 169.9077 422.7471 169.9077 416.1531"></polygon>
                    <polygon id="Fill-53" fill="#004E6F" mask="url(#mask-6)" points="200.1508 263.0494 223.1408 292.1914 202.5468 317.8324 197.1068 313.1944 211.8718 291.9974 197.1068 277.0764"></polygon>
                    <path d="M202.547,317.8325 L203.888,316.1635 C202.34,315.0805 200.792,313.9975 199.244,312.9145 C198.996,314.0265 198.748,315.1375 198.5,316.2495 C199.849,316.7775 201.198,317.3045 202.547,317.8325" id="Fill-54" fill="#FFFFFF" mask="url(#mask-6)"></path>
                    <path d="M202.547,317.8325 L203.713,324.3125 L206.627,325.8665 L206.627,328.2625 L203.648,330.3995 L200.471,329.8935 L200.053,324.6655 C199.6,321.7955 199.147,318.9255 198.694,316.0555 C199.978,316.6475 201.263,317.2405 202.547,317.8325" id="Fill-55" fill="#FDD7B0" mask="url(#mask-6)"></path>
                    <path d="M162.8704,316.6289 L159.9354,319.1319 L161.4024,320.6529 L162.8704,319.6819 C165.1714,319.2869 166.5844,317.8779 166.5084,316.6539 C166.4604,315.8859 165.8044,314.8649 164.8404,314.8089 C163.9734,314.7589 163.0704,315.5019 162.8704,316.6289" id="Fill-56" fill="#FFFFFF" mask="url(#mask-6)"></path>
                    <path d="M161.4027,320.6532 L160.5067,325.2292 L158.2517,327.3192 L159.0287,329.6222 L162.8707,330.8532 L166.1667,328.9102 L166.4707,325.7532 C166.1057,323.2922 165.7407,320.8312 165.3747,318.3702 C164.5397,318.8072 163.7047,319.2442 162.8707,319.6822 C162.3817,320.0052 161.8917,320.3292 161.4027,320.6532" id="Fill-57" fill="#FDD7B0" mask="url(#mask-6)"></path>
                    <polygon id="Fill-58" fill="#123B52" mask="url(#mask-6)" points="166.1664 327.3192 160.5064 415.7812 166.1664 418.2612 171.1164 416.6082 181.8644 330.6262"></polygon>
                    <polygon id="Fill-59" fill="#123B52" mask="url(#mask-6)" points="200.0529 325.2289 207.9069 412.8879 203.9799 415.3679 197.7789 413.7149 185.5849 330.2129"></polygon>
                    <polygon id="Fill-60" fill="#123B52" mask="url(#mask-6)" points="166.1664 317.8077 166.1664 327.3187 175.4574 332.6497 183.5184 331.6597 191.1654 332.6497 196.5394 328.5927 200.0534 325.2287 197.7794 314.7037"></polygon>
                    <polygon id="Fill-61" fill="#004E6F" mask="url(#mask-6)" points="162.3311 264.3487 139.3411 293.4907 159.9351 319.1317 165.3751 314.4937 150.6101 293.2967 165.3751 278.3757"></polygon>
                    <polygon id="Fill-62" fill="#FDD7B0" mask="url(#mask-6)" points="175.4302 255.061 176.1252 252.17 179.0392 249.644 183.7022 249.644 186.7132 252.353 186.8462 255.061"></polygon>
                    <polygon id="Fill-63" fill="#FFFFFF" mask="url(#mask-6)" points="171.6319 259.4753 172.8219 256.3143 176.9989 254.3073 181.1119 253.3353 185.2559 254.1123 188.9479 256.3143 189.9189 260.1673"></polygon>
                    <path d="M200.1508,263.0494 C197.3018,261.7484 194.4518,260.4484 191.6028,259.1474 C188.0618,258.2034 184.5218,257.2584 180.9818,256.3144 C177.1828,257.5984 173.3838,258.8834 169.5838,260.1674 C167.1668,261.5604 164.7488,262.9524 162.3308,264.3444 C162.2448,266.7154 162.1588,269.0854 162.0718,271.4564 C162.7628,279.4904 163.4538,287.5244 164.1448,295.5584 C164.1878,305.1864 164.2308,314.8144 164.2738,324.4414 C167.2098,326.1684 170.1458,327.8954 173.0808,329.6224 C176.5348,329.5364 179.9888,329.4494 183.4428,329.3634 C186.7668,329.4064 190.0918,329.4494 193.4158,329.4934 C195.8768,327.6364 198.3378,325.7804 200.7988,323.9234 C199.9778,315.0974 199.1578,306.2714 198.3378,297.4454 C198.7688,288.6564 199.2008,279.8684 199.6328,271.0794 C199.8058,268.4024 199.9778,265.7264 200.1508,263.0494" id="Fill-64" fill="#004E6F" mask="url(#mask-6)"></path>
                    <polygon id="Fill-65" fill="#16455F" mask="url(#mask-6)" points="169.5842 260.1676 180.1072 258.5806 191.6022 259.1476 180.9822 256.3146"></polygon>
                    <path d="M176.1249,252.1698 L173.1139,246.9248 C172.7579,244.3338 172.4009,241.7438 172.0449,239.1528 C172.4009,237.0808 172.7579,235.0088 173.1139,232.9358 C173.8909,231.5118 174.6679,230.0868 175.4449,228.6618 C177.7439,228.0468 180.0429,227.4318 182.3419,226.8168 C184.9969,227.8848 187.6519,228.9538 190.3069,230.0218 C190.9549,231.9328 191.6029,233.8428 192.2499,235.7528 C192.0339,238.7318 191.8179,241.7108 191.6029,244.6898 L186.7129,252.3528 L183.7019,249.6438 L179.0389,249.6438 L176.1249,252.1698 Z" id="Fill-66" fill="#68451B" mask="url(#mask-6)"></path>
                    <path d="M189.0886,170.5275 L108.6696,170.8565 L108.4136,108.5165 L188.8336,108.1875 L189.0886,170.5275 Z M101.8876,102.0435 L102.1966,177.3835 L195.6146,177.0005 L195.3066,101.6615 L101.8876,102.0435 Z" id="Fill-67" fill="#C0902D" mask="url(#mask-6)"></path>
                    <polygon id="Fill-68" fill="#C0902D" mask="url(#mask-6)" points="159.785 128.1247 182.55 167.1857 138.423 167.3667"></polygon>
                    <polygon id="Fill-69" fill="#C0902D" mask="url(#mask-6)" points="141.8717 154.7889 131.4887 136.9729 114.0497 167.4659 134.6707 167.3819"></polygon>
                    <path d="M130.6383,122.5773 C130.6523,126.1073 127.8033,128.9793 124.2733,128.9933 C120.7443,129.0083 117.8713,126.1593 117.8573,122.6293 C117.8423,119.1003 120.6923,116.2273 124.2213,116.2123 C127.7513,116.1983 130.6243,119.0483 130.6383,122.5773" id="Fill-70" fill="#C0902D" mask="url(#mask-6)"></path>
                    <path d="M129.4164,220.7279 C129.4164,220.7279 124.4934,223.1889 124.3954,223.1949 C124.7454,222.8459 125.2524,222.2529 125.4184,221.6109 C125.4184,221.6109 126.0334,220.4479 124.9384,220.4639 L122.0714,223.0459 L121.1634,224.5759 L120.9674,229.6829 C120.9834,229.7079 121.1614,229.6749 121.1834,229.6739 C121.3884,229.6619 121.5944,229.6469 121.7994,229.6299 C122.4644,229.5729 123.1264,229.4909 123.7814,229.3779 C125.2884,229.1169 126.8074,228.6449 128.0904,227.7019 C128.6914,227.2599 129.2894,226.6999 129.7274,226.0119 C129.9444,225.6719 130.1534,225.2659 130.1844,224.8059 C130.2244,224.2089 129.8614,223.8539 129.7644,223.2939 C129.7334,223.1169 129.9104,222.9389 129.9624,222.7989 C130.0664,222.5179 129.9454,222.1619 129.9854,221.8649 C130.0224,221.5949 130.1994,221.3349 130.0634,221.0289 C129.9574,220.7889 129.6124,220.6299 129.4164,220.7279" id="Fill-71" fill="#F9CEBE" mask="url(#mask-6)"></path>
                    <path d="M91.8644,202.9632 C93.7864,202.8262 95.4644,204.1652 95.6144,205.9502 C95.6244,206.0622 96.0414,217.4512 103.6314,222.2842 C107.4864,224.7382 114.9444,225.9042 121.1634,224.3692 L122.8694,229.6412 C118.4014,230.7502 112.0044,231.1532 108.2874,230.6222 C105.0904,230.1652 102.1804,229.1032 99.5774,227.4382 C89.2264,220.8162 88.6884,207.0142 88.6424,206.4342 C88.5014,204.6492 89.9424,203.0992 91.8644,202.9632" id="Fill-72" fill="#F9CEBE" mask="url(#mask-6)"></path>
                    <path d="M91.8644,202.9632 C93.7864,202.8262 95.4644,204.1652 95.6144,205.9502 C95.6244,206.0622 96.0414,217.4512 103.6314,222.2842 C107.4864,224.7382 114.9444,225.9042 121.1634,224.3692 L122.8694,229.6412 C118.4014,230.7502 112.0044,231.1532 108.2874,230.6222 C105.0904,230.1652 102.1804,229.1032 99.5774,227.4382 C89.2264,220.8162 88.6884,207.0142 88.6424,206.4342 C88.5014,204.6492 89.9424,203.0992 91.8644,202.9632" id="Fill-73" fill="#F9CEBE" mask="url(#mask-6)"></path>
                    <path d="M88.5283,240.6335 L88.9343,257.0965 L84.0663,331.5735 L77.5763,332.2225 L74.3053,256.4155 L72.8003,256.3455 L64.1083,331.5735 L57.6183,332.2225 L57.5373,255.6355 L58.1043,240.5455 C58.2213,240.5695 88.3683,240.7455 88.5283,240.6335" id="Fill-74" fill="#0C1F25" mask="url(#mask-6)"></path>
                    <path d="M84.3907,331.373 L91.5557,334.404 C95.3767,334.8 95.6407,337.831 95.6407,337.831 L76.5307,337.831 C76.0037,334.404 77.5197,331.373 77.5197,331.373 L84.3907,331.373 Z" id="Fill-75" fill="#372322" mask="url(#mask-6)"></path>
                    <polygon id="Fill-76" fill="#000000" mask="url(#mask-6)" points="58.8689 206.7118 57.7259 206.4688 59.1059 201.5198"></polygon>
                    <path d="M56.6179,331.2221 L49.4529,334.2531 C45.6319,334.6491 45.3679,337.6801 45.3679,337.6801 L64.4779,337.6801 C65.0049,334.2531 63.4889,331.2221 63.4889,331.2221 L56.6179,331.2221 Z" id="Fill-77" fill="#372322" mask="url(#mask-6)"></path>
                    <path d="M57.7263,243.3921 C58.1633,237.1471 58.5503,211.6361 58.5503,211.6361 L57.5363,215.4361 L47.7243,205.4211 C48.3253,203.0161 55.1423,192.3901 55.1423,192.3901 C56.4453,190.3861 64.6653,189.6841 64.6653,189.6841 L66.4693,187.3781 L80.2023,187.2781 L81.5053,189.2831 L90.5263,191.7891 C94.3353,193.5931 98.7463,206.2231 98.7463,206.2231 L89.1653,216.6881 L88.5223,211.8371 L88.6033,243.6931 C88.6033,243.6931 68.0023,244.9361 57.7263,243.3921" id="Fill-78" fill="#077C9E" mask="url(#mask-6)"></path>
                    <path d="M78.4395,189.2781 C78.4395,192.1281 72.5665,192.8391 72.5665,192.8391 C69.7185,192.8391 68.1255,192.1281 68.1255,189.2781 L68.1255,177.7271 L78.4395,177.7271 L78.4395,189.2781 Z" id="Fill-79" fill="#F9CEBE" mask="url(#mask-6)"></path>
                    <path d="M60.9538,170.1177 C61.0288,170.1077 61.1028,170.1197 61.1778,170.1197 C61.5498,158.6397 68.5888,156.1487 73.0848,156.1487 L73.0848,156.1487 C77.5818,156.1487 84.6198,158.6397 84.9928,170.1197 C85.0668,170.1197 85.1408,170.1077 85.2158,170.1177 C86.5758,170.3047 87.5118,172.0487 87.3088,174.0147 C87.1048,175.9807 85.8378,177.4237 84.4788,177.2377 C84.4498,177.2337 84.4238,177.2187 84.3948,177.2137 C83.6368,180.8587 82.3648,183.2607 81.6848,184.1287 C80.7558,185.3137 75.5348,187.8387 73.0848,187.8387 L73.0848,187.8387 C70.6348,187.8387 65.4138,185.3137 64.4858,184.1287 C63.8048,183.2607 62.5338,180.8587 61.7748,177.2137 C61.7468,177.2187 61.7208,177.2337 61.6918,177.2377 C60.3328,177.4237 59.0648,175.9807 58.8618,174.0147 C58.6578,172.0487 59.5948,170.3047 60.9538,170.1177" id="Fill-80" fill="#F9CEBE" mask="url(#mask-6)"></path>
                    <path d="M79.3068,158.7217 C79.3068,158.7217 83.3418,163.5097 81.7968,167.9727 C81.5388,173.2957 82.0538,175.0977 83.7708,176.5577 C83.3418,171.4067 83.8568,169.6897 85.7448,170.2907 C86.5178,166.2557 84.8518,155.3877 79.3068,158.7217" id="Fill-81" fill="#B83A4B" mask="url(#mask-6)"></path>
                    <path d="M66.8949,158.7217 C66.8949,158.7217 62.8599,163.5097 64.4049,167.9727 C64.6629,173.2957 64.1479,175.0977 62.4309,176.5577 C62.8599,171.4067 62.3449,169.6897 60.4559,170.2907 C59.6839,166.2557 61.3499,155.3877 66.8949,158.7217" id="Fill-82" fill="#B83A4B" mask="url(#mask-6)"></path>
                    <path d="M61.6861,160.8214 C63.5861,153.0114 75.1651,146.8774 83.3031,159.1364 C83.8251,161.5534 81.5511,162.6874 81.5511,162.6874 C81.5511,162.6874 80.0321,159.1364 73.0681,160.7754 C69.6001,160.0174 66.2211,159.4524 64.6611,162.6594 C63.1021,165.8654 61.6861,160.8214 61.6861,160.8214" id="Fill-83" fill="#B83A4B" mask="url(#mask-6)"></path>
                    <path d="M66.2506,182.5655 C68.6386,182.5655 70.3466,180.6255 73.0856,180.6255 C75.8236,180.6255 77.5316,182.5655 79.9206,182.5655 C82.5386,182.5655 84.1856,178.0525 84.6826,176.4705 C84.0076,181.0235 82.4606,184.0055 81.6846,184.9955 C80.7556,186.1795 75.5356,188.7045 73.0856,188.7045 L73.0846,188.7045 C70.6346,188.7045 65.4146,186.1795 64.4856,184.9955 C63.7096,184.0045 62.1616,181.0215 61.4866,176.4655 C61.9816,178.0435 63.6296,182.5655 66.2506,182.5655" id="Fill-84" fill="#B83A4B" mask="url(#mask-6)"></path>
                    <path d="M73.0848,184.7357 C72.2798,184.7357 71.6268,184.3957 71.6268,183.9767 L74.5428,183.9767 C74.5428,184.3957 73.8898,184.7357 73.0848,184.7357" id="Fill-85" fill="#FFFFFF" mask="url(#mask-6)"></path>
                    <polygon id="Fill-86" fill="#AFE0F1" mask="url(#mask-6)" points="74.7098 193.8658 75.5738 204.0538 73.2468 209.1738 70.9908 204.0838 71.9038 193.8658"></polygon>
                    <polygon id="Fill-87" fill="#F58820" mask="url(#mask-6)" points="60.3648 221.339 40.4118 238.106 52.9998 253.372 72.9518 236.604"></polygon>
                    <path d="M50.9009,243.5981 C44.3859,227.8141 47.1559,215.3891 50.2879,208.0371 L55.4189,213.2741 C52.8489,220.0721 50.9749,230.0221 55.3789,240.6391 L55.0999,240.6331 L50.9009,243.5981 Z" id="Fill-88" fill="#F9CEBE" mask="url(#mask-6)"></path>
                    <path d="M56.8723,243.8272 C56.3033,242.7592 55.8173,241.6962 55.3783,240.6392 L56.8133,240.6682 L60.3823,242.2052 C60.9513,243.4082 59.6863,243.4642 59.6863,243.4642 C59.0773,243.6882 58.3333,243.5022 57.8713,243.3362 C57.9253,243.4402 62.4383,247.3312 62.4383,247.3312 C62.6173,247.4852 62.6633,247.9682 62.5203,248.2382 C62.3383,248.5832 62.0353,248.5522 61.7963,248.6822 C61.5323,248.8272 61.3023,249.1862 61.0203,249.2492 C60.8793,249.2802 60.6433,249.1972 60.5133,249.3442 C60.1043,249.8062 59.9983,250.4342 59.4893,250.7672 C59.0963,251.0252 58.6583,251.0512 58.2703,251.0272 C57.4843,250.9772 56.7233,250.6712 56.0553,250.2852 C54.6323,249.4622 53.4763,248.0802 52.4973,246.5772 C52.0713,245.9232 51.6693,245.2422 51.2853,244.5422 C53.3213,244.2512 54.8873,244.4042 56.9093,244.0502 C56.8953,243.9762 56.9083,243.8942 56.8723,243.8272" id="Fill-89" fill="#F9CEBE" mask="url(#mask-6)"></path>
                    <path d="M51.2856,244.5425 C51.1676,244.3265 51.0506,244.1085 50.9376,243.8875 C50.9256,243.8645 50.8076,243.6885 50.8206,243.6545 L50.9006,243.5985 C51.0306,243.9135 51.1476,244.2245 51.2856,244.5425" id="Fill-90" fill="#F9CEBE" mask="url(#mask-6)"></path>
                    <path d="M55.1001,240.6333 L55.3791,240.6393 C55.8171,241.6963 56.3031,242.7593 56.8721,243.8273 C56.9081,243.8943 56.8951,243.9763 56.9091,244.0503 C54.8881,244.4043 53.3211,244.2513 51.2861,244.5423 C51.1481,244.2243 51.0311,243.9133 50.9011,243.5983 L55.1001,240.6333 Z" id="Fill-91" fill="#F9CEBE" mask="url(#mask-6)"></path>
                </g>
                <g id="Page-1" transform="translate(345.000000, 583.000000)">
                    <polygon id="Fill-1" fill="#CCDBE2" points="34.469 41.892 56.75 41.892 56.75 29.048 34.469 29.048"></polygon>
                    <g id="Group-32" transform="translate(0.000000, 0.910000)">
                        <path d="M73.2923,76.3697 C71.9983,76.3697 70.7943,75.6707 70.1503,74.5447 L69.8373,73.9987 L70.4663,74.0217 C70.4853,74.0227 70.5053,74.0237 70.5243,74.0237 C70.8343,74.0207 71.1253,73.9077 71.3513,73.7057 L71.6533,73.4367 L71.8763,73.7737 C72.1923,74.2537 72.7223,74.5397 73.2933,74.5397 C74.2463,74.5307 75.0003,73.7627 74.9923,72.8257 C74.9833,71.8977 74.2223,71.1437 73.2943,71.1437 C72.7373,71.1487 72.2433,71.4027 71.9223,71.8417 L71.6833,72.1687 L71.3953,71.8847 C71.1603,71.6537 70.8493,71.5267 70.5213,71.5267 C70.4863,71.5277 70.4653,71.5277 70.4443,71.5297 L69.8143,71.5647 L70.1173,71.0117 C70.7473,69.8627 71.9523,69.1417 73.2603,69.1297 L73.2943,69.1297 C74.5883,69.1297 75.7653,69.8107 76.4143,70.9217 L78.8493,70.8997 L78.8823,74.4977 L76.4473,74.5197 C75.8123,75.6547 74.6353,76.3577 73.3263,76.3697 L73.2923,76.3697 Z" id="Fill-2" fill="#9CB6C2"></path>
                        <path d="M77.0356,47.4665 L65.3616,47.4665 L65.3616,53.1275 L77.0356,53.1275 C81.5926,53.1275 85.2996,56.8345 85.2996,61.3915 C85.2996,65.7455 81.9136,69.3215 77.6366,69.6315 L77.6366,75.3005 C85.0476,74.9855 90.9606,68.8805 90.9606,61.3915 C90.9606,53.7005 84.7256,47.4665 77.0356,47.4665" id="Fill-4" fill="#CCDBE2"></path>
                        <path d="M17.668,76.3697 C18.962,76.3697 20.166,75.6707 20.81,74.5447 L21.123,73.9987 L20.494,74.0217 C20.475,74.0227 20.455,74.0237 20.436,74.0237 C20.126,74.0207 19.835,73.9077 19.609,73.7057 L19.307,73.4367 L19.084,73.7737 C18.768,74.2537 18.238,74.5397 17.667,74.5397 C16.714,74.5307 15.96,73.7627 15.968,72.8257 C15.977,71.8977 16.738,71.1437 17.666,71.1437 C18.223,71.1487 18.717,71.4027 19.038,71.8417 L19.277,72.1687 L19.565,71.8847 C19.8,71.6537 20.111,71.5267 20.439,71.5267 C20.474,71.5277 20.495,71.5277 20.516,71.5297 L21.146,71.5647 L20.843,71.0117 C20.213,69.8627 19.008,69.1417 17.7,69.1297 L17.666,69.1297 C16.372,69.1297 15.195,69.8107 14.546,70.9217 L12.111,70.8997 L12.078,74.4977 L14.513,74.5197 C15.148,75.6547 16.325,76.3577 17.634,76.3697 L17.668,76.3697 Z" id="Fill-6" fill="#9CB6C2"></path>
                        <g id="Group-10" transform="translate(0.000000, 47.000000)">
                            <mask id="mask-8" fill="white">
                                <use xlink:href="#path-7"></use>
                            </mask>
                            <g id="Clip-9"></g>
                            <path d="M13.9248,0.4665 L25.5988,0.4665 L25.5988,6.1275 L13.9248,6.1275 C9.3678,6.1275 5.6608,9.8345 5.6608,14.3915 C5.6608,18.7455 9.0468,22.3215 13.3238,22.6315 L13.3238,28.3005 C5.9128,27.9855 -0.0002,21.8805 -0.0002,14.3915 C-0.0002,6.7005 6.2348,0.4665 13.9248,0.4665" id="Fill-8" fill="#CCDBE2" mask="url(#mask-8)"></path>
                        </g>
                        <mask id="mask-10" fill="white">
                            <use xlink:href="#path-9"></use>
                        </mask>
                        <g id="Clip-12"></g>
                        <polygon id="Fill-11" fill="#CCDBE2" mask="url(#mask-10)" points="29.312 107.301 42.419 107.301 42.419 76.37 29.312 76.37"></polygon>
                        <polygon id="Fill-13" fill="#9CB6C2" mask="url(#mask-10)" points="21.448 96.816 35.603 96.816 35.603 85.807 21.448 85.807"></polygon>
                        <path d="M42.4185,117 L25.1175,117 C21.9325,117 19.3515,114.418 19.3515,111.233 L19.3515,111.233 C19.3515,108.048 21.9325,105.466 25.1175,105.466 L42.4185,105.466 L42.4185,117 Z" id="Fill-14" fill="#9CB6C2" mask="url(#mask-10)"></path>
                        <polygon id="Fill-15" fill="#9CB6C2" mask="url(#mask-10)" points="10.525 18.701 23.195 18.701 23.195 15.555 10.525 15.555"></polygon>
                        <path d="M6.3296,10.8372 C9.8036,10.8372 12.6206,13.6542 12.6206,17.1282 C12.6206,20.6032 9.8036,23.4192 6.3296,23.4192 C2.8546,23.4192 0.0386,20.6032 0.0386,17.1282 C0.0386,13.6542 2.8546,10.8372 6.3296,10.8372" id="Fill-16" fill="#CCDBE2" mask="url(#mask-10)"></path>
                        <polygon id="Fill-17" fill="#9CB6C2" mask="url(#mask-10)" points="68.196 18.701 80.866 18.701 80.866 15.555 68.196 15.555"></polygon>
                        <path d="M84.798,10.8372 C88.273,10.8372 91.089,13.6542 91.089,17.1282 C91.089,20.6032 88.273,23.4192 84.798,23.4192 C81.323,23.4192 78.507,20.6032 78.507,17.1282 C78.507,13.6542 81.323,10.8372 84.798,10.8372" id="Fill-18" fill="#CCDBE2" mask="url(#mask-10)"></path>
                        <path d="M27.2148,24.4679 L27.2148,24.4679 C29.6658,24.4679 31.6708,22.4629 31.6708,20.0119 L31.6708,13.9829 C31.6708,11.5319 29.6658,9.5269 27.2148,9.5269 L27.2148,9.5269 C24.7638,9.5269 22.7588,11.5319 22.7588,13.9829 L22.7588,20.0119 C22.7588,22.4629 24.7638,24.4679 27.2148,24.4679" id="Fill-19" fill="#CCDBE2" mask="url(#mask-10)"></path>
                        <path d="M63.7401,24.4679 L63.7401,24.4679 C66.1911,24.4679 68.1961,22.4629 68.1961,20.0119 L68.1961,13.9829 C68.1961,11.5319 66.1911,9.5269 63.7401,9.5269 L63.7401,9.5269 C61.2891,9.5269 59.2841,11.5319 59.2841,13.9829 L59.2841,20.0119 C59.2841,22.4629 61.2891,24.4679 63.7401,24.4679" id="Fill-20" fill="#CCDBE2" mask="url(#mask-10)"></path>
                        <path d="M34.839,0.0898 L55.739,0.0898 C59.522,0.0898 62.59,3.1568 62.59,6.9408 L62.59,23.1218 C62.59,26.9058 59.522,29.9728 55.739,29.9728 L34.839,29.9728 C31.055,29.9728 27.988,26.9058 27.988,23.1218 L27.988,6.9408 C27.988,3.1568 31.055,0.0898 34.839,0.0898" id="Fill-21" fill="#9CB6C2" mask="url(#mask-10)"></path>
                        <path d="M53.0658,5.5945 C54.6578,5.5945 55.9488,6.8855 55.9488,8.4775 C55.9488,10.0705 54.6578,11.3615 53.0658,11.3615 C51.4738,11.3615 50.1828,10.0705 50.1828,8.4775 C50.1828,6.8855 51.4738,5.5945 53.0658,5.5945" id="Fill-22" fill="#68828E" mask="url(#mask-10)"></path>
                        <path d="M44.9403,23.7736 C45.0503,23.7736 45.1313,23.7706 45.1773,23.7686 C49.3473,23.7626 51.5723,21.6986 52.7043,19.9656 C53.9173,18.1106 54.1433,16.2576 54.1523,16.1796 C54.2073,15.7006 53.8633,15.2666 53.3843,15.2116 C52.9053,15.1576 52.4733,15.4996 52.4163,15.9766 C52.3863,16.2236 51.6063,22.0216 45.1583,22.0216 L45.0933,22.0236 C44.8413,22.0406 38.8503,22.3696 38.1633,15.7276 C38.1133,15.2476 37.6853,14.9016 37.2043,14.9486 C36.7243,14.9986 36.3753,15.4276 36.4243,15.9076 C37.1943,23.3496 43.5193,23.7736 44.9403,23.7736" id="Fill-23" fill="#68828E" mask="url(#mask-10)"></path>
                        <polygon id="Fill-24" fill="#CCDBE2" mask="url(#mask-10)" points="49.061 107.301 62.168 107.301 62.168 76.37 49.061 76.37"></polygon>
                        <polygon id="Fill-25" fill="#9CB6C2" mask="url(#mask-10)" points="55.876 96.816 70.031 96.816 70.031 85.807 55.876 85.807"></polygon>
                        <path d="M49.0607,117 L66.3617,117 C69.5467,117 72.1277,114.418 72.1277,111.233 L72.1277,111.233 C72.1277,108.048 69.5467,105.466 66.3617,105.466 L49.0607,105.466 L49.0607,117 Z" id="Fill-26" fill="#9CB6C2" mask="url(#mask-10)"></path>
                        <path d="M27.7709,38.8851 L63.5379,38.8851 C66.5939,38.8851 69.0699,41.6021 69.0699,44.9541 L69.0699,72.1361 C69.0699,75.4871 66.5939,78.2051 63.5379,78.2051 L27.7709,78.2051 C24.7159,78.2051 22.2389,75.4871 22.2389,72.1361 L22.2389,44.9541 C22.2389,41.6021 24.7159,38.8851 27.7709,38.8851" id="Fill-27" fill="#9CB6C2" mask="url(#mask-10)"></path>
                        <path d="M42.9342,75.8799 L48.3272,75.8799 C57.9012,75.8799 65.6622,68.1189 65.6622,58.5449 L65.6622,58.5449 C65.6622,48.9709 57.9012,41.2099 48.3272,41.2099 L42.9342,41.2099 C33.3602,41.2099 25.5992,48.9709 25.5992,58.5449 L25.5992,58.5449 C25.5992,68.1189 33.3602,75.8799 42.9342,75.8799" id="Fill-28" fill="#CCDBE2" mask="url(#mask-10)"></path>
                        <polygon id="Fill-29" fill="#68828E" mask="url(#mask-10)" points="17.707 73.949 73.294 73.949 73.294 71.318 17.707 71.318"></polygon>
                        <path d="M39.6106,67.7799 L52.3946,67.7799 C58.4196,67.7799 63.3036,62.8959 63.3036,56.8709 L63.3036,56.8709 C63.3036,50.8469 58.4196,45.9629 52.3946,45.9629 L39.6106,45.9629 C33.5856,45.9629 28.7016,50.8469 28.7016,56.8709 L28.7016,56.8709 C28.7016,62.8959 33.5856,67.7799 39.6106,67.7799" id="Fill-30" fill="#68828E" mask="url(#mask-10)"></path>
                        <path d="M37.512,5.5945 C39.104,5.5945 40.395,6.8855 40.395,8.4775 C40.395,10.0705 39.104,11.3615 37.512,11.3615 C35.92,11.3615 34.629,10.0705 34.629,8.4775 C34.629,6.8855 35.92,5.5945 37.512,5.5945" id="Fill-31" fill="#68828E" mask="url(#mask-10)"></path>
                    </g>
                </g>
                <g id="Page-1" transform="translate(382.000000, 637.000000)">
                    <polygon id="Fill-1" fill="#14A987" points="0 16.3749782 16.3740559 16.3749782 16.3740559 0.000922222243 0 0.000922222243"></polygon>
                    <polygon id="Fill-2" fill="#F8B917" points="0 103.000922 16.3740559 103.000922 16.3740559 86.6259441 0 86.6259441"></polygon>
                    <polygon id="Fill-3" fill="#2BADD0" points="0 161.374978 16.3740559 161.374978 16.3740559 145 0 145"></polygon>
                    <polygon id="Fill-4" fill="#14A987" points="0 248 16.3740559 248 16.3740559 231.625944 0 231.625944"></polygon>
                    <polygon id="Fill-6" fill="#2BADD0" points="0 419 16.3740559 419 16.3740559 402.625944 0 402.625944"></polygon>
                </g>
                <g id="Page-1" transform="translate(666.000000, 9.000000)">
                    <path d="M5.7701,213.7676 C5.7701,213.7676 -27.4639,24.7766 141.3951,5.2776" id="Stroke-1" stroke="#F58A20" stroke-width="2"></path>
                    <g id="Group-11" transform="translate(0.000000, 0.046000)">
                        <path d="M145.9669,5.232 C145.9669,7.757 143.9199,9.803 141.3959,9.803 C138.8709,9.803 136.8239,7.757 136.8239,5.232 C136.8239,2.707 138.8709,0.661 141.3959,0.661 C143.9199,0.661 145.9669,2.707 145.9669,5.232" id="Fill-3" fill="#FFFFFF"></path>
                        <path d="M145.9669,5.232 C145.9669,7.757 143.9199,9.803 141.3959,9.803 C138.8709,9.803 136.8239,7.757 136.8239,5.232 C136.8239,2.707 138.8709,0.661 141.3959,0.661 C143.9199,0.661 145.9669,2.707 145.9669,5.232 Z" id="Stroke-5" stroke="#F16522" stroke-width="1.414"></path>
                        <path d="M9.8497,213.7216 C9.8497,216.2466 7.8027,218.2926 5.2787,218.2926 C2.7537,218.2926 0.7067,216.2466 0.7067,213.7216 C0.7067,211.1966 2.7537,209.1506 5.2787,209.1506 C7.8027,209.1506 9.8497,211.1966 9.8497,213.7216" id="Fill-7" fill="#FFFFFF"></path>
                        <path d="M9.8497,213.7216 C9.8497,216.2466 7.8027,218.2926 5.2787,218.2926 C2.7537,218.2926 0.7067,216.2466 0.7067,213.7216 C0.7067,211.1966 2.7537,209.1506 5.2787,209.1506 C7.8027,209.1506 9.8497,211.1966 9.8497,213.7216 Z" id="Stroke-9" stroke="#F16522" stroke-width="1.414"></path>
                    </g>
                </g>
                <g id="Page-1" transform="translate(225.000000, 642.000000)">
                    <path d="M5.2153,159.7526 C5.2153,159.7526 -13.6977,12.1376 118.4253,5.2786" id="Stroke-3" stroke="#F16522" stroke-width="1.414"></path>
                    <path d="M122.9968,5.2784 C122.9968,7.8034 120.9498,9.8494 118.4258,9.8494 C115.9008,9.8494 113.8538,7.8034 113.8538,5.2784 C113.8538,2.7534 115.9008,0.7074 118.4258,0.7074 C120.9498,0.7074 122.9968,2.7534 122.9968,5.2784" id="Fill-5" fill="#FFFFFF"></path>
                    <path d="M122.9968,5.2784 C122.9968,7.8034 120.9498,9.8494 118.4258,9.8494 C115.9008,9.8494 113.8538,7.8034 113.8538,5.2784 C113.8538,2.7534 115.9008,0.7074 118.4258,0.7074 C120.9498,0.7074 122.9968,2.7534 122.9968,5.2784 Z" id="Stroke-7" stroke="#F16522" stroke-width="1.414"></path>
                    <path d="M9.8497,159.7526 C9.8497,162.2776 7.8027,164.3236 5.2787,164.3236 C2.7537,164.3236 0.7067,162.2776 0.7067,159.7526 C0.7067,157.2276 2.7537,155.1816 5.2787,155.1816 C7.8027,155.1816 9.8497,157.2276 9.8497,159.7526" id="Fill-9" fill="#FFFFFF"></path>
                    <path d="M9.8497,159.7526 C9.8497,162.2776 7.8027,164.3236 5.2787,164.3236 C2.7537,164.3236 0.7067,162.2776 0.7067,159.7526 C0.7067,157.2276 2.7537,155.1816 5.2787,155.1816 C7.8027,155.1816 9.8497,157.2276 9.8497,159.7526 Z" id="Stroke-11" stroke="#F16522" stroke-width="1.414"></path>
                </g>
                <text id="HUMAN-DATA-MINING" font-family="SourceSansPro-Semibold, Source Sans Pro" font-size="18" font-weight="500" line-spacing="29" fill="#087DA1">
                    <tspan x="818" y="18">HUMAN DATA MINING</tspan>
                </text>
            </g>
        </g>
    </g>
</svg>