<?xml version="1.0" encoding="UTF-8" standalone="no"?>
<svg width="375px" height="800px" viewBox="0 0 375 800" version="1.1" xmlns="http://www.w3.org/2000/svg" xmlns:xlink="http://www.w3.org/1999/xlink">
    <!-- Generator: Sketch 46.2 (44496) - http://www.bohemiancoding.com/sketch -->
    <title>crowd</title>
    <desc>Created with Sketch.</desc>
    <defs>
        <rect id="path-1" x="0" y="0" width="375" height="836"></rect>
        <polygon id="path-3" points="0.0002 40 55.9502 40 55.9502 0.1244 0.0002 0.1244"></polygon>
        <polygon id="path-5" points="0 244.07 295.633108 244.07 444.027 244.07 444.027 0 0 0"></polygon>
        <polygon id="path-7" points="77.51 0.893 0 0.893 0 97.9038 0 194.9146 77.51 194.9146 77.51 0.893"></polygon>
        <polygon id="path-9" points="0 424.107 322.998 424.107 322.998 1 0 1"></polygon>
        <polygon id="path-11" points="40.5624 0.411 0.6864 0.411 0.6864 56.3608 40.5624 56.3608 40.5624 0.411"></polygon>
        <polygon id="path-13" points="0.3414 54 61.8134 54 61.8134 0.1902 0.3414 0.1902"></polygon>
    </defs>
    <g id="Sample-UI" stroke="none" stroke-width="1" fill="none" fill-rule="evenodd">
        <g id="how-it-works---mobile" transform="translate(0.000000, -1487.000000)">
            <g id="crowd" transform="translate(0.000000, 1471.000000)">
                <mask id="mask-2" fill="white">
                    <use xlink:href="#path-1"></use>
                </mask>
                <g id="Mask"></g>
                <g mask="url(#mask-2)">
                    <g transform="translate(-21.000000, -5.000000)">
                        <g id="Page-1" stroke-width="1" fill-rule="evenodd" transform="translate(157.000000, 258.000000) scale(-1, -1) translate(-157.000000, -258.000000) translate(128.000000, 176.000000)">
                            <polygon id="Fill-1" fill="#2EAED2" points="11.468 40.8578 11.468 40.8648 45.247 40.8078 57.352 28.8988 57.305 0.9988 15.89 1.0688 15.89 1.0618 1.402 1.0868 1.469 40.8748"></polygon>
                            <path d="M32.6038,16.6407 L21.4918,16.4057 C20.4758,16.3957 19.3438,15.6947 18.6518,14.2797 C17.6938,12.3137 18.2238,10.2797 19.3948,9.5547 C20.5658,8.8317 22.3758,9.4177 23.3358,11.3827 C23.9798,12.7047 23.9498,14.0577 23.5058,15.0227 L32.3488,15.2097 L38.0488,15.3297 L40.5978,29.6397 L39.1728,29.6097 L34.8978,29.5197 L22.6418,29.2607 C21.6268,29.2477 20.4958,28.5467 19.8058,27.1347 C18.8478,25.1677 19.3778,23.1347 20.5488,22.4107 C21.7198,21.6867 23.5298,22.2727 24.4898,24.2377 C25.1338,25.5597 25.1038,26.9127 24.6608,27.8777 L34.6428,28.0887 L32.6038,16.6407 Z" id="Fill-2" fill="#AFE0F1"></path>
                            <g id="Group-32" transform="translate(0.000000, 123.923000)">
                                <g id="Group-19">
                                    <mask id="mask-4" fill="white">
                                        <use xlink:href="#path-3"></use>
                                    </mask>
                                    <g id="Clip-18"></g>
                                    <polygon id="Fill-17" fill="#14A987" mask="url(#mask-4)" points="10.0662 39.9834 10.0662 39.9904 43.8452 39.9334 55.9502 28.0244 55.9032 0.1244 14.4882 0.1944 14.4882 0.1874 0.0002 0.2124 0.0672 40.0004"></polygon>
                                </g>
                                <polygon id="Fill-20" fill="#74E3C0" points="39.6568 33.9429 39.7828 18.6559 41.6888 18.6719 41.5628 33.9589"></polygon>
                                <polygon id="Fill-22" fill="#74E3C0" points="34.5961 33.9012 34.7221 18.6142 36.6281 18.6302 36.5021 33.9172"></polygon>
                                <polygon id="Fill-24" fill="#74E3C0" points="29.5354 33.8594 29.7634 6.2484 31.6684 6.2644 31.4414 33.8754"></polygon>
                                <polygon id="Fill-26" fill="#74E3C0" points="24.4746 33.8177 24.7026 6.2067 26.6076 6.2227 26.3806 33.8337"></polygon>
                                <polygon id="Fill-28" fill="#74E3C0" points="19.5277 19.9705 19.6417 6.1655 21.5477 6.1815 21.4337 19.9865"></polygon>
                                <path d="M41.7631,8.7104 L38.9121,9.2414 C38.2001,9.3784 37.4161,9.5144 36.6181,9.6214 L36.6181,9.6494 C37.4131,9.7984 38.2091,10.0044 38.8901,10.1814 L41.7451,10.9444 L41.7301,12.6524 L38.9501,13.3264 C38.1651,13.5054 37.3811,13.6834 36.5831,13.8194 L36.5831,13.8474 C37.3791,13.9544 38.1611,14.1024 38.9561,14.2664 L41.7121,14.8864 L41.6951,17.0064 L34.7541,14.8154 L34.7701,12.7794 L37.2231,12.1454 C37.9081,11.9804 38.5211,11.8574 39.3901,11.7224 L39.3901,11.6934 C38.5231,11.5584 37.8701,11.4104 37.2311,11.2204 L34.7891,10.5024 L34.8061,8.4684 L41.7811,6.5044 L41.7631,8.7104 Z" id="Fill-30" fill="#74E3C0"></path>
                            </g>
                        </g>
                        <g id="Page-1" stroke-width="1" fill-rule="evenodd" transform="translate(431.500000, 122.500000) scale(-1, 1) translate(-431.500000, -122.500000) translate(209.000000, 0.000000)">
                            <path d="M382.579,111.7925 C382.957,110.4485 383.484,109.1695 384.154,107.9775 L381.416,103.0515 L385.905,98.5625 L390.832,101.2995 C392.023,100.6295 393.302,100.1035 394.646,99.7255 L396.196,94.3005 L402.544,94.3005 L404.094,99.7255 C405.437,100.1035 406.716,100.6295 407.908,101.2995 L412.835,98.5625 L417.323,103.0515 L414.586,107.9775 C415.256,109.1695 415.783,110.4485 416.161,111.7925 L421.586,113.3425 L421.586,119.6895 L416.161,121.2395 C415.783,122.5835 415.256,123.8625 414.586,125.0545 L417.323,129.9815 L412.835,134.4695 L407.908,131.7325 C406.716,132.4025 405.438,132.9295 404.094,133.3075 L402.544,138.7325 L396.196,138.7325 L394.646,133.3075 C393.302,132.9295 392.023,132.4025 390.832,131.7325 L385.905,134.4695 L381.416,129.9815 L384.153,125.0545 C383.484,123.8625 382.957,122.5835 382.579,121.2395 L377.154,119.6895 L377.154,113.3425 L382.579,111.7925 Z" id="Fill-1" fill="#077C9E"></path>
                            <path d="M399.3699,125.0546 C404.0849,125.0546 407.9079,121.2316 407.9079,116.5166 C407.9079,111.8006 404.0849,107.9776 399.3699,107.9776 C394.6539,107.9776 390.8319,111.8006 390.8319,116.5166 C390.8319,121.2316 394.6539,125.0546 399.3699,125.0546" id="Fill-3" fill="#FFFFFF"></path>
                            <path d="M399.3699,122.5309 C402.6919,122.5309 405.3849,119.8379 405.3849,116.5159 C405.3849,113.1949 402.6919,110.5019 399.3699,110.5019 C396.0479,110.5019 393.3549,113.1949 393.3549,116.5159 C393.3549,119.8379 396.0479,122.5309 399.3699,122.5309" id="Fill-5" fill="#F8B917"></path>
                            <path d="M244.7744,116.5163 C244.7744,128.1463 254.1954,137.5673 265.8254,137.5673 C277.4564,137.5673 286.8764,128.1463 286.8764,116.5163 C286.8764,104.8853 277.4564,95.4653 265.8254,95.4653 C254.1954,95.4653 244.7744,104.8853 244.7744,116.5163" id="Fill-7" fill="#077C9E"></path>
                            <path d="M253.7963,116.5163 C253.7963,123.1623 259.1793,128.5453 265.8253,128.5453 C272.4713,128.5453 277.8543,123.1623 277.8543,116.5163 C277.8543,109.8703 272.4713,104.4873 265.8253,104.4873 C259.1793,104.4873 253.7963,109.8703 253.7963,116.5163" id="Fill-9" fill="#FFFFFF"></path>
                            <path d="M265.8346,110.5017 C269.1566,110.5017 271.8496,113.1947 271.8496,116.5167 C271.8496,119.8377 269.1566,122.5307 265.8346,122.5307 C262.5126,122.5307 259.8196,119.8377 259.8196,116.5167 C259.8196,113.1947 262.5126,110.5017 265.8346,110.5017" id="Fill-11" fill="#F8B917"></path>
                            <path d="M167.954,116.5163 C167.954,103.2503 178.747,92.4583 192.012,92.4583 L413.963,92.4583 C427.228,92.4583 438.021,103.2503 438.021,116.5163 C438.021,129.7823 427.228,140.5743 413.963,140.5743 L192.012,140.5743 C178.747,140.5743 167.954,129.7823 167.954,116.5163 M161.93,116.5163 C161.93,133.1163 175.403,146.5893 192.003,146.5893 L413.954,146.5893 C430.584,146.5893 444.027,133.1163 444.027,116.5163 C444.027,99.9163 430.584,86.4433 413.954,86.4433 L192.003,86.4433 C175.403,86.4433 161.93,99.9163 161.93,116.5163" id="Fill-13" fill="#93C8D8"></path>
                            <path d="M313.9425,116.5163 C313.9425,128.1463 323.3635,137.5673 334.9935,137.5673 C346.6245,137.5673 356.0445,128.1463 356.0445,116.5163 C356.0445,104.8853 346.6245,95.4653 334.9935,95.4653 C323.3635,95.4653 313.9425,104.8853 313.9425,116.5163" id="Fill-15" fill="#077C9E"></path>
                            <path d="M322.9644,116.5163 C322.9644,123.1623 328.3474,128.5453 334.9934,128.5453 C341.6394,128.5453 347.0224,123.1623 347.0224,116.5163 C347.0224,109.8703 341.6394,104.4873 334.9934,104.4873 C328.3474,104.4873 322.9644,109.8703 322.9644,116.5163" id="Fill-17" fill="#FFFFFF"></path>
                            <path d="M335.0027,110.5017 C338.3247,110.5017 341.0177,113.1947 341.0177,116.5167 C341.0177,119.8377 338.3247,122.5307 335.0027,122.5307 C331.6807,122.5307 328.9877,119.8377 328.9877,116.5167 C328.9877,113.1947 331.6807,110.5017 335.0027,110.5017" id="Fill-19" fill="#F8B917"></path>
                            <mask id="mask-6" fill="white">
                                <use xlink:href="#path-5"></use>
                            </mask>
                            <g id="Clip-28"></g>
                        </g>
                        <text id="HUMAN-DATA-MINING" font-family="SourceSansPro-Semibold, Source Sans Pro" font-size="18" font-weight="500" line-spacing="29">
                            <tspan x="186" y="817" fill="#087DA1">HUMAN DATA MINING</tspan>
                        </text>
                        <g id="Page-1" stroke-width="1" fill-rule="evenodd" transform="translate(0.000000, 340.000000)">
                            <path d="M77.5098,29.624 C142.0618,29.082 206.6138,28.54 271.1658,27.998 L271.1658,192.99 L77.5098,195.022 L77.5098,29.624 Z" id="Fill-1" fill="#2BADD0"></path>
                            <g id="Group-5" transform="translate(0.000000, 0.107000)">
                                <mask id="mask-8" fill="white">
                                    <use xlink:href="#path-7"></use>
                                </mask>
                                <g id="Clip-4"></g>
                                <polygon id="Fill-3" fill="#AFE0F1" mask="url(#mask-8)" points="0 0.8926 77.51 29.5166 77.51 194.9146 0 159.8646"></polygon>
                            </g>
                            <polygon id="Fill-6" fill="#FFD872" points="271.1658 27.9982 222.9298 70.9002 222.9298 277.7532 271.1658 192.9902"></polygon>
                            <polygon id="Fill-8" fill="#F8B917" points="222.9302 70.9003 19.4722 70.9003 20.7832 276.8583 222.9302 277.7533"></polygon>
                            <polygon id="Fill-10" fill="#F58820" points="286.2598 90.5252 314.0778 90.5252 312.9508 125.2962 314.0778 136.0822 285.9578 136.0822 286.7508 125.1932"></polygon>
                            <path d="M300.0824,85.1629 C300.0844,85.1459 300.0794,85.1319 300.0794,85.1149 L300.1694,85.0829 L314.6824,90.5249 C319.0674,91.6589 320.0244,95.3879 320.0244,95.3879 L299.8644,94.4089 C299.8784,94.1049 299.8954,93.8019 299.9064,93.4979 C300.0074,90.7269 299.7004,87.9169 300.0824,85.1629" id="Fill-12" fill="#F58820"></path>
                            <path d="M322.9979,105.8704 C322.3929,106.0724 311.8609,108.1634 311.8609,108.1634 L310.6509,93.4484 L319.9239,95.0604 L322.9979,105.8704 Z" id="Fill-14" fill="#F58820"></path>
                            <path d="M286.0146,90.5252 L300.5276,85.0822 L300.6176,85.1152 C300.6176,85.1312 300.6126,85.1462 300.6146,85.1632 C300.9966,87.9172 300.6896,90.7262 300.7906,93.4982 C300.8016,93.8022 300.8186,94.1052 300.8326,94.4092 L280.6726,95.3882 C280.6726,95.3882 281.6306,91.6592 286.0146,90.5252" id="Fill-16" fill="#F58820"></path>
                            <path d="M276.6031,140.4258 L276.8051,121.2378 L279.2621,101.9148 L288.3511,96.1638 L283.7321,119.8828 L280.9301,140.7178 L282.1711,145.6408 L282.5791,150.9148 C281.2851,150.9708 280.7781,149.2958 280.6241,148.1838 C280.4701,147.0718 279.6291,147.4178 279.6291,147.4178 C279.6291,147.4178 279.1931,153.2218 279.0651,154.5108 C278.9371,155.7998 277.7451,155.4898 277.7451,155.4898 L275.9361,153.2218 L274.8391,148.2568 L276.5971,140.4258 L276.6031,140.4258 Z" id="Fill-18" fill="#C29175"></path>
                            <path d="M290.0461,93.448 L288.8361,108.163 C288.8361,108.163 278.3041,106.072 277.6991,105.87 L280.7731,95.061 L290.0461,93.448 Z" id="Fill-20" fill="#F58820"></path>
                            <path d="M307.1922,73.2986 C307.1922,78.0876 302.1412,83.7106 297.3522,83.7106 C292.5632,83.7106 288.6812,79.8286 288.6812,75.0396 L288.6812,64.5656 L307.2842,64.5656 L307.1922,73.2986 Z" id="Fill-22" fill="#C29175"></path>
                            <path d="M303.5637,88.1813 C303.5637,91.0343 301.2507,93.3473 298.3977,93.3473 C295.5447,93.3473 293.2317,91.0343 293.2317,88.1813 L293.2317,76.6193 L303.5637,76.6193 L303.5637,88.1813 Z" id="Fill-24" fill="#C29175"></path>
                            <path d="M314.0779,135.8805 L314.4809,145.3305 C304.9019,145.3305 295.3219,145.3425 285.7439,145.4535 L285.9579,135.9305 L314.0779,135.8805 Z" id="Fill-26" fill="#F58820"></path>
                            <path d="M314.229,139.3577 L314.758,153.4177 L314.683,224.7767 L308.635,224.1727 L300.536,154.0797 L299.135,154.1447 L296.087,224.7767 L290.039,224.1727 L285.504,154.7787 L285.882,139.4397 C286.031,139.5437 314.12,139.3807 314.229,139.3577" id="Fill-28" fill="#736C6B"></path>
                            <path d="M307.7861,64.7554 L307.7861,71.5354 C307.7861,71.5354 307.4941,78.9774 303.3431,81.1454 L304.0961,75.4564 C304.0961,75.4564 306.4481,75.7794 306.4481,70.9824 C306.4481,69.2294 305.7501,69.1834 305.2031,69.1834 C304.4651,69.1834 303.9121,70.2904 303.9121,70.2904 L302.5281,70.2904 L302.5281,67.6154 L302.5321,67.5964 L302.4821,67.6154 C302.4821,67.6154 302.5741,64.8704 299.7381,64.8704 L288.4451,64.8704 C288.4451,64.8704 286.2921,64.7554 286.2921,58.1134 L299.5761,58.1134 C299.5761,58.1134 307.7861,57.0064 307.7861,64.7554" id="Fill-30" fill="#62403C"></path>
                            <path d="M301.8931,83.7744 C298.8071,86.9914 295.4071,85.0824 295.4071,85.0824 L295.4071,84.2454 C298.3101,85.9194 301.8931,83.7744 301.8931,83.7744" id="Fill-32" fill="#000000"></path>
                            <polygon id="Fill-34" fill="#000000" points="299.1346 154.1446 296.1396 223.9856 294.9296 223.9856 298.8566 154.1716"></polygon>
                            <path d="M298.3177,78.3381 L296.1957,78.3381 C294.6017,78.3381 293.3087,77.0461 293.3087,75.4521 L295.4317,75.4521 C297.0257,75.4521 298.3177,76.7441 298.3177,78.3381" id="Fill-36" fill="#62403C"></path>
                            <path d="M291.5172,75.4517 L293.6392,75.4517 C293.6392,77.0457 292.3472,78.3377 290.7532,78.3377 L288.6312,78.3377 C288.6312,76.7437 289.9232,75.4517 291.5172,75.4517" id="Fill-38" fill="#62403C"></path>
                            <path d="M304.681,226.8101 L308.973,223.9861 L314.735,223.9861 C314.735,223.9861 316.147,226.8101 315.656,230.0031 L300.874,230.0031 C300.874,230.0031 301.12,227.1791 304.681,226.8101" id="Fill-40" fill="#372322"></path>
                            <path d="M283.0617,226.8101 L289.7367,223.9861 L296.1397,223.9861 C296.1397,223.9861 297.5517,226.8101 297.0607,230.0031 L279.2547,230.0031 C279.2547,230.0031 279.5007,227.1791 283.0617,226.8101" id="Fill-42" fill="#372322"></path>
                            <mask id="mask-10" fill="white">
                                <use xlink:href="#path-9"></use>
                            </mask>
                            <g id="Clip-45"></g>
                            <polygon id="Fill-44" fill="#372322" mask="url(#mask-10)" points="285.319 140.716 314.625 140.716 314.625 137.541 285.319 137.541"></polygon>
                            <path d="M297.893,137.2448 L299.455,137.2448 C300.496,137.2448 301.339,138.0878 301.339,139.1288 C301.339,140.1688 300.496,141.0128 299.455,141.0128 L297.893,141.0128 C296.853,141.0128 296.009,140.1688 296.009,139.1288 C296.009,138.0878 296.853,137.2448 297.893,137.2448" id="Fill-46" fill="#E8B942" mask="url(#mask-10)"></path>
                            <path d="M320.6218,118.3519 L313.8798,114.8929 L312.6188,107.8009 L321.3948,105.9999 C321.3948,105.9999 321.8728,115.2609 320.6218,118.3519" id="Fill-47" fill="#A98069" mask="url(#mask-10)"></path>
                            <path d="M302.4392,72.9865 L308.2662,73.9415 C308.6992,74.0125 308.9932,74.4245 308.9232,74.8625 L307.0732,86.4075 C307.0032,86.8445 306.5952,87.1415 306.1622,87.0705 L300.3352,86.1155 C299.9022,86.0445 299.6092,85.6325 299.6792,85.1945 L301.5292,73.6505 C301.5992,73.2125 302.0072,72.9155 302.4392,72.9865" id="Fill-48" fill="#414242" mask="url(#mask-10)"></path>
                            <path d="M301.5324,77.9562 C301.1624,77.3322 301.2114,76.8152 301.4254,76.6482 C301.6394,76.4812 302.0174,76.6662 302.0174,76.6662 L305.0394,77.4872 L305.9194,77.9432 L305.8054,77.7112 C305.8054,77.7112 305.1164,77.2852 304.1734,76.3172 C303.3254,75.4452 304.0794,74.7842 304.0794,74.7842 L307.4264,76.4392 L309.4054,79.1092 L310.5974,81.0732 L311.8684,83.8452 L313.2624,90.1292 L320.7234,111.3042 C320.7234,111.3042 322.5984,120.9572 317.0484,122.6962 C317.0484,122.6962 313.7994,123.7782 311.7254,109.4442 L308.2214,90.8192 C308.2214,90.8192 306.8724,90.4162 305.8824,88.3682 L304.8094,84.4852 L302.4564,83.2902 C301.5994,82.8572 301.0514,81.4632 301.7614,81.5502 L304.6804,82.4192 L305.4464,82.9022 L303.4434,80.3722 L301.1434,79.1072 C300.5124,78.5082 300.6754,78.0742 300.8254,77.9182 C301.0254,77.7122 301.5324,77.9562 301.5324,77.9562" id="Fill-49" fill="#C29175" mask="url(#mask-10)"></path>
                            <polygon id="Fill-50" fill="#000000" mask="url(#mask-10)" points="307.0372 81.6694 305.0822 79.6334 301.5322 77.9564 301.3822 77.6474 305.3732 79.3184"></polygon>
                            <polygon id="Fill-51" fill="#5E341C" mask="url(#mask-10)" points="198.6938 413.9584 198.6938 420.1304 203.8878 421.5814 207.9068 420.1304 206.6268 412.8384"></polygon>
                            <polygon id="Fill-52" fill="#5E341C" mask="url(#mask-10)" points="161.3547 416.1531 161.3547 422.1641 166.1667 424.1071 169.9077 422.7471 169.9077 416.1531"></polygon>
                            <polygon id="Fill-53" fill="#004E6F" mask="url(#mask-10)" points="200.1508 263.0494 223.1408 292.1914 202.5468 317.8324 197.1068 313.1944 211.8718 291.9974 197.1068 277.0764"></polygon>
                            <path d="M202.547,317.8325 L203.888,316.1635 C202.34,315.0805 200.792,313.9975 199.244,312.9145 C198.996,314.0265 198.748,315.1375 198.5,316.2495 C199.849,316.7775 201.198,317.3045 202.547,317.8325" id="Fill-54" fill="#FFFFFF" mask="url(#mask-10)"></path>
                            <path d="M202.547,317.8325 L203.713,324.3125 L206.627,325.8665 L206.627,328.2625 L203.648,330.3995 L200.471,329.8935 L200.053,324.6655 C199.6,321.7955 199.147,318.9255 198.694,316.0555 C199.978,316.6475 201.263,317.2405 202.547,317.8325" id="Fill-55" fill="#FDD7B0" mask="url(#mask-10)"></path>
                            <path d="M162.8704,316.6289 L159.9354,319.1319 L161.4024,320.6529 L162.8704,319.6819 C165.1714,319.2869 166.5844,317.8779 166.5084,316.6539 C166.4604,315.8859 165.8044,314.8649 164.8404,314.8089 C163.9734,314.7589 163.0704,315.5019 162.8704,316.6289" id="Fill-56" fill="#FFFFFF" mask="url(#mask-10)"></path>
                            <path d="M161.4027,320.6532 L160.5067,325.2292 L158.2517,327.3192 L159.0287,329.6222 L162.8707,330.8532 L166.1667,328.9102 L166.4707,325.7532 C166.1057,323.2922 165.7407,320.8312 165.3747,318.3702 C164.5397,318.8072 163.7047,319.2442 162.8707,319.6822 C162.3817,320.0052 161.8917,320.3292 161.4027,320.6532" id="Fill-57" fill="#FDD7B0" mask="url(#mask-10)"></path>
                            <polygon id="Fill-58" fill="#123B52" mask="url(#mask-10)" points="166.1664 327.3192 160.5064 415.7812 166.1664 418.2612 171.1164 416.6082 181.8644 330.6262"></polygon>
                            <polygon id="Fill-59" fill="#123B52" mask="url(#mask-10)" points="200.0529 325.2289 207.9069 412.8879 203.9799 415.3679 197.7789 413.7149 185.5849 330.2129"></polygon>
                            <polygon id="Fill-60" fill="#123B52" mask="url(#mask-10)" points="166.1664 317.8077 166.1664 327.3187 175.4574 332.6497 183.5184 331.6597 191.1654 332.6497 196.5394 328.5927 200.0534 325.2287 197.7794 314.7037"></polygon>
                            <polygon id="Fill-61" fill="#004E6F" mask="url(#mask-10)" points="162.3311 264.3487 139.3411 293.4907 159.9351 319.1317 165.3751 314.4937 150.6101 293.2967 165.3751 278.3757"></polygon>
                            <polygon id="Fill-62" fill="#FDD7B0" mask="url(#mask-10)" points="175.4302 255.061 176.1252 252.17 179.0392 249.644 183.7022 249.644 186.7132 252.353 186.8462 255.061"></polygon>
                            <polygon id="Fill-63" fill="#FFFFFF" mask="url(#mask-10)" points="171.6319 259.4753 172.8219 256.3143 176.9989 254.3073 181.1119 253.3353 185.2559 254.1123 188.9479 256.3143 189.9189 260.1673"></polygon>
                            <path d="M200.1508,263.0494 C197.3018,261.7484 194.4518,260.4484 191.6028,259.1474 C188.0618,258.2034 184.5218,257.2584 180.9818,256.3144 C177.1828,257.5984 173.3838,258.8834 169.5838,260.1674 C167.1668,261.5604 164.7488,262.9524 162.3308,264.3444 C162.2448,266.7154 162.1588,269.0854 162.0718,271.4564 C162.7628,279.4904 163.4538,287.5244 164.1448,295.5584 C164.1878,305.1864 164.2308,314.8144 164.2738,324.4414 C167.2098,326.1684 170.1458,327.8954 173.0808,329.6224 C176.5348,329.5364 179.9888,329.4494 183.4428,329.3634 C186.7668,329.4064 190.0918,329.4494 193.4158,329.4934 C195.8768,327.6364 198.3378,325.7804 200.7988,323.9234 C199.9778,315.0974 199.1578,306.2714 198.3378,297.4454 C198.7688,288.6564 199.2008,279.8684 199.6328,271.0794 C199.8058,268.4024 199.9778,265.7264 200.1508,263.0494" id="Fill-64" fill="#004E6F" mask="url(#mask-10)"></path>
                            <polygon id="Fill-65" fill="#16455F" mask="url(#mask-10)" points="169.5842 260.1676 180.1072 258.5806 191.6022 259.1476 180.9822 256.3146"></polygon>
                            <path d="M176.1249,252.1698 L173.1139,246.9248 C172.7579,244.3338 172.4009,241.7438 172.0449,239.1528 C172.4009,237.0808 172.7579,235.0088 173.1139,232.9358 C173.8909,231.5118 174.6679,230.0868 175.4449,228.6618 C177.7439,228.0468 180.0429,227.4318 182.3419,226.8168 C184.9969,227.8848 187.6519,228.9538 190.3069,230.0218 C190.9549,231.9328 191.6029,233.8428 192.2499,235.7528 C192.0339,238.7318 191.8179,241.7108 191.6029,244.6898 L186.7129,252.3528 L183.7019,249.6438 L179.0389,249.6438 L176.1249,252.1698 Z" id="Fill-66" fill="#68451B" mask="url(#mask-10)"></path>
                            <path d="M189.0886,170.5275 L108.6696,170.8565 L108.4136,108.5165 L188.8336,108.1875 L189.0886,170.5275 Z M101.8876,102.0435 L102.1966,177.3835 L195.6146,177.0005 L195.3066,101.6615 L101.8876,102.0435 Z" id="Fill-67" fill="#C0902D" mask="url(#mask-10)"></path>
                            <polygon id="Fill-68" fill="#C0902D" mask="url(#mask-10)" points="159.785 128.1247 182.55 167.1857 138.423 167.3667"></polygon>
                            <polygon id="Fill-69" fill="#C0902D" mask="url(#mask-10)" points="141.8717 154.7889 131.4887 136.9729 114.0497 167.4659 134.6707 167.3819"></polygon>
                            <path d="M130.6383,122.5773 C130.6523,126.1073 127.8033,128.9793 124.2733,128.9933 C120.7443,129.0083 117.8713,126.1593 117.8573,122.6293 C117.8423,119.1003 120.6923,116.2273 124.2213,116.2123 C127.7513,116.1983 130.6243,119.0483 130.6383,122.5773" id="Fill-70" fill="#C0902D" mask="url(#mask-10)"></path>
                            <path d="M129.4164,220.7279 C129.4164,220.7279 124.4934,223.1889 124.3954,223.1949 C124.7454,222.8459 125.2524,222.2529 125.4184,221.6109 C125.4184,221.6109 126.0334,220.4479 124.9384,220.4639 L122.0714,223.0459 L121.1634,224.5759 L120.9674,229.6829 C120.9834,229.7079 121.1614,229.6749 121.1834,229.6739 C121.3884,229.6619 121.5944,229.6469 121.7994,229.6299 C122.4644,229.5729 123.1264,229.4909 123.7814,229.3779 C125.2884,229.1169 126.8074,228.6449 128.0904,227.7019 C128.6914,227.2599 129.2894,226.6999 129.7274,226.0119 C129.9444,225.6719 130.1534,225.2659 130.1844,224.8059 C130.2244,224.2089 129.8614,223.8539 129.7644,223.2939 C129.7334,223.1169 129.9104,222.9389 129.9624,222.7989 C130.0664,222.5179 129.9454,222.1619 129.9854,221.8649 C130.0224,221.5949 130.1994,221.3349 130.0634,221.0289 C129.9574,220.7889 129.6124,220.6299 129.4164,220.7279" id="Fill-71" fill="#F9CEBE" mask="url(#mask-10)"></path>
                            <path d="M91.8644,202.9632 C93.7864,202.8262 95.4644,204.1652 95.6144,205.9502 C95.6244,206.0622 96.0414,217.4512 103.6314,222.2842 C107.4864,224.7382 114.9444,225.9042 121.1634,224.3692 L122.8694,229.6412 C118.4014,230.7502 112.0044,231.1532 108.2874,230.6222 C105.0904,230.1652 102.1804,229.1032 99.5774,227.4382 C89.2264,220.8162 88.6884,207.0142 88.6424,206.4342 C88.5014,204.6492 89.9424,203.0992 91.8644,202.9632" id="Fill-72" fill="#F9CEBE" mask="url(#mask-10)"></path>
                            <path d="M91.8644,202.9632 C93.7864,202.8262 95.4644,204.1652 95.6144,205.9502 C95.6244,206.0622 96.0414,217.4512 103.6314,222.2842 C107.4864,224.7382 114.9444,225.9042 121.1634,224.3692 L122.8694,229.6412 C118.4014,230.7502 112.0044,231.1532 108.2874,230.6222 C105.0904,230.1652 102.1804,229.1032 99.5774,227.4382 C89.2264,220.8162 88.6884,207.0142 88.6424,206.4342 C88.5014,204.6492 89.9424,203.0992 91.8644,202.9632" id="Fill-73" fill="#F9CEBE" mask="url(#mask-10)"></path>
                            <path d="M88.5283,240.6335 L88.9343,257.0965 L84.0663,331.5735 L77.5763,332.2225 L74.3053,256.4155 L72.8003,256.3455 L64.1083,331.5735 L57.6183,332.2225 L57.5373,255.6355 L58.1043,240.5455 C58.2213,240.5695 88.3683,240.7455 88.5283,240.6335" id="Fill-74" fill="#0C1F25" mask="url(#mask-10)"></path>
                            <path d="M84.3907,331.373 L91.5557,334.404 C95.3767,334.8 95.6407,337.831 95.6407,337.831 L76.5307,337.831 C76.0037,334.404 77.5197,331.373 77.5197,331.373 L84.3907,331.373 Z" id="Fill-75" fill="#372322" mask="url(#mask-10)"></path>
                            <polygon id="Fill-76" fill="#000000" mask="url(#mask-10)" points="58.8689 206.7118 57.7259 206.4688 59.1059 201.5198"></polygon>
                            <path d="M56.6179,331.2221 L49.4529,334.2531 C45.6319,334.6491 45.3679,337.6801 45.3679,337.6801 L64.4779,337.6801 C65.0049,334.2531 63.4889,331.2221 63.4889,331.2221 L56.6179,331.2221 Z" id="Fill-77" fill="#372322" mask="url(#mask-10)"></path>
                            <path d="M57.7263,243.3921 C58.1633,237.1471 58.5503,211.6361 58.5503,211.6361 L57.5363,215.4361 L47.7243,205.4211 C48.3253,203.0161 55.1423,192.3901 55.1423,192.3901 C56.4453,190.3861 64.6653,189.6841 64.6653,189.6841 L66.4693,187.3781 L80.2023,187.2781 L81.5053,189.2831 L90.5263,191.7891 C94.3353,193.5931 98.7463,206.2231 98.7463,206.2231 L89.1653,216.6881 L88.5223,211.8371 L88.6033,243.6931 C88.6033,243.6931 68.0023,244.9361 57.7263,243.3921" id="Fill-78" fill="#077C9E" mask="url(#mask-10)"></path>
                            <path d="M78.4395,189.2781 C78.4395,192.1281 72.5665,192.8391 72.5665,192.8391 C69.7185,192.8391 68.1255,192.1281 68.1255,189.2781 L68.1255,177.7271 L78.4395,177.7271 L78.4395,189.2781 Z" id="Fill-79" fill="#F9CEBE" mask="url(#mask-10)"></path>
                            <path d="M60.9538,170.1177 C61.0288,170.1077 61.1028,170.1197 61.1778,170.1197 C61.5498,158.6397 68.5888,156.1487 73.0848,156.1487 L73.0848,156.1487 C77.5818,156.1487 84.6198,158.6397 84.9928,170.1197 C85.0668,170.1197 85.1408,170.1077 85.2158,170.1177 C86.5758,170.3047 87.5118,172.0487 87.3088,174.0147 C87.1048,175.9807 85.8378,177.4237 84.4788,177.2377 C84.4498,177.2337 84.4238,177.2187 84.3948,177.2137 C83.6368,180.8587 82.3648,183.2607 81.6848,184.1287 C80.7558,185.3137 75.5348,187.8387 73.0848,187.8387 L73.0848,187.8387 C70.6348,187.8387 65.4138,185.3137 64.4858,184.1287 C63.8048,183.2607 62.5338,180.8587 61.7748,177.2137 C61.7468,177.2187 61.7208,177.2337 61.6918,177.2377 C60.3328,177.4237 59.0648,175.9807 58.8618,174.0147 C58.6578,172.0487 59.5948,170.3047 60.9538,170.1177" id="Fill-80" fill="#F9CEBE" mask="url(#mask-10)"></path>
                            <path d="M79.3068,158.7217 C79.3068,158.7217 83.3418,163.5097 81.7968,167.9727 C81.5388,173.2957 82.0538,175.0977 83.7708,176.5577 C83.3418,171.4067 83.8568,169.6897 85.7448,170.2907 C86.5178,166.2557 84.8518,155.3877 79.3068,158.7217" id="Fill-81" fill="#B83A4B" mask="url(#mask-10)"></path>
                            <path d="M66.8949,158.7217 C66.8949,158.7217 62.8599,163.5097 64.4049,167.9727 C64.6629,173.2957 64.1479,175.0977 62.4309,176.5577 C62.8599,171.4067 62.3449,169.6897 60.4559,170.2907 C59.6839,166.2557 61.3499,155.3877 66.8949,158.7217" id="Fill-82" fill="#B83A4B" mask="url(#mask-10)"></path>
                            <path d="M61.6861,160.8214 C63.5861,153.0114 75.1651,146.8774 83.3031,159.1364 C83.8251,161.5534 81.5511,162.6874 81.5511,162.6874 C81.5511,162.6874 80.0321,159.1364 73.0681,160.7754 C69.6001,160.0174 66.2211,159.4524 64.6611,162.6594 C63.1021,165.8654 61.6861,160.8214 61.6861,160.8214" id="Fill-83" fill="#B83A4B" mask="url(#mask-10)"></path>
                            <path d="M66.2506,182.5655 C68.6386,182.5655 70.3466,180.6255 73.0856,180.6255 C75.8236,180.6255 77.5316,182.5655 79.9206,182.5655 C82.5386,182.5655 84.1856,178.0525 84.6826,176.4705 C84.0076,181.0235 82.4606,184.0055 81.6846,184.9955 C80.7556,186.1795 75.5356,188.7045 73.0856,188.7045 L73.0846,188.7045 C70.6346,188.7045 65.4146,186.1795 64.4856,184.9955 C63.7096,184.0045 62.1616,181.0215 61.4866,176.4655 C61.9816,178.0435 63.6296,182.5655 66.2506,182.5655" id="Fill-84" fill="#B83A4B" mask="url(#mask-10)"></path>
                            <path d="M73.0848,184.7357 C72.2798,184.7357 71.6268,184.3957 71.6268,183.9767 L74.5428,183.9767 C74.5428,184.3957 73.8898,184.7357 73.0848,184.7357" id="Fill-85" fill="#FFFFFF" mask="url(#mask-10)"></path>
                            <polygon id="Fill-86" fill="#AFE0F1" mask="url(#mask-10)" points="74.7098 193.8658 75.5738 204.0538 73.2468 209.1738 70.9908 204.0838 71.9038 193.8658"></polygon>
                            <polygon id="Fill-87" fill="#F58820" mask="url(#mask-10)" points="60.3648 221.339 40.4118 238.106 52.9998 253.372 72.9518 236.604"></polygon>
                            <path d="M50.9009,243.5981 C44.3859,227.8141 47.1559,215.3891 50.2879,208.0371 L55.4189,213.2741 C52.8489,220.0721 50.9749,230.0221 55.3789,240.6391 L55.0999,240.6331 L50.9009,243.5981 Z" id="Fill-88" fill="#F9CEBE" mask="url(#mask-10)"></path>
                            <path d="M56.8723,243.8272 C56.3033,242.7592 55.8173,241.6962 55.3783,240.6392 L56.8133,240.6682 L60.3823,242.2052 C60.9513,243.4082 59.6863,243.4642 59.6863,243.4642 C59.0773,243.6882 58.3333,243.5022 57.8713,243.3362 C57.9253,243.4402 62.4383,247.3312 62.4383,247.3312 C62.6173,247.4852 62.6633,247.9682 62.5203,248.2382 C62.3383,248.5832 62.0353,248.5522 61.7963,248.6822 C61.5323,248.8272 61.3023,249.1862 61.0203,249.2492 C60.8793,249.2802 60.6433,249.1972 60.5133,249.3442 C60.1043,249.8062 59.9983,250.4342 59.4893,250.7672 C59.0963,251.0252 58.6583,251.0512 58.2703,251.0272 C57.4843,250.9772 56.7233,250.6712 56.0553,250.2852 C54.6323,249.4622 53.4763,248.0802 52.4973,246.5772 C52.0713,245.9232 51.6693,245.2422 51.2853,244.5422 C53.3213,244.2512 54.8873,244.4042 56.9093,244.0502 C56.8953,243.9762 56.9083,243.8942 56.8723,243.8272" id="Fill-89" fill="#F9CEBE" mask="url(#mask-10)"></path>
                            <path d="M51.2856,244.5425 C51.1676,244.3265 51.0506,244.1085 50.9376,243.8875 C50.9256,243.8645 50.8076,243.6885 50.8206,243.6545 L50.9006,243.5985 C51.0306,243.9135 51.1476,244.2245 51.2856,244.5425" id="Fill-90" fill="#F9CEBE" mask="url(#mask-10)"></path>
                            <path d="M55.1001,240.6333 L55.3791,240.6393 C55.8171,241.6963 56.3031,242.7593 56.8721,243.8273 C56.9081,243.8943 56.8951,243.9763 56.9091,244.0503 C54.8881,244.4043 53.3211,244.2513 51.2861,244.5423 C51.1481,244.2243 51.0311,243.9133 50.9011,243.5983 L55.1001,240.6333 Z" id="Fill-91" fill="#F9CEBE" mask="url(#mask-10)"></path>
                        </g>
                        <g id="Page-1" stroke-width="1" fill-rule="evenodd" transform="translate(104.000000, 652.000000)">
                            <path d="M75.7157528,159.788458 C17.0992358,146.101989 -21.3590808,58.3766569 58.55213,5.2462418" id="Stroke-1" stroke="#F58A20" stroke-width="2" transform="translate(44.449033, 82.517350) rotate(10.000000) translate(-44.449033, -82.517350) "></path>
                            <g id="Group-11" transform="translate(58.000000, 3.046000)">
                                <path d="M17.9669,5.232 C17.9669,7.757 15.9199,9.803 13.3959,9.803 C10.8709,9.803 8.8239,7.757 8.8239,5.232 C8.8239,2.707 10.8709,0.661 13.3959,0.661 C15.9199,0.661 17.9669,2.707 17.9669,5.232" id="Fill-3" fill="#FFFFFF"></path>
                                <path d="M17.9669,5.232 C17.9669,7.757 15.9199,9.803 13.3959,9.803 C10.8709,9.803 8.8239,7.757 8.8239,5.232 C8.8239,2.707 10.8709,0.661 13.3959,0.661 C15.9199,0.661 17.9669,2.707 17.9669,5.232 Z" id="Stroke-5" stroke="#F16522" stroke-width="1.414"></path>
                                <path d="M9.143,160.571 C9.143,163.096 7.096,165.142 4.572,165.142 C2.047,165.142 0,163.096 0,160.571 C0,158.046 2.047,156 4.572,156 C7.096,156 9.143,158.046 9.143,160.571" id="Fill-7" fill="#FFFFFF"></path>
                                <path d="M9.143,160.571 C9.143,163.096 7.096,165.142 4.572,165.142 C2.047,165.142 0,163.096 0,160.571 C0,158.046 2.047,156 4.572,156 C7.096,156 9.143,158.046 9.143,160.571 Z" id="Stroke-9" stroke="#F16522" stroke-width="1.414"></path>
                            </g>
                        </g>
                        <g id="Page-1" stroke-width="1" fill-rule="evenodd" transform="translate(128.000000, 21.000000)">
                            <g id="Group-2" transform="translate(125.000000, 0.000000)">
                                <polygon id="Fill-1" fill="#FABB17" points="27.9 0 0 0.047 0.074 43.462 0.069 43.462 0.091 55.95 39.879 55.883 39.862 45.884 39.866 45.884 39.809 12.105"></polygon>
                                <path d="M31.028,35.4994 L8.857,35.5904 L8.787,18.4034 L30.958,18.3124 L31.028,35.4994 Z M6.987,16.6194 L7.072,37.3894 L32.827,37.2844 L32.742,16.5134 L6.987,16.6194 Z" id="Fill-2" fill="#C0902D"></path>
                                <polygon id="Fill-3" fill="#C0902D" points="22.9492 23.8092 29.2252 34.5782 17.0602 34.6282"></polygon>
                                <polygon id="Fill-4" fill="#C0902D" points="18.0106 31.1604 15.1476 26.2484 10.3406 34.6554 16.0256 34.6324"></polygon>
                                <path d="M14.9137,22.2799 C14.9177,23.2529 14.1317,24.0449 13.1587,24.0489 C12.1857,24.0529 11.3937,23.2669 11.3897,22.2939 C11.3857,21.3219 12.1717,20.5289 13.1447,20.5249 C14.1177,20.5209 14.9097,21.3069 14.9137,22.2799" id="Fill-5" fill="#C0902D"></path>
                            </g>
                            <g id="Group-31" transform="translate(0.000000, 0.589000)">
                                <g id="Group-9" transform="translate(176.000000, 0.000844)">
                                    <mask id="mask-12" fill="white">
                                        <use xlink:href="#path-11"></use>
                                    </mask>
                                    <g id="Clip-8"></g>
                                    <polygon id="Fill-7" fill="#008E6F" mask="url(#mask-12)" points="40.5454 46.2948 40.5524 46.2948 40.4954 12.5158 28.5864 0.4108 0.6864 0.4578 0.7564 41.8728 0.7494 41.8728 0.7744 56.3608 40.5624 56.2938"></polygon>
                                    <path d="M20.8241,36.2435 C15.7181,36.3295 11.4701,32.2235 11.3841,27.1175 C11.2981,22.0105 15.4041,17.7635 20.5111,17.6775 C25.6161,17.5915 29.8631,21.6975 29.9491,26.8035 C30.0351,31.9105 25.9291,36.1575 20.8241,36.2435 L20.8241,36.2435 Z M20.4711,15.3575 C14.0891,15.4655 8.9551,20.7745 9.0631,27.1565 C9.1711,33.5375 14.4811,38.6715 20.8631,38.5635 C27.2451,38.4555 32.3781,33.1465 32.2701,26.7645 C32.1631,20.3825 26.8531,15.2495 20.4711,15.3575 L20.4711,15.3575 Z M18.4341,32.2215 L25.3081,26.8825 L18.2581,21.7785 L18.4341,32.2215 Z" id="Fill-10" fill="#14A987" mask="url(#mask-12)"></path>
                                </g>
                                <polygon id="Fill-12" fill="#2EAED2" transform="translate(82.997998, 42.200300) rotate(-49.000000) translate(-82.997998, -42.200300) " points="97.7754983 65.7658 97.7824983 65.7678 109.063498 33.9288 101.907498 18.5288 75.6094983 9.2108 61.7774983 48.2478 61.7704983 48.2458 56.9324983 61.9018 94.4354983 75.1898"></polygon>
                                <path d="M82.1298041,36.4397801 L78.7668041,47.0337801 C78.4698041,48.0047801 77.4788041,48.8937801 75.9258041,49.1567801 C73.7688041,49.5207801 71.9668041,48.4377801 71.6028041,47.1107801 C71.2398041,45.7827801 72.3128041,44.2117801 74.4688041,43.8467801 C75.9188041,43.6017801 77.2088041,44.0117801 78.0088041,44.7107801 L80.6848041,36.2807801 L82.4098041,30.8467801 L96.8578041,32.4417801 L96.4258041,33.8007801 L95.1328041,37.8757801 L91.4238041,49.5597801 C91.1248041,50.5297801 90.1328041,51.4167801 88.5838041,51.6797801 C86.4258041,52.0437801 84.6248041,50.9607801 84.2608041,49.6327801 C83.8978041,48.3057801 84.9708041,46.7347801 87.1268041,46.3687801 C88.5768041,46.1237801 89.8668041,46.5347801 90.6668041,47.2327801 L93.6878041,37.7167801 L82.1298041,36.4397801 Z" id="Fill-14" fill="#AFE0F1" transform="translate(84.195529, 41.298918) rotate(-49.000000) translate(-84.195529, -41.298918) "></path>
                                <g id="Group-18" transform="translate(41.223744, 92.631585) rotate(-137.000000) translate(-41.223744, -92.631585) translate(10.223744, 65.631585)">
                                    <mask id="mask-14" fill="white">
                                        <use xlink:href="#path-13"></use>
                                    </mask>
                                    <g id="Clip-17"></g>
                                    <polygon id="Fill-16" fill="#14A987" mask="url(#mask-14)" points="21.0534 51.2082 21.0554 51.2152 53.4904 41.7822 61.8134 26.9802 54.0224 0.1902 14.2544 11.7562 14.2524 11.7482 0.3414 15.7952 11.4524 54.0002"></polygon>
                                    <polygon id="Fill-19" fill="#008E6F" mask="url(#mask-14)" points="47.8038 37.1898 43.6808 22.4688 45.5158 21.9548 49.6388 36.6758"></polygon>
                                    <polygon id="Fill-21" fill="#008E6F" mask="url(#mask-14)" points="42.9304 38.5548 38.8074 23.8338 40.6424 23.3198 44.7654 38.0408"></polygon>
                                    <polygon id="Fill-23" fill="#008E6F" mask="url(#mask-14)" points="38.057 39.9197 30.61 13.3317 32.445 12.8177 39.892 39.4057"></polygon>
                                    <polygon id="Fill-25" fill="#008E6F" mask="url(#mask-14)" points="33.1836 41.2846 25.7366 14.6966 27.5716 14.1826 35.0186 40.7706"></polygon>
                                    <polygon id="Fill-27" fill="#008E6F" mask="url(#mask-14)" points="24.5868 29.3552 20.8638 16.0612 22.6988 15.5472 26.4218 28.8412"></polygon>
                                    <path d="M42.8219,12.3645 L40.2309,13.6665 C39.5839,13.9955 38.8689,14.3435 38.1319,14.6685 L38.1399,14.6955 C38.9449,14.6175 39.7669,14.5945 40.4709,14.5745 L43.4249,14.5155 L43.8849,16.1605 L41.4009,17.5805 C40.6969,17.9695 39.9929,18.3585 39.2639,18.7105 L39.2719,18.7385 C40.0659,18.6195 40.8579,18.5455 41.6679,18.4815 L44.4879,18.3115 L45.0599,20.3535 L37.7829,20.1755 L37.2339,18.2155 L39.4149,16.9245 C40.0259,16.5765 40.5809,16.2875 41.3779,15.9165 L41.3709,15.8895 C40.4999,16.0005 39.8309,16.0395 39.1649,16.0335 L36.6199,16.0225 L36.0709,14.0635 L42.2269,10.2405 L42.8219,12.3645 Z" id="Fill-29" fill="#008E6F" mask="url(#mask-14)"></path>
                                </g>
                            </g>
                        </g>
                    </g>
                </g>
            </g>
        </g>
    </g>
</svg>