<svg xmlns="http://www.w3.org/2000/svg" xmlns:xlink="http://www.w3.org/1999/xlink" width="332" height="56" viewBox="0 0 332 56">
    <defs>
        <path id="a" d="M249.765 3.625h-7.372v9.08H230.74c0-2.656.42-4.445 1.258-5.363.84-.92 2.218-1.379 4.136-1.379.359 0 .908.04 1.649.121V.3A15.626 15.626 0 0 0 234.785 0c-7.571 0-11.376 4.234-11.417 12.705h-5.213v6.324h5.213v24.302h7.372V19.029h11.653v14.654c0 3.156.868 5.632 2.607 7.43 1.739 1.8 4.125 2.697 7.161 2.697h.151c1.697 0 3.264-.299 4.705-.897v-6.084c-1.02.44-2.188.66-3.506.66-1.399 0-2.373-.232-2.922-.691-.551-.46-.824-1.348-.824-2.666V19.029h7.252v-6.324h-7.252v-9.08zm-40.027 29.037c0 3.096-1.838 4.645-5.514 4.645h-.061c-3.855 0-5.783-1.637-5.783-4.914.02-2.657 2.338-3.985 6.952-3.985 1.218.02 2.687.149 4.406.389v3.865zm-6.143-20.435c-3.436 0-6.563.568-9.38 1.707v5.962c2.536-1.037 5.524-1.558 8.96-1.558 4.335 0 6.502 1.93 6.502 5.783-1.917-.277-3.715-.418-5.394-.418-2.336 0-4.364.264-6.083.793-1.718.529-3.017 1.164-3.895 1.904a8.426 8.426 0 0 0-2.083 2.577c-.509.978-.824 1.793-.943 2.441-.12.65-.181 1.285-.181 1.904 0 2.918 1.064 5.393 3.192 7.432 2.127 2.037 5.438 3.055 9.934 3.055 4.375 0 7.615-1.012 9.724-3.039 2.106-2.028 3.161-4.452 3.161-7.27v-8.27c0-4.214-1.159-7.435-3.476-9.664-2.317-2.226-5.664-3.339-10.038-3.339zm-26.516 2.359c-.88.326-1.57.607-2.068.846V43.33h7.371V19.57c2.197-.64 4.834-.982 7.91-1.021v-6.322a38.223 38.223 0 0 0-7.91.962c-2.657.604-4.425 1.071-5.303 1.397zM324.1 36.469c-1.44.279-2.907.42-4.405.42-2.258 0-3.937-.616-5.034-1.844-1.1-1.229-1.649-3.561-1.649-6.998 0-3.315.499-5.688 1.498-7.115.999-1.428 2.478-2.145 4.436-2.145h.089c3.375 0 5.065 1.141 5.065 3.418v14.264zm4.329-21.307c-2.027-1.957-5.189-2.935-9.483-2.935-.98 0-1.958.08-2.937.238-.979.16-2.123.57-3.43 1.228a11.592 11.592 0 0 0-3.402 2.578c-.96 1.059-1.789 2.592-2.488 4.6-.699 2.008-1.048 4.359-1.048 7.057 0 4.834 1.188 8.541 3.565 11.117 2.377 2.578 5.794 3.867 10.249 3.867 1.457-.019 3.005-.189 4.645-.51v1.676c0 .68-.05 1.215-.15 1.606-.1.388-.344.863-.734 1.421-.391.561-1.124.969-2.203 1.229-1.078.26-2.478.391-4.195.391-2.877 0-5.543-.411-8.002-1.229v6.563c2.657.818 5.605 1.228 8.842 1.228 2.296 0 4.314-.267 6.052-.795 1.739-.529 3.086-1.174 4.045-1.931a8.777 8.777 0 0 0 2.307-2.758c.58-1.078.959-2.057 1.138-2.938.182-.879.271-1.806.271-2.787V22.295c0-2.797-1.015-5.174-3.042-7.133zM152.39 16.301c-2.498 2.717-3.746 6.633-3.746 11.746 0 5.074 1.248 8.971 3.746 11.687 2.497 2.717 6.072 4.075 10.728 4.075 2.997 0 5.942-.569 8.839-1.707v-6.143c-2.538 1.02-5.074 1.529-7.611 1.529-2.816 0-4.91-.656-6.278-1.965-1.368-1.306-2.052-3.8-2.052-7.476 0-3.715.684-6.217 2.052-7.506 1.368-1.289 3.462-1.934 6.278-1.934 2.657 0 5.193.491 7.611 1.469v-6.142c-2.897-1.139-5.842-1.707-8.839-1.707-4.656 0-8.231 1.357-10.728 4.074zm135.545-4.074c-4.876 0-9.561 1.119-14.055 3.355V43.33h7.371V19.268c1.997-.36 3.897-.539 5.695-.539 1.596 0 2.906.15 3.923.449 1.02.299 1.755.75 2.205 1.349.449.598.748 1.174.898 1.723.15.549.225 1.234.225 2.053V43.33h7.371V24.932c0-4.016-1.203-7.137-3.612-9.366-2.408-2.226-5.749-3.339-10.021-3.339zM260.668 43.33h7.343V12.705h-7.343V43.33zM3.746 16.301C1.249 19.018 0 22.934 0 28.047c0 5.074 1.249 8.971 3.746 11.687 2.498 2.717 6.074 4.075 10.728 4.075 2.996 0 5.943-.569 8.841-1.707v-6.143c-2.538 1.02-5.075 1.529-7.612 1.529-2.817 0-4.91-.656-6.278-1.965-1.368-1.306-2.052-3.8-2.052-7.476 0-3.715.684-6.217 2.052-7.506 1.368-1.289 3.461-1.934 6.278-1.934 2.656 0 5.194.491 7.612 1.469v-6.142c-2.898-1.139-5.845-1.707-8.841-1.707-4.654 0-8.23 1.357-10.728 4.074zm24.69-1.715c-.88.326-1.569.607-2.068.846V43.33h7.372V19.57c2.197-.64 4.834-.982 7.91-1.021v-6.322a38.223 38.223 0 0 0-7.91.962c-2.659.604-4.426 1.071-5.304 1.397zM138.099 34.18c0 2.205-1.857 3.308-5.572 3.308-2.339 0-3.977-.802-4.915-2.406-.94-1.602-1.41-4.207-1.41-7.814 0-3.448.6-5.858 1.799-7.229 1.199-1.373 2.947-2.06 5.243-2.06 1.799.019 3.417.191 4.855.511v15.69zm0-21.475a28.615 28.615 0 0 0-5.094-.478c-4.574 0-8.08 1.324-10.517 3.976-2.439 2.652-3.657 6.471-3.657 11.455 0 2.742.35 5.158 1.049 7.25.699 2.092 1.548 3.678 2.547 4.758a12.27 12.27 0 0 0 3.522 2.643c1.347.679 2.526 1.099 3.535 1.261 1.009.16 2.023.239 3.043.239 4.374 0 7.625-1.014 9.753-3.045 2.128-2.03 3.192-4.457 3.192-7.278V.93h-7.373v11.775zM62.053 35.764c-1.159 1.33-2.947 1.994-5.364 1.994s-4.209-.664-5.379-1.994c-1.169-1.328-1.752-3.897-1.752-7.702 0-3.804.583-6.376 1.752-7.716 1.17-1.338 2.962-2.008 5.379-2.008 2.417 0 4.205.67 5.364 2.008 1.159 1.34 1.739 3.912 1.739 7.716 0 3.805-.58 6.374-1.739 7.702zm-5.38-23.479c-4.664 0-8.244 1.36-10.741 4.076-2.498 2.717-3.745 6.614-3.745 11.686 0 5.074 1.247 8.971 3.745 11.687 2.497 2.717 6.077 4.075 10.741 4.075 4.665 0 8.246-1.358 10.744-4.075 2.496-2.716 3.746-6.613 3.746-11.687 0-5.072-1.25-8.969-3.746-11.686-2.498-2.716-6.079-4.076-10.744-4.076zm46.879 22.504l-5.813-22.084h-6.324l-5.841 22.084-6.504-22.084h-7.79L82.126 43.33h7.372l5.094-17.619 5.034 17.619h7.371l10.849-30.625h-7.791l-6.503 22.084z"/>
    </defs>
    <g fill="none" fill-rule="evenodd">
        <mask id="b" fill="#fff">
            <use xlink:href="#a"/>
        </mask>
        <g fill="#021F27" mask="url(#b)">
            <path d="M0 0h331v55H0z"/>
        </g>
    </g>
</svg>
