<?xml version="1.0" encoding="UTF-8" standalone="no"?>
<svg width="346px" height="630px" viewBox="0 0 346 630" version="1.1" xmlns="http://www.w3.org/2000/svg" xmlns:xlink="http://www.w3.org/1999/xlink">
    <!-- Generator: Sketch 46.2 (44496) - http://www.bohemiancoding.com/sketch -->
    <title>data</title>
    <desc>Created with Sketch.</desc>
    <defs>
        <rect id="path-1" x="0" y="0" width="375" height="701"></rect>
        <polygon id="path-3" points="0 246 481.793 246 481.793 -2.84217094e-14 0 -2.84217094e-14"></polygon>
        <polygon id="path-5" points="0 244.07 444.027 244.07 444.027 0 0 0"></polygon>
        <polygon id="path-7" points="40.5624 0.411 0.6864 0.411 0.6864 56.3608 40.5624 56.3608 40.5624 0.411"></polygon>
    </defs>
    <g id="Sample-UI" stroke="none" stroke-width="1" fill="none" fill-rule="evenodd">
        <g id="how-it-works---mobile" transform="translate(-29.000000, -515.000000)">
            <g id="data" transform="translate(0.000000, 482.000000)">
                <mask id="mask-2" fill="white">
                    <use xlink:href="#path-1"></use>
                </mask>
                <g id="Mask"></g>
                <g mask="url(#mask-2)">
                    <g transform="translate(29.000000, 25.000000)">
                        <g id="Page-1" stroke-width="1" fill-rule="evenodd" transform="translate(40.000000, 46.000000)">
                            <polygon id="Fill-1" fill="#E8E7E7" points="0 191.0664 15.463 236.6964 55.014 223.2944 43.637 189.7164 27.734 181.6674"></polygon>
                            <polygon id="Fill-2" fill="#F0784B" points="15.4728 236.7252 18.8308 246.6362 58.3828 233.2332 55.0238 223.3222"></polygon>
                            <g id="Group-50" transform="translate(0.000000, 0.636000)">
                                <path d="M20.8496,242.4523 C20.6196,242.5303 20.3976,242.4073 20.3176,242.1723 C20.2366,241.9323 20.3456,241.7033 20.5746,241.6253 C20.8106,241.5453 21.0286,241.6583 21.1116,241.9033 C21.1916,242.1383 21.0946,242.3693 20.8546,242.4503 L20.8496,242.4523 Z" id="Fill-3" fill="#F7F3F7"></path>
                                <path d="M21.7916,240.0254 C21.8766,240.0194 21.9826,239.9894 22.1136,239.9454 C22.5946,239.7824 22.8076,239.4484 22.6676,239.0354 C22.5346,238.6434 22.1916,238.5274 21.7476,238.6774 C21.5706,238.7374 21.4506,238.7954 21.3876,238.8344 L21.7916,240.0254 Z M20.5986,238.6014 C20.8146,238.4814 21.1226,238.3424 21.5556,238.1954 C22.0256,238.0364 22.4036,238.0184 22.6926,238.1304 C22.9596,238.2324 23.1896,238.4634 23.3006,238.7914 C23.4136,239.1264 23.4036,239.4384 23.2686,239.6934 C23.0996,240.0364 22.7376,240.2924 22.2836,240.4464 C22.1636,240.4874 22.0526,240.5194 21.9636,240.5314 L22.4126,241.8584 L21.7756,242.0744 L20.5986,238.6014 Z" id="Fill-5" fill="#F7F3F7"></path>
                                <path d="M24.7113,239.0361 C24.7963,239.0301 24.9033,239.0001 25.0333,238.9561 C25.5143,238.7931 25.7273,238.4591 25.5873,238.0461 C25.4543,237.6541 25.1113,237.5381 24.6673,237.6881 C24.4903,237.7481 24.3703,237.8061 24.3073,237.8451 L24.7113,239.0361 Z M23.5183,237.6121 C23.7343,237.4921 24.0423,237.3531 24.4753,237.2061 C24.9453,237.0471 25.3233,237.0291 25.6123,237.1411 C25.8793,237.2431 26.1083,237.4741 26.2203,237.8031 C26.3333,238.1371 26.3233,238.4491 26.1883,238.7041 C26.0193,239.0471 25.6583,239.3031 25.2033,239.4571 C25.0833,239.4981 24.9713,239.5301 24.8833,239.5421 L25.3323,240.8691 L24.6953,241.0851 L23.5183,237.6121 Z" id="Fill-7" fill="#F7F3F7"></path>
                                <polygon id="Fill-9" fill="#F7F3F7" points="27.2779 236.8852 26.2749 237.2252 26.0929 236.6872 28.7509 235.7862 28.9339 236.3242 27.9199 236.6672 28.9309 239.6492 28.2889 239.8672"></polygon>
                                <path d="M29.213,211.6263 L19.082,206.6233 C16.784,212.2553 18.962,218.6823 24.21,221.7573 L29.213,211.6263 Z" id="Fill-11" fill="#AAB6B6"></path>
                                <path d="M30.0013,210.2249 L25.6383,197.3489 C22.1433,198.7759 19.4343,201.1889 17.5893,204.1449 L30.0013,210.2249 Z" id="Fill-13" fill="#AAB6B6"></path>
                                <path d="M28.0199,199.7439 L31.6109,210.3399 L26.6399,220.3049 C28.7209,220.9639 30.9879,221.0549 33.2659,220.2829 C38.8579,218.3889 41.7919,212.3479 39.8999,206.7649 C38.1849,201.7009 33.1139,198.8459 28.0199,199.7439" id="Fill-15" fill="#AAB6B6"></path>
                                <mask id="mask-4" fill="white">
                                    <use xlink:href="#path-3"></use>
                                </mask>
                                <g id="Clip-18"></g>
                                <polygon id="Fill-17" fill="#F7941D" mask="url(#mask-4)" points="251.373 133.576 307.111 133.576 307.111 119.609 251.373 119.609"></polygon>
                                <path d="M255.4441,129.9554 C255.1201,129.9554 254.8921,129.7054 254.8921,129.3734 C254.8921,129.0354 255.1271,128.7924 255.4511,128.7924 C255.7831,128.7924 256.0111,129.0284 256.0111,129.3734 C256.0111,129.7054 255.7901,129.9554 255.4511,129.9554 L255.4441,129.9554 Z" id="Fill-19" fill="#F7F3F7" mask="url(#mask-4)"></path>
                                <polygon id="Fill-20" fill="#F7F3F7" mask="url(#mask-4)" points="257.6815 124.9137 257.6815 126.9007 259.7795 126.9007 259.7795 124.9137 260.6845 124.9137 260.6845 129.8747 259.7795 129.8747 259.7795 127.6887 257.6815 127.6887 257.6815 129.8747 256.7765 129.8747 256.7765 124.9137"></polygon>
                                <polygon id="Fill-21" fill="#F7F3F7" mask="url(#mask-4)" points="262.6721 125.6718 261.2591 125.6718 261.2591 124.9138 265.0051 124.9138 265.0051 125.6718 263.5771 125.6718 263.5771 129.8748 262.6721 129.8748"></polygon>
                                <path d="M269.7527,127.8503 C269.7237,127.2103 269.6867,126.4373 269.6937,125.7603 L269.6717,125.7603 C269.5097,126.3713 269.3037,127.0413 269.0827,127.6663 L268.3617,129.8153 L267.6627,129.8153 L266.9997,127.6963 C266.8087,127.0633 266.6317,126.3853 266.4997,125.7603 L266.4847,125.7603 C266.4627,126.4153 266.4337,127.2023 266.3967,127.8793 L266.2867,129.8743 L265.4397,129.8743 L265.7707,124.9133 L266.9637,124.9133 L267.6107,126.9083 C267.7877,127.4893 267.9417,128.0783 268.0677,128.6303 L268.0897,128.6303 C268.2217,128.0933 268.3907,127.4823 268.5827,126.9013 L269.2667,124.9133 L270.4447,124.9133 L270.7317,129.8743 L269.8487,129.8743 L269.7527,127.8503 Z" id="Fill-22" fill="#F7F3F7" mask="url(#mask-4)"></path>
                                <polygon id="Fill-23" fill="#F7F3F7" mask="url(#mask-4)" points="271.6519 124.9137 272.5569 124.9137 272.5569 129.1167 274.5959 129.1167 274.5959 129.8747 271.6519 129.8747"></polygon>
                                <polygon id="Fill-24" fill="#E8E7E7" mask="url(#mask-4)" points="251.373 55.2639 251.373 119.5689 307.111 119.5689 307.111 72.2499 290.456 55.2639"></polygon>
                                <path d="M283.2361,106.0448 C284.3681,104.7378 285.5831,102.9188 286.5081,100.5248 L290.5961,100.5248 C288.8111,103.0758 286.2431,105.0288 283.2361,106.0448 L283.2361,106.0448 Z M266.4771,100.5248 L270.5641,100.5248 C271.4881,102.9188 272.7021,104.7378 273.8351,106.0448 C270.8281,105.0288 268.2601,103.0758 266.4771,100.5248 L266.4771,100.5248 Z M273.8381,78.1808 C272.7041,79.4878 271.4881,81.3078 270.5631,83.7048 L266.4741,83.7048 C268.2581,81.1528 270.8281,79.1968 273.8381,78.1808 L273.8381,78.1808 Z M290.5971,83.7048 L286.5091,83.7048 C285.5831,81.3078 284.3671,79.4868 283.2331,78.1808 C286.2441,79.1968 288.8151,81.1528 290.5971,83.7048 L290.5971,83.7048 Z M287.9551,91.0628 C287.8811,89.1098 287.6131,87.3558 287.1971,85.8058 L291.8111,85.8058 C292.5791,87.4198 293.0631,89.1908 293.1971,91.0628 L287.9551,91.0628 Z M287.9551,93.1658 L293.1971,93.1658 C293.0621,95.0388 292.5791,96.8088 291.8101,98.4218 L287.1991,98.4218 C287.6121,96.8738 287.8811,95.1198 287.9551,93.1658 L287.9551,93.1658 Z M279.5871,98.4218 L279.5871,93.1658 L285.8521,93.1658 C285.7671,95.1668 285.4591,96.9098 285.0061,98.4218 L279.5871,98.4218 Z M280.0641,106.2388 C279.8811,106.3908 279.7241,106.5098 279.5871,106.6128 L279.5871,100.5258 L284.2521,100.5258 C283.6981,101.7898 283.0571,102.8458 282.4191,103.7128 C281.5591,104.8818 280.6981,105.7108 280.0641,106.2388 L280.0641,106.2388 Z M277.4851,100.5248 L277.4851,106.6118 C276.4961,105.8718 274.3401,103.9838 272.8241,100.5248 L277.4851,100.5248 Z M271.2131,93.1658 L277.4851,93.1658 L277.4851,98.4218 L272.0491,98.4218 C271.5991,96.9118 271.2991,95.1588 271.2131,93.1658 L271.2131,93.1658 Z M269.1161,91.0628 L263.8721,91.0628 C264.0071,89.1908 264.4901,87.4198 265.2591,85.8058 L269.8731,85.8058 C269.4591,87.3558 269.1901,89.1098 269.1161,91.0628 L269.1161,91.0628 Z M277.4851,85.8058 L277.4851,91.0628 L271.2191,91.0628 C271.3041,89.0618 271.6121,87.3158 272.0651,85.8058 L277.4851,85.8058 Z M277.0071,77.9888 C277.1901,77.8368 277.3461,77.7178 277.4851,77.6148 L277.4851,83.7048 L272.8191,83.7048 C273.3731,82.4398 274.0141,81.3838 274.6511,80.5158 C275.5131,79.3448 276.3731,78.5168 277.0071,77.9888 L277.0071,77.9888 Z M285.0221,85.8058 C285.4721,87.3158 285.7721,89.0708 285.8571,91.0628 L279.5871,91.0628 L279.5871,85.8058 L285.0221,85.8058 Z M279.5871,83.7048 L279.5871,77.6178 C280.5771,78.3588 282.7321,80.2468 284.2491,83.7058 L279.5871,83.7058 L279.5871,83.7048 Z M263.8721,93.1658 L269.1161,93.1658 C269.1901,95.1198 269.4591,96.8738 269.8731,98.4218 L265.2601,98.4218 C264.4931,96.8088 264.0091,95.0398 263.8721,93.1658 L263.8721,93.1658 Z M278.5351,75.2918 C269.2461,75.2948 261.7171,82.8238 261.7141,92.1118 C261.7171,101.4048 269.2461,108.9338 278.5351,108.9348 C287.8271,108.9328 295.3561,101.4048 295.3571,92.1118 C295.3561,82.8238 287.8271,75.2948 278.5351,75.2918 L278.5351,75.2918 Z" id="Fill-25" fill="#AAB6B6" mask="url(#mask-4)"></path>
                                <polygon id="Fill-34" fill="#68809E" mask="url(#mask-4)" points="125.3652 144.4173 80.6412 164.9663 75.4922 153.7593 120.2162 133.2103"></polygon>
                                <path d="M82.5737,160.5605 C82.3137,160.6795 82.0387,160.5635 81.9167,160.2975 C81.7917,160.0255 81.8907,159.7445 82.1507,159.6245 C82.4167,159.5025 82.6867,159.6075 82.8137,159.8845 C82.9357,160.1505 82.8507,160.4335 82.5797,160.5575 L82.5737,160.5605 Z" id="Fill-35" fill="#F7F3F7" mask="url(#mask-4)"></path>
                                <path d="M82.9624,155.4827 L83.6884,155.1487 L84.8744,157.7297 C85.3794,158.8277 85.0164,159.4387 84.2244,159.8017 C84.0244,159.8947 83.7534,159.9757 83.5734,159.9867 L83.3934,159.3617 C83.5274,159.3427 83.7034,159.3047 83.8744,159.2267 C84.2874,159.0367 84.4544,158.7307 84.1374,158.0397 L82.9624,155.4827 Z" id="Fill-36" fill="#F7F3F7" mask="url(#mask-4)"></path>
                                <path d="M85.9337,157.9794 C86.2327,158.0074 86.6407,157.9624 87.0127,157.7914 C87.4797,157.5764 87.6387,157.2384 87.4897,156.9144 C87.3517,156.6134 87.0687,156.5284 86.4777,156.5784 C85.7137,156.6434 85.1337,156.4874 84.8707,155.9144 C84.5717,155.2644 84.8877,154.5194 85.7497,154.1234 C86.1807,153.9254 86.5427,153.8734 86.7987,153.8844 L86.8897,154.5504 C86.7127,154.5384 86.3837,154.5544 86.0117,154.7254 C85.5517,154.9364 85.4647,155.2774 85.5707,155.5074 C85.7117,155.8144 86.0067,155.8504 86.6337,155.8124 C87.4437,155.7554 87.9407,155.9484 88.2037,156.5214 C88.4967,157.1594 88.2697,157.9434 87.2427,158.4154 C86.8237,158.6084 86.3287,158.6844 86.0507,158.6554 L85.9337,157.9794 Z" id="Fill-37" fill="#F7F3F7" mask="url(#mask-4)"></path>
                                <polygon id="Fill-38" fill="#E8E7E7" mask="url(#mask-4)" points="51.7702 102.1297 75.4772 153.7277 120.2012 133.1777 102.7562 95.2097 83.1302 87.7207"></polygon>
                                <path d="M75.6082,126.0877 C77.7292,125.1127 77.4932,123.8107 76.9982,122.7347 C76.6282,121.9287 76.1242,121.1467 75.6202,120.3647 C75.1162,119.5827 74.6122,118.8017 74.2282,117.9647 C72.9652,115.2167 74.2222,113.2267 76.7622,112.0597 L77.3892,111.7717 L78.1442,113.4157 L77.6062,113.6627 C75.8572,114.5027 75.6852,115.7027 76.4272,117.3167 C76.7562,118.0327 77.1752,118.7097 77.6242,119.3717 C78.0732,120.0337 78.5062,120.7397 78.8762,121.5457 C79.7852,123.4447 79.3882,124.7847 78.2082,125.7617 L78.2352,125.8217 C79.7312,125.5317 81.0342,126.1637 81.8832,128.0897 C82.2542,128.8957 82.5072,129.6847 82.7172,130.4567 C82.9412,131.2577 83.1672,131.9867 83.4962,132.7037 C84.2652,134.3767 85.3642,134.9577 87.0512,134.2187 L87.5892,133.9717 L88.3442,135.6147 L87.7162,135.9027 C85.2372,137.0417 82.8902,136.8177 81.5032,133.7997 C81.1332,132.9937 80.8682,132.1017 80.6162,131.2397 C80.3662,130.3787 80.1152,129.5177 79.7442,128.7107 C79.3182,127.7847 78.4292,126.6367 76.3082,127.6117 L75.6082,126.0877 Z" id="Fill-39" fill="#AAB6B6" mask="url(#mask-4)"></path>
                                <path d="M100.2334,116.6188 C98.1124,117.5938 98.4034,119.0158 98.8294,119.9418 C99.1994,120.7488 99.6904,121.5008 100.1804,122.2508 C100.6704,123.0028 101.1744,123.7848 101.5444,124.5918 C102.9314,127.6088 101.5734,129.5358 99.0934,130.6758 L98.4664,130.9638 L97.7114,129.3208 L98.2484,129.0738 C99.9084,128.2748 100.1834,127.0628 99.4144,125.3898 C99.0854,124.6728 98.6794,124.0258 98.2174,123.3348 C97.7684,122.6728 97.3354,121.9668 96.9644,121.1598 C96.0564,119.2618 96.4264,117.8608 97.6194,116.9148 L97.5924,116.8548 C96.0834,117.1138 94.8074,116.5428 93.9584,114.6168 C93.5874,113.8108 93.3344,113.0218 93.1244,112.2498 C92.9144,111.4778 92.6744,110.7188 92.3444,110.0028 C91.6034,108.3888 90.5804,107.7378 88.8034,108.5178 L88.2664,108.7648 L87.5114,107.1208 L88.1384,106.8328 C90.6774,105.6658 93.0064,106.0078 94.2694,108.7568 C94.6534,109.5928 94.9184,110.4848 95.1834,111.3758 C95.4484,112.2678 95.7134,113.1598 96.0834,113.9658 C96.5774,115.0418 97.4124,116.0698 99.5334,115.0948 L100.2334,116.6188 Z" id="Fill-40" fill="#AAB6B6" mask="url(#mask-4)"></path>
                                <path d="M87.0688,118.4292 C86.2418,118.8092 85.3558,118.4202 84.9648,117.5692 C84.5518,116.6692 84.8578,115.7332 85.6848,115.3532 C86.5608,114.9512 87.4218,115.3512 87.8348,116.2502 C88.2258,117.1022 87.9688,118.0152 87.0928,118.4182 L87.0688,118.4292 Z M89.8088,130.8672 C89.6848,129.1862 89.1448,126.2822 88.5968,124.3842 L90.8448,123.0562 C91.2108,125.3922 91.3808,128.5832 91.2248,130.0392 L89.8088,130.8672 Z" id="Fill-41" fill="#AAB6B6" mask="url(#mask-4)"></path>
                                <polygon id="Fill-42" fill="#38BBA2" mask="url(#mask-4)" points="192.7815 154.1352 132.2145 118.3982 141.1695 103.2212 201.7365 138.9582"></polygon>
                                <path d="M138.9598,117.0745 C138.6078,116.8665 138.5198,116.4485 138.7328,116.0885 C138.9498,115.7205 139.3618,115.6075 139.7138,115.8155 C140.0728,116.0275 140.1698,116.4295 139.9488,116.8055 C139.7358,117.1665 139.3358,117.2965 138.9678,117.0795 L138.9598,117.0745 Z" id="Fill-43" fill="#F7F3F7" mask="url(#mask-4)"></path>
                                <path d="M144.4166,119.9595 C144.1136,119.9425 143.5266,119.7685 142.8786,119.3865 C141.1676,118.3765 140.7646,116.6835 141.7316,115.0445 C142.7796,113.2685 144.6436,112.9235 146.2906,113.8955 C146.9386,114.2785 147.3226,114.6885 147.4606,114.9095 L146.7826,115.5665 C146.5926,115.3025 146.2976,114.9995 145.8496,114.7355 C144.7536,114.0885 143.5566,114.3095 142.7916,115.6055 C142.0936,116.7885 142.3406,117.9595 143.5246,118.6575 C143.9246,118.8935 144.3876,119.0585 144.7146,119.0895 L144.4166,119.9595 Z" id="Fill-44" fill="#F7F3F7" mask="url(#mask-4)"></path>
                                <path d="M145.7706,119.5295 C145.9816,119.9025 146.3676,120.3455 146.8716,120.6425 C147.5036,121.0155 148.0296,120.9275 148.2886,120.4875 C148.5296,120.0795 148.3996,119.6795 147.8576,119.0255 C147.1586,118.1815 146.8696,117.3745 147.3276,116.5985 C147.8466,115.7195 148.9786,115.4815 150.1456,116.1705 C150.7296,116.5155 151.0866,116.8975 151.2816,117.2065 L150.5746,117.8575 C150.4436,117.6405 150.1576,117.2665 149.6536,116.9685 C149.0296,116.6005 148.5596,116.7765 148.3756,117.0885 C148.1306,117.5045 148.3286,117.8805 148.8836,118.5845 C149.6116,119.4885 149.7896,120.2295 149.3316,121.0055 C148.8216,121.8685 147.7176,122.2415 146.3256,121.4205 C145.7576,121.0855 145.2656,120.5685 145.0736,120.2175 L145.7706,119.5295 Z" id="Fill-45" fill="#F7F3F7" mask="url(#mask-4)"></path>
                                <path d="M149.9219,121.979 C150.1329,122.352 150.5189,122.795 151.0229,123.092 C151.6539,123.465 152.1809,123.377 152.4399,122.937 C152.6809,122.529 152.5509,122.129 152.0089,121.475 C151.3099,120.631 151.0209,119.824 151.4789,119.048 C151.9979,118.169 153.1299,117.931 154.2979,118.62 C154.8809,118.965 155.2379,119.347 155.4329,119.656 L154.7249,120.307 C154.5949,120.089 154.3089,119.716 153.8049,119.418 C153.1809,119.05 152.7109,119.226 152.5269,119.538 C152.2819,119.954 152.4799,120.329 153.0349,121.034 C153.7629,121.938 153.9409,122.679 153.4829,123.455 C152.9729,124.318 151.8689,124.691 150.4769,123.87 C149.9089,123.535 149.4169,123.018 149.2249,122.667 L149.9219,121.979 Z" id="Fill-46" fill="#F7F3F7" mask="url(#mask-4)"></path>
                                <polygon id="Fill-47" fill="#E8E7E7" mask="url(#mask-4)" points="182.425 33.3013 141.195 103.1773 201.762 138.9143 232.101 87.4963 224.895 58.3603"></polygon>
                                <path d="M175.6199,81.9136 C178.4929,83.6086 179.8289,82.2696 180.6879,80.8126 C181.3329,79.7206 181.8399,78.4916 182.3459,77.2636 C182.8529,76.0346 183.3599,74.8056 184.0279,73.6736 C186.2239,69.9516 189.5829,69.8056 193.0229,71.8346 L193.8719,72.3356 L192.5589,74.5616 L191.8309,74.1316 C189.4189,72.7636 187.8699,73.5406 186.5809,75.7256 C186.0079,76.6956 185.5559,77.7386 185.1449,78.8066 C184.7339,79.8726 184.2579,80.9556 183.6139,82.0476 C182.1269,84.6616 180.2299,85.2876 178.1219,84.6986 L178.0739,84.7796 C179.6329,86.2986 179.9539,88.3436 178.3859,90.9086 C177.7409,92.0016 177.0219,92.9416 176.2879,93.8176 C175.5289,94.7326 174.8579,95.5926 174.2849,96.5636 C172.9479,98.8296 173.1629,100.5926 175.4049,101.9696 L176.1329,102.3996 L174.8199,104.6246 L173.9709,104.1236 C170.6129,102.1416 168.9629,99.2046 171.3749,95.1186 C172.0189,94.0256 172.8489,92.9886 173.6559,91.9906 C174.4619,90.9956 175.2689,89.9976 175.9129,88.9046 C176.6529,87.6506 177.2749,85.6726 174.4019,83.9776 L175.6199,81.9136 Z" id="Fill-48" fill="#AAB6B6" mask="url(#mask-4)"></path>
                                <path d="M203.0392,100.8743 C200.1662,99.1793 198.7352,100.6803 197.9952,101.9343 C197.3502,103.0273 196.8672,104.2153 196.3852,105.4023 C195.9022,106.5903 195.3952,107.8193 194.7512,108.9113 C192.3402,112.9983 188.9722,112.9743 185.6132,110.9933 L184.7642,110.4913 L186.0772,108.2663 L186.8052,108.6963 C189.0942,109.9923 190.7412,109.3283 192.0792,107.0623 C192.6522,106.0913 193.0802,105.0883 193.5142,103.9813 C193.9252,102.9153 194.4012,101.8323 195.0462,100.7393 C196.5332,98.1253 198.4782,97.4183 200.5612,98.0483 L200.6092,97.9673 C199.0752,96.4073 198.7062,94.4433 200.2742,91.8783 C200.9182,90.7863 201.6372,89.8463 202.3712,88.9703 C203.1072,88.0943 203.8012,87.1943 204.3742,86.2243 C205.6632,84.0393 205.5942,82.3073 203.2312,80.8583 L202.5022,80.4283 L203.8152,78.2033 L204.6652,78.7043 C208.1042,80.7333 209.6012,83.7443 207.4042,87.4663 C206.7362,88.5993 205.9062,89.6373 205.0752,90.6753 C204.2452,91.7123 203.4142,92.7493 202.7702,93.8423 C201.9102,95.2983 201.3842,97.1153 204.2572,98.8103 L203.0392,100.8743 Z" id="Fill-49" fill="#AAB6B6" mask="url(#mask-4)"></path>
                            </g>
                        </g>
                        <text id="YOUR-DATA" font-family="SourceSansPro-Semibold, Source Sans Pro" font-size="18" font-weight="500" line-spacing="29">
                            <tspan x="76" y="18" fill="#087DA1">YOUR DATA</tspan>
                        </text>
                        <g id="Page-1" stroke-width="1" fill-rule="evenodd" transform="translate(106.000000, 29.000000)">
                            <path d="M5.2784,5.2783 C5.2784,5.2783 19.3414,89.2703 129.8094,68.2743" id="Stroke-1" stroke="#F16522" stroke-width="1.414"></path>
                            <path d="M134.381,68.2743 C134.381,70.7993 132.334,72.8453 129.81,72.8453 C127.285,72.8453 125.238,70.7993 125.238,68.2743 C125.238,65.7493 127.285,63.7033 129.81,63.7033 C132.334,63.7033 134.381,65.7493 134.381,68.2743" id="Fill-3" fill="#FFFFFF"></path>
                            <path d="M134.381,68.2743 C134.381,70.7993 132.334,72.8453 129.81,72.8453 C127.285,72.8453 125.238,70.7993 125.238,68.2743 C125.238,65.7493 127.285,63.7033 129.81,63.7033 C132.334,63.7033 134.381,65.7493 134.381,68.2743 Z" id="Stroke-5" stroke="#F16522" stroke-width="1.414"></path>
                            <path d="M9.8497,5.2783 C9.8497,7.8033 7.8027,9.8493 5.2787,9.8493 C2.7537,9.8493 0.7067,7.8033 0.7067,5.2783 C0.7067,2.7533 2.7537,0.7073 5.2787,0.7073 C7.8027,0.7073 9.8497,2.7533 9.8497,5.2783" id="Fill-7" fill="#FFFFFF"></path>
                            <path d="M9.8497,5.2783 C9.8497,7.8033 7.8027,9.8493 5.2787,9.8493 C2.7537,9.8493 0.7067,7.8033 0.7067,5.2783 C0.7067,2.7533 2.7537,0.7073 5.2787,0.7073 C7.8027,0.7073 9.8497,2.7533 9.8497,5.2783 Z" id="Stroke-9" stroke="#F16522" stroke-width="1.414"></path>
                        </g>
                        <g id="Page-1" stroke-width="1" fill-rule="evenodd" transform="translate(0.000000, 321.000000)">
                            <path d="M244.7744,116.5163 C244.7744,128.1463 254.1954,137.5673 265.8254,137.5673 C277.4564,137.5673 286.8764,128.1463 286.8764,116.5163 C286.8764,104.8853 277.4564,95.4653 265.8254,95.4653 C254.1954,95.4653 244.7744,104.8853 244.7744,116.5163" id="Fill-7" fill="#077C9E"></path>
                            <path d="M253.7963,116.5163 C253.7963,123.1623 259.1793,128.5453 265.8253,128.5453 C272.4713,128.5453 277.8543,123.1623 277.8543,116.5163 C277.8543,109.8703 272.4713,104.4873 265.8253,104.4873 C259.1793,104.4873 253.7963,109.8703 253.7963,116.5163" id="Fill-9" fill="#FFFFFF"></path>
                            <path d="M265.8346,110.5017 C269.1566,110.5017 271.8496,113.1947 271.8496,116.5167 C271.8496,119.8377 269.1566,122.5307 265.8346,122.5307 C262.5126,122.5307 259.8196,119.8377 259.8196,116.5167 C259.8196,113.1947 262.5126,110.5017 265.8346,110.5017" id="Fill-11" fill="#F8B917"></path>
                            <path d="M167.954,116.5163 C167.954,103.2503 178.747,92.4583 192.012,92.4583 L413.963,92.4583 C427.228,92.4583 438.021,103.2503 438.021,116.5163 C438.021,129.7823 427.228,140.5743 413.963,140.5743 L192.012,140.5743 C178.747,140.5743 167.954,129.7823 167.954,116.5163 M161.93,116.5163 C161.93,133.1163 175.403,146.5893 192.003,146.5893 L413.954,146.5893 C430.584,146.5893 444.027,133.1163 444.027,116.5163 C444.027,99.9163 430.584,86.4433 413.954,86.4433 L192.003,86.4433 C175.403,86.4433 161.93,99.9163 161.93,116.5163" id="Fill-13" fill="#93C8D8"></path>
                            <path d="M313.9425,116.5163 C313.9425,128.1463 323.3635,137.5673 334.9935,137.5673 C346.6245,137.5673 356.0445,128.1463 356.0445,116.5163 C356.0445,104.8853 346.6245,95.4653 334.9935,95.4653 C323.3635,95.4653 313.9425,104.8853 313.9425,116.5163" id="Fill-15" fill="#077C9E"></path>
                            <path d="M322.9644,116.5163 C322.9644,123.1623 328.3474,128.5453 334.9934,128.5453 C341.6394,128.5453 347.0224,123.1623 347.0224,116.5163 C347.0224,109.8703 341.6394,104.4873 334.9934,104.4873 C328.3474,104.4873 322.9644,109.8703 322.9644,116.5163" id="Fill-17" fill="#FFFFFF"></path>
                            <path d="M335.0027,110.5017 C338.3247,110.5017 341.0177,113.1947 341.0177,116.5167 C341.0177,119.8377 338.3247,122.5307 335.0027,122.5307 C331.6807,122.5307 328.9877,119.8377 328.9877,116.5167 C328.9877,113.1947 331.6807,110.5017 335.0027,110.5017" id="Fill-19" fill="#F8B917"></path>
                            <path d="M188.1547,244.07 L153.1687,244.07 C147.2337,244.07 142.3397,239.176 142.3397,233.241 L142.3397,96.837 C142.3397,90.798 147.2337,86.008 153.1687,86.008 L188.1547,86.008 C194.1937,86.008 199.0877,90.798 199.0877,96.837 L199.0877,233.241 C199.0877,239.176 194.1937,244.07 188.1547,244.07" id="Fill-21" fill="#057C9F"></path>
                            <path d="M211.8954,217.7263 L201.4824,217.7263 L201.4824,132.4473 L150.9824,96.9413 L150.9824,55.4983 C150.9824,52.3753 153.5854,49.7723 156.7094,49.7723 L206.1684,49.7723 C209.2924,49.7723 211.8954,52.3753 211.8954,55.4983 L211.8954,217.7263 Z" id="Fill-23" fill="#14A987"></path>
                            <path d="M182.0114,77.7819 L182.0114,77.7819 C180.1374,77.7819 178.6794,76.2199 178.6794,74.4499 L178.6794,59.4559 C178.6794,57.6859 180.1374,56.1239 182.0114,56.1239 C183.7814,56.1239 185.3434,57.6859 185.3434,59.4559 L185.3434,74.4499 C185.3434,76.2199 183.7814,77.7819 182.0114,77.7819 M182.0114,106.6249 L182.0114,106.6249 C180.1374,106.6249 178.6794,105.1669 178.6794,103.2919 L178.6794,88.4029 C178.6794,86.5279 180.1374,85.0709 182.0114,85.0709 C183.7814,85.0709 185.3434,86.5279 185.3434,88.4029 L185.3434,103.2919 C185.3434,105.1669 183.7814,106.6249 182.0114,106.6249 M200.4414,77.7819 L200.4414,77.7819 C198.6714,77.7819 197.1094,76.2199 197.1094,74.4499 L197.1094,59.4559 C197.1094,57.6859 198.6714,56.1239 200.4414,56.1239 C202.3164,56.1239 203.7734,57.6859 203.7734,59.4559 L203.7734,74.4499 C203.7734,76.2199 202.3164,77.7819 200.4414,77.7819 M200.4414,106.6249 L200.4414,106.6249 C198.6714,106.6249 197.1094,105.1669 197.1094,103.2919 L197.1094,88.4029 C197.1094,86.5279 198.6714,85.0709 200.4414,85.0709 C202.3164,85.0709 203.7734,86.5279 203.7734,88.4029 L203.7734,103.2919 C203.7734,105.1669 202.3164,106.6249 200.4414,106.6249" id="Fill-25" fill="#008E6F"></path>
                            <mask id="mask-6" fill="white">
                                <use xlink:href="#path-5"></use>
                            </mask>
                            <g id="Clip-28"></g>
                            <polygon id="Fill-27" fill="#057C9F" mask="url(#mask-6)" points="211.603 145.995 218.163 145.995 218.163 86.783 211.603 86.783"></polygon>
                            <polygon id="Fill-29" fill="#93C8D8" mask="url(#mask-6)" points="218.164 153.941 232.637 153.941 232.637 78.838 218.164 78.838"></polygon>
                            <polygon id="Fill-30" fill="#93C8D8" mask="url(#mask-6)" points="0 32.695 128.803 32.695 128.803 0 0 0"></polygon>
                            <path d="M119.6404,32.6955 L64.4534,32.6955 L9.1634,32.6955 C10.3084,33.9445 11.3504,35.1945 12.3914,36.3395 C13.4324,37.4855 14.3694,38.5265 15.3064,39.5675 L64.4534,39.5675 L113.4974,39.5675 C114.4344,38.5265 115.3714,37.4855 116.4124,36.3395 C117.4534,35.1945 118.4954,33.9445 119.6404,32.6955" id="Fill-31" fill="#057C9F" mask="url(#mask-6)"></path>
                            <path d="M120.3693,219.6004 L120.3693,219.6004 C59.0393,219.6004 8.7463,169.3084 8.7463,107.9784 L8.7463,39.5674 L120.3693,39.5674 L120.3693,219.6004 Z" id="Fill-32" fill="#93C8D8" mask="url(#mask-6)"></path>
                            <path d="M120.37,210.021 L142.34,210.021 L142.34,189.821 L120.37,189.821 L120.37,210.021 Z M120.37,173.681 L142.34,173.681 L142.34,153.481 L120.37,153.481 L120.37,173.681 Z M120.37,136.717 L142.34,136.717 L142.34,116.517 L120.37,116.517 L120.37,136.717 Z" id="Fill-33" fill="#AEE3F4" mask="url(#mask-6)"></path>
                            <path d="M53.3125,203.4613 C36.3395,203.4613 22.6995,189.7163 22.6995,172.8483 C22.6995,155.9803 36.3395,142.2353 53.3125,142.2353 C70.1805,142.2353 83.9255,155.9803 83.9255,172.8483 C83.9255,189.7163 70.1805,203.4613 53.3125,203.4613" id="Fill-34" fill="#057C9F" mask="url(#mask-6)"></path>
                            <path d="M53.3125,183.0525 C47.6895,183.0525 43.1075,178.4715 43.1075,172.8485 C43.1075,167.2255 47.6895,162.6445 53.3125,162.6445 C58.9345,162.6445 63.5165,167.2255 63.5165,172.8485 C63.5165,178.4715 58.9345,183.0525 53.3125,183.0525" id="Fill-35" fill="#F8B917" mask="url(#mask-6)"></path>
                            <path d="M101.2101,99.4398 L28.0101,99.4398 C26.4481,99.4398 25.1981,98.0858 25.1981,96.5248 L25.1981,58.8308 C25.1981,57.2688 26.4481,55.9148 28.0101,55.9148 L101.2101,55.9148 C102.7721,55.9148 104.0211,57.2688 104.0211,58.8308 L104.0211,96.5248 C104.0211,98.0858 102.7721,99.4398 101.2101,99.4398" id="Fill-36" fill="#008E6F" mask="url(#mask-6)"></path>
                            <path d="M46.7715,79.4388 L44.4545,72.2238 L41.8135,72.2238 L45.5275,82.0288 C44.9135,83.7018 44.2485,84.5388 43.5335,84.5388 C43.1485,84.5388 42.7575,84.4538 42.3595,84.2858 L42.3595,86.3598 C42.8925,86.5478 43.4155,86.6438 43.9275,86.6438 C44.6235,86.6438 45.2945,86.3818 45.9425,85.8588 C46.5895,85.3348 47.1895,84.3218 47.7435,82.8178 L51.6795,72.2238 L49.0485,72.2238 L46.7715,79.4388 Z M40.3985,73.4788 C40.0665,73.1148 39.6705,72.8178 39.2085,72.5878 C38.7465,72.3588 38.3455,72.2168 38.0045,72.1628 C37.6645,72.1088 37.3225,72.0818 36.9775,72.0818 C35.5005,72.0818 34.4065,72.4248 33.6945,73.1088 C32.9825,73.7938 32.6265,74.6118 32.6265,75.5628 L32.6265,86.3998 L35.1155,86.3998 L35.1155,82.5848 C35.6695,82.7068 36.2355,82.7668 36.8155,82.7668 C38.3605,82.7668 39.5475,82.3158 40.3775,81.4108 C41.2075,80.5078 41.6225,79.2128 41.6225,77.5258 C41.6225,76.6018 41.5005,75.7878 41.2585,75.0828 C41.0155,74.3768 40.7285,73.8428 40.3985,73.4788 L40.3985,73.4788 Z M38.4805,80.1418 C38.0585,80.6108 37.4465,80.8448 36.6445,80.8448 C36.1985,80.8448 35.6895,80.8048 35.1155,80.7238 L35.1155,75.3308 C35.1155,74.5878 35.7365,74.2178 36.9775,74.2178 C37.7675,74.2178 38.3205,74.4868 38.6375,75.0268 C38.9545,75.5668 39.1125,76.4428 39.1125,77.6578 C39.1125,78.8448 38.9015,79.6728 38.4805,80.1418 L38.4805,80.1418 Z M86.0935,76.6908 C85.6105,76.4788 85.1265,76.3098 84.6415,76.1858 C84.1555,76.0608 83.7445,75.9158 83.4065,75.7508 C83.0695,75.5848 82.9005,75.3578 82.9005,75.0668 C82.9005,74.4868 83.4945,74.1968 84.6815,74.1968 C85.5715,74.1968 86.3675,74.3618 87.0695,74.6928 L87.0695,72.8008 C86.2135,72.3078 85.2725,72.0618 84.2465,72.0618 C83.1535,72.0618 82.2415,72.3398 81.5095,72.8968 C80.7775,73.4528 80.4115,74.2508 80.4115,75.2898 C80.4115,75.9508 80.5815,76.4988 80.9225,76.9338 C81.2635,77.3698 81.6745,77.6808 82.1575,77.8698 C82.6395,78.0598 83.1215,78.2218 83.6045,78.3608 C84.0865,78.4998 84.4975,78.6608 84.8385,78.8468 C85.1785,79.0318 85.3495,79.2768 85.3495,79.5798 C85.3495,79.9108 85.2415,80.1578 85.0255,80.3238 C84.8095,80.4898 84.3435,80.5718 83.6295,80.5718 C82.5905,80.5718 81.6155,80.2678 80.7055,79.6608 L80.7055,81.8768 C81.7035,82.4438 82.7955,82.7268 83.9835,82.7268 C85.1435,82.7268 86.0765,82.4408 86.7815,81.8668 C87.4855,81.2938 87.8385,80.5718 87.8385,79.7018 C87.8385,78.9198 87.6685,78.2748 87.3275,77.7688 C86.9865,77.2628 86.5755,76.9038 86.0935,76.6908 L86.0935,76.6908 Z M56.6665,72.0618 C56.1265,72.0618 55.5605,72.1158 54.9665,72.2238 L54.9665,68.2468 L52.4775,68.2468 L52.4775,79.2418 C52.4775,80.2008 52.8335,81.0218 53.5445,81.7038 C54.2565,82.3858 55.3515,82.7268 56.8285,82.7268 C57.1715,82.7268 57.5115,82.6998 57.8505,82.6458 C58.1895,82.5918 58.5895,82.4498 59.0495,82.2208 C59.5105,81.9898 59.9045,81.6928 60.2335,81.3278 C60.5635,80.9638 60.8475,80.4278 61.0895,79.7218 C61.3325,79.0158 61.4525,78.1988 61.4525,77.2728 C61.4525,75.5898 61.0395,74.3008 60.2135,73.4048 C59.3875,72.5098 58.2045,72.0618 56.6665,72.0618 L56.6665,72.0618 Z M58.4885,79.7848 C58.1705,80.3228 57.6175,80.5918 56.8285,80.5918 C55.5875,80.5918 54.9665,80.2198 54.9665,79.4758 L54.9665,74.1768 C55.4315,74.0628 55.9685,74.0048 56.5755,74.0048 C57.3515,74.0048 57.9435,74.2358 58.3515,74.6998 C58.7595,75.1628 58.9635,75.9768 58.9635,77.1408 C58.9635,78.3658 58.8055,79.2478 58.4885,79.7848 L58.4885,79.7848 Z M78.1005,76.6908 C77.6185,76.4788 77.1345,76.3098 76.6485,76.1858 C76.1625,76.0608 75.7515,75.9158 75.4145,75.7508 C75.0765,75.5848 74.9085,75.3578 74.9085,75.0668 C74.9085,74.4868 75.5015,74.1968 76.6895,74.1968 C77.5795,74.1968 78.3755,74.3618 79.0775,74.6928 L79.0775,72.8008 C78.2205,72.3078 77.2795,72.0618 76.2535,72.0618 C75.1615,72.0618 74.2485,72.3398 73.5165,72.8968 C72.7845,73.4528 72.4185,74.2508 72.4185,75.2898 C72.4185,75.9508 72.5895,76.4988 72.9295,76.9338 C73.2705,77.3698 73.6815,77.6808 74.1645,77.8698 C74.6465,78.0598 75.1285,78.2218 75.6115,78.3608 C76.0935,78.4998 76.5055,78.6608 76.8455,78.8468 C77.1865,79.0318 77.3575,79.2768 77.3575,79.5798 C77.3575,79.9108 77.2485,80.1578 77.0325,80.3238 C76.8175,80.4898 76.3515,80.5718 75.6365,80.5718 C74.5975,80.5718 73.6225,80.2678 72.7125,79.6608 L72.7125,81.8768 C73.7105,82.4438 74.8035,82.7268 75.9905,82.7268 C77.1515,82.7268 78.0835,82.4408 78.7885,81.8668 C79.4935,81.2938 79.8465,80.5718 79.8465,79.7018 C79.8465,78.9198 79.6755,78.2748 79.3345,77.7688 C78.9945,77.2628 78.5825,76.9038 78.1005,76.6908 L78.1005,76.6908 Z M96.1245,73.1898 C95.3425,72.4378 94.2125,72.0618 92.7355,72.0618 C91.5745,72.0618 90.5195,72.2538 89.5675,72.6388 L89.5675,74.6518 C90.4245,74.3018 91.4325,74.1258 92.5935,74.1258 C94.0575,74.1258 94.7895,74.7768 94.7895,76.0788 C94.1415,75.9848 93.5345,75.9368 92.9675,75.9368 C92.1785,75.9368 91.4935,76.0268 90.9135,76.2048 C90.3335,76.3848 89.8945,76.5978 89.5985,76.8478 C89.3015,77.0978 89.0665,77.3878 88.8945,77.7188 C88.7225,78.0488 88.6165,78.3238 88.5765,78.5428 C88.5365,78.7618 88.5155,78.9758 88.5155,79.1858 C88.5155,80.1708 88.8745,81.0068 89.5935,81.6948 C90.3115,82.3838 91.4295,82.7268 92.9475,82.7268 C94.4245,82.7268 95.5185,82.3848 96.2315,81.6998 C96.9425,81.0158 97.2985,80.1968 97.2985,79.2458 L97.2985,76.4528 C97.2985,75.0298 96.9075,73.9428 96.1245,73.1898 L96.1245,73.1898 Z M94.8095,78.9628 C94.8095,80.0088 94.1885,80.5318 92.9475,80.5318 L92.9265,80.5318 C91.6255,80.5318 90.9745,79.9778 90.9745,78.8718 C90.9805,77.9748 91.7635,77.5258 93.3215,77.5258 C93.7335,77.5328 94.2295,77.5768 94.8095,77.6578 L94.8095,78.9628 Z M66.9305,72.0818 C65.3555,72.0818 64.1465,72.5408 63.3035,73.4588 C62.4595,74.3758 62.0385,75.6908 62.0385,77.4048 C62.0385,79.1178 62.4595,80.4328 63.3035,81.3518 C64.1465,82.2688 65.3555,82.7268 66.9305,82.7268 C68.5055,82.7268 69.7155,82.2688 70.5585,81.3518 C71.4015,80.4328 71.8225,79.1178 71.8225,77.4048 C71.8225,75.6908 71.4015,74.3758 70.5585,73.4588 C69.7155,72.5408 68.5055,72.0818 66.9305,72.0818 L66.9305,72.0818 Z M68.7475,80.0098 C68.3555,80.4588 67.7515,80.6828 66.9355,80.6828 C66.1195,80.6828 65.5145,80.4588 65.1195,80.0098 C64.7245,79.5618 64.5275,78.6948 64.5275,77.4098 C64.5275,76.1248 64.7245,75.2558 65.1195,74.8038 C65.5145,74.3528 66.1195,74.1258 66.9355,74.1258 C67.7515,74.1258 68.3555,74.3528 68.7475,74.8038 C69.1385,75.2558 69.3335,76.1248 69.3335,77.4098 C69.3335,78.6948 69.1385,79.5618 68.7475,80.0098 L68.7475,80.0098 Z" id="Fill-38" fill="#FFFFFF" mask="url(#mask-6)"></path>
                        </g>
                        <g id="Page-1" stroke-width="1" fill-rule="evenodd" transform="translate(257.000000, 343.000000)">
                            <polygon id="Fill-1" fill="#FABB17" points="27.9 0.9999 0 1.0469 0.074 44.4619 0.069 44.4619 0.091 56.9499 39.879 56.8829 39.862 46.8839 39.866 46.8839 39.809 13.1049"></polygon>
                            <path d="M31.028,36.4994 L8.857,36.5904 L8.787,19.4034 L30.958,19.3124 L31.028,36.4994 Z M6.987,17.6194 L7.072,38.3894 L32.827,38.2844 L32.742,17.5134 L6.987,17.6194 Z" id="Fill-2" fill="#C0902D"></path>
                            <polygon id="Fill-3" fill="#C0902D" points="22.9492 24.8092 29.2252 35.5782 17.0602 35.6282"></polygon>
                            <polygon id="Fill-4" fill="#C0902D" points="18.0106 32.1604 15.1476 27.2484 10.3406 35.6554 16.0256 35.6324"></polygon>
                            <g id="Group-31" transform="translate(11.000000, 0.589000)">
                                <path d="M3.9137,22.6909 C3.9177,23.6639 3.1317,24.4559 2.1587,24.4599 C1.1857,24.4639 0.3937,23.6779 0.3897,22.7049 C0.3857,21.7329 1.1717,20.9399 2.1447,20.9359 C3.1177,20.9319 3.9097,21.7179 3.9137,22.6909" id="Fill-5" fill="#C0902D"></path>
                                <g id="Group-9" transform="translate(53.000000, 0.000000)">
                                    <mask id="mask-8" fill="white">
                                        <use xlink:href="#path-7"></use>
                                    </mask>
                                    <g id="Clip-8"></g>
                                    <polygon id="Fill-7" fill="#008E6F" mask="url(#mask-8)" points="40.5454 46.2948 40.5524 46.2948 40.4954 12.5158 28.5864 0.4108 0.6864 0.4578 0.7564 41.8728 0.7494 41.8728 0.7744 56.3608 40.5624 56.2938"></polygon>
                                </g>
                                <path d="M73.8241,36.2435 C68.7181,36.3295 64.4701,32.2235 64.3841,27.1175 C64.2981,22.0105 68.4041,17.7635 73.5111,17.6775 C78.6161,17.5915 82.8631,21.6975 82.9491,26.8035 C83.0351,31.9105 78.9291,36.1575 73.8241,36.2435 L73.8241,36.2435 Z M73.4711,15.3575 C67.0891,15.4655 61.9551,20.7745 62.0631,27.1565 C62.1711,33.5375 67.4811,38.6715 73.8631,38.5635 C80.2451,38.4555 85.3781,33.1465 85.2701,26.7645 C85.1631,20.3825 79.8531,15.2495 73.4711,15.3575 L73.4711,15.3575 Z M71.4341,32.2215 L78.3081,26.8825 L71.2581,21.7785 L71.4341,32.2215 Z" id="Fill-10" fill="#14A987"></path>
                            </g>
                        </g>
                        <g id="Page-1" stroke-width="1" fill-rule="evenodd" transform="translate(122.500000, 566.500000) rotate(40.000000) translate(-122.500000, -566.500000) translate(55.000000, 530.000000)">
                            <path d="M5.2784,5.2783 C5.2784,5.2783 19.3414,89.2703 129.8094,68.2743" id="Stroke-1" stroke="#F16522" stroke-width="1.414"></path>
                            <path d="M134.381,68.2743 C134.381,70.7993 132.334,72.8453 129.81,72.8453 C127.285,72.8453 125.238,70.7993 125.238,68.2743 C125.238,65.7493 127.285,63.7033 129.81,63.7033 C132.334,63.7033 134.381,65.7493 134.381,68.2743" id="Fill-3" fill="#FFFFFF"></path>
                            <path d="M134.381,68.2743 C134.381,70.7993 132.334,72.8453 129.81,72.8453 C127.285,72.8453 125.238,70.7993 125.238,68.2743 C125.238,65.7493 127.285,63.7033 129.81,63.7033 C132.334,63.7033 134.381,65.7493 134.381,68.2743 Z" id="Stroke-5" stroke="#F16522" stroke-width="1.414"></path>
                            <path d="M9.8497,5.2783 C9.8497,7.8033 7.8027,9.8493 5.2787,9.8493 C2.7537,9.8493 0.7067,7.8033 0.7067,5.2783 C0.7067,2.7533 2.7537,0.7073 5.2787,0.7073 C7.8027,0.7073 9.8497,2.7533 9.8497,5.2783" id="Fill-7" fill="#FFFFFF"></path>
                            <path d="M9.8497,5.2783 C9.8497,7.8033 7.8027,9.8493 5.2787,9.8493 C2.7537,9.8493 0.7067,7.8033 0.7067,5.2783 C0.7067,2.7533 2.7537,0.7073 5.2787,0.7073 C7.8027,0.7073 9.8497,2.7533 9.8497,5.2783 Z" id="Stroke-9" stroke="#F16522" stroke-width="1.414"></path>
                        </g>
                        <text id="AUTOIMPORTERS" font-family="SourceSansPro-Semibold, Source Sans Pro" font-size="18" font-weight="500" line-spacing="29">
                            <tspan x="167" y="634" fill="#087DA1">AUTOIMPORTERS</tspan>
                        </text>
                    </g>
                </g>
            </g>
        </g>
    </g>
</svg>