<svg xmlns="http://www.w3.org/2000/svg" width="28" height="245" viewBox="0 0 28 245">
    <g fill="none" fill-rule="evenodd" stroke="#CFD1D2" stroke-width="3">
        <path stroke-linecap="round" d="M26.5 243.5v-228M1.5 230.5V1.5"/>
        <path d="M1.5 13.5l25 15M1.5 25.735l25 15M1.5 37.97l25 15M1.5 50.206l25 15M1.5 62.441l25 15M1.5 74.676l25 15M1.5 86.912l25 15M1.5 99.147l25 15M1.5 111.382l25 15M1.5 123.618l25 15M1.5 135.853l25 15M1.5 148.088l25 15M1.5 160.324l25 15M1.5 172.559l25 15M1.5 184.794l25 15M1.5 197.03l25 15M1.5 209.265l25 15M1.5 221.5l25 15"/>
    </g>
</svg>
