<?xml version="1.0" encoding="UTF-8" standalone="no"?>
<svg width="351px" height="545px" viewBox="0 0 351 545" version="1.1" xmlns="http://www.w3.org/2000/svg" xmlns:xlink="http://www.w3.org/1999/xlink">
    <!-- Generator: Sketch 46.2 (44496) - http://www.bohemiancoding.com/sketch -->
    <title>machine</title>
    <desc>Created with Sketch.</desc>
    <defs>
        <rect id="path-1" x="0" y="0" width="375" height="640"></rect>
        <polygon id="path-3" points="0.4626 470 512.785 470 512.785 0.411 0.4626 0.411"></polygon>
        <polygon id="path-5" points="0 28.3005 0 0.4665 25.5988 0.4665 25.5988 28.3005"></polygon>
        <polygon id="path-7" points="0 117 91.089 117 91.089 0.09 0 0.09"></polygon>
    </defs>
    <g id="Sample-UI" stroke="none" stroke-width="1" fill="none" fill-rule="evenodd">
        <g id="how-it-works---mobile" transform="translate(0.000000, -2719.000000)">
            <g id="machine" transform="translate(0.000000, 2662.000000)">
                <mask id="mask-2" fill="white">
                    <use xlink:href="#path-1"></use>
                </mask>
                <g id="Mask"></g>
                <g mask="url(#mask-2)">
                    <g transform="translate(-189.000000, 56.000000)">
                        <g id="Page-1" stroke-width="1" fill-rule="evenodd">
                            <polygon id="Fill-1" fill="#2BADD0" points="299.4346 1.0005 301.1086 159.9715 512.7846 159.9715 512.7846 1.0005"></polygon>
                            <polygon id="Fill-2" fill="#067FA2" points="78.4728 21.9992 350.5438 14.4992 344.4728 233.7212 146.2558 229.0112"></polygon>
                            <polygon id="Fill-3" fill="#008E6F" points="0.4623 64.17 244.0893 51.998 240.9433 188.661 0.6903 120.329"></polygon>
                            <polygon id="Fill-4" fill="#00583E" points="244.0895 51.9978 78.4725 21.9988 78.4725 60.2728"></polygon>
                            <polygon id="Fill-5" fill="#004E6F" points="299.4346 1.0005 299.4346 15.9085 350.5436 14.4995"></polygon>
                            <g id="Group-182" transform="translate(0.000000, 0.589000)">
                                <path d="M461.8311,167.7592 C462.2321,169.8102 462.6331,171.8612 463.0331,173.9122 C460.0051,174.7872 456.9781,175.6632 453.9501,176.5382 L446.2021,176.5382 L445.6051,174.5122 L453.9501,172.8242 L458.1571,169.1102 C459.3821,168.6592 460.6071,168.2092 461.8311,167.7592 Z" id="Fill-6" fill="#2A3540"></path>
                                <polygon id="Fill-8" fill="#2A3540" points="482.4023 169.1099 484.4743 174.9629 484.4743 181.9409 480.5993 185.9929 477.7943 185.3179 475.8573 181.0409 477.7943 176.5379 477.7943 169.1099"></polygon>
                                <polygon id="Fill-10" fill="#32484E" points="450.5921 36.3106 452.8291 36.4436 452.8291 37.3656 450.4901 36.8526"></polygon>
                                <polygon id="Fill-12" fill="#425263" points="479.1802 139.3487 476.6702 132.3487 471.0282 97.6927 458.8492 102.3377 459.2702 103.9177 455.0842 104.7847 455.4152 109.4217 461.2062 111.1907 466.5402 131.2287 468.4362 135.2677 476.1802 169.8797 480.4952 171.5237 484.4742 168.4557"></polygon>
                                <path d="M447.4045,52.8051 C446.1575,61.8131 444.9105,70.8211 443.6645,79.8281 C442.5955,88.4951 441.5265,97.1631 440.4585,105.8301 C441.2155,106.5111 441.9725,107.1931 442.7295,107.8751 L446.5365,107.1221 L450.2095,81.8741 C449.2745,72.1841 448.3395,62.4951 447.4045,52.8051" id="Fill-14" fill="#D4EEF6"></path>
                                <path d="M446.2022,96.926 C447.2962,107.478 448.3902,118.031 449.4842,128.583 L452.5472,141.585 L455.9532,164.081 L455.9532,168.828 L459.7602,170.686 L463.5672,169.241 L461.2632,139.522 L459.5602,123.63 L457.9572,100.102 C454.0392,99.043 450.1202,97.985 446.2022,96.926" id="Fill-16" fill="#425263"></path>
                                <path d="M460.3617,46.8773 C463.7017,47.4023 467.0407,47.9283 470.3797,48.4533 C472.0727,48.8533 473.7647,49.2533 475.4567,49.6533 C475.5897,50.7043 475.7237,51.7543 475.8567,52.8053 C474.2987,58.3323 472.7397,63.8603 471.1817,69.3883 C470.7807,74.1903 470.3797,78.9923 469.9797,83.7943 C470.6477,88.9223 471.3147,94.0493 471.9827,99.1773 C470.4467,101.8533 468.9107,104.5293 467.3747,107.2053 L457.5567,110.3573 L453.9497,108.1063 L451.7457,110.3573 L446.1357,104.7293 C445.9797,99.8273 445.8237,94.9253 445.6677,90.0223 C445.4257,82.3913 445.9377,76.5233 446.3357,69.0123 C446.5547,64.8853 446.8877,59.4163 447.4047,52.9553 C449.9207,51.3793 452.4357,49.8033 454.9517,48.2283 C456.7547,47.7773 458.5587,47.3273 460.3617,46.8773" id="Fill-18" fill="#EDF7FB"></path>
                                <path d="M475.4562,49.6537 C474.0982,50.5727 472.7402,51.4927 471.3822,52.4117 C470.9812,54.9517 470.5802,57.4927 470.1802,60.0327 C471.4932,65.5247 472.8072,71.0167 474.1202,76.5087 C474.1652,77.4277 474.2092,78.3467 474.2542,79.2667 C474.3872,80.1377 474.5212,81.0087 474.6542,81.8797 C474.2542,89.0957 473.8532,96.3127 473.4522,103.5287 C474.3432,104.0797 475.2332,104.6297 476.1242,105.1797 C477.2372,104.9297 478.3502,104.6797 479.4632,104.4297 C480.3852,96.7257 481.2332,88.9177 482.0012,81.0087 C482.1382,79.6027 482.2722,78.1997 482.4022,76.7987 C480.7992,69.2507 479.1962,61.7017 477.5932,54.1537 L475.4562,49.6537 Z" id="Fill-20" fill="#EDF7FB"></path>
                                <path d="M455.653,48.6783 C455.463,46.9523 455.274,45.2263 455.084,43.5013 L459.56,40.9123 C461.386,41.2123 463.211,41.5123 465.037,41.8123 C464.981,43.5383 464.926,45.2643 464.87,46.9903 C465.137,47.2303 465.404,47.4713 465.671,47.7123 C464.503,48.9353 463.334,50.1573 462.165,51.3793 L456.254,53.4053 L454.885,51.3793 C455.141,50.4793 455.397,49.5783 455.653,48.6783" id="Fill-22" fill="#FCCA94"></path>
                                <path d="M452.2133,34.0464 C452.1573,31.7394 452.1023,29.4314 452.0463,27.1244 C453.2153,25.8054 454.3843,24.4854 455.5523,23.1664 C458.3803,23.1914 461.2073,23.2164 464.0353,23.2414 C465.8163,25.3424 467.5973,27.4434 469.3783,29.5444 C468.9863,32.3164 468.5943,35.0884 468.2023,37.8604 C467.3923,39.3654 466.5823,40.8704 465.7713,42.3754 C465.2703,42.4124 464.7703,42.4504 464.2693,42.4874 C462.1943,40.3764 460.1203,38.2644 458.0463,36.1524 C456.1023,35.4504 454.1573,34.7484 452.2133,34.0464" id="Fill-24" fill="#5A4C3E"></path>
                                <path d="M464.124,42.0682 L461.628,44.5692 L456.281,47.2682 L453.698,46.6162 L452.632,40.5592 C452.737,38.3632 452.843,36.1672 452.948,33.9712 L452.948,31.4202 C453.994,31.1952 455.041,30.9702 456.087,30.7452 C457.169,31.7152 458.25,32.6862 459.332,33.6572 L462.88,35.3612 L463.324,37.7632 L464.929,36.5632 L466.086,38.2662 L465.194,40.4672 L463.679,41.0672 L464.124,42.0682 Z" id="Fill-26" fill="#FDD8AF"></path>
                                <polygon id="Fill-28" fill="#D4EEF6" points="464.9226 45.36 466.3736 47.823 459.8106 54.812 457.4066 50.873"></polygon>
                                <polygon id="Fill-30" fill="#D4EEF6" points="455.4757 47.0648 454.9517 48.2278 454.3007 53.5738 455.7277 50.6758 455.6527 48.6778"></polygon>
                                <polygon id="Fill-32" fill="#ABDEEC" points="457.4062 50.873 457.4062 53.011 458.4852 52.641"></polygon>
                                <polygon id="Fill-34" fill="#ABDEEC" points="455.7281 50.6761 455.5731 52.3971 455.1721 51.8051"></polygon>
                                <path d="M455.5172,36.7891 C456.2522,36.6581 456.9862,36.5261 457.7212,36.3951 C458.5732,36.6201 459.4242,36.8451 460.2762,37.0701 C460.2882,37.5041 460.3012,37.9381 460.3132,38.3731 L459.7412,39.6031 L458.1912,40.2781 L456.4192,39.6591 C456.1012,39.2281 455.7842,38.7961 455.4672,38.3651 C455.4842,37.8391 455.5002,37.3141 455.5172,36.7891" id="Fill-36" fill="#D4EEF6"></path>
                                <path d="M451.9981,36.1137 L450.5921,36.3107 L450.3421,37.6327 L450.5921,38.8147 L451.8281,39.6447 L453.2471,39.1527 C453.4471,38.7207 453.6481,38.2897 453.8481,37.8587 C453.7981,37.5017 453.7481,37.1457 453.6981,36.7887 C453.1311,36.5637 452.5651,36.3387 451.9981,36.1137" id="Fill-38" fill="#D4EEF6"></path>
                                <polygon id="Fill-40" fill="#32484E" points="460.276 37.0705 464.543 36.8525 463.324 37.7635 460.313 37.8795"></polygon>
                                <polygon id="Fill-42" fill="#32484E" points="455.4899 37.6482 454.4169 37.3652 453.8479 37.8582 453.6979 36.7892 454.3009 36.6352 455.5169 36.7892"></polygon>
                                <polygon id="Fill-44" fill="#D4EEF6" points="466.3741 66.7617 462.8331 66.3117 459.6271 66.3117 459.3591 68.1127 462.8661 68.4877 466.3741 69.0877"></polygon>
                                <polygon id="Fill-46" fill="#D4EEF6" points="456.2541 53.4055 454.3001 56.4065 453.9501 108.1065 455.0141 57.0075"></polygon>
                                <polygon id="Fill-48" fill="#D4EEF6" points="471.8502 67.0167 469.3782 60.0087 471.3822 52.4117 468.3092 60.6837"></polygon>
                                <polygon id="Fill-50" fill="#D4EEF6" points="474.9887 77.4167 477.5267 78.6177 480.5987 77.4167 478.3277 79.2927 477.1257 79.2927 475.8567 78.6177 476.2907 79.8927 477.7937 80.3397 478.5287 80.3397 477.7937 81.0937 476.2907 80.3397 475.8567 80.3397"></polygon>
                                <path d="M444.4323,104.6171 L440.5383,105.1801 L440.4583,108.7811 L441.9273,112.9461 L444.4323,114.4091 L445.3343,116.0971 L446.2023,117.2231 C447.1373,116.3221 446.2023,115.1971 446.2023,115.1971 L445.6053,112.6081 L445.3343,109.7941 L446.6173,111.4831 L447.0373,113.9591 L447.9653,113.9291 L447.5223,109.6581 L446.5363,107.1221 L444.4323,104.6171 Z" id="Fill-52" fill="#FDD8AF"></path>
                                <polygon id="Fill-54" fill="#FCC385" points="472.4506 111.032 474.0536 113.059 475.5226 110.357 472.7176 110.357"></polygon>
                                <polygon id="Fill-56" fill="#846137" points="473.604 109.105 470.919 109.339 470.736 116.134 471.919 115.963 471.957 111.047 480.53 110.793 480.402 114.812 481.723 114.633 481.771 108.65"></polygon>
                                <path d="M488.5667,113.9379 L463.5677,115.9199 L464.4317,136.8459 C465.5237,137.5459 466.6167,138.2459 467.7087,138.9459 C475.3457,137.4979 482.9827,136.0499 490.6197,134.6019 L488.5667,113.9379 Z" id="Fill-58" fill="#846137"></path>
                                <path d="M475.1377,102.0494 C476.0407,101.9174 476.9437,101.7854 477.8467,101.6534 C478.2607,102.3404 478.6747,103.0274 479.0887,103.7134 C479.0417,104.2684 478.9947,104.8234 478.9477,105.3784 C479.1827,105.9854 479.4177,106.5934 479.6527,107.2014 C479.7237,108.2844 479.7937,109.3674 479.8647,110.4504 C479.5347,111.0314 479.2057,111.6134 478.8767,112.1944 C477.8657,112.4844 476.8547,112.7754 475.8437,113.0664 C475.4767,113.4884 475.1097,113.9114 474.7427,114.3344 L473.6847,113.3834 C473.5847,112.1744 473.4857,110.9654 473.3857,109.7574 C472.9187,109.5564 472.4507,109.3564 471.9827,109.1564 C472.0937,108.2404 472.2047,107.3244 472.3157,106.4084 C472.8567,105.8004 473.3977,105.1934 473.9387,104.5854 C474.3387,103.7404 474.7377,102.8944 475.1377,102.0494" id="Fill-60" fill="#FDD8AF"></path>
                                <polygon id="Fill-62" fill="#986E3F" points="488.5667 113.9379 490.6197 123.3009 467.0737 127.0149 463.5677 115.9199"></polygon>
                                <path d="M409.6897,247.8657 L404.6587,247.8657 C404.6287,247.8657 404.6047,247.8407 404.6047,247.8107 L404.6047,205.2217 C404.6047,204.2497 404.3997,203.7607 404.2257,203.6367 C403.8557,203.3767 402.7257,203.4747 402.0017,203.7327 L400.2187,198.9117 C400.6317,198.7577 404.3357,197.4577 407.1527,199.4117 C408.3347,200.2317 409.7447,201.9057 409.7447,205.2217 L409.7447,247.8107 C409.7447,247.8407 409.7197,247.8657 409.6897,247.8657" id="Fill-94" fill="#CCDBE2"></path>
                                <path d="M410.8712,253.1768 C410.8772,254.4318 410.2082,255.5938 409.1182,256.2178 L408.6052,256.5118 L408.6272,255.9098 C408.6282,255.8918 408.6282,255.8728 408.6282,255.8548 C408.6262,255.5578 408.5182,255.2798 408.3252,255.0638 L408.0672,254.7758 L408.3902,254.5628 C408.8482,254.2598 409.1222,253.7538 409.1222,253.2078 C409.1142,252.2978 408.3792,251.5758 407.4842,251.5838 C406.5972,251.5918 405.8752,252.3198 405.8752,253.2068 C405.8802,253.7388 406.1242,254.2118 406.5432,254.5188 L406.8552,254.7468 L406.5842,255.0218 C406.3642,255.2468 406.2422,255.5438 406.2422,255.8578 C406.2422,255.8908 406.2432,255.9118 406.2442,255.9318 L406.2792,256.5328 L405.7642,256.2508 C404.6512,255.6408 403.9572,254.4758 403.9512,253.2078 C403.9512,251.9798 404.5922,250.8628 405.6382,250.2398 C405.6542,250.2298 405.6642,250.2128 405.6642,250.1948 L405.6432,247.9518 C405.6432,247.9218 405.6672,247.8968 405.6972,247.8968 L409.0272,247.8658 C409.0572,247.8658 409.0822,247.8898 409.0822,247.9208 L409.1032,250.1638 C409.1032,250.1818 409.1132,250.1988 409.1292,250.2078 C410.1982,250.8178 410.8602,251.9348 410.8712,253.1768 Z" id="Fill-96" fill="#9CB6C2"></path>
                                <path d="M350.1997,229.5309 L355.2307,229.5309 C355.2607,229.5309 355.2847,229.5059 355.2847,229.4759 L355.2847,204.1999 C355.2847,203.2279 355.4897,202.7389 355.6637,202.6149 C356.0337,202.3549 357.1637,202.4529 357.8877,202.7109 L359.6707,197.8899 C359.2577,197.7359 355.5537,196.4359 352.7367,198.3899 C351.5547,199.2099 350.1447,200.8839 350.1447,204.1999 L350.1447,229.4759 C350.1447,229.5059 350.1697,229.5309 350.1997,229.5309" id="Fill-98" fill="#CCDBE2"></path>
                                <mask id="mask-4" fill="white">
                                    <use xlink:href="#path-3"></use>
                                </mask>
                                <g id="Clip-101"></g>
                                <polygon id="Fill-100" fill="#CCDBE2" mask="url(#mask-4)" points="369.547 191.529 390.845 191.529 390.845 179.251 369.547 179.251"></polygon>
                                <path d="M349.0182,234.8421 C349.0122,236.0971 349.6812,237.2591 350.7712,237.8831 L351.2842,238.1771 L351.2622,237.5751 C351.2612,237.5571 351.2612,237.5381 351.2612,237.5201 C351.2632,237.2231 351.3712,236.9451 351.5642,236.7291 L351.8222,236.4411 L351.4992,236.2281 C351.0412,235.9251 350.7672,235.4191 350.7672,234.8731 C350.7752,233.9631 351.5102,233.2411 352.4052,233.2491 C353.2922,233.2571 354.0142,233.9851 354.0142,234.8721 C354.0092,235.4041 353.7652,235.8771 353.3462,236.1841 L353.0342,236.4121 L353.3052,236.6871 C353.5262,236.9121 353.6472,237.2091 353.6472,237.5231 C353.6472,237.5561 353.6462,237.5761 353.6452,237.5971 L353.6102,238.1981 L354.1252,237.9161 C355.2382,237.3061 355.9322,236.1411 355.9382,234.8731 C355.9382,233.6451 355.2972,232.5281 354.2512,231.9051 C354.2352,231.8951 354.2252,231.8781 354.2252,231.8601 L354.2462,229.6171 C354.2462,229.5871 354.2222,229.5621 354.1922,229.5621 L350.8622,229.5311 C350.8322,229.5311 350.8072,229.5551 350.8072,229.5861 L350.7862,231.8291 C350.7862,231.8471 350.7762,231.8641 350.7602,231.8731 C349.6912,232.4831 349.0292,233.6001 349.0182,234.8421 Z" id="Fill-102" fill="#9CB6C2" mask="url(#mask-4)"></path>
                                <polygon id="Fill-103" fill="#CCDBE2" mask="url(#mask-4)" points="364.618 302.188 377.146 302.188 377.146 225.355 364.618 225.355"></polygon>
                                <polygon id="Fill-104" fill="#9CB6C2" mask="url(#mask-4)" points="357.1 272.561 370.631 272.561 370.631 259.427 357.1 259.427"></polygon>
                                <path d="M377.1462,311.4589 L359.7062,311.4589 C357.1602,311.4589 355.0962,309.3949 355.0962,306.8489 L355.0962,305.0439 C355.0962,302.4979 357.1602,300.4339 359.7062,300.4339 L377.1462,300.4339 L377.1462,311.4589 Z" id="Fill-105" fill="#9CB6C2" mask="url(#mask-4)"></path>
                                <polygon id="Fill-106" fill="#9CB6C2" mask="url(#mask-4)" points="346.66 170.231 358.771 170.231 358.771 167.224 346.66 167.224"></polygon>
                                <path d="M342.6495,162.7139 C345.9705,162.7139 348.6635,165.4059 348.6635,168.7279 C348.6635,172.0489 345.9705,174.7409 342.6495,174.7409 C339.3285,174.7409 336.6355,172.0489 336.6355,168.7279 C336.6355,165.4059 339.3285,162.7139 342.6495,162.7139" id="Fill-107" fill="#CCDBE2" mask="url(#mask-4)"></path>
                                <polygon id="Fill-108" fill="#9CB6C2" mask="url(#mask-4)" points="401.787 170.231 413.898 170.231 413.898 167.224 401.787 167.224"></polygon>
                                <path d="M417.6558,162.7139 C420.9768,162.7139 423.6698,165.4059 423.6698,168.7279 C423.6698,172.0489 420.9768,174.7409 417.6558,174.7409 C414.3348,174.7409 411.6418,172.0489 411.6418,168.7279 C411.6418,165.4059 414.3348,162.7139 417.6558,162.7139" id="Fill-109" fill="#CCDBE2" mask="url(#mask-4)"></path>
                                <path d="M361.916,175.7432 L363.311,175.7432 C365.27,175.7432 366.873,174.1402 366.873,172.1812 L366.873,165.0232 C366.873,163.0642 365.27,161.4612 363.311,161.4612 L361.916,161.4612 C359.957,161.4612 358.354,163.0642 358.354,165.0232 L358.354,172.1812 C358.354,174.1402 359.957,175.7432 361.916,175.7432" id="Fill-110" fill="#CCDBE2" mask="url(#mask-4)"></path>
                                <path d="M396.8298,175.7432 L398.2238,175.7432 C400.1838,175.7432 401.7868,174.1402 401.7868,172.1812 L401.7868,165.0232 C401.7868,163.0642 400.1838,161.4612 398.2238,161.4612 L396.8298,161.4612 C394.8708,161.4612 393.2678,163.0642 393.2678,165.0232 L393.2678,172.1812 C393.2678,174.1402 394.8708,175.7432 396.8298,175.7432" id="Fill-111" fill="#CCDBE2" mask="url(#mask-4)"></path>
                                <path d="M369.9011,152.4406 L389.8791,152.4406 C393.4951,152.4406 396.4271,155.3726 396.4271,158.9886 L396.4271,174.4566 C396.4271,178.0736 393.4951,181.0046 389.8791,181.0046 L369.9011,181.0046 C366.2841,181.0046 363.3531,178.0736 363.3531,174.4566 L363.3531,158.9886 C363.3531,155.3726 366.2841,152.4406 369.9011,152.4406" id="Fill-112" fill="#9CB6C2" mask="url(#mask-4)"></path>
                                <path d="M387.3237,157.7025 C388.8457,157.7025 390.0797,158.9365 390.0797,160.4585 C390.0797,161.9805 388.8457,163.2145 387.3237,163.2145 C385.8017,163.2145 384.5677,161.9805 384.5677,160.4585 C384.5677,158.9365 385.8017,157.7025 387.3237,157.7025" id="Fill-113" fill="#68828E" mask="url(#mask-4)"></path>
                                <path d="M379.5566,175.0795 C379.6616,175.0795 379.7386,175.0775 379.7836,175.0755 C383.7686,175.0695 385.8956,173.0955 386.9786,171.4395 C388.1376,169.6665 388.3536,167.8955 388.3616,167.8205 C388.4146,167.3625 388.0866,166.9485 387.6276,166.8955 C387.1706,166.8435 386.7566,167.1705 386.7026,167.6265 C386.6736,167.8625 385.9286,173.4045 379.7646,173.4045 L379.7026,173.4065 C379.4616,173.4235 373.7356,173.7375 373.0786,167.3885 C373.0306,166.9295 372.6216,166.5985 372.1616,166.6435 C371.7026,166.6915 371.3696,167.1015 371.4166,167.5605 C372.1526,174.6745 378.1986,175.0795 379.5566,175.0795" id="Fill-114" fill="#68828E" mask="url(#mask-4)"></path>
                                <polygon id="Fill-115" fill="#CCDBE2" mask="url(#mask-4)" points="383.495 302.188 396.023 302.188 396.023 225.355 383.495 225.355"></polygon>
                                <polygon id="Fill-116" fill="#9CB6C2" mask="url(#mask-4)" points="390.01 272.561 403.541 272.561 403.541 259.427 390.01 259.427"></polygon>
                                <path d="M383.4952,311.4589 L400.9352,311.4589 C403.4812,311.4589 405.5452,309.3949 405.5452,306.8489 L405.5452,305.0439 C405.5452,302.4979 403.4812,300.4339 400.9352,300.4339 L383.4952,300.4339 L383.4952,311.4589 Z" id="Fill-117" fill="#9CB6C2" mask="url(#mask-4)"></path>
                                <path d="M363.1448,189.5243 L397.3338,189.5243 C400.2548,189.5243 402.6218,192.1213 402.6218,195.3253 L402.6218,221.3083 C402.6218,224.5123 400.2548,227.1093 397.3338,227.1093 L363.1448,227.1093 C360.2248,227.1093 357.8568,224.5123 357.8568,221.3083 L357.8568,195.3253 C357.8568,192.1213 360.2248,189.5243 363.1448,189.5243" id="Fill-118" fill="#9CB6C2" mask="url(#mask-4)"></path>
                                <path d="M374.9268,224.8869 L385.5068,224.8869 C393.1598,224.8869 399.3648,218.6829 399.3648,211.0289 L399.3648,205.6039 C399.3648,197.9509 393.1598,191.7469 385.5068,191.7469 L374.9268,191.7469 C367.2728,191.7469 361.0688,197.9509 361.0688,205.6039 L361.0688,211.0289 C361.0688,218.6829 367.2728,224.8869 374.9268,224.8869" id="Fill-119" fill="#CCDBE2" mask="url(#mask-4)"></path>
                                <path d="M372.7553,217.1442 L388.3893,217.1442 C393.2053,217.1442 397.1093,213.2402 397.1093,208.4232 L397.1093,205.0102 C397.1093,200.1942 393.2053,196.2892 388.3893,196.2892 L372.7553,196.2892 C367.9393,196.2892 364.0343,200.1942 364.0343,205.0102 L364.0343,208.4232 C364.0343,213.2402 367.9393,217.1442 372.7553,217.1442" id="Fill-120" fill="#68828E" mask="url(#mask-4)"></path>
                                <path d="M372.4561,157.7025 C373.9781,157.7025 375.2121,158.9365 375.2121,160.4585 C375.2121,161.9805 373.9781,163.2145 372.4561,163.2145 C370.9341,163.2145 369.7001,161.9805 369.7001,160.4585 C369.7001,158.9365 370.9341,157.7025 372.4561,157.7025" id="Fill-121" fill="#68828E" mask="url(#mask-4)"></path>
                                <path d="M1.2346,289.9008 C120.1746,303.7328 239.1136,317.5638 358.0536,331.3958 C358.1076,248.5678 358.1626,165.7398 358.2166,82.9108 C238.9656,76.4678 119.7136,70.0248 0.4626,63.5808 C0.7196,139.0208 0.9776,214.4608 1.2346,289.9008" id="Fill-122" fill="#14A987" mask="url(#mask-4)"></path>
                                <path d="M278.8967,263.5549 L278.8967,263.5549 C270.7597,263.5549 264.1637,256.9589 264.1637,248.8219 L264.1637,197.6119 C264.1637,192.6349 268.1977,188.6009 273.1747,188.6009 L284.6187,188.6009 C289.5957,188.6009 293.6297,192.6349 293.6297,197.6119 L293.6297,248.8219 C293.6297,256.9589 287.0337,263.5549 278.8967,263.5549" id="Fill-124" fill="#4A3222" mask="url(#mask-4)"></path>
                                <path d="M291.5898,209.5219 C290.2748,221.6269 266.1738,222.4379 265.9818,209.5219 C265.8448,200.2579 271.7148,192.7469 278.7858,192.7469 C285.8568,192.7469 292.5898,200.3119 291.5898,209.5219" id="Fill-125" fill="#FBD3AB" mask="url(#mask-4)"></path>
                                <path d="M274.6703,205.2951 C274.6703,205.4381 273.8363,205.5541 272.8073,205.5541 C271.7783,205.5541 270.9443,205.4381 270.9443,205.2951 C270.9443,205.1521 271.7783,205.0361 272.8073,205.0361 C273.8363,205.0361 274.6703,205.1521 274.6703,205.2951" id="Fill-126" fill="#9B5A3C" mask="url(#mask-4)"></path>
                                <path d="M286.4481,205.036 C286.4481,205.179 285.6141,205.295 284.5851,205.295 C283.5561,205.295 282.7221,205.179 282.7221,205.036 C282.7221,204.893 283.5561,204.777 284.5851,204.777 C285.6141,204.777 286.4481,204.893 286.4481,205.036" id="Fill-127" fill="#9B5A3C" mask="url(#mask-4)"></path>
                                <path d="M268.3309,263.3927 C268.7449,260.1197 269.0439,256.9747 269.2799,254.0437 L269.3059,233.7277 C266.2339,234.1907 263.9189,236.1927 263.7279,238.6927 C263.7219,238.7737 263.7259,238.8647 263.7199,238.9457 C263.7129,239.4987 263.0869,258.9567 261.8739,266.8647 C261.4419,269.5607 259.8319,278.1627 259.3309,280.8287 L265.2129,281.6087 C266.2199,275.5497 267.5539,269.5357 268.3309,263.3927" id="Fill-128" fill="#FBD3AB" mask="url(#mask-4)"></path>
                                <path d="M262.042,289.9241 C262.042,289.9241 264.003,283.5741 264.072,283.4761 C264.054,284.0441 264.09,284.9271 264.416,285.5161 C264.416,285.5161 264.77,286.8841 265.579,285.8281 L265.916,281.3591 L265.523,279.4641 L262.093,275.8481 C262.063,275.8471 261.953,276.0391 261.938,276.0601 C261.792,276.2641 261.648,276.4711 261.507,276.6781 C261.049,277.3501 260.611,278.0361 260.2,278.7381 C259.255,280.3511 258.449,282.1171 258.149,283.9751 C258.008,284.8461 257.954,285.7921 258.107,286.6731 C258.183,287.1081 258.311,287.5791 258.61,287.9181 C258.998,288.3571 259.519,288.2491 259.983,288.5321 C260.131,288.6221 260.123,288.9111 260.183,289.0551 C260.301,289.3421 260.641,289.4661 260.819,289.7041 C260.981,289.9201 261.031,290.2631 261.347,290.3401 C261.595,290.3991 261.964,290.1761 262.042,289.9241" id="Fill-129" fill="#FBD3AB" mask="url(#mask-4)"></path>
                                <path d="M285.0994,359.1772 C285.0994,359.1772 283.8464,324.3752 283.4584,313.0542 C283.1824,304.9742 282.3524,283.6102 282.3524,283.6102 L293.7424,283.6102 L295.3964,359.1772 L285.0994,359.1772 Z" id="Fill-130" fill="#8061A9" mask="url(#mask-4)"></path>
                                <path d="M265.9475,359.192 C265.7355,357.907 266.4935,331.18 266.1855,319.814 C265.9255,310.216 266.5665,284.8 266.6955,283.61 L279.3815,283.61 C279.3505,283.896 276.2905,310.581 276.5315,319.509 C276.8215,330.2 276.8975,358.869 276.9485,359.177 L265.9475,359.192 Z" id="Fill-131" fill="#8061A9" mask="url(#mask-4)"></path>
                                <path d="M268.8476,260.3817 L268.8476,260.3817 L275.8886,260.3817 L293.1166,260.3817 C293.9586,263.6557 295.2366,270.6827 294.5686,283.6107 L274.2686,283.6107 L265.8946,283.6107 C266.5776,268.0957 268.3226,261.3117 268.8476,260.3817" id="Fill-132" fill="#957AB6" mask="url(#mask-4)"></path>
                                <path d="M267.3376,241.1016 C267.2866,241.8816 267.2486,242.5676 267.2486,242.8276 C267.2486,245.4126 268.8476,260.3816 268.8476,260.3816 L293.1166,260.3816 L294.3916,241.5626 L267.3376,241.1016 Z" id="Fill-133" fill="#957AB6" mask="url(#mask-4)"></path>
                                <path d="M292.7366,258.9798 L292.7436,258.9588 C292.7666,258.9588 292.7676,258.9688 292.8036,258.9798 L292.7366,258.9798 Z" id="Fill-134" fill="#E4A06E" mask="url(#mask-4)"></path>
                                <path d="M275.9097,365.3785 C275.9067,366.1595 275.8527,367.0465 275.7167,368.0845 L263.6607,368.0845 L268.2717,365.3785 L275.9097,365.3785 Z" id="Fill-135" fill="#148040" mask="url(#mask-4)"></path>
                                <path d="M256.0973,365.6967 C256.0973,365.6967 259.6833,365.7857 262.1603,364.4557 C263.3463,363.8187 267.6063,360.8287 267.6063,360.8287 L274.4873,360.8287 C274.4873,360.8287 275.9293,360.6497 275.9093,365.3787 L268.2713,365.3787 L263.6603,368.0837 L256.0973,368.0837 L256.0973,365.6967 Z" id="Fill-136" fill="#14A987" mask="url(#mask-4)"></path>
                                <path d="M274.487,360.8284 L267.607,360.8284 L262.16,364.4564 L274.487,360.8284 C274.487,360.8284 275.441,360.8284 274.487,360.8284" id="Fill-137" fill="#414242" mask="url(#mask-4)"></path>
                                <path d="M295.2889,365.3785 C295.2859,366.1595 295.2319,367.0465 295.0969,368.0845 L283.0399,368.0845 L287.6509,365.3785 L295.2889,365.3785 Z" id="Fill-138" fill="#148040" mask="url(#mask-4)"></path>
                                <path d="M276.9151,365.6967 C276.9151,365.6967 279.8851,365.3547 282.3611,364.0257 C283.5481,363.3877 285.5481,360.8287 285.5481,360.8287 L293.8661,360.8287 C293.8661,360.8287 295.3081,360.6497 295.2891,365.3787 L287.6511,365.3787 L283.0401,368.0837 L276.9151,368.0837 L276.9151,365.6967 Z" id="Fill-139" fill="#14A987" mask="url(#mask-4)"></path>
                                <path d="M293.8662,360.8284 L285.5482,360.8284 L282.3612,364.0254 L293.8662,360.8284 C293.8662,360.8284 294.8202,360.8284 293.8662,360.8284" id="Fill-140" fill="#504344" mask="url(#mask-4)"></path>
                                <polygon id="Fill-141" fill="#E4A06E" mask="url(#mask-4)" points="268.613 360.828 274.487 360.828 274.487 359.177 268.613 359.177"></polygon>
                                <polygon id="Fill-142" fill="#E4A06E" mask="url(#mask-4)" points="287.631 360.828 293.505 360.828 293.505 359.177 287.631 359.177"></polygon>
                                <path d="M269.8308,240.3361 C271.2118,234.2741 272.7808,225.8971 272.7808,225.8971 C272.7808,225.8971 268.0418,226.4731 267.6508,226.6151 C266.4608,227.0471 264.5378,228.4241 264.1288,230.6761 C264.1288,230.6761 263.0988,237.2451 262.6908,240.3361 L269.8308,240.3361 Z" id="Fill-143" fill="#8061A9" mask="url(#mask-4)"></path>
                                <path d="M294.4291,239.2269 L293.7101,226.9679 L283.3021,225.8289 L274.9681,225.7339 L268.4121,226.4319 C268.2921,226.4539 268.1841,226.4869 268.0651,226.5079 L267.4891,237.9579 C267.4501,237.9439 267.3061,241.1669 267.2111,242.6209 L294.2651,243.0829 L294.4291,239.2269 Z" id="Fill-144" fill="#A086BD" mask="url(#mask-4)"></path>
                                <path d="M283.666,213.0085 L275.981,213.0085 L276.065,226.2465 C279.147,231.1475 283.666,226.2465 283.666,226.2465 L283.666,213.0085 Z" id="Fill-145" fill="#FBD3AB" mask="url(#mask-4)"></path>
                                <polygon id="Fill-146" fill="#FBD3AB" mask="url(#mask-4)" points="277.2655 236.0603 276.0655 226.2463 283.6655 226.2463"></polygon>
                                <polygon id="Fill-147" fill="#724F9F" mask="url(#mask-4)" points="276.0945 226.0434 274.0585 226.2774 276.0135 238.7514 277.4665 236.0144"></polygon>
                                <polygon id="Fill-148" fill="#8061A9" mask="url(#mask-4)" points="286.8662 226.1236 284.1502 225.8266 277.4812 235.7386 277.4672 235.6346 276.0142 238.3716 276.4312 241.0356"></polygon>
                                <polygon id="Fill-149" fill="#F1F1F1" mask="url(#mask-4)" points="284.736 246.8002 285.431 246.8002 285.43 242.1992 284.736 242.1832"></polygon>
                                <polygon id="Fill-150" fill="#F1F1F1" mask="url(#mask-4)" points="290.7776 242.2818 290.7786 246.7998 291.4386 246.7998 291.4386 242.2978"></polygon>
                                <path d="M284.5334,247.5828 L284.5334,245.7698 C284.5334,245.7008 284.5894,245.6448 284.6594,245.6448 L285.5084,245.6448 C285.5774,245.6448 285.6334,245.7008 285.6334,245.7698 L285.6334,247.5828 C285.6334,247.6518 285.5774,247.7088 285.5084,247.7088 L284.6594,247.7088 C284.5894,247.7088 284.5334,247.6518 284.5334,247.5828" id="Fill-151" fill="#3A3637" mask="url(#mask-4)"></path>
                                <path d="M290.5584,247.4523 L290.5584,245.6393 C290.5584,245.5703 290.6144,245.5143 290.6844,245.5143 L291.5334,245.5143 C291.6024,245.5143 291.6584,245.5703 291.6584,245.6393 L291.6584,247.4523 C291.6584,247.5213 291.6024,247.5783 291.5334,247.5783 L290.6844,247.5783 C290.6144,247.5783 290.5584,247.5213 290.5584,247.4523" id="Fill-152" fill="#3A3637" mask="url(#mask-4)"></path>
                                <path d="M272.1295,238.9116 L270.9805,238.8836 L271.1825,230.4046 C271.1745,230.3796 270.9605,228.0736 272.4015,226.4936 C273.2635,225.5496 274.4945,225.0816 276.0985,225.0886 L276.0905,226.2386 C274.8755,226.2326 273.8875,226.5736 273.2575,227.2636 C272.1625,228.4586 272.3275,230.3436 272.3305,230.3626 L272.1295,238.9116 Z" id="Fill-153" fill="#3A3637" mask="url(#mask-4)"></path>
                                <path d="M287.5175,236.9307 L287.3615,230.4327 C287.3655,230.3427 287.5315,228.4587 286.4375,227.2627 C285.8065,226.5747 284.8215,226.2447 283.6035,226.2387 L283.5945,225.0887 C285.2215,225.0717 286.4335,225.5497 287.2925,226.4937 C288.7325,228.0747 288.5185,230.3787 288.5095,230.4757 L288.6665,236.9027 L287.5175,236.9307 Z" id="Fill-154" fill="#3A3637" mask="url(#mask-4)"></path>
                                <path d="M271.4098,237.1784 C272.3598,237.0984 273.1938,237.8034 273.2738,238.7534 C273.3538,239.7034 272.6488,240.5374 271.6988,240.6174 C270.7488,240.6974 269.9148,239.9924 269.8348,239.0424 C269.7548,238.0924 270.4598,237.2584 271.4098,237.1784" id="Fill-155" fill="#F1F1F1" mask="url(#mask-4)"></path>
                                <path d="M291.5867,240.2208 C291.6197,237.0428 289.6047,235.9828 288.5047,235.8648 C287.1947,235.8178 286.1797,236.2328 285.4947,237.0838 C284.4547,238.3768 284.6007,240.1938 284.6047,240.2148 L284.6047,242.1828 L285.5617,242.1988 L285.5607,240.1608 C285.5587,240.1468 285.4557,238.7528 286.2017,237.8328 C286.6907,237.2288 287.4417,236.9288 288.4437,236.9698 C288.6707,236.9978 290.6587,237.3208 290.6287,240.2148 L290.6287,242.2818 L291.5867,242.2978 L291.5867,240.2208 Z" id="Fill-156" fill="#3A3637" mask="url(#mask-4)"></path>
                                <polygon id="Fill-157" fill="#00583E" mask="url(#mask-4)" points="280.8723 248.5792 288.3803 270.8032 268.2203 270.5012 260.7133 248.2772"></polygon>
                                <path d="M292.7366,258.9798 L292.7436,258.9588 C292.7666,258.9588 292.7676,258.9688 292.8036,258.9798 L292.7366,258.9798 Z M276.9406,253.9558 L278.0836,260.3078 C278.0836,260.3078 293.2026,261.3738 295.6826,260.6008 C300.4306,259.1188 302.6356,254.4918 301.5876,248.0428 L299.9366,234.4378 C299.3026,230.5358 296.3276,226.9298 292.7576,226.9068 C292.7576,226.9068 292.9286,231.2418 293.1466,235.2318 C293.3186,238.3738 294.6636,239.3998 294.6636,239.3998 L295.8306,248.0058 C296.3446,251.1658 295.1036,253.7878 292.9966,254.4078 C292.6786,254.4918 276.9406,253.9558 276.9406,253.9558 L276.9406,253.9558 Z" id="Fill-158" fill="#FBD3AB" mask="url(#mask-4)"></path>
                                <path d="M294.5127,239.3215 L294.5877,241.1015 L301.0787,241.1015 L299.8517,234.2395 C299.1987,230.3805 296.0787,226.8855 292.5447,226.8855 C292.5447,226.8855 292.7427,231.2565 292.9847,235.2045 C293.1747,238.3135 294.5127,239.3215 294.5127,239.3215" id="Fill-159" fill="#8061A9" mask="url(#mask-4)"></path>
                                <path d="M268.6129,250.3279 L274.5769,250.4169 C275.6779,250.4339 276.3469,249.8249 276.0949,249.0529 L266.1089,248.9289 C266.4239,249.6899 267.5239,250.3109 268.6129,250.3279" id="Fill-160" fill="#515050" mask="url(#mask-4)"></path>
                                <path d="M266.0805,248.8719 C266.0875,248.8909 266.1015,248.9089 266.1085,248.9289 L276.0945,249.0529 C276.0905,249.0419 276.0915,249.0329 276.0875,249.0219 C275.8055,248.2349 274.6715,247.5829 273.5555,247.5659 L267.5915,247.4769 C266.4755,247.4599 265.7985,248.0849 266.0805,248.8719" id="Fill-161" fill="#828383" mask="url(#mask-4)"></path>
                                <path d="M265.3076,256.0205 C265.3056,256.4155 265.6566,256.5745 265.8416,256.8275 C266.0466,257.1075 266.0896,257.5445 266.3626,257.7685 C266.4986,257.8805 266.8056,257.9555 266.8616,258.1555 C267.0396,258.7855 266.7896,259.3685 267.1516,259.9525 C267.4326,260.4055 267.8976,260.6935 268.3366,260.9095 C269.2276,261.3475 270.2426,261.5585 271.2006,261.6465 C273.2416,261.8345 275.3186,261.3995 277.2706,260.7555 C278.1206,260.4745 278.9606,260.1585 279.7906,259.8145 C280.0466,259.7085 280.3016,259.5995 280.5556,259.4865 C280.5826,259.4745 280.8136,259.4005 280.8196,259.3655 L277.8946,254.2655 L275.9946,253.2505 L271.1816,252.3455 C269.8556,252.9915 271.2086,253.8075 271.2086,253.8075 C271.7466,254.3645 272.6696,254.6625 273.2746,254.8075 C273.1536,254.8605 265.9286,255.3215 265.9286,255.3215 C265.6416,255.3405 265.3086,255.7105 265.3076,256.0205" id="Fill-162" fill="#FBD3AB" mask="url(#mask-4)"></path>
                                <polygon id="Fill-175" fill="#008E6F" mask="url(#mask-4)" points="318.4963 114.607 164.4463 107.914 164.5013 104.227 318.5513 110.92"></polygon>
                                <polygon id="Fill-176" fill="#008E6F" mask="url(#mask-4)" points="318.35 124.3991 164.3 117.7061 164.355 114.0191 318.405 120.7121"></polygon>
                                <polygon id="Fill-177" fill="#008E6F" mask="url(#mask-4)" points="318.2037 134.1913 140.3097 127.1423 140.3647 123.4553 318.2587 130.5043"></polygon>
                                <polygon id="Fill-178" fill="#008E6F" mask="url(#mask-4)" points="318.0574 143.9835 140.1634 136.9345 140.2184 133.2465 318.1124 140.2965"></polygon>
                                <polygon id="Fill-179" fill="#008E6F" mask="url(#mask-4)" points="291.1987 153.3765 140.0167 146.7265 140.0717 143.0385 291.2537 149.6885"></polygon>
                                <path d="M385.8949,66.0234 L393.3129,88.4604 C394.0129,90.5034 393.4129,93.2704 391.0679,95.6604 C387.8059,98.9764 383.3539,99.3574 381.0709,97.5254 C378.7909,95.6924 378.6789,91.6494 381.9369,88.3314 C384.1289,86.1004 386.8609,85.2004 389.1109,85.4044 L383.2079,67.5514 L379.4029,56.0424 L406.2729,40.7744 L407.2239,43.6524 L410.0779,52.2834 L418.2589,77.0294 C418.9539,79.0734 418.3519,81.8364 416.0109,84.2214 C412.7499,87.5384 408.2979,87.9194 406.0149,86.0874 C403.7349,84.2534 403.6239,80.2104 406.8809,76.8924 C409.0729,74.6624 411.8059,73.7624 414.0539,73.9664 L407.3909,53.8114 L385.8949,66.0234 Z" id="Fill-181" fill="#AFE0F1" mask="url(#mask-4)"></path>
                            </g>
                        </g>
                        <text id="ARTIFICIAL-INTELLIGE" font-family="SourceSansPro-Semibold, Source Sans Pro" font-size="18" font-weight="500" line-spacing="29">
                            <tspan x="229.023" y="497" fill="#087DA1">ARTIFICIAL INTELLIGENCE</tspan>
                        </text>
                        <g id="Page-1" stroke-width="1" fill-rule="evenodd" transform="translate(448.000000, 259.000000)">
                            <polygon id="Fill-1" fill="#CCDBE2" points="34.469 41.892 56.75 41.892 56.75 29.048 34.469 29.048"></polygon>
                            <g id="Group-32" transform="translate(0.000000, 0.910000)">
                                <path d="M73.2923,76.3697 C71.9983,76.3697 70.7943,75.6707 70.1503,74.5447 L69.8373,73.9987 L70.4663,74.0217 C70.4853,74.0227 70.5053,74.0237 70.5243,74.0237 C70.8343,74.0207 71.1253,73.9077 71.3513,73.7057 L71.6533,73.4367 L71.8763,73.7737 C72.1923,74.2537 72.7223,74.5397 73.2933,74.5397 C74.2463,74.5307 75.0003,73.7627 74.9923,72.8257 C74.9833,71.8977 74.2223,71.1437 73.2943,71.1437 C72.7373,71.1487 72.2433,71.4027 71.9223,71.8417 L71.6833,72.1687 L71.3953,71.8847 C71.1603,71.6537 70.8493,71.5267 70.5213,71.5267 C70.4863,71.5277 70.4653,71.5277 70.4443,71.5297 L69.8143,71.5647 L70.1173,71.0117 C70.7473,69.8627 71.9523,69.1417 73.2603,69.1297 L73.2943,69.1297 C74.5883,69.1297 75.7653,69.8107 76.4143,70.9217 L78.8493,70.8997 L78.8823,74.4977 L76.4473,74.5197 C75.8123,75.6547 74.6353,76.3577 73.3263,76.3697 L73.2923,76.3697 Z" id="Fill-2" fill="#9CB6C2"></path>
                                <path d="M77.0356,47.4665 L65.3616,47.4665 L65.3616,53.1275 L77.0356,53.1275 C81.5926,53.1275 85.2996,56.8345 85.2996,61.3915 C85.2996,65.7455 81.9136,69.3215 77.6366,69.6315 L77.6366,75.3005 C85.0476,74.9855 90.9606,68.8805 90.9606,61.3915 C90.9606,53.7005 84.7256,47.4665 77.0356,47.4665" id="Fill-4" fill="#CCDBE2"></path>
                                <path d="M17.668,76.3697 C18.962,76.3697 20.166,75.6707 20.81,74.5447 L21.123,73.9987 L20.494,74.0217 C20.475,74.0227 20.455,74.0237 20.436,74.0237 C20.126,74.0207 19.835,73.9077 19.609,73.7057 L19.307,73.4367 L19.084,73.7737 C18.768,74.2537 18.238,74.5397 17.667,74.5397 C16.714,74.5307 15.96,73.7627 15.968,72.8257 C15.977,71.8977 16.738,71.1437 17.666,71.1437 C18.223,71.1487 18.717,71.4027 19.038,71.8417 L19.277,72.1687 L19.565,71.8847 C19.8,71.6537 20.111,71.5267 20.439,71.5267 C20.474,71.5277 20.495,71.5277 20.516,71.5297 L21.146,71.5647 L20.843,71.0117 C20.213,69.8627 19.008,69.1417 17.7,69.1297 L17.666,69.1297 C16.372,69.1297 15.195,69.8107 14.546,70.9217 L12.111,70.8997 L12.078,74.4977 L14.513,74.5197 C15.148,75.6547 16.325,76.3577 17.634,76.3697 L17.668,76.3697 Z" id="Fill-6" fill="#9CB6C2"></path>
                                <g id="Group-10" transform="translate(0.000000, 47.000000)">
                                    <mask id="mask-6" fill="white">
                                        <use xlink:href="#path-5"></use>
                                    </mask>
                                    <g id="Clip-9"></g>
                                    <path d="M13.9248,0.4665 L25.5988,0.4665 L25.5988,6.1275 L13.9248,6.1275 C9.3678,6.1275 5.6608,9.8345 5.6608,14.3915 C5.6608,18.7455 9.0468,22.3215 13.3238,22.6315 L13.3238,28.3005 C5.9128,27.9855 -0.0002,21.8805 -0.0002,14.3915 C-0.0002,6.7005 6.2348,0.4665 13.9248,0.4665" id="Fill-8" fill="#CCDBE2" mask="url(#mask-6)"></path>
                                </g>
                                <mask id="mask-8" fill="white">
                                    <use xlink:href="#path-7"></use>
                                </mask>
                                <g id="Clip-12"></g>
                                <polygon id="Fill-11" fill="#CCDBE2" mask="url(#mask-8)" points="29.312 107.301 42.419 107.301 42.419 76.37 29.312 76.37"></polygon>
                                <polygon id="Fill-13" fill="#9CB6C2" mask="url(#mask-8)" points="21.448 96.816 35.603 96.816 35.603 85.807 21.448 85.807"></polygon>
                                <path d="M42.4185,117 L25.1175,117 C21.9325,117 19.3515,114.418 19.3515,111.233 L19.3515,111.233 C19.3515,108.048 21.9325,105.466 25.1175,105.466 L42.4185,105.466 L42.4185,117 Z" id="Fill-14" fill="#9CB6C2" mask="url(#mask-8)"></path>
                                <polygon id="Fill-15" fill="#9CB6C2" mask="url(#mask-8)" points="10.525 18.701 23.195 18.701 23.195 15.555 10.525 15.555"></polygon>
                                <path d="M6.3296,10.8372 C9.8036,10.8372 12.6206,13.6542 12.6206,17.1282 C12.6206,20.6032 9.8036,23.4192 6.3296,23.4192 C2.8546,23.4192 0.0386,20.6032 0.0386,17.1282 C0.0386,13.6542 2.8546,10.8372 6.3296,10.8372" id="Fill-16" fill="#CCDBE2" mask="url(#mask-8)"></path>
                                <polygon id="Fill-17" fill="#9CB6C2" mask="url(#mask-8)" points="68.196 18.701 80.866 18.701 80.866 15.555 68.196 15.555"></polygon>
                                <path d="M84.798,10.8372 C88.273,10.8372 91.089,13.6542 91.089,17.1282 C91.089,20.6032 88.273,23.4192 84.798,23.4192 C81.323,23.4192 78.507,20.6032 78.507,17.1282 C78.507,13.6542 81.323,10.8372 84.798,10.8372" id="Fill-18" fill="#CCDBE2" mask="url(#mask-8)"></path>
                                <path d="M27.2148,24.4679 L27.2148,24.4679 C29.6658,24.4679 31.6708,22.4629 31.6708,20.0119 L31.6708,13.9829 C31.6708,11.5319 29.6658,9.5269 27.2148,9.5269 L27.2148,9.5269 C24.7638,9.5269 22.7588,11.5319 22.7588,13.9829 L22.7588,20.0119 C22.7588,22.4629 24.7638,24.4679 27.2148,24.4679" id="Fill-19" fill="#CCDBE2" mask="url(#mask-8)"></path>
                                <path d="M63.7401,24.4679 L63.7401,24.4679 C66.1911,24.4679 68.1961,22.4629 68.1961,20.0119 L68.1961,13.9829 C68.1961,11.5319 66.1911,9.5269 63.7401,9.5269 L63.7401,9.5269 C61.2891,9.5269 59.2841,11.5319 59.2841,13.9829 L59.2841,20.0119 C59.2841,22.4629 61.2891,24.4679 63.7401,24.4679" id="Fill-20" fill="#CCDBE2" mask="url(#mask-8)"></path>
                                <path d="M34.839,0.0898 L55.739,0.0898 C59.522,0.0898 62.59,3.1568 62.59,6.9408 L62.59,23.1218 C62.59,26.9058 59.522,29.9728 55.739,29.9728 L34.839,29.9728 C31.055,29.9728 27.988,26.9058 27.988,23.1218 L27.988,6.9408 C27.988,3.1568 31.055,0.0898 34.839,0.0898" id="Fill-21" fill="#9CB6C2" mask="url(#mask-8)"></path>
                                <path d="M53.0658,5.5945 C54.6578,5.5945 55.9488,6.8855 55.9488,8.4775 C55.9488,10.0705 54.6578,11.3615 53.0658,11.3615 C51.4738,11.3615 50.1828,10.0705 50.1828,8.4775 C50.1828,6.8855 51.4738,5.5945 53.0658,5.5945" id="Fill-22" fill="#68828E" mask="url(#mask-8)"></path>
                                <path d="M44.9403,23.7736 C45.0503,23.7736 45.1313,23.7706 45.1773,23.7686 C49.3473,23.7626 51.5723,21.6986 52.7043,19.9656 C53.9173,18.1106 54.1433,16.2576 54.1523,16.1796 C54.2073,15.7006 53.8633,15.2666 53.3843,15.2116 C52.9053,15.1576 52.4733,15.4996 52.4163,15.9766 C52.3863,16.2236 51.6063,22.0216 45.1583,22.0216 L45.0933,22.0236 C44.8413,22.0406 38.8503,22.3696 38.1633,15.7276 C38.1133,15.2476 37.6853,14.9016 37.2043,14.9486 C36.7243,14.9986 36.3753,15.4276 36.4243,15.9076 C37.1943,23.3496 43.5193,23.7736 44.9403,23.7736" id="Fill-23" fill="#68828E" mask="url(#mask-8)"></path>
                                <polygon id="Fill-24" fill="#CCDBE2" mask="url(#mask-8)" points="49.061 107.301 62.168 107.301 62.168 76.37 49.061 76.37"></polygon>
                                <polygon id="Fill-25" fill="#9CB6C2" mask="url(#mask-8)" points="55.876 96.816 70.031 96.816 70.031 85.807 55.876 85.807"></polygon>
                                <path d="M49.0607,117 L66.3617,117 C69.5467,117 72.1277,114.418 72.1277,111.233 L72.1277,111.233 C72.1277,108.048 69.5467,105.466 66.3617,105.466 L49.0607,105.466 L49.0607,117 Z" id="Fill-26" fill="#9CB6C2" mask="url(#mask-8)"></path>
                                <path d="M27.7709,38.8851 L63.5379,38.8851 C66.5939,38.8851 69.0699,41.6021 69.0699,44.9541 L69.0699,72.1361 C69.0699,75.4871 66.5939,78.2051 63.5379,78.2051 L27.7709,78.2051 C24.7159,78.2051 22.2389,75.4871 22.2389,72.1361 L22.2389,44.9541 C22.2389,41.6021 24.7159,38.8851 27.7709,38.8851" id="Fill-27" fill="#9CB6C2" mask="url(#mask-8)"></path>
                                <path d="M42.9342,75.8799 L48.3272,75.8799 C57.9012,75.8799 65.6622,68.1189 65.6622,58.5449 L65.6622,58.5449 C65.6622,48.9709 57.9012,41.2099 48.3272,41.2099 L42.9342,41.2099 C33.3602,41.2099 25.5992,48.9709 25.5992,58.5449 L25.5992,58.5449 C25.5992,68.1189 33.3602,75.8799 42.9342,75.8799" id="Fill-28" fill="#CCDBE2" mask="url(#mask-8)"></path>
                                <polygon id="Fill-29" fill="#68828E" mask="url(#mask-8)" points="17.707 73.949 73.294 73.949 73.294 71.318 17.707 71.318"></polygon>
                                <path d="M39.6106,67.7799 L52.3946,67.7799 C58.4196,67.7799 63.3036,62.8959 63.3036,56.8709 L63.3036,56.8709 C63.3036,50.8469 58.4196,45.9629 52.3946,45.9629 L39.6106,45.9629 C33.5856,45.9629 28.7016,50.8469 28.7016,56.8709 L28.7016,56.8709 C28.7016,62.8959 33.5856,67.7799 39.6106,67.7799" id="Fill-30" fill="#68828E" mask="url(#mask-8)"></path>
                                <path d="M37.512,5.5945 C39.104,5.5945 40.395,6.8855 40.395,8.4775 C40.395,10.0705 39.104,11.3615 37.512,11.3615 C35.92,11.3615 34.629,10.0705 34.629,8.4775 C34.629,6.8855 35.92,5.5945 37.512,5.5945" id="Fill-31" fill="#68828E" mask="url(#mask-8)"></path>
                            </g>
                        </g>
                        <g id="Page-1" stroke-width="1" fill-rule="evenodd" transform="translate(328.000000, 318.000000)">
                            <g id="Group" transform="translate(157.000000, 0.000000)">
                                <polygon id="Fill-1" fill="#14A987" points="0 15.0374181 16.3740559 15.0374181 16.3740559 0.000846892209 0 0.000846892209"></polygon>
                                <polygon id="Fill-2" fill="#F8B917" points="0 94.5874806 16.3740559 94.5874806 16.3740559 79.5500625 0 79.5500625"></polygon>
                                <polygon id="Fill-3" fill="#2BADD0" points="0 148.193359 16.3740559 148.193359 16.3740559 133.155941 0 133.155941"></polygon>
                                <polygon id="Fill-4" fill="#14A987" points="0 227.742574 16.3740559 227.742574 16.3740559 212.706003 0 212.706003"></polygon>
                            </g>
                            <path d="M5.2153,159.7526 C5.2153,159.7526 -13.6977,12.1376 118.4253,5.2786" id="Stroke-3" stroke="#F16522" stroke-width="1.414"></path>
                            <path d="M122.9968,5.2784 C122.9968,7.8034 120.9498,9.8494 118.4258,9.8494 C115.9008,9.8494 113.8538,7.8034 113.8538,5.2784 C113.8538,2.7534 115.9008,0.7074 118.4258,0.7074 C120.9498,0.7074 122.9968,2.7534 122.9968,5.2784" id="Fill-5" fill="#FFFFFF"></path>
                            <path d="M122.9968,5.2784 C122.9968,7.8034 120.9498,9.8494 118.4258,9.8494 C115.9008,9.8494 113.8538,7.8034 113.8538,5.2784 C113.8538,2.7534 115.9008,0.7074 118.4258,0.7074 C120.9498,0.7074 122.9968,2.7534 122.9968,5.2784 Z" id="Stroke-7" stroke="#F16522" stroke-width="1.414"></path>
                            <path d="M9.8497,159.7526 C9.8497,162.2776 7.8027,164.3236 5.2787,164.3236 C2.7537,164.3236 0.7067,162.2776 0.7067,159.7526 C0.7067,157.2276 2.7537,155.1816 5.2787,155.1816 C7.8027,155.1816 9.8497,157.2276 9.8497,159.7526" id="Fill-9" fill="#FFFFFF"></path>
                            <path d="M9.8497,159.7526 C9.8497,162.2776 7.8027,164.3236 5.2787,164.3236 C2.7537,164.3236 0.7067,162.2776 0.7067,159.7526 C0.7067,157.2276 2.7537,155.1816 5.2787,155.1816 C7.8027,155.1816 9.8497,157.2276 9.8497,159.7526 Z" id="Stroke-11" stroke="#F16522" stroke-width="1.414"></path>
                        </g>
                    </g>
                </g>
            </g>
        </g>
    </g>
</svg>