<svg xmlns="http://www.w3.org/2000/svg" width="64" height="173" viewBox="0 0 64 173">
    <g fill="none" fill-rule="evenodd">
        <path fill="#057B9F" d="M46.652 64.835c-.972.542-3.764 1.937-6.165.833-2.33-1.072-3.082-3.944-3.599-6.773-1.854-10.151-1.842-26.151 2.124-26.781 1.358-.215 2.711 1.483 3.436 2.392 2.726 3.42 2.354 7.85 2.244 9.658-.28 4.608-.035 11.187 1.96 20.67z"/>
        <path fill="#057B9F" d="M59.02 43.849c-.697 1.919-6.356 17.269-11.959 20.807-.738.465-2.266 1.43-4.045 1.073-2.415-.483-3.66-3.07-3.954-3.724L53.71 40.178c.237-.09 1.73-.627 3.236.171 1.26.667 2.052 2.014 2.074 3.498"/>
        <path fill="#E8B79E" d="M63.678 34.597c.537 1.155-.127 2.49-1.169 4.588a18.637 18.637 0 0 1-2.529 3.813c-.289.172-1.815 1.04-3.647.522-1.66-.472-2.932-1.899-3.305-3.687a5.311 5.311 0 0 1-.559-1.905c-.08-.852.08-1.472.407-2.592 1.188-4.081 1.534-4.331 1.83-4.372.57-.08 1.06.602 1.118.686.466.665.423 1.648-.127 2.504a32.416 32.416 0 0 0 2.25-2.162c1.558-1.646 2.096-2.556 2.91-2.466.59.067 1.155.643 1.232 1.195.084.596-.45.8-.483 1.385-.055 1.017 1.503 1.267 2.072 2.491"/>
        <path fill="#372221" d="M55.228 156.35c-1.318 2.35-6.613 2.183-10.243.585a12.411 12.411 0 0 1-3.585-2.414l-5.341-2.05a12.025 12.025 0 0 1 0-5.486c2.097-.05 4.195-.098 6.292-.146a32.828 32.828 0 0 0 4.536 3.658 32.937 32.937 0 0 0 8.634 4.097c.093.84-.09 1.394-.293 1.756M17.84 170.91c-.381.82-1.178 1.213-1.828 1.535-2.366 1.172-4.798.143-5.122 0-2.372-1.047-3.324-3.284-3.95-4.755a12.061 12.061 0 0 1-.952-4.683l-.512-6.072 8.048-.586c.15 3.4.975 5.896 1.756 7.61 1.423 3.12 3.396 5.16 2.56 6.95"/>
        <path fill="#004E6F" d="M13.963 157.813c-.886 1.789-2.769 2.84-4.683 2.634-1.686-.182-3.15-1.313-3.804-2.927a126.124 126.124 0 0 1 2.634-26.632 124.16 124.16 0 0 1 1.756-7.316l6.731-35.412h17.559a254.229 254.229 0 0 0-20.193 69.653"/>
        <path fill="#004E6F" d="M43.522 147.57a6.77 6.77 0 0 1-2.634 1.61c-2.529.82-4.724-.173-5.268-.44a789.37 789.37 0 0 1-.585-10.096c-.28-5.42-.453-9.878-.585-13.316-.064-1.633-.114-2.995-.148-3.951-1.462-11.023-2.925-22.047-4.39-33.07l12.147-3.22c.486 20.828.974 41.655 1.463 62.483"/>
        <path fill="#004E6F" d="M42.205 95.623a45.936 45.936 0 0 1-11.121 1.902 46.161 46.161 0 0 1-15.365-1.902 303.563 303.563 0 0 1 1.074-10.194 79.082 79.082 0 0 0 25.217-.293l.195 10.487"/>
        <path fill="#037FA2" d="M43.106 85.234c-3.48.699-8.834 1.277-13.778 1.317-4.85.039-10.138-.45-13.584-1.073l.195-5.073c3.511.485 8.7.816 13.34.732 4.738-.087 9.991-.588 13.534-1.22l.293 5.317"/>
        <path fill="#057B9F" d="M42.35 80.161a64.925 64.925 0 0 1-26.533.39l-2.05-43.411c1.572-1.401 9.659-8.334 19.999-6.731 2.84.44 5.199 1.424 7.024 2.439l1.56 47.313"/>
        <path fill="#057B9F" d="M6.597 70.98c-1.161-.434-2.884-1.297-4.019-3.034-1.811-2.772-1.114-6.222-.087-9.56C5.662 48.074 13.294 34.49 16.994 35.772c1.298.45 1.691 2.587 1.901 3.73.802 4.36-1.695 8.173-2.576 9.575-2.665 4.24-5.886 10.83-9.722 21.904"/>
        <path fill="#E8B79E" d="M33.845 30.744c.523 3.081-.209 5.781-1.59 6.347-1.606.657-4.822-1.26-6.44-5.56l.147-6.732 9.511 1.756-1.646 3.841.018.348"/>
        <path fill="#443016" d="M40.888 18.215L26.4 25.678c-1.526-1.036-3.884-2.972-5.56-6.146-.585-1.107-1.566-3.01-1.757-5.707a13.322 13.322 0 0 1 1.172-6.438s1.31-2.872 3.56-4.683C27.675-.403 34.938.073 41.57 4.265a18.15 18.15 0 0 1 1.073 5.756c.08 3.731-1.02 6.627-1.756 8.194"/>
        <path fill="#E8B79E" d="M38.546 29.336a9.981 9.981 0 0 1-2.488.439c-5.289.246-9.144-3.892-10.096-4.975.122-1.326-.256-2.074-.586-2.488l-.05-.062c-.442.023-1.47.013-2.29-.67-1.576-1.308-1.488-4.34-.294-4.975.885-.47 2.24.448 2.634.732a11298.8 11298.8 0 0 0 3.073-4.244c2.493.684 5.813 1.235 9.658.878a26.238 26.238 0 0 0 2.927-.438 48.474 48.474 0 0 1-2.488 15.803"/>
        <path fill="#057B9F" d="M3.183 88.135C2.629 86.17-1.727 70.4.762 64.258c.327-.808 1.006-2.483 2.659-3.231 2.244-1.017 4.764.36 5.384.719l.83 26.272c-.14.21-1.038 1.518-2.727 1.749-1.412.193-2.842-.44-3.725-1.632"/>
        <path fill="#E8B79E" d="M4.795 98.366c-1.11-.625-1.35-2.097-1.726-4.408a18.665 18.665 0 0 1-.17-4.573c.135-.308.868-1.903 2.659-2.55 1.623-.587 3.489-.168 4.834 1.066.422.22 1.02.596 1.566 1.222.562.646.793 1.243 1.182 2.343 1.414 4.009 1.279 4.413 1.063 4.619-.416.396-1.212.129-1.31.095-.766-.269-1.304-1.093-1.356-2.108a33.076 33.076 0 0 0-.567 3.067c-.305 2.247-.212 3.3-.926 3.7-.518.291-1.313.152-1.698-.251-.415-.435-.1-.912-.416-1.407-.547-.857-1.96-.152-3.135-.815"/>
    </g>
</svg>
