<svg xmlns="http://www.w3.org/2000/svg" xmlns:xlink="http://www.w3.org/1999/xlink" width="54" height="160" viewBox="0 0 54 160">
    <defs>
        <path id="a" d="M18.495 39.621V.934H.735v38.687h17.76z"/>
    </defs>
    <g fill="none" fill-rule="evenodd">
        <path fill="#404041" d="M28.666 137.357l3.47-3.3a.034.034 0 0 1 .049.003l2.379 2.9.006.01 1.518 3.959c0 .004.003.007.005.01 1.563 1.868 2.288 3.158 2.554 4.049.32 1.068-1.011 1.843-1.78 1.036l-4.93-5.168a1.502 1.502 0 0 1-.415-1.01l-.012-.706a.033.033 0 0 0-.045-.031l-.856.309a.034.034 0 0 1-.036-.01l-1.908-2.004a.033.033 0 0 1 0-.047"/>
        <path fill="#FCC180" d="M21.686 39.83l.194 8.309 5.51.717.7-9.086z"/>
        <path fill="#0B7B9F" d="M11.824 60.605S2.072 42.028.172 34.637c-1.9-7.39 12.607-28.509 12.607-28.509l4.178 2.686S9.877 24.665 6.932 29.96c-1.66 2.981 10.442 18.504 10.442 18.504l-5.55 12.142z"/>
        <g transform="translate(35 19.38)">
            <mask id="b" fill="#fff">
                <use xlink:href="#a"/>
            </mask>
            <path fill="#0B7B9F" d="M4.217 39.621s16.009-15.808 14.125-20.548C14.13 8.476 8.686.934 8.686.934L5.199 3.135c-.426-.77 2.82 8.671 6.017 15.065C12.74 21.251.736 29.282.736 29.282l3.48 10.34z" mask="url(#b)"/>
        </g>
        <path fill="#404041" d="M23.168 159.159l-6.404.066 1.995-5.201 3.87.276z"/>
        <path fill="#B0E1F2" d="M28.27 44.078l2.096 3.633-10.611-.013 1.463-3.62z"/>
        <path fill="#312111" d="M32.696 19.915s-.379.757-1.169 1.429c.202-2.303-1.532-3.843-1.532-3.843s-.319 1.485-1.545 2.515c-4.025-1-9.54 1.05-11.16 2.423-3.193 2.702.047 10.306.73 11.804v5.207c0 2.093 4.374 2.675 6.375 2.675 1.833 0 6.375.09 6.375-2.675v-4.945c-.006-.086 1.831-5.074 1.68-9.116 2.133-2.672.246-5.474.246-5.474"/>
        <path fill="#E8B79E" d="M40.366 14.317c.88.076 1.455.937 2.357 2.288.41.617.965 1.565 1.42 2.84.004.232-.001 1.45-.946 2.373-.857.837-2.155 1.11-3.36.715a3.682 3.682 0 0 1-1.34-.322c-.54-.246-.858-.556-1.42-1.14-2.044-2.125-2.075-2.419-1.997-2.61.149-.37.728-.43.799-.437.562-.05 1.138.315 1.462.941a22.504 22.504 0 0 0-.522-2.099c-.453-1.507-.815-2.145-.48-2.603.246-.333.787-.473 1.146-.329.387.155.325.547.667.77.592.383 1.28-.468 2.214-.387M16.609.466c-.881.076-1.455.937-2.357 2.288a12.973 12.973 0 0 0-1.42 2.84c-.004.232 0 1.45.946 2.373.857.837 2.155 1.11 3.359.715.33-.017.816-.083 1.34-.322.54-.246.859-.556 1.42-1.14 2.045-2.125 2.076-2.419 1.998-2.61-.15-.37-.728-.43-.8-.437-.561-.05-1.137.315-1.461.941.097-.492.26-1.225.522-2.099.453-1.507.815-2.145.479-2.603C20.39.08 19.849-.06 19.49.083c-.387.155-.325.547-.667.77-.592.383-1.281-.468-2.214-.387"/>
        <path fill="#0D1E24" d="M14.997 88.866l2.49 65.823h6.157l2.909-51.787s15.5.748 13.143 11.93c-1.575 7.472-9.227 21.174-9.227 21.174l5.24 3.015s11.76-15.461 12.243-24.875c.482-9.413-13.064-25.737-13.064-25.737l-19.891.457z"/>
        <path fill="#0B7B9F" d="M39.936 95.008l-11.837-.08-1.78-6.065-2.378 6.115-10.62.329L9.553 54.29c0-3.68 1.782-6.661 11.158-6.661h8.604c8.434-.265 10.884 2.982 10.884 6.66l-.263 40.719z"/>
    </g>
</svg>
