<?xml version="1.0" encoding="UTF-8" standalone="no"?>
<svg width="419px" height="262px" viewBox="0 0 419 262" version="1.1" xmlns="http://www.w3.org/2000/svg" xmlns:xlink="http://www.w3.org/1999/xlink" xmlns:sketch="http://www.bohemiancoding.com/sketch/ns">
    <!-- Generator: Sketch 3.4.4 (17249) - http://www.bohemiancoding.com/sketch -->
    <title>nick_404</title>
    <desc>Created with Sketch.</desc>
    <defs></defs>
    <g id="Designs" stroke="none" stroke-width="1" fill="none" fill-rule="evenodd" sketch:type="MSPage">
        <g id="500-copy" sketch:type="MSArtboardGroup" transform="translate(-196.000000, -379.000000)">
            <g id="nick_404" sketch:type="MSLayerGroup" transform="translate(196.000000, 381.000000)">
                <rect id="Rectangle-path" stroke="#FBFDFD" stroke-width="3" fill="#2F4149" sketch:type="MSShapeGroup" x="203.973819" y="0.384249671" width="212.647687" height="154.777924"></rect>
                <path d="M331.480762,6.16031537 C331.480762,6.16031537 328.784142,9.24047306 328.01368,11.935611 C327.243217,14.630749 326.472754,17.7109067 326.472754,17.7109067 L323.005673,13.0906702" id="Shape" stroke="#FBFDFD" stroke-width="1.5195" sketch:type="MSShapeGroup"></path>
                <path d="M326.472754,17.7109067 L331.865993,14.630749" id="Shape" stroke="#FBFDFD" stroke-width="3" fill="#29589C" sketch:type="MSShapeGroup"></path>
                <path d="M315.686278,133.21682 L319.538591,128.596583 L324.546598,135.141919" id="Shape" stroke="#FBFDFD" stroke-width="3" fill="#29589C" sketch:type="MSShapeGroup"></path>
                <path d="M319.538591,128.596583 C319.538591,128.596583 319.153359,135.141919 319.538591,137.837057 C319.923822,140.532194 321.849979,146.69251 321.849979,146.69251" id="Shape" stroke="#FBFDFD" stroke-width="3" fill="#29589C" sketch:type="MSShapeGroup"></path>
                <path d="M242.492327,71.9986859 L249.426491,78.1590013 L222.075068,77.7739816" id="Shape" stroke="#FBFDFD" stroke-width="3" fill="#2F4149" sketch:type="MSShapeGroup"></path>
                <path d="M243.648021,85.4743758 L249.426491,78.1590013" id="Shape" stroke="#FBFDFD" stroke-width="3" fill="#29589C" sketch:type="MSShapeGroup"></path>
                <path d="M279.335737,50.9334199 C279.335737,50.9334199 251.31123,63.938846 256.406595,74.3431868 C261.50196,84.7475276 269.145007,109.457837 299.717198,109.457837 C330.289388,109.457837 381.243038,102.955124 378.695355,80.8458998 C376.147673,58.7366756 329.999998,33.0000001 273,38.0000001" id="Shape" stroke="#FBFDFD" stroke-width="3" sketch:type="MSShapeGroup"></path>
                <path d="M40.1965765,114.094046 C40.1965765,114.094046 32.7485142,123.591327 31.7214875,127.441524 C30.6944609,131.291721 18.6236228,154.90652 18.6236228,156.95983 C18.6236228,159.013141 13.7442829,180.317821 12.9738203,181.601092 C12.2033577,182.884363 15.8846281,186.723394 16.6119448,188.268863 C17.3392616,189.814332 27.0043301,197.703001 31.8027714,197.095825 C36.6012126,196.488649 36.6012126,196.488649 36.6012126,196.488649 C36.6012126,196.488649 38.1421379,200.081653 38.1421379,202.905388 L38.1421379,215.226018 C38.1421379,215.226018 53.8083399,229.600344 56.8901904,230.370384 C59.9720409,231.140423 83.5998185,234.733812 90.0200836,234.733812 C96.4403488,234.733812 107.483775,231.910463 109.0247,228.060265 L110.565625,224.210068 C110.565625,224.210068 116.215813,231.653654 117.756738,231.653654 C119.297664,231.653654 132.138579,232.423694 141.384131,230.113576 C150.629682,227.803457 159.875234,226.520187 161.673109,227.290226 C163.470983,228.060265 166.038935,231.653654 166.038935,231.653654 C166.038935,231.653654 166.434953,229.743572 166.750843,222.8702 C167.066732,215.996828 167.580246,182.628325 165.782371,177.494472 C163.984496,172.360619 163.727547,170.564117 163.727547,170.564117 L165.337044,170.262261 C165.337044,170.262261 182.989498,156.703022 186.584862,154.136481 C190.180226,151.569555 200.967088,142.072658 201.994115,138.478884 C203.021141,134.88511 210.468819,122.051248 210.468819,122.051248 C210.468819,122.051248 209.441407,120.767978 206.102992,119.484707 C202.764577,118.201436 196.344312,111.784313 195.059951,105.110766 C193.77559,98.4372194 193.005127,95.870293 193.005127,95.870293 L189.800773,97.706067 C189.800773,97.706067 185.814399,105.367189 182.4756,111.271081 C179.1368,117.174974 181.801445,115.457016 174.433896,118.626113 C167.066347,121.79521 169.120786,121.024786 165.525422,122.308442 C161.930058,123.592097 158.077745,125.388599 155.509407,124.105329 C152.94107,122.822058 148.318294,122.308442 148.318294,122.308442 L145.819684,120.744491 C145.819684,120.744491 146.52042,122.308442 146.006907,125.388599 C145.493393,128.468757 145.236829,130.778875 131.111552,139.76254 C116.986276,148.746205 114.964582,149.780753 114.819735,150.931962 C114.674888,152.083171 115.284709,153.045335 115.284709,153.045335 C115.284709,153.045335 113.134348,148.232589 112.620449,146.949318 C112.106551,145.666047 106.969876,142.072273 101.320074,140.789003 C95.6702714,139.505732 96.9546326,138.992116 80.2610187,136.168766 C63.5674048,133.345417 59.1807758,127.893537 59.1807758,127.893537 C59.1807758,127.893537 50.9834386,123.078096 49.4425133,122.308057 C47.9015881,121.538017 46.1037135,118.714668 46.1037135,118.714668 L46.1037135,114.607662 L40.1965765,114.094046 L40.1965765,114.094046 Z" id="Shape" fill="#EFEFEF" sketch:type="MSShapeGroup"></path>
                <ellipse id="Oval" fill="#CACECE" sketch:type="MSShapeGroup" cx="117.58454" cy="251.857949" rx="86.4189413" ry="8.08156373"></ellipse>
                <path d="M38.5146566,223.752665 C38.5146566,223.752665 41.6943559,238.051912 51.7623763,243.87803 C61.8300116,249.703378 74.5480383,253.940135 86.7356014,253.410733 C98.9235498,252.881331 140.785481,255.529497 150.323423,251.822142 C159.861366,248.114787 173.108315,245.996409 176.818093,242.818071 C180.527485,239.640888 196.424826,226.929848 198.543983,222.163689 C200.663526,217.397145 203.512697,203.143715 208.60661,200.979904 C213.699368,198.815708 216.030403,197.271779 218.149946,195.153401 C220.269488,193.035022 220.799952,190.917029 219.739795,189.328053 C218.679639,187.738691 209.141697,180.58926 209.141697,180.58926 C209.141697,180.58926 205.962383,181.383556 201.722912,181.383556 C197.483441,181.383556 196.424055,181.383556 193.774049,182.972532 C191.124813,184.561124 186.93889,185.625703 183.758805,188.274254 C180.579876,190.921649 179.996636,189.328053 176.817322,190.917029 C173.638008,192.50562 167.809073,193.829318 167.809073,193.829318 C167.809073,193.829318 166.219223,195.682803 166.219223,198.330583 C166.219223,200.978749 167.27938,206.274695 168.868459,212.630216 C169.73677,216.100013 168.734399,228.508428 166.615626,230.818547 C165.342822,232.206158 159.678766,226.735798 156.984843,227.160859 C146.917208,228.749451 130.185842,233.284983 122.767442,233.284983 C115.348272,233.284983 115.348272,223.751895 114.288886,221.633131 C113.2295,219.514753 110.581035,217.750208 109.520878,222.869045 C108.459951,227.989037 107.400565,232.755196 103.691173,233.814 C96.0481833,235.997062 70.3077972,236.462551 65.0081699,232.755196 C61.9297865,230.601011 48.0514431,223.222108 40.6330436,217.396375 C36.7788043,214.36935 38.5146566,223.752665 38.5146566,223.752665 L38.5146566,223.752665 Z" id="Shape" fill="#B6CBCF" sketch:type="MSShapeGroup"></path>
                <path d="M43.0183959,221.369393 C43.0183959,221.369393 48.0525988,235.404516 53.3518407,238.581699 C58.6503123,241.759267 69.248411,251.29274 75.6070391,251.29274 C81.9656673,251.29274 104.751329,254.469922 112.699807,253.940135 C120.649055,253.410733 157.211359,252.351544 160.391444,250.232781 C163.570758,248.114787 164.630144,246.525811 161.980908,241.22948 C159.330902,235.933534 157.741823,235.933534 156.151973,233.285753 C154.562124,230.637202 155.62228,227.46002 152.442581,227.46002 C149.263267,227.46002 143.964025,230.107415 137.605782,230.637202 C131.246383,231.167375 133.365926,233.285753 125.417834,231.697162 C117.468971,230.107415 111.63965,222.693091 111.63965,222.693091 C111.63965,222.693091 111.111113,227.106957 109.521263,228.872272 C107.930258,230.637202 105.282178,236.993108 99.9821655,235.933534 C94.6829235,234.874344 79.8457393,235.933534 74.5472678,233.81477 C69.2476406,231.697162 54.764484,233.109799 51.9380418,229.22572 C49.1127553,225.341256 43.0183959,221.369393 43.0183959,221.369393 L43.0183959,221.369393 Z" id="Shape" fill="#D7E1E2" sketch:type="MSShapeGroup"></path>
                <path d="M45.933056,122.244528 C45.933056,122.244528 61.8515845,59.2337424 66.0694822,53.0426255 C69.1324564,48.5467503 70.239226,36.3785874 97.5097509,35.3890867 C120.115895,34.5689947 122.945034,40.6850329 124.358062,42.8034113 C125.771091,44.9217898 136.987101,60.2809961 136.987101,60.2809961 C136.987101,60.2809961 141.314019,61.1634612 145.907132,63.6349028 C150.500245,66.1063443 157.918259,70.6961643 159.331287,73.8737319 C160.744316,77.0512996 158.97803,88.350088 155.797946,91.1745926 C152.619017,93.9987122 141.314789,98.5889172 140.255018,99.2950434 L139.195246,100.001555 C139.195246,100.001555 142.020918,110.94651 142.020918,112.71221 C142.020918,114.477526 145.907132,129.659623 145.907132,129.659623 C145.907132,129.659623 132.130104,138.133907 129.656919,139.898837 C127.183734,141.664152 127.537376,141.664152 124.357677,143.782531 C121.178363,145.901294 117.998664,147.66661 117.998664,149.431925 C117.998664,151.19724 116.408429,153.580127 116.408429,153.580127 C116.408429,153.580127 114.464937,151.903752 114.112835,148.725799 C113.759578,145.548231 108.813593,143.429853 105.633894,142.017601 C102.454195,140.604963 71.0143114,131.425323 71.0143114,131.425323 L45.933056,122.244528 L45.933056,122.244528 Z" id="Shape" fill="#B6CBCF" sketch:type="MSShapeGroup"></path>
                <path d="M77.7269671,98.2362392 C77.7269671,98.2362392 75.0777313,98.7656413 72.4277251,96.1174757 C69.7784893,93.4696951 66.5995605,91.3509317 66.069097,93.4696951 C65.5394039,95.5876886 66.069097,105.121162 66.5995605,110.417108 C67.1292536,115.713054 63.9495543,120.479213 62.3597046,122.597976 C60.7706254,124.716355 59.1807758,127.893922 59.1807758,127.893922 C59.1807758,127.893922 85.1453665,136.897608 88.8555294,137.427011 C92.5641512,137.956413 102.809378,139.192711 105.63505,142.017216 C108.461107,144.84172 116.409585,153.579742 116.409585,153.579742 C116.409585,153.579742 119.05882,146.430311 121.708827,144.311933 C124.358833,142.19317 129.657304,139.545389 133.366697,137.427011 C137.076089,135.308632 141.845253,131.601277 141.845253,131.601277 C141.845253,131.601277 141.315174,126.835118 140.255018,122.068574 C139.195632,117.30203 134.956546,101.76687 134.956546,101.76687 C134.956546,101.76687 136.36919,99.4717674 125.064577,101.76687 C113.760734,104.061587 112.700192,104.061587 105.811871,103.532185 C98.9231646,103.002013 77.7269671,98.2362392 77.7269671,98.2362392 L77.7269671,98.2362392 Z" id="Shape" fill="#D7E1E2" sketch:type="MSShapeGroup"></path>
                <path d="M16.1265534,189.989901 C16.1265534,189.989901 14.8017429,202.038323 13.7415863,202.700557 C12.6814297,203.363176 1.95158185,214.219577 1.81906228,215.146704 C1.6865427,216.073447 0.229212633,220.575482 1.42188879,221.369393 C2.61379448,222.163689 4.86547153,221.898795 6.45570641,221.236561 C8.04517082,220.575097 17.9806717,215.676491 18.2457109,215.279151 C18.51075,214.881426 19.5701361,213.822622 19.5701361,213.822622 C19.5701361,213.822622 13.0786032,221.766348 11.887468,222.428582 C10.6944066,223.090816 3.93860498,229.181058 3.67356584,230.372694 C3.40852669,231.564715 2.61340925,234.080049 3.54104626,234.477004 C4.46868327,234.874344 9.50173043,235.669025 10.9594457,235.404516 C12.4163906,235.139623 14.0062402,234.21211 14.0062402,234.21211 L14.0062402,237.389678 C14.0062402,238.449252 14.6684528,241.097033 15.861129,241.494373 C17.0534199,241.891329 24.4714342,241.22948 26.4588425,239.77295 C28.4462509,238.31642 32.2877776,235.271685 32.8178559,233.947217 C33.3475489,232.623519 37.5866343,221.104499 37.8520587,217.529591 C38.1167126,213.954683 37.0569413,197.536288 37.0569413,197.536288 C37.0569413,197.536288 37.0569413,197.66912 35.5996112,197.933628 C34.1430516,198.198137 32.4202972,197.668735 29.7706762,197.006886 C27.1214404,196.345422 16.1265534,189.989901 16.1265534,189.989901 L16.1265534,189.989901 Z" id="Shape" fill="#B6CBCF" sketch:type="MSShapeGroup"></path>
                <path d="M193.598769,100.354233 C193.598769,100.354233 193.952411,93.9987122 195.718311,88.7027661 C197.484212,83.40682 200.663911,69.636975 202.784224,67.8716597 C204.902996,66.1063443 213.381938,57.6328305 217.973895,55.1610039 C222.566623,52.6895624 228.572379,49.8650578 230.691922,49.8650578 C232.811464,49.8650578 238.817221,52.6895624 237.757064,55.514067 C236.697293,58.3385716 235.638292,63.9879658 232.811464,67.1651485 C229.984637,70.3427162 221.155135,77.7574258 220.800722,78.4631669 C220.44708,79.169293 220.093823,80.5819304 220.093823,82.7003088 C220.093823,84.8190723 211.615267,106.885707 211.615267,106.885707 C211.615267,106.885707 209.142082,110.593062 207.729053,112.71144 C206.316795,114.829819 202.430582,119.419639 202.430582,119.419639 C202.430582,119.419639 201.017553,114.829819 198.544368,111.299188 C196.071569,107.768557 193.598769,100.354233 193.598769,100.354233 L193.598769,100.354233 Z" id="Shape" fill="#B6CBCF" sketch:type="MSShapeGroup"></path>
                <path d="M204.373303,182.179007 C204.373303,182.179007 207.022924,180.854539 208.877043,177.94148 C210.731546,175.029191 212.851089,168.143883 212.586435,164.436913 C212.321396,160.729558 210.544709,140.283087 210.731931,138.751093 C210.966537,136.82638 212.739757,134.77307 214.064182,134.243668 C215.388608,133.71388 218.41537,134.249058 219.210488,134.77846 C220.004835,135.308247 217.885677,129.747407 217.885677,127.893537 C217.885677,126.040053 218.38147,123.992903 219.971319,123.463116 C221.560399,122.933714 226.38388,124.286673 227.675946,125.901445 C228.189459,126.543273 228.510742,121.60193 229.808201,119.949811 C230.842932,118.632273 234.841248,118.032413 235.637136,119.35611 C236.431098,120.679808 239.081489,125.245757 239.081489,128.423325 C239.081489,131.600892 238.551796,137.162117 238.551796,137.956413 C238.551796,138.750708 242.907607,133.50597 244.497456,132.446781 C246.086536,131.387591 249.149895,129.482514 250.739359,130.806597 C252.329209,132.130679 254.152509,136.769782 253.357777,138.093865 C252.56343,139.417947 248.619431,142.98785 248.619431,142.98785 C248.619431,142.98785 249.944627,142.722957 251.269052,142.98785 C252.593863,143.252744 253.539221,144.746235 253.936394,146.30749 C254.748077,149.497378 251.004013,153.579742 249.679973,154.639317 C248.354392,155.698121 246.499889,157.287097 246.499889,157.287097 C246.499889,157.287097 247.345086,155.901026 250.79021,156.95983 C254.234563,158.01902 253.767663,162.309679 252.972931,163.633377 C252.177428,164.95746 247.55966,166.8198 245.440503,167.879375 C243.320575,168.938179 239.081489,171.321451 236.431483,174.23451 C233.782247,177.146799 227.158965,184.031721 223.183763,188.004355 C219.210488,191.976218 218.945063,193.830088 217.620638,192.770899 C216.295827,191.71171 204.373303,182.179007 204.373303,182.179007 L204.373303,182.179007 Z" id="Shape" fill="#020203" sketch:type="MSShapeGroup"></path>
                <path d="M119.835832,173.645815 C119.835832,173.645815 123.033637,175.928212 124.517933,175.813476 C126.00223,175.699895 129.884591,174.445116 130.455504,172.618582 C131.026031,170.792434 130.341475,166.91259 130.341475,166.91259 C130.341475,166.91259 130.227061,169.081021 128.856794,170.564502 C127.486141,172.047983 126.115873,173.873746 123.832607,173.645815 C121.54857,173.417113 119.835832,173.645815 119.835832,173.645815 L119.835832,173.645815 Z" id="Shape" fill="#CACECE" sketch:type="MSShapeGroup"></path>
                <path d="M126.628616,160.706842 C125.217899,160.354164 123.668498,160.814263 122.17226,160.994452 C119.511467,161.315943 117.523673,164.647519 117.427751,166.185673 C117.331443,167.723827 117.68393,173.202657 121.370979,173.395552 C125.058028,173.587677 128.872973,171.12047 129.097563,170.351201 C129.322153,169.582702 130.475921,163.750808 128.680743,162.437121 C126.884794,161.123819 126.628616,160.706842 126.628616,160.706842 L126.628616,160.706842 Z" id="Shape" fill="#F9EDB2" sketch:type="MSShapeGroup"></path>
                <path d="M124.416232,160.835054 C124.416232,160.835054 122.557106,160.994452 121.210722,161.53964 C119.864339,162.084443 118.77452,163.847063 118.389288,164.583991 C118.005213,165.320534 117.972083,168.268244 117.972083,168.268244 C117.972083,168.268244 118.581519,163.718466 121.242311,162.532606 C123.903875,161.347515 124.192413,160.899352 124.769104,161.091477 C125.345795,161.283217 124.416232,160.835054 124.416232,160.835054 L124.416232,160.835054 Z" id="Shape" fill="#F4EFD9" sketch:type="MSShapeGroup"></path>
                <path d="M120.064659,168.623618 C120.064659,168.623618 119.150891,166.114059 120.521929,164.972861 C121.892197,163.830892 125.831187,163.375029 126.059629,165.885357 C126.288456,168.396071 124.403905,169.993518 124.403905,169.993518 C124.403905,169.993518 125.803065,169.232334 126.173657,168.738353 C127.201455,167.368838 127.201455,163.944858 125.659759,163.374644 C124.118448,162.80443 120.807,163.773524 120.293101,164.57244 C119.779203,165.371356 119.493746,167.59677 119.664789,167.99642 C119.835832,168.396071 120.064659,168.623618 120.064659,168.623618 L120.064659,168.623618 Z" id="Shape" fill="#020203" sketch:type="MSShapeGroup"></path>
                <path d="M120.692972,161.605093 C120.692972,161.605093 118.237507,161.947376 117.095681,164.915108 C115.953856,167.882455 117.038667,171.762298 119.094262,173.132583 C121.149471,174.501714 127.070091,174.977983 129.428092,170.107484 C132.853954,163.031976 126.4021,160.578631 126.4021,160.578631 C126.4021,160.578631 130.912773,163.88826 128.857564,169.138004 C127.805112,171.826212 125.773787,172.447248 122.80558,172.903497 C119.836602,173.360515 117.560656,170.784348 117.781393,167.825472 C118.179722,162.461377 120.692972,161.605093 120.692972,161.605093 L120.692972,161.605093 Z" id="Shape" fill="#020203" sketch:type="MSShapeGroup"></path>
                <path d="M126.773463,164.344509 C126.773463,164.344509 126.859369,167.654523 126.74457,167.939823 C126.630157,168.224352 125.659759,169.679727 124.660854,169.908043 C123.661564,170.13636 122.976623,170.108254 122.976623,170.108254 C122.976623,170.108254 125.488716,170.250711 125.831187,169.936535 C126.173657,169.623129 127.030027,168.766845 127.229962,167.568664 C127.429897,166.370482 127.030027,164.486581 126.773463,164.344509 L126.773463,164.344509 Z" id="Shape" fill="#F4EFD9" sketch:type="MSShapeGroup"></path>
                <path d="M123.832992,164.145068 C123.832992,164.145068 122.491617,164.030717 121.491941,164.515457 C120.492266,165.000967 119.665174,166.42708 119.75031,167.026171 C119.836217,167.626032 120.121673,168.138878 120.121673,168.138878 C120.121673,168.138878 119.978753,166.769748 121.006935,165.913849 C122.034347,165.05795 122.60526,164.344509 123.832992,164.145068 L123.832992,164.145068 Z" id="Shape" fill="#E6D693" sketch:type="MSShapeGroup"></path>
                <path d="M120.864014,172.561214 C120.864014,172.561214 122.718903,173.189181 124.40352,172.590091 C126.087751,171.991 127.606718,171.066568 128.000039,170.564117 C128.714258,169.650465 129.913483,166.854837 129.313678,165.228514 C128.714258,163.602191 129.171142,166.940311 128.285881,169.023268 C128.025079,169.636604 126.687171,170.792819 125.573852,171.334156 C124.460919,171.876649 122.205775,172.789531 120.864014,172.561214 L120.864014,172.561214 Z" id="Shape" fill="#E6D693" sketch:type="MSShapeGroup"></path>
                <ellipse id="Oval" fill="#020203" sketch:type="MSShapeGroup" cx="122.652258" cy="166.33583" rx="0.40680427" ry="0.406580815"></ellipse>
                <ellipse id="Oval" fill="#020203" sketch:type="MSShapeGroup" cx="121.962694" cy="167.88207" rx="0.406419039" ry="0.406195795"></ellipse>
                <ellipse id="Oval" fill="#020203" sketch:type="MSShapeGroup" cx="124.536039" cy="166.677343" rx="0.40680427" ry="0.406580815"></ellipse>
                <ellipse id="Oval" fill="#020203" sketch:type="MSShapeGroup" cx="123.889621" cy="168.609757" rx="0.40680427" ry="0.406580815"></ellipse>
                <path d="M118.432434,211.021603 C118.432434,211.021603 121.630239,213.304 123.114536,213.189264 C124.598832,213.075683 128.481193,211.820904 129.052106,209.994371 C129.622633,208.168222 128.938077,204.288378 128.938077,204.288378 C128.938077,204.288378 128.823664,206.456809 127.453396,207.94029 C126.082743,209.423771 124.71286,211.249535 122.429209,211.021603 C120.145173,210.792901 118.432434,211.021603 118.432434,211.021603 L118.432434,211.021603 Z" id="Shape" fill="#CACECE" sketch:type="MSShapeGroup"></path>
                <path d="M125.224833,198.083016 C123.814116,197.730338 122.264715,198.190436 120.768477,198.370625 C118.107684,198.692117 116.119891,202.023693 116.023583,203.561846 C115.927275,205.1 116.280147,210.57883 119.967581,210.771725 C123.654245,210.96385 127.46919,208.496644 127.69378,207.727375 C127.91837,206.958875 129.072138,201.126982 127.27696,199.813294 C125.481012,198.499992 125.224833,198.083016 125.224833,198.083016 L125.224833,198.083016 Z" id="Shape" fill="#F9EDB2" sketch:type="MSShapeGroup"></path>
                <path d="M123.012449,198.211227 C123.012449,198.211227 121.153323,198.370625 119.80694,198.915813 C118.460556,199.460616 117.370737,201.223237 116.985505,201.960164 C116.60143,202.696707 116.5683,205.644418 116.5683,205.644418 C116.5683,205.644418 117.177736,201.09464 119.838528,199.908779 C122.500092,198.723689 122.78863,198.275526 123.365321,198.46765 C123.942398,198.65939 123.012449,198.211227 123.012449,198.211227 L123.012449,198.211227 Z" id="Shape" fill="#F4EFD9" sketch:type="MSShapeGroup"></path>
                <path d="M118.660491,205.999406 C118.660491,205.999406 117.747108,203.489848 119.118146,202.348649 C120.488414,201.206681 124.427019,200.750817 124.655846,203.261146 C124.884673,205.771859 123.000122,207.369306 123.000122,207.369306 C123.000122,207.369306 124.399282,206.608122 124.769875,206.114142 C125.797672,204.744627 125.797672,201.320647 124.255976,200.750432 C122.714665,200.180218 119.403217,201.149313 118.889319,201.948229 C118.37542,202.747145 118.089578,204.972558 118.261006,205.372209 C118.432434,205.771859 118.660491,205.999406 118.660491,205.999406 L118.660491,205.999406 Z" id="Shape" fill="#020203" sketch:type="MSShapeGroup"></path>
                <path d="M119.289189,198.981267 C119.289189,198.981267 116.833724,199.323549 115.691899,202.291281 C114.550073,205.258628 115.634884,209.138472 117.690479,210.508757 C119.745688,211.877887 125.666308,212.354156 128.024309,207.483657 C131.450171,200.40815 124.998317,197.954804 124.998317,197.954804 C124.998317,197.954804 129.50899,201.264434 127.453781,206.514177 C126.401329,209.202385 124.370004,209.823422 121.401797,210.27967 C118.432819,210.736689 116.156873,208.160522 116.377996,205.201645 C116.77671,199.837166 119.289189,198.981267 119.289189,198.981267 L119.289189,198.981267 Z" id="Shape" fill="#020203" sketch:type="MSShapeGroup"></path>
                <path d="M125.36968,201.720297 C125.36968,201.720297 125.455586,205.030311 125.340787,205.315611 C125.226374,205.600141 124.255976,207.055515 123.257071,207.283832 C122.257781,207.512148 121.57284,207.484042 121.57284,207.484042 C121.57284,207.484042 124.084933,207.626499 124.427019,207.312323 C124.769875,206.998917 125.626244,206.142633 125.826179,204.944452 C126.026114,203.746271 125.626244,201.862369 125.36968,201.720297 L125.36968,201.720297 Z" id="Shape" fill="#F4EFD9" sketch:type="MSShapeGroup"></path>
                <path d="M122.429594,201.520857 C122.429594,201.520857 121.088219,201.406506 120.088544,201.891246 C119.088868,202.376756 118.261777,203.802869 118.346913,204.401959 C118.432819,205.00182 118.718276,205.514666 118.718276,205.514666 C118.718276,205.514666 118.575355,204.145536 119.603537,203.289637 C120.630949,202.433739 121.201477,201.720297 122.429594,201.520857 L122.429594,201.520857 Z" id="Shape" fill="#E6D693" sketch:type="MSShapeGroup"></path>
                <path d="M119.460617,209.937388 C119.460617,209.937388 121.315505,210.565355 123.000122,209.966264 C124.684353,209.367173 126.20332,208.442741 126.596641,207.94029 C127.31086,207.026639 128.510085,204.231011 127.91028,202.604687 C127.31086,200.978364 127.767745,204.316485 126.882483,206.399442 C126.621681,207.012778 125.284158,208.168992 124.170455,208.71033 C123.057521,209.252438 120.801992,210.165319 119.460617,209.937388 L119.460617,209.937388 Z" id="Shape" fill="#E6D693" sketch:type="MSShapeGroup"></path>
                <ellipse id="Oval" fill="#020203" sketch:type="MSShapeGroup" cx="121.248475" cy="203.711619" rx="0.40680427" ry="0.406580815"></ellipse>
                <ellipse id="Oval" fill="#020203" sketch:type="MSShapeGroup" cx="120.559296" cy="205.257858" rx="0.406419039" ry="0.406195795"></ellipse>
                <ellipse id="Oval" fill="#020203" sketch:type="MSShapeGroup" cx="123.132641" cy="204.053131" rx="0.40680427" ry="0.406580815"></ellipse>
                <ellipse id="Oval" fill="#020203" sketch:type="MSShapeGroup" cx="122.486223" cy="205.985545" rx="0.40680427" ry="0.406580815"></ellipse>
                <path d="M59.6418977,75.808071 C59.6888959,78.1786373 61.6493381,80.0613837 64.0212073,80.0151813 C66.3919208,79.9682089 68.2776281,78.0088436 68.2314004,75.6382773 C68.1840169,73.2680959 66.222419,71.3845795 63.8517055,71.4315519 C61.4798363,71.4777543 59.5956699,73.4378896 59.6418977,75.808071 L59.6418977,75.808071 Z" id="Shape" fill="#9CC3C9" sketch:type="MSShapeGroup"></path>
                <ellipse id="Oval" fill="#9CC3C9" sketch:type="MSShapeGroup" cx="52.314798" cy="116.469233" rx="4.29532918" ry="4.29296978"></ellipse>
                <ellipse id="Oval" fill="#9CC3C9" sketch:type="MSShapeGroup" cx="58.9561859" cy="95.4506216" rx="3.55722598" ry="3.55527201"></ellipse>
                <ellipse id="Oval" fill="#9CC3C9" sketch:type="MSShapeGroup" cx="58.0335569" cy="103.931451" rx="3.55722598" ry="3.55527201"></ellipse>
                <path d="M172.732329,202.109552 C172.770467,204.072767 174.394217,205.631712 176.358897,205.59321 C178.322036,205.554708 179.882993,203.93262 179.845625,201.96902 C179.805561,200.005034 178.182197,198.445319 176.217132,198.484976 C174.253608,198.522708 172.69265,200.145951 172.732329,202.109552 L172.732329,202.109552 Z" id="Shape" fill="#9CC3C9" sketch:type="MSShapeGroup"></path>
                <path d="M182.534925,203.962652 C182.573063,205.926252 184.196428,207.485197 186.161878,207.446695 C188.125017,207.408578 189.685974,205.78572 189.648607,203.82212 C189.608157,201.858904 187.984407,200.299189 186.021269,200.338461 C184.056589,200.376963 182.496017,201.999436 182.534925,203.962652 L182.534925,203.962652 Z" id="Shape" fill="#9CC3C9" sketch:type="MSShapeGroup"></path>
                <path d="M171.937597,213.78643 C171.98421,216.193573 173.975085,218.106351 176.384707,218.058223 C178.792018,218.012021 180.706232,216.021469 180.658464,213.613941 C180.610695,211.206798 178.619049,209.293635 176.211353,209.342147 C173.803657,209.388735 171.889828,211.378901 171.937597,213.78643 L171.937597,213.78643 Z" id="Shape" fill="#9CC3C9" sketch:type="MSShapeGroup"></path>
                <path d="M194.19164,186.672187 C194.217835,188.018986 195.33308,189.088955 196.68139,189.062774 C198.028158,189.036978 199.099487,187.922731 199.073291,186.575932 C199.046325,185.228363 197.93108,184.158393 196.584311,184.184574 C195.236772,184.211141 194.165059,185.325388 194.19164,186.672187 L194.19164,186.672187 Z" id="Shape" fill="#9CC3C9" sketch:type="MSShapeGroup"></path>
                <ellipse id="Oval" fill="#9CC3C9" sketch:type="MSShapeGroup" cx="186.829484" cy="194.567786" rx="2.97051868" ry="2.96888699"></ellipse>
                <ellipse id="Oval" fill="#9CC3C9" sketch:type="MSShapeGroup" cx="178.352469" cy="193.773875" rx="2.44082562" ry="2.43948489"></ellipse>
                <path d="M194.249424,194.948185 C194.281013,196.587599 195.637028,197.890121 197.277728,197.857009 C198.917272,197.825438 200.22128,196.469783 200.188921,194.830754 C200.156176,193.19057 198.800162,191.888049 197.159847,191.92116 C195.520688,191.953502 194.217065,193.308001 194.249424,194.948185 L194.249424,194.948185 Z" id="Shape" fill="#9CC3C9" sketch:type="MSShapeGroup"></path>
                <ellipse id="Oval" fill="#9CC3C9" sketch:type="MSShapeGroup" cx="71.3155623" cy="67.057343" rx="2.81989324" ry="2.81834428"></ellipse>
                <path d="M64.2535018,60.6587004 C64.2781566,61.9146347 65.3171254,62.9122208 66.5729795,62.8871945 C67.8288336,62.8625532 68.8273532,61.8245401 68.8034689,60.5689908 C68.7776584,59.3134415 67.7390747,58.3154704 66.4832206,58.3404967 C65.2265961,58.364753 64.2292322,59.4031511 64.2535018,60.6587004 L64.2535018,60.6587004 Z" id="Shape" fill="#9CC3C9" sketch:type="MSShapeGroup"></path>
                <ellipse id="Oval" fill="#9CC3C9" sketch:type="MSShapeGroup" cx="59.5401966" cy="84.8679698" rx="2.81989324" ry="2.81834428"></ellipse>
                <path d="M64.9912198,86.2879225 C65.0224235,87.8437871 66.3094813,89.0797004 67.8662011,89.0492838 C69.4221504,89.0184823 70.6602838,87.7325164 70.6302358,86.1766518 C70.5978763,84.6211721 69.3104333,83.3844888 67.7548692,83.4156754 C66.1977642,83.4453219 64.9615569,84.7320578 64.9912198,86.2879225 L64.9912198,86.2879225 Z" id="Shape" fill="#9CC3C9" sketch:type="MSShapeGroup"></path>
                <ellipse id="Oval" fill="#9CC3C9" sketch:type="MSShapeGroup" cx="61.537621" cy="112.412665" rx="2.81950801" ry="2.81795926"></ellipse>
                <ellipse id="Oval" fill="#9CC3C9" sketch:type="MSShapeGroup" cx="72.2381913" cy="51.938774" rx="2.81989324" ry="2.81834428"></ellipse>
                <path d="M77.7269671,98.2362392 C77.7269671,98.2362392 93.9964413,98.8534258 102.475768,99.912615 C110.954324,100.971804 150.820372,102.100682 157.178615,85.8593955 C163.270278,70.2980539 149.407343,60.6479198 128.864113,61.6031537 C113.673672,62.3092799 91.4966753,71.8704744 91.4966753,71.8704744 C91.4966753,71.8704744 114.775433,60.0053219 126.479146,59.7512089 C143.54836,59.380435 159.4353,61.5962234 160.391829,78.817385 C161.098729,91.5280407 150.828462,99.4656071 134.956546,101.76687 C106.341949,105.915072 77.7269671,98.2362392 77.7269671,98.2362392 L77.7269671,98.2362392 Z" id="Shape" fill="#020203" sketch:type="MSShapeGroup"></path>
                <path d="M125.064191,101.766485 C125.064191,101.766485 121.177978,114.830589 115.525864,116.595904 C109.874135,118.360834 94.6833087,117.654708 94.6833087,110.240769 C94.6833087,102.826059 93.6231521,101.413807 93.6231521,101.413807 C93.6231521,101.413807 110.580264,102.825674 112.346935,102.825674 C114.113221,102.825289 125.064191,101.766485 125.064191,101.766485 L125.064191,101.766485 Z" id="Shape" fill="#020203" sketch:type="MSShapeGroup"></path>
                <path d="M138.665553,60.3687806 C138.665553,60.3687806 128.332109,39.184611 116.409585,36.5364455 C108.629838,34.808477 79.91354,30.0696544 67.7471646,47.0401682 C59.7108541,58.2507871 48.7594982,99.6481064 48.052984,102.825674 C47.346855,106.003242 42.753742,119.773472 42.753742,119.773472 L45.9334413,122.244913 C45.9334413,122.244913 50.1031851,103.109049 55.8246406,84.1133311 C60.9902073,66.9630131 67.6974698,49.8469619 68.8073212,48.4528055 C74.2833843,41.5682681 88.0831406,35.335184 101.307361,36.0074284 C116.940048,36.801724 121.916081,41.626406 125.15318,44.7458357 C132.571964,51.8956518 135.221585,60.104657 135.221585,60.104657 L138.665553,60.3687806 L138.665553,60.3687806 Z" id="Shape" fill="#020203" sketch:type="MSShapeGroup"></path>
                <path d="M112.435153,119.949811 C112.435153,119.949811 115.879506,120.214704 117.999434,118.890622 C120.118977,117.566539 122.503559,110.94651 122.503559,110.94651 C122.503559,110.94651 121.97348,118.272665 121.178363,119.066961 C120.384016,119.861641 112.435153,119.949811 112.435153,119.949811 L112.435153,119.949811 Z" id="Shape" fill="#020203" sketch:type="MSShapeGroup"></path>
                <path d="M100.777668,57.4561064 C100.777668,57.4561064 96.5385827,59.8393784 94.4186548,60.6336741 C92.2994973,61.4279698 87.5299484,59.3095913 87.5299484,59.3095913 C87.5299484,59.3095913 92.8295756,63.5467332 95.2137722,63.2818397 C97.5983541,63.0169461 100.777668,57.4561064 100.777668,57.4561064 L100.777668,57.4561064 Z" id="Shape" fill="#020203" sketch:type="MSShapeGroup"></path>
                <path d="M115.349428,53.4838581 C115.349428,53.4838581 115.956938,53.7822484 119.137022,54.576544 C122.315951,55.3712247 124.337645,54.0952694 125.418604,53.2189645 C126.266883,52.5313193 124.000953,56.236749 121.352102,56.5016426 C118.702096,56.7665361 115.349428,53.4838581 115.349428,53.4838581 L115.349428,53.4838581 Z" id="Shape" fill="#020203" sketch:type="MSShapeGroup"></path>
                <path d="M138.665553,102.737505 C138.665553,102.737505 139.725325,108.033451 140.519672,111.475912 C141.314404,114.918373 145.649412,129.080938 145.649412,129.080938 L147.23695,127.728749 C147.23695,127.728749 143.168907,113.329782 142.639214,111.211403 C142.109521,109.093025 140.254247,101.413422 140.254247,101.413422 L138.665553,102.737505 L138.665553,102.737505 Z" id="Shape" fill="#020203" sketch:type="MSShapeGroup"></path>
                <path d="M44.8728995,112.005314 C42.7533568,113.59429 40.8988532,118.360834 42.7533568,120.214319 C44.6078603,122.067804 68.9829867,129.482514 75.0773461,131.865786 C81.1713203,134.248673 107.401335,140.074406 110.580264,143.517252 C113.760349,146.959714 116.409199,153.579742 116.409199,153.579742 C116.409199,153.579742 103.956982,146.960099 100.512244,146.960099 C97.0675053,146.960099 71.6326077,144.047039 71.6326077,144.047039 L69.2480258,136.897608 L64.7442865,140.339685 C64.7442865,140.339685 58.9153514,137.427011 56.53154,136.367821 C54.1458025,135.309017 38.7793105,126.305331 37.4545,123.657551 C36.1296895,121.00977 37.4545,116.50812 37.4545,116.50812 C37.4545,116.50812 36.6597678,121.539172 38.5146566,122.598361 C40.3691601,123.657551 55.2063443,133.720041 57.325887,134.77923 C59.4458149,135.838419 64.2145934,138.221691 64.2145934,138.221691 L70.0435285,135.044509 L72.9581886,142.723727 C72.9581886,142.723727 85.9408692,144.312703 88.8559146,144.312703 C91.7698043,144.312703 103.957367,145.106999 106.342335,145.901294 C108.726146,146.69559 114.82012,150.932732 114.82012,150.932732 C114.82012,150.932732 111.111498,145.636401 109.256609,144.577212 C107.402491,143.518022 94.6844644,139.281265 90.7100329,138.221691 C86.7359867,137.162887 67.924371,131.601662 63.4202464,130.013071 C58.9161219,128.42448 41.1646628,122.333468 39.5748132,121.00977 C37.9853488,119.685687 39.0447349,117.567309 39.8394671,115.44893 C40.6338141,113.329397 44.8728995,112.005314 44.8728995,112.005314 L44.8728995,112.005314 Z" id="Shape" fill="#020203" sketch:type="MSShapeGroup"></path>
                <path d="M145.819299,120.744106 C145.819299,120.744106 146.613646,120.744106 147.408378,122.862485 C148.203496,124.980863 149.528691,126.834348 144.759142,129.482514 C139.989593,132.130679 133.630965,136.102543 130.98173,137.691519 C128.331723,139.280495 121.177978,141.663382 118.264088,145.635631 C115.349043,149.607494 111.905075,169.996983 112.170114,175.029191 C112.435153,180.060243 108.815134,221.105269 109.521649,222.8702 C110.227778,224.635515 114.113606,232.756351 116.939663,232.756351 C119.76572,232.756351 136.36919,232.403288 140.60789,231.697547 C144.846975,230.991035 154.386073,227.46079 158.978415,228.166916 C163.570758,228.872657 166.396815,232.05061 165.337429,233.109414 C164.277272,234.168988 167.456201,233.81631 168.163486,232.403673 C168.87,230.991035 164.277272,226.753894 161.804858,226.401601 C159.331673,226.048537 148.026674,227.460405 143.081845,228.872657 C138.135475,230.284909 122.238134,231.344484 120.472234,231.344484 C118.706334,231.344484 117.646177,232.04984 114.82012,227.460405 C111.993293,222.8702 111.641191,218.28115 111.641191,215.455875 C111.641191,212.630986 112.347706,179.442286 113.760349,174.499788 C115.172992,169.55652 117.29292,148.371966 119.76572,146.960099 C122.238905,145.547846 128.95079,141.663767 132.483746,139.545389 C136.016318,137.427011 143.435102,132.484127 145.201003,131.424938 C146.967288,130.365749 150.852731,125.422481 150.147373,122.951039 C149.440473,120.479213 145.819299,120.744106 145.819299,120.744106 L145.819299,120.744106 Z" id="Shape" fill="#020203" sketch:type="MSShapeGroup"></path>
                <path d="M119.412463,150.843407 C119.412463,150.843407 126.479146,148.371966 129.304818,147.312777 C132.13126,146.253587 143.435488,139.191941 143.435488,139.191941 L143.082616,136.367436 L147.321316,137.073562 C147.321316,137.073562 150.5014,136.720499 150.853887,134.249058 C151.207144,131.777616 150.147758,122.950654 150.147758,122.950654 C150.147758,122.950654 152.620173,130.718042 152.620173,132.130294 C152.620173,133.542547 148.027445,138.838878 148.027445,138.838878 L145.55503,138.132752 L145.55503,140.604193 C145.55503,140.604193 142.728973,142.722957 140.256173,144.135209 C137.782218,145.547461 119.412463,150.843407 119.412463,150.843407 L119.412463,150.843407 Z" id="Shape" fill="#020203" sketch:type="MSShapeGroup"></path>
                <path d="M163.570758,167.085079 C163.570758,167.085079 164.277272,170.968003 164.983786,177.676971 C165.691071,184.385555 167.1041,219.339954 166.750457,222.8702 C166.396815,226.401601 165.337429,230.637587 165.337429,230.637587 L168.163486,232.403673 C168.163486,232.403673 168.87,227.813853 169.576514,224.988963 C170.282258,222.164074 168.87,188.269248 167.456972,182.267176 C166.043558,176.265489 163.570758,167.085079 163.570758,167.085079 L163.570758,167.085079 Z" id="Shape" fill="#020203" sketch:type="MSShapeGroup"></path>
                <path d="M110.228163,225.341256 C110.228163,225.341256 111.287934,228.166531 109.522034,228.872272 C107.755363,229.578398 103.404175,231.520438 99.9829359,232.403288 C89.384452,235.139238 60.4169831,232.402903 52.9981984,226.401216 C45.5801842,220.398373 42.665524,215.984507 38.7793105,214.219192 C34.8923265,212.454261 39.3090036,217.662038 39.3090036,217.662038 C39.3090036,217.662038 40.8988532,219.956756 43.0183959,221.369008 C45.1379386,222.78126 50.1721415,228.872657 51.938427,229.225335 C53.7054831,229.578013 72.0752384,235.58047 76.667581,235.58047 C81.2599235,235.58047 97.5101361,236.992723 99.9825507,235.933148 C102.456121,234.874344 109.87452,228.871502 110.228163,225.341256 L110.228163,225.341256 Z" id="Shape" fill="#020203" sketch:type="MSShapeGroup"></path>
                <path d="M141.138738,68.2247227 C141.138738,68.2247227 136.193139,66.6361314 132.659797,67.8712746 C130.423529,68.6536347 125.241012,69.9900381 126.654426,72.4614796 C128.06784,74.9329212 133.012669,75.9917254 136.54524,75.2859842 C140.078582,74.5802431 142.550996,73.5210539 143.611153,71.7553535 C144.67131,69.9900381 143.964795,68.5781708 141.138738,68.2247227 L141.138738,68.2247227 Z" id="Shape" fill="#020203" sketch:type="MSShapeGroup"></path>
                <path d="M107.513052,50.1726886 C105.935915,49.3841682 104.950494,48.3007227 101.500747,48.4974678 C98.3252856,48.6788121 87.2171406,49.8396465 85.0359609,50.5665637 C82.6710258,51.3550841 81.0938888,52.5374796 81.0938888,52.5374796 C81.0938888,52.5374796 77.1498906,52.5374796 77.1498906,54.1137503 C77.1498906,55.690021 77.9388443,56.4785414 79.1218897,56.4785414 C80.3049351,56.4785414 80.4305205,56.7750066 80.6997972,59.6314678 C80.9952696,62.7843942 81.0938888,69.090247 83.0651174,70.2730276 C85.0363461,71.4550381 88.1913906,72.2435585 90.9519582,72.2435585 C93.7125258,72.2435585 94.8948007,69.8787674 94.8948007,69.8787674 C94.8948007,69.8787674 93.3184342,70.5687227 92.5294804,70.6669028 C88.4441023,71.1770539 84.7412589,69.2877622 83.8536859,67.5143614 C83.1479422,66.1044192 81.3897464,56.7746216 83.7558372,54.8040907 C86.1215427,52.8339448 88.9803443,52.1436045 93.7125258,51.7497293 C98.4443221,51.3558541 104.753641,50.5673338 105.936686,52.9321248 C107.120117,55.2965309 109.475036,62.0932838 108.696868,63.5729146 C107.709906,65.4456505 107.414819,65.5434455 107.414819,65.5434455 L111.851913,64.7553101 C111.851913,64.7553101 111.456665,59.6318528 111.062189,57.2670618 C110.668867,54.9026557 110.668097,54.9026557 112.245619,54.1141353 C113.823141,53.326 114.61171,53.326 115.794755,54.9026557 C116.977415,56.4789264 119.737983,61.9966439 119.737983,61.9966439 L122.892642,61.9966439 C122.892642,61.9966439 122.104074,60.026113 120.921414,58.8437175 C119.737983,57.6613219 116.977415,52.5378647 118.160076,50.9608239 C119.342736,49.3845532 121.315505,47.4140223 124.469779,47.0201472 C127.624053,46.626272 133.104354,46.2597332 135.710059,46.724452 C138.469856,47.2168922 139.805838,48.695753 140.638323,51.3554691 C142.117226,56.0846662 140.614439,60.9301393 140.614439,60.9301393 L143.311058,61.0263942 C143.311058,61.0263942 144.186689,56.8731866 143.791827,54.9026557 C143.398505,52.9317398 142.802552,50.7448279 143.985213,49.9570775 C145.168643,49.1685572 144.186689,47.4144074 144.186689,47.4144074 L141.820213,46.626272 C141.820213,46.626272 138.863948,44.7539212 137.28604,44.7539212 C135.709673,44.7539212 127.624053,43.8668357 124.075688,44.6557411 C120.526166,45.4442615 117.372278,47.0205322 116.188462,47.8086675 C115.005416,48.5964179 113.427894,49.7788134 112.245234,49.7788134 C111.061418,49.7780434 107.513052,50.1726886 107.513052,50.1726886 L107.513052,50.1726886 Z" id="Shape" fill="#020203" sketch:type="MSShapeGroup"></path>
                <path d="M165.336658,170.262261 C165.336658,170.262261 196.954133,147.754394 199.073676,143.517252 C201.193219,139.280495 209.495339,129.30579 210.201853,124.716355 C210.907597,120.126535 211.614882,118.360834 210.201853,113.417951 C208.788825,108.475068 209.848981,111.299958 208.08154,114.830204 C207.926677,115.1413 207.763339,115.430449 207.591911,115.695728 C205.81715,118.438993 203.241494,118.599932 200.663911,113.770629 C197.837854,108.474683 192.891484,98.5885322 193.951641,96.1170907 C195.011797,93.6460342 192.18574,94.7048384 192.18574,97.1762799 C192.18574,99.6477214 195.717926,109.180424 196.777698,112.005314 C197.837854,114.829819 199.956626,118.007771 202.430582,119.420024 C204.902996,120.831891 207.287964,121.802911 209.407121,121.802911 C211.526664,121.802911 209.760378,123.303332 207.287964,127.893152 C204.814778,132.483357 201.017553,139.191556 198.544368,142.369124 C196.071569,145.547461 165.336658,170.262261 165.336658,170.262261 L165.336658,170.262261 Z" id="Shape" fill="#020203" sketch:type="MSShapeGroup"></path>
                <path d="M189.800388,97.706067 C189.800388,97.706067 185.031609,105.650179 182.647413,108.033451 C180.262831,110.416723 178.672596,115.977562 174.433896,118.626113 C170.195196,121.273894 162.776411,122.597976 159.861751,122.597976 C156.947091,122.597976 152.178312,123.657166 151.38281,123.392272 C150.588463,123.127763 151.38281,124.451461 153.767391,124.186568 C156.151973,123.922059 158.801209,134.513951 159.596712,137.691904 C160.391444,140.869857 161.186176,154.639702 161.186176,154.639702 C161.186176,154.639702 161.45083,140.075176 160.656098,136.103313 C159.861751,132.131064 158.536555,125.511035 157.742208,124.71674 C156.947091,123.922444 165.690301,123.392657 168.074883,122.333083 C170.45985,121.274279 174.168472,121.009385 175.757551,119.420794 C177.348171,117.831817 183.176335,111.476682 184.236877,109.358304 C185.296649,107.239155 189.800388,97.706067 189.800388,97.706067 L189.800388,97.706067 Z" id="Shape" fill="#020203" sketch:type="MSShapeGroup"></path>
                <path d="M34.6292135,121.89185 C34.6292135,121.89185 37.4552705,119.066961 30.743,127.540859 C24.0307295,136.014373 22.2640587,145.195553 19.7916441,150.843407 C17.3188443,156.492417 16.259073,169.909583 15.1996868,173.793277 C14.1395302,177.676586 9.19470107,184.38594 13.0789884,187.916185 C16.965202,191.446431 27.5640712,200.626456 34.2755712,198.861141 C40.9870712,197.095825 45.933056,196.390084 46.2866984,194.977832 C46.6399555,193.564809 47.3464698,180.148798 47.3464698,176.265104 C47.3464698,172.38064 50.1729119,157.904284 50.1729119,153.314849 C50.1729119,148.725029 50.1729119,138.485815 49.1127553,136.014373 C48.0525988,133.542932 45.2265418,131.424938 45.2265418,131.424938 C45.2265418,131.424938 46.6391851,135.308247 47.3464698,137.426625 C48.0525988,139.545004 47.6997269,150.843022 47.6997269,153.314849 C47.6997269,155.786675 44.1663852,192.506005 44.1663852,192.506005 C44.1663852,192.506005 42.4012553,193.212131 39.5748132,194.977832 C36.748371,196.742377 33.9215436,197.801951 31.8023861,197.095825 C29.6824582,196.390084 17.6717162,189.327668 16.6115596,188.268863 C15.551403,187.210059 13.4322456,185.797422 13.4322456,185.797422 C13.4322456,185.797422 15.551403,177.323523 15.9050454,175.558208 C16.2586877,173.793277 20.4973879,155.079779 21.5579297,152.256045 C22.6177011,149.431155 28.9751735,133.189869 30.3889724,131.424938 C31.8027714,129.658853 34.6292135,121.89185 34.6292135,121.89185 L34.6292135,121.89185 Z" id="Shape" fill="#020203" sketch:type="MSShapeGroup"></path>
                <path d="M193.951641,96.1174757 C193.951641,96.1174757 197.484982,77.0512996 200.664681,70.6965493 C203.84361,64.3414139 205.256639,63.6349028 210.909138,58.3389566 C216.561637,53.0430105 223.019655,50.9835401 226.905483,49.9247359 C230.791311,48.8659317 235.285035,48.4531905 237.757449,51.6307582 C240.229864,54.8087109 240.259912,58.1383614 238.816835,60.4573351 C236.125609,64.7811064 234.35316,68.1488739 230.757796,70.4589921 C227.167826,72.7656452 221.507622,76.6986216 220.800337,78.4639369 C220.093438,80.2296373 221.683673,77.7581958 225.569116,79.8765742 C229.455329,81.9949527 229.984252,84.4660092 229.631765,87.2905138 C229.278893,90.1150184 230.692307,91.5272707 231.398821,94.7052234 C232.105335,97.8831761 232.811079,102.472611 230.691536,104.238311 C228.571994,106.003627 226.806093,107.415494 222.567008,109.181194 C218.327537,110.94651 214.088067,111.652636 213.02791,110.240384 C211.968524,108.828131 212.321396,109.533873 210.55511,111.299188 C208.788825,113.064888 205.696958,118.312322 205.696958,118.312322 L202.892859,117.429857 C202.892859,117.429857 208.081925,108.474683 209.495724,108.474683 C210.909138,108.474683 208.097335,107.774717 210.202238,102.825674 C211.399923,100.009255 211.592538,98.8541958 211.592538,98.8541958 C211.592538,98.8541958 208.083466,100.707296 206.316795,98.2366242 C204.549354,95.7651827 208.78921,85.1725204 211.615267,82.7010788 C214.441709,80.2300223 217.621023,78.1112589 217.621023,78.1112589 C217.621023,78.1112589 224.333679,72.8153127 226.099964,71.0499974 C227.865865,69.284297 233.870851,65.0475401 235.284649,60.105042 C236.697678,55.161774 237.660756,55.2838252 235.894471,53.5185099 C234.12857,51.7531945 226.834215,51.1621892 223.273137,53.0433955 C219.457806,55.0585887 215.50148,57.2801524 212.322552,60.4577201 C209.142852,63.6352878 204.903767,67.1659185 202.784224,71.0499974 C200.664681,74.9336912 198.545139,84.4663942 197.13211,89.4096623 C195.718311,94.3529304 193.598769,100.355003 193.598769,100.355003 L192.18574,97.177435 L193.951641,96.1174757 L193.951641,96.1174757 Z" id="Shape" fill="#020203" sketch:type="MSShapeGroup"></path>
                <path d="M219.211258,80.0525283 C219.211258,80.0525283 218.150716,80.0525283 216.737688,81.2884415 C215.324274,82.5243548 212.498217,83.583159 211.438831,85.1721353 C210.378674,86.7607267 207.552617,91.7039947 207.729824,93.6460342 C207.905489,95.5873035 208.083081,96.9999409 209.142467,97.1766649 C210.201853,97.3530039 210.907597,98.7656413 215.324274,96.2941997 C219.740951,93.8223732 225.39268,90.1150184 226.2764,88.173364 C227.158965,86.2317096 227.512222,85.5255834 226.452451,83.583929 C225.39268,81.6415046 222.390187,78.2872129 219.211258,80.0525283 L219.211258,80.0525283 Z" id="Shape" fill="#B6CBCF" sketch:type="MSShapeGroup"></path>
                <path d="M227.86548,91.8803338 C227.86548,91.8803338 223.803215,94.1754363 222.390187,94.7048384 C220.976388,95.2342405 217.797459,96.4701537 216.207609,96.8232168 C214.618145,97.1762799 213.911246,98.4118081 213.381552,99.8240604 C212.851859,101.236313 210.731546,106.179581 211.614882,106.885322 C212.498217,107.591448 214.088837,109.709827 215.501095,109.533102 C216.914124,109.356763 223.979266,107.415109 226.452451,105.649409 C228.925251,103.884093 230.691536,103.177967 230.691536,101.942439 C230.691536,100.706526 231.221615,95.9399816 230.161843,94.5281143 C229.102457,93.116247 228.925251,92.0570578 227.86548,91.8803338 L227.86548,91.8803338 Z" id="Shape" fill="#B6CBCF" sketch:type="MSShapeGroup"></path>
                <path d="M15.1996868,190.034179 C15.1996868,190.034179 15.552944,190.387242 14.1395302,194.623614 C12.7265018,198.861141 13.0789884,202.171155 9.90005961,205.348338 C6.71997509,208.52629 0.00847508897,215.102427 0.00847508897,217.926547 C0.00847508897,220.751051 0.0092455516,224.988193 4.60158808,223.222878 C8.57910142,221.69358 14.4126593,218.310796 15.902734,217.432566 C16.1331023,217.296654 16.259073,217.220806 16.259073,217.220806 L4.95407473,226.047382 C4.95407473,226.047382 0.474990214,231.187011 1.42150356,233.550261 C3.01058274,237.52174 8.26552313,237.585268 13.0789884,235.5797 C14.1387598,235.138853 12.4163906,238.846208 12.4163906,238.846208 C12.4163906,238.846208 12.9464689,243.87726 18.0249733,242.994025 C21.1765507,242.446142 33.5686717,238.40459 34.6292135,232.755196 C35.6889849,227.105802 38.5589582,221.059067 38.9118301,213.292064 C39.264702,205.524677 38.8682989,197.801181 38.8682989,197.801181 L36.3951139,198.860371 C36.3951139,198.860371 38.1625552,207.334269 37.4552705,211.571411 C36.7487562,215.808168 36.5280187,221.765963 34.8052642,226.532892 C33.3017064,230.6938 32.8182411,233.41743 29.6393123,236.594997 C26.4592278,239.772565 19.2758194,240.980757 18.2460961,241.22871 C14.4041842,242.155837 13.7419715,236.63889 15.8618995,234.873574 C17.9810569,233.108259 22.9709582,232.402133 25.0912714,228.518054 C27.2108141,224.63436 28.2705854,217.220035 28.2705854,217.220035 C28.2705854,217.220035 25.7970151,224.281297 21.9115721,228.164606 C18.0253585,232.04907 11.6663452,233.815155 10.253702,234.167833 C8.84067349,234.520511 4.91054359,235.006021 4.20402936,232.887643 C3.49712989,230.769264 6.72113078,227.458865 8.4878016,226.046612 C10.253702,224.63436 15.5521735,221.102959 17.6724867,218.632288 C19.7920294,216.160846 23.0591762,210.511452 23.4124333,209.452263 C23.5457233,209.054922 20.8737589,211.342325 17.5834982,214.218422 C14.7566708,216.690248 8.84067349,219.338414 7.07400267,220.04454 C5.30810231,220.750281 2.57026335,222.118641 2.216621,220.706774 C1.86297865,219.294137 1.51010676,216.028399 4.33577847,213.556958 C7.16222064,211.085516 12.6818149,205.171229 13.7419715,202.699787 C14.8021281,200.229116 16.6123301,191.092598 16.6123301,191.092598 L15.1996868,190.034179 L15.1996868,190.034179 Z" id="Shape" fill="#020203" sketch:type="MSShapeGroup"></path>
                <path d="M36.6593826,226.135937 C36.6593826,226.135937 38.463806,235.712147 41.6431201,238.8901 C44.8228194,242.067668 60.5055863,254.469922 75.6074244,254.469922 C90.7088772,254.469922 106.608144,255.794005 128.862572,255.794005 C151.117,255.794005 149.737487,253.982488 164.83894,250.011394 C179.940392,246.039531 188.683217,235.712147 195.836577,226.974125 C202.989167,218.236102 203.84361,204.157087 212.586435,200.184838 C221.32926,196.21336 222.124762,197.272164 222.124762,191.711325 C222.124762,186.1501 215.50071,179.79535 209.142467,180.58926 C202.784224,181.383556 194.353437,181.343899 188.189736,185.001586 C177.064255,191.603519 173.403402,188.186084 167.810229,193.829703 C166.542432,195.108353 168.075268,200.979134 168.075268,200.979134 C168.075268,200.979134 166.485418,199.92033 170.460235,195.153401 C174.433896,190.386857 184.386347,190.968622 187.94627,188.00397 C195.895518,181.383941 206.493231,182.708024 209.672545,182.708024 C212.851474,182.708024 219.182366,192.58917 219.182366,192.58917 C219.182366,192.58917 211.733148,195.993899 207.759487,199.965762 C203.78544,203.93724 195.630864,224.017558 191.655662,227.989422 C187.682001,231.960515 178.672211,241.229865 164.365875,247.585 C150.059155,253.93975 135.431536,253.188962 129.867641,253.188962 C124.303359,253.188962 102.103249,252.555219 96.4854208,252.394666 C67.1292536,251.557248 60.6712358,247.703971 54.3599911,243.656644 C39.8386966,234.344942 40.8988532,226.930618 38.5142714,223.753435 C36.1293043,220.575482 36.6593826,226.135937 36.6593826,226.135937 L36.6593826,226.135937 Z" id="Shape" fill="#020203" sketch:type="MSShapeGroup"></path>
                <path d="M205.962768,182.972917 C205.962768,182.972917 209.142082,180.854154 211.791703,176.88229 C214.440939,172.910427 213.911246,150.137281 213.116128,146.165418 C212.321011,142.193555 211.447691,140.965342 213.116128,138.220921 C214.877406,135.323263 219.210102,134.513951 220.534913,137.426625 C221.859338,140.339685 223.183763,157.551991 223.183763,157.551991 C223.183763,157.551991 222.389416,139.280495 222.389416,137.162117 C222.389416,135.043739 217.620638,128.158431 220.535298,125.775159 C223.449188,123.391887 228.219122,128.423325 228.484161,130.541703 C228.7492,132.660081 230.07324,139.545004 229.808586,142.722957 C229.543547,145.900524 227.954853,153.049955 227.954853,153.049955 C227.954853,153.049955 230.867972,144.841335 231.398436,140.074406 C231.928129,135.308247 229.278893,124.71597 230.073625,123.127378 C230.867972,121.538402 232.458593,120.214319 233.783018,120.744106 C235.108214,121.273894 238.552567,127.364135 237.757064,132.130679 C236.962717,136.897223 233.517979,155.433227 231.663475,158.081008 C229.808972,160.729558 227.689814,162.318535 227.689814,162.318535 C227.689814,162.318535 232.9879,158.61118 234.048057,155.963399 C235.108599,153.314849 235.638677,146.959714 238.022488,143.781761 C240.4063,140.604193 241.731881,137.956413 244.911195,135.308247 C248.090124,132.660081 249.680744,131.865786 250.74013,133.454762 C251.800286,135.043353 252.32998,138.220921 249.680744,139.809898 C247.031123,141.398874 246.236391,141.663382 243.851038,146.429926 C241.466842,151.19647 236.962717,157.551991 234.843174,159.670369 C232.723632,161.788363 234.843174,160.199771 238.022488,157.551991 C241.201802,154.903825 241.996535,151.725873 243.851038,149.872773 C245.705542,148.019288 246.236005,146.69482 248.354778,145.635631 C250.475091,144.576442 251.92202,143.66741 252.716752,146.051067 C253.511484,148.433954 252.859673,150.137666 250.475091,151.990766 C248.090124,153.844636 240.935993,159.670369 237.757064,161.523854 C234.57775,163.377724 231.398436,167.085079 231.398436,167.085079 C231.398436,167.085079 232.987515,167.349972 234.842789,166.025505 C236.696907,164.701422 240.670954,160.729558 242.792037,159.670369 C244.91081,158.61118 247.560045,158.346671 248.884856,158.346671 C250.209281,158.346671 251.799516,158.875689 251.269052,161.258961 C250.739359,163.642233 250.404979,164.467715 248.089353,165.495717 C245.143875,166.803244 243.406481,167.740382 241.466071,168.938179 C235.648693,172.529258 235.902175,171.321451 231.66309,175.823101 C227.424004,180.324752 225.569501,182.179007 221.595069,186.415763 C217.620638,190.65252 216.030788,193.300301 213.381938,191.71171 C210.731546,190.122733 205.962768,182.972917 205.962768,182.972917 L205.962768,182.972917 Z" id="Shape" fill="#97B2B2" sketch:type="MSShapeGroup"></path>
                <path d="M90.9735311,99.8606373 C90.9735311,99.8606373 94.0711762,100.505545 95.0026655,100.660323 C95.9372367,100.814331 100.385503,101.536628 100.385503,101.536628 C100.385503,101.536628 97.243556,106.857601 96.5301077,107.493653 C95.8166593,108.128551 93.4594288,109.985116 92.9008434,109.687495 C92.3414875,109.39026 91.872661,106.439469 91.611089,105.58203 C91.3491317,104.726131 90.9735311,99.8606373 90.9735311,99.8606373 L90.9735311,99.8606373 Z" id="Shape" fill="#F2E7CC" sketch:type="MSShapeGroup"></path>
                <path d="M92.403895,99.9634376 L90.2608532,99.7716978 C90.2608532,99.7716978 89.620984,109.066844 91.8360641,110.059424 C94.0484475,111.049695 96.3340249,109.560439 97.9554635,106.867996 C99.5753612,104.174013 101.686814,101.631728 101.686814,101.631728 L98.6519617,101.026092 C98.6519617,101.026092 96.0913292,107.805134 94.2098594,108.552072 C92.3287749,109.299011 92.4397215,107.939506 92.0606539,105.053398 C91.714331,102.406388 92.403895,99.9634376 92.403895,99.9634376 L92.403895,99.9634376 Z" id="Shape" fill="#020203" sketch:type="MSShapeGroup"></path>
                <path d="M94.6197456,101.228227 L93.0992375,101.025322 L92.6662375,100.927527 C92.6662375,100.927527 92.3873301,101.660604 92.3780845,101.943979 C92.3715356,102.226583 92.1977963,105.260539 92.2609742,105.729878 C92.3249226,106.199602 92.5899617,107.795894 92.8110845,108.072723 C93.0337482,108.352247 93.5657527,108.387284 93.5657527,108.387284 C93.5657527,108.387284 93.5734573,108.103909 93.4058817,107.838631 C93.2379208,107.573352 93.1909226,105.143493 93.326524,104.548637 C93.4601993,103.951857 94.6197456,101.228227 94.6197456,101.228227 L94.6197456,101.228227 Z" id="Shape" fill="#FFFFFF" sketch:type="MSShapeGroup"></path>
                <path d="M95.5677998,101.185875 L98.2235845,101.531238 C98.2235845,101.531238 96.810556,104.370373 96.532419,105.032222 C96.2546673,105.694841 94.8713016,108.028445 94.5095694,108.11623 C94.147452,108.205555 94.5469368,107.953752 94.6440151,107.336565 C94.7418639,106.718993 96.4453568,103.348531 96.2939609,102.887662 C96.1417945,102.425639 95.5677998,101.185875 95.5677998,101.185875 L95.5677998,101.185875 Z" id="Shape" fill="#E2C993" sketch:type="MSShapeGroup"></path>
                <path d="M80.1103932,98.4041078 C80.1103932,98.4041078 83.209194,99.0494008 84.140298,99.2037937 C85.0737135,99.3581866 89.5231352,100.080484 89.5231352,100.080484 C89.5231352,100.080484 86.3811886,105.401071 85.6669698,106.036739 C84.9542918,106.671636 82.5970614,108.528971 82.0380907,108.230966 C81.4783496,107.934116 81.0099084,104.98294 80.7475658,104.125886 C80.4859938,103.269602 80.1103932,98.4041078 80.1103932,98.4041078 L80.1103932,98.4041078 Z" id="Shape" fill="#F2E7CC" sketch:type="MSShapeGroup"></path>
                <path d="M81.5411423,98.506908 L79.3981005,98.3151682 C79.3981005,98.3151682 78.7582313,107.610314 80.9729262,108.602895 C83.1853096,109.593166 85.470887,108.103909 87.0923256,105.411852 C88.7122233,102.717484 90.8236762,100.175583 90.8236762,100.175583 L87.7892091,99.5703325 C87.7892091,99.5703325 85.2281913,106.349375 83.3471068,107.096313 C81.4660222,107.843251 81.5773541,106.484131 81.197516,103.597639 C80.8515783,100.950243 81.5411423,98.506908 81.5411423,98.506908 L81.5411423,98.506908 Z" id="Shape" fill="#020203" sketch:type="MSShapeGroup"></path>
                <path d="M83.7566077,99.7716978 L82.2360996,99.5687924 L81.8034849,99.4706124 C81.8034849,99.4706124 81.5234217,100.204075 81.5145614,100.487064 C81.5087829,100.769669 81.3346584,103.803624 81.3982215,104.273348 C81.4617847,104.743072 81.7272091,106.339364 81.9487171,106.616193 C82.1706103,106.895332 82.7026148,106.930754 82.7026148,106.930754 C82.7026148,106.930754 82.7107046,106.646995 82.5427438,106.381716 C82.3751681,106.116438 82.3277847,103.686578 82.4637714,103.092108 C82.5978319,102.495327 83.7566077,99.7716978 83.7566077,99.7716978 L83.7566077,99.7716978 Z" id="Shape" fill="#FFFFFF" sketch:type="MSShapeGroup"></path>
                <path d="M84.7054324,99.7297306 L87.3608319,100.074708 C87.3608319,100.074708 85.9478034,102.913844 85.6692811,103.575693 C85.3915294,104.238311 84.0081637,106.571531 83.6468167,106.6597 C83.2843141,106.749025 83.6845694,106.497222 83.7812625,105.87965 C83.8779555,105.262079 85.5822189,101.891616 85.430823,101.430748 C85.2790418,100.969109 84.7054324,99.7297306 84.7054324,99.7297306 L84.7054324,99.7297306 Z" id="Shape" fill="#E2C993" sketch:type="MSShapeGroup"></path>
                <path d="M102.100552,101.452694 C102.100552,101.452694 105.238262,101.864665 106.178226,101.949754 C107.120887,102.033689 111.611528,102.422943 111.611528,102.422943 C111.611528,102.422943 108.87523,107.962992 108.210321,108.650252 C107.547338,109.336742 105.33534,111.363871 104.755952,111.108603 C104.175794,110.854105 103.487385,107.946051 103.16225,107.110943 C102.8375,106.276221 102.100552,101.452694 102.100552,101.452694 L102.100552,101.452694 Z" id="Shape" fill="#F2E7CC" sketch:type="MSShapeGroup"></path>
                <path d="M103.534769,101.448074 L101.383252,101.417272 C101.383252,101.417272 101.437955,110.733594 103.720835,111.558306 C106.000249,112.381093 108.168716,110.725124 109.584827,107.920255 C111.000552,105.112691 112.915536,102.420633 112.915536,102.420633 L109.844858,102.042929 C109.844858,102.042929 107.796198,108.99446 105.97598,109.87962 C104.155762,110.764396 104.165007,109.401041 103.571366,106.55074 C103.028575,103.936071 103.534769,101.448074 103.534769,101.448074 L103.534769,101.448074 Z" id="Shape" fill="#020203" sketch:type="MSShapeGroup"></path>
                <path d="M105.838452,102.54461 L104.306002,102.456055 L103.867994,102.390217 C103.867994,102.390217 103.643019,103.142545 103.655731,103.42515 C103.669985,103.707369 103.722762,106.745945 103.821766,107.209509 C103.92077,107.673072 104.304076,109.245493 104.54523,109.504996 C104.787541,109.766809 105.320316,109.762189 105.320316,109.762189 C105.320316,109.762189 105.307603,109.478815 105.119996,109.227012 C104.933544,108.974824 104.705487,106.55536 104.795631,105.952034 C104.885775,105.346783 105.838452,102.54461 105.838452,102.54461 L105.838452,102.54461 Z" id="Shape" fill="#FFFFFF" sketch:type="MSShapeGroup"></path>
                <path d="M106.781113,102.431414 L109.454233,102.578106 C109.454233,102.578106 108.25809,105.513882 108.029648,106.194982 C107.802746,106.876466 106.596972,109.306711 106.24256,109.421447 C105.888147,109.537338 106.267985,109.256273 106.318065,108.633696 C106.369686,108.01035 107.817,104.522456 107.630933,104.074293 C107.445637,103.62536 106.781113,102.431414 106.781113,102.431414 L106.781113,102.431414 Z" id="Shape" fill="#E2C993" sketch:type="MSShapeGroup"></path>
                <path d="M113.988406,102.289342 C113.988406,102.289342 117.153081,102.235439 118.094972,102.181151 C119.039944,102.125323 123.538675,101.849649 123.538675,101.849649 C123.538675,101.849649 121.649116,107.73198 121.092456,108.50972 C120.538109,109.286305 118.647778,111.616829 118.037187,111.449346 C117.426595,111.283017 116.316744,108.507795 115.872187,107.72967 C115.4284,106.95193 113.988406,102.289342 113.988406,102.289342 L113.988406,102.289342 Z" id="Shape" fill="#F2E7CC" sketch:type="MSShapeGroup"></path>
                <path d="M115.406442,102.074116 L113.273802,102.3598 C113.273802,102.3598 114.699157,111.567162 117.079887,112.046896 C119.455223,112.525091 121.356725,110.56842 122.343688,107.585288 C123.331036,104.600615 124.828044,101.655984 124.828044,101.655984 L121.735022,101.734143 C121.735022,101.734143 120.73188,108.910911 119.062673,110.054034 C117.392695,111.197543 117.201235,109.846894 116.19424,107.115564 C115.273152,104.609085 115.406442,102.074116 115.406442,102.074116 L115.406442,102.074116 Z" id="Shape" fill="#020203" sketch:type="MSShapeGroup"></path>
                <path d="M117.846497,102.819899 L116.319055,102.956581 L115.875269,102.956196 C115.875269,102.956196 115.763937,103.733551 115.817484,104.011535 C115.874498,104.288749 116.372602,107.286512 116.539022,107.72967 C116.706213,108.173983 117.316804,109.67248 117.593015,109.894251 C117.871537,110.117562 118.398149,110.034783 118.398149,110.034783 C118.398149,110.034783 118.34306,109.756414 118.121167,109.534258 C117.899274,109.313256 117.316804,106.95347 117.319116,106.343214 C117.31719,105.731418 117.846497,102.819899 117.846497,102.819899 L117.846497,102.819899 Z" id="Shape" fill="#FFFFFF" sketch:type="MSShapeGroup"></path>
                <path d="M118.762577,102.568866 L121.428763,102.320528 C121.428763,102.320528 120.677948,105.400686 120.552362,106.107967 C120.427547,106.815248 119.593136,109.39642 119.259141,109.561979 C118.926686,109.729078 119.260681,109.39488 119.219077,108.771534 C119.176701,108.147417 120.095863,104.484724 119.845463,104.068518 C119.595062,103.651926 118.762577,102.568866 118.762577,102.568866 L118.762577,102.568866 Z" id="Shape" fill="#E2C993" sketch:type="MSShapeGroup"></path>
                <path d="M125.209423,101.422662 C125.209423,101.422662 128.372558,101.337188 129.313678,101.27366 C130.25865,101.208591 134.7543,100.88787 134.7543,100.88787 C134.7543,100.88787 132.923295,106.789067 132.374341,107.571812 C131.827698,108.354172 129.961252,110.702792 129.348734,110.541854 C128.735446,110.381301 127.598628,107.617629 127.146752,106.844125 C126.695261,106.07062 125.209423,101.422662 125.209423,101.422662 L125.209423,101.422662 Z" id="Shape" fill="#F2E7CC" sketch:type="MSShapeGroup"></path>
                <path d="M126.625149,101.193191 L124.494819,101.500051 C124.494819,101.500051 126.013016,110.692397 128.397598,111.14903 C130.778327,111.603353 132.659797,109.627817 133.617867,106.635059 C134.574397,103.640761 136.042899,100.681499 136.042899,100.681499 L132.950647,100.79046 C132.950647,100.79046 132.019157,107.976853 130.361507,109.136532 C128.702316,110.296597 128.497758,108.947873 127.463412,106.226553 C126.516513,103.729315 126.625149,101.193191 126.625149,101.193191 L126.625149,101.193191 Z" id="Shape" fill="#020203" sketch:type="MSShapeGroup"></path>
                <path d="M129.073294,101.914332 L127.546622,102.0668 L127.102835,102.07065 C127.102835,102.07065 126.998438,102.848775 127.056222,103.12676 C127.114778,103.402819 127.6437,106.395962 127.814358,106.83758 C127.9854,107.280352 128.610631,108.772689 128.889923,108.99138 C129.170757,109.211611 129.696598,109.123827 129.696598,109.123827 C129.696598,109.123827 129.638428,108.845842 129.415379,108.626381 C129.191174,108.407305 128.58482,106.053294 128.580198,105.443038 C128.572493,104.831242 129.073294,101.914332 129.073294,101.914332 L129.073294,101.914332 Z" id="Shape" fill="#FFFFFF" sketch:type="MSShapeGroup"></path>
                <path d="M129.985907,101.654444 L132.649396,101.379925 C132.649396,101.379925 131.929399,104.467783 131.811133,105.175834 C131.693252,105.884271 130.884266,108.473913 130.552197,108.642552 C130.221283,108.813116 130.552197,108.475838 130.503657,107.852491 C130.455118,107.229145 131.338069,103.557212 131.083816,103.1437 C130.829948,102.729034 129.985907,101.654444 129.985907,101.654444 L129.985907,101.654444 Z" id="Shape" fill="#E2C993" sketch:type="MSShapeGroup"></path>
                <path d="M136.496316,100.336907 C136.496316,100.336907 139.545807,99.4940986 140.445322,99.2061038 C141.346763,98.9157989 145.633232,97.5243377 145.633232,97.5243377 C145.633232,97.5243377 145.274582,103.692353 144.930185,104.584059 C144.588485,105.47461 143.341876,108.202859 142.708171,108.193619 C142.07408,108.185534 140.307409,105.775695 139.681408,105.133482 C139.056948,104.491269 136.496316,100.336907 136.496316,100.336907 L136.496316,100.336907 Z" id="Shape" fill="#F2E7CC" sketch:type="MSShapeGroup"></path>
                <path d="M137.816118,99.7740079 L135.822161,100.583704 C135.822161,100.583704 139.506128,109.141922 141.930004,109.012171 C144.350412,108.881264 145.701803,106.511468 145.911369,103.376252 C146.120165,100.239882 146.832843,97.0145716 146.832843,97.0145716 L143.858472,97.8635401 C143.858472,97.8635401 144.682481,105.062639 143.351892,106.586547 C142.020533,108.110455 141.497774,106.85144 139.839738,104.458158 C138.320771,102.26162 137.816118,99.7740079 137.816118,99.7740079 L137.816118,99.7740079 Z" id="Shape" fill="#020203" sketch:type="MSShapeGroup"></path>
                <path d="M140.365194,99.8860486 L138.919806,100.40082 L138.489888,100.510936 C138.489888,100.510936 138.576565,101.291756 138.698683,101.547409 C138.821957,101.801522 140.055083,104.579439 140.327056,104.967154 C140.600185,105.355639 141.565575,106.65431 141.88994,106.799463 C142.214304,106.946155 142.703933,106.734394 142.703933,106.734394 C142.703933,106.734394 142.58143,106.478741 142.310612,106.319343 C142.040565,106.16033 140.885641,104.021545 140.734631,103.430155 C140.581309,102.83761 140.365194,99.8860486 140.365194,99.8860486 L140.365194,99.8860486 Z" id="Shape" fill="#FFFFFF" sketch:type="MSShapeGroup"></path>
                <path d="M141.189204,99.4143995 L143.708231,98.5080631 C143.708231,98.5080631 143.750992,101.678315 143.807621,102.394067 C143.863865,103.110204 143.700912,105.818432 143.419308,106.06138 C143.138474,106.306252 143.378859,105.899671 143.182391,105.305971 C142.985152,104.712656 142.958956,100.936382 142.612633,100.596025 C142.26554,100.254898 141.189204,99.4143995 141.189204,99.4143995 L141.189204,99.4143995 Z" id="Shape" fill="#E2C993" sketch:type="MSShapeGroup"></path>
                <path d="M145.959523,97.3633995 C145.959523,97.3633995 148.854151,96.084749 149.702045,95.6685427 C150.55071,95.2496413 154.587934,93.2475388 154.587934,93.2475388 C154.587934,93.2475388 155.135348,99.4016938 154.925012,100.333827 C154.716216,101.265189 153.88219,104.146292 153.255034,104.229071 C152.625951,104.31339 150.525285,102.188081 149.811836,101.644049 C149.099544,101.100016 145.959523,97.3633995 145.959523,97.3633995 L145.959523,97.3633995 Z" id="Shape" fill="#F2E7CC" sketch:type="MSShapeGroup"></path>
                <path d="M147.183403,96.6141511 L145.328899,97.706452 C145.328899,97.706452 150.224804,105.634778 152.603993,105.152348 C154.978173,104.669919 155.969374,102.128018 155.718973,98.9962681 C155.467032,95.8629777 155.700867,92.568364 155.700867,92.568364 L152.88213,93.8423942 C152.88213,93.8423942 154.750117,100.844363 153.655289,102.545765 C152.562003,104.248322 151.861652,103.078632 149.870777,100.953323 C148.046706,99.0012733 147.183403,96.6141511 147.183403,96.6141511 L147.183403,96.6141511 Z" id="Shape" fill="#020203" sketch:type="MSShapeGroup"></path>
                <path d="M149.721307,96.3527227 L148.366834,97.0727096 L147.957718,97.2448134 C147.957718,97.2448134 148.158038,98.0040723 148.315213,98.2393193 C148.475469,98.4722562 150.10153,101.040723 150.42628,101.38493 C150.753727,101.729523 151.897479,102.873032 152.239564,102.969286 C152.583576,103.066696 153.036222,102.786017 153.036222,102.786017 C153.036222,102.786017 152.876737,102.55077 152.586272,102.432954 C152.295808,102.314753 150.840019,100.367323 150.603872,99.8044244 C150.366569,99.2411406 149.721307,96.3527227 149.721307,96.3527227 L149.721307,96.3527227 Z" id="Shape" fill="#FFFFFF" sketch:type="MSShapeGroup"></path>
                <path d="M150.467885,95.7659527 L152.827427,94.5011629 C152.827427,94.5011629 153.333621,97.6309882 153.493492,98.330954 C153.654519,99.0309198 153.889125,101.733758 153.646044,102.015593 C153.403733,102.298967 153.582095,101.861585 153.300876,101.302921 C153.020043,100.744258 152.44027,97.0126465 152.047719,96.7261919 C151.655939,96.4401222 150.467885,95.7659527 150.467885,95.7659527 L150.467885,95.7659527 Z" id="Shape" fill="#E2C993" sketch:type="MSShapeGroup"></path>
                <path d="M61.6412482,162.093298 C61.6412482,162.093298 73.1981877,166.713535 77.8209635,167.483574 C82.4437393,168.253614 94.7711415,169.793693 96.697298,169.408673 C98.6234546,169.023653 99.3939173,202.520368 97.0825294,204.445466 C94.7711415,206.370565 95.9268354,207.910644 87.4517464,208.295664 C78.9766575,208.680683 72.4277251,206.755585 68.1901806,203.675427 C63.9526361,200.595269 57.4037037,194.819974 57.7889351,189.429698 C58.1741664,184.039422 58.944629,165.943495 58.944629,165.943495 L60.100323,189.429698 C60.100323,189.429698 62.0264795,196.360053 65.4935614,199.055191 C68.9606432,201.750329 75.1243443,204.445466 81.2880454,205.215506 C87.4517464,205.985545 90.1483657,206.370565 92.4597536,204.445466 C94.7711415,202.520368 96.3120667,199.44021 96.3120667,199.44021 L94.7711415,172.103811 C94.7711415,172.103811 86.2960525,169.793693 82.058508,169.793693 C77.8209635,169.793693 65.1083301,162.478318 61.6412482,162.093298 L61.6412482,162.093298 Z" id="Shape" fill="#020203" sketch:type="MSShapeGroup"></path>
                <path d="M143.310287,166.328515 C143.310287,166.328515 144.08075,166.713535 148.703526,165.558476 C153.326302,164.403417 158.334309,163.248357 160.260465,161.708279 C162.186622,160.1682 163.342316,161.323259 163.342316,164.788436 C163.342316,168.253614 169.891248,194.434954 167.57986,197.515112 C165.268472,200.595269 159.104771,203.675427 156.022921,203.675427 C152.94107,203.675427 142.539825,202.905388 141.769362,200.595269 C140.998899,198.285151 139.072743,168.638633 139.072743,168.638633 L143.695519,200.595269 C143.695519,200.595269 150.629682,200.595269 154.867227,200.980289 C159.104771,201.365309 164.112778,198.670171 166.424166,195.975033 C168.735554,193.279895 161.030928,164.403417 161.030928,164.403417 C161.030928,164.403417 145.236444,165.943495 143.310287,166.328515 L143.310287,166.328515 Z" id="Shape" fill="#020203" sketch:type="MSShapeGroup"></path>
                <path d="M102.577469,36.3547162 C102.577469,36.3547162 89.3544039,35.5531051 80.7610489,39.84723 C70.7107491,44.8694271 67.0649199,50.6404875 65.8144591,54.1414717 C65.3849262,55.3442733 61.7999635,64.3448791 58.7277438,74.8747832 C52.857589,94.9928331 45.933056,122.244143 45.933056,122.244143 C45.933056,122.244143 65.8807189,63.9471537 66.5282927,60.6132681 C67.1758665,57.2793824 67.7933923,53.8588673 70.0666423,50.6643587 C74.1897731,44.8694271 80.8800854,42.4414928 82.021911,41.6806938 C83.1637367,40.9198949 96.4869617,35.9743167 102.577469,36.3547162 L102.577469,36.3547162 Z" id="Shape" fill="#EFEFEF" sketch:type="MSShapeGroup"></path>
                <path d="M90.9511877,72.2427884 C90.9511877,72.2427884 115.649523,62.99423 120.58164,62.5014047 C125.717929,61.9881735 141.024325,60.3233482 147.495826,64.127728 C153.967327,67.9321078 155.770209,69.7020434 156.151203,70.8432418 C156.532197,71.9844402 150.372733,66.608025 139.882499,64.5077424 C136.896956,63.9098068 124.275623,62.9861445 120.849761,63.7469435 C117.423128,64.5081275 95.693,68.9443246 90.9511877,72.2427884 L90.9511877,72.2427884 Z" id="Shape" fill="#EFEFEF" sketch:type="MSShapeGroup"></path>
                <path d="M16.8261335,192.124836 C16.8261335,192.124836 17.8531601,201.365309 16.5691842,202.905388 C15.2852082,204.445466 7.83714591,210.86259 6.55316993,212.402669 C5.26919395,213.942748 2.70085676,216.766097 2.70085676,217.536137 C2.70085676,218.306176 2.21623577,220.707544 2.21623577,220.707544 C2.21623577,220.707544 1.41688078,216.509674 2.95780605,214.969595 C4.49873132,213.429516 8.8641726,209.322126 10.9189964,205.985545 C12.9738203,202.648965 13.2303843,201.878925 14.000847,199.568807 C14.7713096,197.258689 16.6119448,191.092983 16.6119448,191.092983 L16.8261335,192.124836 L16.8261335,192.124836 Z" id="Shape" fill="#EFEFEF" sketch:type="MSShapeGroup"></path>
                <path d="M4.20364413,232.888413 C4.20364413,232.888413 4.75529537,229.087113 6.29622064,228.060265 C7.83714591,227.033418 14.0012322,222.412796 16.0556708,220.616294 C18.1101094,218.819792 23.4124333,209.453418 23.4124333,209.453418 C23.4124333,209.453418 18.624008,220.359871 16.8261335,221.643142 C15.0282589,222.926413 11.1755605,226.00657 9.37807117,227.546649 C7.58058185,229.086728 4.16550623,231.043013 4.20364413,232.888413 L4.20364413,232.888413 Z" id="Shape" fill="#EFEFEF" sketch:type="MSShapeGroup"></path>
                <path d="M14.5147456,238.327201 C14.5147456,238.327201 13.3559698,235.271685 15.8615142,234.874344 C18.3670587,234.477004 22.4759359,232.680502 24.0168612,230.370384 C25.5577865,228.060265 19.907984,234.99062 18.3670587,235.76066 C16.8261335,236.530699 14.5147456,238.327201 14.5147456,238.327201 L14.5147456,238.327201 Z" id="Shape" fill="#EFEFEF" sketch:type="MSShapeGroup"></path>
                <path d="M168.863836,199.568807 C168.863836,199.568807 171.689123,196.488264 173.230048,195.204993 C174.770973,193.921723 178.623286,191.354796 181.705137,191.354796 C184.786988,191.354796 189.922891,188.788255 191.207253,187.761407 C192.491614,186.73456 200.966703,183.654402 202.507628,183.91121 C204.048553,184.168018 205.963153,182.972917 205.963153,182.972917 L204.373303,182.179007 C204.373303,182.179007 199.425778,182.884748 197.627903,183.397979 C195.830028,183.91121 193.005512,184.938058 190.950689,186.478137 C188.895865,188.018216 186.584477,188.531447 185.043552,189.301486 C183.502626,190.071526 176.055335,190.84118 174.000511,192.124836 C171.945687,193.408491 168.863836,196.745072 168.863836,196.745072 L168.863836,199.568807 L168.863836,199.568807 Z" id="Shape" fill="#EFEFEF" sketch:type="MSShapeGroup"></path>
                <path d="M234.096211,52.7477004 C234.096211,52.7477004 228.407115,51.8051721 226.905483,52.2344691 C219.71437,54.2877792 212.780592,59.9348633 208.41438,64.2982917 C204.048168,68.6617201 200.45319,77.64577 199.168828,80.9823509 C197.884467,84.3189317 194.289103,98.6932576 194.289103,98.6932576 L194.802617,101.516607 C194.802617,101.516607 200.452419,84.5757398 200.966318,82.7788528 C201.480216,80.9819658 204.818631,70.7150302 206.359556,68.6613351 C207.900481,66.6076399 217.916496,58.3940145 219.71437,57.3675519 C221.512245,56.3410894 224.337146,54.8006255 225.878071,54.2873942 C227.418996,53.7741629 234.096211,52.7477004 234.096211,52.7477004 L234.096211,52.7477004 Z" id="Shape" fill="#EFEFEF" sketch:type="MSShapeGroup"></path>
                <path d="M219.211258,80.0525283 C219.211258,80.0525283 215.861672,80.9827359 213.29372,83.5492773 C210.725768,86.1158187 208.073065,91.6789685 207.730209,93.6460342 C207.387353,95.6130999 209.142852,97.1766649 209.142852,97.1766649 C209.142852,97.1766649 208.413995,94.073021 209.441407,92.0197109 C210.468819,89.9664008 211.752794,87.6562825 212.780206,86.1162037 C213.807618,84.5761248 219.211258,80.0525283 219.211258,80.0525283 L219.211258,80.0525283 Z" id="Shape" fill="#EFEFEF" sketch:type="MSShapeGroup"></path>
                <path d="M205.962768,182.972917 C205.962768,182.972917 210.289686,180.377499 211.791703,176.88229 C213.29372,173.387081 213.679336,150.414495 213.422387,147.847569 C213.165438,145.280643 212.138026,139.505732 212.908488,138.478884 C213.678951,137.452037 216.37557,136.040555 216.37557,136.040555 C216.37557,136.040555 215.091209,137.965653 214.320746,139.505732 C213.550284,141.045811 215.347773,146.179279 215.604722,147.462934 C215.861672,148.74659 214.83426,165.173841 214.83426,167.483959 C214.83426,169.794078 215.091594,174.92793 213.03677,177.75128 C210.981947,180.574629 205.962768,182.972917 205.962768,182.972917 L205.962768,182.972917 Z" id="Shape" fill="#EFEFEF" sketch:type="MSShapeGroup"></path>
                <path d="M79.1215044,56.4781564 L75.5719831,53.7194901 L51.5177544,60.8134783 C51.5177544,60.8134783 49.9413879,60.4196032 47.9693888,63.1782694 C45.9966192,65.9369356 43.2379778,68.3017267 43.2379778,70.2726426 C43.2379778,72.2431735 44.8147295,73.425184 46.3922518,73.0309238 C47.969774,72.6370486 47.1800498,67.1193311 49.9417731,64.7549251 C52.7015703,62.390134 55.4613674,61.9958739 59.4045952,61.6016137" id="Shape" fill="#020203" sketch:type="MSShapeGroup"></path>
                <path d="M223.502735,125.644637 C223.502735,125.644637 222.60399,125.067108 221.833528,125.323916 C221.063065,125.580724 218.943907,126.863995 219.650422,129.366623 C220.356936,131.869251 222.219529,135.719448 222.283093,136.553786 C222.347041,137.388124 222.924888,149.259436 222.924888,149.259436 C222.924888,149.259436 223.117504,137.259527 222.989222,136.361276 C222.86094,135.463025 220.228269,130.200961 220.228269,129.559133 C220.228269,128.917305 220.549166,126.222552 221.576578,125.965744 C222.60399,125.708936 223.502735,125.644637 223.502735,125.644637 L223.502735,125.644637 Z" id="Shape" fill="#EFEFEF" sketch:type="MSShapeGroup"></path>
                <path d="M234.353545,121.40942 C234.353545,121.40942 234.224878,120.51117 233.133518,120.639381 C232.042157,120.767593 229.987719,122.628778 229.795103,123.527029 C229.602488,124.42528 231.399977,134.371879 231.46431,136.489488 C231.528644,138.607096 229.47382,148.040079 229.47382,148.040079 C229.47382,148.040079 232.042157,138.222076 232.042157,136.296978 C232.042157,134.371879 230.758181,124.489578 230.950797,123.783837 C231.143413,123.078096 233.583083,120.767978 234.353545,121.40942 L234.353545,121.40942 Z" id="Shape" fill="#EFEFEF" sketch:type="MSShapeGroup"></path>
                <path d="M233.775698,156.510512 C233.775698,156.510512 235.573958,147.783271 236.600985,146.30749 C237.628012,144.83171 242.122505,137.259527 243.856046,136.232679 C245.589587,135.205832 248.35054,132.254271 249.4419,132.574992 C250.533261,132.895714 250.918492,133.986859 250.918492,133.986859 C250.918492,133.986859 250.661928,133.40933 249.69885,133.473628 C248.735771,133.537926 247.00223,134.436177 246.039152,135.334428 C245.076074,136.232679 243.92038,137.837057 242.700352,139.441434 C241.480325,141.045811 238.59109,145.024219 237.820627,146.30749 C237.050165,147.590761 234.867444,153.237845 234.867444,153.237845 C234.867444,153.237845 234.190207,155.865219 234.047286,155.963399" id="Shape" fill="#EFEFEF" sketch:type="MSShapeGroup"></path>
                <path d="M252.716367,146.050682 C252.716367,146.050682 252.395469,144.638815 251.432391,144.574901 C250.469312,144.510988 247.130512,145.858557 246.36005,146.949318 C245.589587,148.040079 242.444173,151.890276 241.801608,152.917124 C241.159427,153.943971 239.169707,156.831234 238.719757,157.088042 C238.270192,157.34485 236.729267,158.692419 236.729267,158.692419 C236.729267,158.692419 240.838144,155.67656 241.67294,154.521501 C242.507737,153.366442 246.103101,148.232589 247.323128,147.462549 C248.543156,146.69251 250.276697,145.537451 250.79021,145.665662 C251.303723,145.793874 252.716367,146.050682 252.716367,146.050682 L252.716367,146.050682 Z" id="Shape" fill="#EFEFEF" sketch:type="MSShapeGroup"></path>
                <path d="M251.368057,159.847478 C251.368057,159.847478 250.725876,158.435611 249.377567,158.435611 C248.029257,158.435611 244.938161,158.338201 242.791652,159.670369 C240.645143,161.002537 236.858319,164.531628 235.766189,165.365966 C234.674443,166.200304 231.72126,167.098555 231.72126,167.098555 C231.72126,167.098555 237.371448,165.94388 238.462808,164.917033 C239.554168,163.890185 241.480325,161.964702 242.443403,161.323259 C243.406481,160.681816 246.296487,159.270334 247.708359,159.334247 C249.120617,159.39816 251.368057,159.847478 251.368057,159.847478 L251.368057,159.847478 Z" id="Shape" fill="#EFEFEF" sketch:type="MSShapeGroup"></path>
                <path d="M80.1103932,98.4041078 C80.1103932,98.4041078 118.976381,102.671666 135.349097,98.6932576 C149.835721,95.1730223 156.672421,92.1756439 158.591258,82.7792378 C159.875619,76.4907109 158.719925,77.3889619 158.719925,77.3889619 C158.719925,77.3889619 159.104771,80.7259277 155.509407,85.3461643 C151.914044,89.9664008 141.64108,93.8165979 135.477379,95.3566767 C129.313678,96.8967556 80.1103932,98.4041078 80.1103932,98.4041078 L80.1103932,98.4041078 Z" id="Shape" fill="#97B2B2" sketch:type="MSShapeGroup"></path>
                <path d="M236.921497,55.2503285 C236.921497,55.2503285 234.610109,63.913272 232.298722,65.8383706 C229.987334,67.7634691 212.459309,81.6241787 212.459309,81.6241787 C212.459309,81.6241787 225.749789,69.8810775 228.83164,65.8383706 C230.609482,63.5059212 236.921497,55.2503285 236.921497,55.2503285 L236.921497,55.2503285 Z" id="Shape" fill="#97B2B2" sketch:type="MSShapeGroup"></path>
                <path d="M211.688846,97.7950066 C211.688846,97.7950066 220.356551,93.3672799 222.475323,91.8272011 C224.594095,90.2871222 227.48333,86.8219448 227.48333,85.6668857 C227.48333,84.5118265 226.13502,82.7792378 226.13502,82.7792378 C226.13502,82.7792378 224.40148,86.4369251 223.438401,87.7844941 C222.475323,89.1320631 211.688846,97.7950066 211.688846,97.7950066 L211.688846,97.7950066 Z" id="Shape" fill="#97B2B2" sketch:type="MSShapeGroup"></path>
                <path d="M214.19285,108.575558 C214.19285,108.575558 213.53526,109.722532 215.501095,109.533873 C217.466931,109.345213 225.036341,106.574996 226.452451,105.650179 C227.868561,104.725361 230.240045,103.011254 230.691536,101.943209 C231.143028,100.875164 230.565181,97.217477 230.565181,97.217477 C230.565181,97.217477 229.794718,98.7575558 228.639024,100.490145 C227.48333,102.222733 214.19285,108.575558 214.19285,108.575558 L214.19285,108.575558 Z" id="Shape" fill="#97B2B2" sketch:type="MSShapeGroup"></path>
                <path d="M215.926391,191.932326 C215.926391,191.932326 230.565181,176.724047 232.491337,175.376478 C234.417494,174.028909 244.915047,166.80979 246.263357,166.23226 C247.611666,165.654731 250.98244,164.307162 250.98244,162.285808 C250.98244,161.304008 249.248899,160.938239 249.248899,160.938239 C249.248899,160.938239 238.077191,169.793693 235.765803,170.948752 C233.454415,172.103811 224.594095,178.841656 222.860554,180.959264 C221.127013,183.076873 215.926391,191.932326 215.926391,191.932326 L215.926391,191.932326 Z" id="Shape" fill="#6D8C8C" sketch:type="MSShapeGroup"></path>
                <path d="M252.908597,146.596255 C252.908597,146.596255 253.422496,148.55331 252.523366,149.965177 C251.375762,151.76707 237.884576,161.515769 237.403036,161.804534 C236.921497,162.093298 250.019362,151.023982 250.500901,150.157687 C250.98244,149.291393 252.908597,146.596255 252.908597,146.596255 L252.908597,146.596255 Z" id="Shape" fill="#6D8C8C" sketch:type="MSShapeGroup"></path>
                <path d="M235.380572,159.013141 C235.380572,159.013141 240.003348,153.430355 240.484887,152.56406 C240.966426,151.697766 246.070741,142.264783 246.744896,141.879763 C247.419051,141.494744 250.100261,139.938879 250.597209,139.47339 C252.13852,138.029566 251.46398,135.141919 251.46398,135.141919 C251.46398,135.141919 250.98244,135.911958 250.500901,136.874507 C250.019362,137.837057 246.745281,139.986622 246.167434,140.660406 C245.589587,141.334191 240.195964,149.868922 240.003348,150.638962 C239.810732,151.409001 235.380572,159.013141 235.380572,159.013141 L235.380572,159.013141 Z" id="Shape" fill="#6D8C8C" sketch:type="MSShapeGroup"></path>
                <path d="M234.995341,121.954993 C234.995341,121.954993 237.980883,127.537779 237.980883,129.944152 C237.980883,132.350526 234.899033,146.788765 234.899033,146.788765 C234.899033,146.788765 237.210421,132.061761 236.632574,129.847898 C236.054727,127.634034 234.995341,121.954993 234.995341,121.954993 L234.995341,121.954993 Z" id="Shape" fill="#6D8C8C" sketch:type="MSShapeGroup"></path>
                <path d="M228.157485,151.312746 C228.157485,151.312746 230.083641,143.419842 229.409487,137.452037 C228.735332,131.484231 228.061177,129.462878 226.423944,127.537779 C224.786711,125.612681 224.40148,125.9977 224.40148,125.9977 C224.40148,125.9977 226.809175,129.270368 227.098099,130.617937 C227.387022,131.965506 228.253793,142.457293 228.253793,143.997372 C228.253793,145.537451 228.157485,151.312746 228.157485,151.312746 L228.157485,151.312746 Z" id="Shape" fill="#6D8C8C" sketch:type="MSShapeGroup"></path>
                <path d="M218.526702,135.815703 C218.526702,135.815703 219.48978,135.815703 219.971319,136.585742 C220.452859,137.355782 222.667939,153.430355 222.667939,153.430355 C222.667939,153.430355 220.645474,140.147175 219.586088,138.510841 C218.526702,136.874507 218.526702,135.815703 218.526702,135.815703 L218.526702,135.815703 Z" id="Shape" fill="#6D8C8C" sketch:type="MSShapeGroup"></path>
                <path d="M66.9062046,249.620984 C66.9062046,249.620984 96.1837847,252.95795 112.3635,252.95795 C128.543215,252.95795 141.79864,253.766491 150.323423,251.822142 C158.848207,249.877792 177.595875,241.92059 180.934674,238.070393 C184.273474,234.220196 193.519411,228.060265 194.546438,224.7233 C195.573464,221.386334 202.507628,207.012393 204.819016,204.445466 C207.130404,201.87854 208.21483,199.509514 208.21483,199.509514 C208.21483,199.509514 197.628288,209.322511 195.830414,213.68594 C194.032539,218.049368 182.219036,232.93731 175.798385,237.81397 C169.377735,242.690629 149.089142,248.594137 138.045716,249.620984 C127.00229,250.647832 66.9062046,249.620984 66.9062046,249.620984 L66.9062046,249.620984 Z" id="Shape" fill="#97B2B2" sketch:type="MSShapeGroup"></path>
                <path d="M25.2368888,196.937582 C25.2368888,196.937582 28.8965863,198.862681 31.0153585,198.862681 C33.1341308,198.862681 37.0573265,197.537058 37.0573265,197.537058 C37.0573265,197.537058 37.7569066,205.985545 37.7569066,208.103154 C37.7569066,210.220762 34.2898247,230.626807 32.3636681,233.129435 C30.4375116,235.632063 27.7408923,238.519711 24.8516575,239.28975 C21.9624226,240.05979 18.2460961,241.22948 18.2460961,241.22948 C18.2460961,241.22948 28.7039706,235.824573 29.2818176,234.862024 C29.8596646,233.899474 33.3267464,226.77661 33.5193621,224.851511 C33.7119778,222.926413 34.8676717,209.065703 33.9045934,207.910644 C32.9415151,206.755585 28.1261237,202.520368 27.355661,201.365309 C26.5851984,200.21025 25.2368888,196.937582 25.2368888,196.937582 L25.2368888,196.937582 Z" id="Shape" fill="#97B2B2" sketch:type="MSShapeGroup"></path>
                <path d="M5.59009164,233.899474 C5.59009164,233.899474 9.4424048,235.054534 11.3685614,234.284494 C13.294718,233.514455 22.1550383,230.434297 24.6590418,225.044021 C27.1630454,219.653745 28.2702002,217.221191 28.2702002,217.221191 C28.2702002,217.221191 26.1999671,220.616294 23.6959635,223.311432 C21.19196,226.00657 14.0651806,230.434297 12.5242553,231.011827 C10.9833301,231.589356 5.59009164,233.899474 5.59009164,233.899474 L5.59009164,233.899474 Z" id="Shape" fill="#97B2B2" sketch:type="MSShapeGroup"></path>
                <path d="M3.85655071,221.001314 C3.85655071,221.001314 7.51624822,220.423784 9.24978915,219.461235 C10.9833301,218.498686 23.4124333,209.453418 23.4124333,209.453418 C23.4124333,209.453418 18.4953407,209.258213 15.6061059,212.72339 C12.716871,216.188568 3.85655071,221.001314 3.85655071,221.001314 L3.85655071,221.001314 Z" id="Shape" fill="#97B2B2" sketch:type="MSShapeGroup"></path>
                <path d="M209.249176,107.292288 C209.249176,107.292288 207.836918,108.254837 207.32302,108.960578 C206.809121,109.666319 205.97471,111.142485 205.332529,112.105034 C204.690349,113.067583 201.608498,115.185192 201.608498,115.185192 L202.892859,116.917781 C202.892859,116.917781 206.359941,111.655716 207.130404,110.885677 C207.900867,110.115637 210.019639,108.51126 210.019639,108.51126 L209.249176,107.292288 L209.249176,107.292288 Z" id="Shape" fill="#97B2B2" sketch:type="MSShapeGroup"></path>
                <path d="M211.592538,98.8538108 C211.592538,98.8538108 210.725768,99.3350854 209.858997,99.4313403 C208.992227,99.5275953 206.777147,98.7575558 206.777147,98.7575558 C206.777147,98.7575558 206.006684,99.2388305 207.547609,99.912615 C209.088535,100.586399 210.918383,100.778909 210.918383,100.778909 L211.592538,98.8538108 L211.592538,98.8538108 Z" id="Shape" fill="#97B2B2" sketch:type="MSShapeGroup"></path>
                <path d="M45.3332509,112.168947 C45.3332509,112.168947 44.3054537,111.1421 42.8931957,113.452218 C41.4809377,115.762336 39.8113452,119.612534 40.9670391,120.639381 C42.1227331,121.666229 45.9334413,122.244143 45.9334413,122.244143 L44.5627883,118.842494" id="Shape" fill="#CACECE" sketch:type="MSShapeGroup"></path>
                <path d="M51.625234,133.79435 L64.4341753,140.24343 L69.248411,136.897223 L66.4566397,142.264783 L51.625234,133.79435 Z" id="Shape" fill="#CACECE" sketch:type="MSShapeGroup"></path>
                <path d="M73.4871112,144.382392 C73.4871112,144.382392 97.9492998,146.5 99.8754564,146.788765 C101.801613,147.07753 107.194851,149.195138 110.854549,150.831472 C114.514246,152.467806 115.284709,153.045335 115.284709,153.045335 L114.899478,154.489159 C114.899478,154.489159 101.416382,149.291393 99.4902251,148.713863 C97.5640685,148.136334 73.4871112,144.382392 73.4871112,144.382392 L73.4871112,144.382392 Z" id="Shape" fill="#CACECE" sketch:type="MSShapeGroup"></path>
                <path d="M117.88502,152.275296 C117.88502,152.275296 124.241337,149.965177 126.360109,149.195138 C128.478882,148.425099 140.998899,143.804862 142.154593,142.842313 C143.310287,141.879763 145.554645,138.133137 145.554645,138.133137 L148.02706,138.839263 C148.02706,138.839263 152.170608,133.79435 152.363223,133.02431 C152.555839,132.254271 150.822298,124.361367 150.822298,124.361367 L154.28938,135.141919 L149.088757,140.532194 L146.199522,140.339685 L145.814291,143.612352 L117.88502,152.275296 L117.88502,152.275296 Z" id="Shape" fill="#CACECE" sketch:type="MSShapeGroup"></path>
                <path d="M163.214034,165.943495 L164.49801,169.793693 C164.49801,169.793693 185.814399,154.136096 187.868838,152.082786 C189.923277,150.029476 201.73678,139.248924 203.534655,135.141919 C205.332529,131.034913 210.468819,122.051248 210.468819,122.051248 L207.386968,121.538017 C207.386968,121.538017 206.103377,124.618175 204.048553,128.72518 C201.99373,132.832185 195.830028,140.018963 190.693739,144.896008 C185.55745,149.773053 163.214034,165.943495 163.214034,165.943495 L163.214034,165.943495 Z" id="Shape" fill="#CACECE" sketch:type="MSShapeGroup"></path>
                <path d="M45.8467642,132.8318 C45.8467642,132.8318 49.3138461,140.147175 48.9286148,144.767411 C48.5433835,149.387648 44.6910703,190.969777 44.6910703,190.969777 L39.5751984,194.977832 C39.5751984,194.977832 41.2239884,185.579501 41.9944511,179.804205 C42.7649137,174.028909 45.8467642,132.8318 45.8467642,132.8318 L45.8467642,132.8318 Z" id="Shape" fill="#CACECE" sketch:type="MSShapeGroup"></path>
                <text id="404" sketch:type="MSTextLayer" font-family="Chalkboard SE" font-size="35.9700012" font-weight="normal" sketch:alignment="middle" fill="#F4F6F7">
                    <tspan x="284.296325" y="89">404</tspan>
                </text>
            </g>
        </g>
    </g>
</svg>