<?xml version="1.0" encoding="UTF-8" standalone="no"?>
<!-- Created with Inkscape (http://www.inkscape.org/) -->

<svg
   xmlns:dc="http://purl.org/dc/elements/1.1/"
   xmlns:cc="http://creativecommons.org/ns#"
   xmlns:rdf="http://www.w3.org/1999/02/22-rdf-syntax-ns#"
   xmlns:svg="http://www.w3.org/2000/svg"
   xmlns="http://www.w3.org/2000/svg"
   xmlns:sodipodi="http://sodipodi.sourceforge.net/DTD/sodipodi-0.dtd"
   xmlns:inkscape="http://www.inkscape.org/namespaces/inkscape"
   version="1.1"
   width="91.220215"
   height="100"
   id="svg3499"
   inkscape:version="0.48.4 r9939"
   sodipodi:docname="penguin.svg">
  <sodipodi:namedview
     pagecolor="#ffffff"
     bordercolor="#666666"
     borderopacity="1"
     objecttolerance="10"
     gridtolerance="10"
     guidetolerance="10"
     inkscape:pageopacity="0"
     inkscape:pageshadow="2"
     inkscape:window-width="1076"
     inkscape:window-height="806"
     id="namedview25"
     showgrid="false"
     fit-margin-top="0"
     fit-margin-left="0"
     fit-margin-right="0"
     fit-margin-bottom="0"
     inkscape:zoom="0.75481331"
     inkscape:cx="142.6046"
     inkscape:cy="27.071475"
     inkscape:window-x="2393"
     inkscape:window-y="89"
     inkscape:window-maximized="0"
     inkscape:current-layer="svg3499" />
  <defs
     id="defs3501" />
  <metadata
     id="metadata3504">
    <rdf:RDF>
      <cc:Work
         rdf:about="">
        <dc:format>image/svg+xml</dc:format>
        <dc:type
           rdf:resource="http://purl.org/dc/dcmitype/StillImage" />
        <dc:title />
      </cc:Work>
    </rdf:RDF>
  </metadata>
  <g
     transform="matrix(0.31983615,0,0,0.31983615,-75.92763,-105.64759)"
     id="layer1">
    <ellipse
       cx="1045.2939"
       cy="756.14001"
       rx="121.275"
       ry="20.99"
       transform="translate(-643.96434,-134.15207)"
       id="ellipse283"
       style="fill:#cacece"
       d="m 1166.5689,756.14001 c 0,11.59246 -54.2966,20.99 -121.275,20.99 -66.97829,0 -121.27496,-9.39754 -121.27496,-20.99 0,-11.59245 54.29667,-20.99 121.27496,-20.99 66.9784,0 121.275,9.39755 121.275,20.99 z"
       sodipodi:cx="1045.2939"
       sodipodi:cy="756.14001"
       sodipodi:rx="121.275"
       sodipodi:ry="20.99" />
    <path
       d="m 349.93266,366.42993 c 0,0 -13.499,-7.5 -19.499,-7.5 -6,0 -12,0 -12,0 l 7.5,6 c 0,0 -4.501,0 -9,0 -4.499,0 -10.499,0 -10.499,0 l 7.5,7.5 c 0,0 -1.5,-1.501 -7.5,8.999 -6,10.5 -17.999,34.499 -14.999,43.498 3,8.999 5.999,23.999 7.499,38.998 1.5,14.999 18,46.498 15,56.997 -3,10.499 -10.5,49.498 -12,59.997 -1.5,10.499 17.999,43.499 37.498,46.498 19.498,2.999 54.226,-11.383 61.288,-13.905 9.334,-3.334 19.706,-1.095 33.206,-16.094 13.5,-14.999 18,-41.999 13.5,-64.497 -4.5,-22.498 -22.498,-68.996 -38.997,-89.995 -16.499,-20.999 -40.498,-62.997 -58.497,-76.496 z"
       id="path285"
       style="fill:#020203"
       inkscape:connector-curvature="0" />
    <g
       id="fin1">
      <path
         d="m 320.056,529.26245 c 0,0 -12.27666,-1.51123 -28.00198,10.11461 -15.72533,11.62583 -44.1608,31.21735 -52.55999,27.98413 -8.39918,-3.23322 10.5603,-23.25788 19.07049,-32.83925 8.5102,-9.58136 106.63644,-89.13565 106.63644,-89.13565 L 320.056,529.26245 z"
         id="path289-7"
         style="fill:#020203"
         inkscape:connector-curvature="0" />
      <path
         d="m 406.93066,459.42495 c 0,0 1.5,-34.497 3,-46.497 1.5,-12 10.499,-80.99604 -1.5,-82.49604 -11.999,-1.5 -4.499,11.998 -10.499,28.49804 -6,16.5 -10.501,37.498 -15,47.998 -4.5,10.5 1.5,34.498 6,38.998 4.5,4.5 17.999,13.499 17.999,13.499 z"
         id="path287"
         style="fill:#020203"
         inkscape:connector-curvature="0" />
    </g>
    <g
       id="fin2">
      <path
         d="m 357.81406,446.32542 c 0,0 30.7858,15.63743 41.09,21.96763 10.3044,6.33013 69.396,43.06736 75.7257,32.76395 6.3297,-10.30341 -9.0608,-9.06072 -21.6013,-21.34839 -12.5395,-12.28864 -29.7941,-25.07349 -37.4921,-33.51339 -7.6975,-8.44085 -32.0278,-12.90665 -37.9864,-10.67151 -5.9585,2.23514 -19.7359,10.80171 -19.7359,10.80171 z"
         id="path287-4"
         style="fill:#020203"
         inkscape:connector-curvature="0" />
      <path
         d="m 306.43466,446.83893 c 0,0 -12,-3 -22.499,-19.499 -10.499,-16.499 -29.998,-44.998 -38.998,-44.998 -9,0 1.5,25.499 6,37.498 4.5,11.999 67.496,121.494 67.496,121.494 l -11.999,-94.495 z"
         id="path289"
         style="fill:#020203"
         inkscape:connector-curvature="0" />
    </g>
    <path
       d="m 337.93266,393.42893 c 0,0 -1.5,-7.499 -11.999,0 -10.499,7.499 -16.499,11.998 -14.999,20.998 1.5,9 14.999,43.499 16.499,53.998 1.5,10.499 1.454,82.753 -0.046,91.753 -1.5,9 -8.954,38.739 -4.454,47.739 4.5,9 12,21 23.999,16.5 11.998,-4.5 33.456,-4.906 42.455,-10.905 8.999,-5.999 24.712,-4.134 36,-12.667 10.459,-7.906 13.833,-18.668 15.333,-36.667 1.5,-17.999 -12.792,-65.755 -20.292,-79.254 -7.5,-13.499 -13.5,-35.999 -22.499,-44.998 -8.999,-8.999 -22.499,-50.997 -38.999,-53.997 -16.498,-3 -16.499,-1.499 -20.998,7.5 z"
       id="path291"
       style="fill:#efefef"
       inkscape:connector-curvature="0" />
    <path
       d="m 328.05566,622.84493 c 0,0 -3.334,5.333 -1.334,9.333 2,4 8.001,10.666 11.334,8 3.333,-2.666 14.667,-4 18,-2 3.333,2 9.334,3.334 12,0.667 2.666,-2.667 5.334,-2.001 8,-2.667 2.666,-0.666 0,-14 0,-14 0,0 -15.333,2.668 -24,3.334 -8.667,0.666 -24,-2.667 -24,-2.667 z"
       id="path293"
       style="fill:#020203"
       inkscape:connector-curvature="0" />
    <path
       d="m 420.05566,606.84493 c 0,0 6.544,-13.052 8.848,-18.75 2.124,-5.254 1.342,-11.849 11.152,-8.583 5.099,1.697 7.999,2 10.666,2 2.667,0 5.333,-0.667 8,3.333 2.667,4 5.614,7.274 5.614,7.274 0,0 5.797,1.157 3.129,7.824 -2.666,6.667 -8.63,18.109 -12.743,21.568 -5.586,4.697 -19.621,10.604 -30.288,7.938 -10.668,-2.666 -9.712,-5.938 -9.712,-9.938 0,-4 5.334,-12.666 5.334,-12.666 z"
       id="path295"
       style="fill:#020203"
       inkscape:connector-curvature="0" />
    <path
       d="m 418.84366,622.29793 c 2.991,5.572 17.141,6.459 23.808,2.459 6.667,-4 12.754,-9.964 14.754,-12.631 2,-2.667 8.036,-12.65 6.036,-15.983 -2,-3.333 -5.972,-8.275 -9.054,-9.277 -3.412,-1.108 -8.998,0.646 -14.332,-0.688 -5.334,-1.334 -6.022,-1.971 -8.022,2.029 -2,4 -5.142,14.754 -7.713,18.666 -2.228,3.389 -7.413,11.821 -5.477,15.425 z"
       id="path297"
       style="fill:#e9b020"
       inkscape:connector-curvature="0" />
    <path
       d="m 329.80466,624.21993 c 0,0 0.125,6 1,7.25 0.875,1.25 1.875,5.25 4,5.375 2.125,0.125 8.25,-2.375 11.375,-2.375 3.125,0 9.5,-0.625 11.75,0.875 2.25,1.5 5.25,3 7.125,1.625 1.875,-1.375 2.75,-3.375 4.5,-3.25 1.75,0.125 4.75,-1.25 5,-2.875 0.25,-1.625 -2.5,-7.375 -2.5,-7.375 0,0 0.5,-0.5 -3.5,1.75 -4,2.25 -13.25,2.875 -17.5,3.625 -4.25,0.75 -8.375,0.375 -11.875,-0.875 -3.5,-1.25 -9.375,-3.75 -9.375,-3.75 z"
       id="path299"
       style="fill:#e9b020"
       inkscape:connector-curvature="0" />
    <path
       d="m 343.05466,431.34493 c 0,0 5,-10.5 10.5,-14 5.5,-3.5 13.5,-2 17,-2 3.5,0 9,1.5 11,4.5 2,3 2.5,4.5 -2,7 -4.5,2.5 -8,7.5 -17.5,9.5 -9.5,2 -14.5,1.5 -19,-5 z"
       id="path301"
       style="fill:#020203"
       inkscape:connector-curvature="0" />
    <path
       d="m 346.05466,431.51193 c 0,0 4.333,2.667 9.333,2.667 5,0 8.334,-0.333 12.334,-2.333 4,-2 12.166,-7.167 11.666,-10.667 -0.5,-3.5 -8.333,-2.334 -12.833,-2.834 -4.5,-0.5 -7.167,0.001 -11.167,1.501 -4,1.5 -8.333,10.666 -9.333,11.666 z"
       id="path303"
       style="fill:#e9b020"
       inkscape:connector-curvature="0" />
    <circle
       cx="976.01801"
       cy="554.99701"
       r="5.6669998"
       transform="translate(-643.96434,-134.15207)"
       id="circle305"
       style="fill:#020203"
       d="m 981.68501,554.99701 c 0,3.1298 -2.53721,5.667 -5.667,5.667 -3.1298,0 -5.667,-2.5372 -5.667,-5.667 0,-3.1298 2.5372,-5.667 5.667,-5.667 3.12979,0 5.667,2.5372 5.667,5.667 z"
       sodipodi:cx="976.01801"
       sodipodi:cy="554.99701"
       sodipodi:rx="5.6669998"
       sodipodi:ry="5.6669998" />
    <circle
       cx="1012.268"
       cy="539.49701"
       r="5.6669998"
       transform="translate(-643.96434,-134.15207)"
       id="circle307"
       style="fill:#020203"
       d="m 1017.935,539.49701 c 0,3.1298 -2.5372,5.667 -5.667,5.667 -3.1298,0 -5.667,-2.5372 -5.667,-5.667 0,-3.1298 2.5372,-5.667 5.667,-5.667 3.1298,0 5.667,2.5372 5.667,5.667 z"
       sodipodi:cx="1012.268"
       sodipodi:cy="539.49701"
       sodipodi:rx="5.6669998"
       sodipodi:ry="5.6669998" />
    <circle
       cx="976.01898"
       cy="555.74701"
       r="2"
       transform="translate(-643.96434,-134.15207)"
       id="circle309"
       style="fill:#efefef"
       d="m 978.01898,555.74701 c 0,1.10457 -0.89543,2 -2,2 -1.10457,0 -2,-0.89543 -2,-2 0,-1.10457 0.89543,-2 2,-2 1.10457,0 2,0.89543 2,2 z"
       sodipodi:cx="976.01898"
       sodipodi:cy="555.74701"
       sodipodi:rx="2"
       sodipodi:ry="2" />
    <circle
       cx="1012.269"
       cy="539.49701"
       r="2"
       transform="translate(-643.96434,-134.15207)"
       id="circle311"
       style="fill:#efefef"
       d="m 1014.269,539.49701 c 0,1.10457 -0.8954,2 -2,2 -1.1046,0 -2,-0.89543 -2,-2 0,-1.10457 0.8954,-2 2,-2 1.1046,0 2,0.89543 2,2 z"
       sodipodi:cx="1012.269"
       sodipodi:cy="539.49701"
       sodipodi:rx="2"
       sodipodi:ry="2" />
  </g>
</svg>
