<svg xmlns="http://www.w3.org/2000/svg" xmlns:xlink="http://www.w3.org/1999/xlink" width="645" height="974" viewBox="0 0 645 974">
    <defs>
        <path id="a" d="M.648 233h432.828V.164H.648z"/>
        <path id="c" d="M559.623 291.954V.599H.957v291.355h558.666z"/>
        <path id="e" d="M0 974h644.623V.646H0z"/>
        <path id="g" d="M0 974h644.623V.646H0z"/>
    </defs>
    <g fill="none" fill-rule="evenodd">
        <g transform="translate(184 740.354)">
            <mask id="b" fill="#fff">
                <use xlink:href="#a"/>
            </mask>
            <path fill="#595959" fill-opacity=".2" d="M.648 98.997L228.392 233l205.084-98.93L207.783.163z" mask="url(#b)"/>
        </g>
        <path fill="#595959" fill-opacity=".2" d="M7.64 518.498L282.235 676.96 640.57 510.613 368.42 352.27z"/>
        <path fill="#F58920" d="M0 409.219l274.594 158.46 358.335-166.345L360.78 242.99z"/>
        <path fill="#BFBEBE" d="M359.63 349.268L85.06 194.014l-.171-9.288 274.595 158.461z"/>
        <g transform="translate(85 157.354)">
            <mask id="d" fill="#fff">
                <use xlink:href="#c"/>
            </mask>
            <path fill="#595959" fill-opacity=".2" d="M.957 133.493l274.595 158.46 284.072-133.011L287.474.599z" mask="url(#d)"/>
        </g>
        <path fill="#FEFEFE" d="M359.63 349.268v-7.246l282.925-132.118v7.244z"/>
        <path fill="#FEFEFE" d="M83.888 184.455l274.595 158.461 284.072-133.012-272.15-158.343z"/>
        <path fill="#F8982F" d="M331.972 611.915l-1.609-.646 2.11-.812zM356.063 552.201l1.522.61-1.875 2.324zM387.873 546.547l-1.522-.61-.948 3.352z"/>
        <g transform="translate(0 -.646)">
            <path fill="#F8982F" d="M329.125 572.826c0-2.444 1.888-5.516 4.217-6.86l22.722-13.118 1.674 10.255 28.613-16.52v29.876c0 2.444-1.888 5.516-4.216 6.86l-48.793 28.17c-2.328 1.344-4.217.452-4.217-1.991v-36.672z"/>
            <path fill="#F8BA17" d="M330.646 573.434v36.673c0 2.442 1.89 3.335 4.217 1.99l48.793-28.17c2.328-1.344 4.217-4.416 4.217-6.86v-29.875l-28.614 16.52-1.674-10.255-22.722 13.117c-2.329 1.345-4.217 4.417-4.217 6.86"/>
            <path fill="#FEFEFE" d="M384.819 587.363l-50.994 29.44v-36.401l50.994-29.441z"/>
            <path fill="#FCB616" d="M330.84 633.348l-2.083-.93 1.803-.267zM388.121 554.301l1.988.881-1.988.84z"/>
            <path fill="#FCB616" d="M389.577 556.781v37.583c0 2.504-2.043 5.715-4.561 7.17l-52.786 30.474c-2.52 1.454-4.562.602-4.562-1.902V599.49l30.954-17.87 1.812-12.549 24.58-14.19c2.52-1.455 4.563-.603 4.563 1.901"/>
            <path fill="#FFD872" d="M391.27 557.534v37.583c0 2.504-2.043 5.715-4.561 7.169l-52.786 30.475c-2.52 1.454-4.562.602-4.562-1.902v-30.617l30.954-17.871 1.812-12.548 24.58-14.191c2.52-1.454 4.563-.602 4.563 1.902"/>
            <path fill="#F8982F" d="M365.737 631.351l-1.609-.646 2.11-.812zM389.828 571.638l1.522.609-1.875 2.325zM421.637 565.983l-1.522-.609-.948 3.351z"/>
            <path fill="#F8982F" d="M362.89 591.616v36.672c0 2.443 1.888 3.335 4.216 1.991l48.793-28.17c2.328-1.344 4.217-4.416 4.217-6.86v-29.875l-28.614 16.52-1.674-10.257-22.722 13.12c-2.329 1.343-4.217 4.415-4.217 6.86"/>
            <path fill="#F8BA17" d="M364.411 592.225v36.672c0 2.443 1.889 3.335 4.217 1.99l48.793-28.17c2.328-1.343 4.217-4.415 4.217-6.86l-.001-29.874-28.613 16.52-1.674-10.256-22.722 13.118c-2.329 1.344-4.217 4.416-4.217 6.86"/>
            <path fill="#FEFEFE" d="M418.583 606.153l-50.994 29.44v-36.401l50.994-29.441z"/>
            <path fill="#FCB616" d="M364.605 652.138l-2.083-.93 1.803-.267zM421.886 573.092l1.988.88-1.988.84z"/>
            <path fill="#FCB616" d="M423.341 575.572v37.583c0 2.504-2.043 5.715-4.56 7.169l-52.787 30.475c-2.519 1.454-4.562.602-4.562-1.902V618.28l30.954-17.871 1.812-12.548 24.581-14.191c2.52-1.454 4.562-.602 4.562 1.902"/>
            <path fill="#FFD872" d="M425.034 576.324v37.583c0 2.504-2.043 5.715-4.56 7.17l-52.786 30.474c-2.52 1.454-4.563.602-4.563-1.902v-30.617l30.954-17.87 1.813-12.549 24.58-14.19c2.52-1.455 4.563-.603 4.563 1.901"/>
            <path fill="#F8982F" d="M392.13 651.266l-1.608-.646 2.11-.812zM416.221 591.553l1.522.609-1.875 2.325zM448.03 585.898l-1.521-.609-.948 3.351z"/>
            <path fill="#F8982F" d="M389.283 611.532v36.671c0 2.443 1.889 3.336 4.217 1.991l48.793-28.17c2.328-1.343 4.217-4.415 4.217-6.86l-.001-29.875-28.613 16.52-1.674-10.256-22.722 13.119c-2.33 1.343-4.217 4.415-4.217 6.86"/>
            <path fill="#F8BA17" d="M390.804 612.14v36.672c0 2.443 1.89 3.335 4.217 1.991l48.793-28.17c2.328-1.344 4.217-4.416 4.217-6.86v-29.875l-28.614 16.52-1.674-10.256-22.722 13.118c-2.329 1.344-4.217 4.416-4.217 6.86"/>
            <path fill="#FEFEFE" d="M444.977 626.068l-50.994 29.44v-36.4l50.994-29.442z"/>
            <path fill="#FCB616" d="M390.998 672.053l-2.083-.93 1.803-.267zM448.28 593.007l1.987.88-1.988.84z"/>
            <path fill="#FCB616" d="M449.735 595.487v37.583c0 2.504-2.042 5.715-4.561 7.169l-52.786 30.475c-2.52 1.454-4.562.602-4.562-1.902v-30.617l30.954-17.871 1.812-12.548 24.58-14.191c2.52-1.454 4.563-.602 4.563 1.902"/>
            <path fill="#FFD872" d="M451.428 596.24v37.582c0 2.504-2.043 5.715-4.561 7.17l-52.786 30.474c-2.52 1.454-4.562.602-4.562-1.902v-30.617l30.954-17.87 1.812-12.549 24.58-14.19c2.52-1.455 4.563-.603 4.563 1.901"/>
            <path fill="#F8982F" d="M421.932 674.255l-1.609-.646 2.11-.812zM446.023 614.542l1.522.609-1.875 2.325zM477.832 608.887l-1.522-.609-.948 3.351z"/>
            <path fill="#F8982F" d="M419.084 634.52v36.672c0 2.443 1.89 3.335 4.217 1.991l48.793-28.17c2.328-1.344 4.217-4.416 4.217-6.86v-29.875l-28.614 16.52-1.674-10.257-22.722 13.12c-2.329 1.343-4.217 4.415-4.217 6.86"/>
            <path fill="#F8BA17" d="M420.606 635.129V671.8c0 2.443 1.889 3.335 4.217 1.99l48.793-28.17c2.328-1.343 4.217-4.415 4.217-6.86l-.001-29.874-28.613 16.52-1.674-10.256-22.722 13.118c-2.33 1.344-4.217 4.416-4.217 6.86"/>
            <path fill="#FEFEFE" d="M474.778 649.057l-50.994 29.44v-36.401l50.994-29.441z"/>
            <path fill="#FCB616" d="M420.8 695.042l-2.083-.93 1.803-.267zM478.08 615.995l1.989.881-1.988.84z"/>
            <path fill="#FCB616" d="M479.536 618.476v37.583c.001 2.504-2.043 5.715-4.56 7.169l-52.787 30.475c-2.519 1.454-4.562.602-4.562-1.902v-30.617l30.954-17.871 1.812-12.547 24.581-14.192c2.52-1.454 4.562-.602 4.562 1.902"/>
            <path fill="#FFD872" d="M481.23 619.228v37.583c0 2.504-2.044 5.715-4.562 7.17l-52.786 30.474c-2.519 1.454-4.562.602-4.562-1.902v-30.617l30.954-17.87 1.812-12.548 24.581-14.192c2.52-1.454 4.562-.602 4.562 1.902"/>
            <path fill="#F8982F" d="M448.325 694.17l-1.608-.646 2.11-.812zM472.416 634.457l1.522.609-1.875 2.325zM504.226 628.802l-1.522-.609-.948 3.351z"/>
            <path fill="#F8982F" d="M445.478 654.435v36.672c0 2.443 1.889 3.335 4.217 1.991l48.793-28.17c2.328-1.344 4.217-4.416 4.217-6.86l-.001-29.875-28.613 16.52-1.674-10.257-22.722 13.12c-2.33 1.343-4.217 4.415-4.217 6.86"/>
            <path fill="#F8BA17" d="M447 655.044v36.672c0 2.443 1.888 3.335 4.216 1.99l48.793-28.17c2.328-1.343 4.217-4.415 4.217-6.86v-29.874l-28.614 16.52-1.675-10.256-22.72 13.118c-2.33 1.344-4.218 4.416-4.218 6.86"/>
            <path fill="#FEFEFE" d="M501.172 668.972l-50.994 29.44v-36.401l50.994-29.441z"/>
            <path fill="#FCB616" d="M447.193 714.957l-2.083-.93 1.803-.267zM504.474 635.91l1.988.882-1.988.84z"/>
            <path fill="#FCB616" d="M505.93 638.39v37.584c0 2.504-2.043 5.715-4.561 7.169l-52.786 30.475c-2.52 1.454-4.562.602-4.562-1.902v-30.617l30.954-17.871 1.812-12.547 24.58-14.192c2.52-1.454 4.563-.602 4.563 1.902"/>
            <path fill="#FFD872" d="M507.623 639.143v37.583c0 2.504-2.042 5.715-4.561 7.17l-52.786 30.474c-2.52 1.454-4.562.602-4.562-1.902v-30.617l30.954-17.87 1.812-12.548 24.58-14.192c2.52-1.454 4.563-.602 4.563 1.902"/>
            <path fill="#B86713" d="M274.471 574.812L.997 419.724l-.17-9.288 273.768 157.89z"/>
            <path fill="#F3B57C" d="M274.471 574.812l.124-6.487 356.96-166.28v7.243z"/>
            <path fill="#2CADD1" d="M180.213 782.056l230.178 132.83 205.084-95.932-228.127-132.73z"/>
            <path fill="#0288AD" d="M409.71 921.313L180.3 790.83l-.173-9.288 229.706 133.283z"/>
            <path fill="#AFE1F2" d="M409.71 921.313l.123-6.487 205.642-96.166v7.245z"/>
            <path fill="#0B7B9F" d="M487.338 704.337l6.129-21.195a3.46 3.46 0 0 1 4.314-2.352l.806.24a3.475 3.475 0 0 1 2.33 4.274l-6.128 21.196a3.463 3.463 0 0 1-4.314 2.352l-.807-.242a3.475 3.475 0 0 1-2.33-4.273M543.38 692.288l-18.872-11.43a3.461 3.461 0 0 0-4.766 1.193l-.43.725a3.474 3.474 0 0 0 1.184 4.721l18.87 11.431a3.461 3.461 0 0 0 4.767-1.194l.43-.725a3.475 3.475 0 0 0-1.183-4.72"/>
            <path fill="#0D1E24" d="M512.18 738.292l1.814 54.256c.017 1.057.99 1.905 2.185 1.905h.912c1.165 0 2.125-.807 2.183-1.836l3.74-65.882c.065-1.145-1.004-2.088-2.298-2.028l-21.198.988c-1.228.057-2.161 1-2.064 2.083l5.812 64.895c.09 1.005 1.038 1.78 2.178 1.78h.638c1.202 0 2.178-.858 2.185-1.92l2.098-54.224"/>
            <path fill="#0B7B9F" d="M515.145 730.265h-10.358c-5.09 0-9.256-4.165-9.256-9.256v-33.127c0-5.091 4.165-9.256 9.256-9.256h10.358c5.09 0 9.256 4.165 9.256 9.256v33.127c0 5.091-4.165 9.256-9.256 9.256"/>
            <path fill="#FEFEFE" d="M502.724 678.582l7.382 16.239 7.197-16.24z"/>
            <path fill="#B93B4B" d="M510.427 680.59h-.735a2.187 2.187 0 0 1-2.18-2.18c0-1.2.981-2.181 2.18-2.181h.735c1.2 0 2.181.982 2.181 2.18 0 1.2-.982 2.182-2.18 2.182"/>
            <path fill="#FCD4AB" d="M520.538 665.696c0 7.693-4.634 13.93-10.349 13.93s-10.347-6.236-10.347-13.93c0-7.695 4.632-13.932 10.348-13.932 5.714 0 10.348 6.237 10.348 13.932"/>
            <path fill="#B93B4B" d="M508.866 680.358l-.736 8.68 1.983 4.362 1.921-4.337-.777-8.705z"/>
            <path fill="#FEFEFE" d="M523.258 705.154l.02 18.677c0 .56-.459 1.02-1.02 1.02a1.022 1.022 0 0 1-1.02-1.018l-.019-18.677a1.023 1.023 0 0 1 1.018-1.021c.561 0 1.02.458 1.021 1.019M519.51 708.194l.016 16.192a2.269 2.269 0 0 1-2.26 2.264 2.269 2.269 0 0 1-2.264-2.26l-.017-16.19a2.27 2.27 0 0 1 2.26-2.266 2.269 2.269 0 0 1 2.265 2.26"/>
            <path fill="#020302" d="M519.838 670.73s1.854-9.482-4.11-10.874c-5.962-1.391-10.123-1.102-11.232-7.18-1.11-6.08 3.294-6.285 8.667-5.112 5.756 1.256 8.807 4.2 7.966 12.563-.56 5.572-1.291 10.604-1.291 10.604"/>
            <path fill="#020302" d="M507.512 656.537s-2.876 1.098-5.096 3.32c-2.221 2.22-2.367 8.618-2.367 8.618s-1.84-7.63-1.066-13.195c.859-6.187 5.305-6.752 8.529-4.534 3.224 2.22 0 5.791 0 5.791M504.644 666.253c-1.038 0-1.883.683-1.883 1.523v.7c0 .84.845 1.523 1.883 1.523h2.37c1.038 0 1.883-.683 1.883-1.523v-.7c0-.84-.845-1.523-1.883-1.523h-2.37zm2.37 4.024h-2.37c-1.228 0-2.227-.808-2.227-1.801v-.7c0-.993 1-1.801 2.227-1.801h2.37c1.228 0 2.227.808 2.227 1.8v.7c0 .994-.999 1.802-2.227 1.802zM513.365 666.253c-1.038 0-1.883.683-1.883 1.523v.7c0 .84.845 1.523 1.883 1.523h2.37c1.038 0 1.883-.683 1.883-1.523v-.7c0-.84-.845-1.523-1.883-1.523h-2.37zm2.37 4.024h-2.37c-1.228 0-2.226-.808-2.226-1.801v-.7c0-.993.998-1.801 2.226-1.801h2.37c1.228 0 2.227.808 2.227 1.8v.7c0 .994-.999 1.802-2.227 1.802z"/>
            <mask id="f" fill="#fff">
                <use xlink:href="#e"/>
            </mask>
            <path fill="#020302" d="M509.072 668.475h2.184v-.349h-2.184z" mask="url(#f)"/>
            <path fill="#75C09F" d="M530.245 729.179l-23.417-6.083 33.654-129.538 23.416 6.083z" mask="url(#f)"/>
            <path fill="#F3BF8B" d="M511.832 702.93c0 1.865 1.279 3.377 2.855 3.377s2.853-1.512 2.853-3.377c0-1.865-1.277-3.377-2.853-3.377-1.577 0-2.855 1.512-2.855 3.377" mask="url(#f)"/>
            <path fill="#0B7B9F" d="M539.662 692.428l-21.243 5.668a3.45 3.45 0 0 0-2.43 4.307l.242.829c.52 1.785 2.415 2.853 4.212 2.374l21.243-5.667a3.452 3.452 0 0 0 2.429-4.308l-.242-.83c-.52-1.784-2.415-2.852-4.211-2.373" mask="url(#f)"/>
            <path fill="#FEFEFE" d="M517.282 699.017c-.54.104-2.001.61-2.001.61s-.416 2.387.569 4.408c.985 2.02 1.691 1.907 1.691 1.907l1.633-.605-1.892-6.32z" mask="url(#f)"/>
            <path fill="#F3BF8B" d="M520.4 712.078c0 1.733-1.466 3.137-3.272 3.137-1.809 0-3.274-1.404-3.274-3.137s1.465-3.137 3.274-3.137c1.806 0 3.272 1.404 3.272 3.137" mask="url(#f)"/>
            <path fill="#0B7B9F" d="M511.44 715.128l-21.422-4.953a3.451 3.451 0 0 1-2.572-4.224l.214-.836c.46-1.802 2.318-2.933 4.13-2.514l21.42 4.953a3.451 3.451 0 0 1 2.572 4.224l-.213.836c-.46 1.802-2.319 2.933-4.13 2.514" mask="url(#f)"/>
            <path fill="#FEFEFE" d="M514.59 708.22s-.08 2.498-.685 4.564c-.604 2.067-.706 2.43-.706 2.43l1.752.267s1.348-2.167 1.5-3.83c.15-1.664 0-2.975 0-2.975l-1.86-.457z" mask="url(#f)"/>
            <path fill="#020302" d="M504.659 793.159s-3.158.218-5.748 1.507c-2.591 1.29-2.526 1.382-2.819 1.843-.293.46 10.956 1.198 12.414 0 1.458-1.198.016-3.35.016-3.35h-3.863zM518.596 793.159s3.158.218 5.748 1.507c2.59 1.29 2.526 1.382 2.819 1.843.293.46-10.956 1.198-12.414 0-1.458-1.198-.016-3.35-.016-3.35h3.863z" mask="url(#f)"/>
        </g>
        <g transform="translate(0 -.646)">
            <path fill="#BCE6F6" d="M150.395 115.133l.503.287-.503.29z"/>
            <path fill="#01583D" d="M146.137 170.656c-1.577 1.966-1.9 4.634-.823 6.817 1.424 2.887 4.542 3.39 4.818 3.43 2.913.457 5.244-1.173 5.52-2.993a41201298674194840 41201298674194840 0 0 1-1.442-35.056c-3.112 1.305-3.573 6.462-4.318 11.338-.627 4.105-1.717 9.71-3.755 16.464"/>
            <path fill="#0D1E24" d="M127.09 243.132c-2.035 5.453-4.622 15.518-2.363 16.543 2.261 1.026 9.858-6.796 10.602-15.722.358-4.301-.82-9.501-2.637-9.749-2.159-.295-4.687 6.477-5.602 8.928"/>
            <path fill="#0D1E24" d="M129.366 239.893c-.5 1.185-2.506 5.936-1.4 6.652.923.6 4.16-1.53 5.076-4.55.798-2.63-.215-5.762-1.225-5.866-.826-.085-1.645 1.855-2.451 3.764M132.891 244.104c-2.035 5.453-4.622 15.518-2.363 16.543 2.262 1.026 9.858-6.795 10.602-15.722.358-4.3-.821-9.501-2.637-9.75-2.159-.294-4.687 6.478-5.602 8.929"/>
            <path fill="#0D1E24" d="M135.167 240.865c-.5 1.184-2.506 5.935-1.4 6.652.923.6 4.16-1.53 5.076-4.55.798-2.63-.215-5.762-1.225-5.866-.826-.085-1.645 1.854-2.451 3.764"/>
            <path fill="#B25426" d="M135.506 241.004l-4.103-35.418 28.95-2.95c5.747-2.094 7.734-7.663 6.215-10.453-1.283-2.359-5.553-3.62-9.888-1.978a358.94 358.94 0 0 0-17.883 3.45c-12.447 2.728-15.369 4.061-17.113 6.748-2.125 3.276-1.44 6.936 0 14.037a2945.15 2945.15 0 0 0 5.831 28.076 6.766 6.766 0 0 0 3.78.675c2.387-.279 3.835-1.773 4.211-2.187"/>
            <path fill="#01583D" d="M152.344 172.506c.259 5.685.56 14.341.557 25.136h22.589c-.321-18.184-.645-36.37-.965-54.553a18.85 18.85 0 0 0-1.316-1.666 20.43 20.43 0 0 0-2.258-2.209c-2.076-1.732-4.907-3.293-8.098-2.895-.551.068-2.841.407-5.452 2.822a15.09 15.09 0 0 0-1.322 1.38 16.046 16.046 0 0 0-1.182 1.57l-.004.004c-4.289 6.465-3.242 15.108-2.549 30.411"/>
            <path fill="#E8B79E" d="M159.816 137.835c.218 2.06 1.48 3.69 2.918 3.97 1.936.374 4.58-1.624 4.67-4.904l.467-9.105c-2.547-.352-5.093-.703-7.64-1.053l-.415 11.093"/>
            <path fill="#B0E1F2" d="M167.466 136.267l-3.622 5.512 2.057 4.026 3.468-8.242-1.903-1.296M161.668 141.33l-1.851-4.779-1.34 1.295.85 7.005 2.34-3.52"/>
            <path fill="#B25426" d="M133.681 201.422c2.122-2.413 4.761-3.084 13.865-4.928 1.55-.314 3.065-.617 4.548-.91l.754-5.9 22.858 2.632-.124 3.702c.675 2.949-1.449 7.564-6.558 9.425l-25.897 4.222-2.103 32.358c-.275.359-1.322 1.64-3.199 2.037-2.316.489-4.078-.751-4.36-.957-1.512-11.354-2.122-20.825-2.376-27.86-.243-6.732-.142-10.712 2.592-13.821"/>
            <path fill="#082334" d="M152.375 193.605l23.54.216-.324-4.859-22.892-.324-.324 4.967"/>
            <mask id="h" fill="#fff">
                <use xlink:href="#g"/>
            </mask>
            <path fill="#FFD590" d="M171.596 194.469h1.836v-5.831h-1.836z" mask="url(#h)"/>
            <path fill="#591D0D" d="M167.962 128.252c-4.084.264-8.167.53-12.251.793l-7.961-16.804a25.64 25.64 0 0 1 7.922-4.989c3.544-1.4 8.525-3.377 12.955-.91 2.82 1.572 5.406 4.916 5.264 8.25-.097 2.284-1.413 3.11-3.685 7.988a51.395 51.395 0 0 0-2.244 5.672" mask="url(#h)"/>
            <path fill="#E8B79E" d="M165.417 132.363c-.57 1.749-2.468 3.862-8.408 5.333l-6.559-19.66c2.304-.267 4.61-.532 6.913-.8 3.135-3.61 4.272-4.17 4.697-3.913.715.43-.714 3.075.431 6.206a7.895 7.895 0 0 0 1.414 2.395c1.908.272 2.813.894 3.155 1.642.445.972-.182 1.894-.809 4.117-.76 2.692-.442 3.477-.834 4.68" mask="url(#h)"/>
            <path fill="#E8B79E" d="M167.986 122.178c.39 1.865-.732 4.141-2.076 4.24-1.038.074-1.996-1.164-2.36-2.146-.74-1.996.307-4.716 1.69-4.912 1.117-.158 2.436 1.337 2.746 2.818" mask="url(#h)"/>
            <path fill="#01583D" d="M170.712 171.824c-1.167 2.234-.966 4.914.513 6.847 1.957 2.557 5.113 2.447 5.392 2.432 2.947-.117 4.917-2.168 4.836-4.006-.071-1.61-1.696-2.666-1.93-2.814l-.405-22.704c.227-5.406-1.867-9.025-3.748-9.15-1.594-.106-3.461 2.268-4.554 5.422l-.104 23.973" mask="url(#h)"/>
            <path fill="#231818" d="M167.104 202.18v1.092l-1.199-.546z" mask="url(#h)"/>
            <path fill="#231818" d="M117.447 195.667l17.226-9.946c.793-.458 2.082-.458 2.876 0l28.96 16.72c.794.459.794 1.203 0 1.661l-17.226 9.946c-.794.459-2.082.459-2.877 0l-28.96-16.72c-.793-.459-.793-1.202 0-1.661" mask="url(#h)"/>
            <path fill="#FEFEFE" d="M117.447 196.139l28.958 16.72c.796.459 2.083.459 2.877 0l17.226-9.946c.794-.458.794-1.202 0-1.661l-28.959-16.72c-.794-.458-2.083-.458-2.876 0l-17.227 9.946c-.793.459-.793 1.202 0 1.66" mask="url(#h)"/>
            <path fill="#939292" d="M141.813 193.837l6.358 3.671 4.24-2.447-6.359-3.67z" mask="url(#h)"/>
            <path fill="#AEADAD" d="M141.813 193.837l6.177 3.566 4.06-2.343-6.179-3.566z" mask="url(#h)"/>
            <path fill="#3E2C2B" d="M155.092 204.599l2.07 1.195.428-.247c.387-.224.387-.585 0-.809l-1.37-.79-1.128.651zM153.543 203.705l.88.508c.13.075.342.075.473 0l.655-.378c.131-.076.131-.198 0-.274l-.879-.508a.527.527 0 0 0-.474 0l-.655.379c-.13.075-.13.197 0 .273M151.732 202.659l.88.508c.13.075.342.075.473 0l.655-.378c.131-.076.131-.198 0-.274l-.88-.507a.52.52 0 0 0-.473 0l-.655.378c-.131.075-.131.197 0 .273M149.92 201.613l.88.508c.13.075.343.075.474 0l.655-.378c.13-.076.13-.198 0-.274l-.88-.507a.52.52 0 0 0-.473 0l-.655.378c-.131.075-.131.198 0 .273M148.11 200.567l.88.508c.13.076.341.076.472 0l.655-.379c.131-.075.131-.196 0-.273l-.88-.507a.525.525 0 0 0-.473 0l-.655.379c-.13.075-.13.197 0 .273M146.298 199.522l.88.508c.13.075.342.075.473 0l.655-.378c.131-.076.131-.198 0-.274l-.88-.507a.52.52 0 0 0-.473 0l-.655.378c-.13.075-.13.198 0 .273M144.487 198.476l.88.508c.13.075.342.075.473 0l.655-.378c.13-.076.13-.198 0-.274l-.88-.507a.52.52 0 0 0-.473 0l-.655.378c-.131.075-.131.198 0 .273M142.676 197.43l.88.508c.13.075.342.075.473 0l.655-.378c.13-.076.13-.198 0-.274l-.88-.507a.521.521 0 0 0-.473 0l-.655.378c-.131.075-.131.197 0 .273M140.864 196.384l.88.508a.527.527 0 0 0 .473 0l.655-.378c.131-.076.131-.198 0-.274l-.88-.507a.52.52 0 0 0-.473 0l-.655.378c-.13.075-.13.198 0 .273M139.053 195.339l.88.508c.13.075.342.075.473 0l.655-.378c.131-.076.131-.198 0-.274l-.88-.507a.52.52 0 0 0-.473 0l-.655.378c-.13.075-.13.198 0 .273M152.108 204.533l.88.508c.13.075.342.075.473 0l.655-.378c.131-.076.131-.198 0-.274l-.88-.507a.52.52 0 0 0-.473 0l-.655.378c-.131.075-.131.198 0 .273M150.297 203.488l.88.508c.13.075.342.075.473 0l.655-.38c.13-.074.13-.196 0-.272l-.88-.508a.525.525 0 0 0-.473 0l-.655.379c-.131.075-.131.198 0 .273M148.486 202.442l.88.508c.13.075.341.075.472 0l.656-.378c.13-.076.13-.198 0-.274l-.88-.508a.525.525 0 0 0-.474 0l-.654.379c-.131.075-.131.197 0 .273M146.674 201.396l.88.508c.13.075.342.075.473 0l.655-.379c.131-.075.131-.197 0-.273l-.879-.508a.527.527 0 0 0-.474 0l-.655.38c-.13.074-.13.197 0 .272M144.863 200.35l.88.508c.13.075.342.075.473 0l.655-.378c.131-.076.131-.198 0-.274l-.88-.507a.52.52 0 0 0-.473 0l-.655.378c-.131.075-.131.198 0 .273M143.052 199.305l.88.508c.13.075.342.075.473 0l.655-.378c.13-.076.13-.198 0-.274l-.88-.507a.52.52 0 0 0-.473 0l-.655.378c-.131.075-.131.197 0 .273M141.24 198.259l.88.508c.13.075.342.075.473 0l.655-.378c.131-.076.131-.198 0-.274l-.88-.507a.52.52 0 0 0-.473 0l-.655.378c-.13.075-.13.198 0 .273M139.43 197.213l.88.508c.13.075.341.075.472 0l.655-.378c.131-.076.131-.198 0-.274l-.88-.508a.525.525 0 0 0-.473 0l-.655.38c-.13.074-.13.196 0 .272M137.618 196.167l.88.508c.13.075.342.075.473 0l.655-.378c.13-.076.13-.198 0-.274l-.88-.507a.52.52 0 0 0-.473 0l-.655.378c-.131.075-.131.197 0 .273M135.751 195.133l.88.508c.13.075.342.075.473 0l.655-.378c.131-.076.131-.198 0-.274l-.88-.507a.52.52 0 0 0-.473 0l-.655.378c-.13.075-.13.198 0 .273M150.673 205.362l.88.508c.13.075.342.075.473 0l.655-.378c.13-.076.13-.198 0-.274l-.88-.507a.52.52 0 0 0-.473 0l-.655.378c-.131.075-.131.198 0 .273M148.862 204.316l.88.508c.13.075.342.075.473 0l.655-.378c.13-.076.13-.198 0-.274l-.88-.507a.52.52 0 0 0-.473 0l-.655.378c-.131.075-.131.197 0 .273M147.05 203.27l.88.508c.13.076.342.076.473 0l.655-.379c.131-.075.131-.197 0-.273l-.88-.507a.52.52 0 0 0-.473 0l-.655.379c-.13.075-.13.198 0 .273M145.239 202.225l.88.508c.13.075.342.075.473 0l.655-.378c.131-.076.131-.198 0-.274l-.879-.507a.521.521 0 0 0-.474 0l-.655.378c-.131.075-.131.198 0 .273M143.428 201.179l.88.508c.13.075.342.075.473 0l.655-.379c.13-.075.13-.197 0-.273l-.88-.508a.525.525 0 0 0-.473 0l-.655.379c-.131.075-.131.197 0 .273M141.617 200.133l.88.508c.13.075.341.075.472 0l.656-.378c.13-.076.13-.198 0-.274l-.88-.507a.52.52 0 0 0-.474 0l-.654.378c-.131.075-.131.198 0 .273M139.805 199.088l.88.507c.13.076.342.076.473 0l.655-.377c.131-.076.131-.198 0-.274l-.88-.508a.525.525 0 0 0-.473 0l-.655.379c-.13.075-.13.197 0 .273M134.218 195.975l.88.508c.13.075.342.075.473 0l.655-.38c.13-.074.13-.196 0-.272l-.88-.508a.525.525 0 0 0-.473 0l-.655.379c-.131.075-.131.198 0 .273M137.994 198.042l.88.508c.13.075.342.075.473 0l.655-.378c.131-.076.131-.198 0-.274l-.88-.507a.52.52 0 0 0-.473 0l-.655.378c-.131.075-.131.197 0 .273M136.267 196.99l.88.507c.13.075.342.075.473 0l.655-.378c.131-.076.131-.198 0-.274l-.88-.507a.52.52 0 0 0-.473 0l-.655.378c-.13.075-.13.198 0 .273M149.205 206.172l.596.344a.45.45 0 0 0 .407 0l.72-.416c.114-.065.114-.171 0-.236l-.595-.343a.45.45 0 0 0-.407 0l-.721.416c-.113.065-.113.17 0 .235M147.426 205.145l.88.508c.13.075.342.075.473 0l.655-.378c.131-.076.131-.198 0-.274l-.88-.507a.52.52 0 0 0-.473 0l-.655.378c-.13.075-.13.198 0 .273M145.615 204.1l.88.507c.13.075.342.075.473 0l.655-.378c.131-.076.131-.198 0-.274l-.88-.507a.52.52 0 0 0-.473 0l-.655.378c-.13.075-.13.198 0 .273M143.804 203.053l.88.508c.13.075.342.075.473 0l.655-.379c.13-.075.13-.197 0-.273l-.88-.507a.52.52 0 0 0-.473 0l-.655.378c-.131.075-.131.197 0 .273M141.993 202.008l.88.508c.13.075.342.075.473 0l.655-.378c.13-.076.13-.198 0-.274l-.88-.507a.52.52 0 0 0-.473 0l-.655.378c-.131.075-.131.198 0 .273M140.181 200.962l.88.508c.13.075.342.075.473 0l.655-.38c.131-.074.131-.196 0-.272l-.88-.508a.525.525 0 0 0-.473 0l-.655.379c-.13.075-.13.197 0 .273M138.37 199.916l.88.508c.13.075.342.075.473 0l.655-.378c.131-.076.131-.198 0-.274l-.879-.507a.521.521 0 0 0-.474 0l-.655.378c-.131.075-.131.197 0 .273M136.559 198.87l.879.508a.527.527 0 0 0 .474 0l.655-.378c.13-.076.13-.198 0-.274l-.88-.507a.52.52 0 0 0-.473 0l-.655.378c-.131.075-.131.198 0 .273M134.767 197.84l.879.508a.527.527 0 0 0 .474 0l.655-.378c.13-.076.13-.198 0-.274l-.88-.507a.52.52 0 0 0-.473 0l-.655.378c-.131.075-.131.197 0 .273M132.733 196.804l.88.507c.13.076.342.076.473 0l.655-.377c.131-.077.131-.198 0-.274l-.88-.507a.52.52 0 0 0-.473 0l-.655.377c-.131.076-.131.198 0 .274M129.333 196.577l.88.508c.13.075.342.075.473 0l.655-.378c.13-.076.13-.198 0-.274l-.88-.507a.52.52 0 0 0-.473 0l-.655.378c-.131.075-.131.198 0 .273M133.665 193.885l.88.508c.13.075.342.075.473 0l.655-.378c.13-.076.13-.198 0-.274l-.88-.507a.52.52 0 0 0-.473 0l-.655.378c-.131.075-.131.198 0 .273M131.853 192.84l.88.507c.13.075.342.075.473 0l.655-.379c.131-.075.131-.197 0-.273l-.88-.508a.525.525 0 0 0-.473 0l-.655.38c-.13.074-.13.196 0 .272M133.503 192.143l.88.508c.13.075.342.075.473 0l.655-.378c.131-.076.131-.198 0-.274l-.88-.507a.52.52 0 0 0-.473 0l-.655.378c-.13.075-.13.198 0 .273M130.042 191.793l.88.508c.13.075.342.075.473 0l.655-.378c.131-.076.131-.198 0-.274l-.88-.507a.52.52 0 0 0-.473 0l-.655.378c-.13.075-.13.198 0 .273M131.631 190.94l.88.508c.13.075.342.075.473 0l.655-.378c.131-.076.131-.198 0-.274l-.88-.507a.52.52 0 0 0-.473 0l-.655.378c-.131.075-.131.198 0 .273M128.23 190.748l.88.508c.13.075.343.075.474 0l.655-.379c.13-.076.13-.198 0-.274l-.88-.507a.52.52 0 0 0-.473 0l-.655.379c-.131.075-.131.198 0 .273M132.23 194.714l.879.507a.527.527 0 0 0 .474 0l.655-.377c.13-.076.13-.198 0-.274l-.88-.507a.52.52 0 0 0-.474 0l-.654.377c-.131.076-.131.197 0 .274M130.418 193.668l.88.508c.13.075.342.075.473 0l.655-.378c.131-.076.131-.198 0-.274l-.879-.507a.521.521 0 0 0-.474 0l-.655.378c-.13.075-.13.198 0 .273M128.607 192.622l.88.508c.13.075.342.075.473 0l.655-.378c.131-.076.131-.198 0-.274l-.88-.507a.52.52 0 0 0-.473 0l-.655.378c-.131.075-.131.198 0 .273M126.796 191.576l.88.508c.13.075.342.075.473 0l.655-.378c.13-.076.13-.198 0-.274l-.88-.507a.52.52 0 0 0-.473 0l-.655.378c-.131.075-.131.197 0 .273M130.751 195.565l.88.508c.13.075.342.075.473 0l.655-.378c.131-.076.131-.198 0-.274l-.88-.507a.52.52 0 0 0-.473 0l-.655.378c-.13.075-.13.197 0 .273M128.983 194.496l.88.508c.13.075.342.075.473 0l.655-.378c.131-.076.131-.198 0-.274l-.88-.507a.52.52 0 0 0-.473 0l-.655.378c-.131.075-.131.198 0 .273M127.61 195.48l.88.508c.13.075.342.075.473 0l.655-.378c.13-.076.13-.198 0-.274l-.88-.507a.52.52 0 0 0-.473 0l-.655.378c-.131.075-.131.198 0 .273M127.172 193.45l.88.509c.13.075.342.075.473 0l.655-.378c.13-.076.13-.198 0-.274l-.88-.507a.52.52 0 0 0-.473 0l-.655.378c-.131.075-.131.197 0 .273M125.746 194.38l.88.507c.13.076.342.076.473 0l.655-.379c.13-.075.13-.197 0-.273l-.88-.508a.525.525 0 0 0-.473 0l-.655.38c-.131.075-.131.197 0 .273M125.36 192.405l.88.508c.13.075.343.075.474 0l.654-.378c.132-.076.132-.198 0-.274l-.88-.507a.52.52 0 0 0-.472 0l-.656.378c-.13.075-.13.198 0 .273M137.242 194.293l.88.508c.13.075.342.075.473 0l.655-.38c.13-.074.13-.196 0-.272l-.88-.507a.52.52 0 0 0-.473 0l-.655.378c-.131.075-.131.197 0 .273M135.53 193.264l.88.508c.13.075.343.075.474 0l.655-.378c.13-.076.13-.198 0-.274l-.88-.507a.52.52 0 0 0-.474 0l-.655.378c-.13.075-.13.198 0 .273M129.452 189.795l1.353.781 1.128-.65-.224-.13c-.623-.36-1.634-.36-2.257 0zM153.937 205.59l1.494.862a.636.636 0 0 0 .576 0l.553-.319c.16-.092.16-.24 0-.333l-1.495-.863a.64.64 0 0 0-.575 0l-.553.32c-.159.092-.159.24 0 .332M152.487 206.418l1.51.872a.62.62 0 0 0 .56 0l.568-.328c.155-.09.155-.234 0-.324l-1.51-.871a.614.614 0 0 0-.56 0l-.568.328c-.155.089-.155.234 0 .323M150.48 206.908l2.066 1.193a.674.674 0 0 0 .606 0l.523-.302c.167-.097.167-.253 0-.35l-2.067-1.192a.665.665 0 0 0-.605 0l-.523.3c-.167.098-.167.255 0 .35M149.314 207.926l.941.544c.624.36 1.634.36 2.257 0l-2.07-1.195-1.128.651zM147.845 207.078l.72.416a.7.7 0 0 0 .633 0l.495-.286c.175-.1.175-.265 0-.366l-.72-.416a.703.703 0 0 0-.632 0l-.496.287c-.175.101-.175.264 0 .365M146.041 206.037l.72.416a.7.7 0 0 0 .633 0l.495-.286c.175-.101.175-.265 0-.366l-.72-.415a.697.697 0 0 0-.632 0l-.496.286c-.175.1-.175.264 0 .365M143.947 204.827l.975.563c.194.112.51.112.705 0l.423-.245c.195-.112.195-.294 0-.407l-.975-.562a.775.775 0 0 0-.705 0l-.423.244c-.195.112-.195.295 0 .407M135.193 199.773l7.762 4.482a.648.648 0 0 0 .582 0l.547-.316c.16-.093.16-.243 0-.336l-7.763-4.482a.646.646 0 0 0-.58 0l-.548.316c-.16.093-.16.243 0 .336M133.463 198.774l.624.36a.8.8 0 0 0 .73 0l.4-.23c.2-.117.2-.305 0-.42l-.626-.36a.799.799 0 0 0-.728 0l-.4.23c-.2.116-.2.304 0 .42M131.764 197.794l.415.239c.258.15.68.15.939 0l.189-.11c.258-.15.258-.392 0-.542l-.413-.24a1.044 1.044 0 0 0-.94 0l-.19.11c-.258.15-.258.393 0 .543M124.374 193.527l.653.377 1.128-.652-1.353-.781-.428.248c-.387.223-.387.585 0 .808" mask="url(#h)"/>
            <path fill="#231818" d="M116.713 173.341l-1.005.474.94.31z" mask="url(#h)"/>
            <path fill="#E8B79E" d="M157.559 191.718c4.107-2.755 7.359-4.478 9.623-5.558 1.609-.769 2.725-1.479 4.957-2.9 2.322-1.478 3.253-2.249 3.826-3.507.48-1.053.939-2.947.027-3.87-.583-.59-1.507-.566-2.75-.533a9.41 9.41 0 0 0-2.987.575l-15.02 12.11 2.324 3.683" mask="url(#h)"/>
            <path fill="#E8B79E" d="M147.574 194.256a5.981 5.981 0 0 0 2.304 2.053c1.893.945 3.693.552 4.2.423l4.95-6.017-2.6-3.663-5.352 2.89-3.502 4.314M140.647 194.62c2.58-4.219 4.815-7.143 6.42-9.07 1.141-1.37 1.858-2.483 3.292-4.707 1.492-2.313 2.015-3.401 2.011-4.783-.004-1.159-.379-3.07-1.594-3.529-.775-.292-1.605.117-2.72.665a9.41 9.41 0 0 0-2.474 1.772l-8.585 17.278 3.65 2.374" mask="url(#h)"/>
            <path fill="#231818" d="M116.248 174.336c0-.97.681-1.363 1.521-.878l28.795 16.624c.84.485 1.521 1.664 1.521 2.634v19.7c0 .97-.682 1.364-1.522.879L117.77 196.67c-.84-.485-1.52-1.665-1.52-2.635v-19.7z" mask="url(#h)"/>
            <path fill="#FEFEFE" d="M116.804 197.121l28.795 16.624c.84.485 1.521.092 1.521-.878v-19.7c0-.97-.68-2.15-1.52-2.635l-28.796-16.624c-.84-.485-1.52-.092-1.52.878v19.7c0 .971.68 2.15 1.52 2.635" mask="url(#h)"/>
            <path fill="#2CADD1" d="M562.107 93.671c-1.795-.78-4.361-2.165-6.781-4.606-3.378-3.407-4.413-6.796-6.441-13.434-1.658-5.427-1.406-7.26-.512-8.572.87-1.276 2.222-1.875 3.199-2.175.679 3.55 2.375 9.491 7.08 14.97a30.51 30.51 0 0 0 4.607 4.35 53.784 53.784 0 0 0 12.069-7.123c.233-.27.885-.95 1.876-1.066 1.36-.16 2.81.806 3.455 2.431a45.482 45.482 0 0 1-18.552 15.225" mask="url(#h)"/>
            <path fill="#C19074" d="M586.8 71.793c.7 1.002-1.603 3.594-4.094 6.397-1.14 1.283-1.976 2.036-3.199 2.218-.214.032-1.582.213-2.815-.683-1.053-.765-1.98-2.297-1.535-3.326.386-.893 1.488-.57 3.582-1.791 1.57-.915 1.553-1.348 2.815-2.047 1.816-1.007 4.63-1.651 5.246-.768M553.715 64.696c-.646 1.96-.167 3.96 1.026 4.803 1.606 1.134 4.827.4 6.253-2.543l4.154-8.084-6.51-4.087-4.923 9.91" mask="url(#h)"/>
            <path fill="#C19074" d="M559.58 60.71c.01.97 1.772 2.245 8.923 3.704a31.226 31.226 0 0 0 4.435-7.676 31.309 31.309 0 0 0 2.217-10.406 531.781 531.781 0 0 0-8.016 7.506c-1.78 1.704-2.028 1.974-2.9 2.73-3.263 2.823-4.67 3.268-4.66 4.141" mask="url(#h)"/>
            <path fill="#061B37" d="M553.832 59.297l5.63 2.218c3.704-1.717 11.263-5.912 15.694-14.501a29.64 29.64 0 0 0 2.332-6.099 25.585 25.585 0 0 0-7.823-5.09c-3.512-1.449-8.447-3.492-12.9-1.099-3.497 1.881-4.67 5.878-5.369 8.145-.19.619-1.09 3.664-.635 7.726a20.652 20.652 0 0 0 3.071 8.7" mask="url(#h)"/>
            <path fill="#C19074" d="M570.38 55.032c-.04.221-.377 2.131-1.535 2.388-1.15.255-2.676-1.215-2.73-2.729-.068-1.86 2.091-3.48 3.241-3.07.98.35 1.241 2.182 1.024 3.411" mask="url(#h)"/>
            <path fill="#192315" d="M538.86 188.33c-1.495-.26-1.91-.828-4.247-1.157-1.207-.171-1.806-.12-2.82-.45-1.303-.424-2.252-1.138-2.863-1.692a4.29 4.29 0 0 1-.083-1.366c.131-1.303.834-2.187 1.161-2.548 2.763.307 4.897.914 6.352 1.422 1.642.573 1.69.765 4.506 1.864 3.512 1.37 4.44 1.462 4.466 1.945.051.932-3.334 2.528-6.473 1.982M566.782 194.212c-1.634.23-2.25-.228-4.78.212-1.307.228-1.91.484-3.071.477-1.488-.008-2.704-.44-3.518-.818a4.8 4.8 0 0 1-.531-1.41c-.288-1.419.154-2.586.375-3.077 2.965-.608 5.376-.688 7.05-.643 1.889.05 2 .236 5.279.444 4.087.26 5.079.044 5.264.545.356.964-2.635 3.787-6.068 4.27" mask="url(#h)"/>
            <path fill="#404041" d="M554.698 120.2l-.098-1.281-9.042-2.474 4.095 35.142-19.715 29.684c.127.368.585 1.535 1.786 2.18 1.42.76 3.3.48 4.708-.731l17.686-22.013 1.079 29.519c.089.138 1.108 1.648 2.887 1.685 1.547.032 3.008-1.064 3.51-2.708l3.668-70.455-10.564 1.453" mask="url(#h)"/>
            <path fill="#2CADD1" d="M565.134 124.122c-.6.305-1.522.74-2.687 1.15-1.964.695-7.368 2.604-12.794.385a13.924 13.924 0 0 1-3.455-2.047 210.192 210.192 0 0 1-.895-6.141c-.335-2.56-1.425-11.276-1.74-26.46-.172-8.43.05-11.586.716-15.164 1.01-5.433 1.91-9.925 5.459-11.771 3.257-1.694 7.802-.672 10.747 1.535 6.62 4.96 6.088 16.599 5.788 23.162-.114 2.499-.37 5.904-.573 12.15-.111 3.409-.015 5.93.002 6.748.06 2.85-.003 7.704-.568 16.453" mask="url(#h)"/>
            <path fill="#2CADD1" d="M573.962 98.661a37.518 37.518 0 0 1-6.781-4.606c-6.902-5.893-10.068-12.975-11.515-17.144-1.198-4.246.23-7.568 2.047-8.061 1.662-.451 3.555 1.494 3.838 1.791 1.635 4.027 4.356 9.212 8.957 14.202a45.857 45.857 0 0 0 4.605 4.35 53.72 53.72 0 0 0 12.07-7.122c.232-.27.885-.95 1.876-1.066 1.36-.16 2.81.806 3.455 2.431a45.482 45.482 0 0 1-18.552 15.225" mask="url(#h)"/>
            <path fill="#C19074" d="M598.655 76.783c.699 1.002-1.603 3.594-4.094 6.397-1.14 1.283-1.976 2.036-3.199 2.218-.214.032-1.582.213-2.815-.683-1.053-.765-1.98-2.297-1.535-3.326.386-.893 1.489-.57 3.583-1.791 1.568-.915 1.552-1.348 2.814-2.047 1.816-1.007 4.63-1.651 5.246-.768" mask="url(#h)"/>
            <path fill="#2C1E11" d="M578.519 78.07l12.195 2.913c1.1.263 2.62-.19 3.398-1.01l4.75-5.017c.778-.82.516-1.7-.583-1.962l-12.195-2.914c-1.1-.263-2.621.19-3.4 1.011l-4.75 5.017c-.776.821-.515 1.7.585 1.962" mask="url(#h)"/>
            <path fill="#C19074" d="M577.331 77.38l-1.62-1.525a28.623 28.623 0 0 1 2.516-1.631c1.232-.71 2.097-1.2 2.366-.942.334.32-.449 1.617-.533 1.752-.369.602-1.14 1.599-2.729 2.346" mask="url(#h)"/>
            <path fill="#C19074" d="M578.482 78.915c-.46.367-1.255.313-1.962-.043l-.266-2.506 1.844-.607c1.13 1.128 1.052 2.626.385 3.156" mask="url(#h)"/>
            <path fill="#AFDCCA" d="M597.523 73.945l-5.334 5.685-12.915-2.842 5.405-5.827z" mask="url(#h)"/>
            <path fill="#C19074" d="M589.443 82.796l-2.43-1.407c.372-.601.975-1.46 1.876-2.346.67-.658 1.734-1.706 2.09-1.493.28.169.222 1.186-1.536 5.246" mask="url(#h)"/>
            <path fill="#BCE6F6" d="M533.063 418.5l-.596.34.596.343z" mask="url(#h)"/>
            <path fill="#003E54" d="M552.818 385.073s6.62-4.482 23.526-11.31c.947-.384 3.647-1.443 4.795-.338.913.88.802 3.095.779 3.718-.021.557-.073.97-.177 1.77-.087.67-.18 1.274-.27 1.803 0 0-9.64 8.817-9.257 4.635-2.195 2.044-6.922 4.324-16.176 8.785a12.114 12.114 0 0 1-3.882 1.484c-.472.091-6.283 1.137-8.366-1.944a4.19 4.19 0 0 1-.637-1.593 184.529 184.529 0 0 1 9.665-7.01" mask="url(#h)"/>
            <path fill="#FEC979" d="M551.662 344.618c-.735.144-2.704.411-4.684-.81a6.992 6.992 0 0 1-1.802-1.618l3.243-6.207 6.966 2.294-3.723 6.341" mask="url(#h)"/>
            <path fill="#FACEBE" d="M559.629 339.066c-3.115 1.755-7.82.705-11.696-2.118l-2.648-16.298 15.145-.64c5.624 7.692 3.706 16.517-.801 19.056" mask="url(#h)"/>
            <path fill="#082330" d="M547.66 336.948l-3.073-1.808a15.648 15.648 0 0 1-3.887-4.43c-.71-1.214-3.391-5.809-1.718-11.21 1.684-5.435 6.54-7.687 7.515-8.138 5.154-2.39 9.93-.847 12.555.002 3.003.97 6.043 1.953 6.69 4.52.575 2.285-.938 5.067-3.707 7.051-.542-.002-1.4-.03-2.441-.18-1.897-.275-2.42-.67-2.893-.453-.683.315-1.15 1.857 0 7.504l-1.446.271c.102-1.172-.525-2.195-1.431-2.501-.888-.299-1.83.161-2.283.721-.83 1.023-.555 3.026 1.002 4.673.07 1.161-.351 1.825-.543 2.08-.443.59-1.03.825-2.17 1.265-.86.332-1.613.521-2.17.633" mask="url(#h)"/>
            <path fill="#F8BA18" d="M543.774 342.824l9.04 3.526.904-3.888-8.588-3.164-1.356 3.526" mask="url(#h)"/>
            <path fill="#04516D" d="M541.56 391.552c.06 1.077.303 2.787 1.275 4.567 2.439 4.47 7.374 5.538 8.284 5.735.113.025.249.053.412.079 4.535.736 11.165-2.415 11.165-2.415 9.46-4.561 14.19-6.842 16.32-8.922.523-.51 1.91-1.924 4.178-2.726 1.848-.653 3.554-.643 4.709-.531.142-.724.33-1.769.496-3.045.104-.801.156-1.213.177-1.77.057-1.538.087-2.847-.78-3.717a2.665 2.665 0 0 0-.778-.531s-1.137-.556-2.726-.248c-1.588.308-10.945 4.093-23.614 9.701l-19.118 3.823" mask="url(#h)"/>
            <path fill="#80A7B5" d="M560.215 368.21v.995l.927-.56zM602.285 373.962v.914l-1.004-.457z" mask="url(#h)"/>
            <path fill="#231818" d="M602.786 372.739l.842-.397-.842-.301zM576.941 339.179l.782-.364.322.963z" mask="url(#h)"/>
            <path fill="#80A7B5" d="M560.714 368.51l14.42-8.326c.666-.384 1.744-.384 2.409 0l24.244 13.997c.665.384.665 1.007 0 1.39l-14.421 8.327c-.665.384-1.743.384-2.41 0L560.715 369.9c-.665-.384-.665-1.007 0-1.391" mask="url(#h)"/>
            <path fill="#231818" d="M577.33 339.65c0-.813.57-1.142 1.273-.736l24.106 13.917c.703.406 1.273 1.393 1.273 2.205v16.493c0 .812-.57 1.141-1.273.735l-24.106-13.917c-.703-.406-1.273-1.394-1.273-2.206V339.65z" mask="url(#h)"/>
            <path fill="#3E2C2B" d="M577.796 358.724l24.106 13.918c.703.406 1.273.077 1.273-.736v-16.492c0-.811-.57-1.8-1.273-2.205l-24.106-13.918c-.703-.406-1.273-.077-1.273.736v16.493c0 .812.57 1.798 1.273 2.204" mask="url(#h)"/>
            <path fill="#80BDE7" d="M577.202 356.821l25.293 14.603v-16.303l-25.293-14.603z" mask="url(#h)"/>
            <path fill="#111A23" d="M589.443 346.877c0 .259.182.574.406.703.224.129.406.024.406-.234a.897.897 0 0 0-.406-.703c-.224-.13-.406-.025-.406.234" mask="url(#h)"/>
            <path fill="#202933" d="M589.538 346.931c0 .2.139.44.312.54.171.1.31.018.31-.18a.688.688 0 0 0-.31-.54c-.173-.099-.313-.019-.313.18" mask="url(#h)"/>
            <path fill="#0E1317" d="M589.696 347.023c0 .098.068.216.153.265.084.049.153.009.153-.088a.338.338 0 0 0-.153-.265c-.085-.05-.153-.01-.153.088" mask="url(#h)"/>
            <path fill="#2C4359" d="M589.792 347.078c0 .036.025.081.057.1.031.017.057.002.057-.034a.126.126 0 0 0-.057-.099c-.032-.018-.057-.003-.057.033M590.446 347.456c0 .067.047.148.105.182.058.033.105.006.105-.061a.233.233 0 0 0-.105-.182c-.058-.033-.105-.006-.105.061" mask="url(#h)"/>
            <path fill="#D6EFF9" d="M560.714 368.905l24.243 13.997c.666.384 1.744.384 2.409 0l14.42-8.326c.666-.384.666-1.006 0-1.39l-24.243-13.998c-.665-.384-1.743-.384-2.408 0l-14.421 8.326c-.665.384-.665 1.007 0 1.39" mask="url(#h)"/>
            <path fill="#939292" d="M571.696 373.946l5.323 3.073 3.548-2.049-5.322-3.073z" mask="url(#h)"/>
            <path fill="#AEADAD" d="M571.696 373.946l5.17 2.986 3.399-1.962-5.171-2.986z" mask="url(#h)"/>
            <path fill="#3E2C2B" d="M575.412 360.137l24.73 14.28a.625.625 0 0 0 .563 0l.042-.025c.155-.09.155-.235 0-.325l-24.731-14.279a.625.625 0 0 0-.562 0l-.042.025c-.155.09-.155.234 0 .324M593.965 375.126l1.733 1 .358-.207c.324-.186.324-.489 0-.676l-1.146-.662-.945.545zM592.668 374.377l.736.425c.11.063.287.063.396 0l.55-.317c.108-.063.108-.165 0-.228l-.737-.425a.434.434 0 0 0-.397 0l-.548.316c-.109.063-.109.166 0 .23M591.152 373.502l.736.425a.44.44 0 0 0 .397 0l.548-.316c.109-.064.109-.166 0-.23l-.736-.424a.432.432 0 0 0-.396 0l-.55.316c-.108.064-.108.166 0 .229M589.635 372.626l.736.425a.44.44 0 0 0 .397 0l.548-.317c.11-.063.11-.165 0-.228l-.736-.426a.438.438 0 0 0-.396 0l-.549.317c-.109.063-.109.166 0 .23M588.12 371.75l.735.426a.44.44 0 0 0 .397 0l.548-.317c.11-.063.11-.165 0-.228l-.736-.425a.434.434 0 0 0-.397 0l-.548.316c-.109.063-.109.166 0 .229M586.603 370.875l.736.425c.11.063.287.063.396 0l.549-.317c.109-.063.109-.165 0-.228l-.736-.425a.434.434 0 0 0-.397 0l-.548.316c-.11.064-.11.166 0 .23M585.087 370l.736.425c.11.063.287.063.395 0l.55-.316c.108-.064.108-.166 0-.23l-.736-.424a.44.44 0 0 0-.398 0l-.548.316c-.109.064-.109.166 0 .229M583.57 369.125l.736.425a.44.44 0 0 0 .397 0l.548-.317c.11-.063.11-.166 0-.228l-.736-.425a.432.432 0 0 0-.396 0l-.549.316c-.109.063-.109.166 0 .228M582.054 368.249l.736.425a.44.44 0 0 0 .397 0l.548-.317c.109-.063.109-.165 0-.228l-.736-.425a.432.432 0 0 0-.396 0l-.55.316c-.108.063-.108.166 0 .229M580.538 367.373l.736.425a.44.44 0 0 0 .396 0l.548-.315c.11-.065.11-.166 0-.23l-.736-.424a.438.438 0 0 0-.395 0l-.55.315c-.109.065-.109.166 0 .23M591.467 375.071l.736.425c.11.063.287.063.396 0l.549-.317c.109-.063.109-.165 0-.228l-.736-.425a.432.432 0 0 0-.396 0l-.55.316c-.108.063-.108.166 0 .229M589.95 374.195l.736.425c.11.063.287.063.396 0l.55-.315c.108-.065.108-.166 0-.23l-.737-.424a.432.432 0 0 0-.396 0l-.549.315c-.109.063-.109.166 0 .23M588.434 373.32l.736.425c.11.063.287.063.396 0l.549-.317c.109-.063.109-.165 0-.228l-.736-.425a.432.432 0 0 0-.396 0l-.549.316c-.109.063-.109.166 0 .23M586.918 372.445l.736.425a.44.44 0 0 0 .397 0l.548-.317c.109-.063.109-.165 0-.228l-.736-.425a.432.432 0 0 0-.396 0l-.55.316c-.108.063-.108.166 0 .229M585.401 371.57l.736.424c.11.063.287.063.396 0l.55-.317c.108-.063.108-.165 0-.228l-.737-.425a.432.432 0 0 0-.396 0l-.549.316c-.109.063-.109.166 0 .23M583.885 370.694l.736.425c.11.063.287.063.396 0l.549-.317c.109-.063.109-.165 0-.228l-.736-.425a.432.432 0 0 0-.396 0l-.549.316c-.109.063-.109.166 0 .229M582.369 369.818l.736.425a.44.44 0 0 0 .397 0l.548-.317c.109-.063.109-.165 0-.228l-.736-.425a.432.432 0 0 0-.396 0l-.55.316c-.108.063-.108.166 0 .23M580.852 368.943l.736.425c.11.063.287.063.396 0l.55-.317c.108-.063.108-.165 0-.228l-.737-.425a.432.432 0 0 0-.396 0l-.549.316c-.109.064-.109.166 0 .229M579.336 368.067l.736.425c.11.063.287.063.396 0l.55-.316c.108-.064.108-.166 0-.229l-.737-.425a.434.434 0 0 0-.397 0l-.548.316c-.109.063-.109.166 0 .23M577.774 367.201l.736.425c.11.063.287.063.396 0l.549-.316c.109-.064.109-.166 0-.229l-.736-.425a.434.434 0 0 0-.397 0l-.548.316c-.11.064-.11.166 0 .229M590.265 375.765l.736.425c.11.063.287.063.396 0l.55-.317c.108-.063.108-.165 0-.228l-.737-.425a.432.432 0 0 0-.396 0l-.549.316c-.109.063-.109.166 0 .229M588.749 374.89l.736.424a.44.44 0 0 0 .397 0l.548-.317c.109-.063.109-.165 0-.228l-.736-.425a.432.432 0 0 0-.396 0l-.55.316c-.108.063-.108.166 0 .23M587.232 374.014l.736.425a.44.44 0 0 0 .397 0l.548-.317c.11-.063.11-.165 0-.228l-.736-.425a.432.432 0 0 0-.396 0l-.549.316c-.109.063-.109.166 0 .229M585.716 373.138l.736.425a.44.44 0 0 0 .397 0l.548-.317c.11-.063.11-.165 0-.228l-.736-.425a.432.432 0 0 0-.396 0l-.549.316c-.109.063-.109.166 0 .23M584.2 372.263l.736.425a.44.44 0 0 0 .397 0l.548-.317c.109-.063.109-.165 0-.228l-.736-.425a.432.432 0 0 0-.396 0l-.55.316c-.108.063-.108.166 0 .229M582.683 371.387l.736.425c.11.063.288.063.397 0l.548-.317c.11-.063.11-.165 0-.228l-.736-.425a.432.432 0 0 0-.396 0l-.548.316c-.11.063-.11.166 0 .23M581.167 370.512l.736.425a.44.44 0 0 0 .397 0l.548-.317c.11-.063.11-.165 0-.228l-.736-.425a.432.432 0 0 0-.396 0l-.549.316c-.109.063-.109.166 0 .229M576.49 367.906l.736.425c.11.063.287.063.396 0l.549-.317c.109-.063.109-.165 0-.228l-.736-.425a.432.432 0 0 0-.396 0l-.55.316c-.108.063-.108.166 0 .23M579.65 369.636l.737.425a.44.44 0 0 0 .397 0l.548-.317c.109-.063.109-.165 0-.228l-.736-.425a.432.432 0 0 0-.396 0l-.55.316c-.108.063-.108.166 0 .23M578.205 368.755l.736.425a.44.44 0 0 0 .397 0l.548-.317c.11-.063.11-.165 0-.228l-.736-.426a.438.438 0 0 0-.396 0l-.549.317c-.109.063-.109.166 0 .23M589.036 376.442l.5.288a.38.38 0 0 0 .34 0l.603-.348c.095-.055.095-.142 0-.197l-.498-.288a.373.373 0 0 0-.34 0l-.605.349c-.094.054-.094.143 0 .197M587.547 375.583l.736.425a.44.44 0 0 0 .397 0l.548-.316c.11-.064.11-.166 0-.23l-.736-.424a.432.432 0 0 0-.396 0l-.549.316c-.109.064-.109.166 0 .229M586.03 374.707l.737.425a.44.44 0 0 0 .397 0l.548-.317c.109-.063.109-.164 0-.228l-.736-.425a.438.438 0 0 0-.396 0l-.55.317c-.108.063-.108.166 0 .228M584.515 373.832l.736.425a.44.44 0 0 0 .397 0l.548-.317c.109-.063.109-.165 0-.228l-.736-.425a.432.432 0 0 0-.396 0l-.55.316c-.108.063-.108.166 0 .229M582.998 372.957l.736.425a.44.44 0 0 0 .397 0l.548-.317c.11-.063.11-.166 0-.228l-.736-.425a.434.434 0 0 0-.397 0l-.548.316c-.109.063-.109.166 0 .228M581.482 372.081l.736.425c.11.063.287.063.396 0l.55-.317c.108-.063.108-.165 0-.228l-.737-.426a.44.44 0 0 0-.397 0l-.548.317c-.109.063-.109.166 0 .23M579.966 371.206l.736.425c.11.063.287.063.396 0l.549-.317c.109-.063.109-.165 0-.228l-.736-.425a.432.432 0 0 0-.396 0l-.55.316c-.108.063-.108.166 0 .229M578.45 370.33l.735.425a.44.44 0 0 0 .397 0l.548-.317c.11-.063.11-.165 0-.228l-.736-.425a.432.432 0 0 0-.396 0l-.549.316c-.109.064-.109.166 0 .23M576.95 369.467l.735.425c.11.063.287.063.396 0l.55-.317c.108-.063.108-.165 0-.228l-.737-.425a.434.434 0 0 0-.397 0l-.548.316c-.109.063-.109.166 0 .23M575.246 368.6l.736.425a.44.44 0 0 0 .398 0l.548-.317c.109-.063.109-.165 0-.228l-.736-.425a.432.432 0 0 0-.397 0l-.548.316c-.11.063-.11.166 0 .229M572.4 368.41l.736.425a.44.44 0 0 0 .397 0l.548-.317c.11-.063.11-.165 0-.228l-.736-.425a.432.432 0 0 0-.396 0l-.549.316c-.109.063-.109.166 0 .23M576.027 366.156l.736.425a.44.44 0 0 0 .397 0l.548-.317c.109-.063.109-.165 0-.228l-.736-.425a.432.432 0 0 0-.396 0l-.55.317c-.108.063-.108.166 0 .228M574.51 365.281l.736.425c.11.063.287.063.396 0l.55-.317c.108-.063.108-.165 0-.228l-.737-.425a.432.432 0 0 0-.396 0l-.549.316c-.109.063-.109.166 0 .229M575.891 364.698l.736.425a.44.44 0 0 0 .397 0l.548-.316c.11-.064.11-.166 0-.229l-.736-.425a.438.438 0 0 0-.396 0l-.549.316c-.109.064-.109.166 0 .23M572.994 364.406l.736.424c.11.064.287.064.396 0l.549-.316c.109-.064.109-.166 0-.228l-.736-.425a.434.434 0 0 0-.397 0l-.548.315c-.109.064-.109.166 0 .23M574.324 363.691l.736.425a.44.44 0 0 0 .397 0l.548-.317c.109-.063.109-.165 0-.228l-.736-.425a.432.432 0 0 0-.396 0l-.549.316c-.109.063-.109.166 0 .23M571.478 363.53l.736.425c.11.063.287.063.396 0l.549-.316c.109-.064.109-.166 0-.229l-.736-.425a.44.44 0 0 0-.397 0l-.548.316c-.11.064-.11.166 0 .229M574.825 366.85l.736.425a.44.44 0 0 0 .397 0l.548-.317c.109-.063.109-.165 0-.228l-.736-.426a.438.438 0 0 0-.396 0l-.549.317c-.109.063-.109.166 0 .23M573.309 365.975l.736.425a.44.44 0 0 0 .397 0l.548-.317c.109-.063.109-.165 0-.228l-.736-.425a.432.432 0 0 0-.396 0l-.55.316c-.108.063-.108.166 0 .229M571.792 365.1l.736.424a.44.44 0 0 0 .397 0l.548-.317c.11-.063.11-.165 0-.228l-.736-.425a.432.432 0 0 0-.396 0l-.549.316c-.109.064-.109.166 0 .23M570.276 364.224l.736.425c.11.063.287.063.396 0l.55-.317c.108-.063.108-.165 0-.228l-.737-.426a.438.438 0 0 0-.396 0l-.549.317c-.109.063-.109.166 0 .229M573.588 367.563l.736.425c.11.063.287.063.396 0l.549-.317c.109-.063.109-.165 0-.228l-.736-.426a.438.438 0 0 0-.396 0l-.55.317c-.108.063-.108.166 0 .23M572.107 366.668l.736.425a.44.44 0 0 0 .397 0l.548-.317c.11-.063.11-.165 0-.228l-.736-.425a.432.432 0 0 0-.396 0l-.549.316c-.109.063-.109.166 0 .23M570.958 367.492l.736.425c.11.063.287.063.396 0l.549-.317c.109-.063.109-.165 0-.228l-.736-.426a.44.44 0 0 0-.397 0l-.548.317c-.11.063-.11.166 0 .229M570.59 365.793l.737.425a.44.44 0 0 0 .397 0l.548-.317c.109-.063.109-.165 0-.228l-.736-.425a.434.434 0 0 0-.397 0l-.548.316c-.11.063-.11.166 0 .229M569.397 366.57l.736.425a.44.44 0 0 0 .397 0l.548-.315c.11-.065.11-.166 0-.23l-.736-.424a.432.432 0 0 0-.396 0l-.549.315c-.109.063-.109.166 0 .23M569.075 364.918l.736.424c.11.064.287.064.396 0l.549-.316c.109-.064.109-.166 0-.228l-.736-.425a.434.434 0 0 0-.397 0l-.548.315c-.11.064-.11.166 0 .23M579.021 366.498l.736.425c.11.063.287.063.396 0l.55-.317c.108-.063.108-.165 0-.228l-.737-.426a.44.44 0 0 0-.397 0l-.548.317c-.109.063-.109.166 0 .23M577.588 365.637l.736.425a.44.44 0 0 0 .398 0l.548-.317c.109-.063.109-.165 0-.228l-.736-.425a.432.432 0 0 0-.396 0l-.55.316c-.108.064-.108.166 0 .229M572.5 362.733l1.132.654.945-.546-.188-.108c-.521-.301-1.367-.301-1.89 0M592.998 375.955l1.25.722a.532.532 0 0 0 .483 0l.463-.267c.133-.077.133-.2 0-.278l-1.251-.722a.532.532 0 0 0-.482 0l-.463.267c-.133.077-.133.201 0 .278M591.784 376.649l1.264.73a.517.517 0 0 0 .469 0l.476-.275c.129-.075.129-.196 0-.271l-1.264-.73a.517.517 0 0 0-.47 0l-.475.275c-.13.075-.13.196 0 .27M590.104 377.059l1.73.999a.56.56 0 0 0 .507 0l.437-.253c.14-.081.14-.212 0-.293l-1.73-.998a.56.56 0 0 0-.506 0l-.438.252c-.14.08-.14.212 0 .293M589.128 377.911l.788.455c.522.301 1.368.301 1.889 0l-1.732-1-.945.545zM587.898 377.201l.603.348a.589.589 0 0 0 .53 0l.414-.24c.147-.084.147-.22 0-.305l-.602-.348a.583.583 0 0 0-.53 0l-.415.24c-.146.084-.146.221 0 .305M586.388 376.33l.603.348a.589.589 0 0 0 .53 0l.414-.24c.147-.084.147-.221 0-.305l-.602-.349a.583.583 0 0 0-.53 0l-.415.24c-.146.084-.146.221 0 .305M584.634 375.317l.816.471a.652.652 0 0 0 .59 0l.355-.205c.163-.094.163-.246 0-.34l-.816-.471a.648.648 0 0 0-.59 0l-.355.204c-.163.094-.163.247 0 .341M577.306 371.086l6.498 3.752a.542.542 0 0 0 .487 0l.458-.265c.134-.077.134-.203 0-.281l-6.498-3.751a.536.536 0 0 0-.487 0l-.458.264c-.134.078-.134.203 0 .281M575.858 370.25l.523.302a.676.676 0 0 0 .61 0l.334-.194c.169-.097.169-.255 0-.352l-.522-.302a.676.676 0 0 0-.61 0l-.335.194c-.168.097-.168.255 0 .352M574.436 369.429l.346.2a.873.873 0 0 0 .787 0l.158-.092c.217-.125.217-.328 0-.453l-.346-.2a.864.864 0 0 0-.786 0l-.16.09c-.216.126-.216.33 0 .455M568.249 365.857l.546.315.945-.545-1.132-.654-.359.207c-.324.187-.324.49 0 .677M596.529 373.729l1.1.635a.994.994 0 0 0 .9 0l.123-.07c.249-.144.249-.377 0-.521l-1.1-.635a1 1 0 0 0-.901 0l-.122.07c-.25.145-.25.377 0 .52" mask="url(#h)"/>
            <path fill="#73939E" d="M597.29 373.587c-.161.093-.161.245 0 .338a.648.648 0 0 0 .586 0c.162-.093.162-.245 0-.338a.648.648 0 0 0-.586 0" mask="url(#h)"/>
            <path fill="#FEFEFE" d="M588.498 383.003l.961-.554v-.503l-.96.555z" mask="url(#h)"/>
            <path fill="#23150E" d="M588.543 382.953l.87-.502v-.455l-.87.502z" mask="url(#h)"/>
            <path fill="#5E5F5E" d="M589.38 382.043l-.808.467v.2l.809-.468z" mask="url(#h)"/>
            <path fill="#FEFEFE" d="M589.719 382.325l.96-.555v-.502l-.96.555z" mask="url(#h)"/>
            <path fill="#23150E" d="M589.764 382.275l.87-.502v-.455l-.87.502z" mask="url(#h)"/>
            <path fill="#5E5F5E" d="M590.601 381.365l-.809.467v.199l.81-.467z" mask="url(#h)"/>
            <path fill="#FEFEFE" d="M596.362 377.959v.165a.32.32 0 0 1 .031-.02c.242-.14.438-.026.438.253l1.836-1.06c0-.28.197-.62.438-.76v-.162l-2.743 1.584z" mask="url(#h)"/>
            <path fill="#575757" d="M596.588 377.884a17.67 17.67 0 0 1-.006.068.34.34 0 0 1 .078 0c.168.024.227.2.247.282l1.681-.97a1.457 1.457 0 0 1 .292-.623v-.08l-2.292 1.323z" mask="url(#h)"/>
            <path fill="#FCF177" d="M598.315 377.07l.143-.084v-.075l-.143.083zM598.128 377.177l.143-.083v-.075l-.143.083zM597.942 377.284l.143-.082v-.075l-.143.082zM597.756 377.392l.143-.083v-.075l-.143.083zM597.57 377.5l.142-.083v-.075l-.143.083zM597.383 377.607l.143-.083v-.075l-.143.083zM597.197 377.715l.143-.083v-.075l-.144.083zM597.01 377.822l.143-.082v-.076l-.143.084zM598.226 377.246l.143-.083v-.075l-.143.083zM598.04 377.353l.142-.083v-.075l-.143.083zM597.853 377.46l.143-.082v-.075l-.143.083zM597.667 377.568l.143-.082v-.075l-.143.082zM597.48 377.676l.143-.083v-.075l-.143.083zM597.294 377.784l.143-.083v-.075l-.143.083zM597.108 377.891l.143-.083v-.075l-.143.083z" mask="url(#h)"/>
            <path fill="#FACEBE" d="M579.932 365.47c-.138 1.1-5.938 1.155-5.92 1.628.006.201 1.072.416 1.391.48.836.168 1.208.095 1.466.396.217.252.318.725.141 1.035-.388.676-1.937.274-4.646.11a35.576 35.576 0 0 0-3.29-.05c-1.61-.938-2.732-2.22-2.515-3.223.282-1.299 2.738-1.779 4.37-2.098 1.091-.214 1.951-.23 2.873-.248 1.445-.027 2.446-.038 3.63.351.761.25 2.58.987 2.5 1.62" mask="url(#h)"/>
            <path fill="#F8BA18" d="M568.76 369.634c-6.096-1.455-10.4-3.88-13.03-5.659-2.431-1.645-11.656-7.883-10.312-13 .45-1.713 2.113-3.404 3.735-3.386 2.836.031 3.593 5.255 7.636 9.811 2.058 2.318 5.612 5.19 12.045 6.863 1.55.601 2.353 2.161 1.994 3.466-.394 1.426-1.994 1.885-2.068 1.905" mask="url(#h)"/>
            <path fill="#10A987" d="M562.511 388.39c-.155.899-.533 2.305-1.602 3.523-3.009 3.43-8.96 2.482-11.9 2.014-1.73-.276-4.408-.898-7.477-2.494-.624-3.348-6.534-35.78-1.586-44.39.738-1.285 2.421-4.212 5.274-4.671 2.145-.344 4.038.835 5.514 1.808 2.934 1.936 4.605 4.48 5.515 6.238a106.758 106.758 0 0 1 1.938 11.388c.386 3.384.543 5.508 1.127 10.507a92.91 92.91 0 0 0 .955 6.228c.78 4.215 1.64 7.627 2.242 9.849" mask="url(#h)"/>
            <path fill="#FACEBE" d="M592.286 377.474c-.255.735-1.02 1.078-1.916 1.48a8.718 8.718 0 0 1-2.932.727 42.867 42.867 0 0 1-6.007.047c-1.643-.907-2.616-2.575-2.44-4.207.22-2.04 2.136-3.1 2.45-3.274.577-.318 1.473-.447 3.264-.703 2.12-.304 2.427-.108 2.507.061.139.296-.303.764-.35.812-.767.796-2.148.596-2.148.646 0 .05 1.36.021 2.634.187 1.344.174 2.655.344 3.705 1.294.66.597 1.606 1.854 1.233 2.93" mask="url(#h)"/>
            <path fill="#10A987" d="M581.159 379.82c-6.39-.296-11.087-2.164-13.77-3.487-8.53-4.206-12.23-10.56-17.517-19.638-2.394-4.11-3.72-7.363-2.41-9.343.57-.863 1.727-1.611 2.884-1.554 1.7.083 2.859 1.878 3.649 3.14 3.873 6.185 5.056 9.43 7.209 12.579 1.158 1.695 3 4.391 6.363 6.535 3.619 2.308 6.474 5.121 12.8 6.455 1.628.344 2.67 1.754 2.526 3.1-.16 1.471-1.664 2.181-1.734 2.213" mask="url(#h)"/>
            <path fill="#C19074" d="M341.284 284.146l4.128.575.708-51.109-9.305-.129zM326.422 283.94l4.128.575 1.762-51.482-8.957-1.696z" mask="url(#h)"/>
            <path fill="#004E6F" d="M342.402 203.445l-16.542-.229-2.76 9.92c-.34 1.458-.556 5.536-.577 7.033l2.164 63.65 6.175-.085 2.638-55.535.818.011 6.983 55.784 4.476.118.926-62.195c.09-1.912-.104-6.412-.646-8.248l-3.655-10.224z" mask="url(#h)"/>
            <path fill="#FCD4AB" d="M318.675 199.205l-3.157 16.505-1.808 6.18.915 3.893 1.446 1.764s.94.231 1.027-.784c.087-1.015.367-5.584.367-5.584s.657-.282.79.591.55 2.186 1.566 2.127l-.377-4.143-1-3.749-.016-.002 5.16-16.03 3.832-21.186-6.872.64-1.873 19.778z" mask="url(#h)"/>
            <path fill="#B8394A" d="M351.441 183.025l-2.534-5.03c-.35-.882-1.422-2.97-3.938-3.662l-9.553-3.495c-.007-.063-.825-.075-.833-.012l-9.773 3.268c-1.934.522-3.03 1.885-3.584 2.857l-2.378 5.989c.308.107 3.001 1.73 5.115 3.016-.204 1.423-.3 2.495-.3 2.495l-.005.278c-.02 1.494.714 2.813 1.813 3.527l.41 11.26-1.632 5.799 20.38.066-1.866-5.372 1.25-16.802c2.108-1.22 7.021-4.053 7.428-4.182" mask="url(#h)"/>
            <path fill="#0D1E24" d="M341.3 283.994l-4.461 2.348c-3.048.273-3.292 2.686-3.292 2.686l12.636.175c.458-2.725-.716-5.158-.716-5.158l-4.166-.051zM326.392 283.767l-7 2.333c-3.047.273-3.291 2.686-3.291 2.686l15.22.21c.458-2.724-.715-5.157-.715-5.157l-4.214-.072z" mask="url(#h)"/>
            <path fill="#AE8E75" d="M334.289 146.558l.569-1.083-8.94-4.697-.57 1.083zM335.914 146.363l-.539-1.098 9.067-4.448.54 1.098z" mask="url(#h)"/>
            <path fill="#4A3222" d="M334.517 170.718l.986.014c6.625.091 12.07-5.205 12.162-11.83l.116-8.427a7.336 7.336 0 0 0-7.235-7.438l-10.304-.143a7.337 7.337 0 0 0-7.438 7.235l-.117 8.427c-.09 6.625 5.205 12.07 11.83 12.162" mask="url(#h)"/>
            <path fill="#FCD4AB" d="M348.24 159.23a2.44 2.44 0 0 0-1.485-.537 2.407 2.407 0 0 0-.418.038c-.656-7.074-5.358-12.553-11.008-12.631-5.634-.078-11.098 5.272-11.528 12.275a2.437 2.437 0 0 0-1.092.25c-1.172.438-2.023 1.585-2.042 2.953-.024 1.762 1.333 3.21 3.03 3.233a2.973 2.973 0 0 0 1.546-.408c4.18 5.869 16.278 6.359 20.04.403.395.2.837.316 1.306.322 1.698.024 3.094-1.386 3.118-3.148a3.204 3.204 0 0 0-1.466-2.75" mask="url(#h)"/>
            <path fill="#4A3222" d="M347.325 175.086l.343-24.78-3.922-.055zM322.488 173.838l4.26-24.251-3.923-.054zM328.979 141.253c-.032 2.282 2.6 4.17 5.879 4.214 3.278.045 5.962-1.768 5.993-4.05.032-2.282-2.6-4.168-5.88-4.214-3.277-.045-5.96 1.768-5.992 4.05" mask="url(#h)"/>
            <path fill="#9C5A3C" d="M338.781 157.166c-.002.121.704.23 1.576.242.872.012 1.58-.077 1.582-.198.002-.122-.704-.23-1.576-.242-.872-.012-1.58.077-1.582.198M328.8 156.808c-.001.121.705.23 1.577.242.872.012 1.58-.077 1.582-.198.002-.122-.704-.23-1.576-.242-.872-.012-1.58.077-1.582.198" mask="url(#h)"/>
            <path fill="#FCD4AB" d="M331.163 173.533a3.62 3.62 0 0 0 3.568 3.672 3.622 3.622 0 0 0 3.67-3.572l.111-8.104-7.237-.1-.112 8.104z" mask="url(#h)"/>
            <path fill="#F58920" d="M340.15 194.072l19.48 16.37-12.288 14.904-19.48-16.37z" mask="url(#h)"/>
            <path fill="#FDD4AC" d="M349.39 215.804c4.79-14.15 4.092-25.076 1.034-32.253l-4.717 2.678c2.51 6.637 3.61 16.32-.689 26.686l.272-.006 4.1 2.895z" mask="url(#h)"/>
            <path fill="#FACEBE" d="M343.56 216.028a35.573 35.573 0 0 0 1.458-3.113l-1.4.029-3.485 1.5c-.555 1.175.68 1.23.68 1.23.594.219 1.32.037 1.772-.125-.053.102-4.459 3.9-4.459 3.9-.175.15-.22.622-.08.886.177.336.473.306.706.433.258.14.483.492.76.553.136.03.367-.05.493.093.4.45.503 1.065 1 1.39.384.25.811.277 1.19.253.767-.048 1.511-.347 2.163-.724 1.39-.803 2.518-2.153 3.473-3.62.416-.638.81-1.303 1.183-1.987-1.987-.284-3.516-.135-5.49-.48.014-.073.001-.152.036-.218M349.015 216.726c.115-.21.229-.424.34-.639.012-.023.126-.195.114-.228l-.078-.055c-.127.308-.241.611-.376.922" mask="url(#h)"/>
            <path fill="#FACEBE" d="M345.29 212.91l-.271.006a35.693 35.693 0 0 1-1.458 3.112c-.035.066-.023.145-.036.218 1.973.345 3.502.195 5.49.48.135-.31.249-.613.376-.922l-4.1-2.894z" mask="url(#h)"/>
            <path fill="#FECF91" d="M292.142 81.968c-1.644-.709-3.993-1.968-6.214-4.194-3.099-3.107-4.055-6.204-5.928-12.269-1.531-4.959-1.307-6.637-.491-7.839.791-1.169 2.026-1.72 2.918-1.998.632 3.245 2.2 8.674 6.518 13.672a27.994 27.994 0 0 0 4.225 3.966 49.11 49.11 0 0 0 11.018-6.548c.213-.247.808-.87 1.714-.98 1.244-.149 2.574.73 3.166 2.214a41.584 41.584 0 0 1-16.925 13.976" mask="url(#h)"/>
            <path fill="#FECF91" d="M314.667 61.89c.642.914-1.456 3.292-3.727 5.862-1.039 1.176-1.802 1.868-2.919 2.037-.196.03-1.447.2-2.577-.616-.965-.697-1.817-2.096-1.413-3.038.351-.818 1.36-.526 3.272-1.649 1.431-.84 1.416-1.236 2.568-1.88 1.658-.925 4.23-1.522 4.796-.716" mask="url(#h)"/>
            <path fill="#FDCA81" d="M284.388 55.49c-.585 1.795-.142 3.622.952 4.39 1.471 1.032 4.415.353 5.711-2.343 1.26-2.468 2.52-4.937 3.778-7.405l-5.967-3.72c-1.49 3.026-2.983 6.052-4.474 9.078" mask="url(#h)"/>
            <path fill="#FECF91" d="M289.74 51.828c.013.888 1.628 2.05 8.173 3.364a28.59 28.59 0 0 0 4.034-7.033 28.641 28.641 0 0 0 2-9.523 484.568 484.568 0 0 0-7.313 6.887c-1.622 1.563-1.848 1.811-2.644 2.504-2.976 2.591-4.262 3.003-4.25 3.801" mask="url(#h)"/>
            <path fill="#B93B4B" d="M284.48 50.552l5.155 2.013c3.383-1.58 10.285-5.438 14.314-13.305a27.084 27.084 0 0 0 2.116-5.585 23.377 23.377 0 0 0-7.169-4.634c-3.216-1.315-7.735-3.17-11.8-.969-3.194 1.73-4.257 5.39-4.889 7.463-.173.567-.988 3.355-.559 7.068a18.883 18.883 0 0 0 2.832 7.95" mask="url(#h)"/>
            <path fill="#FECF91" d="M299.603 46.606c-.035.202-.34 1.95-1.398 2.19-1.05.235-2.45-1.106-2.503-2.49-.068-1.7 1.903-3.19 2.956-2.818.897.318 1.14 1.993.945 3.118" mask="url(#h)"/>
            <path fill="#192315" d="M271.14 168.607c-1.367-.234-1.75-.752-3.887-1.047-1.105-.152-1.651-.104-2.581-.403-1.192-.385-2.062-1.035-2.622-1.54a3.952 3.952 0 0 1-.08-1.25c.116-1.192.757-2.001 1.055-2.333 2.528.273 4.482.823 5.813 1.283 1.504.52 1.548.695 4.127 1.693 3.216 1.243 4.064 1.325 4.09 1.767.049.85-3.043 2.32-5.915 1.83" mask="url(#h)"/>
            <path fill="#FFD972" d="M262.96 162.175c.118.336.54 1.402 1.64 1.988 1.302.693 3.02.431 4.304-.68l19.18-24.022-2.738-34.38-8.276-2.239 3.84 32.13-17.95 27.203" mask="url(#h)"/>
            <path fill="#192315" d="M296.694 173.91c-1.494.214-2.058-.202-4.371.207-1.195.212-1.746.448-2.808.445-1.36-.003-2.474-.395-3.22-.739a4.378 4.378 0 0 1-.49-1.289c-.266-1.295.135-2.365.336-2.814a28.166 28.166 0 0 1 6.445-.608c1.729.041 1.83.211 4.83.392 3.739.226 4.645.026 4.816.484.328.88-2.4 3.471-5.538 3.922" mask="url(#h)"/>
            <path fill="#FFD972" d="M286.087 170.296c.082.125 1.018 1.504 2.646 1.533 1.415.025 2.748-.98 3.202-2.487l3.161-64.447-11.532 1.621 2.523 63.78" mask="url(#h)"/>
            <path fill="#17A987" d="M294.995 109.81c-.548.281-1.39.681-2.454 1.061-1.796.64-6.733 2.4-11.702.386a12.783 12.783 0 0 1-3.164-1.863c-.214-1.303-.52-3.249-.837-5.615-.313-2.339-1.335-10.308-1.663-24.194-.182-7.71.014-10.598.613-13.872.909-4.972 1.72-9.083 4.96-10.78 2.975-1.559 7.135-.637 9.834 1.374 6.07 4.518 5.613 15.164 5.358 21.168-.099 2.286-.322 5.4-.491 11.114-.093 3.118.002 5.423.02 6.171.063 2.607.017 7.046-.474 15.05" mask="url(#h)"/>
            <path fill="#FECF91" d="M302.999 86.5a34.31 34.31 0 0 1-6.215-4.195c-6.328-5.37-9.243-11.839-10.578-15.649-1.107-3.88.19-6.922 1.85-7.378 1.519-.417 3.256 1.357 3.515 1.628 1.507 3.678 4.01 8.413 8.23 12.965a42.02 42.02 0 0 0 4.225 3.966 49.11 49.11 0 0 0 11.019-6.548c.212-.247.807-.87 1.714-.98 1.243-.149 2.573.73 3.166 2.214A41.584 41.584 0 0 1 302.999 86.5" mask="url(#h)"/>
            <path fill="#FECF91" d="M325.523 66.422c.642.915-1.456 3.292-3.727 5.862-1.039 1.176-1.8 1.868-2.919 2.037-.196.03-1.447.199-2.577-.616-.965-.697-1.817-2.096-1.413-3.038.351-.818 1.36-.526 3.272-1.65 1.432-.84 1.416-1.235 2.568-1.88 1.658-.924 4.23-1.521 4.796-.715" mask="url(#h)"/>
            <path fill="#795D26" d="M307.496 67.104l15.332 3.614c1.383.326 3.292-.248 4.266-1.283l5.949-6.32c.973-1.035.642-2.137-.741-2.463l-15.332-3.615c-1.383-.326-3.293.25-4.266 1.283l-5.95 6.321c-.972 1.034-.641 2.137.742 2.463" mask="url(#h)"/>
            <path fill="#DEAD42" d="M307.46 66.632l15.331 3.614c1.383.326 3.293-.248 4.266-1.283l5.95-6.32c.972-1.035.641-2.137-.742-2.463l-15.332-3.615c-1.383-.326-3.292.25-4.266 1.283l-5.949 6.321c-.973 1.034-.642 2.137.741 2.463" mask="url(#h)"/>
            <path fill="#FECF91" d="M306.022 67.026l-1.487-1.39a26.525 26.525 0 0 1 2.297-1.499c1.126-.653 1.915-1.103 2.162-.868.307.293-.406 1.48-.482 1.604-.336.552-1.04 1.466-2.49 2.153" mask="url(#h)"/>
            <path fill="#FECF91" d="M307.08 68.427c-.42.336-1.148.29-1.795-.034l-.252-2.29c.562-.188 1.124-.375 1.686-.56 1.037 1.027.968 2.397.36 2.884" mask="url(#h)"/>
            <path fill="#88D3F5" d="M331.32 61.378l-6.68 7.163-16.236-3.523 6.768-7.34z" mask="url(#h)"/>
            <path fill="#FECF91" d="M317.114 71.947l-2.227-1.281c.34-.55.888-1.337 1.71-2.15.61-.604 1.581-1.565 1.907-1.371.257.153.207 1.084-1.39 4.802" mask="url(#h)"/>
            <path fill="#B93B4B" d="M289.11 52.294l3.952 2.214c.121.49.657 2.418 2.54 3.635.261.169 2.68 1.687 4.555.694 1.791-.948 2.655-3.96 1.294-6.985.803-.433 1.098-1.32.804-1.925-.29-.598-1.053-.697-1.115-.704.62-3.684.614-5.64-.018-5.87-.315-.113-.786.203-1.413.95-.123 1.763-.479 3.874-1.606 4.22-.714.22-1.286-.407-2.093-.634-1.29-.363-3.38.239-6.9 4.405" mask="url(#h)"/>
            <path fill="#F59087" d="M427.532 54.042c1.461-.575 3.578-1.53 5.694-2.99 2.953-2.04 4.105-3.823 6.361-7.318 1.844-2.857 1.843-3.736 1.294-4.291-.534-.54-1.51-.693-2.229-.74-.895 1.828-2.822 4.943-7.013 8.145a35.765 35.765 0 0 1-3.996 2.635 39.918 39.918 0 0 1-4.725-.971 32.144 32.144 0 0 1-3.799-1.281c-.15-.11-.58-.376-1.33-.33-1.028.064-2.244.694-2.909 1.565 1.09 1.04 2.761 2.326 5.278 3.453 2.641 1.184 5.317 1.793 7.374 2.123" mask="url(#h)"/>
            <path fill="#0D1E24" d="M428.328 150.86c1.122.159 1.057-.07 3.918.175.942.08 1.855.189 3.184.113 1.902-.108 2.428-.465 2.685-.854.224-.341.232-.693.244-1.22a5.512 5.512 0 0 0-.529-2.441c-1.714-.5-3.104-.532-4.109-.448-.673.056-.739.128-2.116.326-1.52.217-2.69.308-3.936.403-3.642.278-4.19.11-4.315.447-.292.79 2.16 3.104 4.974 3.5" mask="url(#h)"/>
            <path fill="#FACEBE" d="M457.873 140.137c-.376.177-.945.452-1.627.814-1.434.76-1.708 1.025-2.55 1.356-1.167.459-2.435.657-2.495.488-.031-.088.246-.323 1.627-.976l1.302-1.085a365.41 365.41 0 0 0-17.691-20.77l2.363-30.82 7.41-2.028-4.34 29.154a414.02 414.02 0 0 1 3.905 5.75c2.227 3.338 4.67 7.137 6.4 9.763 1.336 2.029 3.26 4.9 5.696 8.354" mask="url(#h)"/>
            <path fill="#FACEBE" d="M437.748 147.405c-.332.321-.925.81-1.79 1.14-.91.346-1.66.338-2.333.325-.943-.02-2.72-.055-3.036-.922-.062-.169-.12-.512.216-1.085l2.712-.65-3.454-57.21 10.34 1.422c-.174 1.168-1.93 13.132-2.438 19.986-.07.955-.191 2.642-.216 4.882-.036 3.152.143 5.435.216 6.51.234 3.428.052 4.285-.108 14.428-.043 2.666-.09 6.498-.109 11.174M435.6 33.121a11.308 11.308 0 0 0 5.496-1.999l-2.59-6.516-6.427 2.678 3.52 5.837" mask="url(#h)"/>
            <path fill="#F59087" d="M428.513 74.965c-.203 1.909.368 2.862.716 3.294 1.23 1.527 3.695 1.521 8.391 1.51.767-.001 1.5-.087 1.5-.087.201-.023.414-.052.643-.091 2.732-.464 4.727-1.723 5.872-2.593l2.04-33.631a16.519 16.519 0 0 0-2.712-8.95 16.591 16.591 0 0 0-4.285-4.421 7.057 7.057 0 0 1-2.656 1.796 7.048 7.048 0 0 1-2.999.442c-4.23 7.167-5.23 13.036-5.37 17.046-.17 4.854.594 8.181.112 15.761a80.345 80.345 0 0 1-1.252 9.924" mask="url(#h)"/>
            <path fill="#FACEBE" d="M427.438 28.98c.896.156 1.914.264 3.035.268 3.079.01 5.589-.774 7.265-1.481l3.838-17.111-15.21-.51c-.776 2.764-1.627 7.288-.713 12.675a28.294 28.294 0 0 0 1.785 6.159" mask="url(#h)"/>
            <path fill="#EF4144" d="M429.938 107.266c.95.622 4.1 2.515 8.462 2.17 4.556-.361 7.444-2.927 8.245-3.69l-.81-30.994a17.644 17.644 0 0 1-8.303 2.138 17.686 17.686 0 0 1-8.875-2.354 38.106 38.106 0 0 0-.716 2.864c-.753 3.59-1.028 7.457-.287 15.037.39 3.992 1.064 9.029 2.284 14.829" mask="url(#h)"/>
            <path fill="#0D1E24" d="M451.704 146.039c1.331-.243 1.87-.423 1.87-.423.584-.146 1.03-.293 1.261-.367 0 0 .602-.192 1.14-.393 1.37-.514 2.903-1.374 3.254-1.573.03-.43.042-1.483-.597-2.55a4.275 4.275 0 0 0-1.139-1.247c-.436.94-1.274 1.557-2.17 1.573a2.219 2.219 0 0 1-1.247-.38c-.21.148-.506.352-.868.584-.338.215-.918.598-1.572.912-.776.372-1.398.574-1.577.645-3.585 1.41-4.38 1.505-4.39 1.873-.026.83 4.135 1.693 6.035 1.346" mask="url(#h)"/>
            <path fill="#F59087" d="M423.68 61.36a54.604 54.604 0 0 0 5.048-3.974c4.169-3.698 9.67-8.7 10.312-15.36.105-1.095.412-4.283-1.227-5.171-1.091-.592-2.551.102-3.177.445a73.277 73.277 0 0 1-8.163 13.104 72.653 72.653 0 0 1-3.437 4.082 41.994 41.994 0 0 1-16.542-5.8l-2.64 1.833a54.145 54.145 0 0 0 4.68 3.967c2.236 1.686 4.524 3.413 7.842 4.833a29.168 29.168 0 0 0 7.304 2.04" mask="url(#h)"/>
            <path fill="#80A7B5" d="M428.439 42.48v.857l-.797-.482zM392.289 47.424v.786l.862-.393z" mask="url(#h)"/>
            <path fill="#231818" d="M391.858 46.373l-.723-.341.724-.26zM414.067 17.535l-.673-.313-.276.828z" mask="url(#h)"/>
            <path fill="#80A7B5" d="M428.01 42.739l-12.39-7.154c-.573-.33-1.499-.33-2.07 0l-20.833 12.027c-.57.33-.57.865 0 1.195l12.392 7.155c.571.329 1.498.329 2.07 0l20.831-12.028c.572-.33.572-.865 0-1.195" mask="url(#h)"/>
            <path fill="#231818" d="M413.732 17.94c0-.698-.49-.981-1.094-.632l-20.714 11.959c-.604.349-1.094 1.197-1.094 1.895v14.17c0 .699.49.982 1.095.633l20.713-11.958c.604-.35 1.094-1.198 1.094-1.896V17.94z" mask="url(#h)"/>
            <path fill="#3E2C2B" d="M413.332 34.33L392.62 46.29c-.605.348-1.095.066-1.095-.632V31.486c0-.697.49-1.546 1.094-1.895l20.714-11.958c.604-.35 1.094-.066 1.094.632v14.17c0 .699-.49 1.547-1.094 1.896" mask="url(#h)"/>
            <path fill="#80BDE7" d="M413.842 32.695l-21.734 12.548V31.234l21.734-12.548z" mask="url(#h)"/>
            <path fill="#111A23" d="M403.324 24.15a.77.77 0 0 1-.349.604c-.192.111-.348.021-.348-.2a.77.77 0 0 1 .348-.605c.193-.11.349-.02.349.201" mask="url(#h)"/>
            <path fill="#202933" d="M403.243 24.197c0 .171-.12.378-.268.464-.147.085-.267.016-.267-.155 0-.171.12-.378.267-.464.148-.085.268-.016.268.155" mask="url(#h)"/>
            <path fill="#0E1317" d="M403.107 24.276a.292.292 0 0 1-.131.228c-.073.042-.132.008-.132-.076a.29.29 0 0 1 .132-.228c.072-.042.13-.008.13.076" mask="url(#h)"/>
            <path fill="#2C4359" d="M403.024 24.323a.11.11 0 0 1-.049.085c-.027.015-.049.003-.049-.028 0-.032.022-.07.05-.085.026-.016.048-.003.048.028M402.462 24.648c0 .057-.04.128-.09.156-.05.029-.09.006-.09-.052a.2.2 0 0 1 .09-.156c.05-.03.09-.005.09.052" mask="url(#h)"/>
            <path fill="#D6EFF9" d="M428.01 43.078l-20.832 12.028c-.57.33-1.498.33-2.069 0l-12.392-7.155c-.57-.33-.57-.865 0-1.195L413.55 34.73c.572-.33 1.498-.33 2.07 0l12.391 7.154c.572.33.572.865 0 1.195" mask="url(#h)"/>
            <path fill="#939292" d="M418.574 47.41L414 50.053l-3.05-1.761 4.575-2.64z" mask="url(#h)"/>
            <path fill="#AEADAD" d="M418.574 47.41l-4.444 2.566-2.92-1.685 4.445-2.566z" mask="url(#h)"/>
            <path fill="#3E2C2B" d="M415.38 35.545l-21.25 12.269a.534.534 0 0 1-.483 0l-.036-.02c-.133-.077-.133-.202 0-.28l21.25-12.27a.534.534 0 0 1 .484 0l.036.022c.133.077.133.202 0 .279M399.439 48.424l-1.49.86-.307-.178c-.278-.161-.278-.421 0-.582l.985-.569.812.469zM400.553 47.78l-.633.366a.37.37 0 0 1-.34 0l-.471-.272c-.094-.054-.094-.142 0-.196l.632-.366a.38.38 0 0 1 .34 0l.472.273c.094.054.094.142 0 .196M401.856 47.028l-.633.365a.377.377 0 0 1-.34 0l-.471-.272c-.094-.054-.094-.142 0-.196l.632-.366a.38.38 0 0 1 .34 0l.472.272c.094.055.094.143 0 .197M403.159 46.276l-.633.365a.37.37 0 0 1-.34 0l-.471-.272c-.094-.054-.094-.142 0-.196l.632-.366a.38.38 0 0 1 .34 0l.472.273c.094.054.094.142 0 .196M404.462 45.524l-.633.365a.37.37 0 0 1-.34 0l-.471-.272c-.094-.054-.094-.142 0-.196l.632-.366a.38.38 0 0 1 .34 0l.472.272c.094.055.094.143 0 .197M405.765 44.772l-.633.364a.37.37 0 0 1-.34 0l-.471-.272c-.094-.053-.094-.142 0-.195l.632-.366a.38.38 0 0 1 .34 0l.472.273c.094.053.094.142 0 .196M407.068 44.02l-.633.364a.37.37 0 0 1-.34 0l-.472-.272c-.094-.054-.094-.142 0-.196l.633-.366a.38.38 0 0 1 .34 0l.472.272c.094.055.094.143 0 .197M408.37 43.267l-.632.365a.37.37 0 0 1-.34 0l-.472-.272c-.094-.054-.094-.142 0-.196l.632-.366a.38.38 0 0 1 .341 0l.471.273c.094.054.094.142 0 .196M409.673 42.515l-.632.365a.37.37 0 0 1-.34 0l-.472-.272c-.094-.054-.094-.142 0-.196l.632-.366a.38.38 0 0 1 .341 0l.471.272c.094.055.094.143 0 .197M410.976 41.763l-.633.365a.377.377 0 0 1-.34 0l-.47-.272c-.095-.054-.095-.142 0-.196l.631-.366a.38.38 0 0 1 .341 0l.471.272c.094.055.094.143 0 .197M401.585 48.377l-.633.365a.37.37 0 0 1-.34 0l-.47-.272c-.095-.054-.095-.142 0-.196l.631-.366a.38.38 0 0 1 .341 0l.471.272c.094.055.094.143 0 .197M402.888 47.624l-.633.365a.37.37 0 0 1-.34 0l-.472-.271c-.094-.055-.094-.143 0-.197l.633-.365a.38.38 0 0 1 .341 0l.471.272c.094.055.094.143 0 .197M404.191 46.872l-.633.365a.377.377 0 0 1-.34 0l-.47-.272c-.095-.054-.095-.142 0-.196l.631-.366a.38.38 0 0 1 .341 0l.471.272c.094.055.094.143 0 .197M405.494 46.12l-.633.365a.37.37 0 0 1-.34 0l-.471-.272c-.094-.054-.094-.142 0-.196l.632-.366a.38.38 0 0 1 .341 0l.471.273c.094.054.094.142 0 .196M406.797 45.368l-.633.365a.37.37 0 0 1-.34 0l-.47-.272c-.095-.054-.095-.142 0-.196l.631-.366a.38.38 0 0 1 .341 0l.471.272c.094.055.094.143 0 .197M408.1 44.615l-.633.365a.37.37 0 0 1-.34 0l-.471-.272c-.094-.054-.094-.142 0-.196l.632-.366a.38.38 0 0 1 .341 0l.471.272c.094.055.094.143 0 .197M409.403 43.863l-.633.365a.37.37 0 0 1-.34 0l-.471-.272c-.094-.054-.094-.142 0-.196l.632-.366a.38.38 0 0 1 .34 0l.472.272c.094.055.094.143 0 .197M410.706 43.11l-.633.366a.37.37 0 0 1-.34 0l-.472-.272c-.094-.054-.094-.142 0-.196l.633-.366a.38.38 0 0 1 .34 0l.472.273c.094.054.094.142 0 .196M412.009 42.358l-.633.366a.37.37 0 0 1-.34 0l-.471-.272c-.094-.054-.094-.142 0-.197l.632-.366a.38.38 0 0 1 .34 0l.472.273c.094.055.094.142 0 .197M413.351 41.614l-.632.365a.37.37 0 0 1-.34 0l-.473-.272c-.094-.054-.094-.142 0-.196l.633-.366a.38.38 0 0 1 .341 0l.471.272c.094.055.094.143 0 .197M402.618 48.973l-.633.365a.37.37 0 0 1-.34 0l-.471-.272c-.094-.054-.094-.142 0-.196l.632-.366a.38.38 0 0 1 .34 0l.472.273c.094.054.094.142 0 .196M403.92 48.22l-.632.366a.37.37 0 0 1-.34 0l-.471-.273c-.094-.053-.094-.142 0-.196l.632-.365a.38.38 0 0 1 .34 0l.472.273c.094.053.094.142 0 .196M405.224 47.468l-.633.365a.377.377 0 0 1-.34 0l-.471-.272c-.094-.054-.094-.142 0-.196l.632-.366a.38.38 0 0 1 .34 0l.472.272c.094.055.094.143 0 .197M406.527 46.716l-.633.365a.37.37 0 0 1-.34 0l-.471-.272c-.094-.054-.094-.142 0-.196l.632-.366a.38.38 0 0 1 .34 0l.472.272c.094.055.094.143 0 .197M407.83 45.964l-.633.365a.37.37 0 0 1-.34 0l-.473-.272c-.094-.054-.094-.142 0-.196l.633-.366a.38.38 0 0 1 .341 0l.471.273c.094.054.094.142 0 .196M409.132 45.211l-.633.365a.37.37 0 0 1-.34 0l-.47-.272c-.095-.054-.095-.142 0-.196l.631-.366a.38.38 0 0 1 .341 0l.471.273c.094.054.094.142 0 .196M410.435 44.46l-.633.364a.377.377 0 0 1-.34 0l-.47-.272c-.096-.054-.096-.142 0-.196l.631-.366a.38.38 0 0 1 .341 0l.471.272c.094.055.094.143 0 .197M414.455 42.22l-.633.365a.377.377 0 0 1-.34 0l-.471-.272c-.094-.054-.094-.142 0-.196l.632-.366a.38.38 0 0 1 .34 0l.472.272c.094.055.094.143 0 .197M411.738 43.707l-.633.365a.37.37 0 0 1-.34 0l-.47-.272c-.095-.054-.095-.142 0-.196l.631-.366a.38.38 0 0 1 .341 0l.471.272c.094.055.094.143 0 .197M412.98 42.95l-.632.365a.377.377 0 0 1-.34 0l-.471-.272c-.094-.054-.094-.142 0-.196l.632-.366a.38.38 0 0 1 .34 0l.471.272c.094.055.094.143 0 .197M403.674 49.555l-.43.247a.322.322 0 0 1-.292 0l-.518-.299c-.081-.047-.081-.122 0-.169l.428-.248a.328.328 0 0 1 .293 0l.519.3c.08.047.08.122 0 .17M404.953 48.817l-.633.365a.37.37 0 0 1-.34 0l-.47-.272c-.095-.054-.095-.142 0-.196l.631-.366a.38.38 0 0 1 .341 0l.471.272c.094.055.094.143 0 .197M406.256 48.064l-.633.365a.37.37 0 0 1-.34 0l-.471-.272c-.094-.054-.094-.142 0-.196l.632-.366a.38.38 0 0 1 .341 0l.471.273c.094.054.094.142 0 .196M407.559 47.312l-.633.365a.377.377 0 0 1-.34 0l-.471-.272c-.095-.054-.095-.142 0-.196l.632-.366a.38.38 0 0 1 .341 0l.471.272c.094.055.094.143 0 .197M408.862 46.56l-.633.365a.37.37 0 0 1-.34 0l-.471-.272c-.094-.054-.094-.142 0-.196l.632-.366a.38.38 0 0 1 .34 0l.472.272c.094.055.094.143 0 .197M410.165 45.808l-.633.365a.37.37 0 0 1-.34 0l-.471-.272c-.094-.054-.094-.142 0-.196l.632-.366a.38.38 0 0 1 .34 0l.472.272c.094.055.094.143 0 .197M411.468 45.055l-.633.365a.377.377 0 0 1-.34 0l-.472-.272c-.094-.054-.094-.142 0-.196l.633-.366a.38.38 0 0 1 .34 0l.472.272c.094.055.094.143 0 .197M412.77 44.303l-.632.365a.37.37 0 0 1-.34 0l-.471-.272c-.094-.054-.094-.142 0-.196l.632-.366a.38.38 0 0 1 .34 0l.472.272c.094.055.094.143 0 .197M414.06 43.562l-.633.365a.37.37 0 0 1-.34 0l-.471-.272c-.094-.054-.094-.142 0-.196l.632-.366a.38.38 0 0 1 .34 0l.472.273c.094.054.094.142 0 .196M415.523 42.816l-.633.365a.37.37 0 0 1-.34 0l-.472-.272c-.093-.054-.093-.142 0-.196l.633-.366a.38.38 0 0 1 .34 0l.472.273c.094.054.094.142 0 .196M417.969 42.653l-.633.365a.37.37 0 0 1-.34 0l-.471-.272c-.094-.054-.094-.142 0-.196l.632-.366a.38.38 0 0 1 .34 0l.472.273c.094.054.094.142 0 .196M414.853 40.717l-.633.365a.377.377 0 0 1-.34 0l-.472-.272c-.094-.054-.094-.142 0-.196l.633-.366a.38.38 0 0 1 .34 0l.472.272c.094.055.094.143 0 .197M416.156 39.964l-.634.365a.37.37 0 0 1-.34 0l-.47-.272c-.094-.054-.094-.142 0-.196l.632-.366a.38.38 0 0 1 .34 0l.471.273c.095.054.095.142 0 .196M414.969 39.464l-.633.365a.37.37 0 0 1-.34 0l-.471-.272c-.094-.054-.094-.142 0-.196l.632-.366a.38.38 0 0 1 .34 0l.472.272c.094.055.094.143 0 .197M417.458 39.212l-.633.365a.37.37 0 0 1-.34 0l-.47-.272c-.095-.054-.095-.142 0-.196l.631-.366a.38.38 0 0 1 .341 0l.471.272c.094.055.094.143 0 .197M416.315 38.598l-.632.365a.37.37 0 0 1-.34 0l-.471-.272c-.095-.054-.095-.142 0-.196l.631-.366a.38.38 0 0 1 .341 0l.471.272c.094.055.094.143 0 .197M418.761 38.46l-.633.365a.37.37 0 0 1-.34 0l-.47-.272c-.095-.054-.095-.142 0-.196l.631-.366a.38.38 0 0 1 .341 0l.471.273c.094.054.094.142 0 .196M415.885 41.313l-.633.365a.37.37 0 0 1-.34 0l-.471-.272c-.094-.054-.094-.142 0-.196l.632-.366a.38.38 0 0 1 .34 0l.472.273c.094.054.094.142 0 .196M417.188 40.56l-.633.365a.377.377 0 0 1-.34 0l-.471-.271c-.094-.055-.094-.143 0-.197l.632-.365a.38.38 0 0 1 .34 0l.472.272c.094.055.094.143 0 .197M418.49 39.808l-.632.365a.37.37 0 0 1-.34 0l-.472-.272c-.094-.054-.094-.142 0-.196l.633-.366a.38.38 0 0 1 .34 0l.472.273c.094.054.094.142 0 .196M419.794 39.056l-.633.365a.37.37 0 0 1-.34 0l-.471-.272c-.095-.054-.095-.142 0-.196l.632-.366a.38.38 0 0 1 .34 0l.472.272c.094.055.094.143 0 .197M416.948 41.926l-.633.365a.377.377 0 0 1-.34 0l-.47-.272c-.095-.054-.095-.142 0-.196l.631-.366a.38.38 0 0 1 .341 0l.471.272c.094.055.094.143 0 .197M418.22 41.157l-.633.365a.37.37 0 0 1-.34 0l-.47-.272c-.095-.054-.095-.142 0-.196l.631-.366a.38.38 0 0 1 .341 0l.471.272c.094.055.094.143 0 .197M419.208 41.864l-.633.365a.377.377 0 0 1-.34 0l-.47-.272c-.095-.054-.095-.142 0-.196l.631-.366a.38.38 0 0 1 .341 0l.471.272c.094.055.094.143 0 .197M419.523 40.404l-.633.365a.37.37 0 0 1-.34 0l-.47-.272c-.095-.054-.095-.142 0-.196l.631-.366a.38.38 0 0 1 .341 0l.471.272c.094.055.094.143 0 .197M420.549 41.073l-.633.365a.377.377 0 0 1-.34 0l-.471-.272c-.094-.054-.094-.142 0-.196l.632-.366a.38.38 0 0 1 .341 0l.471.272c.094.055.094.143 0 .197M420.826 39.652l-.633.365a.37.37 0 0 1-.34 0l-.47-.272c-.095-.054-.095-.142 0-.196l.631-.366a.38.38 0 0 1 .341 0l.471.273c.094.054.094.142 0 .196M412.28 41.01l-.634.365a.37.37 0 0 1-.34 0l-.47-.272c-.095-.054-.095-.142 0-.196l.631-.366a.38.38 0 0 1 .341 0l.471.272c.094.055.094.143 0 .197M413.51 40.27l-.633.365a.377.377 0 0 1-.34 0l-.47-.272c-.095-.054-.095-.142 0-.196l.631-.366a.38.38 0 0 1 .341 0l.471.272c.094.055.094.143 0 .197M417.883 37.775l-.973.562-.812-.469.162-.093c.448-.259 1.175-.259 1.623 0M400.27 49.136l-1.075.621a.458.458 0 0 1-.414 0l-.398-.23c-.114-.066-.114-.172 0-.239l1.075-.62a.458.458 0 0 1 .414 0l.398.23c.114.066.114.172 0 .238M401.313 49.732l-1.086.627a.447.447 0 0 1-.403 0l-.41-.236c-.11-.064-.11-.168 0-.233l1.087-.627a.447.447 0 0 1 .403 0l.409.236c.11.065.11.17 0 .233M402.757 50.085l-1.486.858a.479.479 0 0 1-.436 0l-.376-.217c-.12-.07-.12-.182 0-.251l1.486-.86a.485.485 0 0 1 .436 0l.376.219c.12.069.12.182 0 .25M403.595 50.817l-.677.391c-.449.26-1.175.26-1.624 0l1.489-.86.812.47zM404.652 50.207l-.518.3a.5.5 0 0 1-.455 0l-.357-.207c-.125-.072-.125-.19 0-.263l.518-.299a.506.506 0 0 1 .455 0l.357.206c.126.073.126.19 0 .263M405.95 49.458l-.519.3a.5.5 0 0 1-.455 0l-.357-.207c-.125-.072-.125-.19 0-.263l.518-.299a.506.506 0 0 1 .455 0l.357.206c.126.073.126.19 0 .263M407.456 48.588l-.7.405a.56.56 0 0 1-.508 0l-.305-.176c-.14-.08-.14-.212 0-.293l.701-.405c.14-.08.367-.08.507 0l.305.176c.14.081.14.212 0 .293M413.753 44.953l-5.584 3.224a.466.466 0 0 1-.418 0l-.393-.227c-.116-.067-.116-.175 0-.242l5.583-3.224a.468.468 0 0 1 .419 0l.393.227c.116.067.116.175 0 .242M414.998 44.234l-.45.259a.576.576 0 0 1-.523 0l-.288-.166c-.144-.083-.144-.22 0-.302l.449-.26a.582.582 0 0 1 .524 0l.288.166c.145.084.145.22 0 .303M416.22 43.529l-.299.172a.75.75 0 0 1-.674 0l-.137-.08c-.187-.107-.187-.281 0-.39l.298-.171a.752.752 0 0 1 .675 0l.136.079c.188.108.188.282 0 .39M421.536 40.46l-.47.27-.811-.469.973-.56.308.176c.278.161.278.421 0 .582M397.235 47.224l-.945.546a.858.858 0 0 1-.774 0l-.105-.061c-.214-.123-.214-.323 0-.447l.945-.546a.858.858 0 0 1 .774 0l.105.06c.214.125.214.325 0 .448" mask="url(#h)"/>
            <path fill="#73939E" d="M396.581 47.101c.139.08.139.21 0 .29a.557.557 0 0 1-.503 0c-.139-.08-.139-.21 0-.29a.557.557 0 0 1 .503 0" mask="url(#h)"/>
            <path fill="#FEFEFE" d="M404.136 55.192l-.825-.476v-.432l.825.476z" mask="url(#h)"/>
            <path fill="#23150E" d="M404.097 55.15l-.747-.432v-.391l.747.432z" mask="url(#h)"/>
            <path fill="#5E5F5E" d="M403.378 54.368l.695.4v.172l-.695-.401z" mask="url(#h)"/>
            <path fill="#FEFEFE" d="M403.087 54.61l-.825-.477v-.431l.825.476z" mask="url(#h)"/>
            <path fill="#23150E" d="M403.048 54.567l-.747-.432v-.39l.747.43z" mask="url(#h)"/>
            <path fill="#5E5F5E" d="M402.329 53.785l.695.401v.171l-.695-.401z" mask="url(#h)"/>
            <path fill="#FEFEFE" d="M397.379 50.858V51l-.026-.016c-.21-.12-.377-.023-.377.217l-1.578-.91a.834.834 0 0 0-.376-.653v-.14l2.357 1.361z" mask="url(#h)"/>
            <path fill="#575757" d="M397.185 50.794l.005.059a.25.25 0 0 0-.067 0c-.144.02-.195.17-.212.241l-1.444-.834a1.17 1.17 0 0 0-.252-.535v-.069l1.97 1.138z" mask="url(#h)"/>
            <path fill="#FCF177" d="M395.7 50.094l-.122-.071v-.064l.123.07zM395.861 50.186l-.123-.07v-.065l.123.07zM396.021 50.279l-.123-.071v-.064l.123.07zM396.181 50.371l-.123-.07v-.065l.123.071zM396.341 50.464l-.123-.071v-.064l.123.07zM396.502 50.556l-.123-.07v-.065l.123.07zM396.662 50.649l-.123-.071v-.064l.123.07zM396.822 50.741l-.123-.071v-.064l.123.071zM395.777 50.245l-.123-.07v-.065l.123.071zM395.937 50.338l-.123-.071v-.064l.123.07zM396.098 50.43l-.123-.07v-.065l.123.07zM396.258 50.523l-.123-.071v-.064l.123.07zM396.418 50.615l-.123-.07v-.065l.123.07zM396.578 50.708l-.123-.071v-.064l.123.07zM396.738 50.8l-.123-.07v-.065l.123.07z" mask="url(#h)"/>
            <path fill="#412513" d="M430.876 34.722c4.222 4.894 10.275 6.71 14.822 4.726 2.69-1.172 4.206-3.39 4.941-4.726a31.118 31.118 0 0 0 1.29-14.178 31.141 31.141 0 0 0-5.37-13.534c1.801-1.027 2.188-1.808 2.147-2.363-.216-2.892-12.618-6.419-19.974-1.683-1.173.755-3.192 2.096-3.827 4.615-.694 2.75.667 5.073 1.013 5.63a7.12 7.12 0 0 0 2.251.45c1.664.052 2.376-.539 2.927-.226.562.318.897 1.54-.112 5.516l1.238.112c.02-.89.57-1.657 1.351-1.913.83-.273 1.751.085 2.138.675.873 1.326-1.039 3.686-1.125 3.79-.758.916-.99.79-1.35 1.351-1.402 2.181 2.108 5.31 1.292 8.321-.276 1.02-1.123 2.303-3.652 3.437" mask="url(#h)"/>
            <path fill="#FEFEFE" d="M433.931 23.156c0 .628-.525 1.138-1.172 1.138-.647 0-1.17-.51-1.17-1.138 0-.63.523-1.138 1.17-1.138.647 0 1.172.509 1.172 1.138" mask="url(#h)"/>
            <path fill="#BCE6F6" d="M417.813 236.963l-.458.26.458.265z" mask="url(#h)"/>
            <path fill="#2CADD1" d="M421.692 287.544c1.437 1.791 1.731 4.222.75 6.21-1.298 2.631-4.138 3.09-4.389 3.126-2.655.415-4.778-1.07-5.03-2.727-.22-1.45 1.045-2.683 1.228-2.855l-3.646-20.364c-.74-4.134-.127-8.037 1.734-8.839.842-.363 1.756.02 1.997.121 2.837 1.188 3.256 5.887 3.935 10.33.572 3.74 1.564 8.846 3.421 14.998" mask="url(#h)"/>
            <path fill="#372221" d="M439.044 353.571c1.854 4.967 4.211 14.137 2.153 15.071-2.06.935-8.98-6.19-9.659-14.323-.326-3.918.748-8.655 2.403-8.88 1.967-.27 4.27 5.9 5.103 8.132" mask="url(#h)"/>
            <path fill="#372221" d="M436.971 350.62c.456 1.08 2.283 5.408 1.276 6.06-.842.547-3.79-1.394-4.625-4.145-.727-2.396.196-5.248 1.116-5.343.753-.077 1.5 1.689 2.233 3.429M433.76 354.457c1.853 4.968 4.21 14.137 2.153 15.07-2.062.935-8.981-6.19-9.66-14.322-.325-3.918.749-8.655 2.404-8.881 1.966-.27 4.27 5.9 5.103 8.132" mask="url(#h)"/>
            <path fill="#372221" d="M431.686 351.506c.456 1.08 2.283 5.407 1.276 6.06-.842.546-3.79-1.395-4.625-4.146-.727-2.396.196-5.248 1.116-5.343.753-.077 1.5 1.69 2.233 3.43" mask="url(#h)"/>
            <path fill="#0B7FA2" d="M431.377 351.633l3.738-32.266-26.374-2.688c-5.236-1.907-7.046-6.98-5.662-9.523 1.169-2.15 5.059-3.298 9.008-1.801 4.332.72 9.876 1.735 16.292 3.142 11.339 2.486 14.002 3.7 15.59 6.148 1.936 2.984 1.312 6.318 0 12.788a2660.426 2660.426 0 0 1-5.312 25.577 6.144 6.144 0 0 1-3.443.615c-2.175-.253-3.494-1.615-3.837-1.992" mask="url(#h)"/>
            <path fill="#2CADD1" d="M416.038 289.23a499.265 499.265 0 0 0-.508 22.898h-20.578l.879-49.698c.103-.15.522-.746 1.198-1.517a18.624 18.624 0 0 1 2.057-2.012c1.892-1.579 4.47-3.002 7.378-2.639.502.062 2.588.372 4.967 2.571.396.363.8.78 1.204 1.257.396.466.756.941 1.077 1.431l.003.003c3.908 5.891 2.955 13.765 2.323 27.706" mask="url(#h)"/>
            <path fill="#FDCA81" d="M409.23 257.645c-.199 1.876-1.348 3.362-2.659 3.616-1.763.34-4.172-1.48-4.254-4.467l-.425-8.295 6.96-.96.378 10.106" mask="url(#h)"/>
            <path fill="#0B7FA2" d="M402.261 256.215l3.3 5.022-1.874 3.667-3.16-7.508c.578-.394 1.156-.788 1.734-1.18M407.544 260.828l1.687-4.353 1.22 1.18-.774 6.381-2.133-3.208M433.04 315.573c-1.934-2.2-4.337-2.81-12.631-4.49a867.58 867.58 0 0 0-4.144-.83l-.687-5.373-20.824 2.397.113 3.373c-.615 2.686 1.32 6.89 5.975 8.586l23.593 3.847 1.916 29.478c.25.327 1.204 1.494 2.914 1.856 2.109.445 3.715-.685 3.972-.872a264.248 264.248 0 0 0 2.164-25.38c.222-6.134.13-9.76-2.361-12.592" mask="url(#h)"/>
            <path fill="#372221" d="M416.009 308.451l-21.445.197.295-4.427 20.855-.295.295 4.525" mask="url(#h)"/>
            <path fill="#014A73" d="M396.827 309.238h1.672v-5.312h-1.672z" mask="url(#h)"/>
            <path fill="#705C40" d="M401.81 248.914l11.16.722 7.254-15.309a23.384 23.384 0 0 0-7.218-4.544c-3.23-1.276-7.766-3.077-11.802-.829-2.57 1.431-4.925 4.48-4.796 7.515.089 2.081 1.288 2.833 3.357 7.278a46.666 46.666 0 0 1 2.045 5.167" mask="url(#h)"/>
            <path fill="#FECF91" d="M404.128 252.659c.519 1.594 2.249 3.518 7.659 4.858l5.976-17.91-6.298-.728c-2.856-3.29-3.891-3.8-4.28-3.566-.65.392.652 2.802-.392 5.654a7.179 7.179 0 0 1-1.288 2.183c-1.738.248-2.562.814-2.874 1.495-.405.887.166 1.726.737 3.75.693 2.454.403 3.168.76 4.264" mask="url(#h)"/>
            <path fill="#FECF91" d="M401.787 243.38c-.355 1.7.667 3.773 1.892 3.861.945.07 1.817-1.059 2.15-1.953.675-1.818-.28-4.297-1.54-4.475-1.018-.144-2.22 1.218-2.502 2.567" mask="url(#h)"/>
            <path fill="#2CADD1" d="M395.379 289.322c.672 2.195.045 4.563-1.602 6.046-2.18 1.964-4.988 1.339-5.235 1.279-2.62-.597-4.042-2.762-3.663-4.395.333-1.43 1.965-2.106 2.198-2.199l4.15-20.265c.699-4.88 3.179-7.772 4.885-7.57 1.445.17 2.72 2.608 3.174 5.616l-3.907 21.488" mask="url(#h)"/>
            <path fill="#EF4144" d="M403.418 304.517l-2.264.098a124.233 124.233 0 0 0-4.125-43.702 18.626 18.626 0 0 1 2.057-2.012 112.363 112.363 0 0 1 3.742 16.3 112.954 112.954 0 0 1 .59 29.316" mask="url(#h)"/>
            <path fill="#D4355E" d="M401.044 305.279h2.693v-2.213h-2.693z" mask="url(#h)"/>
            <path fill="#EF4144" d="M415.167 304.517l-2.264.098a788.707 788.707 0 0 0-1.472-45.781c.395.363.8.779 1.204 1.257.395.466.755.94 1.077 1.43l.003.003a90.78 90.78 0 0 1 .646 4.43c.526 4.315.617 7.635.664 9.74.121 5.397.222 15.6.142 28.823" mask="url(#h)"/>
            <path fill="#D4355E" d="M412.793 304.965h2.693v-1.9h-2.693z" mask="url(#h)"/>
            <path fill="#FECF91" d="M410.008 293.105c-4.483.445-7.767 1.12-9.985 1.672-1.576.393-2.772.541-5.164.837-2.489.307-3.59.305-4.722-.246-.948-.462-2.369-1.527-2.263-2.706.068-.752.732-1.27 1.623-1.967a8.566 8.566 0 0 1 2.433-1.328c5.86-.066 11.717-.13 17.576-.197l.502 3.935" mask="url(#h)"/>
            <path fill="#0D1E24" d="M421.464 280.637l5.24.703c1.024.137 1.556.999 1.202 1.913l-3.41 8.802c-.296.763-1.285 1.314-2.22 1.24l-4.77-.379c-.982-.078-1.591-.779-1.348-1.576l2.806-9.216c.292-.96 1.418-1.632 2.5-1.487" mask="url(#h)"/>
            <path fill="#FECF91" d="M418.496 289.1a5.445 5.445 0 0 1-.429 2.779c-.783 1.762-2.275 2.529-2.706 2.732l-6.967-1.358-.296-4.082 5.436-1.072 4.962 1.002M424.425 289.284c-.41.207-1.657.903-2.307 2.403a4.753 4.753 0 0 0-.384 2.02c.226.207 1.712 1.54 2.883 1.056.267-.11.52-.315 1.154-1.345.401-.652.927-1.587 1.442-2.788l-1.058-1.058-1.73-.288" mask="url(#h)"/>
        </g>
    </g>
</svg>
