<?xml version="1.0" encoding="UTF-8" standalone="no"?>
<svg width="266px" height="354px" viewBox="0 0 266 354" version="1.1" xmlns="http://www.w3.org/2000/svg" xmlns:xlink="http://www.w3.org/1999/xlink">
    <!-- Generator: Sketch 45 (43475) - http://www.bohemiancoding.com/sketch -->
    <title>people1</title>
    <desc>Created with Sketch.</desc>
    <defs>
        <polygon id="path-1" points="6.486 0.6565 6.486 5.33719847 0.6702 5.33719847 0.6702 0.6565 6.486 0.6565"></polygon>
        <polygon id="path-3" points="15.6636 7 0.101973858 7 0.101973858 0.7103 15.6636 0.7103 15.6636 7"></polygon>
        <polygon id="path-5" points="18.9997 7 0.277073858 7 0.277073858 0.7103 18.9997 0.7103"></polygon>
        <polygon id="path-7" points="0.0621 0.515 17.2341 0.515 17.2341 25.3446 0.0621 25.3446 0.0621 0.515"></polygon>
        <polygon id="path-9" points="35.975 0.7534 35.975 25.8754 0.5372 25.8754 0.5372 0.7534 35.975 0.7534"></polygon>
        <polygon id="path-11" points="35.975 0.7534 35.975 12.5084 0.5372 12.5084 0.5372 0.7534 35.975 0.7534"></polygon>
        <polygon id="path-13" points="0 279 177.975 279 177.975 0.458 0 0.458"></polygon>
        <path d="M18.664,0.202 L7.027,4.274 C4.722,4.93 3.433,6.579 2.787,7.751 L0.04,14.955 C0.41,15.078 3.66,16.976 6.211,18.479 C5.99,20.184 5.891,21.468 5.891,21.468 L5.891,21.801 C5.891,23.589 6.792,25.155 8.119,25.991 L8.795,39.456 L6.94,46.42 L31.321,46.162 L29.001,39.765 L30.217,19.644 C32.72,18.148 38.55,14.679 39.035,14.517 L35.92,8.541 C35.487,7.491 34.169,5.012 31.149,4.225 L19.662,0.202 C19.657,0.165 19.41,0.146 19.163,0.146 C18.916,0.146 18.669,0.165 18.664,0.202 Z" id="path-15"></path>
        <polygon id="path-17" points="0 279 177.975 279 177.975 0.458 0 0.458"></polygon>
    </defs>
    <g id="Sample-UI" stroke="none" stroke-width="1" fill="none" fill-rule="evenodd">
        <g id="home" transform="translate(-1068.000000, -770.000000)">
            <g id="illustration" transform="translate(192.000000, 172.000000)">
                <g id="people1" transform="translate(876.000000, 597.000000)">
                    <g id="people3" transform="translate(149.000000, 170.000000)">
                        <path d="M4.742,89.1988 L4.736,89.1968 L0.488,96.4528 L0,101.7588 L1.083,104.5988 C1.083,104.5988 2.172,105.2888 2.71,104.0428 C3.249,102.7968 5.533,97.1428 5.533,97.1428 C5.533,97.1428 6.481,97.0648 6.281,98.2238 C6.08,99.3838 6.053,101.2178 7.361,101.5738 L8.634,96.1798 L8.965,90.8698 L9.478,89.7888 C7.883,89.9318 6.215,89.4008 5.016,88.3698 L4.742,89.1988 Z" id="Fill-1" fill="#F9CEBE"></path>
                        <path d="M16.1321,89.7505 L15.7361,105.8235 L20.4851,178.5365 L26.8171,179.1695 L30.0081,105.1585 L31.4761,105.0905 L39.9561,178.5365 L46.2881,179.1695 L46.3671,104.3975 L45.8131,89.6645 C45.6991,89.6885 16.2871,89.8595 16.1321,89.7505" id="Fill-3" fill="#0B7B9F"></path>
                        <path d="M51.7754,43.2481 C51.4024,42.2691 50.0524,39.4701 46.2874,38.4961 L31.5684,32.9721 C31.5597333,32.8967667 31.5260667,32.8371 31.4674,32.7931 L31.2794,32.8631 L31.0914,32.7931 C30.9964,32.9081 30.9944,32.9401 30.9904,32.9721 L16.2704,38.4961 C12.5064,39.4701 11.1564,42.2691 10.7914,43.2471 L7.4174,69.7801 L4.1724,89.8601 C4.1724,89.8601 8.9724,90.7041 9.1584,90.8901 L14.3824,73.0281 C14.3824,73.0281 16.7834,62.1501 16.7564,60.0381 L17.0414,74.8221 L16.2224,86.0741 L15.9874,96.0521 C26.0164,95.9351 36.0474,95.9231 46.0774,95.9231 L45.6544,86.0211 L44.4744,74.9301 L45.0584,56.9141 L48.0464,71.7081 L50.8474,90.5511 C52.4214,90.5801 53.9954,90.6011 55.5694,90.6071 L55.1704,69.5431 L51.7754,43.2481 Z" id="Fill-5" fill="#94C7D6"></path>
                        <path d="M46.0237,95.8928 C45.9567,95.8948 45.8947,95.8968 45.8277,95.8978 C45.9327,95.8958 46.0097,95.8948 46.0237,95.8928" id="Fill-7" fill="#020303"></path>
                        <path d="M40.0692,178.3409 L35.4232,181.3009 C31.5682,181.6869 31.3022,184.6459 31.3022,184.6459 L47.3042,184.6459 C47.8352,181.3009 46.3072,178.3409 46.3072,178.3409 L40.0692,178.3409 Z" id="Fill-9" fill="#372221"></path>
                        <path d="M20.1687,178.3409 L13.1787,181.3009 C9.4507,181.6869 9.1937,184.6459 9.1937,184.6459 L27.8367,184.6459 C28.3507,181.3009 26.8727,178.3409 26.8727,178.3409 L20.1687,178.3409 Z" id="Fill-11" fill="#372221"></path>
                        <polygon id="Fill-13" fill="#ECC76A" points="30.6299 33.107 26.4359 34.681 26.4359 36.107 34.9749 36.107 34.9749 34.25 31.9289 33.107"></polygon>
                        <polygon id="Fill-15" fill="#ECC76A" points="36.8747 36.1073 39.9237 36.1073 36.8747 34.9633"></polygon>
                        <polygon id="Fill-17" fill="#ECC76A" points="24.5368 36.1073 24.5368 35.3943 22.6348 36.1073"></polygon>
                        <path d="M30.5142,41.8725 L30.8962,41.8725 C32.6382,41.8725 34.1242,40.7725 34.7072,39.2325 L26.7042,39.2325 C27.2872,40.7725 28.7732,41.8725 30.5142,41.8725" id="Fill-19" fill="#ECC76A"></path>
                        <path d="M4.1719,89.8598 C4.1719,89.8598 8.9729,90.7038 9.1589,90.8898 L9.9339,88.2368 L4.4339,88.2368 L4.1719,89.8598 Z" id="Fill-21" fill="#ECC76A"></path>
                        <path d="M50.5035,88.2367 L50.8475,90.5507 C52.4215,90.5797 53.9955,90.6007 55.5695,90.6077 L55.5245,88.2367 L50.5035,88.2367 Z" id="Fill-23" fill="#ECC76A"></path>
                        <path d="M16.0253,94.3619 L15.9873,96.0519 C26.0163,95.9349 36.0473,95.9239 46.0773,95.9229 L46.0103,94.3619 L16.0253,94.3619 Z" id="Fill-25" fill="#ECC76A"></path>
                        <path d="M34.9752,36.1073 L34.9752,37.7913 C34.9752,38.2993 34.8782,38.7833 34.7072,39.2323 C34.1242,40.7723 32.6382,41.8723 30.8962,41.8723 L30.5142,41.8723 C28.7732,41.8723 27.2872,40.7723 26.7032,39.2323 C26.5332,38.7833 26.4362,38.2993 26.4362,37.7913 L26.4362,36.1073 L26.4362,34.6813 L24.5372,35.3943 L24.5372,36.1073 L24.5372,37.7913 C24.5372,38.2893 24.6042,38.7703 24.7192,39.2323 C25.0122,40.4083 25.6512,41.4463 26.5242,42.2323 C27.5832,43.1873 28.9802,43.7733 30.5142,43.7733 L30.8962,43.7733 C32.4312,43.7733 33.8272,43.1873 34.8872,42.2323 C35.7602,41.4463 36.3992,40.4083 36.6922,39.2323 C36.8072,38.7703 36.8742,38.2893 36.8742,37.7913 L36.8742,36.1073 L36.8742,34.9633 L34.9752,34.2503 L34.9752,36.1073 Z" id="Fill-27" fill="#ECC76A"></path>
                        <path d="M26.1049,36.8524 C26.1049,39.3934 28.1649,41.4534 30.7059,41.4534 C33.2469,41.4534 35.3059,39.3934 35.3059,36.8524 L35.3059,26.5444 L26.1049,26.5444 L26.1049,36.8524 Z" id="Fill-29" fill="#F9CEBE"></path>
                        <polygon id="Fill-31" fill="#C19074" points="51.0046 90.587 51.0076 90.587 51.0096 90.587"></polygon>
                        <path d="M51.0094,90.5871 L49.7344,95.9491 L49.3014,101.5291 C50.6704,101.5891 51.2064,99.8161 51.3694,98.6391 C51.5324,97.4631 52.4214,97.8291 52.4214,97.8291 C52.4214,97.8291 53.2684,98.9691 53.2524,100.5581 C53.2414,101.7381 51.6124,101.0591 51.6694,101.6401 C51.7864,102.8141 53.5784,102.9641 54.0754,102.9841 C54.1594,102.9871 54.2384,102.9681 54.3134,102.9311 L56.5614,101.8061 C56.9314,101.6211 57.1784,101.2561 57.2114,100.8431 L57.4854,98.7161 L55.6624,90.5871 C54.1604,90.7921 52.5554,90.7181 51.0094,90.5871" id="Fill-33" fill="#F9CEBE"></path>
                        <g id="Group-37" transform="translate(51.000000, 97.646000)">
                            <mask id="mask-2" fill="white">
                                <use xlink:href="#path-1"></use>
                            </mask>
                            <g id="Clip-36"></g>
                            <path d="M4.7792,0.7535 C3.7532,0.7275 2.7282,0.6925 1.7022,0.6565 C1.9472,1.1345 2.2632,1.9365 2.2532,2.9115 C2.2412,4.0925 0.6702,3.9935 0.6702,3.9935 C0.7842,5.1505 2.5252,5.3135 3.0522,5.3365 C3.1502,5.3415 3.2452,5.3195 3.3332,5.2755 L5.5612,4.1605 C5.9312,3.9755 6.1782,3.6095 6.2112,3.1965 L6.4862,1.0705 L6.4292,0.8185 C5.8822,0.7905 5.3332,0.7675 4.7792,0.7535" id="Fill-35" fill="#F9CEBE" mask="url(#mask-2)"></path>
                        </g>
                        <path d="M41.7725,16.3776 C41.7065,16.3666 41.6415,16.3616 41.5755,16.3586 C41.5595,6.2846 35.4545,3.9066 31.5095,3.7826 C27.5655,3.6586 21.3225,5.6496 20.6745,15.7026 C20.6095,15.7006 20.5435,15.7016 20.4775,15.7086 C19.2795,15.8356 18.4095,17.3416 18.5335,19.0726 C18.6585,20.8036 19.7305,22.1046 20.9285,21.9786 C20.9545,21.9756 20.9785,21.9686 21.0035,21.9656 C21.5695,25.1826 22.6185,27.3246 23.1915,28.1046 C23.9735,29.1696 28.4865,31.5296 30.6365,31.5966 C32.7865,31.6646 37.4385,29.5926 38.2865,28.5776 C38.9065,27.8356 40.0885,25.7636 40.8545,22.5886 C40.8795,22.5936 40.9035,22.6026 40.9285,22.6066 C42.1165,22.8076 43.2675,21.5756 43.5015,19.8566 C43.7345,18.1366 42.9595,16.5786 41.7725,16.3776" id="Fill-38" fill="#F9CEBE"></path>
                        <path d="M30.7645,27.5221 C32.6545,27.5811 34.2065,27.0051 34.2305,26.2351 L27.3865,26.0201 C27.3625,26.7901 28.8745,27.4631 30.7645,27.5221" id="Fill-40" fill="#FEFEFE"></path>
                        <path d="M39.5063,18.0101 C39.9773,16.9101 40.8633,16.2241 41.7723,16.3771 C41.7743,16.3781 41.7773,16.3791 41.7793,16.3791 C42.2333,15.1111 42.4293,13.5931 41.9123,11.9581 C39.1633,3.2671 42.6403,1.8411 42.6403,1.8411 C42.6403,1.8411 39.3063,1.5861 36.6493,3.6491 C38.5223,0.9361 39.3483,0.2461 39.3483,0.2461 C39.3483,0.2461 35.6223,-0.6749 31.4743,3.3071 C32.4373,1.1021 33.5453,0.0011 33.5453,0.0011 C33.5453,0.0011 25.1473,-0.1999 21.9193,5.7791 C20.0793,9.1871 19.8283,12.9331 20.1583,15.7811 C20.2613,15.7471 20.3673,15.7211 20.4773,15.7091 C20.8753,15.6671 21.2583,15.7851 21.5973,16.0211 C21.6383,14.7111 21.6753,13.5531 21.6803,13.3711 C23.3113,12.7071 25.0363,11.8671 25.0593,8.2911 C28.8103,8.4091 30.8643,8.4741 30.8643,8.4741 L36.8493,8.6621 C36.8493,8.6621 36.4543,12.6731 39.6403,13.7561 C39.5873,15.4321 39.5403,16.9121 39.5063,18.0101" id="Fill-42" fill="#F58921"></path>
                    </g>
                    <g id="people2" transform="translate(216.000000, 110.000000)">
                        <polygon id="Fill-1" fill="#F9CEBE" points="9.2283 173.022 14.2853 172.39 19.9753 112.965 9.2283 112.965"></polygon>
                        <polygon id="Fill-2" fill="#F9CEBE" points="27.4034 173.022 32.4614 172.39 38.1504 112.965 27.4034 112.965"></polygon>
                        <g id="Group-32" transform="translate(0.000000, 0.485000)">
                            <path d="M2.8143,68.0922 L2.2623,88.1562 L0.0003,95.6832 L1.0543,100.4552 L2.7943,102.6352 C2.7943,102.6352 3.9393,102.9322 4.0623,101.6932 C4.1843,100.4552 4.6043,94.8772 4.6043,94.8772 C4.6043,94.8772 5.4123,94.5442 5.5603,95.6132 C5.7083,96.6812 6.1963,98.2922 7.4393,98.2372 L7.0473,93.1692 L5.8873,88.5722 L5.8653,88.5692 L8.7913,69.2052 L15.1283,43.1452 L7.0073,42.1202 L2.8143,68.0922 Z" id="Fill-3" fill="#F9CEBE"></path>
                            <g id="Group-7" transform="translate(8.000000, 171.000000)">
                                <mask id="mask-4" fill="white">
                                    <use xlink:href="#path-3"></use>
                                </mask>
                                <g id="Clip-6"></g>
                                <path d="M11.6836,3.6623 L6.2866,0.7613 L1.1736,0.7103 C1.1736,0.7103 -0.3034,3.6623 0.2106,7.0003 L15.6636,7.0003 C15.6636,7.0003 15.4066,4.0473 11.6836,3.6623" id="Fill-5" fill="#76C053" mask="url(#mask-4)"></path>
                            </g>
                            <g id="Group-10" transform="translate(26.000000, 171.000000)">
                                <mask id="mask-6" fill="white">
                                    <use xlink:href="#path-5"></use>
                                </mask>
                                <g id="Clip-9"></g>
                                <path d="M15.0197,3.6623 L6.7767,0.7103 L1.3487,0.7103 C1.3487,0.7103 -0.1283,3.6623 0.3857,7.0003 L18.9997,7.0003 C18.9997,7.0003 18.7427,4.0473 15.0197,3.6623" id="Fill-8" fill="#76C053" mask="url(#mask-6)"></path>
                            </g>
                            <path d="M11.757,37.2507 C8.67,38.0537 7.324,40.5857 6.881,41.6577 L3.697,47.7607 C3.914,47.8327 5.186,48.5577 6.757,49.4747 C7.886,46.7277 10.282,42.2817 10.855,41.1457 C12.596,37.6957 17.025,36.7507 19.949,35.5127 C19.979,35.4297 24.525,33.1527 24.491,32.9097 C24.489,32.8917 24.494,32.8767 24.494,32.8597 L24.401,32.8257 L11.757,37.2507 Z" id="Fill-11" fill="#020303"></path>
                            <path d="M46.9496,88.3037 L43.3686,68.0847 L41.4126,43.8887 L33.0216,42.9907 L37.3486,68.9407 L43.3866,88.6137 L43.3666,88.6147 L42.0806,93.1787 L41.5486,98.2347 C42.7906,98.3227 43.3226,96.7267 43.4996,95.6627 C43.6776,94.5977 44.4756,94.9527 44.4756,94.9527 C44.4756,94.9527 44.7416,100.5407 44.8296,101.7817 C44.9186,103.0237 46.0716,102.7577 46.0716,102.7577 L47.8706,100.6267 L49.0556,95.8857 L47.0006,88.2987 L46.9496,88.3037 Z" id="Fill-13" fill="#F9CEBE"></path>
                            <path d="M34.5429,73.3886 L35.2629,59.4776 C36.6309,58.6276 37.5709,57.0366 37.5709,55.2006 L37.5709,54.8596 C37.5709,54.8596 37.4699,53.5486 37.2449,51.8076 C39.8509,50.2716 43.1719,48.3346 43.5509,48.2086 L41.2999,42.1506 L41.3139,42.1506 L40.7439,40.8506 C40.0829,39.6536 38.7659,37.9696 36.4099,37.2996 L24.5159,33.1416 C24.5069,33.0646 23.5069,33.0646 23.4969,33.1416 L11.7569,37.2506 C8.6699,38.0536 7.3239,40.5856 6.8809,41.6576 L3.6969,47.7606 C4.2019,47.9286 10.3779,51.6046 12.8489,53.0796 L14.2489,73.3836 L9.6439,85.7146 C8.9499,87.9486 8.6359,93.4436 8.7139,95.7816 L9.2279,112.4796 L38.3089,112.4796 L38.3089,94.0556 C38.3089,92.2246 38.1119,87.2396 37.7219,85.4516 L34.5429,73.3886 Z" id="Fill-15" fill="#76C053"></path>
                            <path d="M19.7647,37.04 C19.7647,39.484 21.7457,41.465 24.1897,41.465 C26.6337,41.465 28.6147,39.484 28.6147,37.04 L28.6147,27.136 L19.7647,27.136 L19.7647,37.04 Z" id="Fill-17" fill="#F9CEBE"></path>
                            <path d="M36.8078,15.7137 C37.0218,9.2517 31.9578,3.8397 25.4958,3.6257 C19.0338,3.4107 13.6218,8.4757 13.4068,14.9377 C13.1928,21.3997 18.2578,26.8117 24.7198,27.0257 C31.1818,27.2407 36.5938,22.1757 36.8078,15.7137" id="Fill-19" fill="#2E404A"></path>
                            <path d="M34.9511,19.8304 C34.8791,19.8184 34.8071,19.8114 34.7361,19.8104 C34.7371,10.3924 29.0491,8.1394 25.3501,8.0054 L25.3501,8.0054 C25.3451,8.0054 25.3401,8.0054 25.3351,8.0054 C25.3291,8.0044 25.3241,8.0044 25.3191,8.0044 L25.3191,8.0044 C21.6191,7.8934 15.7951,9.7644 15.1721,19.1624 C15.1111,19.1614 15.0491,19.1614 14.9871,19.1684 C13.8641,19.2844 13.0451,20.6944 13.1591,22.3184 C13.2731,23.9414 14.2761,25.1624 15.4001,25.0464 C15.4781,25.0384 15.5531,25.0234 15.6281,25.0034 C16.2831,27.5624 17.3991,29.0214 17.9191,29.7324 C18.6471,30.7274 22.4311,33.9794 24.4541,34.0774 C24.4541,34.0784 24.4541,34.0784 24.4541,34.0794 C24.4591,34.0794 24.4651,34.0784 24.4701,34.0794 C24.4751,34.0794 24.4801,34.0804 24.4851,34.0804 C24.4851,34.0794 24.4851,34.0794 24.4851,34.0784 C26.5111,34.1144 30.5021,31.1204 31.2941,30.1754 C31.8611,29.4994 33.0741,28.1164 33.8971,25.5984 C33.9791,25.6284 34.0631,25.6534 34.1501,25.6684 C35.2631,25.8584 36.3451,24.7064 36.5661,23.0944 C36.7871,21.4824 36.0641,20.0204 34.9511,19.8304" id="Fill-21" fill="#F9CEBE"></path>
                            <path d="M24.6038,30.5144 C26.0858,30.5634 27.3168,29.6934 27.3548,28.5704 L21.9878,28.3924 C21.9508,29.5154 23.1218,30.4654 24.6038,30.5144" id="Fill-23" fill="#FEFEFE"></path>
                            <path d="M24.8939,5.0733 C17.9479,4.8433 15.6349,10.8583 15.5419,13.6603 C12.9069,17.0783 15.5489,20.3013 17.4569,21.4663 C17.4779,20.8143 17.4859,20.5763 17.5139,19.7433 C17.5889,17.4793 19.8109,15.4543 23.0329,15.9103 C25.9209,16.3193 27.7999,14.7423 29.4339,12.0093 C31.4609,8.3433 29.1859,5.2153 24.8939,5.0733" id="Fill-25" fill="#2E404A"></path>
                            <path d="M29.1745,10.8543 C29.1745,10.8543 30.5785,17.4963 34.9515,19.8303 C35.9385,13.9333 36.3645,15.1963 35.2095,12.0363 C34.0545,8.8753 29.3225,6.3993 29.3225,6.3993 L29.1745,10.8543 Z" id="Fill-27" fill="#2E404A"></path>
                            <g id="Group-31" transform="translate(6.000000, 0.000000)">
                                <mask id="mask-8" fill="white">
                                    <use xlink:href="#path-7"></use>
                                </mask>
                                <g id="Clip-30"></g>
                                <path d="M17.2341,5.5296 C17.2341,5.5296 11.5971,-3.8454 4.0641,3.0406 C-3.4689,9.9286 4.5271,23.4106 0.0621,25.3446 C4.8801,24.8826 6.2891,18.1286 6.0171,12.1336 C5.7771,6.8326 10.4951,4.4316 14.0311,6.7166 C15.5161,7.6766 17.2341,5.5296 17.2341,5.5296" id="Fill-29" fill="#2E404A" mask="url(#mask-8)"></path>
                            </g>
                        </g>
                    </g>
                    <g>
                        <g id="Group-110" transform="translate(0.000000, 0.542000)">
                            <path d="M112.4331,86.1116 L112.4271,86.1096 L108.1751,93.3656 L107.6871,98.6716 L108.7711,101.5116 C108.7711,101.5116 109.8611,102.2016 110.4001,100.9556 C110.9381,99.7096 113.2251,94.0556 113.2251,94.0556 C113.2251,94.0556 114.1741,93.9776 113.9731,95.1376 C113.7721,96.2966 113.7451,98.1306 115.0541,98.4866 L116.3271,93.0926 L116.6591,87.7826 L117.1721,86.7006 C115.5761,86.8446 113.9071,86.3136 112.7071,85.2816 L112.4331,86.1116 Z" id="Fill-1" fill="#C19074"></path>
                            <path d="M123.8315,86.6633 L123.4355,102.7353 L128.1875,175.4493 L134.5245,176.0833 L137.7185,102.0713 L139.1865,102.0033 L147.6735,175.4493 L154.0095,176.0833 L154.0895,101.3103 L153.5345,86.5773 C153.4205,86.6013 123.9875,86.7723 123.8315,86.6633" id="Fill-3" fill="#75C09F"></path>
                            <polygon id="Fill-5" fill="#020303" points="152.1953 71.8433 152.7423 53.6793 151.7923 49.3493 151.4753 53.8903 150.2073 71.7393 151.4753 86.5243 153.5343 86.5773 153.3763 83.1443"></polygon>
                            <path d="M159.5015,40.161 L159.4925,40.16 C159.1275,39.182 157.7765,36.383 154.0095,35.408 L139.2795,29.885 C139.2745,29.853 139.2735,29.821 139.2695,29.79 C139.2665,29.772 139.2715,29.757 139.2715,29.74 L139.1785,29.706 L138.9905,29.776 L138.8015,29.706 L138.7085,29.74 C138.7085,29.757 138.7135,29.772 138.7115,29.79 C138.7065,29.821 138.7055,29.853 138.7005,29.885 L123.9705,35.408 C120.2035,36.383 118.8525,39.182 118.4875,40.16 L118.4785,40.161 L115.1105,66.693 L111.8625,86.773 C111.8625,86.773 116.6665,87.617 116.8525,87.802 L122.0805,69.941 C122.0805,69.941 124.4825,59.063 124.4565,56.951 L124.7415,71.735 L123.9225,82.986 L123.9105,82.987 L123.6865,92.965 C133.7235,92.848 143.7615,92.836 153.7985,92.836 L153.3765,82.934 L153.3535,82.934 L152.1955,71.843 L152.7795,53.827 L155.7705,68.621 L158.5725,87.464 C160.1475,87.493 161.7225,87.514 163.2985,87.52 L162.8995,66.456 L159.5015,40.161 Z" id="Fill-7" fill="#F58921"></path>
                            <path d="M153.7457,92.8056 C153.6767,92.8076 153.6127,92.8086 153.5437,92.8106 C153.6527,92.8086 153.7317,92.8076 153.7457,92.8056" id="Fill-9" fill="#020303"></path>
                            <path d="M147.7866,175.2538 L143.1366,178.2128 C139.2786,178.5988 139.0126,181.5588 139.0126,181.5588 L155.0266,181.5588 C155.5586,178.2128 154.0286,175.2538 154.0286,175.2538 L147.7866,175.2538 Z" id="Fill-11" fill="#372221"></path>
                            <path d="M127.8711,175.2538 L120.8761,178.2128 C117.1451,178.5988 116.8871,181.5588 116.8871,181.5588 L135.5451,181.5588 C136.0591,178.2128 134.5801,175.2538 134.5801,175.2538 L127.8711,175.2538 Z" id="Fill-13" fill="#372221"></path>
                            <path d="M133.8119,33.7615 C133.8119,36.3045 135.8729,38.3655 138.4159,38.3655 C140.9589,38.3655 143.0199,36.3045 143.0199,33.7615 L143.0199,23.4565 L133.8119,23.4565 L133.8119,33.7615 Z" id="Fill-15" fill="#E8B79E"></path>
                            <path d="M158.735,87.4998 L157.459,92.8618 L157.026,98.4418 C158.395,98.5018 158.933,96.7288 159.096,95.5518 C159.259,94.3758 160.148,94.7418 160.148,94.7418 C160.148,94.7418 160.996,95.8818 160.98,97.4708 C160.968,98.6508 159.338,97.9708 159.396,98.5528 C159.512,99.7268 161.306,99.8778 161.803,99.8968 C161.887,99.8998 161.966,99.8818 162.041,99.8438 L164.291,98.7188 C164.661,98.5338 164.908,98.1688 164.942,97.7558 L165.216,95.6288 L163.391,87.4998 C161.888,87.7048 160.282,87.6308 158.735,87.4998" id="Fill-17" fill="#C19074"></path>
                            <path d="M158.735,87.4998 L158.735,87.4998 L158.73,87.4998 C158.732,87.4998 158.733,87.4998 158.735,87.4998" id="Fill-19" fill="#E8B79E"></path>
                            <path d="M162.2033,96.9689 L158.2783,96.9689 C156.4773,96.9689 155.0133,98.4339 155.0133,100.2339 L155.0133,104.1589 C155.0133,104.5089 155.2963,104.7929 155.6463,104.7929 C155.9963,104.7929 156.2803,104.5089 156.2803,104.1589 L156.2803,100.2339 C156.2803,99.1319 157.1763,98.2359 158.2783,98.2359 L162.2033,98.2359 C163.3053,98.2359 164.2013,99.1319 164.2013,100.2339 L164.2013,104.1589 C164.2013,104.5089 164.4853,104.7929 164.8343,104.7929 C165.1853,104.7929 165.4683,104.5089 165.4683,104.1589 L165.4683,100.2339 C165.4683,98.4339 164.0043,96.9689 162.2033,96.9689" id="Fill-21" fill="#623F3C"></path>
                            <path d="M163.5084,95.3124 C162.4824,95.2864 161.4564,95.2514 160.4294,95.2164 C160.6744,95.6934 160.9904,96.4954 160.9804,97.4704 C160.9684,98.6514 159.3954,98.5524 159.3954,98.5524 C159.5104,99.7084 161.2524,99.8724 161.7804,99.8954 C161.8784,99.8994 161.9734,99.8784 162.0614,99.8344 L164.2904,98.7194 C164.6614,98.5344 164.9084,98.1684 164.9414,97.7554 L165.2164,95.6294 L165.1594,95.3774 C164.6124,95.3494 164.0624,95.3264 163.5084,95.3124" id="Fill-23" fill="#C19074"></path>
                            <g id="Group-27" transform="translate(142.000000, 102.000000)">
                                <mask id="mask-10" fill="white">
                                    <use xlink:href="#path-9"></use>
                                </mask>
                                <g id="Clip-26"></g>
                                <path d="M34.6422,0.7534 L1.8702,0.7534 C1.1342,0.7534 0.5372,1.3504 0.5372,2.0854 L0.5372,24.5424 C0.5372,25.2784 1.1342,25.8754 1.8702,25.8754 L34.6422,25.8754 C35.3782,25.8754 35.9752,25.2784 35.9752,24.5424 L35.9752,2.0854 C35.9752,1.3504 35.3782,0.7534 34.6422,0.7534" id="Fill-25" fill="#372221" mask="url(#mask-10)"></path>
                            </g>
                            <g id="Group-30" transform="translate(142.000000, 102.000000)">
                                <mask id="mask-12" fill="white">
                                    <use xlink:href="#path-11"></use>
                                </mask>
                                <g id="Clip-29"></g>
                                <path d="M34.6422,0.7534 L1.8702,0.7534 C1.1342,0.7534 0.5372,1.3504 0.5372,2.0854 L0.5372,5.4394 C0.5372,9.3434 3.7022,12.5084 7.6062,12.5084 L28.9062,12.5084 C32.8102,12.5084 35.9752,9.3434 35.9752,5.4394 L35.9752,2.0854 C35.9752,1.3504 35.3782,0.7534 34.6422,0.7534" id="Fill-28" fill="#462E2E" mask="url(#mask-12)"></path>
                            </g>
                            <path d="M163.7262,113.0321 L158.4952,113.0321 C158.1952,113.0321 157.9502,113.2781 157.9502,113.5781 L157.9502,114.0131 C157.9502,114.3141 158.1952,114.5591 158.4952,114.5591 L163.7262,114.5591 C164.0262,114.5591 164.2722,114.3141 164.2722,114.0131 L164.2722,113.5781 C164.2722,113.2781 164.0262,113.0321 163.7262,113.0321" id="Fill-31" fill="#CB992B"></path>
                            <path d="M128.5687,19.4466 C128.5687,24.7056 132.8317,28.9676 138.0897,28.9676 C143.3487,28.9676 148.8947,22.7936 148.8947,17.5356 L148.9957,7.9466 L128.5687,7.9466 L128.5687,19.4466 Z" id="Fill-33" fill="#C19074"></path>
                            <path d="M133.5657,33.8768 C133.5657,37.0098 136.1057,39.5488 139.2377,39.5488 C142.3707,39.5488 144.9107,37.0098 144.9107,33.8768 L144.9107,21.1818 L133.5657,21.1818 L133.5657,33.8768 Z" id="Fill-35" fill="#C19074"></path>
                            <path d="M140.7912,0.5185 L126.2052,0.5185 C126.2052,7.8115 128.5692,7.9375 128.5692,7.9375 L140.9682,7.9375 C144.0832,7.9375 143.9822,10.9515 143.9822,10.9515 L144.0372,10.9305 L144.0322,10.9515 L144.0322,13.8885 L145.5512,13.8885 C145.5512,13.8885 146.1592,12.6735 146.9702,12.6735 C147.5702,12.6735 148.3372,12.7235 148.3372,14.6485 C148.3372,19.9155 145.7542,19.5615 145.7542,19.5615 L144.9272,25.8075 C149.4852,23.4265 149.8062,15.2565 149.8062,15.2565 L149.8062,7.8115 C149.8062,-0.6975 140.7912,0.5185 140.7912,0.5185" id="Fill-37" fill="#623F3C"></path>
                            <path d="M135.9806,19.8994 L133.6496,19.8994 C133.6496,21.6504 135.0686,23.0684 136.8196,23.0684 L139.1496,23.0684 C139.1496,21.3184 137.7306,19.8994 135.9806,19.8994" id="Fill-39" fill="#623F3C"></path>
                            <path d="M128.5134,23.0688 L130.8444,23.0688 C132.5944,23.0688 134.0134,21.6498 134.0134,19.8998 L131.6834,19.8998 C129.9324,19.8998 128.5134,21.3178 128.5134,23.0688" id="Fill-41" fill="#623F3C"></path>
                            <path d="M109.9395,105.7122 L103.8065,87.7572 L99.0405,61.2202 L92.2815,69.4002 L96.9525,90.7372 C96.9525,90.7372 105.7185,108.2102 105.6975,108.2252 L106.5125,112.9252 L108.4095,118.2682 C109.7015,117.7592 109.4685,115.8972 109.1345,114.7412 C108.8015,113.5852 109.7755,113.5572 109.7755,113.5572 C109.7755,113.5572 112.7315,119.0512 113.4185,120.2582 C114.1055,121.4652 115.1375,120.6422 115.1375,120.6422 L115.9215,117.6332 L114.8325,112.2922 L109.9395,105.7122 Z" id="Fill-43" fill="#E8B79E"></path>
                            <path d="M53.4561,84.8576 L52.4341,108.7366 L50.1451,116.8656 L51.0351,122.2436 L52.8421,124.7746 C52.8421,124.7746 54.1001,125.1746 54.3101,123.8026 C54.5211,122.4306 55.3211,116.2426 55.3211,116.2426 C55.3211,116.2426 56.2411,115.9206 56.3421,117.1196 C56.4431,118.3186 56.8901,120.1416 58.2791,120.1546 L58.1441,114.4876 L57.1271,109.2976 L57.1111,109.2956 L59.9501,89.0726 L67.4761,64.2596 L57.5141,67.9136 L53.4561,84.8576 Z" id="Fill-45" fill="#E8B79E"></path>
                            <path d="M79.7834,49.5326 L79.6884,49.4976 L64.2814,55.2756 C60.4634,56.2626 59.0954,59.0996 58.7254,60.0896 L58.7174,60.0906 L58.7024,60.1546 C58.6404,60.3286 58.6104,60.4376 58.6104,60.4376 L58.6384,60.4366 L52.8144,86.1416 C53.0114,86.2066 51.8514,108.4506 51.8514,108.4506 L53.7064,108.5516 C53.7914,107.5176 53.8724,95.7006 54.3384,90.8756 C54.9614,84.4286 56.5494,77.8176 58.0304,71.5366 C59.3404,65.9786 59.0824,61.0776 64.3904,57.5996 C66.1904,56.4196 74.6604,52.0846 77.1224,51.4286 C78.1614,51.1516 79.1074,51.1656 79.9424,51.3886 C79.9104,50.7846 79.8634,50.1826 79.7804,49.5826 C79.7774,49.5646 79.7834,49.5496 79.7834,49.5326" id="Fill-47" fill="#020303"></path>
                            <path d="M104.0924,87.7463 L100.3854,60.4383 C100.3854,60.4383 99.3694,56.4793 94.7144,55.2753 L79.7904,49.6793 C79.7864,49.6473 79.7844,49.6143 79.7804,49.5833 C79.7774,49.5643 79.7834,49.5493 79.7834,49.5323 L79.6884,49.4973 L79.4974,49.5693 L79.3074,49.4973 L79.2124,49.5323 C79.2124,49.5493 79.2184,49.5643 79.2154,49.5833 C79.2104,49.6143 79.2094,49.6473 79.2044,49.6793 L64.2814,55.2753 C60.4634,56.2623 59.0954,59.0993 58.7254,60.0893 L58.7174,60.0903 L58.7024,60.1543 C58.6404,60.3293 58.6104,60.4383 58.6104,60.4383 L58.6384,60.4363 L52.8144,86.1413 C53.0114,86.2073 51.8514,108.4503 51.8514,108.4503 L57.7364,108.7713 L61.3204,86.9443 L65.4974,73.0023 L66.1194,92.1883 L64.9454,103.4243 L64.9224,103.4243 L64.4944,113.4563 C74.6644,113.4573 84.8334,113.4683 95.0014,113.5873 L94.7754,103.4773 L94.7634,103.4773 L93.9334,92.0783 L94.1234,78.6643 L96.3084,89.3513 L105.1754,108.0893 L110.2714,105.3613 C110.2714,105.3613 103.8274,87.8353 104.0924,87.7463" id="Fill-49" fill="#75C09F"></path>
                            <path d="M95.3811,122.0389 L94.8551,107.2029 C94.6971,107.3139 64.8781,107.1399 64.7621,107.1159 L64.2011,122.0419 L63.6001,153.7099 L57.4681,191.4269 L64.1291,192.3899 L74.0801,154.6459 L80.4501,122.0419 L81.2151,122.0419 L88.8031,153.7139 L93.0091,193.3019 L99.4291,192.6599 L99.3131,153.5569 L95.3811,122.0389 Z" id="Fill-51" fill="#01583E"></path>
                            <path d="M73.5017,198.0651 C73.5017,198.0651 69.5057,196.8831 69.2647,196.6431 L64.1287,192.3891 L57.4907,191.2661 C57.4907,191.2661 55.1227,194.8851 55.4297,198.5911 L66.4827,201.0481 L75.6067,200.8721 C75.6067,200.8721 76.1337,198.4161 73.5017,198.0651" id="Fill-53" fill="#372221"></path>
                            <path d="M110.2991,194.9344 C110.2991,194.9344 106.1331,195.0104 105.8311,194.8524 L99.6531,192.3424 L92.9851,193.2694 C92.9851,193.2694 91.8151,197.4334 93.2231,200.8754 L104.5041,199.8914 L113.1521,196.9784 C113.1521,196.9784 112.9151,194.4774 110.2991,194.9344" id="Fill-55" fill="#372221"></path>
                            <polygon id="Fill-57" fill="#E4DBCF" points="52.1639 109.4149 57.2399 109.6779 57.2889 108.7159 52.2139 108.4529"></polygon>
                            <polygon id="Fill-59" fill="#E4DBCF" points="105.4096 107.95 105.8486 108.807 110.5126 106.364 110.0736 105.507"></polygon>
                            <polygon id="Fill-61" fill="#FEFEFE" points="72.555 52.2501 77.289 60.6761 80.713 57.0921 74.682 49.6821"></polygon>
                            <polygon id="Fill-63" fill="#FEFEFE" points="80.7134 57.0918 84.3514 60.4888 86.4384 52.6778 84.4314 49.9768"></polygon>
                            <mask id="mask-14" fill="white">
                                <use xlink:href="#path-13"></use>
                            </mask>
                            <g id="Clip-66"></g>
                            <polygon id="Fill-65" fill="#623F3C" mask="url(#mask-14)" points="64.342 108.664 95.453 108.664 95.453 105.294 64.342 105.294"></polygon>
                            <path d="M82.7466,104.9794 L81.0876,104.9794 C79.9836,104.9794 79.0886,105.8744 79.0886,106.9794 C79.0886,108.0834 79.9836,108.9794 81.0876,108.9794 L82.7466,108.9794 C83.8506,108.9794 84.7466,108.0834 84.7466,106.9794 L84.7466,106.9794 C84.7466,105.8744 83.8506,104.9794 82.7466,104.9794" id="Fill-67" fill="#E4DBCF" mask="url(#mask-14)"></path>
                            <path d="M66.1411,27.5954 L65.5361,45.5494 L92.5651,46.4604 L93.1701,28.5064 C93.2971,24.7404 90.3481,21.5864 86.5841,21.4594 L73.1861,21.0084 C73.0351,21.0034 72.8851,21.0024 72.7371,21.0084 L72.5851,22.5794 L71.1601,21.2434 C70.9111,21.3104 70.6681,21.3934 70.4321,21.4874 L70.9811,23.6234 L69.3911,22.0094 C67.5081,23.1684 66.2211,25.2184 66.1411,27.5954" id="Fill-68" fill="#EF6724" mask="url(#mask-14)"></path>
                            <path d="M64.6564,40.5874 C65.5144,54.4044 92.8434,56.5904 93.7394,41.9314 C94.3814,31.4184 88.1094,22.5794 80.0784,22.2084 C72.0474,21.8364 64.0034,30.0754 64.6564,40.5874" id="Fill-69" fill="#EDC6B1" mask="url(#mask-14)"></path>
                            <path d="M67.5224,48.5014 C67.4254,51.3684 72.6544,53.8704 79.1994,54.0914 C85.7454,54.3114 91.1304,52.1664 91.2274,49.3004 C91.3234,46.4334 86.0954,43.9304 79.5494,43.7104 C73.0034,43.4894 67.6194,45.6344 67.5224,48.5014" id="Fill-70" fill="#EF6724" mask="url(#mask-14)"></path>
                            <path d="M76.4866,45.3988 C76.4296,46.3118 77.7256,47.1368 79.3836,47.2408 C81.0406,47.3438 82.4296,46.6858 82.4866,45.7728 C82.4956,45.6148 82.4646,45.4588 82.3986,45.3078 C82.0176,45.9978 80.8136,46.4488 79.4186,46.3618 C78.0476,46.2768 76.9246,45.6978 76.6096,44.9838 C76.5376,45.1148 76.4956,45.2528 76.4866,45.3988" id="Fill-71" fill="#F3F9F6" mask="url(#mask-14)"></path>
                            <polygon id="Fill-72" fill="#EF6724" mask="url(#mask-14)" points="63.8572 38.1298 65.6342 37.9858 69.8702 25.4548 65.9842 27.5898"></polygon>
                            <polygon id="Fill-73" fill="#EF6724" mask="url(#mask-14)" points="94.5644 39.4785 92.8014 39.2155 89.4184 26.4275 93.1514 28.8195"></polygon>
                            <path d="M79.4025,44.3207 C80.3035,44.2337 81.3775,44.2027 82.5775,44.3147 C84.5855,44.5017 86.2305,45.0227 87.4135,45.5087 C86.9035,44.8857 85.7645,43.6607 83.8735,42.8837 C81.9055,42.0757 80.1675,42.1797 79.3655,42.2787 C79.3785,42.9597 79.3905,43.6397 79.4025,44.3207" id="Fill-74" fill="#EF6724" mask="url(#mask-14)"></path>
                            <path d="M79.6553,44.3293 C78.7623,44.1813 77.6923,44.0783 76.4883,44.1093 C74.4713,44.1613 72.7963,44.5703 71.5833,44.9753 C72.1333,44.3883 73.3523,43.2423 75.2913,42.5953 C77.3083,41.9213 79.0363,42.1423 79.8293,42.2943 C79.7713,42.9723 79.7133,43.6513 79.6553,44.3293" id="Fill-75" fill="#EF6724" mask="url(#mask-14)"></path>
                            <path d="M65.2598,36.4497 C65.2598,36.4497 70.8168,44.8747 70.5788,44.9837 C70.4448,45.0457 69.3968,49.8027 68.0508,50.1017 L65.5758,46.1307 L63.9078,37.9887 L65.2598,36.4497 Z" id="Fill-76" fill="#EF6724" mask="url(#mask-14)"></path>
                            <path d="M93.4448,38.176 C93.4448,38.176 87.3338,46.208 87.5628,46.333 C87.6928,46.403 88.4178,51.22 89.7418,51.609 L92.4778,47.814 L94.6898,39.802 L93.4448,38.176 Z" id="Fill-77" fill="#EF6724" mask="url(#mask-14)"></path>
                            <path d="M81.5866,40.4554 C82.3996,41.3254 83.5446,41.8844 84.8276,41.9274 L87.3826,42.0134 C89.8376,42.0964 91.8946,40.1734 91.9766,37.7194 L92.0126,36.6684 C92.0646,35.1214 90.8536,33.8254 89.3066,33.7734 L84.1066,33.5984 C82.0926,33.5304 80.4046,35.1084 80.3366,37.1234 C80.2936,38.4064 80.7746,39.5854 81.5866,40.4554 M84.5146,32.5584 L90.2596,32.7524 C92.1326,32.8154 93.5996,34.3844 93.5366,36.2564 L93.4876,37.6974 C93.3866,40.6914 90.8766,43.0384 87.8816,42.9374 L85.4046,42.8544 C82.2706,42.7484 79.8156,40.1224 79.9216,36.9884 L79.9266,36.8464 C80.0086,34.3954 82.0626,32.4764 84.5146,32.5584" id="Fill-78" fill="#221E1F" mask="url(#mask-14)"></path>
                            <path d="M76.5634,40.3593 C75.6934,41.1723 74.5144,41.6533 73.2304,41.6103 L70.6754,41.5243 C68.2214,41.4413 66.2984,39.3843 66.3804,36.9303 L66.4164,35.8793 C66.4684,34.3323 67.7644,33.1213 69.3114,33.1733 L74.5104,33.3483 C76.5244,33.4163 78.1024,35.1043 78.0354,37.1183 C77.9914,38.4023 77.4324,39.5463 76.5634,40.3593 M74.1734,32.2833 L68.4284,32.0893 C66.5564,32.0263 64.9864,33.4943 64.9234,35.3663 L64.8754,36.8063 C64.7744,39.8013 67.1204,42.3113 70.1154,42.4123 L72.5924,42.4953 C75.7264,42.6013 78.3524,40.1463 78.4584,37.0123 L78.4624,36.8703 C78.5454,34.4193 76.6254,32.3663 74.1734,32.2833" id="Fill-79" fill="#221E1F" mask="url(#mask-14)"></path>
                            <path d="M76.9757,34.4566 C77.2657,34.2766 78.0367,33.8516 79.1037,33.8806 C80.2027,33.9096 80.9667,34.4026 81.2417,34.6006 C81.2507,34.3376 81.2597,34.0756 81.2687,33.8136 C80.9717,33.6126 80.2087,33.1556 79.1287,33.1266 C78.0807,33.0976 77.3127,33.4886 77.0027,33.6696 C76.9937,33.9316 76.9847,34.1946 76.9757,34.4566" id="Fill-80" fill="#221E1F" mask="url(#mask-14)"></path>
                            <path d="M76.5744,40.477 C75.7044,41.29 74.5254,41.771 73.2414,41.728 L70.6864,41.642 C68.2324,41.559 66.3094,39.502 66.3914,37.048 L66.4274,35.997 C66.4794,34.45 67.7754,33.239 69.3224,33.291 L74.5214,33.466 C76.5354,33.534 78.1134,35.222 78.0464,37.236 C78.0024,38.52 77.4434,39.664 76.5744,40.477" id="Fill-81" fill="#FEFEFE" mask="url(#mask-14)"></path>
                            <path d="M80.3576,37.4748 C80.2896,35.4608 81.8676,33.7718 83.8826,33.7048 L89.0816,33.5288 C90.6286,33.4768 91.9246,34.6888 91.9766,36.2348 L92.0116,37.2858 C92.0946,39.7408 90.1716,41.7978 87.7176,41.8798 L85.1626,41.9658 C83.8786,42.0098 82.6986,41.5288 81.8296,40.7158 C80.9606,39.9028 80.4006,38.7588 80.3576,37.4748" id="Fill-82" fill="#FEFEFE" mask="url(#mask-14)"></path>
                            <path d="M51.4002,88.0848 L48.8262,67.8378 L39.3022,61.8108 L44.1412,86.6658 L47.0372,108.6468 L47.0212,108.6478 L45.7452,113.7088 L45.3122,119.2878 C46.6812,119.3478 47.2182,117.5758 47.3812,116.3988 C47.5452,115.2218 48.4342,115.5888 48.4342,115.5888 C48.4342,115.5888 48.8962,121.7298 49.0312,123.0928 C49.1662,124.4568 50.4272,124.1288 50.4272,124.1288 L52.3412,121.7298 L53.5022,116.4758 L51.6762,108.3428 L51.4002,88.0848 Z" id="Fill-83" fill="#C19074" mask="url(#mask-14)"></path>
                            <path d="M2.0602,88.0848 L1.8482,108.1908 L1.8422,108.1908 L0.0002,116.3968 L1.1502,121.5998 L3.0462,123.9758 C3.0462,123.9758 4.2942,124.2998 4.4282,122.9498 C4.5622,121.5988 5.0202,115.5178 5.0202,115.5178 C5.0202,115.5178 5.9002,115.1548 6.0622,116.3198 C6.2232,117.4858 6.7552,119.2408 8.1112,119.1818 L7.6822,113.6558 L6.3832,108.4968 L9.3192,86.6658 L14.1582,61.8108 L4.6342,67.8378 L2.0602,88.0848 Z" id="Fill-84" fill="#C19074" mask="url(#mask-14)"></path>
                            <path d="M11.5716,107.1579 L11.1756,123.2309 L15.9276,195.9439 L22.2646,196.5779 L25.4586,122.5659 L26.9266,122.4979 L35.4136,195.9439 L41.7496,196.5779 L41.8296,121.8049 L41.2746,107.0719 C41.1606,107.0959 11.7276,107.2679 11.5716,107.1579" id="Fill-85" fill="#0B7B9F" mask="url(#mask-14)"></path>
                            <path d="M15.6112,195.7486 L8.6162,198.7076 C4.8852,199.0936 4.6272,202.0536 4.6272,202.0536 L23.2852,202.0536 C23.7992,198.7076 22.3202,195.7486 22.3202,195.7486 L15.6112,195.7486 Z" id="Fill-86" fill="#372221" mask="url(#mask-14)"></path>
                            <polygon id="Fill-87" fill="#020303" mask="url(#mask-14)" points="40.5286 74.0394 41.6446 73.8024 40.2976 68.9704"></polygon>
                            <path d="M42.7263,195.6013 L49.7213,198.5603 C53.4523,198.9463 53.7103,201.9063 53.7103,201.9063 L35.0523,201.9063 C34.5383,198.5603 36.0173,195.6013 36.0173,195.6013 L42.7263,195.6013 Z" id="Fill-88" fill="#372221" mask="url(#mask-14)"></path>
                            <path d="M41.6441,109.8512 C41.2181,103.7542 40.8401,78.8472 40.8401,78.8472 L41.8291,82.5572 L51.4091,72.7802 C50.8221,70.4312 44.1671,60.0572 44.1671,60.0572 C42.8951,58.1002 34.8701,57.4152 34.8701,57.4152 L33.1081,55.1642 L19.7011,55.0662 L18.4281,57.0232 L9.6201,59.4702 C5.9021,61.2312 1.5951,73.5632 1.5951,73.5632 L10.9491,83.7802 L11.5781,79.0432 L11.4981,110.1452 C11.4981,110.1452 31.6111,111.3592 41.6441,109.8512" id="Fill-89" fill="#94C7D6" mask="url(#mask-14)"></path>
                            <polygon id="Fill-90" fill="#0D1F24" mask="url(#mask-14)" points="12.948 58.3935 16.781 109.2635 18.738 110.1445 15.003 58.0025"></polygon>
                            <polygon id="Fill-91" fill="#0D1F24" mask="url(#mask-14)" points="39.5674 58.0999 35.7674 108.9699 33.8094 109.8509 37.5124 57.7089"></polygon>
                            <path d="M20.1611,58.2165 C20.1611,61.4335 22.7691,64.0415 25.9861,64.0415 C29.2021,64.0415 31.8101,61.4335 31.8101,58.2165 L31.8101,45.1665 L20.1611,45.1665 L20.1611,58.2165 Z" id="Fill-92" fill="#C19074" mask="url(#mask-14)"></path>
                            <path d="M16.0703,41.4192 C16.0703,46.8232 21.7643,53.1672 27.1643,53.1672 C32.5643,53.1672 36.9413,48.7872 36.9413,43.3832 L36.9413,31.5652 L15.9663,31.5652 L16.0703,41.4192 Z" id="Fill-93" fill="#C19074" mask="url(#mask-14)"></path>
                            <path d="M24.3913,23.9324 C24.3913,23.9324 15.1343,22.6834 15.1343,31.4264 L15.1343,39.0764 C15.1343,39.0764 15.4633,47.4734 20.1443,49.9194 L19.2943,43.5014 C19.2943,43.5014 16.6423,43.8654 16.6423,38.4524 C16.6423,36.4744 17.4293,36.4224 18.0463,36.4224 C18.8783,36.4224 19.5023,37.6714 19.5023,37.6714 L21.0633,37.6714 L21.0633,34.6534 L21.0583,34.6324 L21.1153,34.6534 C21.1153,34.6534 21.0103,31.5564 24.2093,31.5564 L36.9413,31.5564 C36.9413,31.5564 37.3483,31.5264 37.8273,30.9894 C37.8413,30.3174 37.9093,29.6424 37.8403,28.9744 C37.0803,21.5474 24.3913,23.9324 24.3913,23.9324" id="Fill-94" fill="#623F3C" mask="url(#mask-14)"></path>
                            <path d="M25.8941,51.2666 C25.8941,52.9876 27.2891,54.3826 29.0101,54.3826 L31.6951,54.3826 C33.3371,54.3826 34.6671,53.0516 34.6671,51.4106 L34.6671,47.8676 L25.8941,47.8676 L25.8941,51.2666 Z" id="Fill-95" fill="#623F3C" mask="url(#mask-14)"></path>
                            <path d="M30.6159,49.2816 C32.1779,49.2816 33.4429,48.0156 33.4429,46.4536 L27.7879,46.4536 C27.7879,48.0156 29.0539,49.2816 30.6159,49.2816" id="Fill-96" fill="#C19074" mask="url(#mask-14)"></path>
                            <path d="M25.1551,48.3547 L27.5481,48.3547 C29.3451,48.3547 30.8021,46.9687 30.8021,45.2597 L28.4091,45.2597 C26.6121,45.2597 25.1551,46.6457 25.1551,48.3547" id="Fill-97" fill="#623F3C" mask="url(#mask-14)"></path>
                            <path d="M32.8222,45.2598 L30.4292,45.2598 C30.4292,46.9688 31.8862,48.3548 33.6842,48.3548 L36.0762,48.3548 C36.0762,46.6458 34.6192,45.2598 32.8222,45.2598" id="Fill-98" fill="#623F3C" mask="url(#mask-14)"></path>
                            <path d="M102.6377,146.7839 L137.2227,146.7839 L137.2227,111.5389 C137.2227,106.6049 133.2217,102.6039 128.2867,102.6039 L111.5727,102.6039 C106.6387,102.6039 102.6377,106.6049 102.6377,111.5399 L102.6377,146.7839 Z" id="Fill-99" fill="#4A3222" mask="url(#mask-14)"></path>
                            <polygon id="Fill-100" fill="#C19074" mask="url(#mask-14)" points="129.6745 272.6639 134.6225 273.2829 134.6225 212.1269 123.4885 212.1269"></polygon>
                            <polygon id="Fill-101" fill="#C19074" mask="url(#mask-14)" points="111.891 272.6639 116.839 273.2829 118.094 211.6619 107.35 209.7819"></polygon>
                            <path d="M129.6745,176.097 L109.8805,176.097 L106.7435,188.01 C106.3615,189.761 106.1695,194.643 106.1695,196.435 L109.8125,272.548 L117.1985,272.343 L119.4345,205.859 L120.4135,205.859 L129.6915,272.481 L135.0495,272.548 L135.1265,198.125 C135.2025,195.836 134.8945,190.456 134.2165,188.268 L129.6745,176.097 Z" id="Fill-102" fill="#94C7D6" mask="url(#mask-14)"></path>
                            <path d="M142.6913,170.4278 L136.4543,145.4348 L129.0223,148.4968 L136.9553,172.0088 L141.4103,190.6598 L141.3893,190.6638 L140.6403,195.2458 L140.6763,200.2228 C141.8933,200.1728 142.2363,198.5618 142.2923,197.5068 C142.3483,196.4518 143.1623,196.7088 143.1623,196.7088 C143.1623,196.7088 144.0333,202.1168 144.2553,203.3158 C144.4783,204.5138 145.5693,204.1288 145.5693,204.1288 L147.0853,201.8578 L147.7183,197.1148 L144.8893,189.9578 L142.6913,170.4278 Z" id="Fill-103" fill="#C19074" mask="url(#mask-14)"></path>
                            <path d="M101.2185,171.4181 L97.7145,191.2161 L95.6535,198.6401 L96.8135,203.2821 L98.5735,205.3691 C98.5735,205.3691 99.7015,205.6291 99.7885,204.4141 C99.8755,203.1981 100.1355,197.7261 100.1355,197.7261 C100.1355,197.7261 100.9165,197.3791 101.0895,198.4211 C101.2635,199.4631 101.7845,201.0271 102.9995,200.9401 L102.4785,195.9901 L101.2205,191.5211 L101.2015,191.5191 L107.1085,172.2561 L111.3425,146.8461 L103.1325,147.7251 L101.2185,171.4181 Z" id="Fill-104" fill="#C19074" mask="url(#mask-14)"></path>
                            <path d="M140.1508,151.517 L137.0358,145.541 C136.6018,144.492 135.2858,142.012 132.2648,141.226 L120.7778,137.202 C120.7678,137.127 119.7898,137.127 119.7798,137.202 L108.1428,141.273 C105.8378,141.93 104.5488,143.578 103.9028,144.751 L101.1558,151.955 C101.5268,152.079 104.7758,153.976 107.3258,155.479 C107.1058,157.184 107.0078,158.468 107.0078,158.468 L107.0078,158.802 C107.0078,160.589 107.9078,162.155 109.2338,162.991 L109.9108,176.456 L108.0548,183.42 L132.4368,183.162 L130.1168,176.765 L131.3328,156.644 C133.8358,155.149 139.6668,151.679 140.1508,151.517" id="Fill-105" fill="#96CB6C" mask="url(#mask-14)"></path>
                            <polygon id="Fill-106" fill="#623F3C" mask="url(#mask-14)" points="132.2694 158.1945 132.3464 176.3005 133.8154 176.2235 133.4294 161.5995"></polygon>
                            <polygon id="Fill-107" fill="#020303" mask="url(#mask-14)" points="131.2172 156.6438 131.6962 156.3848 129.8412 150.4008"></polygon>
                            <path d="M129.6919,272.4808 L124.3929,275.3638 C120.7499,275.7408 120.4989,278.6318 120.4989,278.6318 L135.6189,278.6318 C136.1209,275.3638 134.6769,272.4728 134.6769,272.4728 L129.6919,272.4808 Z" id="Fill-108" fill="#623F3C" mask="url(#mask-14)"></path>
                            <path d="M111.8513,272.4566 L103.5163,275.3636 C99.8743,275.7416 99.6223,278.6326 99.6223,278.6326 L117.8353,278.6326 C118.3383,275.3636 116.8933,272.4726 116.8933,272.4726 L111.8513,272.4566 Z" id="Fill-109" fill="#623F3C" mask="url(#mask-14)"></path>
                        </g>
                        <g id="Group-121" transform="translate(101.000000, 137.542000)">
                            <mask id="mask-16" fill="white">
                                <use xlink:href="#path-15"></use>
                            </mask>
                            <g id="Clip-112"></g>
                            <polygon id="Fill-111" fill="#76C053" mask="url(#mask-16)" points="-0.128 64.985 2.26 64.985 2.26 -17.654 -0.128 -17.654"></polygon>
                            <polygon id="Fill-113" fill="#76C053" mask="url(#mask-16)" points="5.245 64.985 7.633 64.985 7.633 -17.654 5.245 -17.654"></polygon>
                            <polygon id="Fill-114" fill="#76C053" mask="url(#mask-16)" points="10.618 64.985 13.006 64.985 13.006 -17.654 10.618 -17.654"></polygon>
                            <polygon id="Fill-115" fill="#76C053" mask="url(#mask-16)" points="15.991 64.985 18.379 64.985 18.379 -17.654 15.991 -17.654"></polygon>
                            <polygon id="Fill-116" fill="#76C053" mask="url(#mask-16)" points="21.364 64.985 23.752 64.985 23.752 -17.654 21.364 -17.654"></polygon>
                            <polygon id="Fill-117" fill="#76C053" mask="url(#mask-16)" points="26.738 64.985 29.126 64.985 29.126 -17.654 26.738 -17.654"></polygon>
                            <polygon id="Fill-118" fill="#76C053" mask="url(#mask-16)" points="32.111 64.985 34.499 64.985 34.499 -17.654 32.111 -17.654"></polygon>
                            <path d="M22.67,4.6557 C22.67,6.6897 21.016,8.3447 18.984,8.3447 C16.951,8.3447 15.297,6.6897 15.297,4.6557 L15.297,-5.6783 L13.442,-5.6783 L13.442,4.6557 C13.442,7.7137 15.928,10.2017 18.984,10.2017 C22.04,10.2017 24.526,7.7137 24.526,4.6557 L24.526,-5.6783 L22.67,-5.6783 L22.67,4.6557 Z" id="Fill-119" fill="#7FB55C" mask="url(#mask-16)"></path>
                            <polygon id="Fill-120" fill="#7FB55C" mask="url(#mask-16)" points="37.484 64.985 39.872 64.985 39.872 -17.654 37.484 -17.654"></polygon>
                        </g>
                        <g id="Group-167" transform="translate(0.000000, 0.542000)">
                            <path d="M124.3828,150.6892 C124.3828,150.6892 123.8748,143.0432 126.8128,139.3292 L128.3258,139.8562 C128.3258,139.8562 126.0068,140.6302 126.0068,150.3792 L125.6968,176.5332 L124.1508,176.5332 L124.3828,150.6892 Z" id="Fill-122" fill="#623F3C"></path>
                            <path d="M136.8116,178.065 L121.2316,178.065 C120.7466,178.065 120.3526,178.459 120.3526,178.945 L120.3526,185.946 C120.3526,186.431 120.7466,186.825 121.2316,186.825 L136.8116,186.825 C137.2976,186.825 137.6906,186.431 137.6906,185.946 L137.6906,178.945 C137.6906,178.459 137.2976,178.065 136.8116,178.065" id="Fill-124" fill="#623F3C"></path>
                            <path d="M135.5415,175.9142 L122.5025,175.9142 C121.3205,175.9142 120.3525,176.8822 120.3525,178.0652 C120.3525,180.6612 122.4755,182.7852 125.0695,182.7852 L132.9745,182.7852 C135.5685,182.7852 137.6915,180.6612 137.6915,178.0652 C137.6915,176.8822 136.7235,175.9142 135.5415,175.9142" id="Fill-126" fill="#795954"></path>
                            <path d="M131.4446,181.9754 L126.5996,181.9754 C126.2306,181.9754 125.9296,182.2764 125.9296,182.6464 C125.9296,183.0144 126.2306,183.3164 126.5996,183.3164 L131.4446,183.3164 C131.8136,183.3164 132.1146,183.0144 132.1146,182.6464 C132.1146,182.2764 131.8136,181.9754 131.4446,181.9754" id="Fill-128" fill="#E8B943"></path>
                            <polygon id="Fill-130" fill="#623F3C" points="109.5047 273.1633 117.5067 273.9833 118.6347 249.3693 107.8637 249.7793"></polygon>
                            <polygon id="Fill-132" fill="#623F3C" points="127.6313 273.5735 135.4813 274.3945 136.5873 249.7795 126.0213 250.1895"></polygon>
                            <path d="M115.7336,142.4505 C115.7336,144.8435 117.6726,146.7835 120.0636,146.7835 C122.4546,146.7835 124.3936,144.8435 124.3936,142.4505 L124.3936,132.7525 L115.7336,132.7525 L115.7336,142.4505 Z" id="Fill-134" fill="#C19074"></path>
                            <path d="M100.6085,125.8774 C100.6085,127.8824 102.1745,129.5074 104.1065,129.5074 C106.0375,129.5074 107.6035,127.8824 107.6035,125.8774 C107.6035,123.8724 106.0375,122.2474 104.1065,122.2474 C102.1745,122.2474 100.6085,123.8724 100.6085,125.8774" id="Fill-136" fill="#C19074"></path>
                            <path d="M104.9587,125.2486 C106.5017,139.4566 134.7907,140.4076 135.0147,125.2486 C135.1767,114.3756 128.2867,105.5596 119.9867,105.5596 C111.6867,105.5596 103.7847,114.4386 104.9587,125.2486" id="Fill-138" fill="#C19074"></path>
                            <path d="M132.8163,125.9509 C132.8163,127.9559 134.3823,129.5809 136.3143,129.5809 C138.2453,129.5809 139.8113,127.9559 139.8113,125.9509 C139.8113,123.9459 138.2453,122.3209 136.3143,122.3209 C134.3823,122.3209 132.8163,123.9459 132.8163,125.9509" id="Fill-140" fill="#C19074"></path>
                            <path d="M126.548,120.409 C126.548,120.966 127,121.418 127.557,121.418 C128.114,121.418 128.566,120.966 128.566,120.409 C128.566,119.852 128.114,119.4 127.557,119.4 C127,119.4 126.548,119.852 126.548,120.409" id="Fill-142" fill="#6C301E"></path>
                            <path d="M112.5132,120.409 C112.5132,120.966 112.9652,121.418 113.5222,121.418 C114.0792,121.418 114.5312,120.966 114.5312,120.409 C114.5312,119.852 114.0792,119.4 113.5222,119.4 C112.9652,119.4 112.5132,119.852 112.5132,120.409" id="Fill-144" fill="#6C301E"></path>
                            <mask id="mask-18" fill="white">
                                <use xlink:href="#path-17"></use>
                            </mask>
                            <g id="Clip-147"></g>
                            <polygon id="Fill-146" fill="#4A3222" mask="url(#mask-18)" points="131.694 144.817 137.125 144.817 137.125 110.504 131.694 110.504"></polygon>
                            <polygon id="Fill-148" fill="#4A3222" mask="url(#mask-18)" points="102.581 144.182 108.012 144.182 108.012 110.528 102.581 110.528"></polygon>
                            <path d="M69.6293,165.0314 L67.0553,144.7844 L57.5313,138.7574 L62.3703,163.6124 L65.2663,185.5934 L65.2503,185.5944 L63.9743,190.6554 L63.5413,196.2344 C64.9103,196.2944 65.4473,194.5224 65.6103,193.3454 C65.7743,192.1684 66.6633,192.5354 66.6633,192.5354 C66.6633,192.5354 67.1253,198.6764 67.2603,200.0394 C67.3953,201.4034 68.6563,201.0754 68.6563,201.0754 L70.5703,198.6764 L71.7313,193.4224 L69.9053,185.2894 L69.6293,165.0314 Z" id="Fill-149" fill="#F9CEBE" mask="url(#mask-18)"></path>
                            <path d="M20.2894,165.0314 L20.0774,185.1374 L20.0714,185.1374 L18.2294,193.3434 L19.3794,198.5464 L21.2754,200.9224 C21.2754,200.9224 22.5234,201.2464 22.6574,199.8964 C22.7914,198.5454 23.2494,192.4644 23.2494,192.4644 C23.2494,192.4644 24.1294,192.1014 24.2914,193.2664 C24.4524,194.4324 24.9844,196.1874 26.3404,196.1284 L25.9114,190.6024 L24.6124,185.4434 L27.5484,163.6124 L32.3874,138.7574 L22.8634,144.7844 L20.2894,165.0314 Z" id="Fill-150" fill="#F9CEBE" mask="url(#mask-18)"></path>
                            <path d="M68.6922,148.9295 L65.5682,137.9455 L65.5762,137.9455 C65.5762,137.9455 65.5522,137.8575 65.5032,137.7165 L65.4712,137.6025 L65.4622,137.6015 C65.0972,136.6235 63.7462,133.8245 59.9792,132.8505 L45.2482,127.3265 C45.2442,127.2945 45.2422,127.2625 45.2382,127.2315 C45.2362,127.2135 45.2412,127.1985 45.2412,127.1815 L45.1472,127.1475 L44.9592,127.2175 L44.7712,127.1475 L44.6772,127.1815 C44.6782,127.1985 44.6832,127.2135 44.6802,127.2315 C44.6762,127.2625 44.6742,127.2945 44.6702,127.3265 L29.9402,132.8505 C26.1722,133.8245 24.8212,136.6235 24.4562,137.6015 L24.4482,137.6025 L24.4152,137.7175 C24.3662,137.8585 24.3422,137.9455 24.3422,137.9455 L24.3502,137.9455 L21.2272,148.9295 C21.6682,149.0765 27.1622,150.1855 30.4512,150.8445 L30.7112,169.1765 L29.8912,180.4275 L29.8802,180.4275 L29.6562,190.4065 C39.6922,190.2895 49.7302,190.2775 59.7682,190.2765 L59.3452,180.3755 L59.3232,180.3755 L58.1642,169.2845 L58.7582,150.9865 C61.8922,150.3595 68.2172,149.0875 68.6922,148.9295" id="Fill-151" fill="#94C7D6" mask="url(#mask-18)"></path>
                            <path d="M29.8008,184.1045 L29.4048,200.1775 L34.1568,272.8905 L40.4938,273.5245 L43.6878,199.5125 L45.1558,199.4445 L53.6428,272.8905 L59.9788,273.5245 L60.0588,198.7515 L59.5038,184.0185 C59.3898,184.0425 29.9568,184.2145 29.8008,184.1045" id="Fill-152" fill="#0B7B9F" mask="url(#mask-18)"></path>
                            <path d="M53.9965,272.6952 L49.4995,275.6542 C45.7675,276.0402 45.5105,279.0002 45.5105,279.0002 L60.9995,279.0002 C61.5135,275.6542 60.0345,272.6952 60.0345,272.6952 L53.9965,272.6952 Z" id="Fill-153" fill="#372221" mask="url(#mask-18)"></path>
                            <path d="M39.781,129.2501 C39.781,131.7931 41.842,133.8541 44.385,133.8541 C46.928,133.8541 48.989,131.7931 48.989,129.2501 L48.989,118.9451 L39.781,118.9451 L39.781,129.2501 Z" id="Fill-154" fill="#F9CEBE" mask="url(#mask-18)"></path>
                            <path d="M33.8403,272.6952 L26.8453,275.6542 C23.1143,276.0402 22.8563,279.0002 22.8563,279.0002 L41.5143,279.0002 C42.0283,275.6542 40.5493,272.6952 40.5493,272.6952 L33.8403,272.6952 Z" id="Fill-155" fill="#372221" mask="url(#mask-18)"></path>
                            <polygon id="Fill-156" fill="#020303" mask="url(#mask-18)" points="58.7578 150.986 59.8738 150.749 58.5268 145.917"></polygon>
                            <path d="M33.258,111.2374 L56.159,111.2374 L56.159,102.8384 C56.159,98.9594 53.014,95.8134 49.134,95.8134 L30.857,94.8564 L33.258,111.2374 Z" id="Fill-157" fill="#F7983A" mask="url(#mask-18)"></path>
                            <path d="M29.7506,112.7379 L58.9486,113.4999 L59.0016,111.4899 C59.1136,107.1769 55.7086,103.5889 51.3956,103.4769 L37.8166,103.1219 C33.5036,103.0099 29.9156,106.4149 29.8026,110.7279 L29.7506,112.7379 Z" id="Fill-158" fill="#F7983A" mask="url(#mask-18)"></path>
                            <polygon id="Fill-159" fill="#FBD3AB" mask="url(#mask-18)" points="42.3347 131.6066 46.5967 131.7176 46.8177 123.2346 42.5557 123.1236"></polygon>
                            <path d="M28.1613,115.762 C28.1173,117.453 29.4023,118.858 31.0313,118.901 C32.6603,118.943 34.0173,117.607 34.0613,115.916 C34.1053,114.225 32.8203,112.82 31.1913,112.777 C29.5623,112.735 28.2053,114.071 28.1613,115.762" id="Fill-160" fill="#EDC6B1" mask="url(#mask-18)"></path>
                            <path d="M57.9031,113.5394 C57.7701,113.5364 57.6391,113.5404 57.5101,113.5514 C57.0711,107.9604 54.4561,103.1994 50.7761,100.6334 C50.7621,100.6224 50.7481,100.6124 50.7341,100.6014 C50.6161,100.5204 50.4971,100.4424 50.3771,100.3654 C48.6891,99.2024 46.7761,98.5074 44.7401,98.4544 C41.4901,98.3694 38.2811,99.9144 35.8391,102.4934 C35.6851,102.6474 35.5391,102.8124 35.3911,102.9734 C35.3471,103.0244 35.2991,103.0714 35.2561,103.1234 C33.0071,105.6354 31.4471,109.0154 31.1791,112.8424 C31.1791,112.8424 31.1741,112.8414 31.1691,112.8414 C29.1861,112.7894 27.5351,114.4164 27.4811,116.4744 C27.4281,118.5324 28.9921,120.2424 30.9741,120.2944 C31.6301,120.3114 32.2491,120.1434 32.7861,119.8394 C37.5861,126.7544 51.7091,127.4994 56.1881,120.5964 C56.6461,120.8364 57.1611,120.9774 57.7091,120.9914 C59.6911,121.0434 61.3421,119.4174 61.3961,117.3594 C61.4501,115.3014 59.8861,113.5914 57.9031,113.5394" id="Fill-161" fill="#EDC6B1" mask="url(#mask-18)"></path>
                            <path d="M49.6541,112.1455 C49.6421,112.6155 50.0131,113.0065 50.4831,113.0185 C50.9531,113.0305 51.3441,112.6595 51.3561,112.1895 C51.3681,111.7195 50.9971,111.3285 50.5271,111.3165 C50.0571,111.3045 49.6661,111.6755 49.6541,112.1455" id="Fill-162" fill="#6C301E" mask="url(#mask-18)"></path>
                            <path d="M37.8166,111.8365 C37.8046,112.3065 38.1756,112.6975 38.6456,112.7095 C39.1156,112.7215 39.5066,112.3505 39.5186,111.8805 C39.5306,111.4105 39.1596,111.0195 38.6896,111.0075 C38.2196,110.9955 37.8286,111.3665 37.8166,111.8365" id="Fill-163" fill="#6C301E" mask="url(#mask-18)"></path>
                            <path d="M30.6303,112.2518 C31.9643,112.2868 33.0013,114.0138 32.9463,116.1088 L32.8533,119.6828 L38.6673,119.8348 L39.3653,117.9428 C39.8653,116.5868 40.7953,115.7548 41.7833,115.7808 L46.7633,115.9108 C47.6923,115.9348 48.5353,116.7148 48.9893,117.9688 L49.7703,120.1248 L55.4683,120.2728 L55.5633,116.6008 C55.6183,114.5058 56.7443,112.8358 58.0773,112.8708 L57.7113,126.9208 C57.6953,127.5268 57.5873,128.0948 57.4133,128.5988 C57.4133,128.6018 57.4143,128.6038 57.4143,128.6058 C57.4413,128.8498 57.4513,129.0988 57.4443,129.3458 C57.3803,131.8168 55.6953,133.9988 53.0543,135.4888 L52.2353,133.3948 L51.3803,136.2918 C49.7743,136.9368 47.9293,137.3608 45.9483,137.4998 C45.3013,137.5448 44.6393,137.5598 43.9673,137.5428 C43.8853,137.5398 43.8043,137.5378 43.7223,137.5338 L43.6263,137.5308 C43.6053,137.5308 43.5863,137.5278 43.5673,137.5278 C42.8263,137.4938 42.1003,137.4228 41.3973,137.3128 C39.1023,136.9608 37.0333,136.2318 35.3513,135.2358 L35.7223,133.3928 L35.8083,132.9658 L35.5653,133.2508 L34.4033,134.6138 C32.3353,133.1228 31.0433,131.1818 30.9433,129.0698 C30.9433,129.0688 30.9433,129.0678 30.9433,129.0658 C30.4993,128.3628 30.2353,127.3828 30.2633,126.3018 L30.6303,112.2518 Z" id="Fill-164" fill="#F7983A" mask="url(#mask-18)"></path>
                            <path d="M41.8729,120.1869 C41.8389,120.9829 42.9829,121.6789 44.4279,121.7399 C45.8729,121.8009 47.0709,121.2039 47.1039,120.4079 C47.1099,120.2699 47.0799,120.1339 47.0199,120.0039 C46.6999,120.6119 45.6599,121.0259 44.4429,120.9749 C43.2479,120.9239 42.2599,120.4399 41.9729,119.8239 C41.9129,119.9379 41.8779,120.0599 41.8729,120.1869" id="Fill-165" fill="#F3F9F6" mask="url(#mask-18)"></path>
                            <polygon id="Fill-166" fill="#F7983A" mask="url(#mask-18)" points="34.7408 94.4204 31.2338 93.1314 34.7408 100.4914 36.8918 95.4654"></polygon>
                        </g>
                    </g>
                </g>
            </g>
        </g>
    </g>
</svg>