<svg xmlns="http://www.w3.org/2000/svg" xmlns:xlink="http://www.w3.org/1999/xlink" width="192" height="55" viewBox="0 0 192 55">
    <defs>
        <path id="a" d="M106.968 34.835c-1.159 1.33-2.947 1.994-5.364 1.994s-4.209-.664-5.378-1.994c-1.17-1.328-1.754-3.895-1.754-7.7 0-3.806.584-6.378 1.754-7.717 1.169-1.337 2.961-2.007 5.378-2.007 2.417 0 4.205.67 5.364 2.007 1.158 1.339 1.738 3.911 1.738 7.717 0 3.805-.58 6.372-1.738 7.7zm-5.379-23.478c-4.664 0-8.246 1.359-10.742 4.077-2.498 2.716-3.746 6.612-3.746 11.686s1.248 8.969 3.746 11.688c2.496 2.716 6.078 4.074 10.742 4.074 4.664 0 8.246-1.358 10.743-4.074 2.497-2.719 3.745-6.614 3.745-11.688 0-5.074-1.248-8.97-3.745-11.686-2.497-2.718-6.079-4.077-10.743-4.077zm82.561 20.376c0 3.098-1.838 4.647-5.514 4.647h-.061c-3.855 0-5.783-1.639-5.783-4.916.02-2.655 2.338-3.984 6.953-3.984 1.218.019 2.687.149 4.405.389v3.864zm3.895-17.094c-2.317-2.227-5.663-3.341-10.038-3.341-3.436 0-6.562.569-9.38 1.707v5.964c2.537-1.037 5.524-1.558 8.96-1.558 4.335 0 6.503 1.928 6.503 5.782-1.917-.278-3.716-.419-5.394-.419-2.337 0-4.365.266-6.083.794-1.719.531-3.018 1.164-3.895 1.904a8.417 8.417 0 0 0-2.084 2.577c-.509.978-.823 1.793-.943 2.442-.119.649-.18 1.283-.18 1.903 0 2.918 1.064 5.394 3.191 7.431 2.127 2.039 5.439 3.057 9.934 3.057 4.375 0 7.615-1.014 9.725-3.041 2.107-2.026 3.161-4.451 3.161-7.268v-8.271c0-4.214-1.159-7.435-3.477-9.663zm-53.377 10.368a27.962 27.962 0 0 0-4.3-1.498c-1.439-.369-2.658-.799-3.656-1.288-.999-.49-1.498-1.163-1.498-2.023 0-1.718 1.758-2.577 5.274-2.577 2.637 0 4.994.489 7.072 1.468v-5.604c-2.537-1.458-5.324-2.187-8.361-2.187-3.236 0-5.938.824-8.106 2.472-2.168 1.648-3.251 4.01-3.251 7.086 0 1.958.505 3.581 1.513 4.871 1.009 1.289 2.227 2.212 3.656 2.771a47.638 47.638 0 0 0 4.285 1.453c1.428.411 2.648.89 3.656 1.439 1.008.55 1.514 1.273 1.514 2.173 0 .979-.32 1.711-.96 2.202-.639.49-2.017.734-4.135.734-3.077 0-5.964-.9-8.66-2.697v6.562c2.956 1.678 6.193 2.518 9.708 2.518 3.437 0 6.199-.848 8.286-2.547 2.088-1.697 3.132-3.836 3.132-6.412 0-2.317-.505-4.227-1.515-5.725-1.007-1.498-2.226-2.56-3.654-3.191zm-58.081 9.162c-.94 1.594-2.578 2.391-4.915 2.391-3.676 0-5.514-1.104-5.514-3.307V17.562c1.378-.339 2.966-.511 4.765-.511 2.297 0 4.051.686 5.259 2.059 1.208 1.372 1.813 3.783 1.813 7.229 0 3.627-.469 6.238-1.408 7.83zm-5.394-22.871c-1.599 0-3.277.159-5.035.478V0h-7.372v32.56c0 2.841 1.054 5.271 3.161 7.291 2.109 2.021 5.35 3.031 9.725 3.031 1.015 0 2.024-.08 3.028-.24 1.004-.161 2.188-.58 3.55-1.26a11.743 11.743 0 0 0 3.506-2.643c.976-1.08 1.819-2.666 2.536-4.758.717-2.091 1.074-4.509 1.074-7.251 0-4.984-1.223-8.803-3.669-11.455-2.448-2.652-5.949-3.977-10.504-3.977zm87.145 13.709a27.936 27.936 0 0 0-4.301-1.498c-1.438-.369-2.656-.799-3.655-1.288-1-.49-1.499-1.163-1.499-2.023 0-1.718 1.758-2.577 5.274-2.577 2.637 0 4.994.489 7.073 1.468v-5.604c-2.537-1.458-5.324-2.187-8.362-2.187-3.236 0-5.938.824-8.105 2.472-2.168 1.648-3.251 4.01-3.251 7.086 0 1.958.504 3.581 1.513 4.871 1.009 1.289 2.227 2.212 3.656 2.771a47.531 47.531 0 0 0 4.285 1.453c1.428.411 2.647.89 3.655 1.439 1.009.55 1.513 1.273 1.513 2.173 0 .979-.319 1.711-.958 2.202-.64.49-2.019.734-4.135.734-3.077 0-5.964-.9-8.66-2.697v6.562c2.956 1.678 6.191 2.518 9.708 2.518 3.436 0 6.199-.848 8.286-2.547 2.087-1.697 3.132-3.836 3.132-6.412 0-2.317-.505-4.227-1.514-5.725-1.009-1.498-2.227-2.56-3.655-3.191zM17.335 35.226c-1.248 1.388-3.06 2.082-5.437 2.082-1.32 0-2.828-.118-4.526-.36v-15.97c0-2.199 1.838-3.297 5.514-3.297 2.338 0 3.975.799 4.914 2.397.939 1.598 1.408 4.195 1.408 7.791 0 3.517-.625 5.968-1.873 7.357zm5.68-19.733a11.822 11.822 0 0 0-3.522-2.637c-1.369-.679-2.557-1.099-3.566-1.258a19.382 19.382 0 0 0-3.041-.241c-4.375 0-7.616 1.015-9.725 3.041C1.054 16.427 0 18.85 0 21.665v32.094h7.372V42.462c1.638.359 3.316.539 5.034.539 4.575 0 8.091-1.338 10.548-4.016 2.457-2.675 3.686-6.511 3.686-11.505 0-2.737-.36-5.149-1.078-7.237-.719-2.089-1.57-3.672-2.547-4.75zm18.874 17.651l-6.862-21.368h-7.821l10.998 29.039c-1.818 4.954-3.787 7.432-5.903 7.432-1.14 0-2.298-.252-3.478-.75v6.143c1.58.558 3.127.84 4.645.84 2.059 0 4.046-.776 5.965-2.323 1.918-1.551 3.695-4.551 5.334-9.006l11.656-31.375h-7.791l-6.743 21.368z"/>
    </defs>
    <g fill="none" fill-rule="evenodd">
        <mask id="b" fill="#fff">
            <use xlink:href="#a"/>
        </mask>
        <g fill="#021F27" mask="url(#b)">
            <path d="M0 0h192v54H0z"/>
        </g>
    </g>
</svg>
