<svg xmlns="http://www.w3.org/2000/svg" xmlns:xlink="http://www.w3.org/1999/xlink" width="64" height="44" viewBox="0 0 64 44">
    <defs>
        <path id="a" d="M16.43 37.945C2.163 29.293 1.6 16.399 1.636 13.844 1.758 7.112 7.3 1.634 13.989 1.634c6.824 0 12.376 5.552 12.376 12.377 0 6.824-5.552 12.376-12.376 12.376-.13 0-.28-.009-.421-.017l-.242-.012a.817.817 0 0 0-.812.729c-.441 3.994 1.968 8.19 3.916 10.858zm3.379 3.56a.819.819 0 0 0 .576-1.397c-.063-.063-6.327-6.393-6.289-12.087C21.773 27.964 28 21.701 28 14.011 28 6.285 21.714 0 13.99 0 6.414 0 .14 6.172.001 13.758c-.044 3.056.693 18.746 19.456 27.669.11.052.228.079.35.079z"/>
        <path id="b" d="M50.43 37.945C36.163 29.293 35.6 16.399 35.636 13.844c.122-6.732 5.664-12.21 12.353-12.21 6.824 0 12.376 5.552 12.376 12.377 0 6.824-5.552 12.376-12.376 12.376-.13 0-.28-.009-.421-.017l-.242-.012a.817.817 0 0 0-.812.729c-.441 3.994 1.968 8.19 3.916 10.858zm3.028 3.482a.819.819 0 0 0 .926-1.318c-.062-.064-6.326-6.394-6.288-12.088C55.773 27.964 62 21.701 62 14.011 62 6.285 55.714 0 47.99 0c-7.575 0-13.85 6.172-13.988 13.758-.044 3.056.693 18.746 19.456 27.669z"/>
    </defs>
    <g fill="none" fill-rule="evenodd">
        <g transform="translate(1 1)">
            <use fill="#087DA1" xlink:href="#a"/>
            <path stroke="#087DA1" d="M14.646 36.187c-1.914-3.126-2.95-6.251-2.629-9.156a1.323 1.323 0 0 1 1.334-1.172l.245.012.033.002.1.005c.11.006.191.009.26.009 6.548 0 11.876-5.329 11.876-11.876 0-6.548-5.328-11.876-11.876-11.876-6.416 0-11.736 5.258-11.853 11.716-.037 2.606.494 5.95 1.995 9.566 2.012 4.847 5.42 9.206 10.515 12.77zm-.038-7.679c.128 2.251 1.23 4.78 3.008 7.387a31.197 31.197 0 0 0 2.133 2.772c.442.513.809.907.988 1.086a1.315 1.315 0 0 1-.928 2.253c-.197 0-.388-.044-.565-.128-8.433-4.01-13.931-9.643-17.02-16.275C.181 21.216-.546 17.056-.498 13.75-.355 5.89 6.142-.5 13.989-.5 21.99-.5 28.5 6.01 28.5 14.01c0 7.791-6.172 14.173-13.892 14.498z"/>
        </g>
        <g transform="translate(1 1)">
            <use fill="#087DA1" xlink:href="#b"/>
            <path stroke="#087DA1" d="M48.646 36.187c-1.914-3.126-2.95-6.251-2.629-9.156a1.323 1.323 0 0 1 1.334-1.172l.245.012.033.002.1.005c.11.006.191.009.26.009 6.548 0 11.876-5.329 11.876-11.876 0-6.548-5.328-11.876-11.876-11.876-6.416 0-11.736 5.258-11.853 11.716-.037 2.606.494 5.95 1.995 9.566 2.012 4.847 5.42 9.206 10.515 12.77zm-.038-7.679c.128 2.251 1.23 4.78 3.008 7.387a31.197 31.197 0 0 0 2.133 2.772c.442.513.809.907.988 1.086a1.315 1.315 0 0 1-.928 2.253c-.197 0-.388-.044-.566-.128-8.432-4.01-13.93-9.643-17.019-16.275-2.043-4.387-2.77-8.547-2.722-11.854C33.645 5.89 40.142-.5 47.989-.5 55.99-.5 62.5 6.01 62.5 14.01c0 7.791-6.172 14.173-13.892 14.498z"/>
        </g>
    </g>
</svg>
