<?xml version="1.0" encoding="UTF-8" standalone="no"?>
<svg width="685px" height="570px" viewBox="0 0 685 570" version="1.1" xmlns="http://www.w3.org/2000/svg" xmlns:xlink="http://www.w3.org/1999/xlink">
    <!-- Generator: Sketch 46.2 (44496) - http://www.bohemiancoding.com/sketch -->
    <title>social</title>
    <desc>Created with Sketch.</desc>
    <defs>
        <polygon id="path-1" points="0.836474699 203.299478 303.804179 203.299478 303.804179 0.743682119 0.836474699 0.743682119"></polygon>
    </defs>
    <g id="Sample-UI" stroke="none" stroke-width="1" fill="none" fill-rule="evenodd">
        <g id="home" transform="translate(-688.000000, -2694.000000)">
            <g id="social" transform="translate(688.000000, 2694.000000)">
                <g id="men" transform="translate(407.000000, 0.000000)">
                    <polygon id="Fill-1" fill="#10A887" points="0.4364 122.5348 0.4364 453.4838 277.9224 529.6048 277.9224 82.2078"></polygon>
                    <polygon id="Fill-108" fill="#BCE5F6" points="153.9249 9.9635 154.4279 10.2505 153.9249 10.5405"></polygon>
                    <path d="M149.6666,65.4862 C148.0886,67.4522 147.7666,70.1202 148.8436,72.3022 C150.2676,75.1902 153.3856,75.6942 153.6616,75.7342 C156.5746,76.1902 158.9056,74.5602 159.1826,72.7402 C159.4246,71.1482 158.0346,69.7962 157.8346,69.6072 C159.1686,62.1562 160.5026,54.7052 161.8366,47.2542 C162.6496,42.7162 161.9756,38.4322 159.9326,37.5512 C159.0086,37.1532 158.0056,37.5732 157.7406,37.6842 C154.6276,38.9892 154.1666,44.1462 153.4216,49.0222 C152.7946,53.1272 151.7046,58.7332 149.6666,65.4862" id="Fill-109" fill="#047FA2"></path>
                    <path d="M130.62,137.9624 C128.585,143.4154 125.998,153.4804 128.257,154.5054 C130.518,155.5314 138.115,147.7094 138.859,138.7834 C139.217,134.4824 138.038,129.2824 136.222,129.0344 C134.063,128.7394 131.535,135.5114 130.62,137.9624" id="Fill-110" fill="#0D1F24"></path>
                    <path d="M132.8957,134.7238 C132.3957,135.9088 130.3897,140.6588 131.4947,141.3758 C132.4187,141.9748 135.6557,139.8448 136.5717,136.8248 C137.3697,134.1948 136.3567,131.0638 135.3467,130.9598 C134.5207,130.8748 133.7017,132.8148 132.8957,134.7238" id="Fill-111" fill="#0D1F24"></path>
                    <path d="M136.4209,138.9342 C134.3859,144.3872 131.7989,154.4522 134.0579,155.4772 C136.3199,156.5032 143.9159,148.6812 144.6599,139.7552 C145.0179,135.4552 143.8389,130.2542 142.0229,130.0062 C139.8639,129.7112 137.3359,136.4832 136.4209,138.9342" id="Fill-112" fill="#0D1F24"></path>
                    <path d="M138.6966,135.6957 C138.1966,136.8797 136.1906,141.6317 137.2966,142.3477 C138.2196,142.9467 141.4566,140.8167 142.3726,137.7967 C143.1706,135.1667 142.1576,132.0357 141.1476,131.9317 C140.3216,131.8467 139.5026,133.7857 138.6966,135.6957" id="Fill-113" fill="#0D1F24"></path>
                    <path d="M139.0361,135.8348 C137.6681,124.0288 136.3001,112.2228 134.9331,100.4168 C144.5831,99.4328 154.2331,98.4498 163.8831,97.4668 C169.6301,95.3728 171.6171,89.8038 170.0981,87.0138 C168.8151,84.6548 164.5451,83.3938 160.2101,85.0358 C155.4551,85.8278 149.3701,86.9408 142.3271,88.4848 C129.8801,91.2138 126.9571,92.5468 125.2141,95.2338 C123.0891,98.5098 123.7741,102.1698 125.2141,109.2708 C127.7021,121.5388 129.7181,131.1148 131.0451,137.3468 C131.6101,137.6288 133.0091,138.2328 134.8251,138.0218 C137.2121,137.7428 138.6601,136.2488 139.0361,135.8348" id="Fill-114" fill="#0C1E24"></path>
                    <path d="M156.4309,92.4719 L179.0199,92.4719 C178.6989,74.2889 178.3749,56.1029 178.0539,37.9189 C177.9409,37.7539 177.4809,37.0999 176.7389,36.2539 C176.1529,35.5869 175.3889,34.7999 174.4809,34.0449 C172.4049,32.3119 169.5739,30.7509 166.3829,31.1489 C165.8319,31.2169 163.5419,31.5569 160.9309,33.9709 C160.4969,34.3689 160.0529,34.8259 159.6089,35.3509 C159.1749,35.8619 158.7799,36.3839 158.4269,36.9219 C154.1339,43.3909 155.1809,52.0339 155.8739,67.3369 C156.1329,73.0219 156.4339,81.6779 156.4309,92.4719 Z" id="Fill-115" fill="#047FA2"></path>
                    <path d="M163.3461,32.6659 C163.5641,34.7259 164.8261,36.3559 166.2641,36.6349 C168.2001,37.0099 170.8441,35.0119 170.9341,31.7319 C171.0901,28.6969 171.2451,25.6619 171.4011,22.6269 C168.8541,22.2749 166.3081,21.9239 163.7611,21.5729 C163.6231,25.2709 163.4841,28.9679 163.3461,32.6659" id="Fill-116" fill="#E8B79E"></path>
                    <path d="M137.211,96.2523 C139.333,93.8393 141.972,93.1683 151.076,91.3243 C152.626,91.0103 154.141,90.7073 155.624,90.4143 L156.378,84.5153 L179.237,87.1463 L179.112,90.8483 C179.787,93.7973 177.663,98.4123 172.554,100.2733 C163.922,101.6803 155.289,103.0883 146.657,104.4953 C145.956,115.2813 145.255,126.0673 144.554,136.8533 C144.279,137.2123 143.232,138.4933 141.355,138.8903 C139.039,139.3793 137.277,138.1393 136.995,137.9333 C135.483,126.5793 134.873,117.1083 134.619,110.0743 C134.376,103.3413 134.477,99.3613 137.211,96.2523" id="Fill-117" fill="#0C1E24"></path>
                    <path d="M155.9052,88.4355 C163.7522,88.5075 171.5982,88.5795 179.4452,88.6515 C179.3372,87.0315 179.2292,85.4125 179.1212,83.7925 C171.4902,83.6845 163.8602,83.5765 156.2292,83.4685 C156.1212,85.1245 156.0132,86.7795 155.9052,88.4355" id="Fill-118" fill="#082334"></path>
                    <polygon id="Fill-119" fill="#FED590" points="175.126 89.299 176.962 89.299 176.962 83.468 175.126 83.468"></polygon>
                    <path d="M171.4917,23.0828 C167.4077,23.3468 163.3247,23.6118 159.2407,23.8758 C156.5867,18.2738 153.9327,12.6728 151.2797,7.0718 C152.8387,5.6378 155.4687,3.5578 159.2017,2.0828 C162.7457,0.6818 167.7267,-1.2942 172.1567,1.1728 C174.9787,2.7448 177.5627,6.0888 177.4207,9.4228 C177.3237,11.7068 176.0077,12.5328 173.7357,17.4108 C172.6307,19.7828 171.9147,21.7938 171.4917,23.0828" id="Fill-120" fill="#5A1E0D"></path>
                    <path d="M168.9472,27.1929 C168.3772,28.9419 166.4782,31.0549 160.5402,32.5259 C158.3532,25.9729 156.1662,19.4199 153.9802,12.8669 C156.2842,12.5999 158.5882,12.3339 160.8932,12.0669 C164.0282,8.4559 165.1652,7.8969 165.5902,8.1529 C166.3052,8.5829 164.8762,11.2279 166.0212,14.3589 C166.4212,15.4499 167.0052,16.2499 167.4352,16.7549 C169.3432,17.0269 170.2482,17.6489 170.5902,18.3969 C171.0352,19.3689 170.4082,20.2909 169.7812,22.5129 C169.0202,25.2059 169.3392,25.9899 168.9472,27.1929" id="Fill-121" fill="#E8B79E"></path>
                    <path d="M171.5161,17.0085 C171.9061,18.8735 170.7841,21.1495 169.4401,21.2475 C168.4021,21.3225 167.4441,20.0845 167.0801,19.1025 C166.3391,17.1065 167.3871,14.3865 168.7691,14.1905 C169.8871,14.0325 171.2061,15.5275 171.5161,17.0085" id="Fill-122" fill="#E8B79E"></path>
                    <path d="M174.2415,66.6545 C173.0745,68.8885 173.2755,71.5695 174.7545,73.5015 C176.7115,76.0585 179.8675,75.9485 180.1465,75.9335 C183.0935,75.8165 185.0635,73.7655 184.9825,71.9275 C184.9115,70.3175 183.2865,69.2615 183.0525,69.1135 C182.9175,61.5455 182.7825,53.9775 182.6475,46.4095 C182.8745,41.0035 180.7805,37.3855 178.8995,37.2595 C177.3055,37.1535 175.4385,39.5275 174.3455,42.6815 C174.3105,50.6725 174.2765,58.6635 174.2415,66.6545" id="Fill-123" fill="#047FA2"></path>
                    <polygon id="Fill-124" fill="#241918" points="170.6343 97.0101 170.6343 98.1021 169.4353 97.5561"></polygon>
                    <polygon id="Fill-125" fill="#939292" points="145.3432 88.6678 151.7012 92.3388 155.9402 89.8918 149.5822 86.2208"></polygon>
                    <polygon id="Fill-126" fill="#241918" points="120.2432 68.1716 119.2382 68.6456 120.1772 68.9546"></polygon>
                    <path d="M161.0886,86.5487 C165.1956,83.7937 168.4476,82.0707 170.7116,80.9897 C172.3206,80.2217 173.4366,79.5117 175.6686,78.0907 C177.9906,76.6127 178.9216,75.8417 179.4946,74.5837 C179.9756,73.5307 180.4336,71.6367 179.5216,70.7127 C178.9386,70.1237 178.0146,70.1477 176.7726,70.1807 C175.4866,70.2147 174.4536,70.5107 173.7846,70.7557 C168.7786,74.7927 163.7716,78.8297 158.7656,82.8657 C159.5396,84.0937 160.3146,85.3207 161.0886,86.5487" id="Fill-127" fill="#E8B79E"></path>
                    <path d="M151.1041,89.0868 C151.4241,89.5708 152.1401,90.5068 153.4081,91.1398 C155.3011,92.0848 157.1011,91.6918 157.6071,91.5628 C159.2571,89.5568 160.9081,87.5518 162.5581,85.5458 C161.6911,84.3248 160.8241,83.1038 159.9571,81.8828 C158.1731,82.8458 156.3891,83.8098 154.6061,84.7728 C153.4391,86.2108 152.2711,87.6488 151.1041,89.0868" id="Fill-128" fill="#E8B79E"></path>
                    <path d="M144.177,89.4509 C146.757,85.2319 148.992,82.3079 150.597,80.3799 C151.738,79.0099 152.455,77.8979 153.889,75.6739 C155.381,73.3609 155.904,72.2719 155.9,70.8899 C155.896,69.7319 155.521,67.8199 154.306,67.3619 C153.531,67.0699 152.701,67.4779 151.586,68.0269 C150.433,68.5949 149.618,69.2949 149.112,69.7979 C146.251,75.5569 143.389,81.3169 140.527,87.0759 C141.744,87.8679 142.96,88.6589 144.177,89.4509" id="Fill-129" fill="#E8B79E"></path>
                    <path d="M151.6293,26.7788 C168.5303,43.6798 168.5303,71.0808 151.6283,87.9828 C134.7263,104.8838 107.3263,104.8838 90.4253,87.9828 C73.5233,71.0808 73.5233,43.6808 90.4243,26.7788 C107.3263,9.8778 134.7273,9.8768 151.6293,26.7788" id="Fill-131" fill="#F7BA18"></path>
                    <path d="M122.1963,21.1072 C107.6893,16.5832 105.2013,32.5662 113.9303,38.0602 C120.7943,42.3712 134.8563,44.1682 134.8563,44.1682 C135.4293,42.9732 140.8913,31.3442 140.9373,23.2382 C140.9943,12.9252 126.1773,6.4382 122.1963,21.1072" id="Fill-132" fill="#ED4043"></path>
                    <path d="M84.7521,58.5513 C80.2301,44.0423 96.2121,41.5543 101.7051,50.2853 C106.0181,57.1473 107.8131,71.2103 107.8131,71.2103 C106.6191,71.7833 94.9901,77.2463 86.8841,77.2903 C76.5711,77.3483 70.0841,62.5303 84.7521,58.5513" id="Fill-133" fill="#ED4043"></path>
                    <path d="M116.0015,74.703 C114.9825,75.215 115.0925,76.765 116.2015,77.428 C122.7425,81.339 131.7005,80.172 137.7595,74.114 C143.8195,68.053 144.9855,59.096 141.0745,52.556 C140.4105,51.446 138.8605,51.337 138.3485,52.356 C136.1035,56.83 132.9355,61.252 128.9165,65.271 C124.8995,69.289 120.4765,72.456 116.0015,74.703" id="Fill-134" fill="#372221"></path>
                    <path d="M132.4448,68.7992 C129.7798,71.4642 129.1108,75.3762 130.4218,78.7042 C133.0748,77.7962 135.6038,76.2692 137.7588,74.1132 C139.9168,71.9552 141.4428,69.4282 142.3498,66.7772 C139.0218,65.4652 135.1118,66.1322 132.4448,68.7992" id="Fill-135" fill="#ED4043"></path>
                </g>
                <g id="couple-team" transform="translate(123.000000, 285.000000)">
                    <g id="Group-142" transform="translate(0.000000, 0.825000)">
                        <path d="M287.247,80.8064 C287.247,86.1834 281.577,92.4954 276.2,92.4954 C270.823,92.4954 266.465,88.1374 266.465,82.7604 L266.465,71.0024 L287.35,71.0024 L287.247,80.8064 Z" id="Fill-35" fill="#E8B79E"></path>
                        <path d="M288.179,70.8644 L288.179,78.4764 C288.179,78.4764 287.851,86.8304 283.19,89.2644 L284.036,82.8774 C284.036,82.8774 286.677,83.2404 286.677,77.8544 C286.677,75.8874 285.893,75.8354 285.279,75.8354 C284.451,75.8354 283.829,77.0784 283.829,77.0784 L282.276,77.0784 L282.276,74.0744 L282.281,74.0534 L282.224,74.0744 C282.224,74.0744 282.328,70.9934 279.143,70.9934 L266.465,70.9934 C266.465,70.9934 264.048,70.8644 264.048,63.4074 L278.962,63.4074 C278.962,63.4074 288.179,62.1644 288.179,70.8644" id="Fill-37" fill="#623F3C"></path>
                        <path d="M18.5988,90.2998 L18.5988,90.2998 C18.8828,89.3058 19.9298,88.7238 20.9238,89.0088 L28.8258,91.2678 C29.8198,91.5518 30.4008,92.5978 30.1168,93.5928 C29.8328,94.5868 28.7858,95.1678 27.7918,94.8838 L19.8898,92.6248 C18.8958,92.3408 18.3148,91.2938 18.5988,90.2998" id="Fill-39" fill="#FEFEFE"></path>
                        <path d="M31.7812,55.4382 L32.3712,55.3872 C33.8712,55.2562 35.2052,56.3762 35.3352,57.8762 L35.3502,58.0452 L35.9302,57.9942 C37.6952,57.8412 39.2652,59.1592 39.4192,60.9242 L39.4862,61.6932 C39.5542,62.4762 39.3202,63.2122 38.8982,63.8122 C38.9912,64.0672 39.0632,64.3332 39.0882,64.6162 L39.1552,65.3842 C39.3082,67.1492 37.9902,68.7192 36.2252,68.8732 L35.5302,68.9332 C33.7652,69.0872 32.1962,67.7692 32.0422,66.0032 L31.9752,65.2352 C31.9072,64.4522 32.1402,63.7162 32.5622,63.1162 C32.4702,62.8602 32.3972,62.5952 32.3732,62.3122 L32.3062,61.5442 C30.8092,61.6712 29.4792,60.5522 29.3482,59.0552 L29.2922,58.4022 C29.1612,56.9022 30.2812,55.5692 31.7812,55.4382" id="Fill-41" fill="#372221"></path>
                        <path d="M35.054,63.4998 C35.054,63.4998 40.757,80.2258 33.512,86.3828 C32.212,87.4868 30.611,88.0878 28.962,88.3788 L29.401,93.4238 L20.058,94.2368 L19.48,87.6038 L18.725,78.9298 L17.504,64.8988 L35.054,63.4998 Z" id="Fill-43" fill="#AE8E75"></path>
                        <path d="M29.7996,91.5611 L29.7816,91.3301 C29.6786,90.0011 28.5066,88.9971 27.1776,89.1011 L21.2026,89.5641 C19.8726,89.6671 18.8696,90.8391 18.9726,92.1691 L18.9906,92.4001 C19.0936,93.7291 20.2656,94.7321 21.5946,94.6291 L27.5706,94.1651 C28.8996,94.0621 29.9026,92.8901 29.7996,91.5611" id="Fill-45" fill="#FEFEFE"></path>
                        <path d="M22.6602,71.103 L33.5422,70.156 C36.5572,69.893 38.8092,67.212 38.5472,64.196 L38.5012,63.672 C38.2392,60.657 35.5572,58.405 32.5422,58.667 L21.6602,59.614 C18.6452,59.877 16.3922,62.559 16.6552,65.574 L16.7012,66.098 C16.9632,69.113 19.6452,71.365 22.6602,71.103" id="Fill-47" fill="#372221"></path>
                        <path d="M30.4992,85.7189 L30.4992,85.7189 C31.5312,85.1269 31.8922,83.7989 31.3012,82.7659 L26.9942,75.2509 C26.4032,74.2179 25.0742,73.8569 24.0422,74.4489 C23.0092,75.0409 22.6492,76.3689 23.2402,77.4019 L27.5462,84.9169 C28.1382,85.9499 29.4672,86.3109 30.4992,85.7189" id="Fill-49" fill="#372221"></path>
                        <path d="M32.8129,86.5178 L33.9129,86.4218 C36.1919,86.2238 37.8939,84.1968 37.6959,81.9178 L37.6609,81.5218 C37.4629,79.2428 35.4359,77.5408 33.1569,77.7398 L32.0569,77.8348 C29.7779,78.0338 28.0759,80.0598 28.2749,82.3388 L28.3089,82.7358 C28.5079,85.0138 30.5339,86.7158 32.8129,86.5178" id="Fill-51" fill="#372221"></path>
                        <path d="M27.4611,60.1756 L27.7371,60.1516 C29.3231,60.0136 30.5081,58.6026 30.3701,57.0166 L30.3401,56.6776 C30.2021,55.0916 28.7911,53.9076 27.2051,54.0456 L26.9291,54.0696 C25.3431,54.2076 24.1581,55.6176 24.2961,57.2046 L24.3261,57.5426 C24.4641,59.1286 25.8751,60.3136 27.4611,60.1756" id="Fill-53" fill="#372221"></path>
                        <path d="M16.6223,67.6437 C15.7853,67.2357 15.1703,66.4197 15.0833,65.4297 L15.0273,64.7767 C14.9273,63.6337 15.5563,62.5907 16.5243,62.0997 L16.4783,61.5737 C16.3483,60.0737 17.4683,58.7407 18.9683,58.6097 L19.5583,58.5587 C19.9273,58.5267 20.2853,58.5717 20.6183,58.6777 C20.6613,57.3147 21.7123,56.1557 23.1033,56.0347 L23.6933,55.9837 C25.1933,55.8527 26.5273,56.9737 26.6573,58.4727 L26.7143,59.1257 C26.8443,60.6257 25.7243,61.9597 24.2243,62.0897 L23.6343,62.1417 C23.2663,62.1737 22.9083,62.1287 22.5743,62.0227 C22.5423,63.0357 21.9573,63.9327 21.0813,64.3767 L21.1123,64.7237 C21.1463,64.7207 21.1783,64.7127 21.2123,64.7097 L21.3973,64.6937 C24.2933,64.4417 26.8683,66.6047 27.1203,69.5007 L27.3303,71.9107 C27.5823,74.8067 25.4193,77.3817 22.5233,77.6337 L22.3393,77.6497 C22.0793,77.6727 21.8233,77.6687 21.5703,77.6547 C21.1213,78.1617 20.4893,78.5107 19.7643,78.5737 L19.1743,78.6247 C17.6753,78.7557 16.3413,77.6357 16.2103,76.1357 L16.1533,75.4827 C16.0913,74.7657 16.3203,74.0907 16.7343,73.5627 C16.7173,73.4857 16.6973,73.4087 16.6833,73.3297 C15.7703,72.9497 15.0863,72.0987 14.9943,71.0497 L14.9373,70.3967 C14.8323,69.1837 15.5513,68.0907 16.6223,67.6437" id="Fill-55" fill="#372221"></path>
                        <path d="M23.8873,99.8736 L23.8873,99.8736 C23.7413,97.4766 25.5843,95.3956 27.9813,95.2496 L47.8713,94.0406 C50.2693,93.8946 52.3493,95.7376 52.4953,98.1346 L52.4953,98.1346 C52.6413,100.5326 50.7983,102.6136 48.4013,102.7586 L28.5113,103.9676 C26.1143,104.1136 24.0333,102.2716 23.8873,99.8736" id="Fill-57" fill="#F58920"></path>
                        <path d="M46.5918,99.6483 L46.5918,99.6483 C45.6808,97.4253 46.7548,94.8623 48.9768,93.9513 L67.4158,86.3973 C69.6388,85.4863 72.2028,86.5603 73.1128,88.7823 C74.0238,91.0053 72.9498,93.5683 70.7278,94.4793 L52.2888,102.0333 C50.0658,102.9443 47.5028,101.8713 46.5918,99.6483" id="Fill-59" fill="#F58920"></path>
                        <path d="M280.7532,99.9528 L280.7532,99.9528 C280.8992,97.5548 279.0562,95.4748 276.6592,95.3288 L256.7692,94.1198 C254.3712,93.9738 252.2912,95.8168 252.1452,98.2138 C251.9992,100.6118 253.8422,102.6928 256.2392,102.8378 L276.1292,104.0468 C278.5272,104.1928 280.6072,102.3498 280.7532,99.9528" id="Fill-61" fill="#404041"></path>
                        <path d="M258.0487,99.7275 L258.0487,99.7275 C258.9597,97.5045 257.8857,94.9415 255.6637,94.0305 L237.2247,86.4765 C235.0017,85.5655 232.4377,86.6385 231.5277,88.8615 C230.6167,91.0845 231.6907,93.6475 233.9127,94.5585 L252.3517,102.1125 C254.5747,103.0235 257.1377,101.9505 258.0487,99.7275" id="Fill-63" fill="#404041"></path>
                        <path d="M232.9553,92.7839 L232.1483,92.8919 C230.0953,93.1659 228.1913,91.7099 227.9173,89.6569 L227.8693,89.2999 C227.5963,87.2469 229.0513,85.3429 231.1043,85.0689 L231.9113,84.9609 C233.9643,84.6869 235.8683,86.1429 236.1423,88.1959 L236.1903,88.5529 C236.4643,90.6059 235.0083,92.5099 232.9553,92.7839" id="Fill-65" fill="#FBBC81"></path>
                        <path d="M232.1781,86.4921 L231.8601,86.5341 C231.2001,86.6221 230.5951,86.1591 230.5071,85.5001 C230.4191,84.8401 230.8821,84.2351 231.5411,84.1471 L231.8591,84.1041 C232.5191,84.0161 233.1251,84.4791 233.2131,85.1391 C233.3011,85.7981 232.8371,86.4041 232.1781,86.4921" id="Fill-67" fill="#FBBC81"></path>
                        <path d="M253.7638,201.5511 C253.7638,201.5511 263.3348,198.3001 268.1818,197.9961 C273.0298,197.6931 275.0928,197.4881 275.2198,199.7741 C275.3468,202.0591 275.2198,202.8211 275.2198,202.8211 C275.2198,202.8211 254.7498,202.9241 253.7638,202.8211 C251.7958,202.6141 250.9808,202.4431 253.7638,201.5511" id="Fill-69" fill="#020303"></path>
                        <path d="M286.0417,90.379 L286.0417,90.379 C285.7577,89.384 284.7107,88.803 283.7167,89.088 L275.8147,91.347 C274.8207,91.631 274.2397,92.677 274.5237,93.672 C274.8077,94.666 275.8547,95.247 276.8487,94.963 L284.7507,92.704 C285.7447,92.42 286.3257,91.373 286.0417,90.379" id="Fill-71" fill="#FEFEFE"></path>
                        <path d="M266.9655,197.9892 L265.1235,162.4482 C265.1235,159.4782 267.5535,157.0482 270.5245,157.0482 L270.7135,157.0482 C273.6835,157.0482 276.1135,159.4782 276.1135,162.4482 L274.2725,197.9892" id="Fill-73" fill="#404041"></path>
                        <path d="M269.7475,201.9837 C269.7475,201.9837 279.3185,198.7327 284.1655,198.4287 C289.0135,198.1257 291.0765,197.9207 291.2035,200.2067 C291.3305,202.4917 291.2035,203.2537 291.2035,203.2537 C291.2035,203.2537 270.7335,203.3567 269.7475,203.2537 C267.7795,203.0467 266.9645,202.8757 269.7475,201.9837" id="Fill-75" fill="#020303"></path>
                        <path d="M282.3689,198.8669 L279.6059,163.7039 C279.6059,160.6299 282.1219,158.1149 285.1959,158.1149 L285.3919,158.1149 C288.4659,158.1149 290.9809,160.6299 290.9809,163.7039 L289.1389,197.9459" id="Fill-77" fill="#404041"></path>
                        <path d="M267.9343,164.7058 L267.5493,164.2978 C265.3363,161.9538 265.4433,158.2238 267.7883,156.0108 L287.7883,137.1288 C290.1323,134.9158 293.8613,135.0228 296.0753,137.3668 L296.4603,137.7748 C298.6743,140.1198 298.5663,143.8488 296.2223,146.0628 L276.2213,164.9438 C273.8773,167.1578 270.1473,167.0508 267.9343,164.7058" id="Fill-79" fill="#404041"></path>
                        <path d="M282.6877,166.9835 L282.2487,166.6845 C279.7257,164.9655 279.0677,161.4955 280.7867,158.9725 L292.1417,142.3055 C293.8607,139.7825 297.3307,139.1245 299.8537,140.8435 L300.2927,141.1425 C302.8157,142.8615 303.4737,146.3325 301.7547,148.8555 L290.3997,165.5215 C288.6817,168.0445 285.2107,168.7025 282.6877,166.9835" id="Fill-81" fill="#404041"></path>
                        <path d="M298.1508,144.5769 L292.6368,146.1529 C288.5138,147.3319 284.1758,144.9229 282.9968,140.7989 L271.9838,102.2749 C270.8058,98.1519 273.2148,93.8139 277.3378,92.6349 L282.8518,91.0589 C286.9748,89.8799 291.3128,92.2889 292.4918,96.4129 L303.5048,134.9369 C304.6838,139.0599 302.2738,143.3979 298.1508,144.5769" id="Fill-83" fill="#404041"></path>
                        <path d="M270.8542,74.035 L266.2382,74.004 L266.2162,77.331 L270.8322,77.362 L270.8542,74.035 Z M265.5702,73.4 L271.5302,73.44 L271.5002,77.966 L265.5402,77.927 L265.5702,73.4 Z" id="Fill-85" fill="#4D4E4E"></path>
                        <polygon id="Fill-87" fill="#4D4E4E" points="271.041 75.9117 285.278 76.0067 285.279 75.8357 271.042 75.7407"></polygon>
                        <mask id="mask-2" fill="white">
                            <use xlink:href="#path-1"></use>
                        </mask>
                        <g id="Clip-90"></g>
                        <path d="M72.43483,50.377 L59.598,50.377 L59.598,122.714 L239.935,122.714 L239.935,50.377 L229.474615,50.377 C221.810765,73.0641428 189.567884,90.0938 150.9552,90.0938 C112.342516,90.0938 80.0988756,73.0641428 72.43483,50.377 Z" id="Combined-Shape" fill="#ED4043" mask="url(#mask-2)"></path>
                        <path d="M234.8609,120.983 L231.4569,121.137 C229.2889,121.236 227.4349,119.542 227.3359,117.374 C227.2379,115.206 228.9309,113.352 231.0999,113.253 L234.5039,113.099 C236.6719,113.001 238.5259,114.694 238.6239,116.862 C238.7229,119.03 237.0289,120.885 234.8609,120.983" id="Fill-91" fill="#E8B79E" mask="url(#mask-2)"></path>
                        <path d="M232.9293,114.5573 L232.6083,114.5723 C231.9443,114.6023 231.3813,114.0873 231.3513,113.4233 C231.3203,112.7583 231.8353,112.1953 232.4993,112.1653 L232.8203,112.1513 C233.4843,112.1203 234.0483,112.6353 234.0783,113.2993 C234.1083,113.9643 233.5943,114.5273 232.9293,114.5573" id="Fill-92" fill="#E8B79E" mask="url(#mask-2)"></path>
                        <path d="M254.9215,117.5781 L254.6805,117.1751 C253.2965,114.8581 254.0595,111.8301 256.3765,110.4461 L281.6275,95.3581 C283.9445,93.9731 286.9725,94.7361 288.3575,97.0531 L288.5985,97.4561 C289.9825,99.7731 289.2195,102.8011 286.9025,104.1851 L261.6505,119.2731 C259.3345,120.6581 256.3055,119.8951 254.9215,117.5781" id="Fill-93" fill="#404041" mask="url(#mask-2)"></path>
                        <path d="M234.933,116.7346 L234.912,116.2656 C234.79,113.5696 236.895,111.2636 239.592,111.1416 L255.337,110.4276 C258.033,110.3056 260.339,112.4116 260.461,115.1076 L260.482,115.5766 C260.605,118.2726 258.499,120.5786 255.803,120.7006 L240.057,121.4146 C237.361,121.5366 235.055,119.4306 234.933,116.7346" id="Fill-94" fill="#404041" mask="url(#mask-2)"></path>
                        <polygon id="Fill-95" fill="#FEFEFE" mask="url(#mask-2)" points="236.6843 120.8812 234.8613 120.9832 233.9343 112.8342 235.7063 112.4262"></polygon>
                        <path d="M50.8767,201.472 C50.8767,201.472 41.3057,198.221 36.4587,197.917 C31.6107,197.614 29.5477,197.409 29.4207,199.695 C29.2937,201.98 29.4207,202.742 29.4207,202.742 C29.4207,202.742 49.8907,202.845 50.8767,202.742 C52.8447,202.535 53.6597,202.364 50.8767,201.472" id="Fill-96" fill="#020303" mask="url(#mask-2)"></path>
                        <path d="M36.4584,197.9172 L39.5164,162.3692 C39.5164,159.3992 37.0864,156.9692 34.1164,156.9692 L33.9274,156.9692 C30.9574,156.9692 28.5264,159.3992 28.5264,162.3692 L30.1894,197.7342" id="Fill-97" fill="#B25426" mask="url(#mask-2)"></path>
                        <path d="M34.893,201.9046 C34.893,201.9046 25.322,198.6536 20.475,198.3496 C15.627,198.0466 13.564,197.8416 13.437,200.1276 C13.31,202.4126 13.437,203.1746 13.437,203.1746 C13.437,203.1746 33.907,203.2776 34.893,203.1746 C36.861,202.9676 37.676,202.7966 34.893,201.9046" id="Fill-98" fill="#020303" mask="url(#mask-2)"></path>
                        <path d="M21.7148,198.5826 L25.0338,163.6246 C25.0338,160.5506 22.5188,158.0356 19.4448,158.0356 L19.2488,158.0356 C16.1748,158.0356 13.6598,160.5506 13.6598,163.6246 L15.0548,198.0256" id="Fill-99" fill="#B25426" mask="url(#mask-2)"></path>
                        <path d="M36.7061,164.6267 L37.0911,164.2187 C39.3051,161.8747 39.1971,158.1447 36.8531,155.9317 L16.8521,137.0497 C14.5081,134.8357 10.7781,134.9437 8.5651,137.2877 L8.1801,137.6957 C5.9671,140.0407 6.0741,143.7697 8.4191,145.9837 L28.4191,164.8647 C30.7631,167.0787 34.4921,166.9717 36.7061,164.6267" id="Fill-100" fill="#B25426" mask="url(#mask-2)"></path>
                        <path d="M21.9529,166.9043 L22.3919,166.6053 C24.9149,164.8863 25.5719,161.4163 23.8539,158.8933 L12.4989,142.2263 C10.7799,139.7033 7.3089,139.0453 4.7869,140.7643 L4.3479,141.0633 C1.8249,142.7823 1.1669,146.2523 2.8859,148.7753 L14.2399,165.4423 C15.9589,167.9653 19.4299,168.6233 21.9529,166.9043" id="Fill-101" fill="#B25426" mask="url(#mask-2)"></path>
                        <path d="M6.4895,144.4977 L12.0035,146.0737 C16.1265,147.2527 20.4645,144.8437 21.6435,140.7207 L32.6565,102.1957 C33.8355,98.0727 31.4255,93.7347 27.3025,92.5557 L21.7885,90.9797 C17.6655,89.8007 13.3275,92.2097 12.1485,96.3337 L1.1355,134.8577 C-0.0425,138.9807 2.3665,143.3187 6.4895,144.4977" id="Fill-102" fill="#F58920" mask="url(#mask-2)"></path>
                        <path d="M69.7796,120.9039 L73.1836,121.0579 C75.3516,121.1569 77.2056,119.4629 77.3046,117.2949 C77.4026,115.1269 75.7096,113.2719 73.5406,113.1739 L70.1366,113.0199 C67.9686,112.9219 66.1146,114.6149 66.0166,116.7829 L66.0166,116.7829 C65.9176,118.9509 67.6116,120.8059 69.7796,120.9039" id="Fill-103" fill="#AE8E75" mask="url(#mask-2)"></path>
                        <path d="M71.7112,114.4782 L72.0322,114.4932 C72.6962,114.5232 73.2592,114.0082 73.2892,113.3442 C73.3202,112.6792 72.8052,112.1162 72.1412,112.0862 L71.8202,112.0722 C71.1562,112.0412 70.5922,112.5562 70.5622,113.2202 C70.5322,113.8852 71.0462,114.4482 71.7112,114.4782" id="Fill-104" fill="#AE8E75" mask="url(#mask-2)"></path>
                        <path d="M49.7191,117.4988 L49.9601,117.0958 C51.3441,114.7788 50.5811,111.7508 48.2641,110.3668 L23.0131,95.2788 C20.6961,93.8938 17.6671,94.6568 16.2831,96.9738 L16.0421,97.3768 C14.6581,99.6938 15.4211,102.7218 17.7381,104.1068 L42.9901,119.1948 C45.3071,120.5788 48.3351,119.8158 49.7191,117.4988" id="Fill-105" fill="#F58920" mask="url(#mask-2)"></path>
                        <path d="M69.7075,116.6555 L69.7285,116.1865 C69.8505,113.4905 67.7455,111.1845 65.0485,111.0625 L49.3035,110.3485 C46.6075,110.2265 44.3015,112.3325 44.1795,115.0285 L44.1585,115.4975 C44.0355,118.1935 46.1415,120.4995 48.8375,120.6215 L64.5835,121.3355 C67.2795,121.4575 69.5855,119.3515 69.7075,116.6555" id="Fill-106" fill="#F58920" mask="url(#mask-2)"></path>
                        <polygon id="Fill-107" fill="#FEFEFE" mask="url(#mask-2)" points="67.9563 120.8021 69.7793 120.9041 70.7063 112.7551 68.9333 112.3471"></polygon>
                        <path d="M163.8597,85.4949 C140.9597,78.6419 127.9527,54.5259 134.8057,31.6269 C141.6577,8.7279 165.7747,-4.2811 188.6747,2.5719 C211.5737,9.4239 224.5807,33.5419 217.7277,56.4419 C210.8747,79.3409 186.7587,92.3469 163.8597,85.4949 Z" id="Fill-136" fill="#F7BA18" mask="url(#mask-2)"></path>
                        <path d="M159.0867,48.6201 C157.8877,48.0371 156.5797,49.2541 157.1267,50.4711 C159.5307,55.8261 164.4157,60.2701 170.8347,62.1911 C177.2497,64.1101 183.7757,63.0821 188.7237,59.9261 C189.8487,59.2101 189.4287,57.4761 188.1057,57.3041 C183.5387,56.6971 178.4917,55.6151 173.2697,54.0531 C168.0467,52.4901 163.2327,50.6201 159.0867,48.6201" id="Fill-137" fill="#372221" mask="url(#mask-2)"></path>
                        <path d="M193.4071,42.3291 C193.1701,42.0811 192.7461,42.2471 192.7141,42.5861 C192.4631,45.2221 194.3541,47.8501 197.3201,48.7371 C200.2871,49.6251 203.3101,48.4681 204.5481,46.1271 C204.7091,45.8271 204.4481,45.4561 204.1131,45.5331 C202.3311,45.9341 200.3371,45.8881 198.3511,45.2931 C196.3661,44.6991 194.6761,43.6431 193.4071,42.3291" id="Fill-138" fill="#372221" mask="url(#mask-2)"></path>
                        <path d="M152.1765,29.9908 C151.9395,29.7428 151.5165,29.9088 151.4825,30.2478 C151.2335,32.8838 153.1245,35.5118 156.0915,36.3998 C159.0575,37.2868 162.0795,36.1298 163.3205,33.7898 C163.4785,33.4888 163.2165,33.1178 162.8805,33.1938 C161.0985,33.5948 159.1065,33.5498 157.1225,32.9558 C155.1375,32.3618 153.4465,31.3048 152.1765,29.9908" id="Fill-139" fill="#372221" mask="url(#mask-2)"></path>
                        <path d="M206.386,62.0467 C205.33,65.5767 201.611,67.5797 198.082,66.5237 C194.55,65.4667 192.545,61.7507 193.601,58.2207 C194.658,54.6897 198.376,52.6827 201.908,53.7397 C205.437,54.7957 207.443,58.5157 206.386,62.0467" id="Fill-140" fill="#E35825" mask="url(#mask-2)"></path>
                        <path d="M153.9913,46.3676 C152.9353,49.8976 149.2173,51.9006 145.6863,50.8446 C142.1553,49.7876 140.1513,46.0716 141.2073,42.5416 C142.2643,39.0116 145.9813,37.0036 149.5123,38.0596 C153.0433,39.1166 155.0483,42.8366 153.9913,46.3676" id="Fill-141" fill="#E35825" mask="url(#mask-2)"></path>
                    </g>
                </g>
                <g id="men-blue" transform="translate(0.000000, 397.000000)">
                    <path d="M46.6521,64.8348 C45.6801,65.3768 42.8881,66.7718 40.4871,65.6678 C38.1571,64.5958 37.4051,61.7238 36.8881,58.8948 C35.0341,48.7438 35.0461,32.7438 39.0121,32.1138 C40.3701,31.8988 41.7231,33.5968 42.4481,34.5058 C45.1741,37.9258 44.8021,42.3558 44.6921,44.1638 C44.4111,48.7718 44.6571,55.3508 46.6521,64.8348 Z" id="Fill-2" fill="#057B9E"></path>
                    <path d="M59.0201,43.8485 C58.3231,45.7675 52.6641,61.1175 47.0611,64.6555 C46.3231,65.1205 44.7951,66.0855 43.0161,65.7295 C40.6011,65.2465 39.3561,62.6585 39.0621,62.0045 C43.9451,54.7295 48.8271,47.4545 53.7101,40.1795 C53.9471,40.0895 55.4391,39.5525 56.9461,40.3505 C58.2061,41.0175 58.9981,42.3645 59.0201,43.8485" id="Fill-4" fill="#057B9E"></path>
                    <path d="M63.6781,34.5975 C64.2151,35.7525 63.5511,37.0875 62.5091,39.1855 C62.0331,40.1435 61.2461,41.5155 59.9801,42.9985 C59.6911,43.1705 58.1651,44.0385 56.3331,43.5195 C54.6721,43.0485 53.4011,41.6215 53.0281,39.8335 C52.8131,39.4085 52.5461,38.7545 52.4691,37.9275 C52.3891,37.0755 52.5491,36.4555 52.8761,35.3355 C54.0641,31.2545 54.4101,31.0045 54.7051,30.9635 C55.2751,30.8845 55.7651,31.5655 55.8241,31.6495 C56.2901,32.3145 56.2471,33.2975 55.6971,34.1535 C56.2431,33.6775 57.0421,32.9485 57.9461,31.9925 C59.5051,30.3455 60.0431,29.4355 60.8561,29.5265 C61.4471,29.5935 62.0121,30.1695 62.0891,30.7215 C62.1731,31.3175 61.6381,31.5205 61.6061,32.1065 C61.5511,33.1225 63.1091,33.3735 63.6781,34.5975" id="Fill-6" fill="#E8B79E"></path>
                    <path d="M55.2278,156.3497 C53.9098,158.6997 48.6148,158.5327 44.9848,156.9347 C43.3168,156.2007 42.1308,155.2217 41.3998,154.5207 C39.6198,153.8377 37.8388,153.1547 36.0588,152.4717 C35.9248,151.9017 35.8138,151.2387 35.7658,150.4967 C35.6758,149.0857 35.8498,147.8817 36.0588,146.9847 C38.1558,146.9357 40.2538,146.8867 42.3508,146.8387 C43.5628,148.0077 45.0648,149.2777 46.8868,150.4967 C50.0848,152.6347 53.1488,153.8647 55.5208,154.5937 C55.6138,155.4347 55.4308,155.9877 55.2278,156.3497" id="Fill-8" fill="#372221"></path>
                    <path d="M17.8406,170.9094 C17.4586,171.7294 16.6616,172.1234 16.0116,172.4454 C13.6456,173.6174 11.2136,172.5884 10.8896,172.4454 C8.5176,171.3984 7.5656,169.1614 6.9396,167.6904 C6.1316,165.7934 5.9916,164.0754 5.9876,163.0074 C5.8176,160.9834 5.6466,158.9594 5.4756,156.9354 C8.1586,156.7394 10.8416,156.5444 13.5236,156.3494 C13.6736,159.7494 14.4986,162.2454 15.2796,163.9584 C16.7026,167.0784 18.6756,169.1184 17.8406,170.9094" id="Fill-10" fill="#372221"></path>
                    <path d="M13.963,157.813 C13.077,159.602 11.194,160.653 9.28,160.447 C7.594,160.265 6.13,159.134 5.476,157.52 C5.421,149.606 6.085,140.607 8.11,130.888 C8.638,128.351 9.229,125.912 9.866,123.572 C12.109,111.768 14.353,99.964 16.597,88.16 L34.156,88.16 C29.429,98.597 24.644,111.035 20.694,125.328 C17.437,137.112 15.328,148.057 13.963,157.813" id="Fill-12" fill="#004E6F"></path>
                    <path d="M43.5215,147.5699 C43.0355,148.0459 42.1635,148.7649 40.8875,149.1799 C38.3595,150.0009 36.1645,149.0069 35.6195,148.7409 C35.3595,144.6979 35.1695,141.2679 35.0345,138.6439 C34.7555,133.2239 34.5815,128.7659 34.4495,125.3279 C34.3865,123.6949 34.3365,122.3329 34.3025,121.3769 C32.8395,110.3539 31.3765,99.3299 29.9125,88.3069 C33.9615,87.2339 38.0095,86.1609 42.0585,85.0869 C42.5455,105.9149 43.0335,126.7419 43.5215,147.5699" id="Fill-14" fill="#004E6F"></path>
                    <path d="M42.2045,95.6231 C39.3145,96.4921 35.5415,97.3201 31.0835,97.5251 C24.6245,97.8231 19.3015,96.6961 15.7185,95.6231 C15.8785,93.8121 16.0565,91.9751 16.2555,90.1111 C16.4245,88.5291 16.6035,86.9681 16.7925,85.4291 C20.8135,86.0301 25.6395,86.4361 31.0835,86.2581 C35.1425,86.1251 38.8095,85.6911 42.0095,85.1361 C42.0745,88.6321 42.1395,92.1271 42.2045,95.6231" id="Fill-16" fill="#004E6F"></path>
                    <path d="M43.106,85.2337 C39.626,85.9327 34.272,86.5107 29.328,86.5507 C24.478,86.5897 19.19,86.1007 15.744,85.4777 C15.809,83.7867 15.874,82.0957 15.939,80.4047 C19.45,80.8897 24.639,81.2207 29.279,81.1367 C34.017,81.0497 39.27,80.5487 42.813,79.9167 C42.911,81.6897 43.008,83.4617 43.106,85.2337" id="Fill-18" fill="#047FA2"></path>
                    <path d="M42.3508,80.161 C38.8528,80.945 34.4608,81.626 29.3758,81.722 C24.0508,81.823 19.4478,81.254 15.8168,80.551 C15.1338,66.081 14.4508,51.611 13.7678,37.14 C15.3388,35.739 23.4258,28.806 33.7658,30.409 C36.6058,30.849 38.9648,31.833 40.7898,32.848 C41.3098,48.619 41.8308,64.39 42.3508,80.161" id="Fill-20" fill="#057B9E"></path>
                    <path d="M6.597,70.9805 C5.436,70.5455 3.713,69.6825 2.578,67.9465 C0.767,65.1745 1.464,61.7235 2.491,58.3855 C5.662,48.0745 13.294,34.4905 16.994,35.7725 C18.292,36.2225 18.685,38.3585 18.895,39.5025 C19.697,43.8615 17.2,47.6755 16.319,49.0765 C13.654,53.3165 10.433,59.9075 6.597,70.9805" id="Fill-22" fill="#057B9E"></path>
                    <path d="M33.8454,30.7444 C34.3684,33.8254 33.6364,36.5254 32.2544,37.0914 C30.6494,37.7484 27.4334,35.8304 25.8154,31.5304 C25.8644,29.2874 25.9134,27.0434 25.9624,24.7994 C29.1324,25.3854 32.3024,25.9704 35.4734,26.5554 C34.9244,27.8364 34.3754,29.1164 33.8274,30.3964 C33.8334,30.5124 33.8394,30.6284 33.8454,30.7444" id="Fill-24" fill="#E8B79E"></path>
                    <path d="M40.8875,18.215 C36.0585,20.703 31.2295,23.19 26.4005,25.678 C24.8755,24.642 22.5175,22.706 20.8405,19.532 C20.2555,18.425 19.2755,16.522 19.0845,13.825 C18.8735,10.842 19.7375,8.522 20.2555,7.387 C20.2555,7.387 21.5655,4.515 23.8155,2.704 C27.6765,-0.403 34.9375,0.073 41.5705,4.265 C42.0615,5.629 42.5915,7.605 42.6435,10.021 C42.7245,13.752 41.6245,16.648 40.8875,18.215" id="Fill-26" fill="#453116"></path>
                    <path d="M38.5462,29.3359 C37.6292,29.6189 36.7902,29.7409 36.0582,29.7749 C30.7692,30.0209 26.9142,25.8829 25.9622,24.7999 C26.0842,23.4739 25.7062,22.7259 25.3762,22.3119 C25.3602,22.2909 25.3422,22.2699 25.3252,22.2499 C24.8842,22.2729 23.8562,22.2629 23.0352,21.5809 C21.4602,20.2719 21.5482,17.2399 22.7422,16.6049 C23.6272,16.1359 24.9822,17.0529 25.3762,17.3369 C26.4012,15.9219 27.4252,14.5079 28.4492,13.0929 C30.9422,13.7769 34.2622,14.3279 38.1072,13.9709 C39.1502,13.8749 40.1282,13.7209 41.0342,13.5329 C41.0592,16.4769 40.8272,20.0099 40.0092,23.9219 C39.5962,25.8999 39.0882,27.7089 38.5462,29.3359" id="Fill-28" fill="#E8B79E"></path>
                    <g id="Group-32" transform="translate(0.000000, 60.000000)" fill="#057B9E">
                        <path d="M3.1828,28.1348 C2.6288,26.1698 -1.7262,10.3998 0.7618,4.2578 C1.0888,3.4498 1.7678,1.7748 3.4208,1.0268 C5.6648,0.0098 8.1848,1.3868 8.8048,1.7458 C9.0818,10.5028 9.3588,19.2608 9.6358,28.0178 C9.4958,28.2288 8.5968,29.5358 6.9078,29.7668 C5.4958,29.9598 4.0658,29.3278 3.1828,28.1348" id="Fill-30"></path>
                    </g>
                    <path d="M4.7948,98.366 C3.6848,97.741 3.4448,96.269 3.0688,93.958 C2.8968,92.902 2.7358,91.328 2.8988,89.385 C3.0338,89.077 3.7668,87.482 5.5578,86.835 C7.1808,86.248 9.0468,86.667 10.3918,87.901 C10.8138,88.121 11.4128,88.497 11.9578,89.123 C12.5198,89.769 12.7508,90.366 13.1398,91.466 C14.5538,95.475 14.4188,95.879 14.2028,96.085 C13.7868,96.481 12.9908,96.214 12.8938,96.18 C12.1268,95.911 11.5888,95.087 11.5368,94.072 C11.3718,94.777 11.1478,95.835 10.9698,97.139 C10.6648,99.386 10.7578,100.439 10.0438,100.839 C9.5258,101.13 8.7308,100.991 8.3458,100.588 C7.9308,100.153 8.2468,99.676 7.9298,99.181 C7.3828,98.324 5.9708,99.029 4.7948,98.366" id="Fill-33" fill="#E8B79E"></path>
                </g>
            </g>
        </g>
    </g>
</svg>