<svg xmlns="http://www.w3.org/2000/svg" width="278" height="530" viewBox="0 0 278 530">
    <g fill="none" fill-rule="evenodd">
        <path fill="#10A987" d="M.436 122.535v330.949l277.486 76.12V82.209z"/>
        <path fill="#BCE6F6" d="M153.925 9.963l.503.288-.503.29z"/>
        <path fill="#037FA2" d="M149.667 65.486c-1.578 1.966-1.9 4.634-.823 6.816 1.424 2.888 4.542 3.392 4.818 3.432 2.913.456 5.244-1.174 5.52-2.994.243-1.592-1.147-2.944-1.347-3.133l4.002-22.353c.813-4.538.139-8.822-1.904-9.703-.924-.398-1.927.022-2.192.133-3.113 1.305-3.574 6.462-4.32 11.338-.626 4.105-1.716 9.711-3.754 16.464"/>
        <path fill="#0D1E24" d="M130.62 137.962c-2.035 5.453-4.622 15.518-2.363 16.543 2.261 1.026 9.858-6.796 10.602-15.722.358-4.3-.821-9.5-2.637-9.749-2.159-.295-4.687 6.477-5.602 8.928"/>
        <path fill="#0D1E24" d="M132.896 134.724c-.5 1.185-2.506 5.935-1.401 6.652.924.599 4.16-1.531 5.077-4.551.798-2.63-.215-5.761-1.225-5.865-.826-.085-1.645 1.855-2.451 3.764M136.42 138.934c-2.034 5.453-4.621 15.518-2.362 16.543 2.262 1.026 9.858-6.796 10.602-15.722.358-4.3-.821-9.5-2.637-9.749-2.16-.295-4.687 6.477-5.602 8.928"/>
        <path fill="#0D1E24" d="M138.697 135.696c-.5 1.184-2.506 5.936-1.4 6.652.923.599 4.16-1.531 5.076-4.551.798-2.63-.215-5.761-1.225-5.865-.826-.085-1.645 1.854-2.451 3.764"/>
        <path fill="#0C1E24" d="M139.036 135.835l-4.103-35.418 28.95-2.95c5.747-2.094 7.734-7.663 6.215-10.453-1.283-2.36-5.553-3.62-9.888-1.978a358.94 358.94 0 0 0-17.883 3.449c-12.447 2.729-15.37 4.062-17.113 6.749-2.125 3.276-1.44 6.936 0 14.037a2945.15 2945.15 0 0 0 5.831 28.076 6.766 6.766 0 0 0 3.78.675c2.387-.28 3.835-1.773 4.211-2.187"/>
        <path fill="#037FA2" d="M156.43 92.472h22.59l-.966-54.553a18.753 18.753 0 0 0-1.315-1.665 20.43 20.43 0 0 0-2.258-2.21c-2.076-1.732-4.907-3.293-8.098-2.895-.551.068-2.841.408-5.452 2.822a15.09 15.09 0 0 0-1.322 1.38 15.928 15.928 0 0 0-1.182 1.57c-4.293 6.47-3.246 15.113-2.553 30.416.259 5.685.56 14.34.557 25.135z"/>
        <path fill="#E8B79E" d="M163.346 32.666c.218 2.06 1.48 3.69 2.918 3.969 1.936.375 4.58-1.623 4.67-4.903l.467-9.105-7.64-1.054-.415 11.093"/>
        <path fill="#0C1E24" d="M137.211 96.252c2.122-2.413 4.761-3.084 13.865-4.928 1.55-.314 3.065-.617 4.548-.91l.754-5.899 22.859 2.631-.125 3.702c.675 2.95-1.449 7.564-6.558 9.425l-25.897 4.222-2.103 32.358c-.275.36-1.322 1.64-3.199 2.037-2.316.49-4.078-.75-4.36-.957-1.512-11.354-2.122-20.825-2.376-27.859-.243-6.733-.142-10.713 2.592-13.822"/>
        <path fill="#082334" d="M155.905 88.436l23.54.215-.324-4.858-22.892-.325-.324 4.968"/>
        <path fill="#FFD590" d="M175.126 89.299h1.836v-5.831h-1.836z"/>
        <path fill="#591D0D" d="M171.492 23.083l-12.251.793-7.961-16.804a25.64 25.64 0 0 1 7.922-4.99c3.544-1.4 8.525-3.376 12.955-.91 2.822 1.573 5.406 4.917 5.264 8.25-.097 2.285-1.413 3.11-3.685 7.989a51.395 51.395 0 0 0-2.244 5.672"/>
        <path fill="#E8B79E" d="M168.947 27.193c-.57 1.749-2.469 3.862-8.407 5.333l-6.56-19.66c2.304-.266 4.608-.532 6.913-.8 3.135-3.61 4.272-4.17 4.697-3.913.715.43-.714 3.075.431 6.206a7.895 7.895 0 0 0 1.414 2.396c1.908.272 2.813.894 3.155 1.642.445.972-.182 1.894-.809 4.116-.76 2.693-.442 3.477-.834 4.68"/>
        <path fill="#E8B79E" d="M171.516 17.009c.39 1.864-.732 4.14-2.076 4.238-1.038.076-1.996-1.163-2.36-2.145-.74-1.995.307-4.716 1.69-4.912 1.117-.157 2.436 1.338 2.746 2.819"/>
        <path fill="#037FA2" d="M174.242 66.654c-1.167 2.234-.966 4.916.513 6.847 1.957 2.557 5.113 2.447 5.392 2.432 2.947-.117 4.917-2.168 4.835-4.006-.07-1.61-1.696-2.666-1.93-2.814l-.404-22.703c.227-5.406-1.868-9.024-3.749-9.15-1.594-.106-3.46 2.268-4.554 5.422l-.103 23.972"/>
        <path fill="#231818" d="M170.634 97.01v1.092l-1.199-.546z"/>
        <path fill="#939292" d="M145.343 88.668l6.358 3.67 4.24-2.446-6.359-3.671z"/>
        <path fill="#231818" d="M120.243 68.172l-1.005.474.94.309z"/>
        <path fill="#E8B79E" d="M161.089 86.549c4.107-2.755 7.359-4.478 9.623-5.56 1.609-.767 2.725-1.477 4.957-2.898 2.322-1.478 3.253-2.25 3.826-3.507.48-1.053.939-2.947.027-3.871-.583-.59-1.507-.565-2.75-.532a9.41 9.41 0 0 0-2.987.575l-15.02 12.11 2.324 3.683"/>
        <path fill="#E8B79E" d="M151.104 89.087a5.981 5.981 0 0 0 2.304 2.053c1.893.945 3.693.552 4.2.423l4.95-6.017-2.6-3.663-5.352 2.89-3.502 4.314M144.177 89.45c2.58-4.218 4.815-7.142 6.42-9.07 1.141-1.37 1.858-2.482 3.292-4.706 1.492-2.313 2.015-3.402 2.011-4.784-.004-1.158-.379-3.07-1.594-3.528-.775-.292-1.605.116-2.72.665a9.41 9.41 0 0 0-2.474 1.77l-8.585 17.279 3.65 2.375"/>
        <path fill="#F8BA17" d="M151.63 26.779c16.9 16.9 16.9 44.302-.002 61.204-16.902 16.9-44.302 16.9-61.203 0-16.902-16.902-16.902-44.302 0-61.204 16.901-16.901 44.302-16.902 61.204 0"/>
        <path fill="#EE4043" d="M122.196 21.107c-14.507-4.524-16.995 11.46-8.266 16.953 6.864 4.311 20.926 6.108 20.926 6.108.573-1.195 6.035-12.824 6.081-20.93.057-10.313-14.76-16.8-18.74-2.13M84.752 58.551c-4.522-14.509 11.46-16.997 16.953-8.266 4.313 6.862 6.108 20.925 6.108 20.925-1.194.573-12.823 6.036-20.929 6.08-10.313.058-16.8-14.76-2.132-18.739"/>
        <path fill="#362221" d="M116.001 74.703c-1.019.512-.909 2.062.2 2.725 6.542 3.911 15.5 2.744 21.559-3.314 6.06-6.061 7.226-15.018 3.315-21.558-.664-1.11-2.214-1.219-2.726-.2-2.245 4.474-5.413 8.896-9.432 12.915-4.017 4.018-8.44 7.185-12.916 9.432"/>
        <path fill="#EE4043" d="M132.445 68.8c-2.665 2.664-3.334 6.576-2.023 9.904a19.126 19.126 0 0 0 7.337-4.59 19.124 19.124 0 0 0 4.59-7.337c-3.327-1.312-7.237-.645-9.904 2.022"/>
    </g>
</svg>
