<?xml version="1.0" encoding="UTF-8" standalone="no"?>
<svg width="1259px" height="855px" viewBox="0 0 1259 855" version="1.1" xmlns="http://www.w3.org/2000/svg" xmlns:xlink="http://www.w3.org/1999/xlink">
    <!-- Generator: Sketch 3.6.1 (26313) - http://www.bohemiancoding.com/sketch -->
    <title>arrow</title>
    <desc>Created with Sketch.</desc>
    <defs></defs>
    <g id="Page-1" stroke="none" stroke-width="1" fill="none" fill-rule="evenodd" opacity="0.049999997">
        <g id="arrow">
            <path d="M1157.08254,564.669199 C1164.10929,557.303406 1170.61624,550.165321 1176.63618,543.210843 L1157.73417,526.848873 C1151.98667,533.488619 1145.75016,540.330031 1138.99346,547.412752 L1157.08254,564.669199 L1157.08254,564.669199 Z M1195.06269,520.488523 C1201.33388,512.160212 1206.89772,504.027317 1211.78199,496.030336 L1190.44664,482.999489 C1185.99875,490.282004 1180.89033,497.749176 1175.09145,505.450247 L1195.06269,520.488523 L1195.06269,520.488523 Z M1225.78308,469.331772 C1230.03556,459.557964 1233.26378,449.870041 1235.4752,440.191506 L1211.10329,434.622845 C1209.24497,442.756 1206.50655,450.974036 1202.8589,459.357704 L1225.78308,469.331772 L1225.78308,469.331772 Z M1239.0826,409.276675 C1239.13628,399.075693 1238.07403,388.813004 1235.89546,378.417831 L1211.42703,383.545796 C1213.2473,392.231335 1214.12722,400.732398 1214.08295,409.145125 L1239.0826,409.276675 L1239.0826,409.276675 Z M1227.01983,349.258021 C1223.52219,340.420429 1219.254,331.415891 1214.19763,322.183609 L1192.27082,334.192562 C1196.84364,342.54195 1200.66947,350.613237 1203.77415,358.457922 L1227.01983,349.258021 L1227.01983,349.258021 Z M1199.92972,297.744432 C1195.79571,289.991449 1192.39613,281.941736 1189.74301,273.657691 L1165.93426,281.282891 C1169.04422,290.993355 1173.02868,300.42798 1177.86981,309.507115 L1199.92972,297.744432 L1199.92972,297.744432 Z M1184.03174,248.11974 C1182.89639,239.482766 1182.52023,230.72107 1182.90148,221.918289 L1157.92489,220.836546 C1157.48116,231.082113 1157.91965,241.295898 1159.24498,251.378039 L1184.03174,248.11974 L1184.03174,248.11974 Z M1186.24,195.83046 C1188.0616,187.280499 1190.58813,178.81805 1193.79678,170.526497 L1170.48165,161.50405 C1166.79529,171.030071 1163.88816,180.76729 1161.78879,190.621037 L1186.24,195.83046 L1186.24,195.83046 Z M1205.26199,146.567097 C1209.64893,138.946028 1214.63358,131.597032 1220.18119,124.584239 L1200.57435,109.073859 C1194.26766,117.046223 1188.59432,125.410565 1183.59527,134.094995 L1205.26199,146.567097 L1205.26199,146.567097 Z M1238.10105,104.975165 C1244.49545,98.8958779 1251.36218,93.2077066 1258.66771,87.9516519 L1244.06728,67.6581208 C1235.83893,73.5781075 1228.09504,79.9928959 1220.87545,86.8566988 L1238.10105,104.975165 L1238.10105,104.975165 Z" id="Stroke-75" fill="#562B02"></path>
            <path d="M168.714998,854.756041 C176.760236,848.235217 184.08847,840.884646 190.611634,832.827374 L171.181233,817.096529 C165.749064,823.806226 159.655438,829.918426 152.97336,835.334382 L168.714998,854.756041 L168.714998,854.756041 Z M207.555693,806.879817 C212.290101,797.726594 216.106628,788.106628 218.942455,778.196238 L194.907104,771.318598 C192.526278,779.638892 189.322201,787.715115 185.350235,795.394277 L207.555693,806.879817 L207.555693,806.879817 Z M224.443072,747.768767 C225.256287,737.400628 225.003877,727.018186 223.674998,716.805055 L198.883971,720.030733 C199.987998,728.515759 200.198205,737.162229 199.519618,745.813921 L224.443072,747.768767 L224.443072,747.768767 Z M216.365223,686.619579 C213.047387,677.455914 208.783522,668.670399 203.600607,660.376 C203.328336,659.940275 203.058502,659.500022 202.791131,659.055277 L181.364953,671.936227 C181.706086,672.503669 182.050908,673.066271 182.399404,673.623981 C186.644191,680.417061 190.137106,687.614065 192.858542,695.130509 L216.365223,686.619579 L216.365223,686.619579 Z M192.380273,635.740376 C189.796302,627.792125 187.795977,619.183042 186.420528,610.074978 L161.70081,613.808011 C163.276476,624.241894 165.586975,634.185917 168.605117,643.469666 L192.380273,635.740376 L192.380273,635.740376 Z M184.23535,583.362691 C184.082744,574.535325 184.459439,565.514135 185.366606,556.421991 L160.490122,553.939945 C159.486885,563.994963 159.069565,573.989054 159.239085,583.794822 L184.23535,583.362691 L184.23535,583.362691 Z M189.530812,529.74916 C191.409808,520.926581 193.77438,512.199945 196.610323,503.657116 L172.883539,495.780588 C169.755403,505.203599 167.149392,514.821284 165.079209,524.541562 L189.530812,529.74916 L189.530812,529.74916 Z M206.55815,478.579189 C210.380987,470.372195 214.657881,462.475774 219.370127,454.950356 L198.181388,441.682449 C192.916809,450.089939 188.149248,458.892277 183.896071,468.023139 L206.55815,478.579189 L206.55815,478.579189 Z M234.977798,433.324733 C240.696432,426.434425 246.837605,420.014983 253.385537,414.10531 L236.635543,395.546277 C229.188383,402.267527 222.217452,409.554324 215.740325,417.358529 L234.977798,433.324733 L234.977798,433.324733 Z M274.393559,397.838672 C281.741066,392.997079 289.468969,388.708775 297.569385,384.998236 L287.158006,362.26933 C277.893186,366.513245 269.047614,371.421756 260.637868,376.963304 L274.393559,397.838672 L274.393559,397.838672 Z M322.490328,375.765965 C330.87073,373.341903 339.572421,371.462906 348.592124,370.145708 L344.979551,345.408099 C334.83845,346.889061 325.022774,349.008606 315.543751,351.750448 L322.490328,375.765965 L322.490328,375.765965 Z M375.393534,367.922328 C384.169133,367.717834 393.196763,367.994493 402.473983,368.763009 L404.53789,343.848349 C394.388411,343.007575 384.477753,342.703855 374.811127,342.929113 L375.393534,367.922328 L375.393534,367.922328 Z M429.470576,372.274141 C438.221629,373.808684 447.163617,375.746814 456.294704,378.094887 L462.520926,353.882614 C452.76569,351.37404 443.187517,349.29802 433.788569,347.649866 L429.470576,372.274141 L429.470576,372.274141 Z M482.757201,385.87893 C491.288705,388.694252 499.965814,391.844187 508.78732,395.332582 L517.980666,372.084305 C508.715288,368.420384 499.585225,365.106019 490.59145,362.138152 L482.757201,385.87893 L482.757201,385.87893 Z M534.364067,406.21503 C542.618499,409.968877 550.986952,414.002825 559.468663,418.319352 L570.807746,396.03875 C562.002492,391.557565 553.304186,387.364615 544.713328,383.457772 L534.364067,406.21503 L534.364067,406.21503 Z M584.126467,431.488691 C592.098921,435.943103 600.163199,440.635475 608.318817,445.567507 L621.255701,424.175055 C612.856847,419.095927 604.544975,414.259488 596.32037,409.664192 L584.126467,431.488691 L584.126467,431.488691 Z M635.918757,457.939354 C644.421238,461.487759 653.395206,465.053656 662.766024,468.572154 L671.553834,445.167573 C662.473074,441.757985 653.778518,438.303115 645.547329,434.86793 L635.918757,457.939354 L635.918757,457.939354 Z M689.979062,478.234655 C699.145169,481.301354 708.35493,484.191263 717.578632,486.877932 L724.570052,462.875431 C715.669386,460.282856 706.772479,457.491116 697.911126,454.526379 L689.979062,478.234655 L689.979062,478.234655 Z M745.567729,494.372314 C755.157698,496.706637 764.639581,498.765864 773.991524,500.529512 L778.624516,475.962555 C769.712364,474.281845 760.656069,472.315046 751.480413,470.081571 L745.567729,494.372314 L745.567729,494.372314 Z M802.822161,505.059095 C812.840105,506.299449 822.615966,507.141586 832.129047,507.563841 L833.237624,482.588432 C824.399823,482.196151 815.276813,481.410253 805.894036,480.248541 L802.822161,505.059095 L802.822161,505.059095 Z M861.821835,507.441997 C872.206275,506.851489 882.164046,505.658669 891.669577,503.83329 L886.954887,479.281881 C878.572618,480.891556 869.712199,481.952926 860.402509,482.482319 L861.821835,507.441997 L861.821835,507.441997 Z M921.126983,495.555175 C931.100801,491.737522 940.361214,487.008741 948.858118,481.333008 L934.971766,460.544327 C928.061337,465.160332 920.461981,469.040903 912.190102,472.20711 L921.126983,495.555175 L921.126983,495.555175 Z M972.64473,460.70462 C979.490584,453.043229 985.460499,444.450192 990.518643,434.922419 L968.437405,423.199838 C964.317199,430.960863 959.499469,437.895456 954.002728,444.047017 L972.64473,460.70462 L972.64473,460.70462 Z M1002.12187,406.301271 C1004.87917,397.057297 1006.99777,387.189881 1008.46913,376.690711 L983.711061,373.221111 C982.410615,382.50072 980.555612,391.140429 978.164909,399.155367 L1002.12187,406.301271 L1002.12187,406.301271 Z M1010.8597,346.922841 C1011.10548,337.515352 1010.92365,327.68753 1010.30923,317.433033 L985.353984,318.928284 C985.926336,328.480658 986.094928,337.592812 985.868224,346.269895 L1010.8597,346.922841 L1010.8597,346.922841 Z M1007.28816,288.004139 C1005.76602,278.113202 1003.71864,268.385506 1001.15512,258.83045 L977.00903,265.308606 C979.336288,273.983013 981.195673,282.817509 982.579037,291.806682 L1007.28816,288.004139 L1007.28816,288.004139 Z M991.887132,230.596218 C988.2796,221.354154 984.164544,212.308239 979.555032,203.4689 L957.388028,215.028482 C961.581202,223.069439 965.321421,231.291369 968.598436,239.686688 L991.887132,230.596218 L991.887132,230.596218 Z M964.440154,177.859322 C959.029276,169.68711 953.171568,161.730275 946.882922,153.998941 L927.488591,169.774235 C933.265619,176.876581 938.638801,184.175258 943.595132,191.660955 L964.440154,177.859322 L964.440154,177.859322 Z M927.207927,131.969807 C920.409264,125.014954 913.239858,118.284118 905.717586,111.786801 L889.375924,130.706369 C896.370779,136.748133 903.027663,142.997799 909.330657,149.445596 L927.207927,131.969807 L927.207927,131.969807 Z M882.695306,93.4353119 C874.910569,87.7047994 866.832721,82.2009591 858.481196,76.9324555 L845.142492,98.0766981 C852.992122,103.028584 860.575629,108.195605 867.874734,113.568633 L882.695306,93.4353119 L882.695306,93.4353119 Z M833.281312,62.1965348 C824.791127,57.5995877 816.078051,53.2322386 807.163065,49.1021365 L796.654123,71.7860986 C805.100191,75.6989618 813.348248,79.8332249 821.378044,84.1808976 L833.281312,62.1965348 L833.281312,62.1965348 Z M780.356349,37.6369072 C771.37341,34.1012095 762.232393,30.7990134 752.9556,27.7366759 L745.118866,51.4766337 C753.95338,54.3929717 762.654361,57.5362046 771.200043,60.899797 L780.356349,37.6369072 L780.356349,37.6369072 Z M725.089809,19.3703618 C715.765345,16.8420819 706.34369,14.5531189 696.84817,12.5083075 L691.585197,36.948052 C700.652502,38.9006496 709.647533,41.0859656 718.54742,43.4991237 L725.089809,19.3703618 L725.089809,19.3703618 Z M668.194844,7.11628568 C658.625718,5.57229549 649.018606,4.27667955 639.397623,3.23259153 L636.70041,28.0866665 C645.891483,29.0840998 655.070098,30.3219286 664.212568,31.7970774 L668.194844,7.11628568 L668.194844,7.11628568 Z M610.441521,0.853846617 C600.713796,0.311556851 591.008538,0.0301184472 581.350325,0.0108853901 L581.300541,25.0108358 C590.509987,25.0291752 599.767858,25.29764 609.050011,25.8150906 L610.441521,0.853846617 L610.441521,0.853846617 Z M552.262299,0.75602915 C542.480786,1.28072731 532.786445,2.08194799 523.203869,3.15918231 L525.996676,28.0026971 C535.093393,26.9800811 544.303007,26.2189223 553.601419,25.7201385 L552.262299,0.75602915 L552.262299,0.75602915 Z M494.303603,7.30808827 C484.594317,9.01358985 475.044258,11.0154291 465.677664,13.31126 L471.629203,37.5925117 C480.453491,35.4296044 489.461204,33.5414494 498.628801,31.9310991 L494.303603,7.30808827 L494.303603,7.30808827 Z M437.487025,21.2926467 C428.032296,24.3466134 418.819678,27.7213622 409.872807,31.4128017 L419.407968,54.522988 C427.741283,51.0846989 436.336519,47.9361084 445.171333,45.0823798 L437.487025,21.2926467 L437.487025,21.2926467 Z M383.141651,43.8005055 C374.254521,48.4039787 365.703943,53.353973 357.512646,58.6447182 L371.076744,79.6450809 C378.592306,74.7907924 386.453535,70.2398667 394.640389,65.9991324 L383.141651,43.8005055 L383.141651,43.8005055 Z M333.388151,76.0567202 C325.565226,82.3613622 318.176622,89.0294484 311.243366,96.0533647 L329.035488,113.615836 C335.29825,107.271181 341.983788,101.237599 349.075677,95.5221131 L333.388151,76.0567202 L333.388151,76.0567202 Z M291.522271,118.583369 C285.399144,126.50205 279.783836,134.773897 274.693446,143.389702 L296.217447,156.106515 C300.777648,148.388091 305.809166,140.976217 311.299384,133.876042 L291.522271,118.583369 L291.522271,118.583369 Z M261.078723,170.111189 C257.692079,177.920728 254.691962,185.958539 252.085492,194.219167 C251.713156,195.39955 251.324672,196.595099 250.914355,197.822355 L274.624286,205.749471 C275.079587,204.387671 275.512094,203.056637 275.927155,201.740808 C278.274066,194.302797 280.972207,187.07403 284.014923,180.057583 L261.078723,170.111189 L261.078723,170.111189 Z M241.023227,223.214803 C237.404858,231.420291 233.369496,239.668361 228.951883,247.793869 L250.915708,259.734991 C255.669122,250.99183 260.006879,242.125679 263.897921,233.301844 L241.023227,223.214803 L241.023227,223.214803 Z M214.870149,271.205593 C209.776264,278.866409 204.39584,286.165059 198.737571,293.038032 L218.038344,308.927656 C224.250894,301.38141 230.134722,293.399884 235.688105,285.048018 L214.870149,271.205593 L214.870149,271.205593 Z M180.463688,312.76358 C173.889609,319.029372 167.05922,324.699606 159.976113,329.731664 L174.454999,350.112092 C182.538308,344.369459 190.289718,337.934643 197.711944,330.860476 L180.463688,312.76358 L180.463688,312.76358 Z M137.336827,343.17619 C129.443511,346.990451 121.303031,350.056257 112.908101,352.341837 L119.475482,376.463808 C129.371788,373.769468 138.952994,370.161066 148.214097,365.685855 L137.336827,343.17619 L137.336827,343.17619 Z M87.2442167,356.80054 C78.7355099,357.477644 69.9924244,357.41167 61.0058516,356.574127 L58.6859191,381.466252 C69.0968783,382.436548 79.2795382,382.513384 89.2273918,381.721756 L87.2442167,356.80054 L87.2442167,356.80054 Z M34.793781,352.087018 C26.4318555,350.027733 17.8864536,347.344468 9.15563863,344.019358 L0.257893334,367.382366 C9.93042646,371.066127 19.4497376,374.0552 28.815664,376.361739 L34.793781,352.087018 L34.793781,352.087018 Z" id="Stroke-75-Copy" fill="#562B02"></path>
            <path d="M1164.14047,690.466633 L1119.82129,535.93646 L1083.39636,546.383112 L1127.71554,700.913285 L1164.14047,690.466633 L1164.14047,690.466633 Z M1051.72262,658.789721 L1206.25722,614.485999 L1195.81421,578.060023 L1041.27961,622.363745 L1051.72262,658.789721 L1051.72262,658.789721 Z" id="Stroke-76" fill="#931323"></path>
        </g>
    </g>
</svg>