<?xml version="1.0" encoding="UTF-8" standalone="no"?>
<svg width="100px" height="100px" viewBox="0 0 100 100" version="1.1" xmlns="http://www.w3.org/2000/svg" xmlns:xlink="http://www.w3.org/1999/xlink" xmlns:sketch="http://www.bohemiancoding.com/sketch/ns">
    <!-- Generator: Sketch 3.3.3 (12072) - http://www.bohemiancoding.com/sketch -->
    <title>briefcase</title>
    <desc>Created with Sketch.</desc>
    <defs>
        <path id="path-1" d="M0.09375,0.0625 L100,0.0625 L100,100 L0.09375,100"></path>
    </defs>
    <g id="Page-1" stroke="none" stroke-width="1" fill="none" fill-rule="evenodd" sketch:type="MSPage">
        <g id="work" sketch:type="MSArtboardGroup" transform="translate(-6.000000, -6.000000)">
            <g id="briefcase" sketch:type="MSLayerGroup" transform="translate(6.000000, 6.000000)">
                <g id="Group-3">
                    <mask id="mask-2" sketch:name="Clip 2" fill="white">
                        <use xlink:href="#path-1"></use>
                    </mask>
                    <g id="Clip-2"></g>
                    <path d="M100,50 C100,77.6140625 77.6140625,100 50,100 C22.3859375,100 0,77.6140625 0,50 C0,22.3859375 22.3859375,0 50,0 C77.6140625,0 100,22.3859375 100,50" id="Fill-1" fill="#47798A" sketch:type="MSShapeGroup" mask="url(#mask-2)"></path>
                </g>
                <path d="M75,76.5625 L25,76.5625 C21.5484375,76.5625 18.75,73.7640625 18.75,70.3125 L18.75,39.0625 L18.75,67.1875 C18.75,70.6390625 21.5484375,73.4375 25,73.4375 L75,73.4375 C78.4515625,73.4375 81.25,70.6390625 81.25,67.1875 L81.25,70.3125 C81.25,73.7640625 78.4515625,76.5625 75,76.5625" id="Fill-4" fill="#414A55" sketch:type="MSShapeGroup"></path>
                <path d="M59.375,18.75 L40.625,18.75 C37.1734375,18.75 34.375,21.5484375 34.375,25 L34.375,56.25 C34.375,59.7015625 37.1734375,62.5 40.625,62.5 L59.375,62.5 C62.8265625,62.5 65.625,59.7015625 65.625,56.25 L65.625,25 C65.625,21.5484375 62.8265625,18.75 59.375,18.75 L59.375,18.75 Z M40.625,25 L59.375,25 L59.375,56.25 L40.625,56.25 L40.625,25 Z" id="Fill-5" fill="#D5925C" sketch:type="MSShapeGroup"></path>
                <path d="M18.75,43.75 L18.75,67.1875 C18.75,70.6390625 21.5484375,73.4375 25,73.4375 L75,73.4375 C78.4515625,73.4375 81.25,70.6390625 81.25,67.1875 L81.25,43.75 L18.75,43.75" id="Fill-6" fill="#D5925C" sketch:type="MSShapeGroup"></path>
                <path d="M81.25,39.0625 C81.25,35.6140625 78.4578125,32.81875 75.0109375,32.8125 C78.4578125,32.81875 81.25,35.6140625 81.25,39.0625 M18.75,39.0625 C18.75,35.6109375 21.5484375,32.8125 25,32.8125 C21.5484375,32.8125 18.75,35.6109375 18.75,39.0625" id="Fill-7" fill="#414A55" sketch:type="MSShapeGroup"></path>
                <path d="M81.25,43.75 L65.625,43.75 L65.625,32.8125 L75,32.8125 L75.0109375,32.8125 C78.4578125,32.81875 81.25,35.6140625 81.25,39.0625 L81.25,43.75 M34.375,43.75 L18.75,43.75 L18.75,39.0625 C18.75,35.6109375 21.5484375,32.8125 25,32.8125 L34.375,32.8125 L34.375,43.75 M59.375,39.8984375 C58.45625,39.3671875 57.3890625,39.0625 56.25,39.0625 L43.75,39.0625 C42.6109375,39.0625 41.54375,39.3671875 40.625,39.8984375 L40.625,32.8125 L59.375,32.8125 L59.375,39.8984375" id="Fill-8" fill="#3A4048" sketch:type="MSShapeGroup"></path>
                <path d="M65.625,43.75 L62.303125,43.75 C61.88125,42.1078125 60.8078125,40.7265625 59.375,39.8984375 L59.375,32.8125 L65.625,32.8125 L65.625,43.75 M37.696875,43.75 L34.375,43.75 L34.375,32.8125 L40.625,32.8125 L40.625,39.8984375 C39.1921875,40.7265625 38.11875,42.1078125 37.696875,43.75" id="Fill-9" fill="#AF7A51" sketch:type="MSShapeGroup"></path>
                <path d="M81.25,46.875 L62.5,46.875 L62.5,45.3125 C62.5,44.7734375 62.43125,44.25 62.303125,43.75 L81.25,43.75 L81.25,46.875 M37.5,46.875 L18.75,46.875 L18.75,43.75 L37.696875,43.75 C37.56875,44.25 37.5,44.7734375 37.5,45.3125 L37.5,46.875" id="Fill-10" fill="#AF7A51" sketch:type="MSShapeGroup"></path>
                <path d="M56.25,56.25 L43.75,56.25 C40.2984375,56.25 37.5,53.4515625 37.5,50 L37.5,46.875 L62.5,46.875 L62.5,50 C62.5,53.4515625 59.7015625,56.25 56.25,56.25" id="Fill-11" fill="#AF7A51" sketch:type="MSShapeGroup"></path>
                <path d="M59.375,43.75 L40.625,43.75 L40.625,39.8984375 C41.54375,39.3671875 42.6109375,39.0625 43.75,39.0625 L56.25,39.0625 C57.3890625,39.0625 58.45625,39.3671875 59.375,39.8984375 L59.375,43.75" id="Fill-12" fill="#34393F" sketch:type="MSShapeGroup"></path>
                <path d="M62.303125,43.75 L59.375,43.75 L59.375,39.8984375 C60.8078125,40.7265625 61.88125,42.1078125 62.303125,43.75 M40.625,43.75 L37.696875,43.75 C38.11875,42.1078125 39.1921875,40.7265625 40.625,39.8984375 L40.625,43.75" id="Fill-13" fill="#906747" sketch:type="MSShapeGroup"></path>
                <path d="M62.5,46.875 L37.5,46.875 L37.5,45.3125 C37.5,44.7734375 37.56875,44.25 37.696875,43.75 L62.303125,43.75 C62.43125,44.25 62.5,44.7734375 62.5,45.3125 L62.5,46.875" id="Fill-14" fill="#906747" sketch:type="MSShapeGroup"></path>
                <path d="M56.25,35.9375 L43.75,35.9375 C40.2984375,35.9375 37.5,38.7359375 37.5,42.1875 L37.5,46.875 C37.5,50.3265625 40.2984375,53.125 43.75,53.125 L56.25,53.125 C59.7015625,53.125 62.5,50.3265625 62.5,46.875 L62.5,42.1875 C62.5,38.7359375 59.7015625,35.9375 56.25,35.9375 L56.25,35.9375 Z M43.75,42.1875 L56.25,42.1875 L56.25,46.875 L43.75,46.875 L43.75,42.1875 Z" id="Fill-15" fill="#F1CC84" sketch:type="MSShapeGroup"></path>
                <path d="M81.25,35.9375 C81.25,32.4859375 78.4515625,29.6875 75,29.6875 L25,29.6875 C21.5484375,29.6875 18.75,32.4859375 18.75,35.9375 L18.75,43.75 L81.25,43.75 L81.25,35.9375" id="Fill-16" fill="#D5925C" sketch:type="MSShapeGroup"></path>
            </g>
        </g>
    </g>
</svg>