<?xml version="1.0" encoding="UTF-8" standalone="no"?>
<svg width="112px" height="112px" viewBox="0 0 112 112" version="1.1" xmlns="http://www.w3.org/2000/svg" xmlns:xlink="http://www.w3.org/1999/xlink" xmlns:sketch="http://www.bohemiancoding.com/sketch/ns">
    <!-- Generator: Sketch 3.3.3 (12072) - http://www.bohemiancoding.com/sketch -->
    <title>consultancy</title>
    <desc>Created with Sketch.</desc>
    <defs></defs>
    <g id="Page-1" stroke="none" stroke-width="1" fill="none" fill-rule="evenodd" sketch:type="MSPage">
        <g id="consultancy" sketch:type="MSArtboardGroup">
            <g id="Group" sketch:type="MSLayerGroup" transform="translate(24.000000, 22.000000)">
                <path d="M23.0959948,67.75 C21.5322997,67.75 21.0250646,66.6483333 21.7741602,65.2966667 C21.7741602,65.2966667 21.9320413,64.9183333 22.2091731,64.2616667 C22.4510336,64.3633333 22.7466408,64.4166667 23.0959948,64.4166667 C23.8618863,64.4183333 24.8797158,64.1533333 26.1293282,63.5233333 L39.7877261,56.1316667 C46.1617571,52.6166667 48.0815245,51.35 48.4191214,45.705 L48.4711886,46.085 C48.5686047,54.3466667 47.1459948,55.4066667 39.7877261,59.465 L26.1293282,66.8566667 C24.8797158,67.4866667 23.8618863,67.7516667 23.0959948,67.75" id="Fill-4" fill="#C6C8CC" sketch:type="MSShapeGroup"></path>
                <path d="M1.34198966,46.505 C0.162919897,46.505 -0.455167959,45.2083333 0.471963824,42.84 C0.697028424,43.06 0.995994832,43.1716667 1.34198966,43.1716667 C1.68630491,43.1716667 2.08100775,43.06 2.49586563,42.8333333 C2.49586563,42.8333333 11.5354005,39.1333333 17.8556848,36.025 C17.8237726,36.4266667 17.7968992,36.82 17.7750646,37.205 C17.570155,37.455 17.3669251,37.705 17.1653747,37.9583333 C16.0702842,38.735 14.9348837,39.6816667 13.7742894,40.8333333 C13.5055556,41.1 13.2401809,41.3716667 12.9748062,41.65 C7.70258398,44.0366667 2.49586563,46.1666667 2.49586563,46.1666667 C2.08100775,46.3933333 1.68630491,46.505 1.34198966,46.505" id="Fill-5" fill="#C6C8CC" sketch:type="MSShapeGroup"></path>
                <path d="M31.9978036,41.0616667 C29.3860465,43.655 21.7741602,61.9633333 21.7741602,61.9633333 C20.6589147,63.9766667 22.3301034,65.4383333 26.1293282,63.5233333 L39.7877261,56.1316667 C47.1459948,52.0733333 48.5686047,51.0133333 48.4711886,42.7516667 L47.1023256,32.9966667 C46.6337209,29.655 44.1126615,29.0416667 41.4992248,31.635 L31.9978036,41.0616667" id="Fill-6" fill="#B95756" sketch:type="MSShapeGroup"></path>
                <path d="M23.5595607,32.6883333 C20.946124,35.2816667 2.49586563,42.8333333 2.49586563,42.8333333 C0.466925065,43.9416667 -1.00607235,42.2833333 0.92377261,38.5116667 L8.37273902,24.9583333 C12.4625323,17.6583333 13.5307494,16.245 21.8581395,16.3416667 L31.6887597,17.7 C35.0563307,18.165 35.672739,20.6683333 33.0609819,23.26 L23.5595607,32.6883333" id="Fill-7" fill="#B95756" sketch:type="MSShapeGroup"></path>
                <path d="M0.594573643,67.505 C0.374547804,67.505 0.22002584,67.4666667 0.137726098,67.385 C-0.141085271,67.1083333 0.0957364341,65.92 0.75749354,64.165 C3.74547804,63.95 15.8099483,58.185 23.5360465,50.5183333 C23.7258398,50.33 23.9105943,50.1416667 24.0903101,49.955 C24.224677,49.955 24.3607235,49.9566667 24.4984496,49.9566667 C25.2341085,49.9566667 26.0184755,49.94 26.8414729,49.9 C25.9899225,51.1666667 24.9065891,52.4916667 23.5360465,53.8516667 C15.6604651,61.6666667 3.27855297,67.505 0.594573643,67.505" id="Fill-8" opacity="0.300000012" fill="#FFFFFF" sketch:type="MSShapeGroup"></path>
                <path d="M13.7742894,40.8333333 C22.2981912,32.3766667 29.4582687,34.9566667 29.4582687,34.9566667 C29.4582687,34.9566667 32.0582687,42.0616667 23.5360465,50.5183333 C15.0138243,58.9766667 1.2126615,65.1183333 0.137726098,64.0516667 C-0.903617571,63.0166667 5.25206718,49.29 13.7742894,40.8333333" id="Fill-9" fill="#DE9929" sketch:type="MSShapeGroup"></path>
                <path d="M20.9007752,33.7616667 C29.4229974,25.305 36.5830749,27.8866667 36.5830749,27.8866667 C36.5830749,27.8866667 39.1847545,34.99 30.6625323,43.4483333 C22.1386305,51.905 8.33914729,58.0466667 7.26421189,56.98 C6.22118863,55.9466667 12.378553,42.2183333 20.9007752,33.7616667" id="Fill-10" fill="#E3D743" sketch:type="MSShapeGroup"></path>
                <path d="M26.8414729,49.9 C27.6594315,48.6866667 28.2640827,47.5266667 28.7074935,46.4433333 C28.7326873,46.44 28.754522,46.4383333 28.7797158,46.4366667 C28.2338501,47.52 27.669509,48.69 27.1068475,49.8866667 C27.0178295,49.8916667 26.930491,49.8966667 26.8414729,49.9 M48.4527132,42.6116667 L48.0294574,39.5966667 C49.1816537,38.7433333 50.3036176,37.7866667 51.3768734,36.7216667 C60.3593023,27.8083333 63.8091731,15.7133333 64.2777778,8.16833333 C64.79677,14.9633333 61.8440568,29.6683333 51.3768734,40.055 C50.4346253,40.99 49.4571059,41.84 48.4527132,42.6116667" id="Fill-11" fill="#C6C8CC" sketch:type="MSShapeGroup"></path>
                <path d="M27.1068475,49.8866667 C27.669509,48.69 28.2338501,47.52 28.7797158,46.4366667 C34.547416,45.93 41.7612403,44.2433333 48.0294574,39.5966667 L48.4527132,42.6116667 C41.4706718,47.9733333 33.2289406,49.5633333 27.1068475,49.8866667" id="Fill-12" fill="#974D4C" sketch:type="MSShapeGroup"></path>
                <path d="M24.4984496,49.9566667 C24.3607235,49.9566667 24.224677,49.955 24.0903101,49.955 C25.0023256,49.0016667 25.7749354,48.0683333 26.426615,47.1616667 C26.6852713,46.96 26.9405685,46.755 27.194186,46.5483333 C27.6863049,46.5216667 28.1918605,46.4866667 28.7074935,46.4433333 C28.2640827,47.5266667 27.6594315,48.6866667 26.8414729,49.9 C26.0184755,49.94 25.2341085,49.9566667 24.4984496,49.9566667" id="Fill-13" fill="#C6C8CC" sketch:type="MSShapeGroup"></path>
                <path d="M24.0903101,49.955 C23.574677,49.95 23.0859173,49.9383333 22.6257106,49.92 C23.9089147,49.0583333 25.1887597,48.135 26.426615,47.1616667 C25.7749354,48.0683333 25.0023256,49.0016667 24.0903101,49.955" id="Fill-14" fill="#AF7A51" sketch:type="MSShapeGroup"></path>
                <path d="M22.6257106,49.92 C22.4325581,49.9133333 22.246124,49.905 22.0630491,49.895 L26.3476744,46.5883333 C26.6248062,46.5783333 26.9086563,46.565 27.194186,46.5483333 C26.9405685,46.755 26.6852713,46.96 26.426615,47.1616667 C25.1887597,48.135 23.9089147,49.0583333 22.6257106,49.92 M17.7616279,45.6283333 C17.7028424,44.4633333 17.675969,43.0816667 17.7297158,41.5416667 C17.7885013,43.2033333 17.9211886,44.5016667 18.0219638,45.2966667 L17.7616279,45.6283333" id="Fill-15" fill="#C1A66E" sketch:type="MSShapeGroup"></path>
                <path d="M51.3768734,36.7216667 C38.2593023,49.74 18.1496124,46.1766667 18.1496124,46.1766667 C18.1496124,46.1766667 14.5603359,26.2233333 27.6795866,13.2066667 C40.7971576,0.188333333 60.6717054,-1.19666667 63.2817829,1.39333333 C65.8112403,3.905 64.496124,23.705 51.3768734,36.7216667" id="Fill-16" fill="#F7F7F7" sketch:type="MSShapeGroup"></path>
                <path d="M10.9626615,58.3266667 C10.6082687,58.3266667 10.2404393,58.16 9.8373385,57.76 C9.49302326,57.4183333 9.32002584,57.1033333 9.27803618,56.7983333 C11.5018088,56.1383333 15.2590439,54.4333333 19.3118863,52.0183333 L13.3997416,56.5816667 C12.4910853,57.4833333 11.7604651,58.3266667 10.9626615,58.3266667" id="Fill-17" opacity="0.300000012" fill="#AF7A51" sketch:type="MSShapeGroup"></path>
                <path d="M9.27803618,56.7983333 C9.15710594,55.9433333 10.0573643,55.185 11.0248062,54.225 L17.7616279,45.6283333 C17.8859173,48.0366667 18.1496124,49.51 18.1496124,49.51 C18.1496124,49.51 19.6343669,49.7733333 22.0630491,49.895 L19.3118863,52.0183333 C15.2590439,54.4333333 11.5018088,56.1383333 9.27803618,56.7983333" id="Fill-18" opacity="0.300000012" fill="#C1A66E" sketch:type="MSShapeGroup"></path>
                <path d="M22.0630491,49.895 C19.6343669,49.7733333 18.1496124,49.51 18.1496124,49.51 C18.1496124,49.51 17.8859173,48.0366667 17.7616279,45.6283333 L18.0219638,45.2966667 C18.094186,45.8666667 18.1496124,46.1766667 18.1496124,46.1766667 C18.1496124,46.1766667 20.6656331,46.6233333 24.4984496,46.6233333 C25.0846253,46.6233333 25.7027132,46.6116667 26.3476744,46.5883333 L22.0630491,49.895" id="Fill-19" opacity="0.400000006" fill="#9F8A5E" sketch:type="MSShapeGroup"></path>
                <path d="M24.4984496,46.6233333 C20.6656331,46.6233333 18.1496124,46.1766667 18.1496124,46.1766667 C18.1496124,46.1766667 18.094186,45.8666667 18.0219638,45.2966667 L27.6510336,33.0116667 C28.5596899,32.11 31.569509,31.2666667 33.7697674,31.2666667 C34.7456072,31.2666667 35.5618863,31.4333333 35.9649871,31.8333333 C37.2767442,33.135 36.0892765,38.78 34.7775194,40.0816667 L26.3476744,46.5883333 C25.7027132,46.6116667 25.0846253,46.6233333 24.4984496,46.6233333" id="Fill-20" opacity="0.300000012" fill="#B3B3A5" sketch:type="MSShapeGroup"></path>
                <path d="M13.3997416,53.2483333 C12.0879845,54.55 11.1490956,55.7283333 9.8373385,54.4266667 C8.5255814,53.125 9.7130491,52.1933333 11.0248062,50.8916667 L27.6510336,29.6783333 C28.9627907,28.3766667 34.65323,27.1983333 35.9649871,28.5 C37.2767442,29.8016667 36.0892765,35.4483333 34.7775194,36.75 L13.3997416,53.2483333" id="Fill-21" fill="#B95756" sketch:type="MSShapeGroup"></path>
                <path d="M44.6081395,30.175 C42.8899225,30.175 41.1700258,29.5233333 39.8582687,28.2216667 C37.2347545,25.6183333 37.2347545,21.3966667 39.8582687,18.7933333 C41.1700258,17.4916667 42.8899225,16.8416667 44.6081395,16.8416667 C46.3280362,16.8416667 48.0479328,17.4916667 49.3596899,18.7933333 C51.9832041,21.3966667 51.9832041,25.6183333 49.3596899,28.2216667 C48.0479328,29.5233333 46.3280362,30.175 44.6081395,30.175" id="Fill-22" opacity="0.300000012" fill="#B3B3A5" sketch:type="MSShapeGroup"></path>
                <path d="M54.1095607,17.4133333 C53.2496124,17.4133333 52.3913437,17.0883333 51.7346253,16.4366667 C50.4228682,15.135 50.4228682,13.025 51.7346253,11.7233333 C52.3913437,11.0716667 53.2496124,10.7466667 54.1095607,10.7466667 C54.969509,10.7466667 55.8294574,11.0716667 56.4844961,11.7233333 C57.7979328,13.025 57.7979328,15.135 56.4844961,16.4366667 C55.8294574,17.0883333 54.969509,17.4133333 54.1095607,17.4133333" id="Fill-23" opacity="0.300000012" fill="#B3B3A5" sketch:type="MSShapeGroup"></path>
                <path d="M49.3596899,24.8883333 C46.7361757,27.4916667 42.4817829,27.4916667 39.8582687,24.8883333 C37.2347545,22.285 37.2347545,18.0633333 39.8582687,15.46 C42.4817829,12.8566667 46.7361757,12.8566667 49.3596899,15.46 C51.9832041,18.0633333 51.9832041,22.285 49.3596899,24.8883333" id="Fill-24" fill="#575D65" sketch:type="MSShapeGroup"></path>
                <path d="M56.4844961,13.1033333 C55.172739,14.405 53.0463824,14.405 51.7346253,13.1033333 C50.4228682,11.8016667 50.4228682,9.69166667 51.7346253,8.39 C53.0463824,7.08833333 55.172739,7.08833333 56.4844961,8.39 C57.7979328,9.69166667 57.7979328,11.8016667 56.4844961,13.1033333" id="Fill-25" fill="#575D65" sketch:type="MSShapeGroup"></path>
            </g>
        </g>
    </g>
</svg>