<?xml version="1.0" encoding="utf-8"?>
<!-- Generator: Adobe Illustrator 20.1.0, SVG Export Plug-In . SVG Version: 6.00 Build 0)  -->
<svg version="1.1" id="Layer_1" xmlns="http://www.w3.org/2000/svg" xmlns:xlink="http://www.w3.org/1999/xlink" x="0px" y="0px"
	 viewBox="0 0 35 33.5" style="enable-background:new 0 0 35 33.5;" xml:space="preserve">
<style type="text/css">
	.st0{fill:#231F20;}
</style>
<g>
	<path class="st0" d="M26.5,27.9c-0.3,0-0.5-0.1-0.7-0.3L7,9.7c-0.4-0.4-0.4-1,0-1.4c0.4-0.4,1-0.4,1.4,0l18.8,18
		c0.4,0.4,0.4,1,0,1.4C27,27.8,26.8,27.9,26.5,27.9z"/>
</g>
<g>
	<path class="st0" d="M7.8,28.5c-0.3,0-0.5-0.1-0.7-0.3c-0.4-0.4-0.4-1,0-1.4L25,8c0.4-0.4,1-0.4,1.4,0c0.4,0.4,0.4,1,0,1.4
		l-18,18.8C8.3,28.4,8,28.5,7.8,28.5z"/>
</g>
</svg>
