<?xml version="1.0" encoding="UTF-8" standalone="no"?>
<svg width="230px" height="80px" viewBox="0 0 230 80" version="1.1" xmlns="http://www.w3.org/2000/svg" xmlns:xlink="http://www.w3.org/1999/xlink" xmlns:sketch="http://www.bohemiancoding.com/sketch/ns">
    <!-- Generator: Sketch 3.3.3 (12072) - http://www.bohemiancoding.com/sketch -->
    <title>crowdcrafting_color_logo</title>
    <desc>Created with Sketch.</desc>
    <defs></defs>
    <g id="Page-1" stroke="none" stroke-width="1" fill="none" fill-rule="evenodd" sketch:type="MSPage">
        <g id="crowdcrafting_color_logo" sketch:type="MSArtboardGroup" fill="#40B392">
            <g id="Fill-10-+-Fill-12-+-Group" sketch:type="MSLayerGroup" transform="translate(6.000000, 16.000000)">
                <path d="M3.36986592,27.5482187 C10.9115698,27.5600937 13.307743,27.680625 20.8360503,27.167625 C25.129676,26.8755 26.5424134,21.2764375 21.4455978,21.6231875 C13.9172905,22.135 11.5205084,22.0156562 3.97941341,22.0031875 C-0.374497207,21.9966562 -1.69954749,27.5399062 3.36986592,27.5482187" id="Fill-10" sketch:type="MSShapeGroup"></path>
                <path d="M10.2807095,22.0239688 L10.2831453,22.0239688 L10.2807095,22.0239688 M4.72658101,22.0049688 C5.78369832,22.0073438 6.73851397,22.0120938 7.62147486,22.01625 C6.73790503,22.0120938 5.78430726,22.0073438 4.72658101,22.0049688 M3.97941341,22.0031875 C4.06222905,22.0031875 4.14443575,22.0037813 4.22603352,22.0037813 C4.14443575,22.0037813 4.06222905,22.0031875 3.97941341,22.0031875 M3.97149721,22.0031875 C3.26939106,22.0031875 2.64583799,22.1474688 2.11606145,22.3897188 C2.11727933,22.3897188 2.11788827,22.3903125 2.11910615,22.3903125 C2.64888268,22.1486563 3.27060894,22.0031875 3.97271508,22.0031875 L3.97941341,22.0031875 L3.97149721,22.0031875 M20.7447095,21.6700938 C16.2099441,21.9669688 13.5744581,22.0239688 10.2849721,22.0239688 C13.5744581,22.0239688 16.2099441,21.9669688 20.7447095,21.6700938 M20.8835475,21.6605938 C20.8494469,21.6629688 20.8147374,21.6653438 20.7806369,21.6677188 C20.8147374,21.6653438 20.8494469,21.6629688 20.8835475,21.6605938 M21.0181229,21.6516875 C20.9962011,21.6534688 20.9748883,21.6546563 20.9535754,21.6564375 C20.9748883,21.6546563 20.9962011,21.6534688 21.0181229,21.6516875 M21.2982346,21.6332813 C21.2190726,21.638625 21.1399106,21.6439688 21.0619665,21.6487188 C21.1399106,21.6439688 21.2190726,21.638625 21.2982346,21.6332813 M21.3822682,21.6273438 C21.3566927,21.629125 21.3317263,21.6309063 21.3061508,21.6326875 C21.3317263,21.6309063 21.3566927,21.629125 21.3822682,21.6273438 M21.4455978,21.6231875 C21.4303743,21.624375 21.4151508,21.6255625 21.3993184,21.6261563 C21.4151508,21.6255625 21.4303743,21.624375 21.4455978,21.6231875 M21.5491173,21.6166563 C21.5478994,21.6166563 21.5466816,21.61725 21.5454637,21.61725 C21.5466816,21.61725 21.5478994,21.6166563 21.5491173,21.6166563 M21.8876872,21.60775 C21.7811229,21.60775 21.671514,21.6107188 21.5588603,21.6166563 C21.6702961,21.6107188 21.7780782,21.60775 21.8834246,21.60775 C22.681743,21.60775 23.2937263,21.7704375 23.742514,22.0382188 C23.7443408,22.037625 23.7467765,22.0370313 23.7492123,22.0370313 C23.3010335,21.76925 22.6860056,21.60775 21.8876872,21.60775" id="Fill-12" sketch:type="MSShapeGroup"></path>
                <g id="Group" sketch:type="MSShapeGroup">
                    <path d="M42.5727207,14.58725 C43.6401899,14.58725 44.6607709,14.8479062 45.6338547,15.3680312 C45.9766872,15.553875 46.3103855,15.6470937 46.6349497,15.6470937 C46.8444246,15.6470937 47.0538994,15.5259687 47.2645922,15.2843125 C47.4734581,15.0426562 47.5788045,14.7546875 47.5788045,14.4198125 C47.5788045,14.0849375 47.3595866,13.7785625 46.9211508,13.4989062 C46.4821061,13.2204375 45.8956983,12.9372187 45.1613184,12.6480625 C44.4269385,12.3600937 43.4879553,12.2158125 42.3437598,12.2158125 C40.2264804,12.2158125 38.4428994,12.8671562 36.9936257,14.1686562 C35.4676257,15.5449687 34.7046257,17.3582812 34.7046257,19.608 C34.7046257,21.8583125 35.4676257,23.671625 36.9936257,25.0479375 C38.4428994,26.3500312 40.2264804,27.0007812 42.3437598,27.0007812 C44.0408715,27.0007812 45.5662626,26.5732812 46.9211508,25.7176875 C47.3595866,25.438625 47.5788045,25.1316562 47.5788045,24.7967812 C47.5788045,24.4625 47.4734581,24.1739375 47.2645922,23.9322812 C47.0538994,23.690625 46.8158045,23.5695 46.5490894,23.5695 C46.2817654,23.5695 45.9766872,23.6627187 45.6338547,23.8479687 C44.6607709,24.3692812 43.6401899,24.6293437 42.5727207,24.6293437 C40.8938771,24.6293437 39.596838,24.1691875 38.6816034,23.2482812 C37.7663687,22.3279687 37.3084469,21.1143437 37.3084469,19.608 C37.3084469,18.1016562 37.7663687,16.888625 38.6816034,15.9683125 C39.596838,15.0474062 40.8938771,14.58725 42.5727207,14.58725" id="Fill-1"></path>
                    <path d="M56.7908268,12.2158125 L56.6477263,12.2158125 C54.9883687,12.2158125 53.4909888,13.0904062 52.1561955,14.8384062 L52.1561955,13.6390312 C52.1561955,13.28575 52.0277095,12.9829375 51.7701285,12.7317812 C51.5125475,12.480625 51.2025978,12.3553437 50.8402793,12.3553437 C50.4779609,12.3553437 50.1722737,12.480625 49.9244358,12.7317812 C49.6765978,12.9829375 49.5529832,13.28575 49.5529832,13.6390312 L49.5529832,25.6054687 C49.5529832,25.9593437 49.6765978,26.2568125 49.9244358,26.4984687 C50.1722737,26.740125 50.4779609,26.86125 50.8402793,26.86125 C51.2025978,26.86125 51.5125475,26.740125 51.7701285,26.4984687 C52.0277095,26.2568125 52.1561955,25.9593437 52.1561955,25.6054687 L52.1561955,17.1255312 C52.6518715,16.4005625 53.2766425,15.8097812 54.0305084,15.354375 C54.7831564,14.898375 55.6368883,14.6709687 56.591095,14.6709687 L56.7341955,14.6709687 C57.1147821,14.6709687 57.4296034,14.5640937 57.6780503,14.34975 C57.9258883,14.1365937 58.0501117,13.8480312 58.0501117,13.48525 C58.0501117,13.1224687 57.9301508,12.82025 57.6920559,12.5785937 C57.453352,12.3369375 57.1531453,12.2158125 56.7908268,12.2158125" id="Fill-2"></path>
                    <path d="M65.6307877,12.2158125 C63.3996369,12.2158125 61.6257989,12.8950625 60.3098827,14.252375 C58.9744804,15.6096875 58.3070838,17.3950937 58.3070838,19.608 C58.3070838,21.8215 58.9744804,23.6069062 60.3098827,24.9642187 C61.6257989,26.322125 63.3996369,27.0007812 65.6307877,27.0007812 C67.8430615,27.0007812 69.6168994,26.322125 70.9523017,24.9642187 C72.287095,23.5885 72.9551006,21.8030937 72.9551006,19.608 C72.9551006,17.4140937 72.287095,15.6286875 70.9523017,14.252375 C69.6168994,12.8950625 67.8430615,12.2158125 65.6307877,12.2158125 L65.6307877,12.2158125 Z M68.8064022,23.5415937 C68.3490894,23.9322812 67.8381899,24.2208437 67.2761397,24.4060937 C66.7134804,24.5925312 66.1599553,24.6851562 65.6167821,24.6851562 C65.073,24.6851562 64.5194749,24.5925312 63.9574246,24.4060937 C63.3947654,24.2208437 62.8887374,23.9275312 62.4411676,23.5273437 C61.9923799,23.12775 61.6257989,22.6022812 61.3395978,21.9515312 C61.0533966,21.3007812 60.9102961,20.5146562 60.9102961,19.5943437 C60.9102961,18.6734375 61.0533966,17.8885 61.3395978,17.2371562 C62.140352,15.4333437 63.5713575,14.5314375 65.6307877,14.5314375 C66.8900726,14.5314375 67.9484078,14.912625 68.8064022,15.675 C69.8367263,16.6048125 70.3512793,17.9063125 70.3512793,19.5806875 C70.3512793,21.3096875 69.8367263,22.6301875 68.8064022,23.5415937 L68.8064022,23.5415937 Z" id="Fill-3"></path>
                    <path d="M93.4385754,12.3553438 C92.7705698,12.3553438 92.3607542,12.6065 92.2085196,13.1088125 L88.8611844,23.8479688 L85.5424693,13.359375 C85.4468659,13.0625 85.2702737,12.82025 85.0133017,12.6344063 C84.7557207,12.4485625 84.464648,12.3553438 84.1406927,12.3553438 C83.8161285,12.3553438 83.5256648,12.4485625 83.2680838,12.6344063 C83.0105028,12.82025 82.8339106,13.0625 82.7389162,13.359375 L79.4202011,23.8479688 L76.0728659,13.1088125 C75.9200223,12.6065 75.5102067,12.3553438 74.8428101,12.3553438 C74.5182458,12.3553438 74.2320447,12.4764688 73.9842067,12.718125 C73.7363687,12.9597813 73.6121453,13.2061875 73.6121453,13.4573438 C73.6121453,13.7085 73.6413743,13.9175 73.6980056,14.0849375 L77.7608436,25.6897813 C77.875324,26.0056563 78.0847989,26.2799688 78.3898771,26.512125 C78.6949553,26.7442813 79.0383966,26.86125 79.4202011,26.86125 C79.8013966,26.86125 80.144838,26.7442813 80.4499162,26.512125 C80.7549944,26.2799688 80.9742123,25.9961563 81.1081788,25.661875 L84.1406927,16.427875 L87.1732067,25.661875 C87.3065642,25.9961563 87.5257821,26.2799688 87.8308603,26.512125 C88.1359385,26.7442813 88.4793799,26.86125 88.8611844,26.86125 C89.2423799,26.86125 89.5858212,26.7442813 89.8908994,26.512125 C90.1959777,26.2799688 90.4060615,26.0056563 90.5205419,25.6897813 L94.5827709,14.0849375 C94.6400112,13.9175 94.6686313,13.7085 94.6686313,13.4573438 C94.6686313,13.2061875 94.5444078,12.9597813 94.2971788,12.718125 C94.0487318,12.4764688 93.7625307,12.3553438 93.4385754,12.3553438" id="Fill-4"></path>
                    <path d="M109.344659,6.581125 C109.096821,6.33946875 108.786872,6.21834375 108.415419,6.21834375 C108.043358,6.21834375 107.732799,6.33946875 107.48557,6.581125 C107.237732,6.82278125 107.113508,7.12975 107.113508,7.5014375 L107.113508,14.3360938 C105.701989,12.9229688 104.071251,12.2158125 102.221296,12.2158125 C100.371341,12.2158125 98.7887095,12.8576563 97.4721844,14.14075 C96.0229106,15.553875 95.2982737,17.3766875 95.2982737,19.608 C95.2982737,21.8773125 96.0229106,23.7090313 97.4721844,25.10375 C98.8069777,26.3684375 100.390218,27.0007813 102.221296,27.0007813 C104.071251,27.0007813 105.701989,26.2942188 107.113508,24.8805 L107.113508,25.6054688 C107.113508,25.9593438 107.237732,26.2568125 107.48557,26.4984688 C107.732799,26.740125 108.043358,26.86125 108.415419,26.86125 C108.786872,26.86125 109.096821,26.740125 109.344659,26.4984688 C109.593106,26.2568125 109.716721,25.9593438 109.716721,25.6054688 L109.716721,7.5014375 C109.716721,7.12975 109.593106,6.82278125 109.344659,6.581125 L109.344659,6.581125 Z M107.113508,22.5369688 C105.816469,23.9322813 104.309955,24.6293438 102.593358,24.6293438 C101.181838,24.6293438 100.065654,24.2113438 99.2460223,23.3741563 C98.3496648,22.46275 97.901486,21.2081563 97.901486,19.608 C97.901486,18.7898125 98.0251006,18.0648438 98.2735475,17.4325 C98.9786983,15.5354688 100.418838,14.58725 102.593358,14.58725 C104.309955,14.58725 105.816469,15.2843125 107.113508,16.6790313 L107.113508,22.5369688 L107.113508,22.5369688 Z" id="Fill-5"></path>
                    <path d="M134.750184,12.138625 C133.441575,12.138625 132.511726,12.4788438 131.961246,13.1586875 C131.667737,13.5167188 131.288369,14.0885 130.823749,14.8764063 C130.603313,15.2581875 129.929827,16.3673125 128.804508,18.204375 C127.978179,19.553375 127.313218,20.6494375 126.806581,21.4967188 C126.608676,21.66 126.426603,21.8090313 126.271933,21.9349063 C126.089251,22.0845313 125.681872,22.355875 125.05162,22.7495313 C124.421978,23.1431875 123.809994,23.4620313 123.216888,23.7066563 C122.623173,23.9512813 121.868089,24.1780938 120.950419,24.3865 C120.032749,24.5955 119.118123,24.7 118.207151,24.7 C117.29557,24.7 116.647659,24.4880313 116.262201,24.0646875 C115.876743,23.6413438 115.684318,23.13725 115.684318,22.5524063 C115.684318,21.097125 116.295693,19.695875 117.518441,18.3474688 C118.081709,17.7275938 118.678469,17.1665 119.308112,16.665375 C119.938363,16.1648438 120.638642,15.6874688 121.409559,15.2338438 C122.180475,14.7808125 122.902067,14.554 123.574944,14.554 C123.708911,14.554 123.777112,14.6412813 123.777112,14.8134688 C123.777112,14.9868438 123.593212,15.3175625 123.226022,15.8068125 C122.859441,16.2960625 122.675542,16.6356875 122.675542,16.826875 C122.675542,17.5542188 123.067089,17.9181875 123.850184,17.9181875 C124.522453,17.9181875 125.186804,17.468125 125.840804,16.5668125 C126.495413,15.6666875 126.823022,14.8942188 126.823022,14.25 C126.823022,13.6057813 126.559961,13.0987188 126.034447,12.7288125 C125.507715,12.3595 124.914609,12.17425 124.253911,12.17425 C122.883799,12.17425 121.497855,12.4847813 120.097296,13.1046563 C118.696128,13.725125 117.466682,14.5332188 116.408955,15.5295313 C115.35062,16.52525 114.484709,17.6824688 113.811832,19.0005938 C113.138955,20.3187188 112.802821,21.6368438 112.802821,22.9549688 C112.802821,24.2730938 113.316765,25.34125 114.344045,26.1576563 C115.371933,26.9746563 116.524654,27.38375 117.803425,27.38375 C119.082196,27.38375 120.632553,27.0554063 122.455715,26.3993125 C123.16452,26.1505313 123.830698,25.8572188 124.473737,25.54075 C124.44938,25.6369375 124.437201,25.7265938 124.437201,25.809125 C124.437201,25.9765625 124.48348,26.0953125 124.574821,26.1671563 C124.666162,26.2384063 124.929832,26.3547813 125.364006,26.5156875 C125.798179,26.6771875 126.146492,26.7573438 126.410162,26.7573438 C126.673223,26.7573438 126.994134,26.5008438 127.373503,25.9878438 C128.682112,24.270125 129.896944,22.811875 131.016173,21.6130938 C132.135402,20.4143125 133.493944,19.0575938 135.090581,17.5423438 C136.686609,16.0276875 137.685877,15.2516563 138.090821,15.2160313 L138.126749,15.2516563 C137.221866,16.2895313 136.768816,17.2199375 136.768816,18.0434688 C136.768816,18.413375 136.875989,18.7351875 137.090335,19.0095 C137.304073,19.2838125 137.604279,19.4215625 137.989128,19.4215625 C138.374587,19.4215625 138.720464,19.230375 139.02676,18.8485938 C139.600989,18.0969063 140.228196,17.1754063 140.907162,16.0840938 C141.586128,14.9921875 141.925916,14.214375 141.925916,13.748875 C141.925916,13.283375 141.76333,12.9051563 141.439983,12.6130313 C141.115419,12.3203125 140.702559,12.17425 140.200793,12.17425 C138.169983,12.17425 135.711089,13.7732188 132.824112,16.9699688 L133.594419,15.8424375 C134.658844,14.2921563 135.191056,13.235875 135.191056,12.675375 C135.191056,12.3179375 135.044911,12.138625 134.750184,12.138625" id="Fill-6" opacity="0.699999988"></path>
                    <path d="M152.477603,34.5948437 C152.343028,34.5948437 152.275436,34.4695625 152.275436,34.219 C152.275436,33.9684375 152.477603,33.42575 152.88133,32.5909375 C153.088978,32.1616562 153.306369,31.7282187 153.532894,31.2935937 C153.759419,30.8577812 154.046838,30.3329062 154.39576,29.7189687 C154.743464,29.1044375 155.061939,28.5528437 155.349358,28.0635937 C155.636777,27.5743437 155.994223,26.9722812 156.422916,26.2568125 C156.851,25.54075 157.202966,24.9565 157.477598,24.502875 C157.754056,24.0498437 158.108458,23.4620312 158.542022,22.7400312 C158.976196,22.018625 159.298324,21.4907812 159.505972,21.1565 L161.542872,20.7094062 C162.264464,21.2580312 162.626173,21.8933437 162.626173,22.61475 C162.626173,23.3373437 162.313788,24.26775 161.689626,25.4065625 C161.066073,26.545375 160.298201,27.6337187 159.38662,28.6721875 C158.475039,29.7094687 157.539101,30.685 156.579413,31.5975937 C155.618508,32.5101875 154.756251,33.2375312 153.991425,33.7808125 C153.227207,34.3235 152.722397,34.5948437 152.477603,34.5948437 M142.182888,24.3775937 C141.938095,24.3775937 141.815698,24.1691875 141.815698,23.7511875 C141.815698,23.3337812 142.148788,22.5583437 142.815575,21.4254687 C143.482363,20.292 144.213698,19.3200312 145.008972,18.508375 C147.24743,16.2420312 149.412816,15.1085625 151.505128,15.1085625 C149.840899,17.339875 148.727151,18.8010937 148.164492,19.4928125 C147.651765,20.1132812 146.611698,21.0822812 145.045508,22.4004062 C143.479318,23.7185312 142.525112,24.3775937 142.182888,24.3775937 M172.09943,0.03384375 C171.787045,0.03384375 171.301721,0.15021875 170.644676,0.382375 C169.972408,0.6210625 169.504134,0.89240625 169.241682,1.197 C168.978011,1.501 167.901408,3.0875 166.011872,5.9565 C164.121117,8.8255 161.616553,12.8006562 158.496961,17.8825625 C157.970229,17.9781562 157.328408,18.145 156.56967,18.3830937 C156.325486,18.4549375 156.153765,18.5054062 156.055726,18.5350937 C155.957687,18.565375 155.786575,18.68175 155.542391,18.8842187 C155.456531,18.9560625 155.349358,19.0480937 155.220872,19.1615 C155.092385,19.2755 154.994346,19.3615937 154.927363,19.4215625 C154.86038,19.4809375 154.749553,19.6121562 154.597318,19.8152187 C154.443866,20.0176875 154.318425,20.151875 154.220994,20.2171875 C154.122955,20.2830937 154.07424,20.3638437 154.07424,20.4588437 L154.220994,20.9599687 C154.220994,21.1268125 154.276408,21.329875 154.385408,21.5685625 C154.446911,21.6997812 154.557737,21.80725 154.71667,21.890375 C154.874994,21.9740937 155.046715,22.0156562 155.230006,22.0156562 L155.304905,22.0132812 C154.968162,22.3754687 154.627156,22.7329062 154.276408,23.0808437 C153.884251,23.4679687 153.437899,23.8319375 152.936134,24.1715625 C152.434369,24.5117812 152.000196,24.6815937 151.633615,24.6815937 C151.266425,24.6815937 151.082525,24.3538437 151.082525,23.69775 C151.082525,23.4828125 151.101402,23.3159687 151.137939,23.196625 C151.321229,22.23 151.728609,21.0644687 152.358251,19.6988437 C152.987894,18.332625 153.563341,17.211625 154.083374,16.3346562 C154.603408,15.4576875 154.941978,14.9417187 155.102128,14.78675 C155.261061,14.6317812 155.340832,14.3871562 155.340832,14.052875 C155.340832,13.433 154.874994,13.1224687 153.945754,13.1224687 C153.542637,13.1224687 153.238777,13.1794687 153.037218,13.292875 C152.83505,13.4062812 152.587212,13.677625 152.294313,14.1069062 C152.184095,13.7845 151.920425,13.5167187 151.505128,13.3017812 C151.088615,13.0868437 150.550922,12.979375 149.889615,12.979375 C148.17667,12.979375 146.305402,13.7548125 144.274592,15.3056875 C143.308207,16.0455 142.421592,16.8654687 141.61414,17.7661875 C140.806687,18.6669062 140.154514,19.662625 139.659447,20.7545312 C139.163771,21.8458437 138.915933,22.9318125 138.915933,24.0106562 C138.915933,25.0906875 139.253285,25.9344062 139.924944,26.543 C140.451067,27.0316562 141.130642,27.2762812 141.962453,27.2762812 C142.794263,27.2762812 143.867821,26.8285937 145.183128,25.9344062 C146.497827,25.039625 147.663335,23.9477187 148.678436,22.659875 C148.434251,23.196625 148.312464,23.8200625 148.312464,24.5295937 C148.312464,25.2397187 148.544469,25.8869062 149.009089,26.4711562 C149.473709,27.0554062 150.198955,27.348125 151.183609,27.348125 C151.763318,27.348125 152.381391,27.1777187 153.037218,26.8475937 C152.573207,27.6277812 152.196883,28.2725937 151.908855,28.7796562 C151.199441,30.02 150.697676,30.9711875 150.403559,31.6332187 C150.110659,32.29525 149.838464,33.0225937 149.586972,33.8164375 C149.336698,34.6096875 149.211257,35.304375 149.211257,35.9005 C149.211257,36.4972187 149.440827,36.947875 149.899358,37.251875 C150.357888,37.555875 150.878531,37.707875 151.459458,37.707875 C152.040994,37.707875 152.936134,37.335 154.147922,36.5898437 C155.358492,35.8440937 156.62143,34.8685625 157.937346,33.6638437 C159.252045,32.459125 160.508894,31.1772187 161.707894,29.8169375 C162.906894,28.45725 163.892156,27.082125 164.662464,25.69275 C165.43338,24.303375 165.819447,23.18475 165.819447,22.3380625 C165.819447,21.4907812 165.493665,20.6915937 164.846363,19.9399062 C165.323162,19.8324375 165.956458,19.6804375 166.745642,19.4839062 C167.534218,19.2867812 168.03233,19.1704062 168.241196,19.1347812 C168.498168,19.0872812 168.626654,18.8640312 168.626654,18.4638437 C168.626654,18.06425 168.485989,17.8404062 168.204659,17.7929062 C168.057296,17.7691562 167.749173,17.6765312 167.277246,17.515625 C166.806536,17.354125 166.513028,17.2739687 166.396721,17.2739687 C166.279804,17.2739687 164.803128,17.5304687 161.965475,18.0434687 L161.506335,17.8825625 C162.814944,15.7705937 165.799961,11.1547812 170.461385,4.03275 C171.721888,2.1006875 172.391721,1.045 172.470883,0.8656875 C172.550045,0.68696875 172.590844,0.543875 172.590844,0.43640625 C172.590844,0.17396875 172.434346,0.03978125 172.121961,0.03384375 L172.09943,0.03384375" id="Fill-7" opacity="0.699999988"></path>
                    <path d="M188.275883,6.0550625 C187.529324,6.0550625 186.846704,6.3804375 186.22924,7.03 C185.611168,7.68015625 185.302436,8.36296875 185.302436,9.07903125 C185.302436,9.7945 185.654402,10.1525313 186.357726,10.1525313 C187.060441,10.1525313 187.736972,9.8099375 188.385492,9.1235625 C189.034011,8.43778125 189.357966,7.754375 189.357966,7.07453125 C189.357966,6.75271875 189.259927,6.50215625 189.064458,6.3234375 C188.868989,6.14471875 188.605927,6.0550625 188.275883,6.0550625" id="Fill-15" opacity="0.699999988"></path>
                    <path d="M202.299737,24.3419688 C202.195609,24.3419688 202.14324,24.2404375 202.14324,24.037375 C202.14324,23.1906875 202.693721,21.9978438 203.795291,20.4588438 C204.382307,19.6359063 205.079542,18.83375 205.886385,18.052375 C206.694447,17.271 207.722335,16.537125 208.97005,15.8513438 C210.217765,15.1655625 211.551341,14.6733438 212.970777,14.3752813 C210.682994,17.1552188 208.60286,19.3853438 206.730983,21.0674375 C205.92414,21.7829063 205.18976,22.4004063 204.52967,22.9193438 C203.868363,23.4382813 203.357464,23.8052188 202.996972,24.0201563 C202.635872,24.2345 202.403257,24.3419688 202.299737,24.3419688 M181.023425,3.67471875 L180.15995,3.78278125 C179.977268,3.78278125 179.854263,3.8035625 179.793978,3.845125 C179.732475,3.8866875 179.508994,4.12240625 179.123536,4.5516875 C178.738078,4.9815625 178.031709,5.94759375 177.00443,7.450375 L175.352989,7.52221875 C175.181268,7.5346875 174.932821,7.54596875 174.609475,7.55784375 C174.28552,7.5703125 173.991402,7.58159375 173.72895,7.5940625 C173.465279,7.6059375 173.193084,7.62078125 172.912363,7.63859375 C172.630425,7.65640625 172.211475,7.8268125 171.654905,8.148625 C171.097726,8.4704375 170.776816,8.7625625 170.691564,9.025 C170.654419,9.13246875 170.547855,9.28209375 170.370654,9.4726875 C170.192844,9.66328125 170.104547,9.86040625 170.104547,10.062875 C170.104547,10.2659375 170.268961,10.4363438 170.599615,10.5729063 C170.930268,10.7106563 171.272492,10.7789375 171.627503,10.7789375 L171.792525,10.7789375 C172.024531,10.7789375 172.85086,10.7011563 174.270296,10.5461875 L174.967531,10.4565313 C173.646134,12.4847813 172.324737,14.6555313 171.003341,16.9699688 C170.195888,18.389625 169.526665,19.7285313 168.994453,20.9866875 C168.461631,22.2454375 168.19248,23.3159688 168.186391,24.198875 C168.179693,25.0817813 168.406827,25.7824063 168.865966,26.3013438 C169.324497,26.8196875 170.043045,27.1688125 171.022218,27.348125 C171.180542,27.38375 171.352263,27.4015625 171.535553,27.4015625 C172.379542,27.4015625 173.22414,27.139125 174.068128,26.61425 C174.744659,26.193875 175.552721,25.6007188 176.480134,24.8508125 C176.564168,25.4119063 176.904564,25.9635 177.503151,26.5067813 C178.200994,27.139125 179.032804,27.455 179.99919,27.455 C180.965575,27.455 182.103682,27.0886563 183.412291,26.3547813 L183.565134,26.26275 C183.705799,26.32925 183.907966,26.4117813 184.187469,26.5156875 C184.621034,26.6771875 184.966911,26.7573438 185.224492,26.7573438 C185.481464,26.7573438 185.811508,26.5008438 186.215235,25.9878438 C187.658419,24.11575 188.900045,22.6183125 189.940112,21.4967188 C190.97957,20.3757188 192.298531,19.0575938 193.894559,17.5423438 C195.491196,16.0276875 196.491682,15.2516563 196.895408,15.2160313 L196.931335,15.2516563 C196.895408,15.4784688 196.558056,16.0544063 195.922324,16.978875 C195.286592,17.9033438 194.750726,18.7144063 194.316553,19.4120625 C193.881771,20.1097188 193.456732,20.9480938 193.041436,21.926 C192.625531,22.9045 192.417274,23.7785 192.417274,24.5474063 C192.417274,25.3169063 192.735749,25.9700313 193.372089,26.5067813 C194.007821,27.0435313 194.649642,27.3178438 195.298771,27.3297188 C195.338961,27.3303125 195.37976,27.3309063 195.419341,27.3309063 C196.020972,27.3309063 196.573888,27.2471875 197.078698,27.07975 C197.690073,26.8654063 198.46586,26.4010938 199.403626,25.6933438 C199.755592,26.5697188 200.632464,27.0079063 202.033022,27.0079063 C202.645006,27.0079063 203.57181,26.6083125 204.813436,25.809125 C206.055061,25.0099375 207.336877,23.9364375 208.658274,22.5880313 C207.104872,25.0218125 205.874816,26.9004375 204.969933,28.2245 C204.896251,28.3082188 204.449291,28.6721875 203.629659,29.3164063 C202.810637,29.960625 201.910626,30.7889063 200.93267,31.803625 C199.623453,33.1633125 198.968844,34.4933125 198.968844,35.793625 C198.968844,37.0701875 199.659989,37.707875 201.042279,37.707875 C201.740123,37.707875 202.23519,37.451375 202.528698,36.9389688 C203.323972,35.6143125 204.639279,33.8728438 206.474011,31.7139688 C207.893447,30.0680938 209.70443,28.4988125 211.905743,27.0079063 C212.823413,26.3880313 213.692369,25.821 214.512,25.308 C215.331631,24.795 215.998419,24.3775938 216.512972,24.0557813 C217.026307,23.733375 217.310682,23.5184375 217.365486,23.4115625 C217.420899,23.3040938 217.448911,23.0238438 217.448911,22.5702188 C217.448911,22.1171875 217.417246,21.7680625 217.356352,21.5234375 C217.294849,21.2794063 217.166972,21.1565 216.971503,21.1565 C216.836318,21.1565 216.695654,21.1927188 216.548899,21.2645625 C214.248939,22.3618125 211.642682,24.1691875 208.731346,26.6860938 C211.558039,21.842875 214.322011,17.5304688 217.026307,13.748875 C217.038486,13.7375938 217.084156,13.6948438 217.163927,13.6235938 C217.243089,13.5523438 217.313726,13.4775313 217.375229,13.4003438 C217.436123,13.3225625 217.46657,13.25725 217.46657,13.2032188 C217.46657,13.1497813 217.46048,13.1111875 217.448911,13.0868438 C217.436123,13.0630938 217.399587,12.94375 217.338084,12.7288125 C217.276581,12.5144688 217.209598,12.3684063 217.136525,12.290625 C217.062844,12.2128438 216.872855,12.17425 216.567168,12.17425 C216.262089,12.17425 216.004508,12.1807813 215.79686,12.1926563 C215.087447,12.2282813 214.493732,12.5144688 214.016324,13.0512188 C213.784318,12.5857188 213.251497,12.3535625 212.420296,12.3535625 C211.587877,12.3535625 210.602615,12.5679063 209.465117,12.9977813 C208.32762,13.4270625 207.16881,14.0380313 205.988078,14.8312813 C204.807346,15.625125 203.708821,16.5199063 202.693721,17.515625 C201.67862,18.5119375 200.846201,19.6424375 200.198899,20.9065313 C199.868246,21.5489688 199.623453,22.1890313 199.462084,22.8255313 L199.354302,22.92825 C198.877503,23.381875 198.341637,23.7986875 197.747922,24.1810625 C197.154816,24.5628438 196.662793,24.7534375 196.271246,24.7534375 C195.536866,24.7534375 195.170285,24.491 195.170285,23.966125 C195.170285,23.6918125 195.254927,23.3456563 195.427257,22.92825 C195.525296,22.7014375 195.619682,22.4930313 195.711631,22.3018438 C195.803581,22.11125 195.925369,21.8844375 196.078212,21.622 C196.231665,21.3601563 196.360151,21.1392813 196.464279,20.9599688 C196.567799,20.78125 196.705419,20.5574063 196.87714,20.2890313 C197.048251,20.0206563 197.170648,19.8324375 197.243721,19.7255625 C197.316793,19.6175 197.430056,19.4482813 197.583508,19.2155313 C197.736352,18.9827813 197.831346,18.8396875 197.867883,18.7856563 C197.904419,18.7322188 198.137034,18.4015 198.565117,17.7929063 C198.992592,17.1843125 199.338469,16.6808125 199.601531,16.280625 C199.865201,15.8810313 200.125218,15.428 200.381581,14.9209375 C200.638553,14.413875 200.767039,13.9786563 200.767039,13.6146875 C200.767039,13.2513125 200.598972,12.92 200.262838,12.6219375 C199.925486,12.323875 199.473045,12.17425 198.904905,12.17425 C198.335547,12.17425 197.696162,12.323875 196.986749,12.6219375 C195.531385,13.2299375 193.74476,14.6792813 191.628089,16.9699688 L192.399006,15.8424375 C193.46343,14.2921563 193.995642,13.235875 193.995642,12.675375 C193.995642,12.3179375 193.848888,12.138625 193.55538,12.138625 C192.246162,12.138625 191.316922,12.4788438 190.765832,13.1586875 C190.472324,13.5167188 190.092955,14.0885 189.628335,14.8764063 C189.407899,15.2581875 188.734413,16.3673125 187.609704,18.204375 C186.907598,19.349125 186.319972,20.3169375 185.844391,21.1072188 C185.612994,21.2129063 184.982743,21.804875 183.944503,22.892625 C183.50424,23.3456563 182.981162,23.7600938 182.375268,24.1359375 C181.769983,24.5117813 181.185402,24.7 180.623352,24.7 C180.060084,24.7 179.779363,24.4969375 179.779363,24.0914063 C179.779363,23.769 179.901151,23.3694063 180.145944,22.892625 C180.267732,22.6658125 180.375514,22.47225 180.466855,22.31075 C180.559413,22.1498438 180.687899,21.947375 180.852313,21.70275 C181.017944,21.458125 181.119028,21.3001875 181.154955,21.2283438 C184.066291,16.337625 185.522872,13.7548125 185.522872,13.4805 C185.522872,13.2061875 185.369419,12.9021875 185.063732,12.5679063 C184.757436,12.2342188 184.412777,12.067375 184.027318,12.067375 C183.641251,12.067375 183.084682,12.32625 182.357609,12.8451875 C181.629318,13.364125 181.011246,13.889 180.504,14.4198125 C179.996145,14.9512188 179.742218,15.2789688 179.742218,15.40425 C179.742218,15.5295313 179.867659,15.7230938 180.118542,15.9855313 C180.368816,16.2485625 180.494866,16.4243125 180.494866,16.513375 C180.494866,16.6030313 180.158123,17.1789688 179.485246,18.2405938 C178.906754,19.1531875 178.328872,20.14 177.75038,21.1939063 C177.689486,21.1226563 177.61824,21.08525 177.536642,21.08525 C177.438603,21.08525 176.704832,21.6819688 175.334721,22.8748125 C174.820168,23.3159688 174.257508,23.7244688 173.646134,24.1003125 C173.034151,24.4761563 172.477581,24.6637813 171.976425,24.6637813 C171.474659,24.6637813 171.223777,24.4310313 171.223777,23.966125 C171.223777,23.7399063 171.248134,23.4471875 171.297458,23.0891563 C171.406458,22.3018438 172.35214,20.3424688 174.132067,17.211625 C175.912603,14.0801875 177.29733,11.77525 178.288682,10.295625 C178.582799,10.28375 180.14838,10.1406563 182.986642,9.86634375 C183.341654,9.83071875 183.674743,9.72621875 183.987128,9.55284375 C184.298296,9.3800625 184.454793,9.16809375 184.454793,8.91753125 C184.454793,8.6675625 184.374413,8.47934375 184.216089,8.3540625 C184.057156,8.22878125 183.883,8.044125 183.693011,7.7995 C183.503631,7.55546875 183.335564,7.40584375 183.188201,7.35240625 C183.042056,7.298375 182.76986,7.27165625 182.371615,7.27165625 C181.974587,7.27165625 181.298056,7.30728125 180.343849,7.379125 C180.368207,7.331625 180.555151,7.041875 180.903464,6.5110625 C181.252385,5.98025 181.555028,5.5064375 181.812,5.0884375 C182.068972,4.67103125 182.197458,4.41453125 182.197458,4.31953125 C182.197458,4.2239375 182.154832,4.12240625 182.068972,4.0149375 C181.983721,3.90746875 181.885073,3.85403125 181.775464,3.85403125 L181.023425,3.67471875" id="Fill-9" opacity="0.699999988"></path>
                    <path d="M24.257676,16.5478125 C24.1157933,16.5478125 23.9684302,16.5525625 23.8137598,16.56325 C20.7556704,16.7728438 18.3905531,16.8868438 16.2087263,16.9462188 C15.9359218,16.9539375 15.6667709,16.9604688 15.398838,16.9664063 L15.3854413,16.9664063 C15.3811788,16.9664063 15.3769162,16.967 15.3726536,16.967 C13.9702682,16.9972813 12.6178156,17.0067813 11.1728045,17.0067813 C9.98172067,17.0067813 8.72852514,17.00025 7.33162011,16.9937188 C6.30251397,16.9895625 5.19546369,16.9848125 3.97941341,16.9830313 L3.97332402,16.9830313 C3.28400559,16.9830313 2.67324022,17.12375 2.14955307,17.3576875 C2.14772626,17.3570938 2.14650838,17.3570938 2.14468156,17.3565 C-0.326391061,18.4620625 -0.804407821,21.6843438 2.11606145,22.3897188 C2.64583799,22.1474688 3.26939106,22.0031875 3.97149721,22.0031875 L3.97941341,22.0031875 C4.06222905,22.0031875 4.14443575,22.0037813 4.22603352,22.0037813 C4.39592737,22.0037813 4.5621676,22.004375 4.72658101,22.0049688 C5.78430726,22.0073438 6.73790503,22.0120938 7.62147486,22.01625 C8.57750838,22.0204063 9.45011732,22.0239688 10.2807095,22.0239688 L10.2831453,22.0239688 L10.2849721,22.0239688 C13.5744581,22.0239688 16.2099441,21.9669688 20.7447095,21.6700938 C20.7568883,21.6695 20.7684581,21.6683125 20.7806369,21.6677188 C20.8147374,21.6653438 20.8494469,21.6629688 20.8835475,21.6605938 C20.9072961,21.6594063 20.9298268,21.657625 20.9535754,21.6564375 C20.9748883,21.6546563 20.9962011,21.6534688 21.0181229,21.6516875 C21.0321285,21.6510938 21.047352,21.6499063 21.0619665,21.6487188 C21.1399106,21.6439688 21.2190726,21.638625 21.2982346,21.6332813 C21.3006704,21.6332813 21.3037151,21.6326875 21.3061508,21.6326875 C21.3317263,21.6309063 21.3566927,21.629125 21.3822682,21.6273438 C21.3877486,21.6273438 21.393838,21.62675 21.3993184,21.6261563 C21.4151508,21.6255625 21.4303743,21.624375 21.4455978,21.6231875 C21.4790894,21.6208125 21.512581,21.6190313 21.5454637,21.61725 C21.5466816,21.61725 21.5478994,21.6166563 21.5491173,21.6166563 L21.5588603,21.6166563 C21.671514,21.6107188 21.7811229,21.60775 21.8876872,21.60775 C22.6860056,21.60775 23.3010335,21.76925 23.7492123,22.0370313 C27.4850503,21.3542188 28.6158492,16.5478125 24.257676,16.5478125" id="Fill-11" opacity="0.699999988"></path>
                    <path d="M16.4236816,11.5080625 C16.3012849,11.5080625 16.1807151,11.514 16.0637989,11.5252813 C12.2536704,11.89875 10.7100112,11.967625 8.41431285,11.967625 C7.25672067,11.967625 5.90792179,11.9498125 3.97941341,11.9450625 L3.9666257,11.9450625 C0.0170502793,11.9450625 -1.42796089,16.5151563 2.14468156,17.3565 C2.66897765,17.1219688 3.28217877,16.9830313 3.97149721,16.9830313 L3.97941341,16.9830313 C5.19546369,16.9848125 6.30251397,16.9895625 7.33162011,16.9937188 C8.72730726,17.00025 9.97989385,17.0067813 11.1697598,17.0067813 C12.6159888,17.0067813 13.9696592,16.9972813 15.3726536,16.967 C15.3769162,16.967 15.3811788,16.9664063 15.3854413,16.9664063 L15.398838,16.9664063 C15.666162,16.9604688 15.9365307,16.9539375 16.2087263,16.9462188 C17.7377709,16.6048125 19.381905,15.6655 19.5584972,14.0469375 C19.7423966,12.3606875 17.9204525,11.5080625 16.4236816,11.5080625" id="Fill-13" opacity="0.300000012"></path>
                    <path d="M3.97941341,16.9830313 C5.19546369,16.9848125 6.30251397,16.9895625 7.33162011,16.9937188 C6.30251397,16.9895625 5.19546369,16.9848125 3.97941341,16.9830313 M3.97149721,16.9830313 C3.28217877,16.9830313 2.66897765,17.1219688 2.14468156,17.3565 C2.14650838,17.3570938 2.14772626,17.3570938 2.14955307,17.3576875 C2.67324022,17.12375 3.28400559,16.9830313 3.97332402,16.9830313 L3.97941341,16.9830313 L3.97149721,16.9830313 M15.3854413,16.9664063 C15.3811788,16.9664063 15.3769162,16.967 15.3726536,16.967 C15.3769162,16.967 15.3811788,16.9664063 15.3854413,16.9664063 M16.2087263,16.9462188 C15.9365307,16.9539375 15.666162,16.9604688 15.398838,16.9664063 C15.6667709,16.9604688 15.9359218,16.9539375 16.2087263,16.9462188" id="Fill-14"></path>
                </g>
            </g>
        </g>
    </g>
</svg>