<?xml version="1.0" encoding="UTF-8" standalone="no"?>
<svg
   xmlns:dc="http://purl.org/dc/elements/1.1/"
   xmlns:cc="http://creativecommons.org/ns#"
   xmlns:rdf="http://www.w3.org/1999/02/22-rdf-syntax-ns#"
   xmlns:svg="http://www.w3.org/2000/svg"
   xmlns="http://www.w3.org/2000/svg"
   xmlns:sodipodi="http://sodipodi.sourceforge.net/DTD/sodipodi-0.dtd"
   xmlns:inkscape="http://www.inkscape.org/namespaces/inkscape"
   width="331.47101"
   height="55.286999"
   viewBox="0 0 331.47101 55.286999"
   version="1.1"
   id="svg2"
   inkscape:version="0.91 r13725"
   sodipodi:docname="cc_white.svg">
  <metadata
     id="metadata19">
    <rdf:RDF>
      <cc:Work
         rdf:about="">
        <dc:format>image/svg+xml</dc:format>
        <dc:type
           rdf:resource="http://purl.org/dc/dcmitype/StillImage" />
        <dc:title>cc_white</dc:title>
      </cc:Work>
    </rdf:RDF>
  </metadata>
  <sodipodi:namedview
     pagecolor="#ffffff"
     bordercolor="#666666"
     borderopacity="1"
     objecttolerance="10"
     gridtolerance="10"
     guidetolerance="10"
     inkscape:pageopacity="0"
     inkscape:pageshadow="2"
     inkscape:window-width="1855"
     inkscape:window-height="1056"
     id="namedview17"
     showgrid="false"
     inkscape:zoom="0.63"
     inkscape:cx="132.1859"
     inkscape:cy="26.9706"
     inkscape:window-x="1985"
     inkscape:window-y="24"
     inkscape:window-maximized="1"
     inkscape:current-layer="svg2"
     fit-margin-top="0"
     fit-margin-left="0"
     fit-margin-right="0"
     fit-margin-bottom="0" />
  <!-- Generator: Sketch 3.6.1 (26313) - http://www.bohemiancoding.com/sketch -->
  <title
     id="title4">cc_white</title>
  <desc
     id="desc6">Created with Sketch.</desc>
  <defs
     id="defs8" />
  <path
     style="fill:#fefefe;fill-rule:evenodd;stroke:none;stroke-width:1"
     inkscape:connector-curvature="0"
     id="Fill-53"
     d="m 249.765,3.625 -7.372,0 0,9.08 -11.653,0 c 0,-2.656 0.42,-4.445 1.258,-5.363 0.84,-0.92 2.218,-1.379 4.136,-1.379 0.36,0 0.908,0.039 1.649,0.121 l 0,-5.785 C 236.763,0.1 235.765,0 234.785,0 227.214,0 223.409,4.234 223.369,12.705 l -5.214,0 0,6.324 5.214,0 0,24.301 7.371,0 0,-24.301 11.653,0 0,14.653 c 0,3.156 0.868,5.632 2.607,7.431 1.739,1.799 4.125,2.696 7.161,2.696 l 0.151,0 c 1.697,0 3.265,-0.299 4.705,-0.897 l 0,-6.084 c -1.02,0.44 -2.189,0.66 -3.506,0.66 -1.399,0 -2.373,-0.232 -2.922,-0.691 -0.551,-0.459 -0.824,-1.348 -0.824,-2.666 l 0,-15.102 7.252,0 0,-6.324 -7.252,0 0,-9.08 z m -40.027,29.037 c 0,3.096 -1.838,4.645 -5.514,4.645 l -0.061,0 c -3.855,0 -5.783,-1.637 -5.783,-4.914 0.02,-2.657 2.338,-3.985 6.952,-3.985 1.218,0.02 2.687,0.149 4.406,0.389 l 0,3.865 z m -6.143,-20.435 c -3.436,0 -6.563,0.568 -9.38,1.707 l 0,5.962 c 2.536,-1.037 5.524,-1.558 8.96,-1.558 4.335,0 6.502,1.93 6.502,5.783 -1.917,-0.277 -3.715,-0.418 -5.394,-0.418 -2.336,0 -4.364,0.264 -6.082,0.793 -1.719,0.529 -3.018,1.164 -3.896,1.904 -0.88,0.739 -1.573,1.598 -2.083,2.577 -0.509,0.978 -0.824,1.793 -0.943,2.441 -0.12,0.65 -0.181,1.285 -0.181,1.904 0,2.918 1.064,5.393 3.192,7.432 2.127,2.037 5.438,3.055 9.934,3.055 4.375,0 7.615,-1.012 9.724,-3.039 2.106,-2.028 3.161,-4.452 3.161,-7.27 l 0,-8.27 c 0,-4.214 -1.158,-7.435 -3.476,-9.664 -2.317,-2.226 -5.664,-3.339 -10.038,-3.339 l 0,0 z m -26.517,2.359 c -0.879,0.326 -1.569,0.607 -2.067,0.846 l 0,27.898 7.371,0 0,-23.76 c 2.197,-0.64 4.834,-0.982 7.91,-1.021 l 0,-6.322 c -2.617,0.039 -5.254,0.359 -7.91,0.962 -2.657,0.604 -4.425,1.071 -5.304,1.397 l 0,0 z M 324.1,36.469 c -1.439,0.279 -2.907,0.42 -4.405,0.42 -2.258,0 -3.937,-0.616 -5.034,-1.844 -1.1,-1.229 -1.649,-3.561 -1.649,-6.998 0,-3.315 0.499,-5.688 1.498,-7.115 0.999,-1.428 2.478,-2.145 4.436,-2.145 l 0.089,0 c 3.376,0 5.065,1.141 5.065,3.418 l 0,14.264 z m 4.329,-21.307 c -2.027,-1.957 -5.189,-2.935 -9.483,-2.935 -0.98,0 -1.958,0.08 -2.937,0.238 -0.979,0.16 -2.123,0.57 -3.431,1.228 -1.309,0.661 -2.442,1.52 -3.401,2.578 -0.96,1.059 -1.789,2.592 -2.488,4.6 -0.699,2.008 -1.048,4.359 -1.048,7.057 0,4.834 1.187,8.541 3.565,11.117 2.377,2.578 5.794,3.867 10.249,3.867 1.457,-0.019 3.005,-0.189 4.645,-0.51 l 0,1.676 c 0,0.68 -0.05,1.215 -0.149,1.606 -0.101,0.388 -0.345,0.863 -0.735,1.421 -0.39,0.561 -1.124,0.969 -2.203,1.229 -1.078,0.26 -2.477,0.391 -4.195,0.391 -2.877,0 -5.543,-0.411 -8.002,-1.229 l 0,6.563 c 2.657,0.818 5.605,1.228 8.842,1.228 2.296,0 4.314,-0.267 6.052,-0.795 1.739,-0.529 3.086,-1.174 4.045,-1.931 0.959,-0.76 1.729,-1.68 2.307,-2.758 0.58,-1.078 0.959,-2.057 1.139,-2.938 0.181,-0.879 0.27,-1.806 0.27,-2.787 l 0,-21.783 c 0,-2.797 -1.015,-5.174 -3.042,-7.133 l 0,0 z M 152.39,16.301 c -2.498,2.717 -3.746,6.633 -3.746,11.746 0,5.074 1.248,8.971 3.746,11.687 2.497,2.717 6.072,4.075 10.728,4.075 2.997,0 5.942,-0.569 8.839,-1.707 l 0,-6.143 c -2.538,1.02 -5.074,1.529 -7.611,1.529 -2.816,0 -4.91,-0.656 -6.278,-1.965 -1.368,-1.306 -2.052,-3.8 -2.052,-7.476 0,-3.715 0.684,-6.217 2.052,-7.506 1.368,-1.289 3.462,-1.934 6.278,-1.934 2.657,0 5.193,0.491 7.611,1.469 l 0,-6.142 c -2.897,-1.139 -5.842,-1.707 -8.839,-1.707 -4.656,0 -8.231,1.357 -10.728,4.074 l 0,0 z m 135.545,-4.074 c -4.876,0 -9.561,1.119 -14.055,3.355 l 0,27.748 7.371,0 0,-24.062 c 1.997,-0.36 3.897,-0.539 5.695,-0.539 1.596,0 2.906,0.15 3.923,0.449 1.02,0.299 1.755,0.75 2.205,1.349 0.449,0.598 0.748,1.174 0.898,1.723 0.15,0.549 0.225,1.234 0.225,2.053 l 0,19.027 7.371,0 0,-18.398 c 0,-4.016 -1.203,-7.137 -3.612,-9.366 -2.408,-2.226 -5.749,-3.339 -10.021,-3.339 l 0,0 z m -27.267,31.103 7.343,0 0,-30.625 -7.343,0 0,30.625 z M 3.746,16.301 C 1.248,19.018 0,22.934 0,28.047 c 0,5.074 1.248,8.971 3.746,11.687 2.498,2.717 6.075,4.075 10.728,4.075 2.996,0 5.942,-0.569 8.841,-1.707 l 0,-6.143 c -2.537,1.02 -5.074,1.529 -7.612,1.529 -2.817,0 -4.91,-0.656 -6.278,-1.965 -1.368,-1.306 -2.052,-3.8 -2.052,-7.476 0,-3.715 0.684,-6.217 2.052,-7.506 1.368,-1.289 3.461,-1.934 6.278,-1.934 2.656,0 5.194,0.491 7.612,1.469 l 0,-6.142 c -2.899,-1.139 -5.845,-1.707 -8.841,-1.707 -4.653,0 -8.23,1.357 -10.728,4.074 l 0,0 z m 24.69,-1.715 c -0.88,0.326 -1.568,0.607 -2.068,0.846 l 0,27.898 7.373,0 0,-23.76 c 2.196,-0.64 4.834,-0.982 7.909,-1.021 l 0,-6.322 c -2.616,0.039 -5.254,0.359 -7.909,0.962 -2.661,0.604 -4.427,1.071 -5.305,1.397 l 0,0 z M 138.099,34.18 c 0,2.205 -1.857,3.308 -5.572,3.308 -2.339,0 -3.977,-0.802 -4.915,-2.406 -0.94,-1.602 -1.41,-4.207 -1.41,-7.814 0,-3.448 0.6,-5.858 1.798,-7.229 1.2,-1.373 2.948,-2.06 5.244,-2.06 1.799,0.019 3.417,0.191 4.855,0.511 l 0,15.69 z m 0,-21.475 c -1.758,-0.318 -3.456,-0.478 -5.094,-0.478 -4.574,0 -8.08,1.324 -10.516,3.976 -2.44,2.652 -3.659,6.471 -3.659,11.455 0,2.742 0.351,5.158 1.05,7.25 0.698,2.092 1.548,3.678 2.547,4.758 1,1.082 2.173,1.963 3.523,2.643 1.345,0.679 2.525,1.099 3.534,1.261 1.009,0.16 2.023,0.239 3.043,0.239 4.374,0 7.625,-1.014 9.753,-3.045 2.128,-2.03 3.192,-4.457 3.192,-7.278 l 0,-32.556 -7.373,0 0,11.775 z M 62.053,35.764 c -1.159,1.33 -2.947,1.994 -5.364,1.994 -2.417,0 -4.209,-0.664 -5.379,-1.994 -1.169,-1.328 -1.752,-3.897 -1.752,-7.702 0,-3.804 0.583,-6.376 1.752,-7.716 1.17,-1.338 2.962,-2.008 5.379,-2.008 2.417,0 4.205,0.67 5.364,2.008 1.158,1.34 1.738,3.912 1.738,7.716 0,3.805 -0.58,6.374 -1.738,7.702 l 0,0 z m -5.38,-23.479 c -4.664,0 -8.244,1.36 -10.741,4.076 -2.498,2.717 -3.745,6.614 -3.745,11.686 0,5.074 1.247,8.971 3.745,11.687 2.497,2.717 6.077,4.075 10.741,4.075 4.665,0 8.245,-1.358 10.743,-4.075 2.496,-2.716 3.746,-6.613 3.746,-11.687 0,-5.072 -1.25,-8.969 -3.746,-11.686 -2.498,-2.716 -6.078,-4.076 -10.743,-4.076 l 0,0 z m 46.879,22.504 -5.813,-22.084 -6.325,0 -5.839,22.084 -6.504,-22.084 -7.791,0 10.845,30.625 7.373,0 5.094,-17.619 5.033,17.619 7.371,0 10.85,-30.625 -7.791,0 -6.503,22.084 z" />
</svg>
