<?xml version="1.0" encoding="UTF-8" standalone="no"?>
<svg width="112px" height="100px" viewBox="0 0 112 100" version="1.1" xmlns="http://www.w3.org/2000/svg" xmlns:xlink="http://www.w3.org/1999/xlink" xmlns:sketch="http://www.bohemiancoding.com/sketch/ns">
    <!-- Generator: Sketch 3.3.3 (12072) - http://www.bohemiancoding.com/sketch -->
    <title>education</title>
    <desc>Created with Sketch.</desc>
    <defs>
        <path id="path-1" d="M0.0308125,0.0202985075 L32.8666667,0.0202985075 L32.8666667,32.4776119 L0.0308125,32.4776119"></path>
    </defs>
    <g id="Page-1" stroke="none" stroke-width="1" fill="none" fill-rule="evenodd" sketch:type="MSPage">
        <g id="education" sketch:type="MSArtboardGroup">
            <g id="Group" sketch:type="MSLayerGroup" transform="translate(27.000000, 24.000000)">
                <g>
                    <path d="M54.6770833,21.6119403 L54.6770833,18.6268657 C56.3460938,18.6268657 57.6979167,17.2910448 57.6979167,15.641791 L57.6979167,18.6268657 C57.6979167,20.2746269 56.3460938,21.6119403 54.6770833,21.6119403" id="Fill-4" fill-opacity="0.3" fill="#414A55" sketch:type="MSShapeGroup"></path>
                    <path d="M54.6770833,35.0447761 L54.6770833,32.0597015 C56.3460938,32.0597015 57.6979167,30.7238806 57.6979167,29.0746269 L57.6979167,32.0597015 C57.6979167,33.7089552 56.3460938,35.0447761 54.6770833,35.0447761" id="Fill-5" fill-opacity="0.3" fill="#414A55" sketch:type="MSShapeGroup"></path>
                    <path d="M54.6770833,48.4776119 L54.6770833,45.4925373 C56.3460938,45.4925373 57.6979167,44.1567164 57.6979167,42.5074627 L57.6979167,45.4925373 C57.6979167,47.141791 56.3460938,48.4776119 54.6770833,48.4776119" id="Fill-6" fill-opacity="0.3" fill="#414A55" sketch:type="MSShapeGroup"></path>
                    <path d="M54.6770833,18.6268657 C53.0080729,18.6268657 51.65625,17.2910448 51.65625,15.641791 L51.65625,11.1641791 C51.65625,9.51492537 53.0080729,8.17910448 54.6770833,8.17910448 C56.3460938,8.17910448 57.6979167,9.51492537 57.6979167,11.1641791 L57.6979167,15.641791 C57.6979167,17.2910448 56.3460938,18.6268657 54.6770833,18.6268657" id="Fill-7" fill="#B95756" sketch:type="MSShapeGroup"></path>
                    <path d="M54.6770833,32.0597015 C53.0080729,32.0597015 51.65625,30.7238806 51.65625,29.0746269 L51.65625,24.5970149 C51.65625,22.9477612 53.0080729,21.6119403 54.6770833,21.6119403 C56.3460938,21.6119403 57.6979167,22.9477612 57.6979167,24.5970149 L57.6979167,29.0746269 C57.6979167,30.7238806 56.3460938,32.0597015 54.6770833,32.0597015" id="Fill-8" fill="#B95756" sketch:type="MSShapeGroup"></path>
                    <path d="M54.6770833,45.4925373 C53.0080729,45.4925373 51.65625,44.1567164 51.65625,42.5074627 L51.65625,38.0298507 C51.65625,36.380597 53.0080729,35.0447761 54.6770833,35.0447761 C56.3460938,35.0447761 57.6979167,36.380597 57.6979167,38.0298507 L57.6979167,42.5074627 C57.6979167,44.1567164 56.3460938,45.4925373 54.6770833,45.4925373" id="Fill-9" fill="#B95756" sketch:type="MSShapeGroup"></path>
                    <path d="M48.6354167,63.4029851 L12.3854167,63.4029851 C9.41744792,63.4029851 6.9509375,61.2895522 6.44041667,58.5029851 C7.54453125,59.680597 9.12291667,60.4179104 10.875,60.4179104 L47.125,60.4179104 C50.4615104,60.4179104 53.1666667,57.7447761 53.1666667,54.4477612 L53.1666667,48.0776119 C53.6107292,48.3328358 54.1272917,48.4776119 54.6770833,48.4776119 L54.6770833,57.4328358 C54.6770833,60.7298507 51.9719271,63.4029851 48.6354167,63.4029851 M53.1666667,35.4447761 L53.1666667,34.6447761 C53.6107292,34.9 54.1272917,35.0447761 54.6770833,35.0447761 C54.1272917,35.0447761 53.6107292,35.1895522 53.1666667,35.4447761 M53.1666667,22.0119403 L53.1666667,21.2119403 C53.6107292,21.4671642 54.1272917,21.6119403 54.6770833,21.6119403 C54.1272917,21.6119403 53.6107292,21.7567164 53.1666667,22.0119403 M53.1666667,8.57910448 L53.1666667,6.68656716 C53.1666667,6.32089552 53.1334375,5.9641791 53.07,5.61641791 C53.740625,6.33283582 54.2360417,7.21044776 54.4882812,8.18507463 C54.0094792,8.21343284 53.559375,8.35373134 53.1666667,8.57910448" id="Fill-10" fill-opacity="0.3" fill="#414A55" sketch:type="MSShapeGroup"></path>
                    <path d="M54.6770833,21.6119403 C54.1272917,21.6119403 53.6107292,21.4671642 53.1666667,21.2119403 L53.1666667,18.2268657 C53.6107292,18.4820896 54.1272917,18.6268657 54.6770833,18.6268657 L54.6770833,21.6119403" id="Fill-11" fill-opacity="0.3" fill="#414A55" sketch:type="MSShapeGroup"></path>
                    <path d="M54.6770833,35.0447761 C54.1272917,35.0447761 53.6107292,34.9 53.1666667,34.6447761 L53.1666667,31.6597015 C53.6107292,31.9149254 54.1272917,32.0597015 54.6770833,32.0597015 L54.6770833,35.0447761" id="Fill-12" fill-opacity="0.3" fill="#414A55" sketch:type="MSShapeGroup"></path>
                    <path d="M54.6770833,48.4776119 C54.1272917,48.4776119 53.6107292,48.3328358 53.1666667,48.0776119 L53.1666667,45.0925373 C53.6107292,45.3477612 54.1272917,45.4925373 54.6770833,45.4925373 L54.6770833,48.4776119" id="Fill-13" fill-opacity="0.3" fill="#414A55" sketch:type="MSShapeGroup"></path>
                    <path d="M54.6770833,18.6268657 C54.1272917,18.6268657 53.6107292,18.4820896 53.1666667,18.2268657 L53.1666667,8.57910448 C53.559375,8.35373134 54.0094792,8.21343284 54.4882812,8.18507463 C54.6121354,8.65970149 54.6770833,9.15820896 54.6770833,9.67164179 L54.6770833,18.6268657" id="Fill-14" fill-opacity="0.3" fill="#414A55" sketch:type="MSShapeGroup"></path>
                    <path d="M54.6770833,32.0597015 C54.1272917,32.0597015 53.6107292,31.9149254 53.1666667,31.6597015 L53.1666667,22.0119403 C53.6107292,21.7567164 54.1272917,21.6119403 54.6770833,21.6119403 L54.6770833,32.0597015" id="Fill-15" fill-opacity="0.3" fill="#414A55" sketch:type="MSShapeGroup"></path>
                    <path d="M54.6770833,45.4925373 C54.1272917,45.4925373 53.6107292,45.3477612 53.1666667,45.0925373 L53.1666667,35.4447761 C53.6107292,35.1895522 54.1272917,35.0447761 54.6770833,35.0447761 L54.6770833,45.4925373" id="Fill-16" fill-opacity="0.3" fill="#414A55" sketch:type="MSShapeGroup"></path>
                    <path d="M53.1666667,54.4477612 C53.1666667,57.7447761 50.4615104,60.4179104 47.125,60.4179104 L10.875,60.4179104 C7.53848958,60.4179104 4.83333333,57.7447761 4.83333333,54.4477612 L4.83333333,6.68656716 C4.83333333,3.38955224 7.53848958,0.71641791 10.875,0.71641791 L47.125,0.71641791 C50.4615104,0.71641791 53.1666667,3.38955224 53.1666667,6.68656716 L53.1666667,54.4477612" id="Fill-17" fill="#D5925C" sketch:type="MSShapeGroup"></path>
                    <path d="M4.83333333,18.6268657 L3.32291667,18.6268657 C1.65390625,18.6268657 0.302083333,17.2910448 0.302083333,15.641791 C0.302083333,13.9925373 1.65390625,12.6567164 3.32291667,12.6567164 L4.83333333,12.6567164 L4.83333333,18.6268657" id="Fill-19" fill-opacity="0.3" fill="#414A55" sketch:type="MSShapeGroup"></path>
                    <path d="M7.85416667,18.6268657 L4.83333333,18.6268657 L4.83333333,12.6567164 L7.85416667,12.6567164 C9.52317708,12.6567164 10.875,13.9925373 10.875,15.641791 C10.875,17.2910448 9.52317708,18.6268657 7.85416667,18.6268657" id="Fill-20" fill-opacity="0.300000012" fill="#7A5537" sketch:type="MSShapeGroup"></path>
                    <path d="M4.83333333,30.5671642 L3.32291667,30.5671642 C1.65390625,30.5671642 0.302083333,29.2313433 0.302083333,27.5820896 C0.302083333,25.9343284 1.65390625,24.5970149 3.32291667,24.5970149 L4.83333333,24.5970149 L4.83333333,30.5671642" id="Fill-21" fill-opacity="0.3" fill="#414A55" sketch:type="MSShapeGroup"></path>
                    <path d="M7.85416667,30.5671642 L4.83333333,30.5671642 L4.83333333,24.5970149 L7.85416667,24.5970149 C9.52317708,24.5970149 10.875,25.9343284 10.875,27.5820896 C10.875,29.2313433 9.52317708,30.5671642 7.85416667,30.5671642" id="Fill-22" fill-opacity="0.300000012" fill="#7A5537" sketch:type="MSShapeGroup"></path>
                    <path d="M4.83333333,42.5074627 L3.32291667,42.5074627 C1.65390625,42.5074627 0.302083333,41.1701493 0.302083333,39.5223881 C0.302083333,37.8746269 1.65390625,36.5373134 3.32291667,36.5373134 L4.83333333,36.5373134 L4.83333333,42.5074627" id="Fill-23" fill-opacity="0.3" fill="#414A55" sketch:type="MSShapeGroup"></path>
                    <path d="M7.85416667,42.5074627 L4.83333333,42.5074627 L4.83333333,36.5373134 L7.85416667,36.5373134 C9.52317708,36.5373134 10.875,37.8746269 10.875,39.5223881 C10.875,41.1701493 9.52317708,42.5074627 7.85416667,42.5074627" id="Fill-24" fill-opacity="0.300000012" fill="#7A5537" sketch:type="MSShapeGroup"></path>
                    <path d="M4.83333333,54.4477612 L3.32291667,54.4477612 C1.65390625,54.4477612 0.302083333,53.1104478 0.302083333,51.4626866 C0.302083333,49.8134328 1.65390625,48.4776119 3.32291667,48.4776119 L4.83333333,48.4776119 L4.83333333,54.4477612" id="Fill-25" fill-opacity="0.3" fill="#414A55" sketch:type="MSShapeGroup"></path>
                    <path d="M7.85416667,54.4477612 L4.83333333,54.4477612 L4.83333333,48.4776119 L7.85416667,48.4776119 C9.52317708,48.4776119 10.875,49.8134328 10.875,51.4626866 C10.875,53.1104478 9.52317708,54.4477612 7.85416667,54.4477612" id="Fill-26" fill-opacity="0.300000012" fill="#7A5537" sketch:type="MSShapeGroup"></path>
                    <path d="M10.875,12.6567164 C10.875,14.3059701 9.52317708,15.641791 7.85416667,15.641791 L3.32291667,15.641791 C1.65390625,15.641791 0.302083333,14.3059701 0.302083333,12.6567164 C0.302083333,11.0074627 1.65390625,9.67164179 3.32291667,9.67164179 L7.85416667,9.67164179 C9.52317708,9.67164179 10.875,11.0074627 10.875,12.6567164" id="Fill-27" fill="#EFEFEE" sketch:type="MSShapeGroup"></path>
                    <path d="M10.875,24.5970149 C10.875,26.2462687 9.52317708,27.5820896 7.85416667,27.5820896 L3.32291667,27.5820896 C1.65390625,27.5820896 0.302083333,26.2462687 0.302083333,24.5970149 C0.302083333,22.9477612 1.65390625,21.6119403 3.32291667,21.6119403 L7.85416667,21.6119403 C9.52317708,21.6119403 10.875,22.9477612 10.875,24.5970149" id="Fill-28" fill="#EFEFEE" sketch:type="MSShapeGroup"></path>
                    <path d="M10.875,36.5373134 C10.875,38.1865672 9.52317708,39.5223881 7.85416667,39.5223881 L3.32291667,39.5223881 C1.65390625,39.5223881 0.302083333,38.1865672 0.302083333,36.5373134 C0.302083333,34.8880597 1.65390625,33.5522388 3.32291667,33.5522388 L7.85416667,33.5522388 C9.52317708,33.5522388 10.875,34.8880597 10.875,36.5373134" id="Fill-29" fill="#EFEFEE" sketch:type="MSShapeGroup"></path>
                    <path d="M10.875,48.4776119 C10.875,50.1268657 9.52317708,51.4626866 7.85416667,51.4626866 L3.32291667,51.4626866 C1.65390625,51.4626866 0.302083333,50.1268657 0.302083333,48.4776119 C0.302083333,46.8283582 1.65390625,45.4925373 3.32291667,45.4925373 L7.85416667,45.4925373 C9.52317708,45.4925373 10.875,46.8283582 10.875,48.4776119" id="Fill-30" fill="#EFEFEE" sketch:type="MSShapeGroup"></path>
                    <g id="genius" transform="translate(14.125417, 14.328358)">
                        <g id="Group-3">
                            <mask id="mask-2" sketch:name="Clip 2" fill="white">
                                <use xlink:href="#path-1"></use>
                            </mask>
                            <g id="Clip-2"></g>
                        </g>
                        <path d="M16.4333333,30.1940299 C14.5039573,30.1940299 12.8560021,28.233194 11.8355948,25.0955522 C10.8377833,25.3097015 9.89902917,25.4238806 9.05528021,25.4238806 C6.60055104,25.4238806 5.54522292,24.4992836 5.09279271,23.7238806 C4.12938854,22.0756418 5.01986979,19.6910746 7.24966771,17.2537313 C5.01986979,14.8168955 4.12938854,12.4318209 5.09279271,10.7835821 C5.54522292,10.0081791 6.60055104,9.08358209 9.05528021,9.08358209 C9.89902917,9.08358209 10.8377833,9.19776119 11.8355948,9.41191045 C12.8560021,6.27426866 14.5039573,4.31343284 16.4333333,4.31343284 C18.3627094,4.31343284 20.0106646,6.27426866 21.0310719,9.41191045 C22.0288833,9.19776119 22.9676375,9.08358209 23.8113865,9.08358209 C26.2656021,9.08358209 27.3214437,10.0081791 27.773874,10.7835821 C28.7372781,12.4318209 27.8467969,14.8168955 25.616999,17.2537313 C27.8467969,19.6910746 28.7372781,22.0756418 27.773874,23.7238806 C27.3214437,24.4992836 26.2656021,25.4238806 23.8113865,25.4238806 C22.9676375,25.4238806 22.0288833,25.3097015 21.0310719,25.0955522 C20.0106646,28.233194 18.3627094,30.1940299 16.4333333,30.1940299 M16.4333333,23.5675821 C15.3816,24.0303881 14.339624,24.4145373 13.3366771,24.7108955 C14.1552625,27.1949254 15.3297323,28.6716418 16.4333333,28.6716418 C17.5369344,28.6716418 18.7114042,27.1949254 19.5299896,24.7108955 C18.5270427,24.4145373 17.4850667,24.0303881 16.4333333,23.5675821 M24.5288042,18.3462985 C23.7774927,19.0455821 22.9224458,19.7402985 21.9749615,20.4152239 C21.8573604,21.5585373 21.6771073,22.6338507 21.4413917,23.623403 C22.2923302,23.7994925 23.0949958,23.9014925 23.8113865,23.9014925 C25.1527573,23.9014925 26.086376,23.5680896 26.4402062,22.9626866 C26.9907229,22.0203284 26.2871708,20.2827761 24.5288042,18.3462985 M8.3378625,18.3462985 C6.57898229,20.2827761 5.87594375,22.0203284 6.42646042,22.9626866 C6.78029062,23.5680896 7.71390937,23.9014925 9.05528021,23.9014925 C9.77167083,23.9014925 10.5743365,23.7994925 11.425275,23.623403 C11.1895594,22.6338507 11.0087927,21.5585373 10.8917052,20.4152239 C9.94422083,19.7402985 9.08917396,19.0455821 8.3378625,18.3462985 M20.2684625,21.5453433 C19.947499,21.7432537 19.6203729,21.9396418 19.2834896,22.1314627 C18.949174,22.3222687 18.6133177,22.5034328 18.2764344,22.6790149 C18.8423573,22.8957015 19.3949281,23.0778806 19.9377417,23.2397612 C20.0645865,22.7059104 20.1755115,22.1411045 20.2684625,21.5453433 M12.5982042,21.5453433 C12.6911552,22.1411045 12.8020802,22.7059104 12.928925,23.2397612 C13.4717385,23.0778806 14.0243094,22.8957015 14.5902323,22.6790149 C14.253349,22.5034328 13.9174927,22.3222687 13.5831771,22.1314627 C13.2462937,21.9396418 12.9191677,21.7432537 12.5982042,21.5453433 M16.4333333,12.6216119 C15.7400521,12.947403 15.0442031,13.3000896 14.3534896,13.6938806 C13.6478833,14.096806 12.9864417,14.5119104 12.3655698,14.9331045 C12.307026,15.6750149 12.2736458,16.4488955 12.2736458,17.2537313 C12.2736458,18.0585672 12.307026,18.8324478 12.3655698,19.5743582 C12.9864417,19.9955522 13.6478833,20.4106567 14.3534896,20.8135821 C15.0442031,21.2073731 15.7400521,21.5600597 16.4333333,21.8858507 C17.1266146,21.5600597 17.8224635,21.2073731 18.5131771,20.8135821 C19.2187833,20.4106567 19.880225,19.9955522 20.5010969,19.5743582 C20.5596406,18.8324478 20.5930208,18.0585672 20.5930208,17.2537313 C20.5930208,16.4488955 20.5596406,15.6750149 20.5010969,14.9331045 C19.880225,14.5119104 19.2187833,14.096806 18.5131771,13.6938806 C17.8224635,13.3000896 17.1266146,12.947403 16.4333333,12.6216119 M22.1125906,16.1175224 C22.1254292,16.4915224 22.1336458,16.8695821 22.1336458,17.2537313 C22.1336458,17.6378806 22.1254292,18.0159403 22.1125906,18.3899403 C22.5906979,18.0103582 23.0318302,17.6307761 23.4380417,17.2537313 C23.0318302,16.8766866 22.5906979,16.4971045 22.1125906,16.1175224 M10.754076,16.1175224 C10.2759687,16.4971045 9.83483646,16.8766866 9.428625,17.2537313 C9.83483646,17.6307761 10.2759687,18.0103582 10.754076,18.3899403 C10.7412375,18.0159403 10.7330208,17.6378806 10.7330208,17.2537313 C10.7330208,16.8695821 10.7412375,16.4915224 10.754076,16.1175224 M23.8113865,10.6059701 C23.0949958,10.6059701 22.2923302,10.7079701 21.4413917,10.8840597 C21.6771073,11.8736119 21.8573604,12.9489254 21.9749615,14.0922388 C22.9224458,14.7671642 23.7774927,15.4623881 24.5288042,16.1611642 C26.2871708,14.2246866 26.9907229,12.4871343 26.4402062,11.5447761 C26.086376,10.9393731 25.1527573,10.6059701 23.8113865,10.6059701 M9.05528021,10.6059701 C7.71390937,10.6059701 6.78029062,10.9393731 6.42646042,11.5447761 C5.87594375,12.4871343 6.57898229,14.2246866 8.3378625,16.1611642 C9.08917396,15.4623881 9.94422083,14.7671642 10.8917052,14.0922388 C11.0087927,12.9489254 11.1895594,11.8736119 11.425275,10.8840597 C10.5743365,10.7079701 9.77167083,10.6059701 9.05528021,10.6059701 M19.9377417,11.2677015 C19.3949281,11.4295821 18.8423573,11.6117612 18.2764344,11.8284478 C18.6133177,12.0045373 18.949174,12.185194 19.2834896,12.376 C19.6203729,12.5678209 19.947499,12.764209 20.2684625,12.9621194 C20.1755115,12.3663582 20.0645865,11.8015522 19.9377417,11.2677015 M12.928925,11.2677015 C12.8020802,11.8015522 12.6911552,12.3663582 12.5982042,12.9621194 C12.9191677,12.764209 13.2462937,12.5678209 13.5831771,12.376 C13.9174927,12.185194 14.253349,12.0045373 14.5902323,11.8284478 C14.0243094,11.6117612 13.4717385,11.4295821 12.928925,11.2677015 M16.4333333,5.8358209 C15.3297323,5.8358209 14.1552625,7.31253731 13.3366771,9.79656716 C14.339624,10.0929254 15.3816,10.4770746 16.4333333,10.9398806 C17.4850667,10.4770746 18.5270427,10.0929254 19.5299896,9.79656716 C18.7114042,7.31253731 17.5369344,5.8358209 16.4333333,5.8358209" id="Fill-4" fill="#AF7A51" sketch:type="MSShapeGroup"></path>
                        <path d="M16.4333333,18.7761194 C15.5823948,18.7761194 14.8927083,18.094597 14.8927083,17.2537313 C14.8927083,16.4128657 15.5823948,15.7313433 16.4333333,15.7313433 C17.2842719,15.7313433 17.9739583,16.4128657 17.9739583,17.2537313 C17.9739583,18.094597 17.2842719,18.7761194 16.4333333,18.7761194" id="Fill-5" fill="#AF7A51" sketch:type="MSShapeGroup"></path>
                        <path d="M16.4333333,4.82089552 C14.4659552,4.82089552 12.2736458,9.50985075 12.2736458,16.238806 C12.2736458,22.9677612 14.4659552,27.6567164 16.4333333,27.6567164 C18.4007115,27.6567164 20.5930208,22.9677612 20.5930208,16.238806 C20.5930208,9.50985075 18.4007115,4.82089552 16.4333333,4.82089552 L16.4333333,4.82089552 Z M16.4333333,29.1791045 C13.1836417,29.1791045 10.7330208,23.615791 10.7330208,16.238806 C10.7330208,8.8618209 13.1836417,3.29850746 16.4333333,3.29850746 C19.683025,3.29850746 22.1336458,8.8618209 22.1336458,16.238806 C22.1336458,23.615791 19.683025,29.1791045 16.4333333,29.1791045 L16.4333333,29.1791045 Z" id="Fill-6" fill="#FFFFFF" sketch:type="MSShapeGroup"></path>
                        <path d="M23.8113865,9.59104478 C21.278599,9.59104478 17.7428646,10.7455224 14.3534896,12.6789552 C8.45649063,16.0434328 5.44302813,20.264 6.42646042,21.9477612 C6.78029063,22.5531642 7.71390938,22.8865672 9.05528021,22.8865672 C11.5880677,22.8865672 15.1238021,21.7320896 18.5131771,19.7986567 C24.410176,16.4341791 27.4236385,12.2136119 26.4402063,10.5298507 C26.086376,9.92444776 25.1527573,9.59104478 23.8113865,9.59104478 L23.8113865,9.59104478 Z M9.05528021,24.4089552 C6.60055104,24.4089552 5.54522292,23.4843582 5.09227917,22.7089552 C3.46743333,19.9280597 7.1176875,15.048806 13.5831771,11.3610746 C17.1964563,9.29925373 21.019774,8.06865672 23.8113865,8.06865672 C26.2656021,8.06865672 27.3214438,8.99325373 27.773874,9.76865672 C29.3992333,12.5495522 25.7489792,17.428806 19.2834896,21.1165373 C15.6702104,23.1783582 11.8468927,24.4089552 9.05528021,24.4089552 L9.05528021,24.4089552 Z" id="Fill-7" fill="#FFFFFF" sketch:type="MSShapeGroup"></path>
                        <path d="M23.8113865,9.59104478 C21.278599,9.59104478 17.7428646,10.7455224 14.3534896,12.6789552 C8.45649063,16.0434328 5.44302813,20.264 6.42646042,21.9477612 C6.78029063,22.5531642 7.71390938,22.8865672 9.05528021,22.8865672 C11.5880677,22.8865672 15.1238021,21.7320896 18.5131771,19.7986567 C24.410176,16.4341791 27.4236385,12.2136119 26.4402063,10.5298507 C26.086376,9.92444776 25.1527573,9.59104478 23.8113865,9.59104478 L23.8113865,9.59104478 Z M9.05528021,24.4089552 C6.60055104,24.4089552 5.54522292,23.4843582 5.09227917,22.7089552 C3.46743333,19.9280597 7.1176875,15.048806 13.5831771,11.3610746 C17.1964563,9.29925373 21.019774,8.06865672 23.8113865,8.06865672 C26.2656021,8.06865672 27.3214438,8.99325373 27.773874,9.76865672 C29.3992333,12.5495522 25.7489792,17.428806 19.2834896,21.1165373 C15.6702104,23.1783582 11.8468927,24.4089552 9.05528021,24.4089552 L9.05528021,24.4089552 Z" id="Fill-8" fill="#FFFFFF" sketch:type="MSShapeGroup"></path>
                        <path d="M9.05528021,9.59104478 C7.71390938,9.59104478 6.78029063,9.92444776 6.42646042,10.5298507 C5.44302813,12.2136119 8.45649063,16.4341791 14.3534896,19.7986567 C17.7428646,21.7320896 21.278599,22.8865672 23.8113865,22.8865672 C25.1527573,22.8865672 26.086376,22.5531642 26.4402063,21.9477612 C27.4236385,20.264 24.410176,16.0434328 18.5131771,12.6789552 C15.1238021,10.7455224 11.5880677,9.59104478 9.05528021,9.59104478 L9.05528021,9.59104478 Z M23.8113865,24.4089552 C21.019774,24.4089552 17.1964563,23.1783582 13.5831771,21.1165373 C7.1176875,17.428806 3.46743333,12.5495522 5.09227917,9.76865672 C5.54522292,8.99325373 6.60055104,8.06865672 9.05528021,8.06865672 C11.8468927,8.06865672 15.6702104,9.29925373 19.2834896,11.3610746 C25.7489792,15.048806 29.3992333,19.9280597 27.773874,22.7089552 C27.3214438,23.4843582 26.2656021,24.4089552 23.8113865,24.4089552 L23.8113865,24.4089552 Z" id="Fill-9" fill="#FFFFFF" sketch:type="MSShapeGroup"></path>
                        <path d="M17.9739583,16.238806 C17.9739583,17.0796716 17.2842719,17.761194 16.4333333,17.761194 C15.5823948,17.761194 14.8927083,17.0796716 14.8927083,16.238806 C14.8927083,15.3979403 15.5823948,14.7164179 16.4333333,14.7164179 C17.2842719,14.7164179 17.9739583,15.3979403 17.9739583,16.238806" id="Fill-10" fill="#FFFFFF" sketch:type="MSShapeGroup"></path>
                    </g>
                </g>
            </g>
        </g>
    </g>
</svg>