<?xml version="1.0" encoding="UTF-8" standalone="no"?>
<!-- Created with Inkscape (http://www.inkscape.org/) -->

<svg
   xmlns:sketch="http://www.bohemiancoding.com/sketch/ns"
   xmlns:dc="http://purl.org/dc/elements/1.1/"
   xmlns:cc="http://creativecommons.org/ns#"
   xmlns:rdf="http://www.w3.org/1999/02/22-rdf-syntax-ns#"
   xmlns:svg="http://www.w3.org/2000/svg"
   xmlns="http://www.w3.org/2000/svg"
   xmlns:sodipodi="http://sodipodi.sourceforge.net/DTD/sodipodi-0.dtd"
   xmlns:inkscape="http://www.inkscape.org/namespaces/inkscape"
   width="16"
   height="16"
   id="svg4226"
   version="1.1"
   inkscape:version="0.48.4 r9939"
   inkscape:export-filename="/home/teleyinex/Proyectos/PyBossa/scifabric.github.io/images/favicon.png"
   inkscape:export-xdpi="90"
   inkscape:export-ydpi="90"
   sodipodi:docname="Nuevo documento 5">
  <defs
     id="defs4228" />
  <sodipodi:namedview
     id="base"
     pagecolor="#ffffff"
     bordercolor="#666666"
     borderopacity="1.0"
     inkscape:pageopacity="0.0"
     inkscape:pageshadow="2"
     inkscape:zoom="20.881747"
     inkscape:cx="-2.5276645"
     inkscape:cy="5.4514451"
     inkscape:document-units="px"
     inkscape:current-layer="layer1"
     showgrid="false"
     inkscape:window-width="1920"
     inkscape:window-height="1056"
     inkscape:window-x="1920"
     inkscape:window-y="24"
     inkscape:window-maximized="1" />
  <metadata
     id="metadata4231">
    <rdf:RDF>
      <cc:Work
         rdf:about="">
        <dc:format>image/svg+xml</dc:format>
        <dc:type
           rdf:resource="http://purl.org/dc/dcmitype/StillImage" />
        <dc:title></dc:title>
      </cc:Work>
    </rdf:RDF>
  </metadata>
  <g
     inkscape:label="Capa 1"
     inkscape:groupmode="layer"
     id="layer1"
     transform="translate(0,-1036.3622)">
    <path
       d="m 2.895451,1043.8546 5.1655215,3.898 5.1653995,-2.9557 -5.40001,-3.7184 -4.930911,2.7761 z"
       id="path4174"
       sketch:type="MSShapeGroup"
       inkscape:connector-curvature="0"
       style="opacity:0.29999999999999999;fill:#077ca0;fill-rule:evenodd;stroke:none;fill-opacity:1" />
    <path
       style="fill:#077ca0;fill-rule:evenodd;stroke:none;fill-opacity:1"
       d="m 8.000135,1036.3622 -6.9628551,4.0004 0,7.9992 6.9628551,4.0004 6.962585,-4.0004 0,-7.9994 -6.962585,-4.0002 0,0 z m 4.965069,10.8434 0.04194,-0 -4.9829535,2.8524 -4.9893967,-2.8515 0,-1.145 1.0233781,-0.5699 3.996428,2.2822 2.9910251,-1.7099 -1.9799912,-1.1454 1.9466082,-1.1478 1.95305,1.1505 0,2.2855 -9e-5,0 z m 0,-4.5622 -0.953955,0.5705 -3.946466,-2.2817 -2.9964309,1.7081 2.0080123,1.1418 -2.05018,1.1393 -1.9913888,-1.1546 0,-2.2684 0.037437,0 4.9519594,-2.8524 4.9410118,2.8507 0,1.1451 0,0 z"
       id="path4176"
       sketch:type="MSShapeGroup"
       inkscape:connector-curvature="0" />
  </g>
</svg>
