<?xml version="1.0" encoding="UTF-8" standalone="no"?>
<svg width="64px" height="45px" viewBox="0 0 64 45" version="1.1" xmlns="http://www.w3.org/2000/svg" xmlns:xlink="http://www.w3.org/1999/xlink">
    <!-- Generator: Sketch 3.6 (26304) - http://www.bohemiancoding.com/sketch -->
    <title>hat</title>
    <desc>Created with Sketch.</desc>
    <defs></defs>
    <g id="Page-1" stroke="none" stroke-width="1" fill="none" fill-rule="evenodd">
        <g id="Micropasts-2-v1" transform="translate(-688.000000, -198.000000)">
            <g id="Group-3" transform="translate(228.000000, 198.000000)">
                <g id="hat" transform="translate(460.000000, 0.000000)">
                    <path d="M53.0041379,26.6915854 C53.0946207,27.0768293 52.9037241,27.4719512 52.5451034,27.6409756 L47.4482759,30.0556098 C37.430069,35.2843902 26.9373793,35.2920732 16.5517241,30.0556098 L11.4548966,27.6409756 C11.0962759,27.4719512 10.9053793,27.0768293 10.9958621,26.6915854 L16.5517241,3.04573171 C16.7635862,1.7802439 17.590069,0.789146341 18.6604138,0.296341463 C19.7605517,-0.210731707 21.0593103,-0.0373170732 22.0965517,0.586097561 L25.4278621,2.58914634 C29.4686897,5.01914634 34.5313103,5.01914634 38.5732414,2.58914634 L41.9034483,0.586097561 C42.9406897,-0.0373170732 44.2394483,-0.210731707 45.3395862,0.296341463 C46.409931,0.789146341 47.2364138,1.7802439 47.4482759,3.04573171 L53.0041379,26.6915854" id="Fill-1" fill="#805333"></path>
                    <path d="M45.3395862,0.296341463 C44.2394483,-0.210731707 42.9406897,-0.0373170732 41.9034483,0.586097561 L38.5732414,2.58914634 C34.5313103,5.01914634 29.4686897,5.01914634 25.4278621,2.58914634 L22.0965517,0.586097561 C21.0593103,-0.0373170732 19.7605517,-0.210731707 18.6604138,0.296341463 C17.590069,0.789146341 16.7635862,1.7802439 16.5517241,3.04573171 L12.4656552,20.4365854 L16.5517241,22.3726829 C26.9373793,27.6080488 37.430069,27.6014634 47.4482759,22.3726829 L51.5343448,20.4365854 L47.4482759,3.04573171 C47.2364138,1.7802439 46.409931,0.789146341 45.3395862,0.296341463" id="Fill-2" fill="#CB8252"></path>
                    <path d="M52.4303448,24.2462195 L53.0041379,26.6915854 C53.0946207,27.0768293 52.9037241,27.4719512 52.5451034,27.6409756 L47.4482759,30.0556098 C37.430069,35.2843902 26.9373793,35.2920732 16.5517241,30.0556098 L11.4548966,27.6409756 C11.0962759,27.4719512 10.9053793,27.0768293 10.9958621,26.6915854 L11.5707586,24.2462195 C4.50206897,21.9095122 0,20.5210976 0,26.2964634 C0,36.6014634 14.3271724,44.955 32,44.955 C49.6728276,44.955 64,36.6014634 64,26.2964634 C64,20.5210976 59.497931,21.9095122 52.4303448,24.2462195" id="Fill-3" fill="#CB8252"></path>
                    <path d="M52.5451034,27.6409756 L47.4482759,30.0556098 C37.430069,35.2843902 26.9373793,35.2920732 16.5517241,30.0556098 L11.4548966,27.6409756 C11.0962759,27.4719512 10.9053793,27.0768293 10.9958621,26.6915854 L16.5517241,3.04573171 C16.7635862,1.7802439 17.590069,0.789146341 18.6604138,0.296341463 C19.7605517,-0.210731707 21.0593103,-0.0373170732 22.0965517,0.586097561 L25.4278621,2.58914634 C29.4686897,5.01914634 34.5313103,5.01914634 38.5732414,2.58914634 L41.9034483,0.586097561 C42.9406897,-0.0373170732 44.2394483,-0.210731707 45.3395862,0.296341463 C46.409931,0.789146341 47.2364138,1.7802439 47.4482759,3.04573171 L53.0041379,26.6915854 C53.0946207,27.0768293 52.9037241,27.4719512 52.5451034,27.6409756 Z" id="Fill-1" fill="#805333"></path>
                    <path d="M45.3395862,0.296341463 C44.2394483,-0.210731707 42.9406897,-0.0373170732 41.9034483,0.586097561 L38.5732414,2.58914634 C34.5313103,5.01914634 29.4686897,5.01914634 25.4278621,2.58914634 L22.0965517,0.586097561 C21.0593103,-0.0373170732 19.7605517,-0.210731707 18.6604138,0.296341463 C17.590069,0.789146341 16.7635862,1.7802439 16.5517241,3.04573171 L12.4656552,20.4365854 L16.5517241,22.3726829 C26.9373793,27.6080488 37.430069,27.6014634 47.4482759,22.3726829 L51.5343448,20.4365854 L47.4482759,3.04573171 C47.2364138,1.7802439 46.409931,0.789146341 45.3395862,0.296341463" id="Fill-2" fill="#E8CEA2"></path>
                    <path d="M52.4303448,24.2462195 L53.0041379,26.6915854 C53.0946207,27.0768293 52.9037241,27.4719512 52.5451034,27.6409756 L47.4482759,30.0556098 C37.430069,35.2843902 26.9373793,35.2920732 16.5517241,30.0556098 L11.4548966,27.6409756 C11.0962759,27.4719512 10.9053793,27.0768293 10.9958621,26.6915854 L11.5707586,24.2462195 C4.50206897,21.9095122 0,20.5210976 0,26.2964634 C0,36.6014634 14.3271724,44.955 32,44.955 C49.6728276,44.955 64,36.6014634 64,26.2964634 C64,20.5210976 59.497931,21.9095122 52.4303448,24.2462195" id="Fill-3" fill="#E8CEA2"></path>
                </g>
            </g>
        </g>
    </g>
</svg>