<?xml version="1.0" encoding="UTF-8" standalone="no"?>
<svg width="75px" height="75px" viewBox="0 0 75 75" version="1.1" xmlns="http://www.w3.org/2000/svg" xmlns:xlink="http://www.w3.org/1999/xlink">
    <!-- Generator: Sketch 3.8.3 (29802) - http://www.bohemiancoding.com/sketch -->
    <title>icon1</title>
    <desc>Created with Sketch.</desc>
    <defs></defs>
    <g id="Home" stroke="none" stroke-width="1" fill="none" fill-rule="evenodd">
        <g id="Home-Scifabric-Copy-9" transform="translate(-468.000000, -898.000000)">
            <g id="icon1" transform="translate(468.000000, 898.000000)">
                <g id="browser">
                    <g id="Group">
                        <path d="M75,37.5082031 C75,58.2193359 58.2105469,75.0082031 37.5,75.0082031 C16.7894531,75.0082031 0,58.2193359 0,37.5082031 C0,16.7976563 16.7894531,0.008203125 37.5,0.008203125 C58.2105469,0.008203125 75,16.7976563 75,37.5082031 Z" id="Shape" fill="#CE6D79"></path>
                        <path d="M15.3902344,19.3470703 L59.5734375,19.3470703 C60.9585938,19.3470703 62.08125,20.4703125 62.08125,21.8548828 L62.1175781,53.1574219 C62.1175781,54.5419922 60.9949219,55.6652344 59.6097656,55.6652344 L15.3902344,55.6652344 C14.0056641,55.6652344 12.8824219,54.5419922 12.8824219,53.1574219 L12.8824219,21.8548828 C12.8818359,20.4697266 14.0050781,19.3470703 15.3902344,19.3470703 L15.3902344,19.3470703 Z" id="Shape" fill="#E4E7E8"></path>
                        <path d="M59.1626953,26.9701172 L59.1626953,52.7472656 L15.8191406,52.7472656 L15.8191406,26.9701172 C15.815625,26.9789062 59.1685547,26.9695312 59.1626953,26.9701172 L59.1626953,26.9701172 Z" id="Shape" fill="#2B414D"></path>
                        <path d="M17.2851562,21.6878906 C18.0943359,21.6878906 18.75,22.3435547 18.75,23.1527344 C18.75,23.9619141 18.0943359,24.6175781 17.2851562,24.6175781 C16.4759766,24.6175781 15.8203125,23.9619141 15.8203125,23.1527344 C15.8203125,22.3435547 16.4759766,21.6878906 17.2851562,21.6878906 L17.2851562,21.6878906 Z" id="Shape" fill="#BD3E25"></path>
                        <path d="M21.9726562,21.6878906 C22.7818359,21.6878906 23.4375,22.3435547 23.4375,23.1527344 C23.4375,23.9619141 22.7818359,24.6175781 21.9726562,24.6175781 C21.1634766,24.6175781 20.5078125,23.9619141 20.5078125,23.1527344 C20.5078125,22.3435547 21.1634766,21.6878906 21.9726562,21.6878906 L21.9726562,21.6878906 Z" id="Shape" fill="#E27C3F"></path>
                        <path d="M26.6601562,21.6878906 C27.4693359,21.6878906 28.125,22.3435547 28.125,23.1527344 C28.125,23.9619141 27.4693359,24.6175781 26.6601562,24.6175781 C25.8509766,24.6175781 25.1953125,23.9619141 25.1953125,23.1527344 C25.1953125,22.3435547 25.8509766,21.6878906 26.6601562,21.6878906 L26.6601562,21.6878906 Z" id="Shape" fill="#45B39C"></path>
                    </g>
                </g>
                <path d="M35.7421875,28.7109375 L18.75,28.7109375 C18.4259766,28.7109375 18.1640625,28.9728516 18.1640625,29.296875 L18.1640625,29.8828125 C18.1640625,30.2068359 18.4259766,30.46875 18.75,30.46875 L35.7421875,30.46875 C36.0662109,30.46875 36.328125,30.2068359 36.328125,29.8828125 L36.328125,29.296875 C36.328125,28.9728516 36.0662109,28.7109375 35.7421875,28.7109375 L35.7421875,28.7109375 Z M52.734375,49.21875 L39.2578125,49.21875 C38.9337891,49.21875 38.671875,49.48125 38.671875,49.8052734 L38.671875,50.390625 C38.671875,50.7146484 38.9337891,50.9765625 39.2578125,50.9765625 L52.734375,50.9765625 C53.0583984,50.9765625 53.3203125,50.7146484 53.3203125,50.390625 L53.3203125,49.8052734 C53.3203125,49.48125 53.0583984,49.21875 52.734375,49.21875 L52.734375,49.21875 Z" id="Shape" fill="#E4E7E7"></path>
                <path d="M25.78125,32.8125 L18.75,32.8125 C18.4259766,32.8125 18.1640625,33.0744141 18.1640625,33.3984375 L18.1640625,33.984375 C18.1640625,34.3078125 18.4259766,34.5703125 18.75,34.5703125 L25.78125,34.5703125 C26.1052734,34.5703125 26.3671875,34.3078125 26.3671875,33.984375 L26.3671875,33.3984375 C26.3671875,33.0744141 26.1052734,32.8125 25.78125,32.8125 L25.78125,32.8125 Z M24.0234375,41.0150391 L18.75,41.0150391 C18.4259766,41.0150391 18.1640625,41.2775391 18.1640625,41.6009766 L18.1640625,42.1875 C18.1640625,42.5109375 18.4259766,42.7734375 18.75,42.7734375 L24.0234375,42.7734375 C24.3474609,42.7734375 24.609375,42.5109375 24.609375,42.1875 L24.609375,41.6009766 C24.609375,41.2775391 24.3474609,41.0150391 24.0234375,41.0150391 L24.0234375,41.0150391 Z M45.1171875,41.0150391 L38.0859375,41.0150391 C37.7619141,41.0150391 37.5,41.2775391 37.5,41.6009766 L37.5,42.1875 C37.5,42.5109375 37.7619141,42.7734375 38.0859375,42.7734375 L45.1171875,42.7734375 C45.4412109,42.7734375 45.703125,42.5109375 45.703125,42.1875 L45.703125,41.6009766 C45.703125,41.2775391 45.4412109,41.0150391 45.1171875,41.0150391 L45.1171875,41.0150391 Z M24.0234375,49.21875 L18.75,49.21875 C18.4259766,49.21875 18.1640625,49.4806641 18.1640625,49.8041016 L18.1640625,50.3900391 C18.1640625,50.7146484 18.4259766,50.9765625 18.75,50.9765625 L24.0234375,50.9765625 C24.3474609,50.9765625 24.609375,50.7146484 24.609375,50.3900391 L24.609375,49.8041016 C24.609375,49.4806641 24.3474609,49.21875 24.0234375,49.21875 L24.0234375,49.21875 Z" id="Shape" fill="#E35E53"></path>
                <path d="M47.4609375,32.8125 L29.296875,32.8125 C28.9728516,32.8125 28.7109375,33.0744141 28.7109375,33.3984375 L28.7109375,33.984375 C28.7109375,34.3078125 28.9728516,34.5703125 29.296875,34.5703125 L47.4609375,34.5703125 C47.7849609,34.5703125 48.046875,34.3078125 48.046875,33.984375 L48.046875,33.3984375 C48.046875,33.0744141 47.7849609,32.8125 47.4609375,32.8125 L47.4609375,32.8125 Z M38.671875,45.1166016 L18.75,45.1166016 C18.4259766,45.1166016 18.1640625,45.3796875 18.1640625,45.703125 L18.1640625,46.2890625 C18.1640625,46.6130859 18.4259766,46.875 18.75,46.875 L38.671875,46.875 C38.9958984,46.875 39.2578125,46.6130859 39.2578125,46.2890625 L39.2578125,45.703125 C39.2578125,45.3796875 38.9958984,45.1166016 38.671875,45.1166016 L38.671875,45.1166016 Z" id="Shape" fill="#26A6D1"></path>
                <path d="M54.4921875,36.9134766 L31.640625,36.9134766 C31.3166016,36.9134766 31.0546875,37.1765625 31.0546875,37.5 L31.0546875,38.0859375 C31.0546875,38.4099609 31.3166016,38.6712891 31.640625,38.6712891 L54.4921875,38.6712891 C54.8162109,38.6712891 55.078125,38.4099609 55.078125,38.0859375 L55.078125,37.5 C55.078125,37.1765625 54.8162109,36.9134766 54.4921875,36.9134766 L54.4921875,36.9134766 Z M27.5390625,42.7734375 L34.5703125,42.7734375 C34.8943359,42.7734375 35.15625,42.5109375 35.15625,42.1875 L35.15625,41.6009766 C35.15625,41.2775391 34.8943359,41.0150391 34.5703125,41.0150391 L27.5390625,41.0150391 C27.2150391,41.0150391 26.953125,41.2775391 26.953125,41.6009766 L26.953125,42.1875 C26.953125,42.5109375 27.2150391,42.7734375 27.5390625,42.7734375 L27.5390625,42.7734375 Z M41.6015625,46.875 L48.6328125,46.875 C48.9568359,46.875 49.21875,46.6125 49.21875,46.2890625 L49.21875,45.7025391 C49.21875,45.3791016 48.9568359,45.1166016 48.6328125,45.1166016 L41.6015625,45.1166016 C41.2775391,45.1166016 41.015625,45.3791016 41.015625,45.7025391 L41.015625,46.2890625 C41.015625,46.6125 41.2775391,46.875 41.6015625,46.875 L41.6015625,46.875 Z M35.7421875,49.21875 L27.5390625,49.21875 C27.2150391,49.21875 26.953125,49.4806641 26.953125,49.8041016 L26.953125,50.3900391 C26.953125,50.7146484 27.2150391,50.9765625 27.5390625,50.9765625 L35.7421875,50.9765625 C36.0662109,50.9765625 36.328125,50.7146484 36.328125,50.3900391 L36.328125,49.8041016 C36.328125,49.4806641 36.0662109,49.21875 35.7421875,49.21875 L35.7421875,49.21875 Z" id="Shape" fill="#49B8A4"></path>
                <path d="M18.9592634,38.671875 L28.5016741,38.671875 C28.9414202,38.671875 29.296875,38.409375 29.296875,38.0859375 L29.296875,37.4994141 C29.296875,37.1759766 28.9414202,36.9134766 28.5016741,36.9134766 L18.9592634,36.9134766 C18.5195173,36.9134766 18.1640625,37.1759766 18.1640625,37.4994141 L18.1640625,38.0859375 C18.1640625,38.409375 18.5195173,38.671875 18.9592634,38.671875 L18.9592634,38.671875 Z" id="Path-Copy-2" fill="#26A6D1"></path>
            </g>
        </g>
    </g>
</svg>