<?xml version="1.0" encoding="UTF-8" standalone="no"?>
<svg width="75px" height="75px" viewBox="0 0 75 75" version="1.1" xmlns="http://www.w3.org/2000/svg" xmlns:xlink="http://www.w3.org/1999/xlink">
    <!-- Generator: Sketch 3.8.3 (29802) - http://www.bohemiancoding.com/sketch -->
    <title>icon2</title>
    <desc>Created with Sketch.</desc>
    <defs></defs>
    <g id="Home" stroke="none" stroke-width="1" fill="none" fill-rule="evenodd">
        <g id="Home-Scifabric-Copy-9" transform="translate(-468.000000, -1038.000000)">
            <g id="icon2" transform="translate(468.000000, 1038.000000)">
                <g id="Group">
                    <path d="M37.5,0 C58.2105,0 75,16.7895 75,37.5 C75,58.2105 58.2105,75 37.5,75 C16.7895,75 0,58.2105 0,37.5 C0,16.7895 16.7895,0 37.5,0 L37.5,0 Z" id="Shape" fill="#4D8B80"></path>
                    <path d="M54,47.25 L58.5,47.25 L58.5,45.75 L54,45.75 L54,47.25 L54,47.25 Z M54,44.25 L58.5,44.25 L58.5,42.75 L54,42.75 L54,44.25 L54,44.25 Z M54,41.25 L58.5,41.25 L58.5,39.75 L54,39.75 L54,41.25 L54,41.25 Z M54,38.25 L58.5,38.25 L58.5,36.75 L54,36.75 L54,38.25 L54,38.25 Z M54,35.25 L58.5,35.25 L58.5,33.75 L54,33.75 L54,35.25 L54,35.25 Z M54,32.25 L58.5,32.25 L58.5,30.75 L54,30.75 L54,32.25 L54,32.25 Z M54,29.25 L58.5,29.25 L58.5,27.75 L54,27.75 L54,29.25 L54,29.25 Z M54,24.75 L54,26.25 L58.5,26.25 L58.5,24.75 L54,24.75 L54,24.75 Z M16.5,47.25 L21,47.25 L21,45.75 L16.5,45.75 L16.5,47.25 L16.5,47.25 Z M16.5,44.25 L21,44.25 L21,42.75 L16.5,42.75 L16.5,44.25 L16.5,44.25 Z M16.5,41.25 L21,41.25 L21,39.75 L16.5,39.75 L16.5,41.25 L16.5,41.25 Z M16.5,38.25 L21,38.25 L21,36.75 L16.5,36.75 L16.5,38.25 L16.5,38.25 Z M16.5,35.25 L21,35.25 L21,33.75 L16.5,33.75 L16.5,35.25 L16.5,35.25 Z M16.5,32.25 L21,32.25 L21,30.75 L16.5,30.75 L16.5,32.25 L16.5,32.25 Z M16.5,29.25 L21,29.25 L21,27.75 L16.5,27.75 L16.5,29.25 L16.5,29.25 Z M16.5,26.25 L21,26.25 L21,24.75 L16.5,24.75 L16.5,26.25 L16.5,26.25 Z M48.75,21 L50.25,21 L50.25,16.5 L48.75,16.5 L48.75,21 L48.75,21 Z M45.75,21 L47.25,21 L47.25,16.5 L45.75,16.5 L45.75,21 L45.75,21 Z M42.75,21 L44.25,21 L44.25,16.5 L42.75,16.5 L42.75,21 L42.75,21 Z M39.75,21 L41.25,21 L41.25,16.5 L39.75,16.5 L39.75,21 L39.75,21 Z M36.75,21 L38.25,21 L38.25,16.5 L36.75,16.5 L36.75,21 L36.75,21 Z M33.75,21 L35.25,21 L35.25,16.5 L33.75,16.5 L33.75,21 L33.75,21 Z M30.75,21 L32.25,21 L32.25,16.5 L30.75,16.5 L30.75,21 L30.75,21 Z M27.75,21 L29.25,21 L29.25,16.5 L27.75,16.5 L27.75,21 L27.75,21 Z M48.75,58.5 L50.25,58.5 L50.25,54 L48.75,54 L48.75,58.5 L48.75,58.5 Z M45.75,58.5 L47.25,58.5 L47.25,54 L45.75,54 L45.75,58.5 L45.75,58.5 Z M42.75,58.5 L44.25,58.5 L44.25,54 L42.75,54 L42.75,58.5 L42.75,58.5 Z M39.75,58.5 L41.25,58.5 L41.25,54 L39.75,54 L39.75,58.5 L39.75,58.5 Z M36.75,58.5 L38.25,58.5 L38.25,54 L36.75,54 L36.75,58.5 L36.75,58.5 Z M33.75,58.5 L35.25,58.5 L35.25,54 L33.75,54 L33.75,58.5 L33.75,58.5 Z M30.75,58.5 L32.25,58.5 L32.25,54 L30.75,54 L30.75,58.5 L30.75,58.5 Z M27.75,58.5 L29.25,58.5 L29.25,54 L27.75,54 L27.75,58.5 L27.75,58.5 Z M24.75,21 L26.25,21 L26.25,16.5 L24.75,16.5 L24.75,21 L24.75,21 Z M16.5,50.25 L21,50.25 L21,48.75 L16.5,48.75 L16.5,50.25 L16.5,50.25 Z M54,50.25 L58.5,50.25 L58.5,48.75 L54,48.75 L54,50.25 L54,50.25 Z M24.75,58.5 L26.25,58.5 L26.25,54 L24.75,54 L24.75,58.5 L24.75,58.5 Z M54,47.25 L58.5,47.25 L58.5,45.75 L54,45.75 L54,47.25 L54,47.25 Z M54,44.25 L58.5,44.25 L58.5,42.75 L54,42.75 L54,44.25 L54,44.25 Z M54,41.25 L58.5,41.25 L58.5,39.75 L54,39.75 L54,41.25 L54,41.25 Z M54,38.25 L58.5,38.25 L58.5,36.75 L54,36.75 L54,38.25 L54,38.25 Z M54,35.25 L58.5,35.25 L58.5,33.75 L54,33.75 L54,35.25 L54,35.25 Z M54,32.25 L58.5,32.25 L58.5,30.75 L54,30.75 L54,32.25 L54,32.25 Z M54,29.25 L58.5,29.25 L58.5,27.75 L54,27.75 L54,29.25 L54,29.25 Z M54,24.75 L54,26.25 L58.5,26.25 L58.5,24.75 L54,24.75 L54,24.75 Z M16.5,47.25 L21,47.25 L21,45.75 L16.5,45.75 L16.5,47.25 L16.5,47.25 Z M16.5,44.25 L21,44.25 L21,42.75 L16.5,42.75 L16.5,44.25 L16.5,44.25 Z M16.5,41.25 L21,41.25 L21,39.75 L16.5,39.75 L16.5,41.25 L16.5,41.25 Z M16.5,38.25 L21,38.25 L21,36.75 L16.5,36.75 L16.5,38.25 L16.5,38.25 Z M16.5,35.25 L21,35.25 L21,33.75 L16.5,33.75 L16.5,35.25 L16.5,35.25 Z M16.5,32.25 L21,32.25 L21,30.75 L16.5,30.75 L16.5,32.25 L16.5,32.25 Z M16.5,29.25 L21,29.25 L21,27.75 L16.5,27.75 L16.5,29.25 L16.5,29.25 Z M16.5,26.25 L21,26.25 L21,24.75 L16.5,24.75 L16.5,26.25 L16.5,26.25 Z M48.75,21 L50.25,21 L50.25,16.5 L48.75,16.5 L48.75,21 L48.75,21 Z M45.75,21 L47.25,21 L47.25,16.5 L45.75,16.5 L45.75,21 L45.75,21 Z M42.75,21 L44.25,21 L44.25,16.5 L42.75,16.5 L42.75,21 L42.75,21 Z M39.75,21 L41.25,21 L41.25,16.5 L39.75,16.5 L39.75,21 L39.75,21 Z M36.75,21 L38.25,21 L38.25,16.5 L36.75,16.5 L36.75,21 L36.75,21 Z M33.75,21 L35.25,21 L35.25,16.5 L33.75,16.5 L33.75,21 L33.75,21 Z M30.75,21 L32.25,21 L32.25,16.5 L30.75,16.5 L30.75,21 L30.75,21 Z M27.75,21 L29.25,21 L29.25,16.5 L27.75,16.5 L27.75,21 L27.75,21 Z M48.75,58.5 L50.25,58.5 L50.25,54 L48.75,54 L48.75,58.5 L48.75,58.5 Z M45.75,58.5 L47.25,58.5 L47.25,54 L45.75,54 L45.75,58.5 L45.75,58.5 Z M42.75,58.5 L44.25,58.5 L44.25,54 L42.75,54 L42.75,58.5 L42.75,58.5 Z M39.75,58.5 L41.25,58.5 L41.25,54 L39.75,54 L39.75,58.5 L39.75,58.5 Z M36.75,58.5 L38.25,58.5 L38.25,54 L36.75,54 L36.75,58.5 L36.75,58.5 Z M33.75,58.5 L35.25,58.5 L35.25,54 L33.75,54 L33.75,58.5 L33.75,58.5 Z M30.75,58.5 L32.25,58.5 L32.25,54 L30.75,54 L30.75,58.5 L30.75,58.5 Z M27.75,58.5 L29.25,58.5 L29.25,54 L27.75,54 L27.75,58.5 L27.75,58.5 Z M24.75,21 L26.25,21 L26.25,16.5 L24.75,16.5 L24.75,21 L24.75,21 Z M16.5,50.25 L21,50.25 L21,48.75 L16.5,48.75 L16.5,50.25 L16.5,50.25 Z M54,50.25 L58.5,50.25 L58.5,48.75 L54,48.75 L54,50.25 L54,50.25 Z M24.75,58.5 L26.25,58.5 L26.25,54 L24.75,54 L24.75,58.5 L24.75,58.5 Z" id="Shape" fill="#F2F1EF"></path>
                    <g transform="translate(18.000000, 18.000000)" id="Shape" fill="#CECDCB">
                        <path d="M0,12.75 L3,12.75 L3,14.25 L0,14.25 L0,12.75 Z M0,6.75 L3,6.75 L3,8.25 L0,8.25 L0,6.75 Z M0,9.75 L3,9.75 L3,11.25 L0,11.25 L0,9.75 Z M0,30.75 L3,30.75 L3,32.25 L0,32.25 L0,30.75 Z M0,27.75 L3,27.75 L3,29.25 L0,29.25 L0,27.75 Z M0,18.75 L3,18.75 L3,20.25 L0,20.25 L0,18.75 Z M0,24.75 L3,24.75 L3,26.25 L0,26.25 L0,24.75 Z M6.75,0 L8.25,0 L8.25,3 L6.75,3 L6.75,0 Z M0,21.75 L3,21.75 L3,23.25 L0,23.25 L0,21.75 Z M0,15.75 L3,15.75 L3,17.25 L0,17.25 L0,15.75 Z M24.75,0 L26.25,0 L26.25,3 L24.75,3 L24.75,0 Z M9.75,0 L11.25,0 L11.25,3 L9.75,3 L9.75,0 Z M30.75,0 L32.25,0 L32.25,3 L30.75,3 L30.75,0 Z M21.75,0 L23.25,0 L23.25,3 L21.75,3 L21.75,0 Z M27.75,0 L29.25,0 L29.25,3 L27.75,3 L27.75,0 Z M18.75,0 L20.25,0 L20.25,3 L18.75,3 L18.75,0 Z M12.75,0 L14.25,0 L14.25,3 L12.75,3 L12.75,0 Z M15.75,0 L17.25,0 L17.25,3 L15.75,3 L15.75,0 Z M36,9.75 L39,9.75 L39,11.25 L36,11.25 L36,9.75 Z M36,18.75 L39,18.75 L39,20.25 L36,20.25 L36,18.75 Z M6.75,36 L8.25,36 L8.25,39 L6.75,39 L6.75,36 Z M36,21.75 L39,21.75 L39,23.25 L36,23.25 L36,21.75 Z M36,27.75 L39,27.75 L39,29.25 L36,29.25 L36,27.75 Z M36,6.75 L39,6.75 L39,8.25 L36,8.25 L36,6.75 Z M36,15.75 L39,15.75 L39,17.25 L36,17.25 L36,15.75 Z M36,30.75 L39,30.75 L39,32.25 L36,32.25 L36,30.75 Z M36,12.75 L39,12.75 L39,14.25 L36,14.25 L36,12.75 Z M36,24.75 L39,24.75 L39,26.25 L36,26.25 L36,24.75 Z M15.75,36 L17.25,36 L17.25,39 L15.75,39 L15.75,36 Z M18.75,36 L20.25,36 L20.25,39 L18.75,39 L18.75,36 Z M30.75,36 L32.25,36 L32.25,39 L30.75,39 L30.75,36 Z M9.75,36 L11.25,36 L11.25,39 L9.75,39 L9.75,36 Z M12.75,36 L14.25,36 L14.25,39 L12.75,39 L12.75,36 Z M27.75,36 L29.25,36 L29.25,39 L27.75,39 L27.75,36 Z M24.75,36 L26.25,36 L26.25,39 L24.75,39 L24.75,36 Z M21.75,36 L23.25,36 L23.25,39 L21.75,39 L21.75,36 Z"></path>
                    </g>
                    <path d="M22.5,19.5 L52.5,19.5 C54.15675,19.5 55.5,20.84325 55.5,22.5 L55.5,52.5 C55.5,54.15675 54.15675,55.5 52.5,55.5 L22.5,55.5 C20.84325,55.5 19.5,54.15675 19.5,52.5 L19.5,22.5 C19.5,20.84325 20.84325,19.5 22.5,19.5 L22.5,19.5 Z" id="Shape" fill="#324D5B"></path>
                    <path d="M24,22.5 L51,22.5 C51.828,22.5 52.5,23.172 52.5,24 L52.5,50.25 C52.5,51.078 51.828,51.75 51,51.75 L24,51.75 C23.172,51.75 22.5,51.078 22.5,50.25 L22.5,24 C22.5,23.172 23.172,22.5 24,22.5 L24,22.5 Z" id="Shape" fill="#DADFE1"></path>
                    <path d="M26.625,25.5 C26.004,25.5 25.5,26.004 25.5,26.625 C25.5,27.246 26.004,27.75 26.625,27.75 C27.246,27.75 27.75,27.246 27.75,26.625 C27.75,26.004 27.246,25.5 26.625,25.5 L26.625,25.5 Z M26.625,45 C26.004,45 25.5,45.504 25.5,46.125 C25.5,46.746 26.004,47.25 26.625,47.25 C27.246,47.25 27.75,46.746 27.75,46.125 C27.75,45.504 27.246,45 26.625,45 L26.625,45 Z M48.375,45 C47.754,45 47.25,45.504 47.25,46.125 C47.25,46.746 47.754,47.25 48.375,47.25 C48.996,47.25 49.5,46.746 49.5,46.125 C49.5,45.504 48.996,45 48.375,45 L48.375,45 Z M48.375,27.75 C48.996,27.75 49.5,27.246 49.5,26.625 C49.5,26.004 48.996,25.5 48.375,25.5 C47.754,25.5 47.25,26.004 47.25,26.625 C47.25,27.246 47.754,27.75 48.375,27.75 L48.375,27.75 Z M26.625,25.5 C26.004,25.5 25.5,26.004 25.5,26.625 C25.5,27.246 26.004,27.75 26.625,27.75 C27.246,27.75 27.75,27.246 27.75,26.625 C27.75,26.004 27.246,25.5 26.625,25.5 L26.625,25.5 Z M26.625,45 C26.004,45 25.5,45.504 25.5,46.125 C25.5,46.746 26.004,47.25 26.625,47.25 C27.246,47.25 27.75,46.746 27.75,46.125 C27.75,45.504 27.246,45 26.625,45 L26.625,45 Z M48.375,45 C47.754,45 47.25,45.504 47.25,46.125 C47.25,46.746 47.754,47.25 48.375,47.25 C48.996,47.25 49.5,46.746 49.5,46.125 C49.5,45.504 48.996,45 48.375,45 L48.375,45 Z M48.375,27.75 C48.996,27.75 49.5,27.246 49.5,26.625 C49.5,26.004 48.996,25.5 48.375,25.5 C47.754,25.5 47.25,26.004 47.25,26.625 C47.25,27.246 47.754,27.75 48.375,27.75 L48.375,27.75 Z" id="Shape" fill="#97A5AB"></path>
                    <path d="M38.4075,37.134 C41.68125,36.258 43.929,34.032 43.428,32.163 C42.92625,30.29475 39.86625,29.49 36.5925,30.366 C33.31875,31.24275 31.071,33.468 31.572,35.337 C32.07375,37.20525 35.13375,38.01 38.4075,37.134 L38.4075,37.134 Z M41.625,39.75 L33.375,39.75 C32.754,39.75 32.25,40.254 32.25,40.875 C32.25,41.496 32.754,42 33.375,42 L41.625,42 C42.246,42 42.75,41.496 42.75,40.875 C42.75,40.254 42.246,39.75 41.625,39.75 L41.625,39.75 Z M38.4075,37.134 C41.68125,36.258 43.929,34.032 43.428,32.163 C42.92625,30.29475 39.86625,29.49 36.5925,30.366 C33.31875,31.24275 31.071,33.468 31.572,35.337 C32.07375,37.20525 35.13375,38.01 38.4075,37.134 L38.4075,37.134 Z M41.625,39.75 L33.375,39.75 C32.754,39.75 32.25,40.254 32.25,40.875 C32.25,41.496 32.754,42 33.375,42 L41.625,42 C42.246,42 42.75,41.496 42.75,40.875 C42.75,40.254 42.246,39.75 41.625,39.75 L41.625,39.75 Z" id="Shape" fill="#C9CECF"></path>
                    <path d="M51,50.25 L24,50.25 C23.172,50.25 22.5,49.578 22.5,48.75 L22.5,50.25 C22.5,51.078 23.172,51.75 24,51.75 L51,51.75 C51.828,51.75 52.5,51.078 52.5,50.25 L52.5,48.75 C52.5,49.578 51.828,50.25 51,50.25 L51,50.25 Z" id="Shape" fill="#AEB2B4"></path>
                    <path d="M52.5,54 L22.5,54 C20.84325,54 19.5,52.65675 19.5,51 L19.5,52.5 C19.5,54.15675 20.84325,55.5 22.5,55.5 L52.5,55.5 C54.15675,55.5 55.5,54.15675 55.5,52.5 L55.5,51 C55.5,52.65675 54.15675,54 52.5,54 L52.5,54 Z" id="Shape" fill="#233640"></path>
                    <g id="Shape" fill="#60BB9E">
                        <path d="M27.75,6.74175 L27.75,16.5 L29.25,16.5 L29.25,6.77025 L26.77425,1.56525 C26.33925,1.695 25.9095,1.8345 25.4805,1.97925 L27.75,6.74175 L27.75,6.74175 Z M44.25,0.618 C43.75275,0.52725 43.254,0.44475 42.75,0.3735 L42.75,16.5 L44.25,16.5 L44.25,0.618 L44.25,0.618 Z M39.75,58.5 L41.25,58.5 L41.25,60 L39.75,60 L39.75,58.5 Z M39.75,16.5 L41.25,16.5 L41.25,0.1875 C40.7535,0.138 40.2525,0.1035 39.75,0.0735 L39.75,16.5 L39.75,16.5 Z M30.75,16.5 L32.25,16.5 L32.25,0.3735 C31.746,0.444 31.2465,0.52725 30.75,0.618 L30.75,16.5 L30.75,16.5 Z M30.75,58.5 L32.25,65.25 L33.75,65.25 L32.25,58.5 L30.75,58.5 Z M35.25,0.0735 C34.7475,0.1035 34.2465,0.138 33.75,0.1875 L33.75,16.5 L35.25,16.5 L35.25,0.0735 L35.25,0.0735 Z M38.25,0.01875 L37.5,0 L36.75,0.01875 L36.75,16.5 L38.25,16.5 L38.25,0.01875 L38.25,0.01875 Z M44.25,58.5 L42.75,58.5 L41.25,65.25 L42.75,65.25 L44.25,58.5 Z M58.5,41.25 L74.8125,41.25 C74.862,40.7535 74.89725,40.2525 74.9265,39.75 L58.5,39.75 L58.5,41.25 L58.5,41.25 Z M48.75,11.25 L48.75,16.5 L50.25,16.5 L50.25,12.75 L63.16125,10.16775 C62.6235,9.663 62.076,9.17025 61.50975,8.6985 L48.75,11.25 L48.75,11.25 Z M58.5,44.25 L74.38275,44.25 C74.47275,43.75275 74.556,43.254 74.6265,42.75 L58.5,42.75 L58.5,44.25 L58.5,44.25 Z M58.5,24.75 L58.5,26.25 L62.22975,26.25 L70.02225,18.8385 C69.8385,18.519 69.65625,18.19875 69.46275,17.88525 L62.259,24.75 L58.5,24.75 L58.5,24.75 Z M47.25,1.28775 C46.75425,1.155 46.254,1.035 45.75,0.92175 L45.75,16.5 L47.25,16.5 L47.25,1.28775 L47.25,1.28775 Z M48.75,58.5 L48.75,59.97975 L51.75,65.25 L53.25,65.25 L50.25,60.009 L50.25,58.5 L48.75,58.5 Z M58.5,36.75 L62.25,36.75 L62.25,38.25 L58.5,38.25 L58.5,36.75 Z M58.5,33.75 L63,33.75 L63,35.25 L58.5,35.25 L58.5,33.75 Z M12.741,50.25 L16.5,50.25 L16.5,48.75 L11.27025,48.75 L7.37625,59.83275 C7.82475,60.4365 8.29275,61.02375 8.77575,61.59825 L12.741,50.25 L12.741,50.25 Z M65.7585,62.1375 L63.75,48.75 L58.5,48.75 L58.5,50.25 L62.25,50.25 L64.27425,63.74625 C64.785,63.225 65.27775,62.68725 65.7585,62.1375 L65.7585,62.1375 Z M48,65.259 L47.25,58.5 L45.75,58.5 L46.5,65.22975 L49.32525,73.08675 C49.7715,72.939 50.21475,72.7875 50.65275,72.62325 L48,65.259 L48,65.259 Z M38.25,74.98125 L38.25,58.5 L36.75,58.5 L36.75,74.98125 L37.5,75 L38.25,74.98125 L38.25,74.98125 Z M16.5,44.25 L16.5,42.75 L0.3735,42.75 C0.444,43.254 0.52725,43.75275 0.618,44.25 L16.5,44.25 L16.5,44.25 Z M6.741,47.25 L16.5,47.25 L16.5,45.75 L6.77025,45.75 L1.56525,48.22575 C1.695,48.66075 1.8345,49.0905 1.97925,49.5195 L6.741,47.25 L6.741,47.25 Z M68.259,27.75 L58.5,27.75 L58.5,29.25 L68.22975,29.25 L73.43475,26.77425 C73.305,26.33925 73.1655,25.9095 73.02,25.4805 L68.259,27.75 L68.259,27.75 Z M58.5,30.75 L58.5,32.25 L74.6265,32.25 C74.556,31.746 74.47275,31.2465 74.38275,30.75 L58.5,30.75 L58.5,30.75 Z M58.5,45.75 L58.5,47.25 L73.7115,47.25 C73.845,46.75425 73.965,46.254 74.07825,45.75 L58.5,45.75 L58.5,45.75 Z M24.75,61.5 L21.75,65.25 L23.25,65.25 L26.25,61.5 L26.25,58.5 L24.75,58.5 L24.75,61.5 Z M16.5,29.25 L16.5,27.75 L1.28775,27.75 C1.155,28.24575 1.035,28.746 0.92175,29.25 L16.5,29.25 L16.5,29.25 Z M27,65.25 L28.5,65.25 L29.25,58.5 L27.75,58.5 L27,65.25 Z M11.25,26.25 L16.5,26.25 L16.5,24.75 L11.25,24.75 L4.4055,19.86075 C4.21125,20.223 4.0245,20.58975 3.843,20.95875 L11.25,26.25 L11.25,26.25 Z M24.75,12.74175 L24.75,16.5 L26.25,16.5 L26.25,12.77025 L18.8385,4.97775 C18.51825,5.1615 18.19875,5.3445 17.88525,5.53725 L24.75,12.74175 L24.75,12.74175 Z M12,39.75 L16.5,39.75 L16.5,41.25 L12,41.25 L12,39.75 Z M15.75,33.75 L16.5,33.75 L16.5,35.25 L15.75,35.25 L15.75,33.75 Z M16.5,30.75 L0.618,30.75 C0.52725,31.2465 0.444,31.746 0.3735,32.25 L16.5,32.25 L16.5,30.75 L16.5,30.75 Z M12.75,36.75 L16.5,36.75 L16.5,38.25 L12.75,38.25 L12.75,36.75 Z"></path>
                    </g>
                    <g transform="translate(21.000000, 65.250000)" id="Shape" fill="#EEDC9D">
                        <path d="M21,1.0658141e-14 C20.172,1.0658141e-14 19.5,0.672 19.5,1.5 L19.5,9.6195 C20.51175,9.54 21.513,9.4245 22.5,9.26625 L22.5,1.5 C22.5,0.672 21.828,0 21,0 L21,1.0658141e-14 Z M26.25,0 C25.422,0 24.75,0.672 24.75,1.5 L24.75,8.82825 C25.7655,8.5995 26.7675,8.33925 27.75,8.031 L27.75,1.5 C27.75,0.672 27.078,0 26.25,0 L26.25,0 Z M31.5,0 C30.672,0 30,0.672 30,1.5 L30,7.23525 C31.0215,6.84075 32.0235,6.40725 33,5.928 L33,1.5 C33,0.672 32.328,1.0658141e-14 31.5,1.0658141e-14 L31.5,0 Z M12,0 C11.172,0 10.5,0.672 10.5,1.5 L10.5,9.26625 C11.487,9.4245 12.48825,9.53925 13.5,9.6195 L13.5,1.5 C13.5,0.672 12.828,0 12,0 L12,0 Z M6.75,0 C5.922,0 5.25,0.672 5.25,1.5 L5.25,8.031 C6.2325,8.33925 7.2345,8.60025 8.25,8.82825 L8.25,1.5 C8.25,0.672 7.578,0 6.75,0 L6.75,0 Z M1.5,1.0658141e-14 C0.672,1.0658141e-14 0,0.672 0,1.5 L0,5.928 C0.9765,6.40725 1.9785,6.84075 3,7.23525 L3,1.5 C3,0.672 2.328,0 1.5,0 L1.5,1.0658141e-14 Z"></path>
                    </g>
                    <path d="M66.75,34.5 C65.09325,34.5 63.75,35.84325 63.75,37.5 C63.75,39.15675 65.09325,40.5 66.75,40.5 C68.40675,40.5 69.75,39.15675 69.75,37.5 C69.75,35.84325 68.40675,34.5 66.75,34.5 L66.75,34.5 Z M8.25,34.5 C6.59325,34.5 5.25,35.84325 5.25,37.5 C5.25,39.15675 6.59325,40.5 8.25,40.5 C9.90675,40.5 11.25,39.15675 11.25,37.5 C11.25,35.84325 9.90675,34.5 8.25,34.5 L8.25,34.5 Z M66.75,34.5 C65.09325,34.5 63.75,35.84325 63.75,37.5 C63.75,39.15675 65.09325,40.5 66.75,40.5 C68.40675,40.5 69.75,39.15675 69.75,37.5 C69.75,35.84325 68.40675,34.5 66.75,34.5 L66.75,34.5 Z M8.25,34.5 C6.59325,34.5 5.25,35.84325 5.25,37.5 C5.25,39.15675 6.59325,40.5 8.25,40.5 C9.90675,40.5 11.25,39.15675 11.25,37.5 C11.25,35.84325 9.90675,34.5 8.25,34.5 L8.25,34.5 Z" id="Shape" fill="#278272"></path>
                    <path d="M66.75,35.625 C67.78425,35.625 68.625,36.46575 68.625,37.5 C68.625,38.53425 67.78425,39.375 66.75,39.375 C65.71575,39.375 64.875,38.53425 64.875,37.5 C64.875,36.46575 65.71575,35.625 66.75,35.625 L66.75,35.625 Z M8.25,35.625 C9.28425,35.625 10.125,36.46575 10.125,37.5 C10.125,38.53425 9.28425,39.375 8.25,39.375 C7.21575,39.375 6.375,38.53425 6.375,37.5 C6.375,36.46575 7.21575,35.625 8.25,35.625 L8.25,35.625 Z M66.75,34.5 C65.09325,34.5 63.75,35.84325 63.75,37.5 C63.75,39.15675 65.09325,40.5 66.75,40.5 C68.40675,40.5 69.75,39.15675 69.75,37.5 C69.75,35.84325 68.40675,34.5 66.75,34.5 L66.75,34.5 Z M8.25,34.5 C6.59325,34.5 5.25,35.84325 5.25,37.5 C5.25,39.15675 6.59325,40.5 8.25,40.5 C9.90675,40.5 11.25,39.15675 11.25,37.5 C11.25,35.84325 9.90675,34.5 8.25,34.5 L8.25,34.5 Z M66.75,35.625 C67.78425,35.625 68.625,36.46575 68.625,37.5 C68.625,38.53425 67.78425,39.375 66.75,39.375 C65.71575,39.375 64.875,38.53425 64.875,37.5 C64.875,36.46575 65.71575,35.625 66.75,35.625 L66.75,35.625 Z M8.25,35.625 C9.28425,35.625 10.125,36.46575 10.125,37.5 C10.125,38.53425 9.28425,39.375 8.25,39.375 C7.21575,39.375 6.375,38.53425 6.375,37.5 C6.375,36.46575 7.21575,35.625 8.25,35.625 L8.25,35.625 Z M66.75,34.5 C65.09325,34.5 63.75,35.84325 63.75,37.5 C63.75,39.15675 65.09325,40.5 66.75,40.5 C68.40675,40.5 69.75,39.15675 69.75,37.5 C69.75,35.84325 68.40675,34.5 66.75,34.5 L66.75,34.5 Z M8.25,34.5 C6.59325,34.5 5.25,35.84325 5.25,37.5 C5.25,39.15675 6.59325,40.5 8.25,40.5 C9.90675,40.5 11.25,39.15675 11.25,37.5 C11.25,35.84325 9.90675,34.5 8.25,34.5 L8.25,34.5 Z" id="Shape" fill="#F7DE9D"></path>
                </g>
                <path d="M41.4024089,34.3997194 C40.4983533,34.0079533 39.5911322,33.6971563 38.6794795,33.4667056 C37.769726,33.2362549 36.9979867,32.9690567 36.3661607,32.6638652 C35.7330685,32.3586738 35.4177886,31.9388799 35.4177886,31.4038606 C35.4177886,30.333822 36.5301316,29.7988028 38.7560836,29.7988028 C40.4255477,29.7988028 41.9183791,30.1039942 43.2339446,30.7131314 L43.2339446,27.2233607 C41.6277898,26.3152605 39.8633619,25.8605875 37.9400278,25.8605875 C35.8913416,25.8605875 34.1813596,26.3738074 32.8088158,27.4002472 C31.4362719,28.4273098 30.75,29.8984571 30.75,31.8149348 C30.75,33.033832 31.0697115,34.0447008 31.7085016,34.8475411 C32.3460254,35.6503815 33.1177647,36.2252625 34.0224535,36.5740527 C34.9271422,36.9222201 35.8305647,37.2242973 36.7358865,37.4790387 C37.6399421,37.7350258 38.4116815,38.0327432 39.0492053,38.3746822 C39.6886284,38.717244 40.00834,39.1688028 40.00834,39.7287356 C40.00834,40.3378728 39.8063836,40.7950371 39.4005715,41.0996057 C38.9960256,41.40542 38.1229915,41.5573929 36.7827353,41.5573929 C34.8353438,41.5573929 33.0076067,40.9968372 31.3001571,39.8775943 L31.3001571,43.9646682 C33.1722107,45.010416 35.2208969,45.5317328 37.446849,45.5317328 C39.6221537,45.5317328 41.3701212,45.0041876 42.6920177,43.9466059 C44.0139142,42.8884013 44.6748624,41.5573929 44.6748624,39.9523351 C44.6748624,38.5092156 44.3551508,37.3202146 43.7157277,36.3872008 C43.0782039,35.454187 42.3064646,34.7914856 41.4024089,34.3997194 L41.4024089,34.3997194 Z" id="Fill-49-Copy" fill="#1879A0"></path>
            </g>
        </g>
    </g>
</svg>