<?xml version="1.0" encoding="UTF-8" standalone="no"?>
<svg width="263px" height="61px" viewBox="0 0 263 61" version="1.1" xmlns="http://www.w3.org/2000/svg" xmlns:xlink="http://www.w3.org/1999/xlink" xmlns:sketch="http://www.bohemiancoding.com/sketch/ns">
    <!-- Generator: Sketch 3.5.2 (25235) - http://www.bohemiancoding.com/sketch -->
    <title>Group</title>
    <desc>Created with Sketch.</desc>
    <defs></defs>
    <g id="Page-1" stroke="none" stroke-width="1" fill="none" fill-rule="evenodd" sketch:type="MSPage">
        <g id="Desktop" sketch:type="MSArtboardGroup" transform="translate(-312.000000, -113.000000)">
            <g id="Group" sketch:type="MSLayerGroup" transform="translate(312.000000, 113.000000)">
                <path d="M44.5488,31.2632 L36.7288,44.9692 C36.4778,45.4052 35.8688,45.9092 35.3668,45.9092 L19.7278,45.9092 C19.2268,45.9092 18.6168,45.4052 18.3648,44.9692 L10.5458,31.3402 C10.2948,30.9062 10.2948,30.1632 10.5458,29.7292 L18.3648,16.1162 C18.6168,15.6822 19.2258,15.2692 19.7278,15.2692 L35.3668,15.2692 C35.8668,15.2692 36.4778,15.6612 36.7288,16.0972 L44.5488,29.6702 C44.7988,30.1042 44.7988,30.8282 44.5488,31.2632 M52.7188,14.7332 L28.4028,0.6652 C27.8718,0.3582 27.0208,0.3582 26.4868,0.6652 L1.9268,14.7332 C1.3938,15.0392 0.7478,15.7912 0.7478,16.4082 L0.7478,44.5402 C0.7478,45.1572 1.4018,45.9082 1.9358,46.2162 L26.3948,60.2832 C26.9268,60.5912 27.8488,60.5912 28.3828,60.2832 L52.6918,46.2162 C53.2238,45.9092 53.6178,45.1592 53.6178,44.5402 L53.6178,16.4082 C53.6178,15.7922 53.2548,15.0412 52.7188,14.7332" id="Fill-1" fill="#1879A0" sketch:type="MSShapeGroup"></path>
                <path d="M52.7188,14.7329 L28.4038,0.6659 C28.1908,0.5429 27.9478,0.4709 27.6688,0.4459 L36.6808,16.0329 C36.6918,16.0489 36.7118,16.0659 36.7218,16.0829 L38.7648,19.6269 L43.8848,28.4899 L43.8758,28.4959 L44.5478,29.6639 C44.7988,30.0969 44.7988,30.8279 44.5488,31.2629 L44.1028,32.0359 L44.1038,32.0359 L27.6688,60.5039 C27.9478,60.4789 28.2178,60.4069 28.4308,60.2829 L52.7158,46.2159 C53.2478,45.9089 53.6178,45.1589 53.6178,44.5409 L53.6178,16.4079 C53.6178,15.7939 53.2548,15.0419 52.7188,14.7329" id="Fill-3" fill="#43A5C9" sketch:type="MSShapeGroup"></path>
                <path d="M167.6436,35.2212 C167.6436,38.3182 165.8056,39.8662 162.1306,39.8662 L162.0696,39.8662 C158.2146,39.8662 156.2866,38.2282 156.2866,34.9512 C156.3056,32.2942 158.6246,30.9662 163.2386,30.9662 C164.4566,30.9862 165.9256,31.1172 167.6436,31.3562 L167.6436,35.2212 Z M161.5006,14.7842 C158.0646,14.7842 154.9376,15.3532 152.1216,16.4922 L152.1216,22.4562 C154.6586,21.4172 157.6446,20.8972 161.0816,20.8972 C165.4156,20.8972 167.5836,22.8262 167.5836,26.6812 C165.6656,26.4022 163.8686,26.2612 162.1896,26.2612 C159.8526,26.2612 157.8256,26.5262 156.1076,27.0552 C154.3886,27.5842 153.0896,28.2202 152.2106,28.9582 C151.3316,29.6992 150.6376,30.5572 150.1276,31.5362 C149.6196,32.5142 149.3046,33.3282 149.1856,33.9782 C149.0646,34.6262 149.0036,35.2622 149.0036,35.8802 C149.0036,38.7982 150.0686,41.2752 152.1966,43.3132 C154.3246,45.3502 157.6346,46.3672 162.1306,46.3672 C166.5046,46.3672 169.7466,45.3552 171.8536,43.3272 C173.9606,41.3002 175.0156,38.8772 175.0156,36.0602 L175.0156,27.7892 C175.0156,23.5752 173.8566,20.3542 171.5396,18.1252 C169.2216,15.8992 165.8756,14.7842 161.5006,14.7842 L161.5006,14.7842 Z M254.4116,21.1672 C257.0686,21.1672 259.6056,21.6572 262.0216,22.6352 L262.0216,16.4922 C259.1246,15.3532 256.1796,14.7842 253.1836,14.7842 C248.5276,14.7842 244.9526,16.1432 242.4546,18.8602 C239.9566,21.5762 238.7086,25.4922 238.7086,30.6072 C238.7086,35.6802 239.9566,39.5752 242.4546,42.2932 C244.9526,45.0112 248.5276,46.3672 253.1836,46.3672 C256.1796,46.3672 259.1246,45.7992 262.0216,44.6602 L262.0216,38.5182 C259.4846,39.5362 256.9486,40.0462 254.4116,40.0462 C251.5936,40.0462 249.5006,39.3912 248.1326,38.0822 C246.7636,36.7762 246.0796,34.2832 246.0796,30.6072 C246.0796,26.8902 246.7636,24.3892 248.1326,23.1012 C249.5006,21.8122 251.5936,21.1672 254.4116,21.1672 L254.4116,21.1672 Z M196.6176,37.6572 C195.6776,39.2502 194.0396,40.0462 191.7036,40.0462 C188.0276,40.0462 186.1896,38.9442 186.1896,36.7392 L186.1896,21.0492 C187.5676,20.7082 189.1566,20.5372 190.9536,20.5372 C193.2506,20.5372 195.0036,21.2252 196.2126,22.5972 C197.4206,23.9692 198.0256,26.3792 198.0256,29.8252 C198.0256,33.4522 197.5566,36.0642 196.6176,37.6572 L196.6176,37.6572 Z M191.2236,14.7842 C189.6246,14.7842 187.9476,14.9452 186.1896,15.2642 L186.1896,3.4882 L178.8186,3.4882 L178.8186,36.0462 C178.8186,38.8872 179.8716,41.3172 181.9786,43.3382 C184.0856,45.3582 187.3286,46.3672 191.7036,46.3672 C192.7166,46.3672 193.7266,46.2892 194.7306,46.1282 C195.7356,45.9672 196.9186,45.5472 198.2816,44.8682 C199.6446,44.1872 200.8116,43.3062 201.7866,42.2252 C202.7616,41.1462 203.6066,39.5592 204.3246,37.4672 C205.0396,35.3752 205.3976,32.9582 205.3976,30.2172 C205.3976,25.2332 204.1736,21.4142 201.7276,18.7622 C199.2806,16.1102 195.7796,14.7842 191.2236,14.7842 L191.2236,14.7842 Z M227.4456,45.8892 L234.7866,45.8892 L234.7866,15.2642 L227.4456,15.2642 L227.4456,45.8892 Z M149.7276,15.2642 L142.6856,15.2642 C142.6856,12.6072 143.1056,10.8202 143.9446,9.9012 C144.7836,8.9822 146.1626,8.5222 148.0806,8.5222 C148.4396,8.5222 148.9896,8.5622 149.7276,8.6422 L149.7276,2.8582 C148.7086,2.6582 147.7096,2.5582 146.7316,2.5582 C139.1606,2.5582 135.3536,6.7932 135.3146,15.2642 L130.1006,15.2642 L130.1006,21.5872 L135.3146,21.5872 L135.3146,45.8892 L142.6856,45.8892 L142.6856,21.5872 L149.7276,21.5872 L149.7276,15.2642 Z M85.3866,28.4942 C83.9586,27.8652 82.5256,27.3662 81.0866,26.9962 C79.6486,26.6262 78.4296,26.1972 77.4316,25.7072 C76.4316,25.2172 75.9336,24.5432 75.9336,23.6842 C75.9336,21.9662 77.6906,21.1072 81.2066,21.1072 C83.8436,21.1072 86.2006,21.5972 88.2796,22.5752 L88.2796,16.9722 C85.7416,15.5142 82.9556,14.7842 79.9176,14.7842 C76.6816,14.7842 73.9806,15.6082 71.8126,17.2562 C69.6446,18.9052 68.5606,21.2672 68.5606,24.3442 C68.5606,26.3012 69.0656,27.9242 70.0746,29.2132 C71.0826,30.5022 72.3006,31.4252 73.7296,31.9852 C75.1586,32.5442 76.5856,33.0292 78.0156,33.4382 C79.4436,33.8492 80.6626,34.3272 81.6706,34.8762 C82.6796,35.4262 83.1846,36.1512 83.1846,37.0502 C83.1846,38.0282 82.8646,38.7622 82.2246,39.2512 C81.5856,39.7422 80.2066,39.9862 78.0896,39.9862 C75.0136,39.9862 72.1266,39.0862 69.4296,37.2892 L69.4296,43.8512 C72.3866,45.5302 75.6226,46.3672 79.1386,46.3672 C82.5746,46.3672 85.3366,45.5202 87.4236,43.8222 C89.5116,42.1232 90.5556,39.9862 90.5556,37.4092 C90.5556,35.0922 90.0506,33.1832 89.0416,31.6852 C88.0336,30.1872 86.8146,29.1232 85.3866,28.4942 L85.3866,28.4942 Z M119.3456,45.8892 L126.6876,45.8892 L126.6876,15.2642 L119.3456,15.2642 L119.3456,45.8892 Z M96.5446,18.8602 C94.0476,21.5762 92.7996,25.4922 92.7996,30.6072 C92.7996,35.6802 94.0476,39.5752 96.5446,42.2932 C99.0426,45.0112 102.6186,46.3672 107.2736,46.3672 C110.2696,46.3672 113.2166,45.7992 116.1136,44.6602 L116.1136,38.5182 C113.5766,39.5362 111.0396,40.0462 108.5016,40.0462 C105.6856,40.0462 103.5916,39.3912 102.2246,38.0822 C100.8556,36.7762 100.1716,34.2832 100.1716,30.6072 C100.1716,26.8902 100.8556,24.3892 102.2246,23.1012 C103.5916,21.8122 105.6856,21.1672 108.5016,21.1672 C111.1586,21.1672 113.6956,21.6572 116.1136,22.6352 L116.1136,16.4922 C113.2166,15.3532 110.2696,14.7842 107.2736,14.7842 C102.6186,14.7842 99.0426,16.1432 96.5446,18.8602 L96.5446,18.8602 Z M211.1176,17.1442 C210.2376,17.4712 209.5486,17.7532 209.0506,17.9912 L209.0506,45.8892 L216.4216,45.8892 L216.4216,22.1282 C218.6186,21.4882 221.2556,21.1482 224.3316,21.1072 L224.3316,14.7842 C221.7146,14.8252 219.0786,15.1462 216.4216,15.7492 C213.7646,16.3532 211.9966,16.8182 211.1176,17.1442 L211.1176,17.1442 Z" id="Fill-7" fill="#1879A0" sketch:type="MSShapeGroup"></path>
            </g>
        </g>
    </g>
</svg>