<?xml version="1.0" encoding="UTF-8" standalone="no"?>
<svg width="200px" height="45px" viewBox="0 0 200 45" version="1.1" xmlns="http://www.w3.org/2000/svg" xmlns:xlink="http://www.w3.org/1999/xlink" xmlns:sketch="http://www.bohemiancoding.com/sketch/ns">
    <!-- Generator: Sketch 3.3.3 (12072) - http://www.bohemiancoding.com/sketch -->
    <title>nav-logo-blue</title>
    <desc>Created with Sketch.</desc>
    <defs></defs>
    <g id="Page-1" stroke="none" stroke-width="1" fill="none" fill-rule="evenodd" sketch:type="MSPage">
        <g id="nav-logo-blue" sketch:type="MSArtboardGroup" fill="#077CA0">
            <g id="Group-Copy" sketch:type="MSLayerGroup" transform="translate(3.000000, 1.000000)">
                <path d="M40.5194805,32.5448649 L41.8965144,30.9207827 C43.9478315,32.769327 45.9148632,33.6935991 48.6410218,33.6935991 C51.2826158,33.6935991 53.0249795,32.2931446 53.0249795,30.3606009 L53.0249795,30.3049721 C53.0249795,28.4847985 52.0414636,27.4481562 47.909804,26.579791 C43.3857427,25.59989 41.3062374,24.1435286 41.3062374,20.9226224 L41.3062374,20.8661591 C41.3062374,17.7859937 44.0321169,15.5177303 47.7691422,15.5177303 C50.6354044,15.5177303 52.6872797,16.3299104 54.6824995,17.9256219 L53.3897511,19.634538 C51.5631021,18.150084 49.736453,17.5061809 47.7133241,17.5061809 C45.1557363,17.5061809 43.5261253,18.9066354 43.5261253,20.6711803 L43.5261253,20.7268091 C43.5261253,22.5753534 44.5375503,23.6117175 48.8654107,24.5351552 C53.2493685,25.487798 55.2727765,27.084344 55.2727765,30.0807881 L55.2727765,30.1372513 C55.2727765,33.4977858 52.4626116,35.682328 48.5561782,35.682328 C45.4370598,35.6817717 42.8800302,34.6454075 40.5194805,32.5448649 L40.5194805,32.5448649 Z" id="Shape" sketch:type="MSShapeGroup"></path>
                <path d="M58.9274701,25.6552407 L58.9274701,25.5996119 C58.9274701,20.053979 63.0864806,15.4609889 68.8756604,15.4609889 C72.444394,15.4609889 74.5802756,16.7209807 76.5470282,18.5698032 L75.0293326,20.1944416 C73.3715335,18.6259882 71.5166963,17.5059028 68.8471931,17.5059028 C64.4917026,17.5059028 61.2319225,21.0349925 61.2319225,25.5431487 L61.2319225,25.5996119 C61.2319225,30.136695 64.5196117,33.6935991 68.8471931,33.6935991 C71.5451635,33.6935991 73.3157153,32.6569569 75.1984616,30.8651539 L76.6595018,32.2931446 C74.6081847,34.3658729 72.3601086,35.7382349 68.7910959,35.7382349 C63.1141106,35.7379567 58.9274701,31.284873 58.9274701,25.6552407 L58.9274701,25.6552407 Z" id="Shape" sketch:type="MSShapeGroup"></path>
                <path d="M80.7350642,15.797543 L82.9549522,15.797543 L82.9549522,35.4014026 L80.7350642,35.4014026 L80.7350642,15.797543 L80.7350642,15.797543 Z" id="Shape" sketch:type="MSShapeGroup"></path>
                <path d="M88.2950748,15.797543 L103.273318,15.797543 L103.273318,19.7182593 L92.6226562,19.7182593 L92.6226562,23.890974 L102.008479,23.890974 L102.008479,27.8122465 L92.6226562,27.8122465 L92.6226562,35.4016808 L88.2950748,35.4016808 L88.2950748,15.797543 L88.2950748,15.797543 Z" id="Shape" sketch:type="MSShapeGroup"></path>
                <path d="M111.227126,15.6570803 L115.217286,15.6570803 L123.64806,35.4014026 L119.12372,35.4014026 L117.325259,31.0036696 L109.007238,31.0036696 L107.208777,35.4014026 L102.796631,35.4014026 L111.227126,15.6570803 L111.227126,15.6570803 Z M115.779375,27.1961578 L113.165969,20.8386229 L110.552005,27.1961578 L115.779375,27.1961578 L115.779375,27.1961578 Z" id="Shape" sketch:type="MSShapeGroup"></path>
                <path d="M126.684289,15.797543 L135.817534,15.797543 C138.065331,15.797543 139.836162,16.4136317 140.96006,17.5339953 C141.85957,18.4298968 142.308906,19.5218897 142.308906,20.865881 L142.308906,20.9223442 C142.308906,23.1341444 141.128631,24.3660437 139.723409,25.1512439 C141.999673,26.0190529 143.404616,27.3357861 143.404616,29.9678617 L143.404616,30.0243249 C143.404616,33.6093215 140.482257,35.4011245 136.041923,35.4011245 L126.684009,35.4011245 L126.684009,15.797543 L126.684289,15.797543 Z M134.890115,23.7226969 C136.800771,23.7226969 138.009234,23.1068863 138.009234,21.6508031 L138.009234,21.5943399 C138.009234,20.3059773 136.997809,19.5777966 135.17116,19.5777966 L130.899396,19.5777966 L130.899396,23.7226969 L134.890115,23.7226969 L134.890115,23.7226969 Z M136.042202,31.6208709 C137.953136,31.6208709 139.105223,30.9491534 139.105223,29.4927919 L139.105223,29.4366069 C139.105223,28.1201518 138.121986,27.3079717 135.901819,27.3079717 L130.899675,27.3079717 L130.899675,31.621149 L136.042202,31.621149 L136.042202,31.6208709 Z" id="Shape" sketch:type="MSShapeGroup"></path>
                <path d="M146.975024,15.797543 L155.967887,15.797543 C158.469098,15.797543 160.408221,16.4967968 161.70097,17.7857155 C162.796959,18.8779866 163.386957,20.4180693 163.386957,22.2663355 L163.386957,22.3227987 C163.386957,25.4872418 161.672502,27.4751362 159.17157,28.3996864 L163.977234,35.4014026 L158.918993,35.4014026 L154.703606,29.1278672 L151.303164,29.1278672 L151.303164,35.4014026 L146.975583,35.4014026 L146.975024,15.797543 L146.975024,15.797543 Z M155.686284,25.319521 C157.793978,25.319521 159.002162,24.1991574 159.002162,22.5464264 L159.002162,22.4907976 C159.002162,20.6422533 157.709413,19.6898886 155.601999,19.6898886 L151.302327,19.6898886 L151.302327,25.319521 L155.686284,25.319521 L155.686284,25.319521 Z" id="Shape" sketch:type="MSShapeGroup"></path>
                <path d="M167.490428,15.797543 L171.81801,15.797543 L171.81801,35.4014026 L167.490428,35.4014026 L167.490428,15.797543 L167.490428,15.797543 Z" id="Shape" sketch:type="MSShapeGroup"></path>
                <path d="M175.865384,25.6552407 L175.865384,25.5996119 C175.865384,20.0264427 180.080771,15.4609889 186.122807,15.4609889 C189.831923,15.4609889 192.05209,16.6937226 193.878739,18.4858037 L191.124951,21.6508031 C189.607534,20.2784411 188.06165,19.4381684 186.094898,19.4381684 C182.778741,19.4381684 180.390562,22.1826142 180.390562,25.5431487 L180.390562,25.5996119 C180.390562,28.9601464 182.722644,31.7607772 186.094898,31.7607772 C188.342695,31.7607772 189.719729,30.8648758 191.265612,29.4644213 L194.019401,32.2366814 C191.995714,34.3928529 189.747917,35.7382349 185.953957,35.7382349 C180.164498,35.7379567 175.865384,31.284873 175.865384,25.6552407 L175.865384,25.6552407 Z" id="Shape" sketch:type="MSShapeGroup"></path>
                <path d="M27.2880068,0 L22.7922078,2.5764459 L22.7922078,7.74232595 L27.2866832,10.3178586 L31.790322,7.74232595 L31.790322,2.5764459 L27.2880068,0 L27.2880068,0 Z M29.5417098,6.44390519 L27.2933012,7.74222448 L25.0411254,6.44390519 L25.0411254,3.87588137 L27.2888213,2.57634442 L29.5417098,3.87588137 L29.5417098,6.44390519 L29.5417098,6.44390519 Z" id="Shape" sketch:type="MSShapeGroup"></path>
                <path d="M4.19950916,23.264018 L15.8737073,32.0736493 L27.5476289,25.3937582 L15.3434825,16.9901537 L4.19950916,23.264018 Z" id="Shape" opacity="0.300000012" sketch:type="MSShapeGroup"></path>
                <path d="M15.7362128,6.33116883 L-3.55271368e-15,15.3719155 L-3.55271368e-15,33.4506693 L15.7362128,42.4916189 L31.4718147,33.4506693 L31.4718147,15.3718141 L15.7362128,6.33116883 L15.7362128,6.33116883 Z M26.9573833,30.837288 L27.0521742,30.8350556 L15.7905827,37.2813961 L4.51443136,30.8369836 L4.51443136,28.2493759 L6.82728962,26.9613052 L15.8593086,32.1189661 L22.6190941,28.2546524 L18.1442693,25.66603 L22.5436482,23.0720296 L26.9575869,25.6722197 L26.9575869,30.837288 L26.9573833,30.837288 Z M26.9573833,20.5268368 L24.8014239,21.8161251 L15.8823191,16.6594789 L9.11031573,20.5199367 L13.6484703,23.1002385 L9.0150157,25.6752638 L4.51443136,23.065637 L4.51443136,17.9391276 L4.59904067,17.9426791 L15.7905827,11.4961357 L26.9573833,17.9391276 L26.9573833,20.5268368 L26.9573833,20.5268368 Z" id="Shape" sketch:type="MSShapeGroup"></path>
            </g>
        </g>
    </g>
</svg>