<?xml version="1.0" encoding="UTF-8" standalone="no"?>
<svg width="200px" height="45px" viewBox="0 0 200 45" version="1.1" xmlns="http://www.w3.org/2000/svg" xmlns:xlink="http://www.w3.org/1999/xlink" xmlns:sketch="http://www.bohemiancoding.com/sketch/ns">
    <!-- Generator: Sketch 3.3.3 (12072) - http://www.bohemiancoding.com/sketch -->
    <title>nav-logo-black</title>
    <desc>Created with Sketch.</desc>
    <defs></defs>
    <g id="Page-1" stroke="none" stroke-width="1" fill="none" fill-rule="evenodd" sketch:type="MSPage">
        <g id="nav-logo-black" sketch:type="MSArtboardGroup" fill="#000000">
            <path d="M43.5194805,33.5448649 L44.8965144,31.9207827 C46.9478315,33.769327 48.9148632,34.6935991 51.6410218,34.6935991 C54.2826158,34.6935991 56.0249795,33.2931446 56.0249795,31.3606009 L56.0249795,31.3049721 C56.0249795,29.4847985 55.0414636,28.4481562 50.909804,27.579791 C46.3857427,26.59989 44.3062374,25.1435286 44.3062374,21.9226224 L44.3062374,21.8661591 C44.3062374,18.7859937 47.0321169,16.5177303 50.7691422,16.5177303 C53.6354044,16.5177303 55.6872797,17.3299104 57.6824995,18.9256219 L56.3897511,20.634538 C54.5631021,19.150084 52.736453,18.5061809 50.7133241,18.5061809 C48.1557363,18.5061809 46.5261253,19.9066354 46.5261253,21.6711803 L46.5261253,21.7268091 C46.5261253,23.5753534 47.5375503,24.6117175 51.8654107,25.5351552 C56.2493685,26.487798 58.2727765,28.084344 58.2727765,31.0807881 L58.2727765,31.1372513 C58.2727765,34.4977858 55.4626116,36.682328 51.5561782,36.682328 C48.4370598,36.6817717 45.8800302,35.6454075 43.5194805,33.5448649 L43.5194805,33.5448649 Z" id="Shape" sketch:type="MSShapeGroup"></path>
            <path d="M61.9274701,26.6552407 L61.9274701,26.5996119 C61.9274701,21.053979 66.0864806,16.4609889 71.8756604,16.4609889 C75.444394,16.4609889 77.5802756,17.7209807 79.5470282,19.5698032 L78.0293326,21.1944416 C76.3715335,19.6259882 74.5166963,18.5059028 71.8471931,18.5059028 C67.4917026,18.5059028 64.2319225,22.0349925 64.2319225,26.5431487 L64.2319225,26.5996119 C64.2319225,31.136695 67.5196117,34.6935991 71.8471931,34.6935991 C74.5451635,34.6935991 76.3157153,33.6569569 78.1984616,31.8651539 L79.6595018,33.2931446 C77.6081847,35.3658729 75.3601086,36.7382349 71.7910959,36.7382349 C66.1141106,36.7379567 61.9274701,32.284873 61.9274701,26.6552407 L61.9274701,26.6552407 Z" id="Shape" sketch:type="MSShapeGroup"></path>
            <path d="M83.7350642,16.797543 L85.9549522,16.797543 L85.9549522,36.4014026 L83.7350642,36.4014026 L83.7350642,16.797543 L83.7350642,16.797543 Z" id="Shape" sketch:type="MSShapeGroup"></path>
            <path d="M91.2950748,16.797543 L106.273318,16.797543 L106.273318,20.7182593 L95.6226562,20.7182593 L95.6226562,24.890974 L105.008479,24.890974 L105.008479,28.8122465 L95.6226562,28.8122465 L95.6226562,36.4016808 L91.2950748,36.4016808 L91.2950748,16.797543 L91.2950748,16.797543 Z" id="Shape" sketch:type="MSShapeGroup"></path>
            <path d="M114.227126,16.6570803 L118.217286,16.6570803 L126.64806,36.4014026 L122.12372,36.4014026 L120.325259,32.0036696 L112.007238,32.0036696 L110.208777,36.4014026 L105.796631,36.4014026 L114.227126,16.6570803 L114.227126,16.6570803 Z M118.779375,28.1961578 L116.165969,21.8386229 L113.552005,28.1961578 L118.779375,28.1961578 L118.779375,28.1961578 Z" id="Shape" sketch:type="MSShapeGroup"></path>
            <path d="M129.684289,16.797543 L138.817534,16.797543 C141.065331,16.797543 142.836162,17.4136317 143.96006,18.5339953 C144.85957,19.4298968 145.308906,20.5218897 145.308906,21.865881 L145.308906,21.9223442 C145.308906,24.1341444 144.128631,25.3660437 142.723409,26.1512439 C144.999673,27.0190529 146.404616,28.3357861 146.404616,30.9678617 L146.404616,31.0243249 C146.404616,34.6093215 143.482257,36.4011245 139.041923,36.4011245 L129.684009,36.4011245 L129.684009,16.797543 L129.684289,16.797543 Z M137.890115,24.7226969 C139.800771,24.7226969 141.009234,24.1068863 141.009234,22.6508031 L141.009234,22.5943399 C141.009234,21.3059773 139.997809,20.5777966 138.17116,20.5777966 L133.899396,20.5777966 L133.899396,24.7226969 L137.890115,24.7226969 L137.890115,24.7226969 Z M139.042202,32.6208709 C140.953136,32.6208709 142.105223,31.9491534 142.105223,30.4927919 L142.105223,30.4366069 C142.105223,29.1201518 141.121986,28.3079717 138.901819,28.3079717 L133.899675,28.3079717 L133.899675,32.621149 L139.042202,32.621149 L139.042202,32.6208709 Z" id="Shape" sketch:type="MSShapeGroup"></path>
            <path d="M149.975024,16.797543 L158.967887,16.797543 C161.469098,16.797543 163.408221,17.4967968 164.70097,18.7857155 C165.796959,19.8779866 166.386957,21.4180693 166.386957,23.2663355 L166.386957,23.3227987 C166.386957,26.4872418 164.672502,28.4751362 162.17157,29.3996864 L166.977234,36.4014026 L161.918993,36.4014026 L157.703606,30.1278672 L154.303164,30.1278672 L154.303164,36.4014026 L149.975583,36.4014026 L149.975024,16.797543 L149.975024,16.797543 Z M158.686284,26.319521 C160.793978,26.319521 162.002162,25.1991574 162.002162,23.5464264 L162.002162,23.4907976 C162.002162,21.6422533 160.709413,20.6898886 158.601999,20.6898886 L154.302327,20.6898886 L154.302327,26.319521 L158.686284,26.319521 L158.686284,26.319521 Z" id="Shape" sketch:type="MSShapeGroup"></path>
            <path d="M170.490428,16.797543 L174.81801,16.797543 L174.81801,36.4014026 L170.490428,36.4014026 L170.490428,16.797543 L170.490428,16.797543 Z" id="Shape" sketch:type="MSShapeGroup"></path>
            <path d="M178.865384,26.6552407 L178.865384,26.5996119 C178.865384,21.0264427 183.080771,16.4609889 189.122807,16.4609889 C192.831923,16.4609889 195.05209,17.6937226 196.878739,19.4858037 L194.124951,22.6508031 C192.607534,21.2784411 191.06165,20.4381684 189.094898,20.4381684 C185.778741,20.4381684 183.390562,23.1826142 183.390562,26.5431487 L183.390562,26.5996119 C183.390562,29.9601464 185.722644,32.7607772 189.094898,32.7607772 C191.342695,32.7607772 192.719729,31.8648758 194.265612,30.4644213 L197.019401,33.2366814 C194.995714,35.3928529 192.747917,36.7382349 188.953957,36.7382349 C183.164498,36.7379567 178.865384,32.284873 178.865384,26.6552407 L178.865384,26.6552407 Z" id="Shape" sketch:type="MSShapeGroup"></path>
            <path d="M30.2880068,1 L25.7922078,3.5764459 L25.7922078,8.74232595 L30.2866832,11.3178586 L34.790322,8.74232595 L34.790322,3.5764459 L30.2880068,1 L30.2880068,1 Z M32.5417098,7.44390519 L30.2933012,8.74222448 L28.0411254,7.44390519 L28.0411254,4.87588137 L30.2888213,3.57634442 L32.5417098,4.87588137 L32.5417098,7.44390519 L32.5417098,7.44390519 Z" id="Shape" sketch:type="MSShapeGroup"></path>
            <path d="M7.19950916,24.264018 L18.8737073,33.0736493 L30.5476289,26.3937582 L18.3434825,17.9901537 L7.19950916,24.264018 Z" id="Shape" opacity="0.300000012" sketch:type="MSShapeGroup"></path>
            <path d="M18.7362128,7.33116883 L3,16.3719155 L3,34.4506693 L18.7362128,43.4916189 L34.4718147,34.4506693 L34.4718147,16.3718141 L18.7362128,7.33116883 L18.7362128,7.33116883 Z M29.9573833,31.837288 L30.0521742,31.8350556 L18.7905827,38.2813961 L7.51443136,31.8369836 L7.51443136,29.2493759 L9.82728962,27.9613052 L18.8593086,33.1189661 L25.6190941,29.2546524 L21.1442693,26.66603 L25.5436482,24.0720296 L29.9575869,26.6722197 L29.9575869,31.837288 L29.9573833,31.837288 Z M29.9573833,21.5268368 L27.8014239,22.8161251 L18.8823191,17.6594789 L12.1103157,21.5199367 L16.6484703,24.1002385 L12.0150157,26.6752638 L7.51443136,24.065637 L7.51443136,18.9391276 L7.59904067,18.9426791 L18.7905827,12.4961357 L29.9573833,18.9391276 L29.9573833,21.5268368 L29.9573833,21.5268368 Z" id="Shape" sketch:type="MSShapeGroup"></path>
        </g>
    </g>
</svg>