<?xml version="1.0" encoding="UTF-8" standalone="no"?>
<svg width="150px" height="150px" viewBox="0 0 150 150" version="1.1" xmlns="http://www.w3.org/2000/svg" xmlns:xlink="http://www.w3.org/1999/xlink" xmlns:sketch="http://www.bohemiancoding.com/sketch/ns">
    <!-- Generator: Sketch 3.3.3 (12072) - http://www.bohemiancoding.com/sketch -->
    <title>photo-mask</title>
    <desc>Created with Sketch.</desc>
    <defs></defs>
    <g id="Page-1" stroke="none" stroke-width="1" fill="none" fill-rule="evenodd" sketch:type="MSPage">
        <g id="BM-Case-design-with-CTA" sketch:type="MSArtboardGroup" transform="translate(-945.000000, -2262.000000)">
            <g id="photo-mask" sketch:type="MSLayerGroup" transform="translate(945.000000, 2262.000000)">
                <circle id="Oval-1-Copy" fill="#BE935D" sketch:type="MSShapeGroup" cx="75" cy="75" r="75"></circle>
                <g id="Group" transform="translate(30.000000, 28.000000)" sketch:type="MSShapeGroup">
                    <g>
                        <path d="M80.8766604,94.1559436 L9.55603192,94.1559436 C4.63267979,94.1559436 0.64095336,90.1681702 0.64095336,85.2496936 L0.64095336,13.9996936 C0.64095336,9.08121706 4.63267979,5.09344363 9.55603192,5.09344363 L80.8766604,5.09344363 C85.8000125,5.09344363 89.7917389,9.08121706 89.7917389,13.9996936 L89.7917389,85.2496936 C89.7917389,90.1681702 85.8000125,94.1559436 80.8766604,94.1559436" id="Fill-4" fill="#4D4D48"></path>
                        <path d="M9.55603192,85.2496936 C7.09769901,85.2496936 5.09849264,83.2524671 5.09849264,80.7965686 L5.09849264,9.54656863 C5.09849264,7.09067019 7.09769901,5.09344363 9.55603192,5.09344363 L80.8766604,5.09344363 C83.3349933,5.09344363 85.3341997,7.09067019 85.3341997,9.54656863 L85.3341997,80.7965686 C85.3341997,83.2524671 83.3349933,85.2496936 80.8766604,85.2496936 L9.55603192,85.2496936" id="Fill-5" fill="#FFFFFF"></path>
                        <path d="M80.8766604,0.640318627 L9.55603192,0.640318627 C4.63267979,0.640318627 0.64095336,4.62809206 0.64095336,9.54656863 L0.64095336,80.7965686 C0.64095336,85.7150452 4.63267979,89.7028186 9.55603192,89.7028186 L80.8766604,89.7028186 C85.8000125,89.7028186 89.7917389,85.7150452 89.7917389,80.7965686 L89.7917389,9.54656863 C89.7917389,4.62809206 85.8000125,0.640318627 80.8766604,0.640318627 L80.8766604,0.640318627 Z M9.55603192,9.54656863 L80.8766604,9.54656863 L80.8766604,80.7965686 L9.55603192,80.7965686 L9.55603192,9.54656863 Z" id="Fill-6" fill="#FFFFFF"></path>
                        <path d="M9.55603192,71.8903186 L80.8766604,71.8903186 L80.8766604,80.7965686 L9.55603192,80.7965686 L9.55603192,71.8903186 Z" id="Fill-7" fill="#7A98BA"></path>
                        <path d="M5.07620494,71.8903186 L82.8491215,71.8903186 L82.8491215,65.3865296 C82.8491215,65.3865296 79.0490693,58.758053 75.5253845,54.6032874 C72.9043514,51.5150452 68.9906319,50.6400061 65.5761568,54.4362952 L59.4425828,60.3210999 L46.0721937,43.3346546 C41.0931223,37.0089905 32.9447405,37.0089905 27.9656691,43.3346546 L5.07620494,71.8903186" id="Fill-8" fill="#4D4D48"></path>
                        <path d="M69.7328122,27.3590686 C69.7328122,31.0484827 66.7395746,34.0387561 63.0465033,34.0387561 C59.353432,34.0387561 56.3601944,31.0484827 56.3601944,27.3590686 C56.3601944,23.6696546 59.353432,20.6793811 63.0465033,20.6793811 C66.7395746,20.6793811 69.7328122,23.6696546 69.7328122,27.3590686" id="Fill-9" fill="#B3B3A5"></path>
                        <path d="M80.8766604,0.640318627 L9.55603192,0.640318627 C4.63267979,0.640318627 0.64095336,4.62809206 0.64095336,9.54656863 L0.64095336,80.7965686 C0.64095336,85.7150452 4.63267979,89.7028186 9.55603192,89.7028186 L80.8766604,89.7028186 C85.8000125,89.7028186 89.7917389,85.7150452 89.7917389,80.7965686 L89.7917389,9.54656863 C89.7917389,4.62809206 85.8000125,0.640318627 80.8766604,0.640318627 L80.8766604,0.640318627 Z M9.55603192,9.54656863 L80.8766604,9.54656863 L80.8766604,80.7965686 L9.55603192,80.7965686 L9.55603192,9.54656863 Z" id="Fill-10" fill="#DEDECB"></path>
                    </g>
                </g>
            </g>
        </g>
    </g>
</svg>