<?xml version="1.0" encoding="utf-8"?>
<!-- Generator: Adobe Illustrator 16.0.0, SVG Export Plug-In . SVG Version: 6.00 Build 0)  -->
<!DOCTYPE svg PUBLIC "-//W3C//DTD SVG 1.1//EN" "http://www.w3.org/Graphics/SVG/1.1/DTD/svg11.dtd">
<svg version="1.1" id="Layer_1" xmlns="http://www.w3.org/2000/svg" xmlns:xlink="http://www.w3.org/1999/xlink" x="0px" y="0px"
	 width="245px" height="77px" viewBox="0 0 245 77" enable-background="new 0 0 245 77" xml:space="preserve">
<g>
	<g>
		<path fill="#FFFFFF" d="M15.073,0.625c4.967,0,8.701,1.287,11.204,3.86c2.07,2.071,3.105,4.752,3.105,8.038
			c0,3.287-1.035,5.968-3.105,8.038c-2.503,2.574-6.237,3.86-11.204,3.86H5.319v11.466c0,0.681-0.239,1.254-0.725,1.716
			c-0.479,0.466-1.061,0.695-1.736,0.695c-0.681,0-1.25-0.229-1.717-0.695c-0.466-0.462-0.694-1.035-0.694-1.716V3.092
			c0-0.677,0.229-1.261,0.694-1.742c0.467-0.484,1.036-0.725,1.717-0.725H15.073z M14.593,19.812c3.68,0,6.342-0.784,7.987-2.359
			c1.287-1.213,1.926-2.858,1.926-4.929c0-3.324-1.659-5.538-4.979-6.645c-1.287-0.429-2.933-0.643-4.934-0.643H5.319v14.575H14.593
			z"/>
		<path fill="#FFFFFF" d="M58.808,1.591c0.532-0.821,1.205-1.231,2.008-1.231c0.802,0,1.42,0.232,1.848,0.695
			c0.43,0.465,0.645,1.001,0.645,1.607s-0.145,1.143-0.43,1.609l-12.862,17.95v13.666c0,0.681-0.229,1.254-0.696,1.716
			c-0.466,0.466-1.035,0.695-1.716,0.695c-0.68,0-1.256-0.229-1.74-0.695c-0.484-0.462-0.722-1.035-0.722-1.716V22.222L32.334,4.271
			c-0.288-0.467-0.429-1.003-0.429-1.609s0.214-1.143,0.64-1.607c0.429-0.463,1.046-0.695,1.853-0.695
			c0.798,0,1.472,0.41,2.008,1.231l11.198,16.29L58.808,1.591z"/>
		<path fill="#FFFFFF" d="M96.314,10.327c0,3.856-1.745,6.607-5.251,8.253c3.395,1.143,5.649,3.018,6.752,5.627
			c0.392,0.999,0.592,2.197,0.592,3.591c0,1.39-0.251,2.732-0.747,4.02c-0.503,1.286-1.309,2.392-2.417,3.32
			c-2.286,1.93-5.82,2.895-10.609,2.895H71.667c-0.68,0-1.249-0.232-1.715-0.695c-0.466-0.466-0.695-1.039-0.695-1.715V3.092
			c0-0.677,0.229-1.261,0.695-1.742c0.466-0.484,1.035-0.725,1.715-0.725h12.646c3.934,0,6.914,0.895,8.948,2.681
			C95.302,5.092,96.314,7.432,96.314,10.327z M91.656,10.701c0-1.679-0.674-3.018-2.012-4.02c-1.339-0.998-3.239-1.501-5.706-1.501
			H74.13V16.81h8.896c4.606,0,7.357-1.231,8.252-3.698C91.529,12.361,91.656,11.559,91.656,10.701z M84.149,33.478
			c5.073,0,8.098-1.214,9.06-3.646c0.325-0.746,0.479-1.586,0.479-2.518c0-2.145-0.799-3.697-2.41-4.663
			c-1.604-0.965-3.963-1.445-7.073-1.445H74.13v12.272H84.149z"/>
		<path fill="#FFFFFF" d="M122.419,0.089c5.643,0,10.175,1.805,13.606,5.413c3.327,3.539,5.059,8.146,5.198,13.828
			c-0.14,5.68-1.871,10.287-5.198,13.825c-3.432,3.609-7.964,5.413-13.606,5.413c-5.688,0-10.221-1.804-13.614-5.413
			c-3.395-3.572-5.133-8.183-5.199-13.825c0.066-5.646,1.805-10.253,5.199-13.828C112.198,1.894,116.731,0.089,122.419,0.089z
			 M122.419,34.013c4.355,0,7.786-1.412,10.286-4.233c2.425-2.714,3.646-6.196,3.646-10.449c0-4.252-1.221-7.734-3.646-10.452
			c-2.5-2.821-5.931-4.233-10.286-4.233c-4.363,0-7.795,1.412-10.295,4.233c-2.432,2.718-3.646,6.2-3.646,10.452
			c0,4.253,1.214,7.735,3.646,10.449C114.624,32.601,118.056,34.013,122.419,34.013z"/>
		<path fill="#FFFFFF" d="M160.088,33.958c6.256,0,9.384-2.052,9.384-6.16c0-1.716-1.197-3.091-3.594-4.127
			c-1.035-0.429-2.24-0.812-3.616-1.153c-1.375-0.34-2.773-0.706-4.178-1.098c-1.413-0.392-2.81-0.84-4.186-1.339
			c-1.376-0.503-2.596-1.146-3.668-1.93c-2.359-1.786-3.534-4.145-3.534-7.073c0-3.146,1.175-5.717,3.534-7.721
			c2.573-2.178,6.02-3.269,10.346-3.269c3.89,0,7.446,0.592,10.663,1.771c0.998,0.354,1.501,1.068,1.501,2.141
			c0,0.536-0.191,1.047-0.562,1.527c-0.377,0.484-0.791,0.725-1.235,0.725c-0.451,0-1.064-0.141-1.849-0.429
			c-2.321-0.821-4.983-1.231-7.986-1.231c-2.751,0-5.021,0.518-6.804,1.553c-1.826,1.072-2.735,2.592-2.735,4.556
			c0,2.037,1.176,3.571,3.534,4.61c1.073,0.499,2.285,0.909,3.646,1.231c1.36,0.321,2.75,0.662,4.178,1.017
			c1.435,0.358,2.824,0.776,4.185,1.261c1.354,0.48,2.574,1.116,3.639,1.9c2.359,1.716,3.542,4.182,3.542,7.398
			c0,3.073-1.234,5.572-3.696,7.503c-2.537,1.963-5.88,2.946-10.021,2.946c-4.541,0-8.793-0.857-12.756-2.573
			c-0.393-0.178-0.747-0.462-1.051-0.857c-0.303-0.393-0.451-0.865-0.451-1.42c0-0.552,0.192-1.054,0.592-1.502
			c0.393-0.443,0.844-0.669,1.361-0.669s1.16,0.17,1.929,0.511c0.77,0.34,2.027,0.743,3.779,1.205
			C155.732,33.729,157.767,33.958,160.088,33.958z"/>
		<path fill="#FFFFFF" d="M192.566,33.958c6.249,0,9.377-2.052,9.377-6.16c0-1.716-1.198-3.091-3.595-4.127
			c-1.035-0.429-2.24-0.812-3.615-1.153c-1.376-0.34-2.767-0.706-4.178-1.098c-1.414-0.392-2.804-0.84-4.179-1.339
			c-1.376-0.503-2.604-1.146-3.676-1.93c-2.351-1.786-3.535-4.145-3.535-7.073c0-3.146,1.185-5.717,3.535-7.721
			c2.573-2.178,6.02-3.269,10.347-3.269c3.896,0,7.446,0.592,10.662,1.771c0.999,0.354,1.501,1.068,1.501,2.141
			c0,0.536-0.184,1.047-0.562,1.527c-0.377,0.484-0.783,0.725-1.234,0.725c-0.443,0-1.058-0.141-1.849-0.429
			c-2.322-0.821-4.985-1.231-7.979-1.231c-2.759,0-5.021,0.518-6.811,1.553c-1.819,1.072-2.729,2.592-2.729,4.556
			c0,2.037,1.176,3.571,3.535,4.61c1.072,0.499,2.285,0.909,3.646,1.231c1.354,0.321,2.751,0.662,4.179,1.017
			c1.427,0.358,2.825,0.776,4.178,1.261c1.361,0.48,2.573,1.116,3.646,1.9c2.358,1.716,3.534,4.182,3.534,7.398
			c0,3.073-1.228,5.572-3.697,7.503c-2.536,1.963-5.879,2.946-10.02,2.946c-4.541,0-8.786-0.857-12.757-2.573
			c-0.393-0.178-0.739-0.462-1.042-0.857c-0.305-0.393-0.459-0.865-0.459-1.42c0-0.552,0.2-1.054,0.591-1.502
			c0.393-0.443,0.852-0.669,1.369-0.669s1.16,0.17,1.93,0.511c0.769,0.34,2.025,0.743,3.778,1.205
			C188.203,33.729,190.244,33.958,192.566,33.958z"/>
		<path fill="#FFFFFF" d="M244.279,34.815c0.186,0.429,0.273,0.888,0.273,1.368s-0.215,0.958-0.644,1.42
			c-0.429,0.466-1.109,0.695-2.041,0.695c-0.924,0-1.604-0.499-2.033-1.498l-3.483-8.359h-18.221l-3.483,8.359
			c-0.43,0.999-1.109,1.498-2.033,1.498c-0.932,0-1.612-0.229-2.041-0.695c-0.429-0.462-0.644-0.939-0.644-1.42
			s0.089-0.939,0.267-1.368l13.665-32.261c0.645-1.464,1.68-2.195,3.113-2.195h0.532c1.428,0,2.471,0.731,3.114,2.195
			L244.279,34.815z M234.474,23.993L227.24,6.574l-7.231,17.419H234.474z"/>
	</g>
	<g>
		<path fill="#FFFFFF" d="M5.095,66.718c1.497,0,2.699,0.48,3.608,1.435c0.88,0.939,1.339,2.159,1.375,3.663
			c-0.036,1.506-0.495,2.726-1.375,3.664c-0.91,0.955-2.111,1.432-3.608,1.432c-1.501,0-2.707-0.477-3.604-1.432
			c-0.899-0.945-1.358-2.17-1.379-3.664c0.021-1.497,0.48-2.717,1.379-3.663C2.388,67.198,3.594,66.718,5.095,66.718z M5.095,75.705
			c1.158,0,2.063-0.372,2.728-1.119c0.644-0.722,0.966-1.642,0.966-2.771c0-1.127-0.322-2.048-0.966-2.769
			c-0.665-0.747-1.57-1.121-2.728-1.121c-1.154,0-2.063,0.374-2.721,1.121c-0.647,0.721-0.969,1.642-0.969,2.769
			c0,1.129,0.322,2.049,0.969,2.771C3.031,75.333,3.941,75.705,5.095,75.705z"/>
		<path fill="#FFFFFF" d="M18.938,66.861c1.316,0,2.308,0.341,2.969,1.021c0.551,0.551,0.825,1.261,0.825,2.129
			c0,0.873-0.273,1.582-0.825,2.129c-0.662,0.681-1.653,1.024-2.969,1.024h-2.58v3.036c0,0.181-0.067,0.334-0.192,0.455
			c-0.129,0.126-0.281,0.185-0.462,0.185c-0.182,0-0.333-0.059-0.455-0.185c-0.125-0.121-0.184-0.274-0.184-0.455v-8.689
			c0-0.177,0.059-0.332,0.184-0.458c0.123-0.13,0.273-0.192,0.455-0.192H18.938z M18.812,71.942c0.977,0,1.678-0.207,2.116-0.625
			c0.34-0.322,0.51-0.755,0.51-1.306c0-0.88-0.44-1.469-1.32-1.761c-0.341-0.113-0.776-0.169-1.306-0.169h-2.455v3.86H18.812z"/>
		<path fill="#FFFFFF" d="M34.164,75.743c0.119,0.118,0.178,0.263,0.178,0.433s-0.06,0.31-0.178,0.425
			c-0.118,0.114-0.259,0.17-0.428,0.17h-5.695c-0.18,0-0.332-0.063-0.455-0.185c-0.122-0.122-0.185-0.273-0.185-0.455v-8.619
			c0-0.177,0.063-0.332,0.185-0.458c0.123-0.13,0.274-0.192,0.455-0.192h5.695c0.169,0,0.311,0.06,0.428,0.179
			c0.119,0.117,0.178,0.262,0.178,0.432s-0.06,0.311-0.178,0.425c-0.118,0.115-0.259,0.171-0.428,0.171h-5.044v3.139h4.533
			c0.17,0,0.311,0.059,0.429,0.178c0.119,0.118,0.177,0.262,0.177,0.432c0,0.171-0.059,0.312-0.177,0.426s-0.259,0.17-0.429,0.17
			h-4.533v3.154h5.044C33.905,75.565,34.046,75.625,34.164,75.743z"/>
		<path fill="#FFFFFF" d="M47.294,66.788c0.181,0,0.333,0.066,0.462,0.191c0.125,0.13,0.192,0.285,0.192,0.462v8.479
			c0,0.256-0.096,0.474-0.281,0.651c-0.186,0.181-0.403,0.27-0.658,0.27h-0.17c-0.311,0-0.562-0.126-0.755-0.381l-5.494-7.938v7.68
			c0,0.181-0.062,0.334-0.192,0.455c-0.125,0.126-0.281,0.185-0.459,0.185c-0.181,0-0.333-0.059-0.455-0.185
			c-0.122-0.121-0.185-0.274-0.185-0.455v-8.475c0-0.255,0.092-0.478,0.27-0.661c0.178-0.185,0.399-0.277,0.65-0.277h0.186
			c0.296,0,0.555,0.144,0.784,0.428l5.465,7.895v-7.669c0-0.177,0.059-0.332,0.184-0.462C46.964,66.854,47.112,66.788,47.294,66.788
			z"/>
		<path fill="#FFFFFF" d="M73.716,75.012c0.078-0.038,0.181-0.061,0.318-0.061c0.137,0,0.256,0.057,0.354,0.166
			c0.1,0.108,0.152,0.233,0.152,0.375c0,0.259-0.104,0.435-0.315,0.539c-0.447,0.248-0.92,0.454-1.426,0.625
			c-0.507,0.17-1.114,0.255-1.815,0.255c-0.707,0-1.361-0.114-1.968-0.347c-0.606-0.229-1.131-0.571-1.575-1.014
			c-0.947-0.928-1.419-2.175-1.419-3.735c0-1.563,0.473-2.806,1.419-3.733c0.917-0.91,2.1-1.364,3.55-1.364
			c0.699,0,1.302,0.085,1.809,0.255c0.506,0.17,0.894,0.329,1.165,0.477c0.27,0.148,0.432,0.267,0.488,0.354
			c0.059,0.089,0.088,0.204,0.088,0.341s-0.052,0.263-0.152,0.369c-0.099,0.108-0.217,0.163-0.354,0.163
			c-0.137,0-0.24-0.018-0.318-0.055c-0.381-0.2-0.766-0.359-1.165-0.484c-0.4-0.123-0.895-0.186-1.487-0.186
			c-0.591,0-1.123,0.1-1.604,0.299c-0.474,0.2-0.873,0.475-1.198,0.825c-0.636,0.691-0.951,1.604-0.951,2.739
			c0,1.136,0.315,2.049,0.951,2.741c0.691,0.747,1.641,1.119,2.854,1.119c0.559,0,1.035-0.059,1.435-0.184
			C72.95,75.369,73.334,75.21,73.716,75.012z"/>
		<path fill="#FFFFFF" d="M87.074,76.201c0,0.181-0.059,0.334-0.184,0.455c-0.119,0.126-0.274,0.185-0.467,0.185
			c-0.192,0-0.34-0.059-0.458-0.177c-0.118-0.119-0.177-0.271-0.177-0.463v-0.425c0-0.765-0.089-1.328-0.259-1.69
			c-0.17-0.358-0.404-0.643-0.696-0.856c-0.295-0.216-0.71-0.319-1.249-0.319h-2.94v3.291c0,0.181-0.062,0.334-0.192,0.455
			c-0.129,0.126-0.281,0.185-0.462,0.185c-0.178,0-0.333-0.059-0.452-0.185c-0.125-0.121-0.184-0.274-0.184-0.455v-8.689
			c0-0.177,0.059-0.332,0.184-0.458c0.119-0.13,0.274-0.192,0.452-0.192h3.309c1.298,0,2.274,0.274,2.94,0.821
			c0.614,0.521,0.924,1.209,0.924,2.059c0,0.551-0.156,1.062-0.466,1.535c-0.304,0.473-0.77,0.817-1.397,1.035
			c0.687,0.182,1.175,0.673,1.478,1.479c0.2,0.541,0.296,1.125,0.296,1.761V76.201z M83.214,71.687c0.795,0,1.435-0.155,1.923-0.465
			c0.488-0.315,0.731-0.773,0.731-1.381c0-0.568-0.185-0.993-0.568-1.278c-0.451-0.321-1.173-0.48-2.156-0.48h-2.5v3.604H83.214z"/>
		<path fill="#FFFFFF" d="M96.688,66.718c1.501,0,2.699,0.48,3.609,1.435c0.88,0.939,1.338,2.159,1.375,3.663
			c-0.037,1.506-0.495,2.726-1.375,3.664c-0.91,0.955-2.108,1.432-3.609,1.432c-1.501,0-2.707-0.477-3.602-1.432
			c-0.902-0.945-1.36-2.17-1.383-3.664c0.022-1.497,0.481-2.717,1.383-3.663C93.981,67.198,95.187,66.718,96.688,66.718z
			 M96.688,75.705c1.154,0,2.063-0.372,2.729-1.119c0.643-0.722,0.961-1.642,0.961-2.771c0-1.127-0.318-2.048-0.961-2.769
			c-0.666-0.747-1.574-1.121-2.729-1.121c-1.153,0-2.063,0.374-2.721,1.121c-0.644,0.721-0.969,1.642-0.969,2.769
			c0,1.129,0.325,2.049,0.969,2.771C94.625,75.333,95.535,75.705,96.688,75.705z"/>
		<path fill="#FFFFFF" d="M112.432,66.788c0.169,0,0.325,0.052,0.465,0.151c0.133,0.101,0.229,0.229,0.273,0.389l2.404,7.809
			l2.381-7.835c0.103-0.341,0.317-0.514,0.643-0.514c0.184,0,0.34,0.056,0.451,0.165c0.119,0.108,0.17,0.227,0.17,0.356
			c0,0.125-0.016,0.244-0.045,0.348l-2.78,8.544c-0.148,0.43-0.429,0.64-0.835,0.64c-0.192,0-0.363-0.059-0.518-0.177
			c-0.156-0.119-0.267-0.271-0.319-0.463l-2.292-7.239l-2.285,7.239c-0.052,0.192-0.163,0.344-0.318,0.463
			c-0.156,0.118-0.325,0.177-0.519,0.177c-0.407,0-0.687-0.21-0.835-0.64l-2.788-8.544c-0.022-0.104-0.038-0.223-0.038-0.348
			c0-0.13,0.052-0.248,0.171-0.356c0.111-0.109,0.251-0.165,0.421-0.165c0.34,0,0.562,0.173,0.672,0.514l2.381,7.835l2.404-7.809
			c0.044-0.159,0.133-0.288,0.273-0.389C112.113,66.84,112.261,66.788,112.432,66.788z"/>
		<path fill="#FFFFFF" d="M127.289,66.861c1.582,0,2.839,0.529,3.778,1.59c0.415,0.463,0.726,0.991,0.924,1.582
			c0.207,0.593,0.311,1.188,0.311,1.782c0,0.596-0.104,1.191-0.311,1.782c-0.199,0.592-0.51,1.122-0.924,1.583
			c-0.939,1.062-2.196,1.59-3.778,1.59h-2.855c-0.177,0-0.333-0.063-0.458-0.185c-0.118-0.122-0.185-0.273-0.185-0.455v-8.619
			c0-0.177,0.067-0.332,0.185-0.458c0.125-0.13,0.281-0.192,0.458-0.192H127.289z M127.132,75.565c1.169,0,2.115-0.349,2.84-1.039
			c0.695-0.691,1.05-1.593,1.05-2.711c0-1.115-0.355-2.021-1.05-2.713c-0.725-0.688-1.671-1.035-2.84-1.035h-2.048v7.498H127.132z"
			/>
		<path fill="#FFFFFF" d="M153.34,75.691c1.657,0,2.485-0.544,2.485-1.631c0-0.455-0.317-0.821-0.954-1.094
			c-0.273-0.116-0.592-0.215-0.961-0.309c-0.363-0.088-0.732-0.184-1.102-0.288c-0.376-0.106-0.747-0.226-1.109-0.354
			c-0.363-0.134-0.688-0.303-0.976-0.514c-0.622-0.474-0.933-1.098-0.933-1.874c0-0.833,0.311-1.513,0.933-2.041
			c0.68-0.581,1.597-0.869,2.744-0.869c1.027,0,1.975,0.159,2.824,0.469c0.267,0.096,0.399,0.285,0.399,0.569
			c0,0.141-0.051,0.273-0.147,0.403c-0.104,0.129-0.215,0.192-0.333,0.192s-0.281-0.038-0.488-0.114
			c-0.614-0.219-1.316-0.325-2.115-0.325c-0.724,0-1.331,0.136-1.805,0.41c-0.48,0.284-0.725,0.688-0.725,1.209
			c0,0.539,0.318,0.946,0.939,1.22c0.281,0.134,0.607,0.241,0.968,0.325c0.355,0.086,0.725,0.178,1.102,0.271
			c0.385,0.097,0.747,0.207,1.11,0.333c0.361,0.129,0.68,0.295,0.968,0.507c0.621,0.454,0.932,1.105,0.932,1.959
			c0,0.812-0.325,1.476-0.976,1.985c-0.673,0.521-1.561,0.78-2.655,0.78c-1.206,0-2.33-0.226-3.38-0.681
			c-0.104-0.048-0.2-0.121-0.28-0.225c-0.075-0.108-0.119-0.229-0.119-0.378s0.052-0.281,0.155-0.398
			c0.104-0.119,0.229-0.178,0.362-0.178c0.141,0,0.311,0.048,0.51,0.136c0.207,0.09,0.541,0.196,1.006,0.319
			C152.179,75.632,152.719,75.691,153.34,75.691z"/>
		<path fill="#FFFFFF" d="M166.318,66.718c1.494,0,2.7,0.48,3.602,1.435c0.88,0.939,1.346,2.159,1.382,3.663
			c-0.036,1.506-0.501,2.726-1.382,3.664c-0.902,0.955-2.108,1.432-3.602,1.432c-1.508,0-2.707-0.477-3.608-1.432
			c-0.903-0.945-1.36-2.17-1.375-3.664c0.015-1.497,0.472-2.717,1.375-3.663C163.611,67.198,164.81,66.718,166.318,66.718z
			 M166.318,75.705c1.154,0,2.063-0.372,2.722-1.119c0.643-0.722,0.968-1.642,0.968-2.771c0-1.127-0.325-2.048-0.968-2.769
			c-0.658-0.747-1.567-1.121-2.722-1.121c-1.154,0-2.062,0.374-2.729,1.121c-0.643,0.721-0.96,1.642-0.96,2.769
			c0,1.129,0.317,2.049,0.96,2.771C164.255,75.333,165.164,75.705,166.318,75.705z"/>
		<path fill="#FFFFFF" d="M183.71,66.788c0.179,0,0.333,0.066,0.459,0.191c0.125,0.13,0.192,0.285,0.192,0.462v5.609
			c0,1.239-0.443,2.216-1.338,2.925c-0.762,0.625-1.679,0.936-2.736,0.936c-1.081,0-1.997-0.311-2.759-0.936
			c-0.88-0.709-1.316-1.686-1.316-2.925v-5.609c0-0.177,0.06-0.332,0.185-0.462c0.118-0.125,0.273-0.191,0.451-0.191
			c0.184,0,0.333,0.066,0.465,0.191c0.126,0.13,0.193,0.285,0.193,0.462v5.65c0,0.843,0.288,1.505,0.865,1.989
			c0.525,0.437,1.168,0.654,1.916,0.654c0.747,0,1.382-0.218,1.915-0.654c0.577-0.484,0.865-1.146,0.865-1.989v-5.65
			c0-0.177,0.067-0.332,0.186-0.462C183.378,66.854,183.526,66.788,183.71,66.788z"/>
		<path fill="#FFFFFF" d="M197.605,76.201c0,0.181-0.059,0.334-0.176,0.455c-0.127,0.126-0.282,0.185-0.474,0.185
			c-0.186,0-0.34-0.059-0.459-0.177c-0.119-0.119-0.177-0.271-0.177-0.463v-0.425c0-0.765-0.088-1.328-0.259-1.69
			c-0.17-0.358-0.399-0.643-0.695-0.856c-0.296-0.216-0.709-0.319-1.25-0.319h-2.936v3.291c0,0.181-0.066,0.334-0.192,0.455
			c-0.125,0.126-0.281,0.185-0.465,0.185c-0.178,0-0.326-0.059-0.451-0.185c-0.125-0.121-0.186-0.274-0.186-0.455v-8.689
			c0-0.177,0.06-0.332,0.186-0.458c0.125-0.13,0.273-0.192,0.451-0.192h3.313c1.294,0,2.277,0.274,2.935,0.821
			c0.614,0.521,0.925,1.209,0.925,2.059c0,0.551-0.155,1.062-0.458,1.535c-0.312,0.473-0.777,0.817-1.406,1.035
			c0.688,0.182,1.176,0.673,1.479,1.479c0.199,0.541,0.295,1.125,0.295,1.761V76.201z M193.746,71.687
			c0.799,0,1.434-0.155,1.922-0.465c0.488-0.315,0.732-0.773,0.732-1.381c0-0.568-0.186-0.993-0.57-1.278
			c-0.451-0.321-1.168-0.48-2.152-0.48h-2.5v3.604H193.746z"/>
		<path fill="#FFFFFF" d="M209.949,75.012c0.073-0.038,0.184-0.061,0.317-0.061c0.14,0,0.259,0.057,0.354,0.166
			c0.104,0.108,0.148,0.233,0.148,0.375c0,0.259-0.104,0.435-0.311,0.539c-0.444,0.248-0.917,0.454-1.428,0.625
			c-0.503,0.17-1.108,0.255-1.818,0.255c-0.703,0-1.36-0.114-1.968-0.347c-0.606-0.229-1.131-0.571-1.575-1.014
			c-0.946-0.928-1.419-2.175-1.419-3.735c0-1.563,0.473-2.806,1.419-3.733c0.918-0.91,2.1-1.364,3.55-1.364
			c0.703,0,1.309,0.085,1.812,0.255c0.511,0.17,0.896,0.329,1.169,0.477c0.267,0.148,0.429,0.267,0.487,0.354
			c0.053,0.089,0.082,0.204,0.082,0.341s-0.044,0.263-0.148,0.369c-0.096,0.108-0.215,0.163-0.354,0.163
			c-0.134,0-0.244-0.018-0.317-0.055c-0.378-0.2-0.77-0.359-1.169-0.484c-0.392-0.123-0.887-0.186-1.479-0.186
			c-0.592,0-1.131,0.1-1.604,0.299c-0.48,0.2-0.879,0.475-1.198,0.825c-0.636,0.691-0.953,1.604-0.953,2.739
			c0,1.136,0.317,2.049,0.953,2.741c0.688,0.747,1.643,1.119,2.855,1.119c0.555,0,1.035-0.059,1.427-0.184
			C209.179,75.369,209.571,75.21,209.949,75.012z"/>
		<path fill="#FFFFFF" d="M216.219,66.788c0.185,0,0.339,0.066,0.466,0.191c0.125,0.13,0.192,0.285,0.192,0.462v8.76
			c0,0.181-0.067,0.334-0.192,0.455c-0.127,0.126-0.281,0.185-0.466,0.185c-0.179,0-0.325-0.059-0.451-0.185
			c-0.126-0.121-0.185-0.274-0.185-0.455v-8.76c0-0.177,0.059-0.332,0.185-0.462C215.894,66.854,216.041,66.788,216.219,66.788z"/>
		<path fill="#FFFFFF" d="M230.461,66.788c0.177,0,0.333,0.066,0.459,0.191c0.133,0.13,0.191,0.285,0.191,0.462v8.479
			c0,0.256-0.088,0.474-0.273,0.651c-0.185,0.181-0.406,0.27-0.657,0.27h-0.171c-0.317,0-0.569-0.126-0.754-0.381l-5.494-7.938v7.68
			c0,0.181-0.067,0.334-0.192,0.455c-0.126,0.126-0.281,0.185-0.467,0.185c-0.177,0-0.325-0.059-0.451-0.185
			c-0.125-0.121-0.184-0.274-0.184-0.455v-8.475c0-0.255,0.088-0.478,0.266-0.661c0.185-0.185,0.399-0.277,0.658-0.277h0.185
			c0.289,0,0.555,0.144,0.777,0.428l5.472,7.895v-7.669c0-0.177,0.059-0.332,0.185-0.462
			C230.128,66.854,230.284,66.788,230.461,66.788z"/>
		<path fill="#FFFFFF" d="M241.265,75.691c0.895,0,1.724-0.208,2.485-0.625v-2.57h-2.337c-0.163,0-0.304-0.055-0.414-0.17
			c-0.119-0.114-0.171-0.252-0.171-0.41c0-0.163,0.052-0.3,0.171-0.414c0.11-0.11,0.251-0.171,0.414-0.171h2.795
			c0.185,0,0.348,0.067,0.48,0.2c0.134,0.134,0.2,0.292,0.2,0.484v3.222c0,0.198-0.052,0.376-0.147,0.531
			c-0.104,0.158-0.229,0.274-0.393,0.348c-1.058,0.532-2.145,0.795-3.254,0.795c-1.486,0-2.684-0.474-3.602-1.419
			c-0.924-0.955-1.382-2.175-1.382-3.661c0-1.506,0.48-2.748,1.434-3.72c0.917-0.929,2.094-1.394,3.513-1.394
			c0.799,0,1.479,0.1,2.033,0.299c0.555,0.199,1.051,0.44,1.502,0.725c0.185,0.104,0.28,0.251,0.28,0.447
			c0,0.192-0.051,0.348-0.155,0.467c-0.104,0.117-0.229,0.178-0.376,0.178c-0.149,0-0.267-0.023-0.362-0.071
			c-0.918-0.528-1.85-0.795-2.78-0.795c-1.103,0-1.997,0.333-2.7,0.995c-0.732,0.699-1.094,1.656-1.094,2.869
			c0,1.116,0.34,2.033,1.021,2.755C239.128,75.321,240.075,75.691,241.265,75.691z"/>
	</g>
	<path fill="#FFFFFF" d="M244.445,52.659H0.555c-0.259,0-0.474-0.21-0.474-0.473c0-0.264,0.215-0.473,0.474-0.473h243.891
		c0.259,0,0.474,0.209,0.474,0.473C244.919,52.449,244.704,52.659,244.445,52.659z"/>
</g>
</svg>
