<?xml version="1.0" encoding="UTF-8" standalone="no"?>
<svg width="230px" height="80px" viewBox="0 0 230 80" version="1.1" xmlns="http://www.w3.org/2000/svg" xmlns:xlink="http://www.w3.org/1999/xlink" xmlns:sketch="http://www.bohemiancoding.com/sketch/ns">
    <!-- Generator: Sketch 3.3.3 (12072) - http://www.bohemiancoding.com/sketch -->
    <title>pybossa_color_logo</title>
    <desc>Created with Sketch.</desc>
    <defs></defs>
    <g id="Page-1" stroke="none" stroke-width="1" fill="none" fill-rule="evenodd" sketch:type="MSPage">
        <g id="pybossa_color_logo" sketch:type="MSArtboardGroup" fill="#40B392">
            <path d="M51.9067541,23.7006154 C54.8262951,23.7006154 57.0222951,24.4566667 58.4935738,25.9681795 C59.7104918,27.1848205 60.319541,28.7600256 60.319541,30.6908462 C60.319541,32.6216667 59.7104918,34.1968718 58.4935738,35.4135128 C57.0222951,36.9250256 54.8262951,37.6810769 51.9067541,37.6810769 L46.1721311,37.6810769 L46.1721311,44.4171282 C46.1721311,44.8169744 46.0316721,45.1537179 45.7460328,45.425 C45.4639344,45.698641 45.1228197,45.8331026 44.7250492,45.8331026 C44.324918,45.8331026 43.9902951,45.698641 43.7158689,45.425 C43.4420328,45.1537179 43.3074754,44.8169744 43.3074754,44.4171282 L43.3074754,25.1496154 C43.3074754,24.7521282 43.4420328,24.4088974 43.7158689,24.1264103 C43.9902951,23.8421538 44.324918,23.7006154 44.7250492,23.7006154 L51.9067541,23.7006154 L51.9067541,23.7006154 Z M51.6240656,34.9723846 C53.7870164,34.9723846 55.3527213,34.5117949 56.3194098,33.5864872 C57.0765902,32.8734872 57.4519344,31.9074872 57.4519344,30.6908462 C57.4519344,28.7376154 56.4763934,27.436641 54.5241311,26.7873333 C53.767541,26.5349231 52.8002623,26.4093077 51.6240656,26.4093077 L46.1721311,26.4093077 L46.1721311,34.9723846 L51.6240656,34.9723846 L51.6240656,34.9723846 Z" id="Fill-1" sketch:type="MSShapeGroup"></path>
            <path d="M77.6184262,24.267359 C77.9312131,23.7855385 78.326623,23.5443333 78.7987541,23.5443333 C79.2702951,23.5443333 79.6332459,23.6805641 79.8852459,23.9524359 C80.1378361,24.2260769 80.2641311,24.541 80.2641311,24.8972051 C80.2641311,25.2534103 80.1791475,25.5689231 80.011541,25.8425641 L72.4491803,36.388359 L72.4491803,44.4171282 C72.4491803,44.8169744 72.314623,45.1537179 72.0401967,45.425 C71.7663607,45.698641 71.4317377,45.8331026 71.0316066,45.8331026 C70.6314754,45.8331026 70.2927213,45.698641 70.0082623,45.425 C69.7232131,45.1537179 69.5839344,44.8169744 69.5839344,44.4171282 L69.5839344,36.388359 L62.0540328,25.8425641 C61.8846557,25.5689231 61.8020328,25.2534103 61.8020328,24.8972051 C61.8020328,24.541 61.9277377,24.2260769 62.1779672,23.9524359 C62.4305574,23.6805641 62.792918,23.5443333 63.2674098,23.5443333 C63.7365902,23.5443333 64.1325902,23.7855385 64.4477377,24.267359 L71.0316066,33.8383077 L77.6184262,24.267359" id="Fill-2" sketch:type="MSShapeGroup"></path>
            <path d="M99.6693115,29.4010769 C99.6693115,31.6662821 98.6430164,33.2827692 96.5821639,34.2487692 C98.5780984,34.9204872 99.9036066,36.0215385 100.551607,37.5548718 C100.78177,38.1416667 100.899213,38.8452308 100.899213,39.6643846 C100.899213,40.4811795 100.751672,41.2696667 100.460131,42.0257179 C100.164459,42.7817692 99.6911475,43.4310769 99.0390164,43.976 C97.6952131,45.1094872 95.6172459,45.6768205 92.8021639,45.6768205 L85.1790164,45.6768205 C84.7788852,45.6768205 84.4442623,45.5405897 84.1704262,45.2687179 C83.8965902,44.9950769 83.7614426,44.6583333 83.7614426,44.2608462 L83.7614426,25.1496154 C83.7614426,24.7521282 83.8965902,24.4088974 84.1704262,24.1264103 C84.4442623,23.8421538 84.7788852,23.7006154 85.1790164,23.7006154 L92.6127213,23.7006154 C94.9255738,23.7006154 96.6777705,24.2260769 97.8734426,25.2752308 C99.0738361,26.3243846 99.6693115,27.6996667 99.6693115,29.4010769 L99.6693115,29.4010769 Z M96.9303607,29.6198718 C96.9303607,28.6338205 96.5343607,27.8471026 95.7476721,27.2585385 C94.9609836,26.6723333 93.8432131,26.3768718 92.3931803,26.3768718 L86.6266885,26.3768718 L86.6266885,33.2090513 L91.8567213,33.2090513 C94.5649836,33.2090513 96.1820328,32.4854359 96.708459,31.0364359 C96.856,30.5953077 96.9303607,30.1241026 96.9303607,29.6198718 L96.9303607,29.6198718 Z M92.5171148,43.0005641 C95.4998033,43.0005641 97.2779672,42.2881538 97.8433443,40.8592051 C98.0345574,40.4204359 98.1254426,39.9274103 98.1254426,39.3795385 C98.1254426,38.1198462 97.6556721,37.2075128 96.708459,36.6401795 C95.7647869,36.0734359 94.3784918,35.7915385 92.5501639,35.7915385 L86.6266885,35.7915385 L86.6266885,43.0005641 L92.5171148,43.0005641 L92.5171148,43.0005641 Z" id="Fill-3" sketch:type="MSShapeGroup"></path>
            <path d="M115.015934,23.3856923 C118.333246,23.3856923 120.998426,24.4454615 123.015607,26.5661795 C124.97141,28.6444359 125.989443,31.3507692 126.072066,34.6898974 C125.989443,38.0260769 124.97141,40.7324103 123.015607,42.8118462 C120.998426,44.9325641 118.333246,45.9917436 115.015934,45.9917436 C111.672656,45.9917436 109.007475,44.9325641 107.012131,42.8118462 C105.016787,40.7129487 103.994623,38.0048462 103.955672,34.6898974 C103.994623,31.3725897 105.016787,28.6656667 107.012131,26.5661795 C109.007475,24.4454615 111.672656,23.3856923 115.015934,23.3856923 L115.015934,23.3856923 Z M115.015934,43.3154872 C117.576656,43.3154872 119.593836,42.4857179 121.063344,40.8285385 C122.48918,39.2338718 123.20682,37.1880513 123.20682,34.6898974 C123.20682,32.1917436 122.48918,30.1453333 121.063344,28.5488974 C119.593836,26.8917179 117.576656,26.061359 115.015934,26.061359 C112.451082,26.061359 110.433902,26.8917179 108.964393,28.5488974 C107.534426,30.1453333 106.820918,32.1917436 106.820918,34.6898974 C106.820918,37.1880513 107.534426,39.2338718 108.964393,40.8285385 C110.433902,42.4857179 112.451082,43.3154872 115.015934,43.3154872 L115.015934,43.3154872 Z" id="Fill-4" sketch:type="MSShapeGroup"></path>
            <path d="M137.162426,43.2830513 C140.840328,43.2830513 142.679279,42.0782051 142.679279,39.6643846 C142.679279,38.6565128 141.975213,37.8485641 140.566492,37.2399487 C139.958033,36.9881282 139.249246,36.7622564 138.440721,36.5623333 C137.632197,36.3624103 136.810098,36.1471538 135.984459,35.9165641 C135.153508,35.6871538 134.33259,35.4235385 133.523475,35.1310256 C132.714951,34.8349744 131.997311,34.4575385 131.367016,33.9969487 C129.980131,32.9472051 129.289049,31.5618974 129.289049,29.8416154 C129.289049,27.993359 129.980131,26.4830256 131.367016,25.3058974 C132.880197,24.0261538 134.905639,23.3856923 137.449246,23.3856923 C139.736131,23.3856923 141.827082,23.7330513 143.718557,24.426 C144.30518,24.6347692 144.600852,25.0534872 144.600852,25.6839231 C144.600852,25.9988462 144.488131,26.2990256 144.270951,26.5809231 C144.049049,26.8657692 143.805902,27.0067179 143.544459,27.0067179 C143.279475,27.0067179 142.918885,26.9241538 142.457377,26.7548974 C141.092918,26.2724872 139.527213,26.0318718 137.762033,26.0318718 C136.144984,26.0318718 134.810033,26.3355897 133.762492,26.9442051 C132.688984,27.5740513 132.153705,28.4669231 132.153705,29.6198718 C132.153705,30.8164615 132.845377,31.7181795 134.232262,32.3285641 C134.862557,32.6216667 135.575475,32.8634615 136.375738,33.0521795 C137.17541,33.2408974 137.992787,33.4408205 138.832,33.6495897 C139.674754,33.8601282 140.492131,34.1054615 141.292393,34.3897179 C142.087934,34.6727949 142.805574,35.0461026 143.431738,35.5066923 C144.818033,36.5145641 145.513836,37.9635641 145.513836,39.8531026 C145.513836,41.6588974 144.788525,43.1267692 143.340262,44.2608462 C141.848918,45.4143846 139.883672,45.9917436 137.449246,45.9917436 C134.779934,45.9917436 132.28,45.4881026 129.950033,44.4802308 C129.719279,44.3758462 129.510951,44.2089487 129.332131,43.976 C129.153902,43.746 129.067148,43.4682308 129.067148,43.1421026 C129.067148,42.8189231 129.179869,42.5228718 129.415344,42.2598462 C129.645508,41.9997692 129.911082,41.8670769 130.215016,41.8670769 C130.519541,41.8670769 130.897246,41.9667436 131.349311,42.1666667 C131.801967,42.3665897 132.541443,42.6030769 133.571279,42.8749487 C134.601705,43.1485897 135.797377,43.2830513 137.162426,43.2830513" id="Fill-5" sketch:type="MSShapeGroup"></path>
            <path d="M156.25659,43.2830513 C159.930951,43.2830513 161.769311,42.0782051 161.769311,39.6643846 C161.769311,38.6565128 161.065246,37.8485641 159.656525,37.2399487 C159.048066,36.9881282 158.338689,36.7622564 157.530754,36.5623333 C156.721639,36.3624103 155.904262,36.1471538 155.074492,35.9165641 C154.243541,35.6871538 153.426164,35.4235385 152.617639,35.1310256 C151.809115,34.8349744 151.087344,34.4575385 150.457049,33.9969487 C149.074885,32.9472051 148.379082,31.5618974 148.379082,29.8416154 C148.379082,27.993359 149.074885,26.4830256 150.457049,25.3058974 C151.97023,24.0261538 153.995672,23.3856923 156.539869,23.3856923 C158.830885,23.3856923 160.917705,23.7330513 162.80859,24.426 C163.395803,24.6347692 163.690885,25.0534872 163.690885,25.6839231 C163.690885,25.9988462 163.582295,26.2990256 163.360393,26.5809231 C163.138492,26.8657692 162.900066,27.0067179 162.635082,27.0067179 C162.373639,27.0067179 162.013049,26.9241538 161.548,26.7548974 C160.182951,26.2724872 158.617246,26.0318718 156.856787,26.0318718 C155.235016,26.0318718 153.904787,26.3355897 152.853115,26.9442051 C151.783148,27.5740513 151.248459,28.4669231 151.248459,29.6198718 C151.248459,30.8164615 151.939541,31.7181795 153.326426,32.3285641 C153.957311,32.6216667 154.67023,32.8634615 155.469902,33.0521795 C156.265443,33.2408974 157.087541,33.4408205 157.926164,33.6495897 C158.765377,33.8601282 159.587475,34.1054615 160.382426,34.3897179 C161.182689,34.6727949 161.895607,35.0461026 162.525902,35.5066923 C163.912787,36.5145641 164.604459,37.9635641 164.604459,39.8531026 C164.604459,41.6588974 163.882098,43.1267692 162.430295,44.2608462 C160.939541,45.4143846 158.974295,45.9917436 156.539869,45.9917436 C153.869967,45.9917436 151.374754,45.4881026 149.040066,44.4802308 C148.809311,44.3758462 148.605115,44.2089487 148.427475,43.976 C148.248656,43.746 148.15777,43.4682308 148.15777,43.1421026 C148.15777,42.8189231 148.275213,42.5228718 148.505377,42.2598462 C148.735541,41.9997692 149.005246,41.8670769 149.30977,41.8670769 C149.613705,41.8670769 149.992,41.9667436 150.444656,42.1666667 C150.896131,42.3665897 151.635016,42.6030769 152.665443,42.8749487 C153.691148,43.1485897 154.891541,43.2830513 156.25659,43.2830513" id="Fill-6" sketch:type="MSShapeGroup"></path>
            <path d="M186.82,44.5905128 C186.82,44.8735897 186.693705,45.1537179 186.442295,45.425 C186.189705,45.698641 185.789574,45.8331026 185.241902,45.8331026 C184.698951,45.8331026 184.29882,45.5405897 184.04623,44.9537949 L181.998361,40.0424103 L171.286295,40.0424103 L169.238426,44.9537949 C168.986426,45.5405897 168.586295,45.8331026 168.043344,45.8331026 C167.495082,45.8331026 167.095541,45.698641 166.843541,45.425 C166.590951,45.1537179 166.464656,44.8735897 166.464656,44.5905128 C166.464656,44.3086154 166.51718,44.0391026 166.621639,43.7872821 L174.655541,24.8341026 C175.034426,23.9742564 175.642885,23.5443333 176.48623,23.5443333 L176.799016,23.5443333 C177.63823,23.5443333 178.25141,23.9742564 178.629115,24.8341026 L186.659475,43.7872821 C186.768066,44.0391026 186.82,44.3086154 186.82,44.5905128 Z M180.894164,37.4292564 L176.642033,27.1954359 L172.390492,37.4292564 L180.894164,37.4292564 L180.894164,37.4292564 Z" id="Fill-7" sketch:type="MSShapeGroup"></path>
        </g>
    </g>
</svg>