<?xml version="1.0" encoding="utf-8"?>
<!-- Generator: Adobe Illustrator 16.0.0, SVG Export Plug-In . SVG Version: 6.00 Build 0)  -->
<!DOCTYPE svg PUBLIC "-//W3C//DTD SVG 1.1//EN" "http://www.w3.org/Graphics/SVG/1.1/DTD/svg11.dtd">
<svg version="1.1" id="Layer_1" xmlns="http://www.w3.org/2000/svg" xmlns:xlink="http://www.w3.org/1999/xlink" x="0px" y="0px"
	 width="800px" height="600px" viewBox="0 0 800 600" enable-background="new 0 0 800 600" xml:space="preserve">
<g>
	<path fill="#077CA0" d="M182.705,498.057l3.895-4.609c5.802,5.246,11.366,7.869,19.076,7.869c7.471,0,12.399-3.975,12.399-9.459
		v-0.158c0-5.166-2.782-8.107-14.467-10.572c-12.796-2.781-18.678-6.914-18.678-16.055v-0.16c0-8.742,7.71-15.18,18.28-15.18
		c8.107,0,13.91,2.305,19.554,6.834l-3.656,4.85c-5.167-4.213-10.333-6.041-16.056-6.041c-7.233,0-11.843,3.975-11.843,8.982v0.158
		c0,5.246,2.861,8.188,15.102,10.809c12.399,2.703,18.122,7.234,18.122,15.738v0.16c0,9.537-7.948,15.736-18.997,15.736
		C196.614,506.959,189.382,504.018,182.705,498.057z"/>
	<path fill="#077CA0" d="M234.77,478.504v-0.158c0-15.738,11.763-28.773,28.137-28.773c10.094,0,16.135,3.576,21.698,8.822
		l-4.292,4.611c-4.689-4.451-9.935-7.631-17.486-7.631c-12.319,0-21.539,10.016-21.539,22.811v0.16
		c0,12.877,9.299,22.971,21.539,22.971c7.631,0,12.639-2.941,17.964-8.027l4.133,4.053c-5.802,5.883-12.161,9.777-22.255,9.777
		C246.612,507.119,234.77,494.48,234.77,478.504z"/>
	<path fill="#077CA0" d="M296.45,450.527h6.279v55.637h-6.279V450.527z"/>
	<path fill="#077CA0" d="M317.833,450.527h42.364v11.127h-30.124v11.842h26.547v11.129h-26.547v21.539h-12.24V450.527z"/>
	<path fill="#077CA0" d="M382.694,450.129h11.286l23.845,56.035h-12.797l-5.087-12.479h-23.526l-5.087,12.479h-12.479
		L382.694,450.129z M395.57,482.877l-7.392-18.043l-7.393,18.043H395.57z"/>
	<path fill="#077CA0" d="M426.413,450.527h25.832c6.358,0,11.366,1.748,14.545,4.928c2.544,2.543,3.815,5.643,3.815,9.457v0.16
		c0,6.279-3.338,9.775-7.312,12.002c6.438,2.463,10.412,6.199,10.412,13.67v0.16c0,10.174-8.266,15.26-20.824,15.26h-26.468V450.527
		z M449.622,473.02c5.404,0,8.822-1.748,8.822-5.881v-0.16c0-3.656-2.861-5.723-8.027-5.723h-12.082v11.764H449.622z
		 M452.881,495.434c5.404,0,8.663-1.906,8.663-6.039v-0.16c0-3.736-2.781-6.041-9.061-6.041h-14.148v12.24H452.881z"/>
	<path fill="#077CA0" d="M483.803,450.527h25.435c7.074,0,12.559,1.986,16.215,5.643c3.1,3.1,4.769,7.471,4.769,12.717v0.16
		c0,8.98-4.849,14.623-11.923,17.246l13.592,19.871h-14.307l-11.923-17.805h-9.617v17.805h-12.24V450.527z M508.442,477.551
		c5.961,0,9.379-3.18,9.379-7.869v-0.158c0-5.246-3.656-7.949-9.617-7.949h-12.161v15.977H508.442z"/>
	<path fill="#077CA0" d="M541.829,450.527h12.24v55.637h-12.24V450.527z"/>
	<path fill="#077CA0" d="M565.517,478.504v-0.158c0-15.816,11.922-28.773,29.011-28.773c10.492,0,16.771,3.498,21.938,8.584
		l-7.789,8.982c-4.292-3.895-8.664-6.279-14.228-6.279c-9.379,0-16.135,7.789-16.135,17.326v0.16
		c0,9.537,6.597,17.486,16.135,17.486c6.358,0,10.253-2.543,14.625-6.518l7.789,7.869c-5.723,6.119-12.081,9.936-22.812,9.936
		C577.677,507.119,565.517,494.48,565.517,478.504z"/>
</g>
<path fill="#077CA0" d="M483.816,93.709l-34.855,20.043v40.187l34.845,20.036l34.917-20.036v-40.187L483.816,93.709z
	 M501.289,143.839l-17.432,10.1l-17.461-10.1v-19.978l17.427-10.109l17.466,10.109V143.839z"/>
<polygon opacity="0.4" fill="#077CA0" points="310,273.95 344.138,294.307 344.15,294.281 379.228,274.219 344.15,254.12 
	344.15,254.146 "/>
<polygon opacity="0.4" fill="#077CA0" points="448.985,274 414.084,294.182 448.884,314.318 484,294.228 "/>
<g>
	<polygon fill="#077CA0" points="448.951,314.26 448.951,314.279 448.953,314.278 	"/>
	<path fill="#077CA0" d="M397.002,143.766L275,214.097v140.641l122.002,70.332L519,354.738V214.097L397.002,143.766z M484,334.408
		l-0.112-0.016L397,384.541l-87-50.133v-20.131l17.085-10.02l69.601,40.123l52.197-30.062l-34.8-20.137L448.985,274L484,294.228
		V334.408z M344,294.307v-0.026l0.037,0.005L344,294.307z M484,254.2l-17.561,10.03l-69.575-40.116l-52.714,30.032l35.078,20.073
		l-35.129,20.032L310,273.95l0,0v-39.881l-0.19,0.027l87.19-50.15l87,50.123V254.2z"/>
</g>
</svg>
