<?xml version="1.0" encoding="UTF-8" standalone="no"?>
<svg width="112px" height="100px" viewBox="0 0 112 100" version="1.1" xmlns="http://www.w3.org/2000/svg" xmlns:xlink="http://www.w3.org/1999/xlink" xmlns:sketch="http://www.bohemiancoding.com/sketch/ns">
    <!-- Generator: Sketch 3.3.3 (12072) - http://www.bohemiancoding.com/sketch -->
    <title>services</title>
    <desc>Created with Sketch.</desc>
    <defs></defs>
    <g id="Page-1" stroke="none" stroke-width="1" fill="none" fill-rule="evenodd" sketch:type="MSPage">
        <g id="services" sketch:type="MSArtboardGroup">
            <path d="M28.883883,90.7827206 C27.5657289,90.7113051 26.3493695,89.8934283 25.849023,88.5994485 L25.4263165,87.5112132 L26.9221799,88.0026195 L28.4542752,90.2658088 C28.5836752,90.4545496 28.7268778,90.6279871 28.883883,90.7827206 M42.941893,85.8108456 L43.3697755,84.5474724 L49.4567489,80.544807 L89.4240784,65.5152574 C89.8243556,65.3639246 90.1814994,65.1479779 90.4834326,64.8827206 C90.8181472,66.4861673 89.9347769,68.1389246 88.3336682,68.7408548 L42.941893,85.8108456 M20.7489399,75.2430607 C20.5626039,74.1667279 20.9197478,73.0784926 21.6702675,72.3133272 C21.3269263,72.9900735 21.2199557,73.7688419 21.3752356,74.518704 C21.128513,74.7329504 20.9180225,74.9778033 20.7489399,75.2430607" id="Fill-4" fill-opacity="0.3" fill="#414A55" sketch:type="MSShapeGroup"></path>
            <path d="M30.1640798,85.8618566 C29.4532428,85.8618566 28.8045177,85.4214614 28.5526192,84.7668199 L23.6302453,72.0582721 C23.4646134,71.6348805 23.478416,71.1723805 23.6682026,70.7574908 C23.8562639,70.3426011 24.1961544,70.0263327 24.6274875,69.8647978 L82.657324,48.040579 C82.8557373,47.9657629 83.0627772,47.9283548 83.2715424,47.9283548 C83.9841048,47.9283548 84.6328298,48.3670496 84.8847284,49.0216912 L89.8053769,61.7319393 C89.9692835,62.1570312 89.9554809,62.6178309 89.769145,63.0327206 C89.5810837,63.4476103 89.2394678,63.7638787 88.8081347,63.927114 L30.7782982,85.7496324 C30.5781596,85.8244485 30.3728451,85.8618566 30.1640798,85.8618566" id="Fill-5" fill="#76ACC5" sketch:type="MSShapeGroup"></path>
            <path d="M83.2715424,46.2262868 C82.8626386,46.2262868 82.4468334,46.2994026 82.0431056,46.4507353 L24.0115438,68.274954 C22.2310006,68.9448989 21.3390036,70.9088235 22.0187846,72.6636029 L26.9394332,85.3738511 C27.4639343,86.7290441 28.7734618,87.5622243 30.1640798,87.5622243 C30.5729836,87.5622243 30.9887888,87.4908088 31.394242,87.3377757 L89.4240784,65.5152574 C91.2046217,64.8453125 92.0966186,62.8796875 91.4185629,61.1249081 L86.496189,48.4163603 C85.9716879,47.0611673 84.6621605,46.2262868 83.2715424,46.2262868 M83.2732677,49.6287224 L83.2732677,49.6287224 L88.1939163,62.3372702 L30.1623545,84.161489 L25.2417059,71.4529412 L83.2732677,49.6287224" id="Fill-6" fill="#DEDFCB" sketch:type="MSShapeGroup"></path>
            <path d="M31.3286793,91.779136 C30.4280557,91.779136 29.5429601,91.4339614 28.883883,90.7827206 C28.9477203,90.7861213 29.0098323,90.7878217 29.0736696,90.7878217 C29.4825734,90.7878217 29.8983786,90.7164062 30.3021064,90.5633732 L30.3883731,90.5310662 L31.1440687,91.2622243 C31.342482,91.4526654 31.5564232,91.6159007 31.7841671,91.7502298 C31.6323379,91.7689338 31.4805086,91.779136 31.3286793,91.779136 M20.428028,78.2408088 C20.0519055,77.2409926 20.1813054,76.1289522 20.7489399,75.2430607 C20.7851718,75.4607077 20.8455585,75.6766544 20.9266491,75.8909007 L21.304497,76.8652114 L21.2406596,76.9298254 C20.8593611,77.3141085 20.5884839,77.7630055 20.428028,78.2408088" id="Fill-7" fill-opacity="0.3" fill="#414A55" sketch:type="MSShapeGroup"></path>
            <path d="M29.0736696,90.7878217 C29.0098323,90.7878217 28.9477203,90.7861213 28.883883,90.7827206 C28.7268778,90.6279871 28.5836752,90.4545496 28.4542752,90.2658088 L26.9221799,88.0026195 L28.209278,88.4243107 L30.3883731,90.5310662 L30.3021064,90.5633732 C29.8983786,90.7164063 29.4825734,90.7878217 29.0736696,90.7878217 M43.3697755,84.5474724 L43.7372713,83.4609375 L44.9519055,82.2400735 L49.4567489,80.544807 L43.3697755,84.5474724 M21.304497,76.8652114 L20.9266491,75.8909007 C20.8455585,75.6766544 20.7851718,75.4607077 20.7489399,75.2430607 C20.9180225,74.9778033 21.128513,74.7329504 21.3752356,74.518704 C21.4097422,74.6853401 21.4580516,74.8519761 21.5184382,75.0152114 C21.3303769,75.5780331 21.294145,76.1799632 21.4114676,76.7563879 L21.304497,76.8652114 Z M33.5595344,92.2348346 C32.945316,92.2348346 32.3293722,92.0732996 31.7841671,91.7502298 C32.2896896,91.6839154 32.7883107,91.5053768 33.2403478,91.2078125 L33.3800998,91.1159926 L34.382518,91.7077206 C34.5550513,91.8097426 34.7310352,91.894761 34.9121951,91.9627757 C34.4825873,92.1430147 34.0201982,92.2348346 33.5595344,92.2348346 Z M20.9024945,81.2963695 C20.2468681,80.4002757 20.0864121,79.2576287 20.428028,78.2408088 C20.5194706,78.4856618 20.6419692,78.7237132 20.7937985,78.9498621 L21.4425236,79.9088695 L21.3579823,80.05 C21.1164357,80.4444853 20.9680571,80.8678768 20.9024945,81.2963695 Z M21.4425236,79.9088695 L20.7937985,78.9498621 C20.6419692,78.7237132 20.5194706,78.4856618 20.428028,78.2408088 C20.5884839,77.7630055 20.8593611,77.3141085 21.2406596,76.9298254 L21.304497,76.8652114 L21.9566727,78.5502757 C21.9566727,78.7050092 21.9670247,78.861443 21.9860033,79.0144761 L21.4425236,79.9088695 Z M36.1527093,92.1923254 C35.7369041,92.1923254 35.3159229,92.1175092 34.9121951,91.9627757 C35.3176483,91.792739 35.6972215,91.5427849 36.0250346,91.214614 L36.1906666,91.0479779 L37.4001247,91.4441636 C37.6330446,91.5206801 37.8694152,91.5716912 38.1040604,91.5988971 C37.5295247,91.9865809 36.846293,92.1923254 36.1527093,92.1923254 Z M21.9652993,84.2873162 C21.1267877,83.51875 20.7385879,82.3914063 20.9024945,81.2963695 C21.0163664,81.4528033 21.1457664,81.6007353 21.288969,81.7384651 L22.1982192,82.6175551 L22.1223046,82.8403033 C21.9601233,83.3215074 21.911814,83.814614 21.9652993,84.2873162 Z M34.9121951,91.9627757 C34.7310352,91.894761 34.5550513,91.8097426 34.382518,91.7077206 L33.3800998,91.1159926 L34.3859687,90.4545496 L36.1906666,91.0479779 L36.0250346,91.214614 C35.6972215,91.5427849 35.3176483,91.792739 34.9121951,91.9627757 Z M22.1982192,82.6175551 L21.288969,81.7384651 C21.1457664,81.6007353 21.0163664,81.4528033 20.9024945,81.2963695 C20.9680571,80.8678768 21.1164357,80.4444853 21.3579823,80.05 L21.4425236,79.9088695 L22.5570884,81.5548254 L22.1982192,82.6175551 Z M26.9221799,88.0026195 L25.4263165,87.5112132 L24.8776608,86.0931066 L26.1319775,86.8344669 L26.9221799,88.0026195 Z M42.941893,85.8108456 L43.3697755,84.5474724 L42.941893,85.8108456 Z M24.8776608,86.0931066 L22.5432858,84.7141085 C22.3310698,84.5899816 22.1395579,84.4454504 21.9652993,84.2873162 C21.911814,83.814614 21.9601233,83.3215074 22.1223046,82.8403033 L22.1982192,82.6175551 L24.329005,84.6767004 L24.8776608,86.0931066 Z" id="Fill-8" fill-opacity="0.3" fill="#3A4048" sketch:type="MSShapeGroup"></path>
            <path d="M53.4750485,75.3943934 L85.1780349,54.5495864 L85.857816,56.3060662 C85.6145441,56.6631434 85.2953575,56.9811121 84.908883,57.2361673 L62.389842,72.0412684 L53.4750485,75.3943934" id="Fill-9" fill="#638DA1" sketch:type="MSShapeGroup"></path>
            <path d="M44.9519055,82.2400735 L48.523344,78.6488971 L53.4750485,75.3943934 L62.389842,72.0412684 L49.4567489,80.544807 L44.9519055,82.2400735 M85.857816,56.3060662 L85.1780349,54.5495864 L86.0010186,54.0088695 C86.1338692,53.9221507 86.2598185,53.8269301 86.3754157,53.7249081 C86.5600263,54.6159007 86.3736904,55.5494026 85.857816,56.3060662" id="Fill-10" fill="#B3B3A5" sketch:type="MSShapeGroup"></path>
            <path d="M32.4208149,86.853171 C31.8411031,86.853171 31.301074,86.5692096 30.9818875,86.094807 L23.3214108,74.7788603 C23.0660615,74.4013787 22.9746189,73.9473805 23.0643362,73.5035846 C23.1557788,73.0580882 23.416304,72.6721048 23.7993279,72.4204504 L75.4678631,38.4505055 C75.752543,38.2634651 76.0820815,38.1631434 76.4236973,38.1631434 C77.0034091,38.1631434 77.5399875,38.4471048 77.8608994,38.9215074 L85.5196508,50.237454 C85.7767253,50.6149357 85.8664426,51.0672335 85.7784507,51.5127298 C85.687008,51.9582261 85.4247575,52.3425092 85.043459,52.595864 L33.3749238,86.5658088 C33.0902439,86.7545496 32.75898,86.853171 32.4208149,86.853171" id="Fill-11" fill="#73BBA2" sketch:type="MSShapeGroup"></path>
            <path d="M76.421972,36.4627757 C75.7646203,36.4627757 75.0986419,36.6481158 74.5103035,37.0357996 L22.8417683,71.0074449 C21.2561876,72.0497702 20.8283052,74.1616268 21.885934,75.7225643 L29.5464108,87.038511 C30.2106638,88.0213235 31.3045247,88.5535386 32.4190895,88.5535386 C33.0781666,88.5535386 33.7424196,88.3681985 34.330758,87.9805147 L86.0010186,54.0088695 C87.5865992,52.9665441 88.0144817,50.8546875 86.9568528,49.29375 L79.2963761,37.9778033 C78.6303977,36.9949908 77.5365369,36.4627757 76.421972,36.4627757 M76.4254227,39.8652114 L76.4254227,39.863511 L84.0858994,51.1794577 L32.4156389,85.1511029 L24.7568875,73.8351563 L76.4254227,39.8652114" id="Fill-12" fill="#DEDFCB" sketch:type="MSShapeGroup"></path>
            <path d="M31.7841671,91.7502298 C31.5564232,91.6159007 31.342482,91.4526654 31.1440687,91.2622243 L30.3883731,90.5310662 L31.6133592,90.0719669 L33.3800998,91.1159926 L33.2403478,91.2078125 C32.7883107,91.5053768 32.2896896,91.6839154 31.7841671,91.7502298" id="Fill-14" fill-opacity="0.3" fill="#414A55" sketch:type="MSShapeGroup"></path>
            <path d="M30.3883731,90.5310662 L28.209278,88.4243107 L29.5981707,88.8817096 L31.6133592,90.0719669 L30.3883731,90.5310662 M43.7372713,83.4609375 L44.0340285,82.5852482 L44.9519055,82.2400735 L43.7372713,83.4609375" id="Fill-15" fill-opacity="0.3" fill="#34393F" sketch:type="MSShapeGroup"></path>
            <path d="M44.0340285,82.5852482 L44.1340978,82.2876838 L44.8949695,81.0345129 L48.523344,78.6488971 L44.9519055,82.2400735 L44.0340285,82.5852482" id="Fill-16" fill="#949388" sketch:type="MSShapeGroup"></path>
            <path d="M54.1582802,70.8578125 L79.8933412,44.9867187 L80.4299196,45.7790901 C80.3039703,46.4099265 79.9968611,47.0118566 79.5068667,47.5032629 L60.2797603,66.8330423 L54.1582802,70.8578125" id="Fill-17" fill="#629986" sketch:type="MSShapeGroup"></path>
            <path d="M44.8949695,81.0345129 L46.2528063,78.8036305 L54.1582802,70.8578125 L60.2797603,66.8330423 L48.523344,78.6488971 L44.8949695,81.0345129 M80.4299196,45.7790901 L79.8933412,44.9867188 L80.426469,44.4511029 C80.5161863,44.8897978 80.5161863,45.3403952 80.4299196,45.7790901" id="Fill-18" fill="#B3B3A5" sketch:type="MSShapeGroup"></path>
            <path d="M21.9566727,78.5502757 L21.304497,76.8652114 L21.4114676,76.7563879 C21.5063609,77.2222886 21.7013234,77.6711857 21.99463,78.0724724 C21.9704753,78.2306066 21.958398,78.3904412 21.9566727,78.5502757" id="Fill-21" fill-opacity="0.3" fill="#34393F" sketch:type="MSShapeGroup"></path>
            <path d="M34.6516699,87.3088695 C34.1961821,87.3088695 33.7665743,87.135432 33.4439371,86.8225643 L23.5888373,77.2988051 C23.2575734,76.9808364 23.0746882,76.5557445 23.0695122,76.1017463 C23.0660615,75.6477482 23.2420455,75.2175551 23.5629573,74.8944853 L67.0465147,31.1831342 C67.3743279,30.8549632 67.8125624,30.6747243 68.2784022,30.6747243 C68.73389,30.6747243 69.1617725,30.8464614 69.486135,31.1610294 L79.3412348,40.6830882 C79.6724986,41.001057 79.8553839,41.4261489 79.8605599,41.8818474 C79.8640105,42.3358456 79.6880266,42.7643382 79.3671147,43.0874081 L35.8835574,86.7987592 C35.5557442,87.1269301 35.1175097,87.3088695 34.6516699,87.3088695" id="Fill-22" fill="#F1CC84" sketch:type="MSShapeGroup"></path>
            <path d="M68.2784022,28.9743566 C67.3846799,28.9743566 66.4909576,29.3144301 65.8146272,29.9928768 L22.3310698,73.7042279 C20.9973877,75.045818 21.0180917,77.1984835 22.3793792,78.5128676 L32.2362043,88.0366268 C32.9073586,88.6844669 33.7803769,89.0092371 34.6516699,89.0092371 C35.5453922,89.0092371 36.4391145,88.6674632 37.1154448,87.9890165 L80.5990022,44.2776654 C81.9326843,42.9377757 81.9119803,40.7834099 80.5506929,39.4690257 L70.6938678,29.9452665 C70.0227134,29.2974265 69.1514205,28.9743566 68.2784022,28.9743566 M68.2784022,32.3750919 L68.2784022,32.3750919 L78.1352273,41.8971507 L34.6516699,85.6085018 L24.7948448,76.0847426 L68.2749515,32.3750919 L68.2784022,32.3750919" id="Fill-23" fill="#ECECDE" sketch:type="MSShapeGroup"></path>
            <path d="M33.3800998,91.1159926 L31.6133592,90.0719669 L32.3621535,89.7897059 L34.3859687,90.4545496 L33.3800998,91.1159926 M22.5570884,81.5548254 L21.4425236,79.9088695 L21.9860033,79.0144761 C22.0757206,79.6725184 22.3569498,80.299954 22.808987,80.8100643 L22.5570884,81.5548254" id="Fill-27" fill-opacity="0.3" fill="#34393F" sketch:type="MSShapeGroup"></path>
            <path d="M31.6133592,90.0719669 L29.5981707,88.8817096 L32.3621535,89.7897059 L31.6133592,90.0719669" id="Fill-28" fill-opacity="0.3" fill="#414A55" sketch:type="MSShapeGroup"></path>
            <path d="M44.1340978,82.2876838 L44.4601857,81.3201746 L44.8949695,81.0345129 L44.1340978,82.2876838" id="Fill-29" fill="#7C7B72" sketch:type="MSShapeGroup"></path>
            <path d="M44.4601857,81.3201746 L44.8276815,80.2353401 L46.2528063,78.8036305 L44.8949695,81.0345129 L44.4601857,81.3201746" id="Fill-30" fill="#949388" sketch:type="MSShapeGroup"></path>
            <path d="M51.6116893,68.5589154 L71.5064994,35.8421415 C71.6065687,36.5767004 71.4616408,37.3469669 71.0458356,38.0322151 L53.851171,66.3076287 L51.6116893,68.5589154" id="Fill-31" fill="#C1A66E" sketch:type="MSShapeGroup"></path>
            <path d="M44.8276815,80.2353401 L45.224508,79.0620864 L51.6116893,68.5589154 L53.851171,66.3076287 L46.2528063,78.8036305 L44.8276815,80.2353401" id="Fill-32" fill="#CFCEC8" sketch:type="MSShapeGroup"></path>
            <path d="M37.2448448,87.2646599 C36.9342849,87.2646599 36.6289011,87.1813419 36.3614745,87.0232077 L24.5205169,80.0295956 C24.1254157,79.7966452 23.8459119,79.4259651 23.7354906,78.9855699 C23.6216186,78.5451746 23.6906319,78.0877757 23.9287278,77.6983915 L55.8577328,25.192739 C56.1717433,24.6741268 56.7273004,24.3646599 57.3397935,24.3646599 C57.6503534,24.3646599 57.9557373,24.4479779 58.2231638,24.6078125 L70.0641214,31.5997243 C70.8802037,32.0809283 71.1459049,33.1283548 70.6576358,33.9326287 L38.7286308,86.4382813 C38.412895,86.9568934 37.8573379,87.2646599 37.2448448,87.2646599" id="Fill-33" fill="#D5925C" sketch:type="MSShapeGroup"></path>
            <path d="M57.3415188,22.6642923 C56.1682927,22.6642923 55.0243972,23.2543199 54.3773975,24.3170496 L22.4483925,76.8227022 C21.4684035,78.4346507 21.999806,80.5227022 23.6354213,81.488511 L35.4746535,88.4821232 C36.0302106,88.8102941 36.6409784,88.9650276 37.2448448,88.9650276 C38.4163456,88.9650276 39.5602411,88.3767004 40.2072409,87.3122702 L72.1362458,34.8066176 C73.1162348,33.1963695 72.5848323,31.1066176 70.9509424,30.1408088 L59.1117101,23.1488971 C58.556153,22.8207261 57.9453853,22.6642923 57.3415188,22.6642923 M57.3380682,26.0667279 L57.3380682,26.0650276 L69.1773004,33.0586397 L37.2482955,85.5642923 L25.4090632,78.5706801 L57.3346175,26.0667279 L57.3380682,26.0667279" id="Fill-34" fill="#EAEADF" sketch:type="MSShapeGroup"></path>
            <path d="M38.4905349,91.6193015 C38.3628603,91.6193015 38.2334604,91.6125 38.1040604,91.5988971 C38.5043376,91.330239 38.8511294,90.9731618 39.1168307,90.5378676 L40.4953714,88.2712776 C41.5668029,87.9805147 42.4777785,87.1847426 42.8556264,86.0676011 L42.941893,85.8108456 L41.7634909,89.2931985 C41.2821231,90.7181066 39.9363636,91.6193015 38.4905349,91.6193015 M25.4263165,87.5112132 L24.3048503,87.1422335 C22.9849709,86.7086397 22.1085019,85.5659926 21.9652993,84.2873162 C22.1395579,84.4454504 22.3310698,84.5899816 22.5432858,84.7141085 L24.8776608,86.0931066 L25.4263165,87.5112132" id="Fill-35" fill-opacity="0.3" fill="#414A55" sketch:type="MSShapeGroup"></path>
            <path d="M28.209278,88.4243107 L26.9221799,88.0026195 L26.1319775,86.8344669 L27.2396411,87.4874081 L28.209278,88.4243107 M43.3697755,84.5474724 L43.7372713,83.4609375 L43.3697755,84.5474724" id="Fill-37" fill-opacity="0.3" fill="#34393F" sketch:type="MSShapeGroup"></path>
            <path d="M29.5981707,88.8817096 L28.209278,88.4243107 L27.2396411,87.4874081 L29.5981707,88.8817096 M43.7372713,83.4609375 L44.0340285,82.5852482 L43.7372713,83.4609375" id="Fill-38" fill-opacity="0.3" fill="#414A55" sketch:type="MSShapeGroup"></path>
            <path d="M44.0340285,82.5852482 L44.1340978,82.2876838 L44.0340285,82.5852482" id="Fill-39" fill="#7C7B72" sketch:type="MSShapeGroup"></path>
            <path d="M38.1040604,91.5988971 C37.8694152,91.5716912 37.6330446,91.5206801 37.4001247,91.4441636 L36.1906666,91.0479779 L38.4870843,88.7388787 C38.7355322,88.6436581 38.973628,88.5212316 39.196196,88.3715993 C39.3255959,88.3869026 39.4532705,88.393704 39.5826705,88.393704 C39.8932303,88.393704 40.2003395,88.3511949 40.4953714,88.2712776 L39.1168307,90.5378676 C38.8511294,90.9731618 38.5043376,91.330239 38.1040604,91.5988971" id="Fill-40" fill-opacity="0.3" fill="#414A55" sketch:type="MSShapeGroup"></path>
            <path d="M26.1319775,86.8344669 L24.8776608,86.0931066 L24.329005,84.6767004 L25.3176206,85.632307 L26.1319775,86.8344669" id="Fill-42" fill-opacity="0.3" fill="#414A55" sketch:type="MSShapeGroup"></path>
            <path d="M27.2396411,87.4874081 L26.1319775,86.8344669 L25.3176206,85.632307 L27.2396411,87.4874081" id="Fill-43" fill-opacity="0.3" fill="#414A55" sketch:type="MSShapeGroup"></path>
            <path d="M36.1906666,91.0479779 L34.3859687,90.4545496 L36.711717,88.9242187 C36.8894263,88.9514246 37.0671355,88.9650276 37.2448448,88.9650276 C37.6710019,88.9650276 38.0919831,88.888511 38.4870843,88.7388787 L36.1906666,91.0479779 M24.329005,84.6767004 L22.1982192,82.6175551 L22.5570884,81.5548254 L23.8735172,83.4966452 L24.329005,84.6767004" id="Fill-44" fill-opacity="0.3" fill="#34393F" sketch:type="MSShapeGroup"></path>
            <path d="M25.3176206,85.632307 L24.329005,84.6767004 L23.8735172,83.4966452 L25.3176206,85.632307" id="Fill-45" fill-opacity="0.3" fill="#414A55" sketch:type="MSShapeGroup"></path>
            <path d="M34.3859687,90.4545496 L32.3621535,89.7897059 L34.4532567,89.0024357 C34.5188193,89.0075368 34.5843819,89.0092371 34.6516699,89.0092371 C35.1123337,89.0092371 35.5729975,88.9174173 36.0043307,88.7371783 C36.2355252,88.8255974 36.4736211,88.888511 36.711717,88.9242188 L34.3859687,90.4545496 M23.8735172,83.4966452 L22.5570884,81.5548254 L22.808987,80.8100643 C22.8227896,80.8253676 22.8365923,80.840671 22.850395,80.8542739 L23.8735172,83.4966452" id="Fill-46" fill-opacity="0.3" fill="#34393F" sketch:type="MSShapeGroup"></path>
            <path d="M32.3621535,89.7897059 L29.5981707,88.8817096 L27.2396411,87.4874081 L25.3176206,85.632307 L23.8735172,83.4966452 L22.850395,80.8542739 C22.9159576,80.9256893 22.9849709,80.9954044 23.0557095,81.0617188 C23.1989121,82.3403952 24.0771064,83.4830423 25.3969859,83.916636 L26.5184521,84.2856158 L26.9394332,85.3738511 C27.441505,86.6678309 28.6578645,87.4857077 29.9760186,87.5571232 C30.6350956,88.2066636 31.5201912,88.5535386 32.4190895,88.5535386 C32.5709188,88.5535386 32.7227481,88.5433364 32.872852,88.522932 C33.3593958,88.8119945 33.9046009,88.971829 34.4532567,89.0024357 L32.3621535,89.7897059" id="Fill-47" fill-opacity="0.3" fill="#34393F" sketch:type="MSShapeGroup"></path>
            <path d="M29.9760186,87.5571232 C28.6578645,87.4857077 27.441505,86.6678309 26.9394332,85.3738511 L26.5184521,84.2856158 L28.0143154,84.7770221 L29.5464108,87.038511 C29.6740854,87.2289522 29.8190133,87.4023897 29.9760186,87.5571232 M44.1340978,82.2876838 L44.4601857,81.3201746 L44.1340978,82.2876838" id="Fill-48" fill="#6A665F" sketch:type="MSShapeGroup"></path>
            <path d="M32.4190895,88.5535386 C31.5201912,88.5535386 30.6350956,88.2066636 29.9760186,87.5571232 C29.8190133,87.4023897 29.6740854,87.2289522 29.5464108,87.038511 L28.0143154,84.7770221 L29.2979629,85.1987132 L32.2362043,88.0366268 C32.4328922,88.227068 32.6468334,88.3886029 32.872852,88.522932 C32.7227481,88.5433364 32.5709188,88.5535386 32.4190895,88.5535386 M44.4601857,81.3201746 L44.8276815,80.2353401 L44.4601857,81.3201746" id="Fill-49" fill="#7C7B72" sketch:type="MSShapeGroup"></path>
            <path d="M34.6516699,89.0092371 C34.5843819,89.0092371 34.5188193,89.0075368 34.4532567,89.0024357 C33.9046009,88.971829 33.3593958,88.8119945 32.872852,88.522932 C32.6468334,88.3886029 32.4328922,88.227068 32.2362043,88.0366268 L29.2979629,85.1987132 L30.6885809,85.6544118 L35.4746535,88.4821232 C35.6454615,88.5824449 35.8231707,88.6691636 36.0043307,88.7371783 C35.5729975,88.9174173 35.1123337,89.0092371 34.6516699,89.0092371 M44.8276815,80.2353401 L45.224508,79.0620864 L44.8276815,80.2353401" id="Fill-50" fill="#A9A8A4" sketch:type="MSShapeGroup"></path>
            <path d="M27.4915396,66.965671 L41.7652162,24.7693474 C41.7669415,24.7642463 41.7686669,24.7591452 41.7703922,24.7540441 L27.4915396,66.965671" id="Fill-51" fill="#414A55" sketch:type="MSShapeGroup"></path>
            <path d="M27.0636572,68.2307445 L27.4915396,66.965671 L27.0636572,68.2307445" id="Fill-52" fill="#B3B3A5" sketch:type="MSShapeGroup"></path>
            <path d="M26.6978866,69.315579 L27.0636572,68.2307445 L26.6978866,69.3138787 L26.6978866,69.315579" id="Fill-53" fill="#B3B3A5" sketch:type="MSShapeGroup"></path>
            <path d="M26.3010601,70.4888327 L26.6978866,69.315579 L26.6978866,69.3138787 L26.3010601,70.4888327" id="Fill-54" fill="#CFCEC8" sketch:type="MSShapeGroup"></path>
            <path d="M50.2659299,64.1549632 L61.4081278,31.2171415 C61.4064024,31.2188419 61.4064024,31.2205423 61.4064024,31.2222426 L50.2659299,64.1549632" id="Fill-55" fill="#AF7A51" sketch:type="MSShapeGroup"></path>
            <path d="M37.2448448,88.9650276 C37.0671355,88.9650276 36.8894263,88.9514246 36.711717,88.9242187 C36.4736211,88.888511 36.2355252,88.8255974 36.0043307,88.7371783 C35.8231707,88.6691636 35.6454615,88.5824449 35.4746535,88.4821232 L30.6885809,85.6544118 L38.4905349,88.2185662 C38.7251802,88.2950827 38.9615507,88.3460937 39.196196,88.3715993 C38.973628,88.5212316 38.7355322,88.6436581 38.4870843,88.7388787 C38.0919831,88.888511 37.6710019,88.9650276 37.2448448,88.9650276 M23.0557095,81.0617187 C22.9849709,80.9954044 22.9159576,80.9256893 22.850395,80.8542739 C22.8365923,80.840671 22.8227896,80.8253676 22.808987,80.8100643 L26.3010601,70.4888327 L23.2144401,79.6147059 C23.0505335,80.0959099 23.0039496,80.5873162 23.0557095,81.0617187 M45.224508,79.0620864 L50.2659299,64.1549632 L45.224508,79.0620864" id="Fill-56" fill="#CFCEC8" sketch:type="MSShapeGroup"></path>
            <path d="M39.0374654,86.6049173 L25.942191,82.3029871 C25.5039565,82.1601562 25.1502633,81.8574908 24.9449487,81.4494026 C24.7396341,81.0447151 24.7051275,80.5839154 24.8500554,80.1520221 L44.4912417,22.0810662 C44.7276123,21.3839154 45.384964,20.9163143 46.1285823,20.9163143 C46.3131929,20.9163143 46.4978035,20.946921 46.6755127,21.0047335 L59.7690618,25.3066636 C60.2072963,25.4511949 60.5609895,25.7538603 60.766304,26.1602482 C60.9750693,26.566636 61.0061253,27.0274357 60.8611973,27.4576287 L41.2182858,85.5285846 C40.9836405,86.2257353 40.3262888,86.6933364 39.5826705,86.6933364 C39.3997852,86.6933364 39.2151746,86.6627298 39.0374654,86.6049173 Z" id="Fill-57" fill="#B95756" sketch:type="MSShapeGroup"></path>
            <path d="M46.1285823,19.2159467 C44.6844789,19.2159467 43.3387195,20.1171415 42.8556264,21.5420496 L23.2144401,79.6147059 C22.6105737,81.3966912 23.5888373,83.3232077 25.3969859,83.916636 L38.4905349,88.2185662 C38.8528548,88.3375919 39.2203506,88.393704 39.5826705,88.393704 C41.0267738,88.393704 42.3742586,87.4925092 42.8556264,86.0676011 L62.4968126,27.9949449 C63.100679,26.2129596 62.1224155,24.2881434 60.3142669,23.6947151 L47.2207178,19.3927849 C46.858398,19.2737592 46.4909022,19.2159467 46.1285823,19.2159467 M46.132033,22.6183824 L59.2238567,26.9203125 L39.5809451,84.9912684 L26.4873961,80.6910386 L46.132033,22.6183824" id="Fill-58" fill="#F0F0EE" sketch:type="MSShapeGroup"></path>
            <path d="M35.176171,79.7881434 C34.8362805,79.7881434 34.491214,79.735432 34.1530488,79.6232077 C32.4570468,79.0671875 31.5426206,77.2613971 32.1068043,75.591636 C32.5588415,74.2551471 33.8200596,73.4100643 35.1744457,73.4100643 C35.5143362,73.4100643 35.8594027,73.4627757 36.1992932,73.575 C37.8935698,74.1310202 38.8097215,75.9368107 38.2438124,77.6065717 C37.7935006,78.9430607 36.5305571,79.7881434 35.176171,79.7881434" id="Fill-59" fill="#974D4C" sketch:type="MSShapeGroup"></path>
            <path d="M38.9270441,75.591636 C38.361135,77.2613971 36.5288318,78.1642923 34.8345552,77.6065717 C33.1402785,77.0505515 32.2241269,75.244761 32.7883107,73.575 C33.3542198,71.9035386 35.186523,71.0006434 36.8807996,71.558364 C38.5750762,72.1143842 39.4912278,73.9201746 38.9270441,75.591636" id="Fill-60" fill="#FFFFFF" sketch:type="MSShapeGroup"></path>
            <path d="M40.7817434,56.3307864 C41.4938265,56.3307864 42.0294363,56.5024932 42.3882847,56.8457728 C42.685094,57.1220841 42.8336426,57.4798289 42.8336426,57.9183375 C42.8336426,58.3568461 42.685094,58.7145909 42.3882847,58.9909022 C42.0294363,59.3341818 41.4938265,59.5058886 40.7817434,59.5058886 L39.3830548,59.5058886 L39.3830548,61.0357131 C39.3830548,61.1265221 39.3487965,61.2029999 39.2791284,61.2646108 C39.2103239,61.3267574 39.1271252,61.357295 39.030108,61.357295 C38.932515,61.357295 38.8508997,61.3267574 38.7839665,61.2646108 C38.7171772,61.2029999 38.6843583,61.1265221 38.6843583,61.0357131 L38.6843583,56.6598687 C38.6843583,56.5695954 38.7171772,56.4916443 38.7839665,56.4274886 C38.8508997,56.3629312 38.932515,56.3307864 39.030108,56.3307864 L40.7817434,56.3307864 L40.7817434,56.3307864 Z M40.7127949,58.8907176 C41.2403439,58.8907176 41.6222232,58.7861131 41.8580009,58.5759665 C42.042679,58.414037 42.1342264,58.1946488 42.1342264,57.9183375 C42.1342264,57.4747393 41.8962895,57.1792751 41.420128,57.0318108 C41.2355938,56.9744859 40.9996722,56.9459574 40.7127949,56.9459574 L39.3830548,56.9459574 L39.3830548,58.8907176 L40.7127949,58.8907176 L40.7127949,58.8907176 Z" id="Fill-1" fill="#FFFFFF" sketch:type="MSShapeGroup" transform="translate(40.759000, 58.844041) rotate(-72.000000) translate(-40.759000, -58.844041) "></path>
            <path d="M43.796792,52.0374628 C43.8730815,51.9280365 43.9695229,51.8732564 44.0846768,51.8732564 C44.1996868,51.8732564 44.2882114,51.9041958 44.3496748,51.9659406 C44.4112822,52.0280872 44.4420859,52.0996094 44.4420859,52.1805071 C44.4420859,52.2614049 44.4213581,52.333061 44.3804785,52.3952076 L42.5360003,54.7902628 L42.5360003,56.6136763 C42.5360003,56.7044854 42.5031814,56.7809632 42.4362482,56.8425741 C42.3694589,56.9047207 42.2878435,56.9352582 42.1902506,56.9352582 C42.0926576,56.9352582 42.0100347,56.9047207 41.9406544,56.8425741 C41.8711302,56.7809632 41.8371598,56.7044854 41.8371598,56.6136763 L41.8371598,54.7902628 L40.0005984,52.3952076 C39.959287,52.333061 39.939135,52.2614049 39.939135,52.1805071 C39.939135,52.0996094 39.9697948,52.0280872 40.0308264,51.9659406 C40.0924337,51.9041958 40.1808144,51.8732564 40.2965441,51.8732564 C40.4109783,51.8732564 40.5075637,51.9280365 40.5844289,52.0374628 L42.1902506,54.2111207 L43.796792,52.0374628" id="Fill-2" fill="#FFFFFF" sketch:type="MSShapeGroup" transform="translate(42.190610, 54.404257) rotate(-72.000000) translate(-42.190610, -54.404257) "></path>
            <path d="M45.5857798,48.2897259 C45.5857798,48.8041766 45.335464,49.1712969 44.832817,49.3906852 C45.3196303,49.543239 45.642925,49.7932987 45.8009738,50.141534 C45.8571113,50.274801 45.8857558,50.4345874 45.8857558,50.6206254 C45.8857558,50.8061277 45.8497702,50.985201 45.7786627,51.1569078 C45.7065475,51.3286146 45.5911057,51.4760788 45.4320493,51.5998363 C45.1042924,51.8572625 44.5974712,51.9861096 43.9108658,51.9861096 L42.0515615,51.9861096 C41.9539686,51.9861096 41.8723532,51.9551702 41.8055639,51.8934254 C41.7387746,51.8312788 41.7058118,51.754801 41.7058118,51.6645277 L41.7058118,47.3241766 C41.7058118,47.2339033 41.7387746,47.1559521 41.8055639,47.0917965 C41.8723532,47.027239 41.9539686,46.9950942 42.0515615,46.9950942 L43.8646603,46.9950942 C44.4287706,46.9950942 44.8561357,47.1144318 45.147763,47.3527051 C45.4405419,47.5909784 45.5857798,47.9033187 45.5857798,48.2897259 L45.5857798,48.2897259 Z M44.9177431,48.3394164 C44.9177431,48.1154743 44.8211577,47.9368028 44.6292824,47.803134 C44.4374072,47.670001 44.1647802,47.6028987 43.8111137,47.6028987 L42.4046523,47.6028987 L42.4046523,49.1545549 L43.68027,49.1545549 C44.3408218,49.1545549 44.7352241,48.9902146 44.8636207,48.6611322 C44.8996063,48.5609476 44.9177431,48.4539322 44.9177431,48.3394164 L44.9177431,48.3394164 Z M43.8413416,51.3783051 C44.5688266,51.3783051 45.0025251,51.2165096 45.140422,50.8919811 C45.1870593,50.7923322 45.2092265,50.6803612 45.2092265,50.555934 C45.2092265,50.2698453 45.0946483,50.0626453 44.8636207,49.9337983 C44.6334568,49.8050852 44.295336,49.7410634 43.8494024,49.7410634 L42.4046523,49.7410634 L42.4046523,51.3783051 L43.8413416,51.3783051 L43.8413416,51.3783051 Z" id="Fill-3" fill="#FFFFFF" sketch:type="MSShapeGroup" transform="translate(43.795784, 49.490602) rotate(-72.000000) translate(-43.795784, -49.490602) "></path>
            <path d="M45.5059461,41.6900736 C46.3150464,41.6900736 46.9650904,41.9307577 47.4570856,42.4123939 C47.9341108,42.8843867 48.1824115,43.499022 48.2025634,44.2573713 C48.1824115,45.0150509 47.9341108,45.6296862 47.4570856,46.1019469 C46.9650904,46.5835831 46.3150464,46.8241333 45.5059461,46.8241333 C44.6905123,46.8241333 44.0404683,46.5835831 43.5537989,46.1019469 C43.0671296,45.6252663 42.8178213,45.0102292 42.8083211,44.2573713 C42.8178213,43.5039776 43.0671296,42.8892084 43.5537989,42.4123939 C44.0404683,41.9307577 44.6905123,41.6900736 45.5059461,41.6900736 L45.5059461,41.6900736 Z M45.5059461,46.2163288 C46.1305123,46.2163288 46.6225075,46.0278799 46.9809241,45.6515179 C47.328689,45.2893532 47.503723,44.8247269 47.503723,44.2573713 C47.503723,43.6900156 47.328689,43.2252555 46.9809241,42.8626889 C46.6225075,42.4863269 46.1305123,42.2977441 45.5059461,42.2977441 C44.8803723,42.2977441 44.3883771,42.4863269 44.0299605,42.8626889 C43.681188,43.2252555 43.5071616,43.6900156 43.5071616,44.2573713 C43.5071616,44.8247269 43.681188,45.2893532 44.0299605,45.6515179 C44.3883771,46.0278799 44.8803723,46.2163288 45.5059461,46.2163288 L45.5059461,46.2163288 Z" id="Fill-4" fill="#FFFFFF" sketch:type="MSShapeGroup" transform="translate(45.505442, 44.257103) rotate(-72.000000) translate(-45.505442, -44.257103) "></path>
            <path d="M47.1531958,41.069347 C48.050245,41.069347 48.4987696,40.7957144 48.4987696,40.2475117 C48.4987696,40.018614 48.3270463,39.8351208 47.9834557,39.6968981 C47.8350511,39.6397072 47.6621762,39.5884095 47.4649751,39.5430049 C47.267774,39.4976004 47.0672622,39.4487135 46.8658867,39.3963443 C46.6632158,39.3442429 46.4629919,39.2843733 46.2656468,39.2179407 C46.0684457,39.1507045 45.8934117,39.064985 45.7396812,38.9603805 C45.4014165,38.7219733 45.23286,38.4073561 45.23286,38.0166628 C45.23286,37.5969054 45.4014165,37.2538936 45.7396812,36.9865561 C46.1087496,36.6959135 46.60276,36.5504583 47.2231518,36.5504583 C47.7809287,36.5504583 48.2909167,36.629347 48.7522522,36.7867226 C48.895331,36.8341362 48.9674461,36.9292312 48.9674461,37.0724095 C48.9674461,37.1439316 48.9399531,37.2121054 48.8869823,37.2761271 C48.83286,37.3408185 48.7735557,37.3728294 48.7097892,37.3728294 C48.645159,37.3728294 48.5572102,37.3540782 48.4446472,37.3156384 C48.1118524,37.2060782 47.7299731,37.1514321 47.2994413,37.1514321 C46.9050391,37.1514321 46.5794413,37.2204095 46.3239435,37.3586321 C46.0621123,37.5016764 45.9315565,37.7044565 45.9315565,37.9663027 C45.9315565,38.2380601 46.100257,38.4428493 46.4385217,38.5814737 C46.5922522,38.6480402 46.7661346,38.7029543 46.9613206,38.745814 C47.1563626,38.7886737 47.3557228,38.8340782 47.5604089,38.8814918 C47.7659587,38.9293072 47.965319,38.9850248 48.1605049,39.0495823 C48.3545393,39.1138719 48.5295733,39.1986538 48.6822962,39.3032583 C49.0204169,39.5321561 49.1901251,39.8612384 49.1901251,40.2903714 C49.1901251,40.7004855 49.0132198,41.0338538 48.6599851,41.291414 C48.2962426,41.5533941 47.8169143,41.6845181 47.2231518,41.6845181 C46.5721003,41.6845181 45.9623602,41.5701362 45.3940755,41.3412384 C45.337794,41.3175316 45.2869823,41.2796276 45.2433678,41.2267226 C45.1998971,41.1744873 45.1787376,41.1114031 45.1787376,41.0373362 C45.1787376,40.9639389 45.2062306,40.8967027 45.2636636,40.8369669 C45.3198012,40.7779009 45.3845753,40.7477651 45.4587056,40.7477651 C45.5329799,40.7477651 45.6251031,40.7704004 45.735363,40.8158049 C45.8457668,40.8612095 46.0261267,40.9149181 46.2773062,40.9766628 C46.5286297,41.0388095 46.820257,41.069347 47.1531958,41.069347" id="Fill-5" fill="#FFFFFF" sketch:type="MSShapeGroup" transform="translate(47.184431, 39.117488) rotate(-72.000000) translate(-47.184431, -39.117488) "></path>
            <path d="M48.5929197,36.664799 C49.4891052,36.664799 49.9374859,36.3911664 49.9374859,35.8429637 C49.9374859,35.6140659 49.7657626,35.4305727 49.422172,35.2923501 C49.2737674,35.2351591 49.1007486,35.1838614 48.9036914,35.1384569 C48.7063463,35.0930523 48.5069861,35.0441655 48.304603,34.9917962 C48.1019321,34.9396949 47.9025718,34.8798252 47.7053707,34.8133926 C47.5081696,34.7461564 47.332128,34.660437 47.1783975,34.5558324 C46.8412844,34.3174252 46.6715762,34.002808 46.6715762,33.6121148 C46.6715762,33.1923573 46.8412844,32.8493456 47.1783975,32.582008 C47.5474659,32.2913655 48.0414763,32.1459103 48.6620121,32.1459103 C49.2207966,32.1459103 49.729777,32.224799 50.1909685,32.3821745 C50.3341912,32.4295881 50.4061624,32.5246831 50.4061624,32.6678614 C50.4061624,32.7393836 50.379677,32.8075573 50.3255547,32.871579 C50.2714323,32.9362704 50.2132796,32.9682813 50.1486494,32.9682813 C50.0848829,32.9682813 49.9969341,32.9495302 49.8835075,32.9110904 C49.5505686,32.8015302 49.1686894,32.746884 48.7393091,32.746884 C48.3437554,32.746884 48.0193091,32.8158614 47.7628038,32.954084 C47.5018361,33.0971284 47.3714243,33.2999085 47.3714243,33.5617546 C47.3714243,33.8335121 47.5399809,34.0383012 47.8782456,34.1769256 C48.03212,34.2434922 48.2060025,34.2984062 48.4010445,34.3412659 C48.5950788,34.3841256 48.7955906,34.4295302 49.0001328,34.4769437 C49.2048189,34.5247591 49.4053307,34.5804768 49.5992212,34.6450342 C49.7944071,34.7093238 49.9682896,34.7941057 50.1220201,34.8987103 C50.4602848,35.127608 50.6289853,35.4566904 50.6289853,35.8858234 C50.6289853,36.2959374 50.4527998,36.6293057 50.0987014,36.8868659 C49.7351028,37.148846 49.2557746,37.27997 48.6620121,37.27997 C48.0108165,37.27997 47.402228,37.1655881 46.8327918,36.9366904 C46.7765103,36.9129836 46.7267062,36.8750795 46.6833795,36.8221745 C46.639765,36.7699392 46.6175978,36.7068551 46.6175978,36.6327881 C46.6175978,36.5593908 46.6462424,36.4921546 46.7023799,36.4324189 C46.7585175,36.3733528 46.8242992,36.3432171 46.8985734,36.3432171 C46.9727038,36.3432171 47.0649709,36.3658523 47.1753747,36.4112569 C47.2854907,36.4566614 47.4657066,36.51037 47.7170301,36.5721148 C47.967202,36.6342614 48.2599809,36.664799 48.5929197,36.664799" id="Fill-6" fill="#FFFFFF" sketch:type="MSShapeGroup" transform="translate(48.623292, 34.712940) rotate(-72.000000) translate(-48.623292, -34.712940) "></path>
            <path d="M52.5935859,32.1046906 C52.6200713,32.1618816 52.6327382,32.2230906 52.6327382,32.2871124 C52.6327382,32.351402 52.6019345,32.4150219 52.5406151,32.4766327 C52.4790077,32.5387793 52.3814147,32.5693169 52.2478362,32.5693169 C52.1154091,32.5693169 52.0178162,32.5028843 51.9562088,32.3696173 L51.4567286,31.2541929 L48.8440297,31.2541929 L48.3445495,32.3696173 C48.2830861,32.5028843 48.1854931,32.5693169 48.0530661,32.5693169 C47.9193436,32.5693169 47.8218946,32.5387793 47.7604311,32.4766327 C47.6988238,32.4150219 47.6680201,32.351402 47.6680201,32.2871124 C47.6680201,32.2230906 47.680831,32.1618816 47.7063088,32.1046906 L49.665797,27.8002345 C49.758208,27.6049549 49.9066127,27.5073151 50.1123064,27.5073151 L50.1885959,27.5073151 C50.393282,27.5073151 50.5428382,27.6049549 50.6349613,27.8002345 L52.5935859,32.1046906 L52.5935859,32.1046906 Z M51.1874123,30.6607196 L50.1503072,28.3365169 L49.113346,30.6607196 L51.1874123,30.6607196 L51.1874123,30.6607196 Z" id="Fill-7" fill="#FFFFFF" sketch:type="MSShapeGroup" transform="translate(50.150379, 30.038316) rotate(-72.000000) translate(-50.150379, -30.038316) "></path>
        </g>
    </g>
</svg>