<?xml version="1.0" encoding="UTF-8" standalone="no"?>
<svg width="683px" height="82px" viewBox="0 0 683 82" version="1.1" xmlns="http://www.w3.org/2000/svg" xmlns:xlink="http://www.w3.org/1999/xlink" xmlns:sketch="http://www.bohemiancoding.com/sketch/ns">
    <!-- Generator: Sketch 3.3.3 (12072) - http://www.bohemiancoding.com/sketch -->
    <title>space-institutions</title>
    <desc>Created with Sketch.</desc>
    <defs></defs>
    <g id="Page-1" stroke="none" stroke-width="1" fill="none" fill-rule="evenodd" sketch:type="MSPage">
        <g id="Artboard-15" sketch:type="MSArtboardGroup" transform="translate(-443.000000, -889.000000)">
            <g id="space-institutions" sketch:type="MSLayerGroup" transform="translate(443.000000, 890.000000)">
                <g id="Imported-Layers-Copy" transform="translate(602.000000, 0.000000)" sketch:type="MSShapeGroup">
                    <path d="M40,79.7424516 C61.9483871,79.7424516 79.7424516,61.9483871 79.7424516,40 C79.7424516,18.052129 61.9483871,0.257548387 40,0.257548387 C18.052129,0.257548387 0.258064516,18.052129 0.258064516,40 C0.258064516,61.9483871 18.052129,79.7424516 40,79.7424516 L40,79.7424516 Z" id="Stroke-2" stroke="#FFFFFF" stroke-width="1.16363629"></path>
                    <path d="M18.6704516,59.6588856 C18.2043871,59.2279179 17.5865806,58.8635308 16.8165161,58.8635308 C15.7981935,58.8635308 14.8330323,59.5422405 14.6735484,60.4010792 C14.5114839,61.272305 15.2691613,61.9406921 16.2895484,61.9406921 C17.0699355,61.9406921 17.7486452,61.6599179 18.3767742,61.2088211 L17.7259355,64.1621114 C17.136,64.3824985 15.851871,64.4738534 15.2387097,64.4738534 C12.5687742,64.4738534 10.8061935,62.7262405 11.2289032,60.4743695 C11.6593548,58.1719179 14.1569032,56.3277889 16.9052903,56.3277889 C17.6779355,56.3277889 18.4531613,56.444434 19.1344516,56.6519179 L18.6709677,59.6588856" id="Fill-3" fill="#FFFFFF"></path>
                    <path d="M20.0851613,61.5231437 L20.2394839,61.6372082 C20.7741935,62.0346276 21.4451613,62.3613372 22.228129,62.3613372 C22.5672258,62.3613372 23.1220645,62.2446921 23.188129,61.8875308 C23.2567742,61.5329501 22.8129032,61.5024985 22.5140645,61.4493372 L21.8482581,61.3455953 C20.5563871,61.1453372 19.5607742,60.4867566 19.7914839,59.248563 C20.1434839,57.3739824 22.3674839,56.3277889 24.4061935,56.3277889 C25.4776774,56.3277889 26.4175484,56.548176 27.2485161,57.0194018 L25.9489032,59.040563 C25.4296774,58.7061114 24.8165161,58.4428856 24.0820645,58.4428856 C23.7858065,58.4428856 23.3326452,58.5394018 23.2717419,58.8635308 C23.216,59.1546276 23.6340645,59.1979824 23.8843871,59.248563 L24.6270968,59.3951437 C26.020129,59.6686921 26.9393548,60.3174663 26.6936774,61.6599179 C26.3365161,63.544305 24.1228387,64.4738534 22.0939355,64.4738534 C20.9135484,64.4738534 19.5989677,64.2028856 18.6234839,63.7543695 L20.0851613,61.5231437" id="Fill-4" fill="#FFFFFF"></path>
                    <path d="M32.7984516,61.4926921 L32.6590968,60.0970792 C32.6209032,59.7626276 32.6234839,59.4178534 32.6260645,59.0813372 L32.4996129,59.0813372 L31.4307097,61.4926921 L32.7984516,61.4926921 L32.7984516,61.4926921 Z M30.0072258,64.3499824 L26.4030968,64.3499824 L31.1421935,56.4547566 L34.9083871,56.4547566 L36.7752258,64.3499824 L33.1685161,64.3499824 L33.0415484,63.3646921 L30.468129,63.3646921 L30.0072258,64.3499824 L30.0072258,64.3499824 Z" id="Fill-5" fill="#FFFFFF"></path>
                    <path d="M48.5032258,61.4926921 L48.3664516,60.0970792 C48.3308387,59.7626276 48.3308387,59.4178534 48.3308387,59.0813372 L48.2064516,59.0813372 L47.1349677,61.4926921 L48.5032258,61.4926921 L48.5032258,61.4926921 Z M45.7140645,64.3499824 L42.1099355,64.3499824 L46.8490323,56.4547566 L50.6157419,56.4547566 L52.4825806,64.3499824 L48.8753548,64.3499824 L48.7489032,63.3646921 L46.1729032,63.3646921 L45.7140645,64.3499824 L45.7140645,64.3499824 Z" id="Fill-6" fill="#FFFFFF"></path>
                    <path d="M54.2885161,61.5231437 L54.4402581,61.6372082 C54.9744516,62.0346276 55.6485161,62.3613372 56.4309677,62.3613372 C56.7654194,62.3613372 57.3228387,62.2446921 57.3909677,61.8875308 C57.4570323,61.5329501 57.0162581,61.5024985 56.7148387,61.4493372 L56.0485161,61.3455953 C54.7545806,61.1453372 53.7615484,60.4867566 53.9917419,59.248563 C54.3411613,57.3739824 56.5651613,56.3277889 58.6069677,56.3277889 C59.6732903,56.3277889 60.6183226,56.548176 61.4487742,57.0194018 L60.1496774,59.040563 C59.6304516,58.7061114 59.019871,58.4428856 58.2854194,58.4428856 C57.9865806,58.4428856 57.5354839,58.5394018 57.4725161,58.8635308 C57.4167742,59.1546276 57.8322581,59.1979824 58.0851613,59.248563 L58.8299355,59.3951437 C60.2209032,59.6686921 61.1427097,60.3174663 60.891871,61.6599179 C60.5372903,63.544305 58.3236129,64.4738534 56.2967742,64.4738534 C55.1143226,64.4738534 53.7945806,64.2028856 52.8242581,63.7543695 L54.2885161,61.5231437" id="Fill-7" fill="#FFFFFF"></path>
                    <path d="M69.2815484,59.6588856 C68.8129032,59.2279179 68.1971613,58.8635308 67.4270968,58.8635308 C66.4067097,58.8635308 65.4467097,59.5422405 65.284129,60.4010792 C65.1194839,61.272305 65.8797419,61.9406921 66.8980645,61.9406921 C67.6830968,61.9406921 68.3566452,61.6599179 68.9899355,61.2088211 L68.3365161,64.1621114 C67.7491613,64.3824985 66.4619355,64.4738534 65.851871,64.4738534 C63.1793548,64.4738534 61.4167742,62.7262405 61.8369032,60.4743695 C62.2725161,58.1719179 64.7674839,56.3277889 67.515871,56.3277889 C68.2859355,56.3277889 69.0611613,56.444434 69.7445161,56.6519179 L69.2810323,59.6588856" id="Fill-8" fill="#FFFFFF"></path>
                    <path d="M14.9744516,43.7874018 C17.1452903,40.3855953 19.8178065,37.272305 27.8446452,28.8981114 C33.4224516,23.0828856 45.2108387,12.864563 51.5024516,16.8464985 C53.0730323,17.8395308 54.4531613,21.3223695 54.4531613,21.3223695 L53.744,22.064563 C53.4931613,20.9295953 52.4954839,19.5592727 51.748129,18.8728211 C47.9994839,15.448305 37.7460645,20.7014663 28.8325161,30.9068856 C21.6211613,39.164434 22.1935484,38.184305 19.0828387,41.5453372 L14.9744516,43.7874018" id="Fill-9" fill="#FFFFFF"></path>
                    <path d="M41.3925161,37.176305 L39.8776774,6.72727273 L38.3654194,37.176305 L41.3925161,37.176305" id="Fill-10" fill="#FFFFFF"></path>
                    <path d="M41.6314839,36.6008211 L23.7894194,26.9631437 L37.1710968,36.6008211 L41.6314839,36.6008211" id="Fill-11" fill="#FFFFFF"></path>
                    <path d="M38.1259355,36.6008211 L55.968,26.9631437 L42.5863226,36.6008211 L38.1259355,36.6008211" id="Fill-12" fill="#FFFFFF"></path>
                    <path d="M40.6771613,36.6797889 L37.0931613,31.0261114 L38.3669677,36.6797889 L40.6771613,36.6797889" id="Fill-13" fill="#FFFFFF"></path>
                    <path d="M39.0823226,36.6797889 L42.6637419,31.0261114 L41.3925161,36.6797889 L39.0823226,36.6797889" id="Fill-14" fill="#FFFFFF"></path>
                    <path d="M39.9576774,36.7582405 L15.2686452,34.848563 L39.8792258,34.1316598 L39.9576774,36.7582405" id="Fill-15" fill="#FFFFFF"></path>
                    <path d="M39.8384516,36.7582405 L64.5295484,34.848563 L39.9189677,34.1316598 L39.8384516,36.7582405" id="Fill-16" fill="#FFFFFF"></path>
                    <path d="M54.452129,23.3006921 C54.9512258,23.3006921 55.3543226,22.8950147 55.3543226,22.396434 C55.3543226,21.8999179 54.9512258,21.4968211 54.452129,21.4968211 C53.956129,21.4968211 53.5530323,21.8999179 53.5530323,22.396434 C53.5530323,22.8950147 53.956129,23.3006921 54.452129,23.3006921" id="Fill-17" fill="#FFFFFF"></path>
                    <path d="M54.7705806,22.396434 C54.7705806,21.0132082 54.6286452,19.8859824 54.4536774,19.8859824 C54.2818065,19.8859824 54.1372903,21.0132082 54.1372903,22.396434 C54.1372903,23.784305 54.2818065,24.9089501 54.4536774,24.9089501 C54.6286452,24.9089501 54.7705806,23.784305 54.7705806,22.396434" id="Fill-18" fill="#FFFFFF"></path>
                    <path d="M54.452129,22.0821114 C53.0668387,22.0821114 51.9447742,22.2240469 51.9447742,22.3959179 C51.9447742,22.5708856 53.0668387,22.7128211 54.452129,22.7128211 C55.8379355,22.7128211 56.9625806,22.5708856 56.9625806,22.3959179 C56.9625806,22.2240469 55.8379355,22.0821114 54.452129,22.0821114" id="Fill-19" fill="#FFFFFF"></path>
                    <path d="M72.9976774,52.0372082 C65.6547097,41.3074018 53.7672258,34.9141114 40.2539355,34.9141114 C26.5228387,34.9141114 14.352,41.3533372 7.03948387,52.3737243 C15.1953548,43.8457243 26.9383226,37.3409501 40.036129,37.3409501 C53.0534194,37.3409501 64.8469677,43.5995308 72.9976774,52.0372082" id="Fill-20" fill="#FFFFFF"></path>
                    <path d="M30.3752258,7.4823695 C30.9625806,7.4823695 31.4389677,7.90507918 31.4389677,8.42430499 C31.4389677,8.94611144 30.9625806,9.3667566 30.3752258,9.3667566 C29.7873548,9.3667566 29.3083871,8.94611144 29.3083871,8.42430499 C29.3083871,7.90507918 29.7873548,7.4823695 30.3752258,7.4823695" id="Fill-21" fill="#FFFFFF"></path>
                    <path d="M30.3261935,8.87540176 C31.4203871,8.87540176 32.3096774,8.7107566 32.3096774,8.51049853 C32.3096774,8.30817595 31.4209032,8.14301466 30.3261935,8.14301466 C29.232,8.14301466 28.3458065,8.30817595 28.3458065,8.51049853 C28.3458065,8.7107566 29.232,8.87540176 30.3261935,8.87540176" id="Fill-22" fill="#FFFFFF"></path>
                    <path d="M30.7886452,8.46765982 C30.7886452,7.37295015 30.6260645,6.4867566 30.4211613,6.4867566 C30.2183226,6.4867566 30.0562581,7.37295015 30.0562581,8.46765982 C30.0562581,9.56185337 30.2183226,10.4480469 30.4211613,10.4480469 C30.6260645,10.4480469 30.7886452,9.56185337 30.7886452,8.46765982" id="Fill-23" fill="#FFFFFF"></path>
                    <path d="M40.1651613,52.4144985 C40.1651613,52.1208211 40.4108387,52.0191437 40.7045161,52.0800469 C40.9956129,52.1486921 43.7491613,52.7055953 43.7491613,52.7055953 C43.7491613,52.7055953 43.5365161,52.1130792 43.3894194,51.6697243 C43.2449032,51.2289501 43.4348387,51.1530792 43.5365161,51.0591437 C43.6402581,50.968305 46.6136774,48.3995308 46.6136774,48.3995308 L46.3148387,48.2529501 L46.1249032,48.1590147 C45.8286452,48.0196598 45.8792258,47.7739824 45.9251613,47.6119179 C45.9705806,47.4446921 46.5104516,45.7326921 46.5104516,45.7326921 C46.5104516,45.7326921 45.1752258,46.0186276 44.8763871,46.0666276 C44.6384516,46.0996598 44.5548387,45.988176 44.4810323,45.8235308 C44.4103226,45.6588856 44.0965161,44.9094663 44.0965161,44.9094663 C44.0965161,44.9094663 42.5285161,46.6467566 42.4903226,46.6772082 C42.1940645,46.9533372 41.8952258,46.7432727 41.9509677,46.4212082 C42.004129,46.1275308 42.7587097,42.652434 42.7587097,42.652434 C42.7587097,42.652434 41.9256774,43.1515308 41.6495484,43.3135953 C41.376,43.4808211 41.2289032,43.4529501 41.0797419,43.1866276 C40.9352258,42.9208211 39.9019355,40.856305 39.9019355,40.856305 C39.9019355,40.856305 38.8707097,42.9208211 38.7287742,43.1866276 C38.5796129,43.4529501 38.4299355,43.4808211 38.1615484,43.3135953 C37.8802581,43.1515308 37.0498065,42.652434 37.0498065,42.652434 C37.0498065,42.652434 37.8043871,46.1275308 37.8549677,46.4212082 C37.9107097,46.7432727 37.6144516,46.9533372 37.3156129,46.6772082 C37.28,46.6467566 35.7099355,44.9094663 35.7099355,44.9094663 C35.7099355,44.9094663 35.3981935,45.6588856 35.3249032,45.8235308 C35.2562581,45.988176 35.1705806,46.0996598 34.9295484,46.0666276 C34.635871,46.0186276 33.2985806,45.7326921 33.2985806,45.7326921 C33.2985806,45.7326921 33.8379355,47.4446921 33.8833548,47.6119179 C33.9292903,47.7739824 33.9772903,48.0196598 33.6861935,48.1590147 L33.4962581,48.2529501 L33.1948387,48.3995308 C33.1948387,48.3995308 36.1682581,50.968305 36.2699355,51.0591437 C36.3736774,51.1530792 36.5636129,51.2289501 36.4216774,51.6697243 C36.2699355,52.1130792 36.0619355,52.7055953 36.0619355,52.7055953 C36.0619355,52.7055953 38.8103226,52.1486921 39.1014194,52.0800469 C39.3956129,52.0191437 39.6412903,52.1208211 39.6412903,52.4144985 C39.6412903,52.7055953 39.5246452,55.6464985 39.5246452,55.6464985 L40.2843871,55.6464985 C40.283871,55.6464985 40.1651613,52.7055953 40.1651613,52.4144985 Z" id="Fill-24" fill="#FFFFFF"></path>
                    <path d="M40.283871,55.6464985 C40.283871,55.6464985 40.1651613,52.7055953 40.1651613,52.4144985 C40.1651613,52.1208211 40.4108387,52.0191437 40.7045161,52.0800469 C40.9956129,52.1486921 43.7491613,52.7055953 43.7491613,52.7055953 C43.7491613,52.7055953 43.5365161,52.1130792 43.3894194,51.6697243 C43.2449032,51.2289501 43.4348387,51.1530792 43.5365161,51.0591437 C43.6402581,50.968305 46.6136774,48.3995308 46.6136774,48.3995308 L46.3148387,48.2529501 L46.1249032,48.1590147 C45.8286452,48.0196598 45.8792258,47.7739824 45.9251613,47.6119179 C45.9705806,47.4446921 46.5104516,45.7326921 46.5104516,45.7326921 C46.5104516,45.7326921 45.1752258,46.0186276 44.8763871,46.0666276 C44.6384516,46.0996598 44.5548387,45.988176 44.4810323,45.8235308 C44.4103226,45.6588856 44.0965161,44.9094663 44.0965161,44.9094663 C44.0965161,44.9094663 42.5285161,46.6467566 42.4903226,46.6772082 C42.1940645,46.9533372 41.8952258,46.7432727 41.9509677,46.4212082 C42.004129,46.1275308 42.7587097,42.652434 42.7587097,42.652434 C42.7587097,42.652434 41.9256774,43.1515308 41.6495484,43.3135953 C41.376,43.4808211 41.2289032,43.4529501 41.0797419,43.1866276 C40.9352258,42.9208211 39.9019355,40.856305 39.9019355,40.856305 C39.9019355,40.856305 38.8707097,42.9208211 38.7287742,43.1866276 C38.5796129,43.4529501 38.4299355,43.4808211 38.1615484,43.3135953 C37.8802581,43.1515308 37.0498065,42.652434 37.0498065,42.652434 C37.0498065,42.652434 37.8043871,46.1275308 37.8549677,46.4212082 C37.9107097,46.7432727 37.6144516,46.9533372 37.3156129,46.6772082 C37.28,46.6467566 35.7099355,44.9094663 35.7099355,44.9094663 C35.7099355,44.9094663 35.3981935,45.6588856 35.3249032,45.8235308 C35.2562581,45.988176 35.1705806,46.0996598 34.9295484,46.0666276 C34.635871,46.0186276 33.2985806,45.7326921 33.2985806,45.7326921 C33.2985806,45.7326921 33.8379355,47.4446921 33.8833548,47.6119179 C33.9292903,47.7739824 33.9772903,48.0196598 33.6861935,48.1590147 L33.4962581,48.2529501 L33.1948387,48.3995308 C33.1948387,48.3995308 36.1682581,50.968305 36.2699355,51.0591437 C36.3736774,51.1530792 36.5636129,51.2289501 36.4216774,51.6697243 C36.2699355,52.1130792 36.0619355,52.7055953 36.0619355,52.7055953 C36.0619355,52.7055953 38.8103226,52.1486921 39.1014194,52.0800469 C39.3956129,52.0191437 39.6412903,52.1208211 39.6412903,52.4144985 C39.6412903,52.7055953 39.5246452,55.6464985 39.5246452,55.6464985 L40.2843871,55.6464985 L40.283871,55.6464985 L40.283871,55.6464985 Z" id="Stroke-25" stroke="#FFFFFF" stroke-width="0.5"></path>
                </g>
                <g id="NASA-LOGO" sketch:type="MSShapeGroup">
                    <path d="M45.2464396,79.9465347 C23.1655503,79.9465347 4.99323611,61.9112508 4.99323611,40 C4.99323611,18.0863755 22.7405567,0.0534652505 45.2464396,0.0534652505 C66.9013112,0.0534652505 85.499643,18.0873928 85.499643,40 C85.499643,61.9122681 67.3276702,79.9465347 45.2464396,79.9465347 Z" id="Fill-1" stroke="#FFFFFF" stroke-width="1.15627802"></path>
                    <path d="M0.847756946,51.8415364 C8.41332469,46.8363509 15.5863281,43.6046831 27.7930301,39.5998564 C44.9460425,33.9707183 57.8562881,30.1869879 73.6957461,22.2777097 C80.785799,18.7381347 93.0884232,10.8000326 97.4885572,3.89891265 C96.1709065,6.56970134 92.0916512,11.7681765 90.2448922,14.0676456 C68.7528493,40.8002871 22.9730231,39.2844891 1.14986079,52.118585" id="Fill-3" fill="#FFFFFF"></path>
                    <path d="M54.3266228,61.024492 C71.524012,68.052098 68.5394992,50.2928452 59.3726104,36.6947464 C54.177107,28.9909656 47.4011056,22.5727308 43.127275,19.4750093 C28.9563859,9.20081478 20.2083462,15.4322029 30.2149813,35.6943875 C33.4503939,42.2455514 37.6057726,46.6671377 40.851426,50.8347346 C43.330043,54.0165541 48.1579013,55.609668 46.4572444,57.1197012 C44.5408479,58.822346 39.900055,51.3128722 39.900055,51.3128722 C36.4727978,47.2063142 33.20598,42.8250813 29.8391436,36.8127548 C22.1465898,23.0793532 23.2556694,9.06279917 37.1794136,15.1683795 C48.9955994,20.3526123 60.2819942,34.892744 64.8196963,45.2184824 C66.9156484,49.9859555 72.6300193,68.8513678 54.4297136,61.2242246" id="Fill-2" stroke="#000000" stroke-width="0.5" fill="#FFFFFF"></path>
                    <path d="M11.8231725,32.3033404 C18.7473242,32.3572581 18.0680173,32.2894371 18.1489197,32.370144 C18.2701026,32.370144 23.6775907,41.6215987 23.6775907,41.7012883 C23.6775907,41.7409636 23.6373102,38.4136682 23.6373102,34.2525143 C23.6373102,33.7720029 22.3060051,32.370144 22.3459442,32.370144 C24.3220789,32.370144 26.9054934,32.4104975 26.9054934,32.4104975 C25.9373957,33.5319168 25.7441858,33.4400194 25.7359931,34.1328103 C25.7086843,36.3610674 25.6834236,40.4794941 25.7359931,45.1055605 C25.743503,45.7990296 26.2606639,46.0665832 27.1082614,47.2683703 L20.771932,47.2683703 C18.7138709,43.8644373 14.9425226,37.4784174 14.9612975,37.496729 C14.9903131,37.525892 14.8800537,41.5022339 15.0005539,44.7050778 C15.0415171,45.7634236 15.525566,46.1065976 16.4141268,47.0679595 C16.4141268,47.0679595 17.4358181,47.0408311 11.4500657,47.1076347 C13.265761,46.146612 13.0247606,44.9455031 13.0237365,44.9054887 C12.9585367,40.4794941 13.0100821,36.6954246 13.0100821,34.2525143 C13.0100821,33.8520316 12.9827733,33.8917069 11.7323706,32.370144" id="Fill-4" stroke="#000000" stroke-width="0.5" fill="#FFFFFF"></path>
                    <path d="M35.4930938,39.1376567 C35.0588836,40.5201866 34.625356,41.9013601 34.625356,41.9013601 L38.5407583,41.9013601 L36.3608316,36.3746316 C36.3608316,36.3746316 35.9269627,37.7564832 35.4930938,39.1376567 M33.4732651,39.1373176 C34.0542603,37.1335479 34.5509395,35.3417186 34.7868194,34.1735029 L34.7868194,34.1735029 C34.8267586,33.973092 34.3427097,33.2524945 33.5760145,32.5315579 L33.5217382,32.4196533 C37.2190114,32.431522 41.0815029,32.4511901 41.0815029,32.4511901 C42.0902225,34.8941004 44.3906493,41.7416418 46.1257836,45.9468793 C46.5845718,47.0584645 47.376869,47.2683703 47.376869,47.2683703 C44.2291859,47.2286951 38.3878289,47.2554844 38.4188927,47.2286951 C39.9922222,45.826158 39.7904783,45.826158 39.1043442,43.7844086 L34.1815876,43.7844086 C33.172868,46.1065976 34.4959805,47.1968192 34.6652952,47.1883416 C33.5449507,47.2456503 29.7425387,47.1883416 29.7425387,47.1883416 C31.8005997,45.7461293 31.6794168,45.3059714 31.6794168,45.3059714 C32.2447095,43.3079664 32.8997798,41.1190455 33.4732651,39.1373176" id="Fill-5" stroke="#000000" stroke-width="0.5" fill="#FFFFFF"></path>
                    <path d="M45.8130976,3.68120743 C45.8130976,3.86025472 45.66563,4.00742616 45.4853917,4.00742616 C45.3058362,4.00742616 45.1576859,3.86025472 45.1576859,3.68120743 C45.1576859,3.50351656 45.3058362,3.35600601 45.4853917,3.35600601 C45.66563,3.35600601 45.8130976,3.50351656 45.8130976,3.68120743" id="Fill-8" fill="#FFFFFF"></path>
                    <path d="M48.086557,8.61246811 C48.086557,8.83220796 47.9032466,9.01295077 47.6830692,9.01295077 C47.4615264,9.01295077 47.2788986,8.83220796 47.2788986,8.61246811 C47.2788986,8.39340647 47.4615264,8.21266366 47.6830692,8.21266366 C47.9032466,8.21266366 48.086557,8.39340647 48.086557,8.61246811" id="Fill-9" fill="#FFFFFF"></path>
                    <path d="M53.9852626,16.6716306 C53.9852626,16.8910314 53.8036589,17.0721133 53.5817747,17.0721133 C53.3609146,17.0721133 53.1782869,16.8910314 53.1782869,16.6716306 C53.1782869,16.4518908 53.3476016,16.2708089 53.5694857,16.2708089 C53.7910286,16.2708089 53.9852626,16.4518908 53.9852626,16.6716306" id="Fill-10" fill="#FFFFFF"></path>
                    <path d="M44.5022742,11.390753 C44.5022742,11.5694612 44.3548065,11.7159544 44.1745683,11.7159544 C43.9946714,11.7159544 43.8461797,11.5694612 43.8461797,11.390753 C43.8461797,11.2123839 43.9946714,11.0648734 44.1745683,11.0648734 C44.3548065,11.0648734 44.5022742,11.2123839 44.5022742,11.390753" id="Fill-11" fill="#FFFFFF"></path>
                    <path d="M48.035353,13.243282 C48.035353,13.4209729 47.8872026,13.5684834 47.7079885,13.5684834 C47.5280916,13.5684834 47.3795999,13.4209729 47.3795999,13.243282 C47.3795999,13.065252 47.5280916,12.9180806 47.7079885,12.9180806 C47.8872026,12.9180806 48.035353,13.065252 48.035353,13.243282" id="Fill-12" fill="#FFFFFF"></path>
                    <path d="M43.4440573,8.06142296 C43.4440573,8.28116281 43.2617709,8.46190562 43.0405695,8.46190562 C42.819368,8.46190562 42.6370816,8.28116281 42.6370816,8.06142296 C42.6370816,7.84168311 42.819368,7.66060119 43.0405695,7.66060119 C43.2617709,7.66060119 43.4440573,7.84168311 43.4440573,8.06142296" id="Fill-13" fill="#FFFFFF"></path>
                    <path d="M38.0983554,11.2907171 C38.0983554,11.4694253 37.9505464,11.6162576 37.7699668,11.6162576 C37.59007,11.6162576 37.442261,11.4694253 37.442261,11.2907171 C37.442261,11.112348 37.59007,10.9648375 37.7699668,10.9648375 C37.9505464,10.9648375 38.0983554,11.112348 38.0983554,11.2907171" id="Fill-14" fill="#FFFFFF"></path>
                    <path d="M39.0541642,11.9407808 C39.0541642,12.1201672 38.9063552,12.2669996 38.7257756,12.2669996 C38.5462201,12.2669996 38.3977284,12.1201672 38.3977284,11.9407808 C38.3977284,11.7627509 38.5462201,11.6162576 38.7257756,11.6162576 C38.9063552,11.6162576 39.0541642,11.7627509 39.0541642,11.9407808" id="Fill-15" fill="#FFFFFF"></path>
                    <path d="M40.0133866,12.5918619 C40.0133866,12.7709092 39.8655776,12.9180806 39.6853393,12.9180806 C39.5057838,12.9180806 39.3572921,12.7709092 39.3572921,12.5918619 C39.3572921,12.414171 39.5057838,12.2673387 39.6853393,12.2673387 C39.8655776,12.2673387 40.0133866,12.414171 40.0133866,12.5918619" id="Fill-16" fill="#FFFFFF"></path>
                    <path d="M38.5523646,13.8438365 C38.5523646,14.0225446 38.4035315,14.169377 38.223976,14.169377 C38.0437378,14.169377 37.8955874,14.0225446 37.8955874,13.8438365 C37.8955874,13.6658065 38.0437378,13.518635 38.223976,13.518635 C38.4035315,13.518635 38.5523646,13.6658065 38.5523646,13.8438365" id="Fill-17" fill="#FFFFFF"></path>
                    <path d="M30.9345687,19.1498078 C30.9345687,19.328516 30.786077,19.4750093 30.6061801,19.4750093 C30.4262833,19.4750093 30.2781329,19.328516 30.2781329,19.1498078 C30.2781329,18.9710997 30.4262833,18.8239282 30.6061801,18.8239282 C30.786077,18.8239282 30.9345687,18.9710997 30.9345687,19.1498078" id="Fill-18" fill="#FFFFFF"></path>
                    <path d="M32.3464348,20.8524526 C32.3464348,21.0308217 32.1979431,21.177654 32.0180462,21.177654 C31.8384907,21.177654 31.689999,21.0308217 31.689999,20.8524526 C31.689999,20.6734053 31.8384907,20.5269121 32.0180462,20.5269121 C32.1979431,20.5269121 32.3464348,20.6734053 32.3464348,20.8524526" id="Fill-19" fill="#FFFFFF"></path>
                    <path d="M31.2240422,48.3351938 C31.2240422,48.5139019 31.0762332,48.6603952 30.895995,48.6603952 C30.7164395,48.6603952 30.5682892,48.5139019 30.5682892,48.3351938 C30.5682892,48.1571638 30.7164395,48.0096532 30.895995,48.0096532 C31.0762332,48.0096532 31.2240422,48.1571638 31.2240422,48.3351938" id="Fill-20" fill="#FFFFFF"></path>
                    <path d="M31.4257862,55.9175751 C31.4257862,56.1373149 31.2434998,56.3173795 31.0222983,56.3173795 C30.8010969,56.3173795 30.6188105,56.1373149 30.6188105,55.9175751 C30.6188105,55.6978352 30.8010969,55.5170924 31.0222983,55.5170924 C31.2434998,55.5170924 31.4257862,55.6978352 31.4257862,55.9175751" id="Fill-21" fill="#FFFFFF"></path>
                    <path d="M27.0867557,59.800324 C27.0867557,59.9780148 26.9389467,60.1255254 26.7593912,60.1255254 C26.5798357,60.1255254 26.431344,59.9780148 26.431344,59.800324 C26.431344,59.6212767 26.5798357,59.4744443 26.7593912,59.4744443 C26.9389467,59.4744443 27.0867557,59.6212767 27.0867557,59.800324" id="Fill-22" fill="#FFFFFF"></path>
                    <path d="M21.8919351,61.3737698 C21.8919351,61.5935097 21.7086246,61.7735743 21.4877645,61.7735743 C21.2665631,61.7735743 21.0842767,61.5935097 21.0842767,61.3737698 C21.0842767,61.1536909 21.2665631,60.9729481 21.4877645,60.9729481 C21.7086246,60.9729481 21.8919351,61.1536909 21.8919351,61.3737698" id="Fill-23" fill="#FFFFFF"></path>
                    <path d="M20.8323528,57.8708182 C20.8323528,58.0895407 20.6500664,58.2706226 20.4292063,58.2706226 C20.2083462,58.2706226 20.0257185,58.0895407 20.0257185,57.8708182 C20.0257185,57.6507392 20.2083462,57.4699964 20.4292063,57.4699964 C20.6500664,57.4699964 20.8323528,57.6507392 20.8323528,57.8708182" id="Fill-24" fill="#FFFFFF"></path>
                    <path d="M20.2278038,60.0987361 C20.2278038,60.2774443 20.079312,60.4239375 19.8994152,60.4239375 C19.7198597,60.4239375 19.5710266,60.2774443 19.5710266,60.0987361 C19.5710266,59.9207061 19.7198597,59.7731956 19.8994152,59.7731956 C20.079312,59.7731956 20.2278038,59.9207061 20.2278038,60.0987361" id="Fill-25" fill="#FFFFFF"></path>
                    <path d="M16.3427825,58.2472244 C16.3427825,58.4252544 16.1949735,58.5727649 16.015418,58.5727649 C15.8351798,58.5727649 15.6870294,58.4252544 15.6870294,58.2472244 C15.6870294,58.0691944 15.8351798,57.922023 16.015418,57.922023 C16.1949735,57.922023 16.3427825,58.0691944 16.3427825,58.2472244" id="Fill-26" fill="#FFFFFF"></path>
                    <path d="M69.310632,39.3387458 C68.875739,40.7212757 68.4439183,42.1027883 68.4439183,42.1027883 L72.3572725,42.1027883 L70.1776871,36.5760598 C70.1776871,36.5760598 69.7451837,37.9575723 69.3109734,39.3387458 M67.291486,39.3387458 C67.8717985,37.3342979 68.3691604,35.5417904 68.6043576,34.3728965 L68.6043576,34.3728965 C68.6439554,34.1735029 68.1599065,33.4529054 67.3935527,32.7312906 L67.3389351,32.6200642 C71.0372323,32.6319329 74.9007479,32.651601 74.9007479,32.651601 C75.9077607,35.0945113 78.2085289,41.9423918 79.9436632,46.1472902 C80.4017687,47.2592145 81.1940659,47.4691203 81.1940659,47.4691203 C78.0477482,47.4284278 72.2063912,47.4562343 72.2364309,47.4284278 C73.8107845,46.0275862 73.6090406,46.0275862 72.9229064,43.9848194 L67.9991259,43.9848194 C66.9904063,46.3076867 68.312836,47.3972301 68.482492,47.3894307 C67.3628303,47.4464003 63.5600769,47.3894307 63.5600769,47.3894307 C65.6174552,45.9475575 65.4969551,45.5067214 65.4969551,45.5067214 C66.062589,43.5083773 66.7176594,41.3201346 67.291486,39.3387458" id="Fill-6" stroke="#000000" stroke-width="0.5" fill="#FFFFFF"></path>
                    <path d="M29.9118533,64.5037063 C29.9118533,64.6824145 29.7763333,64.8295859 29.5967778,64.8295859 C29.4172223,64.8295859 29.2561003,64.6824145 29.2561003,64.5037063 C29.2561003,64.3256763 29.404592,64.1781658 29.5838061,64.1781658 C29.7643857,64.1781658 29.9118533,64.3256763 29.9118533,64.5037063" id="Fill-27" fill="#FFFFFF"></path>
                    <path d="M33.9986185,61.5263669 C33.9986185,61.7464459 33.8293038,61.9271887 33.6074197,61.9271887 C33.3862182,61.9271887 33.1916429,61.7464459 33.1916429,61.5263669 C33.1916429,61.3076444 33.3739292,61.1265625 33.5951307,61.1265625 C33.8166735,61.1265625 33.9986185,61.3076444 33.9986185,61.5263669" id="Fill-28" fill="#FFFFFF"></path>
                    <path d="M34.4662821,65.3548591 C34.4662821,65.5335673 34.3048187,65.6810778 34.1259459,65.6810778 C33.9457077,65.6810778 33.7975573,65.5335673 33.7975573,65.3548591 C33.7975573,65.1768291 33.9457077,65.0303359 34.1259459,65.0303359 C34.3048187,65.0303359 34.4662821,65.1768291 34.4662821,65.3548591" id="Fill-29" fill="#FFFFFF"></path>
                    <path d="M51.2612076,61.6993103 C51.2612076,61.8776794 51.1133986,62.02519 50.9338431,62.02519 C50.7529221,62.02519 50.6051131,61.8776794 50.6051131,61.6993103 C50.6051131,61.5206022 50.7529221,61.3741089 50.9338431,61.3741089 C51.1133986,61.3741089 51.2612076,61.5206022 51.2612076,61.6993103" id="Fill-30" fill="#FFFFFF"></path>
                    <path d="M43.4440573,64.4528406 C43.4440573,64.6315488 43.2965897,64.778042 43.1163514,64.778042 C42.9371373,64.778042 42.7886456,64.6315488 42.7886456,64.4528406 C42.7886456,64.2748106 42.9371373,64.1273001 43.1163514,64.1273001 C43.2965897,64.1273001 43.4440573,64.2748106 43.4440573,64.4528406" id="Fill-31" fill="#FFFFFF"></path>
                    <path d="M64.4786774,68.4101925 C64.4786774,68.5882225 64.3301856,68.735394 64.1509715,68.735394 C63.9703919,68.735394 63.8222416,68.5882225 63.8222416,68.4101925 C63.8222416,68.2314844 63.9703919,68.084652 64.1509715,68.084652 C64.3301856,68.084652 64.4786774,68.2314844 64.4786774,68.4101925" id="Fill-32" fill="#FFFFFF"></path>
                    <path d="M66.1923059,53.0148387 C66.1923059,53.2345786 66.0107023,53.4156605 65.7888181,53.4156605 C65.5669339,53.4156605 65.3853302,53.2345786 65.3853302,53.0148387 C65.3853302,52.7950989 65.5672753,52.614017 65.7888181,52.614017 C66.0107023,52.614017 66.1923059,52.7950989 66.1923059,53.0148387" id="Fill-33" fill="#FFFFFF"></path>
                    <path d="M62.9664513,55.191891 C62.9664513,55.3702601 62.8186424,55.5177706 62.6377214,55.5177706 C62.4581659,55.5177706 62.3103569,55.3702601 62.3103569,55.191891 C62.3103569,55.0131828 62.4581659,54.8666896 62.6377214,54.8666896 C62.8186424,54.8666896 62.9664513,55.0131828 62.9664513,55.191891" id="Fill-34" fill="#FFFFFF"></path>
                    <path d="M66.1445155,55.8192347 C66.1445155,56.0389745 65.9625705,56.2200565 65.7410277,56.2200565 C65.5191435,56.2200565 65.3375398,56.0389745 65.3375398,55.8192347 C65.3375398,55.5998339 65.5191435,55.418752 65.7410277,55.418752 C65.9625705,55.418752 66.1445155,55.5998339 66.1445155,55.8192347" id="Fill-35" fill="#FFFFFF"></path>
                    <path d="M62.9664513,59.6985926 C62.9664513,59.8766225 62.8186424,60.023794 62.6377214,60.023794 C62.4581659,60.023794 62.3103569,59.8766225 62.3103569,59.6985926 C62.3103569,59.5198844 62.4581659,59.3727129 62.6377214,59.3727129 C62.8186424,59.3727129 62.9664513,59.5198844 62.9664513,59.6985926" id="Fill-36" fill="#FFFFFF"></path>
                    <path d="M71.1864067,50.8377865 C71.1864067,51.0164947 71.037915,51.1636661 70.8583595,51.1636661 C70.6791454,51.1636661 70.5313364,51.0164947 70.5313364,50.8377865 C70.5313364,50.6590783 70.6791454,50.5125851 70.8583595,50.5125851 C71.037915,50.5125851 71.1864067,50.6590783 71.1864067,50.8377865" id="Fill-37" fill="#FFFFFF"></path>
                    <path d="M71.9817762,52.814767 C71.9817762,53.0348459 71.8134856,53.2155887 71.5919427,53.2155887 C71.3700586,53.2155887 71.1758246,53.0348459 71.1758246,52.814767 C71.1758246,52.5950271 71.3577696,52.4149625 71.5782883,52.4149625 C71.7998311,52.4149625 71.9817762,52.5950271 71.9817762,52.814767" id="Fill-38" fill="#FFFFFF"></path>
                    <path d="M77.6449431,55.1681536 C77.6449431,55.3878935 77.4640222,55.5686363 77.2414553,55.5686363 C77.0195711,55.5686363 76.8379674,55.3878935 76.8379674,55.1681536 C76.8379674,54.949092 77.0195711,54.7673319 77.2414553,54.7673319 C77.4640222,54.7673319 77.6449431,54.949092 77.6449431,55.1681536" id="Fill-39" fill="#FFFFFF"></path>
                    <path d="M71.8930225,59.3493147 C71.8930225,59.5273447 71.7435067,59.6745161 71.5639512,59.6745161 C71.3847371,59.6745161 71.2362453,59.5273447 71.2362453,59.3493147 C71.2362453,59.1702674 71.3847371,59.0237742 71.5639512,59.0237742 C71.7435067,59.0237742 71.8930225,59.1702674 71.8930225,59.3493147" id="Fill-40" fill="#FFFFFF"></path>
                    <path d="M75.5250958,55.9447034 C75.5250958,56.1234116 75.3772868,56.2699048 75.1977313,56.2699048 C75.0185172,56.2699048 74.8700254,56.1234116 74.8700254,55.9447034 C74.8700254,55.7659952 75.0185172,55.6191629 75.1977313,55.6191629 C75.3772868,55.6191629 75.5250958,55.7659952 75.5250958,55.9447034" id="Fill-41" fill="#FFFFFF"></path>
                    <path d="M74.8560297,61.2008264 C74.8560297,61.3795346 74.7082207,61.5260278 74.5286652,61.5260278 C74.3477442,61.5260278 74.1999352,61.3795346 74.1999352,61.2008264 C74.1999352,61.0227964 74.3477442,60.8752859 74.5286652,60.8752859 C74.7082207,60.8752859 74.8560297,61.0227964 74.8560297,61.2008264" id="Fill-42" fill="#FFFFFF"></path>
                    <path d="M76.3955645,52.4654891 C76.3955645,52.7401639 76.1671945,52.9656686 75.891034,52.9656686 C75.6145322,52.9656686 75.3865035,52.7401639 75.3865035,52.4654891 C75.3865035,52.1908143 75.6145322,51.9653097 75.891034,51.9653097 C76.1671945,51.9653097 76.3955645,52.1908143 76.3955645,52.4654891" id="Fill-43" fill="#FFFFFF"></path>
                    <path d="M75.8903513,50.9395179 L75.7398114,52.3159439 L74.3648122,52.4661673 L75.7507349,52.6157125 L75.9026403,54.0430042 L76.054887,52.6157125 L77.4162317,52.4410736 L76.0422566,52.3159439 L75.8903513,50.9395179" id="Fill-44" fill="#FFFFFF"></path>
                    <path d="M72.8624857,61.173698 C72.8624857,61.4483729 72.6347984,61.6738775 72.3582966,61.6738775 C72.0817947,61.6738775 71.8537661,61.4483729 71.8537661,61.173698 C71.8537661,60.8990232 72.0817947,60.6735186 72.3582966,60.6735186 C72.6347984,60.6735186 72.8624857,60.8990232 72.8624857,61.173698" id="Fill-45" fill="#FFFFFF"></path>
                    <path d="M72.3606861,59.6477269 L72.2087808,61.0241529 L70.8348057,61.1747154 L72.2210697,61.3249387 L72.372975,62.7512132 L72.5248804,61.3249387 L73.8862251,61.1499607 L72.511226,61.0241529 L72.3606861,59.6477269" id="Fill-46" fill="#FFFFFF"></path>
                    <path d="M35.2343427,19.8249653 C35.2343427,20.0996401 35.0066554,20.3251448 34.7301536,20.3251448 C34.4526277,20.3251448 34.2256231,20.0996401 34.2256231,19.8249653 C34.2256231,19.5502905 34.4526277,19.3247859 34.7301536,19.3247859 C35.0066554,19.3247859 35.2343427,19.5502905 35.2343427,19.8249653" id="Fill-47" fill="#FFFFFF"></path>
                    <path d="M34.7291295,18.2983159 L34.5775656,19.6747419 L33.2025664,19.8253044 L34.5901959,19.9745105 L34.7417599,21.4018022 L34.8926411,19.9745105 L36.2546686,19.8005498 L34.8796694,19.6747419 L34.7291295,18.2983159" id="Fill-48" fill="#FFFFFF"></path>
                    <path d="M53.998917,7.7114669 C53.998917,7.98614171 53.7708883,8.21232456 53.4943865,8.21232456 C53.2178847,8.21232456 52.9912214,7.98614171 52.9912214,7.7114669 C52.9912214,7.43679208 53.2178847,7.21060924 53.4943865,7.21060924 C53.7708883,7.21060924 53.998917,7.43679208 53.998917,7.7114669" id="Fill-49" fill="#FFFFFF"></path>
                    <path d="M53.4937038,6.18346108 L53.3431639,7.5602262 L51.9681647,7.71078869 L53.3557942,7.86101208 L53.5063341,9.28796469 L53.6582394,7.86101208 L55.0195842,7.68535584 L53.644585,7.5602262 L53.4937038,6.18346108" id="Fill-50" fill="#FFFFFF"></path>
                    <path d="M31.1858099,69.1867423 C31.1858099,69.4614171 30.9581226,69.6872609 30.6816208,69.6872609 C30.4040949,69.6872609 30.1764076,69.4614171 30.1764076,69.1867423 C30.1764076,68.9124066 30.4040949,68.6858847 30.6816208,68.6858847 C30.9581226,68.6858847 31.1858099,68.9124066 31.1858099,69.1867423" id="Fill-51" fill="#FFFFFF"></path>
                    <path d="M60.9251169,36.0562122 C60.8442145,33.212141 60.9251169,32.2911326 60.9251169,32.2911326 C59.6736902,33.292848 60.3048653,33.1650055 57.1725434,32.6519401 C48.145271,31.1720871 47.45743,39.5442433 52.3699457,41.4222052 C56.4935778,42.9987029 57.9549412,43.3076273 57.3329828,44.7854457 C57.1312388,45.2669743 53.3786653,47.0289624 49.5052503,43.4646328 L49.5847873,48.4304822 C50.0691775,47.9350502 51.401848,47.0289624 51.401848,47.0289624 C51.4417872,47.0289624 55.6005794,48.8492765 59.3507633,46.9482555 C65.1224828,44.0251729 62.2417435,39.293984 56.0825801,37.4173785 C50.9573969,35.8551231 55.8002751,32.2107648 60.8841537,36.0958875" id="Fill-7" stroke="#000000" stroke-width="0.5" fill="#FFFFFF"></path>
                    <path d="M30.6935684,67.6573801 L30.5426871,69.0341452 L29.1680293,69.1847077 L30.5553175,69.334592 L30.7065401,70.7615446 L30.8574213,69.334592 L32.2194488,69.1599531 L30.8451323,69.0341452 L30.6935684,67.6573801" id="Fill-52" fill="#FFFFFF"></path>
                    <path d="M97.4848022,3.89925176 C91.3505581,21.977602 66.776032,35.9375256 46.0895994,49.2646798 C33.6098092,57.3062088 21.2194553,66.5627501 12.6895448,74.4394743 C10.4410047,76.5168297 13.1476503,73.6629245 12.286057,74.5398493 C24.1899724,60.9237779 37.8832985,52.8137496 45.4502316,47.7092065 C58.2474869,39.0725486 65.526312,36.8958355 87.6048118,16.6936724" id="Fill-53" stroke="#000000" stroke-width="0.5" fill="#FFFFFF"></path>
                    <path d="M5.96440609,48.6878627 C3.76126688,49.7584162 1.78786314,50.8164229 0.113490998,51.8489968 L1.13245141,52.2172645 C2.59654563,51.3213498 4.35455104,50.3871163 6.20677188,49.563431" id="Fill-54" fill="#FFFFFF"></path>
                    <path d="M17.5952333,68.9188496 C15.5815491,70.6648998 13.4999341,72.5286192 11.4121747,74.4822015 L11.3200074,75.8626967 C13.2316249,73.9067408 15.5798423,71.7941184 18.2899015,69.5526363" id="Fill-55" fill="#FFFFFF"></path>
                    <path d="M32.3733611,38.101739 L30.0997609,38.8411336 L30.9240076,42.037103 L32.7300042,41.61755 L33.377051,39.27667 L32.3733611,38.101739 Z" id="Path-311" fill="#FFFFFF"></path>
                </g>
                <g id="Imported-Layers" transform="translate(257.000000, 5.000000)" fill="#FFFFFF" sketch:type="MSShapeGroup">
                    <path d="M4.52705548,52.1560083 C8.50438408,59.0368399 14.5786841,64.366237 21.8689363,67.2532225 C17.2308433,64.366237 12.8111848,60.9249064 8.83567644,56.8158004 C7.28843191,55.3723077 5.96326247,53.8208732 4.52705548,52.1560083" id="Fill-1"></path>
                    <path d="M0.882839529,42.6077339 C1.21413189,44.0512266 1.6564618,45.4947193 2.09697142,46.8247817 C4.41783822,50.0429106 6.84792229,53.0414969 9.71851597,55.9284823 C15.1302313,61.2560499 21.095314,65.5883576 27.5027267,68.9180873 C28.9371134,69.2510603 30.4825376,69.4724324 31.9187446,69.5822037 C24.1879828,66.1408732 17.0087682,61.2560499 10.7142133,54.9313929 C6.84792229,51.1552599 3.64421595,46.9382121 0.882839529,42.6077339" id="Fill-2"></path>
                    <path d="M0,35.7250728 C0,36.833763 0.109217261,37.9442827 0.22025481,38.9450312 C3.20188605,44.3841996 7.0681771,49.490395 11.5970529,54.0422453 C18.66523,61.1462786 26.8383217,66.3622453 35.5629606,69.6938046 C36.6696955,69.6938046 37.7746101,69.5822037 38.8795248,69.4724324 C29.2684058,66.252474 20.2124745,60.8133056 12.4798924,53.0414969 C7.28843191,47.8255301 3.20188605,41.9436175 0,35.7250728" id="Fill-3"></path>
                    <path d="M0.331292359,30.1743035 C0.22025481,31.0616216 0.109217261,31.9507692 0.109217261,32.8399168 C3.20188605,39.8323493 7.73076182,46.3820374 13.4737695,52.1560083 C21.6468612,60.3705613 31.3671975,65.919501 41.7501184,68.9180873 C42.632958,68.8064865 43.5176178,68.5851143 44.4004573,68.2503119 C33.4659892,65.5883576 22.9720306,59.8125572 14.3584293,51.1552599 C8.17309172,44.9367152 3.5331784,37.7229106 0.331292359,30.1743035" id="Fill-4"></path>
                    <path d="M1.32516944,25.2913098 C1.10309434,26.0688565 0.882839529,26.8427443 0.773622268,27.6221206 C3.86629105,35.8366736 8.72463889,43.6048233 15.3523064,50.2697713 C24.2990204,59.2600416 35.2334885,65.0303534 46.8305414,67.4745946 C47.4931261,67.2532225 48.2685687,66.9202495 49.0385503,66.5836175 C36.9991676,64.366237 25.5131523,58.5940956 16.2351459,49.3787942 C9.27800635,42.2747609 4.30680067,34.1718087 1.32516944,25.2913098" id="Fill-5"></path>
                    <path d="M2.87059369,21.1840333 C2.53930133,21.8481497 2.31904652,22.5159252 1.98775416,23.1800416 C4.85834784,32.5069439 9.82955352,41.0544699 17.1198057,48.3780457 C26.7291044,58.037921 38.6574497,63.7002911 51.0281248,65.5883576 C51.6888892,65.2553846 52.2422567,64.8089813 52.9066617,64.4760083 C40.2046942,62.9227443 27.8340191,57.2622037 18.1118625,47.4925572 C10.6013555,39.8323493 5.52093256,30.8402495 2.87059369,21.1840333" id="Fill-6"></path>
                    <path d="M14.7989389,39.6091476 C12.8111848,39.1664033 11.2657605,37.3899376 11.2657605,35.1707277 L11.2657605,34.5029522 C8.17309172,29.1735551 5.96326247,23.4032432 4.63809303,17.519501 C4.30680067,18.0738462 3.97550831,18.6300208 3.7552535,19.2959667 C6.18533757,29.2851559 11.2657605,38.723659 18.9965223,46.4954678 C28.9371134,56.4828274 41.6390809,62.143368 54.5613032,63.3654886 C55.1146707,62.9227443 55.6662178,62.5897713 56.2195853,62.143368 C42.9642503,61.2560499 30.042028,55.7071102 19.9903994,45.6063202 C18.1118625,43.7164241 16.3461834,41.7185863 14.7989389,39.6091476" id="Fill-7"></path>
                    <path d="M12.8111848,31.8391684 C9.82955352,26.2902287 7.73076182,20.404657 6.73688474,14.2995426 C6.40559238,14.8557173 6.07430002,15.2984615 5.63197011,15.8528067 C6.73688474,21.8481497 8.83567644,27.6221206 11.9283452,32.9478586 C12.1486,32.5069439 12.4798924,32.1721414 12.8111848,31.8391684" id="Fill-8"></path>
                    <path d="M17.7823904,39.1664033 C17.4510981,39.3877755 16.8977306,39.6091476 16.457221,39.6091476 C17.7823904,41.3856133 19.3278147,43.0504782 20.8750592,44.715343 C31.1451224,54.9313929 44.2894198,60.3705613 57.653972,60.9249064 C58.0963019,60.4785031 58.5368115,60.0375884 59.090179,59.591185 C45.5035517,59.3698129 32.1408197,54.0422453 21.8689363,43.7164241 C20.4327293,42.2747609 19.1075599,40.7214969 17.7823904,39.1664033" id="Fill-9"></path>
                    <path d="M53.7895012,57.9263202 C55.8864726,58.1476923 58.0963019,58.2592931 60.3061311,58.2592931 C60.6356032,57.9263202 60.9668956,57.4835759 61.3000082,57.1506029 C59.3104338,57.704948 57.1024248,57.9263202 54.8925956,57.9263202 L53.7895012,57.9263202" id="Fill-10"></path>
                    <path d="M23.7474732,41.8283576 C22.3112662,40.3885239 20.8750592,38.8316008 19.659107,37.2801663 C19.4388522,37.7229106 19.2167771,38.0558836 18.8873051,38.3906861 C20.101437,39.9457796 21.3155688,41.3856133 22.7517758,42.829106 C29.9328108,49.9331393 38.5464121,54.5965904 47.7133809,56.8158004 C44.9520045,55.9284823 42.5219204,54.7063617 40.3139115,53.0414969 C34.2396114,50.4911435 28.605821,46.7168399 23.7474732,41.8283576" id="Fill-11"></path>
                    <path d="M15.3523064,30.8402495 C11.9283452,24.846736 9.82955352,18.185447 9.05593125,11.524158 C8.61360135,11.9705613 8.28412927,12.4133056 7.84179936,12.8560499 C8.72463889,19.2959667 10.8234306,25.4010811 13.9160994,31.175052 C14.3584293,30.9518503 14.7989389,30.8402495 15.3523064,30.8402495" id="Fill-12"></path>
                    <path d="M36.3384031,49.157422 C35.8960732,48.6030769 35.4537433,48.0469023 35.0114134,47.3809563 C31.6984898,45.381289 28.4947835,42.829106 25.6241898,39.9457796 C17.0087682,31.3964241 12.2578173,20.404657 11.4860153,9.08174636 C11.0436854,9.52632017 10.6013555,9.86112266 10.1608459,10.3038669 C10.9344681,17.519501 13.1424771,24.5119335 16.8977306,30.9518503 C18.7762675,31.5080249 20.2124745,33.1710603 20.2124745,35.1707277 L20.2124745,35.8366736 C21.5376439,37.6131393 22.9720306,39.2780042 24.6303127,40.942869 C28.3855662,44.715343 32.5831496,47.8255301 37.1102051,50.1545114 L37.1102051,50.0429106 C36.8899503,49.8215385 36.6696955,49.490395 36.3384031,49.157422" id="Fill-13"></path>
                    <path d="M27.3916891,38.0558836 C18.8873051,29.5083576 14.3584293,18.4068191 14.0271369,7.08573805 C13.584807,7.41871102 13.1424771,7.74985447 12.7001472,8.08282744 C13.2535147,19.405738 17.8916077,30.5072765 26.5070293,39.056632 C28.7168586,41.2740125 31.1451224,43.2718503 33.686244,44.9367152 C33.3549516,44.2725988 33.0236593,43.4968815 32.6923669,42.6077339 C30.9248676,41.2740125 29.1591885,39.7207484 27.3916891,38.0558836" id="Fill-14"></path>
                    <path d="M45.7256268,46.6034096 C48.2685687,48.6030769 51.579672,49.9331393 55.1146707,49.9331393 C56.9913873,49.9331393 58.7588866,49.6001663 60.3061311,49.0476507 C55.3349255,49.0476507 50.4765776,48.2682744 45.7256268,46.6034096" id="Fill-15"></path>
                    <path d="M29.2684058,36.1696466 C20.7640217,27.7337214 16.5664383,16.5187526 16.5664383,5.30744283 C16.1259286,5.52881497 15.6835987,5.86361746 15.2412688,6.08681913 C15.4615236,17.4079002 19.7701446,28.6210395 28.3855662,37.1685655 C29.5996981,38.3906861 30.8156503,39.4993763 32.1408197,40.609896 C31.9187446,39.8323493 31.8077071,39.1664033 31.6984898,38.5022869 C30.9248676,37.7229106 30.042028,37.0587942 29.2684058,36.1696466" id="Fill-16"></path>
                    <path d="M31.478235,34.7261538 C31.3671975,34.614553 31.2561599,34.5029522 31.1451224,34.5029522 C22.7517758,26.0688565 18.7762675,14.8557173 19.2167771,3.75234927 C18.7762675,3.97555094 18.3339376,4.30852391 17.8916077,4.53172557 C17.6713529,15.6314345 21.7578987,26.9543451 30.2622828,35.2823285 C30.5935752,35.7250728 31.0359051,36.1696466 31.478235,36.6123909 L31.478235,34.7261538" id="Fill-17"></path>
                    <path d="M42.3016656,42.2747609 C42.632958,43.0504782 42.9642503,43.7164241 43.4065802,44.2725988 C49.7011351,47.0498129 56.5490574,48.0469023 63.1767248,47.6023285 C63.9503471,47.1595842 64.6129318,46.6034096 65.2755165,46.0490644 C57.5447547,47.0498129 49.4808803,45.8276923 42.3016656,42.2747609" id="Fill-18"></path>
                    <path d="M41.4206464,38.8316008 C41.5280433,39.4993763 41.6390809,40.0537214 41.7501184,40.609896 C49.4808803,44.6055717 58.3165567,45.9374636 66.7135438,44.4939709 C66.8227611,44.3841996 66.8227611,44.3841996 66.9319783,44.2725988 C67.2632707,43.8298545 67.594563,43.3834511 67.8166381,42.829106 C58.9791414,44.715343 49.4808803,43.3834511 41.4206464,38.8316008" id="Fill-19"></path>
                    <path d="M31.8077071,31.2848233 C24.5192752,23.1800416 21.2063516,12.7444491 21.9781536,2.53205821 C21.5376439,2.75525988 20.9842765,2.97663202 20.5419466,3.19800416 C19.9903994,13.8567983 23.6346154,24.7351351 31.5874523,33.0594595 C31.5874523,32.8399168 31.5874523,32.6185447 31.6984898,32.395343 C31.6984898,32.0605405 31.8077071,31.6159667 31.8077071,31.2848233" id="Fill-20"></path>
                    <path d="M24.73953,1.64474012 C24.1879828,1.75451143 23.7474732,1.86611227 23.3051433,2.09114345 C22.4204835,11.857131 25.4021147,21.8481497 32.1408197,29.7297297 C32.3610745,29.2851559 32.4721121,28.7326403 32.6923669,28.1746362 C26.3959918,20.6278586 23.7474732,10.9716424 24.73953,1.64474012" id="Fill-21"></path>
                    <path d="M44.2894198,37.3899376 C43.2955427,36.833763 42.1924483,36.2794179 41.1985713,35.6153015 L41.1985713,37.2801663 C49.5900975,42.1649896 59.3104338,43.6048233 68.4774026,41.3856133 C68.6994777,40.942869 68.8105152,40.5001247 68.9215528,40.0537214 L68.9215528,39.9457796 C61.7405178,41.8283576 54.009756,41.3856133 47.0507962,38.6083992 L44.2894198,38.6083992 L44.2894198,37.3899376" id="Fill-22"></path>
                    <path d="M41.1985713,34.1718087 C42.1924483,34.8377547 43.2955427,35.3920998 44.2894198,35.9446154 L44.2894198,34.5029522 C43.2955427,33.9504366 42.3016656,33.2826611 41.3096088,32.6185447 C41.1985713,33.1710603 41.1985713,33.7272349 41.1985713,34.1718087" id="Fill-23"></path>
                    <path d="M51.1373421,38.6083992 C56.9913873,40.1634927 63.2859421,40.1634927 69.1399873,38.5022869 C69.1399873,38.0558836 69.1399873,37.6131393 69.2510248,37.0587942 C69.0325903,37.1685655 68.8105152,37.1685655 68.5884401,37.2801663 C68.5884401,37.7229106 68.4774026,38.1656549 68.4774026,38.6083992 L51.1373421,38.6083992" id="Fill-24"></path>
                    <path d="M27.3916891,0.980623701 C26.9493592,0.980623701 26.5070293,1.09039501 26.0665197,1.20199584 C24.9616051,10.1904366 27.2806516,19.405738 33.1346968,26.8427443 C33.3549516,26.4 33.5752064,25.8438254 33.7972815,25.4010811 C28.3855662,18.2952183 26.2867745,9.41654886 27.3916891,0.980623701" id="Fill-25"></path>
                    <path d="M35.3427058,22.9586694 C30.5935752,16.29921 28.9371134,8.19442827 30.1512453,0.422619543 C29.7107357,0.534220374 29.2684058,0.534220374 28.7168586,0.645821206 C27.5027267,8.75060291 29.4886606,17.2981289 34.4616865,24.1789605 C34.7911586,23.847817 35.0114134,23.4032432 35.3427058,22.9586694" id="Fill-26"></path>
                    <path d="M69.2510248,34.947526 L69.2510248,34.3913514 C68.9215528,34.5029522 68.6994777,34.614553 68.3681853,34.7261538 C68.3681853,35.0609563 68.4774026,35.5018711 68.4774026,35.9446154 C68.6994777,35.8366736 69.0325903,35.8366736 69.2510248,35.7250728 L69.2510248,34.947526" id="Fill-27"></path>
                    <path d="M41.5280433,31.175052 C42.4127032,31.8391684 43.4065802,32.5069439 44.2894198,33.0594595 L44.2894198,31.6159667 L44.6207121,31.6159667 C43.6286553,31.0616216 42.7439955,30.5072765 41.8593357,29.8431601 C41.7501184,30.2859044 41.6390809,30.7286486 41.5280433,31.175052" id="Fill-28"></path>
                    <path d="M69.2510248,33.0594595 C69.2510248,32.6185447 69.1399873,32.1721414 69.1399873,31.7275676 C68.6994777,31.8391684 68.3681853,31.9507692 67.9258554,32.0605405 C68.036893,32.5069439 68.1479305,32.9478586 68.1479305,33.3924324 C68.4774026,33.2826611 68.9215528,33.1710603 69.2510248,33.0594595" id="Fill-29"></path>
                    <path d="M32.9126217,0.201247401 C32.4721121,0.201247401 31.9187446,0.312848233 31.478235,0.312848233 C30.1512453,7.74985447 31.6984898,15.5198337 36.116328,21.9597505 C36.4476204,21.5151767 36.6696955,21.1840333 36.9991676,20.8510603 C32.9126217,14.7459459 31.5874523,7.19733888 32.9126217,0.201247401" id="Fill-30"></path>
                    <path d="M50.8060497,31.6159667 C48.0464936,30.6170478 45.3943344,29.1735551 42.9642503,27.2891476 C42.7439955,27.6221206 42.5219204,28.0648649 42.3016656,28.5112682 C43.8489101,29.7297297 45.5035517,30.7286486 47.2728713,31.6159667 L50.8060497,31.6159667" id="Fill-31"></path>
                    <path d="M35.5629606,0.201247401 L34.6801211,0.201247401 L34.2396114,0.201247401 C32.8034044,6.86253638 34.1285739,13.9647401 37.9930446,19.9637422 C38.3261573,19.6271102 38.6574497,19.2959667 38.9905623,19.0727651 C35.3427058,13.4140541 34.2396114,6.52773389 35.5629606,0.201247401" id="Fill-32"></path>
                    <path d="M68.9215528,30.3975052 C68.9215528,29.9547609 68.8105152,29.3949272 68.8105152,28.9540125 C68.2571478,29.1735551 67.8166381,29.2851559 67.2632707,29.5083576 C67.4835255,29.9547609 67.594563,30.3975052 67.7056006,30.8402495 C68.1479305,30.6170478 68.5884401,30.5072765 68.9215528,30.3975052" id="Fill-33"></path>
                    <path d="M58.3165567,31.6159667 L58.3165567,30.5072765 C53.4563886,30.1743035 48.7090783,28.3978378 44.6207121,25.2913098 C44.5114949,25.4010811 44.4004573,25.5108524 44.2894198,25.6224532 C44.069165,25.8438254 43.8489101,26.0688565 43.6286553,26.1786279 C47.3820885,29.1735551 51.579672,30.9518503 55.9975102,31.6159667 L58.3165567,31.6159667" id="Fill-34"></path>
                    <path d="M38.2151197,0.312848233 C37.7746101,0.312848233 37.3322802,0.312848233 36.8899503,0.201247401 C35.5629606,6.30636175 36.5604782,12.8560499 40.0918364,18.2952183 C40.424949,18.0738462 40.7562414,17.8506445 41.1985713,17.6311019 C37.8838274,12.4133056 36.8899503,6.19659044 38.2151197,0.312848233" id="Fill-35"></path>
                    <path d="M68.4774026,27.7337214 C68.4774026,27.2891476 68.3681853,26.8427443 68.2571478,26.4 C67.594563,26.6213721 67.0430159,26.8427443 66.3804312,26.9543451 C66.6025063,27.4007484 66.7135438,27.8453222 66.9319783,28.286237 C67.4835255,28.0648649 67.9258554,27.953264 68.4774026,27.7337214" id="Fill-36"></path>
                    <path d="M57.4355375,27.7337214 C53.7895012,27.4007484 50.3655401,26.0688565 47.2728713,23.847817 C46.7195038,24.0691892 46.2789942,24.2905613 45.8366643,24.5119335 C49.4808803,27.2891476 53.6784637,28.8442412 57.9852643,29.1735551 C57.8760471,28.7326403 57.653972,28.1746362 57.4355375,27.7337214" id="Fill-37"></path>
                    <path d="M67.8166381,25.0699376 C67.7056006,24.7351351 67.594563,24.2905613 67.4835255,23.847817 C66.7135438,24.0691892 65.9381013,24.4003326 65.1662993,24.6253638 C65.3865541,24.9583368 65.6068089,25.4010811 65.8270637,25.8438254 C66.4914687,25.6224532 67.1540534,25.4010811 67.8166381,25.0699376" id="Fill-38"></path>
                    <path d="M54.1207936,24.4003326 C53.5674261,24.1789605 52.9066617,23.9594179 52.3532942,23.7362162 C51.2483796,23.4032432 50.0324274,23.4032432 48.9293331,23.5148441 C51.2483796,24.9583368 53.8987185,25.8438254 56.4398401,26.2902287 C55.7772554,25.5108524 55.0054534,24.846736 54.1207936,24.4003326" id="Fill-39"></path>
                    <path d="M40.8654586,0.757422037 C40.424949,0.645821206 39.9826191,0.534220374 39.5402892,0.534220374 C38.2151197,6.08681913 39.0997796,12.0803326 42.4127032,17.0749272 C42.7439955,16.8535551 43.1845051,16.6303534 43.6286553,16.5187526 C40.5341663,11.857131 39.5402892,6.08681913 40.8654586,0.757422037" id="Fill-40"></path>
                    <path d="M67.0430159,22.627526 C66.8227611,22.1829522 66.7135438,21.7365489 66.4914687,21.2956341 C65.6068089,21.7365489 64.6129318,22.0713514 63.6190547,22.1829522 C63.9503471,22.627526 64.1724222,23.0684407 64.5018943,23.4032432 C65.3865541,23.1800416 66.1583561,22.9586694 67.0430159,22.627526" id="Fill-41"></path>
                    <path d="M43.4065802,1.31176715 C42.9642503,1.20199584 42.5219204,1.09039501 42.0814108,0.980623701 C40.8654586,6.08681913 41.7501184,11.6339293 44.9520045,16.1876091 C45.3943344,15.966237 45.9477018,15.966237 46.3882115,15.8528067 C43.1845051,11.6339293 42.1924483,6.19659044 43.4065802,1.31176715" id="Fill-42"></path>
                    <path d="M49.7011351,15.5198337 C46.0587394,11.857131 44.8427872,6.75093555 45.9477018,2.09114345 C45.5035517,1.9777131 45.063042,1.75451143 44.6207121,1.64474012 C43.5176178,6.41613306 44.6207121,11.6339293 47.9336357,15.6314345 C48.4870032,15.6314345 49.0385503,15.5198337 49.7011351,15.5198337" id="Fill-43"></path>
                    <path d="M62.7343949,21.0724324 L62.7343949,21.0724324 C63.8393095,20.9608316 64.9442242,20.6278586 65.9381013,20.1851143 C65.8270637,19.7405405 65.6068089,19.2959667 65.3865541,18.9611642 C64.1724222,19.405738 62.8454325,19.7405405 61.520263,19.8503119 C61.9625929,20.2930561 62.4031026,20.6278586 62.7343949,21.0724324" id="Fill-44"></path>
                    <path d="M51.6888892,13.8567983 C48.7090783,10.9716424 47.7133809,6.86253638 48.4870032,3.08640333 C48.0464936,2.86320166 47.6041636,2.64182952 47.1618337,2.53205821 C46.1679567,6.75093555 47.3820885,11.524158 50.6968324,14.8557173 C51.0281248,15.0770894 51.2483796,15.4100624 51.579672,15.6314345 C52.9066617,15.7430353 54.2300108,16.0778378 55.5551803,16.4108108 C54.1207936,15.8528067 52.7956241,14.9673181 51.6888892,13.8567983" id="Fill-45"></path>
                    <path d="M64.7239694,17.8506445 C64.5018943,17.4079002 64.2834597,16.9633264 64.0613846,16.6303534 C61.6294803,17.519501 59.090179,17.519501 56.6600949,16.8535551 C57.8760471,17.2981289 58.9791414,17.9622453 60.084056,18.7416216 C61.6294803,18.7416216 63.2859421,18.4068191 64.7239694,17.8506445" id="Fill-46"></path>
                    <path d="M63.3969796,15.5198337 C63.0656873,15.0770894 62.8454325,14.7459459 62.5141401,14.2995426 C59.4214713,15.1868607 55.9975102,14.4093139 53.5674261,11.9705613 C51.4686344,9.86112266 50.5876152,6.97230769 50.9170872,4.19692308 C50.4765776,3.97555094 50.0324274,3.75234927 49.5900975,3.64440748 C49.0385503,6.86253638 50.0324274,10.4136383 52.573549,12.9676507 C55.445963,15.8528067 59.6453667,16.7401247 63.3969796,15.5198337" id="Fill-47"></path>
                    <path d="M61.6294803,13.1890229 C61.3000082,12.8560499 60.9668956,12.4133056 60.6356032,11.9705613 C58.7588866,12.1919335 56.8803497,11.524158 55.445963,10.0806653 C54.2300108,8.86037422 53.5674261,7.30711019 53.4563886,5.75201663 C53.0158789,5.52881497 52.573549,5.195842 52.1312191,4.97629938 C52.0201816,7.08573805 52.7956241,9.41654886 54.4502656,11.0814137 C56.4398401,13.077422 59.090179,13.7451975 61.6294803,13.1890229" id="Fill-48"></path>
                    <path d="M59.5325089,10.7484407 C58.0963019,9.3031185 56.5490574,7.97122661 54.8925956,6.75093555 C55.1146707,7.63825364 55.5551803,8.52740125 56.3288025,9.19151767 C57.2134624,10.0806653 58.3165567,10.6350104 59.5325089,10.7484407" id="Fill-49"></path>
                    <path d="M127.127072,42.2747609 C127.680439,45.381289 128.894571,47.7139293 131.766985,48.6030769 C135.190946,49.6001663 139.497747,49.3787942 141.596539,46.6034096 C142.368341,45.6063202 142.479378,44.1628274 142.148086,42.9407069 C141.596539,41.0544699 139.940077,40.609896 136.627153,39.9457796 C133.752919,39.2780042 126.686562,38.5022869 122.931309,35.6153015 C119.946037,33.2826611 118.400613,28.8442412 119.946037,23.9594179 C121.717177,18.7416216 127.017855,16.4108108 130.995183,15.8528067 C138.392832,14.7459459 144.357915,17.519501 146.897217,20.1851143 C148.886791,22.2927235 150.21196,25.6224532 150.100923,28.8442412 L141.927831,28.8442412 C141.816794,27.8453222 141.707576,26.8427443 141.265246,25.9572557 C140.271369,23.7362162 137.950503,22.4043243 135.411201,22.4043243 C132.538787,22.1829522 129.557156,22.9586694 128.343024,25.4010811 C127.900694,26.2902287 127.900694,27.8453222 128.674316,28.7326403 C130.441816,30.7286486 133.863957,30.8402495 136.847408,31.3964241 C141.927831,32.2837422 147.450584,33.1710603 149.878848,37.3899376 C152.642044,42.2747609 151.0948,47.8255301 149.329121,50.0429106 C148.113169,51.6016632 146.676962,53.0414969 144.800245,54.1538462 C141.596539,55.9284823 136.183003,56.5944283 130.884146,55.7071102 C126.022157,54.9313929 122.709234,52.4889813 120.832517,49.490395 C119.39631,47.1595842 118.513471,45.1599168 118.513471,42.2747609 L127.127072,42.2747609" id="Fill-50"></path>
                    <path d="M90.0150465,31.6159667 L103.932966,31.6159667 C104.153221,28.3978378 101.723137,24.846736 98.5212509,23.847817 C95.5396197,22.9586694 92.4451306,23.5148441 89.9058293,25.6224532 C87.5867827,27.7337214 86.8131605,32.1721414 86.8131605,34.947526 C86.9223777,40.1634927 87.9180751,43.8298545 90.8997063,46.0490644 C92.8874605,47.4925572 97.4163363,49.3787942 101.391845,46.4954678 C103.159344,45.1599168 103.932966,43.3834511 104.264259,42.0533888 L114.093812,42.0533888 C113.873557,45.1599168 110.890106,50.1545114 107.910295,52.3773805 C102.607797,56.2614553 95.6488369,57.0408316 90.1260841,54.9313929 C78.3087764,50.4911435 76.4302395,39.1664033 77.3148993,32.395343 C77.7572292,29.6199584 78.7511063,26.732973 80.1873133,24.1789605 C82.9468694,19.7405405 86.9223777,16.6303534 92.4451306,15.7430353 C98.5212509,14.8557173 104.486334,16.7401247 108.348984,21.0724324 C110.560634,23.6264449 112.659425,27.8453222 113.431227,31.2848233 C113.873557,33.6174636 114.315887,36.0580457 114.093812,38.6083992 L90.0150465,38.6083992 L90.0150465,31.6159667" id="Fill-51"></path>
                    <path d="M189.974325,45.4947193 L189.974325,33.5058628 C189.863287,30.3975052 189.863287,27.2891476 189.200702,24.4003326 C188.538118,21.5151767 185.996996,16.7401247 177.822084,15.7430353 C176.27848,15.6314345 174.623839,15.6314345 172.965557,15.6314345 L172.963736,15.6314345 C170.20418,15.7430353 167.333586,16.1876091 165.01636,17.0749272 C160.156192,19.0727651 157.724288,23.847817 157.724288,28.8442412 L166.559964,28.8442412 C166.339709,26.2902287 168.218246,23.9594179 169.983925,23.2898129 C170.757548,22.9586694 171.862462,22.7372973 172.965557,22.7372973 C175.175386,22.6293555 177.383395,23.1800416 178.928819,24.6253638 C179.922696,25.6224532 180.253988,26.9543451 179.922696,28.3978378 C179.371149,30.7286486 176.830027,31.5080249 172.963736,32.0605405 L172.963736,32.0623701 C171.640387,32.2855717 170.098603,32.395343 168.443962,32.6185447 C163.805869,33.1710603 157.178201,35.5018711 155.630957,42.2747609 C155.08123,44.9367152 155.519919,49.8215385 159.608285,53.0414969 C162.369662,55.149106 166.235953,56.1498545 169.217584,56.0400832 C170.544574,56.0400832 171.867923,55.9284823 172.974658,55.7071102 L172.974658,55.7034511 C176.061866,55.0393347 178.49013,53.595842 180.805536,51.709605 C180.916573,52.2657796 181.469941,54.3752183 181.91045,54.9313929 L191.188457,54.9313929 C189.75225,52.0444075 189.974325,47.8255301 189.974325,45.4947193 L189.974325,45.4947193 Z M180.033734,44.0512266 C179.038036,46.7168399 176.27666,48.2682744 172.963736,48.6030769 C172.304792,48.7146778 171.53481,48.82079 170.764829,48.7110187 C168.554999,48.7110187 166.676463,47.6023285 165.904661,45.9374636 C165.020001,44.2725988 165.573368,42.6077339 166.124915,41.6069854 C167.450085,39.2780042 169.769131,38.8316008 172.974658,38.1656549 C173.964894,38.0558836 175.066169,37.8345114 176.27666,37.5015385 C178.706744,36.9471933 179.263752,36.5044491 180.472423,35.6153015 C180.472423,36.5044491 180.585281,42.829106 180.033734,44.0512266 L180.033734,44.0512266 Z" id="Fill-52"></path>
                </g>
            </g>
        </g>
    </g>
</svg>