<?xml version="1.0" encoding="UTF-8" standalone="no"?>
<svg
   xmlns:sketch="http://www.bohemiancoding.com/sketch/ns"
   xmlns:dc="http://purl.org/dc/elements/1.1/"
   xmlns:cc="http://creativecommons.org/ns#"
   xmlns:rdf="http://www.w3.org/1999/02/22-rdf-syntax-ns#"
   xmlns:svg="http://www.w3.org/2000/svg"
   xmlns="http://www.w3.org/2000/svg"
   xmlns:sodipodi="http://sodipodi.sourceforge.net/DTD/sodipodi-0.dtd"
   xmlns:inkscape="http://www.inkscape.org/namespaces/inkscape"
   width="52.869999"
   height="60.07925"
   viewBox="0 0 52.869999 60.07925"
   version="1.1"
   id="svg2"
   inkscape:version="0.48.4 r9939"
   sodipodi:docname="spinner.svg">
  <metadata
     id="metadata18">
    <rdf:RDF>
      <cc:Work
         rdf:about="">
        <dc:format>image/svg+xml</dc:format>
        <dc:type
           rdf:resource="http://purl.org/dc/dcmitype/StillImage" />
        <dc:title>Group</dc:title>
      </cc:Work>
    </rdf:RDF>
  </metadata>
  <sodipodi:namedview
     pagecolor="#ffffff"
     bordercolor="#666666"
     borderopacity="1"
     objecttolerance="10"
     gridtolerance="10"
     guidetolerance="10"
     inkscape:pageopacity="0"
     inkscape:pageshadow="2"
     inkscape:window-width="3070"
     inkscape:window-height="1752"
     id="namedview16"
     showgrid="false"
     fit-margin-top="0"
     fit-margin-left="0"
     fit-margin-right="0"
     fit-margin-bottom="0"
     inkscape:zoom="6.3422053"
     inkscape:cx="10.347582"
     inkscape:cy="14.575661"
     inkscape:window-x="130"
     inkscape:window-y="48"
     inkscape:window-maximized="1"
     inkscape:current-layer="svg2" />
  <!-- Generator: Sketch 3.5.2 (25235) - http://www.bohemiancoding.com/sketch -->
  <title
     id="title4">Group</title>
  <desc
     id="desc6">Created with Sketch.</desc>
  <defs
     id="defs8" />
  <path
     style="fill:#2e8fb5;fill-opacity:1;stroke:none"
     inkscape:connector-curvature="0"
     sketch:type="MSShapeGroup"
     id="Fill-1"
     d="m 43.801,30.82825 -7.82,13.706 c -0.251,0.436 -0.86,0.94 -1.362,0.94 l -15.639,0 c -0.501,0 -1.111,-0.504 -1.363,-0.94 l -7.819,-13.629 c -0.251,-0.434 -0.251,-1.177 0,-1.611 l 7.819,-13.613 c 0.252,-0.434 0.861,-0.847 1.363,-0.847 l 15.639,0 c 0.5,0 1.111,0.392 1.362,0.828 l 7.82,13.573 c 0.25,0.434 0.25,1.158 0,1.593 m 8.17,-16.53 -24.316,-14.068 c -0.531,-0.307 -1.382,-0.307 -1.916,0 l -24.56,14.068 C 0.646,14.60425 0,15.35625 0,15.97325 l 0,28.132 c 0,0.617 0.654,1.368 1.188,1.676 l 24.459,14.067 c 0.532,0.308 1.454,0.308 1.988,0 l 24.309,-14.067 c 0.532,-0.307 0.926,-1.057 0.926,-1.676 l 0,-28.132 c 0,-0.616 -0.363,-1.367 -0.899,-1.675" />
</svg>
