<?xml version="1.0" encoding="UTF-8" standalone="no"?>
<svg width="112px" height="112px" viewBox="0 0 112 112" version="1.1" xmlns="http://www.w3.org/2000/svg" xmlns:xlink="http://www.w3.org/1999/xlink" xmlns:sketch="http://www.bohemiancoding.com/sketch/ns">
    <!-- Generator: Sketch 3.3.3 (12072) - http://www.bohemiancoding.com/sketch -->
    <title>support</title>
    <desc>Created with Sketch.</desc>
    <defs>
        <path id="path-1" d="M0.073125,0.0486153846 L78,0.0486153846 L78,77.7846154 L0.073125,77.7846154"></path>
    </defs>
    <g id="Page-1" stroke="none" stroke-width="1" fill="none" fill-rule="evenodd" sketch:type="MSPage">
        <g id="support" sketch:type="MSArtboardGroup">
            <g id="Group-3-Copy-+-Fill-4-Copy-+-Fill-5-Copy" sketch:type="MSLayerGroup" transform="translate(17.000000, 16.000000)">
                <g id="Group-3-Copy" transform="translate(0.000000, 0.784533)">
                    <mask id="mask-2" sketch:name="Clip 2" fill="white">
                        <use xlink:href="#path-1"></use>
                    </mask>
                    <g id="Clip-2"></g>
                    <path d="M78,38.8923077 C78,60.3718 60.5389688,77.7846154 39,77.7846154 C17.4610313,77.7846154 0,60.3718 0,38.8923077 C0,17.4128154 17.4610313,0 39,0 C60.5389688,0 78,17.4128154 78,38.8923077" id="Fill-1" fill="#76ACC5" sketch:type="MSShapeGroup" mask="url(#mask-2)"></path>
                </g>
                <path d="M58.5,59.1229944 L21.9375,59.1229944 C15.2063438,59.1229944 9.75,53.6817175 9.75,46.9691483 C9.75,40.8812867 14.2435313,35.8532406 20.099625,34.9684406 C22.2141563,26.5081483 29.8618125,20.2306867 39,20.2306867 C49.768875,20.2306867 58.5,28.9377021 58.5,39.6768406 C63.8844375,39.6768406 68.25,44.0303483 68.25,49.3999175 C68.25,54.7694867 63.8844375,59.1229944 58.5,59.1229944" id="Fill-4-Copy" fill="#638DA1" sketch:type="MSShapeGroup"></path>
                <path d="M39,17.7999175 C29.8618125,17.7999175 22.2141563,24.077379 20.099625,32.5376713 C14.2435313,33.4224713 9.75,38.4505175 9.75,44.538379 C9.75,51.2509483 15.2063438,56.6922252 21.9375,56.6922252 L58.5,56.6922252 C63.8844375,56.6922252 68.25,52.3387175 68.25,46.9691483 C68.25,41.599579 63.8844375,37.2460713 58.5,37.2460713 C58.5,26.5057175 49.768875,17.7999175 39,17.7999175 Z" id="Fill-5-Copy" fill="#FFFFFF" sketch:type="MSShapeGroup"></path>
            </g>
        </g>
    </g>
</svg>