<?xml version="1.0" encoding="UTF-8" standalone="no"?>
<svg width="100px" height="100px" viewBox="0 0 100 100" version="1.1" xmlns="http://www.w3.org/2000/svg" xmlns:xlink="http://www.w3.org/1999/xlink" xmlns:sketch="http://www.bohemiancoding.com/sketch/ns">
    <!-- Generator: Sketch 3.3.3 (12072) - http://www.bohemiancoding.com/sketch -->
    <title>swatches</title>
    <desc>Created with Sketch.</desc>
    <defs>
        <path id="path-1" d="M0.09375,0.0625 L100,0.0625 L100,100 L0.09375,100"></path>
    </defs>
    <g id="Page-1" stroke="none" stroke-width="1" fill="none" fill-rule="evenodd" sketch:type="MSPage">
        <g id="services" sketch:type="MSArtboardGroup" transform="translate(-6.000000, -6.000000)">
            <g id="swatches" sketch:type="MSLayerGroup" transform="translate(6.000000, 6.000000)">
                <g id="Group-3">
                    <mask id="mask-2" sketch:name="Clip 2" fill="white">
                        <use xlink:href="#path-1"></use>
                    </mask>
                    <g id="Clip-2"></g>
                    <path d="M100,50 C100,77.6140625 77.6140625,100 50,100 C22.3859375,100 0,77.6140625 0,50 C0,22.3859375 22.3859375,0 50,0 C77.6140625,0 100,22.3859375 100,50" id="Fill-1" fill="#47798A" sketch:type="MSShapeGroup" mask="url(#mask-2)"></path>
                </g>
                <path d="M28.840625,79.9625 C27.646875,79.896875 26.5453125,79.1453125 26.0921875,77.95625 L25.709375,76.95625 L27.0640625,77.4078125 L28.4515625,79.4875 C28.56875,79.6609375 28.6984375,79.8203125 28.840625,79.9625 M41.571875,75.39375 L41.959375,74.2328125 L47.471875,70.5546875 L83.6671875,56.74375 C84.0296875,56.6046875 84.353125,56.40625 84.6265625,56.1625 C84.9296875,57.6359375 84.1296875,59.1546875 82.6796875,59.7078125 L41.571875,75.39375 M21.4734375,65.6828125 C21.3046875,64.69375 21.628125,63.69375 22.3078125,62.990625 C21.996875,63.6125 21.9,64.328125 22.040625,65.0171875 C21.8171875,65.2140625 21.6265625,65.4390625 21.4734375,65.6828125" id="Fill-4" fill="#414A55" sketch:type="MSShapeGroup"></path>
                <path d="M30,75.440625 C29.35625,75.440625 28.76875,75.0359375 28.540625,74.434375 L24.0828125,62.75625 C23.9328125,62.3671875 23.9453125,61.9421875 24.1171875,61.5609375 C24.2875,61.1796875 24.5953125,60.8890625 24.9859375,60.740625 L77.5390625,40.6859375 C77.71875,40.6171875 77.90625,40.5828125 78.0953125,40.5828125 C78.740625,40.5828125 79.328125,40.9859375 79.55625,41.5875 L84.0125,53.2671875 C84.1609375,53.6578125 84.1484375,54.08125 83.9796875,54.4625 C83.809375,54.84375 83.5,55.134375 83.109375,55.284375 L30.55625,75.3375 C30.375,75.40625 30.1890625,75.440625 30,75.440625" id="Fill-5" fill="#76ACC5" sketch:type="MSShapeGroup"></path>
                <path d="M78.0953125,39.01875 C77.725,39.01875 77.3484375,39.0859375 76.9828125,39.225 L24.428125,59.2796875 C22.815625,59.8953125 22.0078125,61.7 22.6234375,63.3125 L27.0796875,74.9921875 C27.5546875,76.2375 28.740625,77.003125 30,77.003125 C30.3703125,77.003125 30.746875,76.9375 31.1140625,76.796875 L83.6671875,56.74375 C85.2796875,56.128125 86.0875,54.321875 85.4734375,52.709375 L81.015625,41.03125 C80.540625,39.7859375 79.3546875,39.01875 78.0953125,39.01875 M78.096875,42.1453125 L78.096875,42.1453125 L82.553125,53.8234375 L29.9984375,73.878125 L25.5421875,62.2 L78.096875,42.1453125" id="Fill-6" fill="#DEDFCB" sketch:type="MSShapeGroup"></path>
                <path d="M31.0546875,80.878125 C30.2390625,80.878125 29.4375,80.5609375 28.840625,79.9625 C28.8984375,79.965625 28.9546875,79.9671875 29.0125,79.9671875 C29.3828125,79.9671875 29.759375,79.9015625 30.125,79.7609375 L30.203125,79.73125 L30.8875,80.403125 C31.0671875,80.578125 31.2609375,80.728125 31.4671875,80.8515625 C31.3296875,80.86875 31.1921875,80.878125 31.0546875,80.878125 M21.1828125,68.4375 C20.8421875,67.51875 20.959375,66.496875 21.4734375,65.6828125 C21.50625,65.8828125 21.5609375,66.08125 21.634375,66.278125 L21.9765625,67.1734375 L21.91875,67.2328125 C21.5734375,67.5859375 21.328125,67.9984375 21.1828125,68.4375" id="Fill-7" fill="#414A55" sketch:type="MSShapeGroup"></path>
                <path d="M29.0125,79.9671875 C28.9546875,79.9671875 28.8984375,79.965625 28.840625,79.9625 C28.6984375,79.8203125 28.56875,79.6609375 28.4515625,79.4875 L27.0640625,77.4078125 L28.2296875,77.7953125 L30.203125,79.73125 L30.125,79.7609375 C29.759375,79.9015625 29.3828125,79.9671875 29.0125,79.9671875 M41.959375,74.2328125 L42.2921875,73.234375 L43.3921875,72.1125 L47.471875,70.5546875 L41.959375,74.2328125 M21.9765625,67.1734375 L21.634375,66.278125 C21.5609375,66.08125 21.50625,65.8828125 21.4734375,65.6828125 C21.6265625,65.4390625 21.8171875,65.2140625 22.040625,65.0171875 C22.071875,65.1703125 22.115625,65.3234375 22.1703125,65.4734375 C22,65.990625 21.9671875,66.54375 22.0734375,67.0734375 L21.9765625,67.1734375" id="Fill-8" fill="#3A4048" sketch:type="MSShapeGroup"></path>
                <path d="M51.1109375,65.821875 L79.821875,46.6671875 L80.4375,48.28125 C80.2171875,48.609375 79.928125,48.9015625 79.578125,49.1359375 L59.184375,62.740625 L51.1109375,65.821875" id="Fill-9" fill="#638DA1" sketch:type="MSShapeGroup"></path>
                <path d="M43.3921875,72.1125 L46.6265625,68.8125 L51.1109375,65.821875 L59.184375,62.740625 L47.471875,70.5546875 L43.3921875,72.1125 M80.4375,48.28125 L79.821875,46.6671875 L80.5671875,46.1703125 C80.6875,46.090625 80.8015625,46.003125 80.90625,45.909375 C81.0734375,46.728125 80.9046875,47.5859375 80.4375,48.28125" id="Fill-10" fill="#B3B3A5" sketch:type="MSShapeGroup"></path>
                <path d="M32.04375,76.3515625 C31.51875,76.3515625 31.0296875,76.090625 30.740625,75.6546875 L23.803125,65.25625 C23.571875,64.909375 23.4890625,64.4921875 23.5703125,64.084375 C23.653125,63.675 23.8890625,63.3203125 24.2359375,63.0890625 L71.028125,31.8734375 C71.2859375,31.7015625 71.584375,31.609375 71.89375,31.609375 C72.41875,31.609375 72.9046875,31.8703125 73.1953125,32.30625 L80.13125,42.7046875 C80.3640625,43.0515625 80.4453125,43.4671875 80.365625,43.8765625 C80.2828125,44.2859375 80.0453125,44.6390625 79.7,44.871875 L32.9078125,76.0875 C32.65,76.2609375 32.35,76.3515625 32.04375,76.3515625" id="Fill-11" fill="#73BBA2" sketch:type="MSShapeGroup"></path>
                <path d="M71.8921875,30.046875 C71.296875,30.046875 70.69375,30.2171875 70.1609375,30.5734375 L23.36875,61.790625 C21.9328125,62.7484375 21.5453125,64.6890625 22.503125,66.1234375 L29.440625,76.521875 C30.0421875,77.425 31.0328125,77.9140625 32.0421875,77.9140625 C32.6390625,77.9140625 33.240625,77.74375 33.7734375,77.3875 L80.5671875,46.1703125 C82.003125,45.2125 82.390625,43.271875 81.4328125,41.8375 L74.4953125,31.4390625 C73.8921875,30.5359375 72.9015625,30.046875 71.8921875,30.046875 M71.8953125,33.1734375 L71.8953125,33.171875 L78.8328125,43.5703125 L32.0390625,74.7875 L25.103125,64.3890625 L71.8953125,33.1734375" id="Fill-12" fill="#DEDFCB" sketch:type="MSShapeGroup"></path>
                <path d="M33.075,81.296875 C32.51875,81.296875 31.9609375,81.1484375 31.4671875,80.8515625 C31.925,80.790625 32.3765625,80.6265625 32.7859375,80.353125 L32.9125,80.26875 L33.8203125,80.8125 C33.9765625,80.90625 34.1359375,80.984375 34.3,81.046875 C33.9109375,81.2125 33.4921875,81.296875 33.075,81.296875" id="Fill-13" fill="#414A55" sketch:type="MSShapeGroup"></path>
                <path d="M31.4671875,80.8515625 C31.2609375,80.728125 31.0671875,80.578125 30.8875,80.403125 L30.203125,79.73125 L31.3125,79.309375 L32.9125,80.26875 L32.7859375,80.353125 C32.3765625,80.6265625 31.925,80.790625 31.4671875,80.8515625" id="Fill-14" fill="#3A4048" sketch:type="MSShapeGroup"></path>
                <path d="M30.203125,79.73125 L28.2296875,77.7953125 L29.4875,78.215625 L31.3125,79.309375 L30.203125,79.73125 M42.2921875,73.234375 L42.5609375,72.4296875 L43.3921875,72.1125 L42.2921875,73.234375" id="Fill-15" fill="#34393F" sketch:type="MSShapeGroup"></path>
                <path d="M42.5609375,72.4296875 L42.6515625,72.15625 L43.340625,71.0046875 L46.6265625,68.8125 L43.3921875,72.1125 L42.5609375,72.4296875" id="Fill-16" fill="#949388" sketch:type="MSShapeGroup"></path>
                <path d="M51.7296875,61.653125 L75.0359375,37.8796875 L75.521875,38.6078125 C75.4078125,39.1875 75.1296875,39.740625 74.6859375,40.1921875 L57.2734375,57.9546875 L51.7296875,61.653125" id="Fill-17" fill="#629986" sketch:type="MSShapeGroup"></path>
                <path d="M43.340625,71.0046875 L44.5703125,68.9546875 L51.7296875,61.653125 L57.2734375,57.9546875 L46.6265625,68.8125 L43.340625,71.0046875 M75.521875,38.6078125 L75.0359375,37.8796875 L75.51875,37.3875 C75.6,37.790625 75.6,38.2046875 75.521875,38.6078125" id="Fill-18" fill="#B3B3A5" sketch:type="MSShapeGroup"></path>
                <path d="M21.6125,71.2453125 C21.01875,70.421875 20.8734375,69.371875 21.1828125,68.4375 C21.265625,68.6625 21.3765625,68.88125 21.5140625,69.0890625 L22.1015625,69.9703125 L22.025,70.1 C21.80625,70.4625 21.671875,70.8515625 21.6125,71.2453125" id="Fill-19" fill="#414A55" sketch:type="MSShapeGroup"></path>
                <path d="M22.1015625,69.9703125 L21.5140625,69.0890625 C21.3765625,68.88125 21.265625,68.6625 21.1828125,68.4375 C21.328125,67.9984375 21.5734375,67.5859375 21.91875,67.2328125 L21.9765625,67.1734375 L22.5671875,68.721875 C22.5671875,68.8640625 22.5765625,69.0078125 22.59375,69.1484375 L22.1015625,69.9703125" id="Fill-20" fill="#3A4048" sketch:type="MSShapeGroup"></path>
                <path d="M22.5671875,68.721875 L21.9765625,67.1734375 L22.0734375,67.0734375 C22.159375,67.5015625 22.3359375,67.9140625 22.6015625,68.2828125 C22.5796875,68.428125 22.56875,68.575 22.5671875,68.721875" id="Fill-21" fill="#34393F" sketch:type="MSShapeGroup"></path>
                <path d="M34.0640625,76.7703125 C33.6515625,76.7703125 33.2625,76.6109375 32.9703125,76.3234375 L24.0453125,67.571875 C23.7453125,67.2796875 23.5796875,66.8890625 23.575,66.471875 C23.571875,66.0546875 23.73125,65.659375 24.021875,65.3625 L63.4015625,25.1953125 C63.6984375,24.89375 64.0953125,24.728125 64.5171875,24.728125 C64.9296875,24.728125 65.3171875,24.8859375 65.6109375,25.175 L74.5359375,33.925 C74.8359375,34.2171875 75.0015625,34.6078125 75.00625,35.0265625 C75.009375,35.44375 74.85,35.8375 74.559375,36.134375 L35.1796875,76.3015625 C34.8828125,76.603125 34.4859375,76.7703125 34.0640625,76.7703125" id="Fill-22" fill="#F1CC84" sketch:type="MSShapeGroup"></path>
                <path d="M64.5171875,23.165625 C63.7078125,23.165625 62.8984375,23.478125 62.2859375,24.1015625 L22.90625,64.26875 C21.6984375,65.5015625 21.7171875,67.4796875 22.95,68.6875 L31.8765625,77.4390625 C32.484375,78.034375 33.275,78.3328125 34.0640625,78.3328125 C34.8734375,78.3328125 35.6828125,78.01875 36.2953125,77.3953125 L75.675,37.228125 C76.8828125,35.996875 76.8640625,34.0171875 75.63125,32.809375 L66.7046875,24.0578125 C66.096875,23.4625 65.3078125,23.165625 64.5171875,23.165625 M64.5171875,26.290625 L64.5171875,26.290625 L73.44375,35.040625 L34.0640625,75.2078125 L25.1375,66.45625 L64.5140625,26.290625 L64.5171875,26.290625" id="Fill-23" fill="#FFFFFF" sketch:type="MSShapeGroup"></path>
                <path d="M35.4234375,81.2578125 C35.046875,81.2578125 34.665625,81.1890625 34.3,81.046875 C34.6671875,80.890625 35.0109375,80.6609375 35.3078125,80.359375 L35.4578125,80.20625 L36.553125,80.5703125 C36.7640625,80.640625 36.978125,80.6875 37.190625,80.7125 C36.6703125,81.06875 36.0515625,81.2578125 35.4234375,81.2578125" id="Fill-24" fill="#414A55" sketch:type="MSShapeGroup"></path>
                <path d="M22.575,73.99375 C21.815625,73.2875 21.4640625,72.2515625 21.6125,71.2453125 C21.715625,71.3890625 21.8328125,71.525 21.9625,71.6515625 L22.7859375,72.459375 L22.7171875,72.6640625 C22.5703125,73.10625 22.5265625,73.559375 22.575,73.99375" id="Fill-25" fill="#414A55" sketch:type="MSShapeGroup"></path>
                <path d="M34.3,81.046875 C34.1359375,80.984375 33.9765625,80.90625 33.8203125,80.8125 L32.9125,80.26875 L33.8234375,79.6609375 L35.4578125,80.20625 L35.3078125,80.359375 C35.0109375,80.6609375 34.6671875,80.890625 34.3,81.046875 M22.7859375,72.459375 L21.9625,71.6515625 C21.8328125,71.525 21.715625,71.3890625 21.6125,71.2453125 C21.671875,70.8515625 21.80625,70.4625 22.025,70.1 L22.1015625,69.9703125 L23.1109375,71.4828125 L22.7859375,72.459375" id="Fill-26" fill="#3A4048" sketch:type="MSShapeGroup"></path>
                <path d="M32.9125,80.26875 L31.3125,79.309375 L31.990625,79.05 L33.8234375,79.6609375 L32.9125,80.26875 M23.1109375,71.4828125 L22.1015625,69.9703125 L22.59375,69.1484375 C22.675,69.753125 22.9296875,70.3296875 23.3390625,70.7984375 L23.1109375,71.4828125" id="Fill-27" fill="#34393F" sketch:type="MSShapeGroup"></path>
                <path d="M31.3125,79.309375 L29.4875,78.215625 L31.990625,79.05 L31.3125,79.309375" id="Fill-28" fill="#313338" sketch:type="MSShapeGroup"></path>
                <path d="M42.6515625,72.15625 L42.946875,71.2671875 L43.340625,71.0046875 L42.6515625,72.15625" id="Fill-29" fill="#7C7B72" sketch:type="MSShapeGroup"></path>
                <path d="M42.946875,71.2671875 L43.2796875,70.2703125 L44.5703125,68.9546875 L43.340625,71.0046875 L42.946875,71.2671875" id="Fill-30" fill="#949388" sketch:type="MSShapeGroup"></path>
                <path d="M49.4234375,59.540625 L67.440625,29.4765625 C67.53125,30.1515625 67.4,30.859375 67.0234375,31.4890625 L51.4515625,57.471875 L49.4234375,59.540625" id="Fill-31" fill="#C1A66E" sketch:type="MSShapeGroup"></path>
                <path d="M43.2796875,70.2703125 L43.6390625,69.1921875 L49.4234375,59.540625 L51.4515625,57.471875 L44.5703125,68.9546875 L43.2796875,70.2703125" id="Fill-32" fill="#CFCEC8" sketch:type="MSShapeGroup"></path>
                <path d="M36.4125,76.7296875 C36.13125,76.7296875 35.8546875,76.653125 35.6125,76.5078125 L24.8890625,70.08125 C24.53125,69.8671875 24.278125,69.5265625 24.178125,69.121875 C24.075,68.7171875 24.1375,68.296875 24.353125,67.9390625 L53.26875,19.690625 C53.553125,19.2140625 54.05625,18.9296875 54.6109375,18.9296875 C54.8921875,18.9296875 55.16875,19.00625 55.4109375,19.153125 L66.134375,25.578125 C66.8734375,26.0203125 67.1140625,26.9828125 66.671875,27.721875 L37.75625,75.9703125 C37.4703125,76.446875 36.9671875,76.7296875 36.4125,76.7296875" id="Fill-33" fill="#D5925C" sketch:type="MSShapeGroup"></path>
                <path d="M54.6125,17.3671875 C53.55,17.3671875 52.5140625,17.909375 51.928125,18.8859375 L23.0125,67.134375 C22.125,68.615625 22.60625,70.534375 24.0875,71.421875 L34.809375,77.8484375 C35.3125,78.15 35.865625,78.2921875 36.4125,78.2921875 C37.4734375,78.2921875 38.509375,77.7515625 39.0953125,76.7734375 L68.0109375,28.525 C68.8984375,27.0453125 68.4171875,25.125 66.9375,24.2375 L56.215625,17.8125 C55.7125,17.5109375 55.159375,17.3671875 54.6125,17.3671875 M54.609375,20.49375 L54.609375,20.4921875 L65.33125,26.91875 L36.415625,75.1671875 L25.69375,68.740625 L54.60625,20.49375 L54.609375,20.49375" id="Fill-34" fill="#FFFFFF" sketch:type="MSShapeGroup"></path>
                <path d="M37.540625,80.73125 C37.425,80.73125 37.3078125,80.725 37.190625,80.7125 C37.553125,80.465625 37.8671875,80.1375 38.1078125,79.7375 L39.35625,77.6546875 C40.3265625,77.3875 41.1515625,76.65625 41.49375,75.6296875 L41.571875,75.39375 L40.5046875,78.59375 C40.06875,79.903125 38.85,80.73125 37.540625,80.73125 M25.709375,76.95625 L24.69375,76.6171875 C23.4984375,76.21875 22.7046875,75.16875 22.575,73.99375 C22.7328125,74.1390625 22.90625,74.271875 23.0984375,74.3859375 L25.2125,75.653125 L25.709375,76.95625" id="Fill-35" fill="#414A55" sketch:type="MSShapeGroup"></path>
                <path d="M27.0640625,77.4078125 L25.709375,76.95625 L25.2125,75.653125 L26.3484375,76.334375 L27.0640625,77.4078125 M41.571875,75.39375 L41.959375,74.2328125 L41.571875,75.39375" id="Fill-36" fill="#3A4048" sketch:type="MSShapeGroup"></path>
                <path d="M28.2296875,77.7953125 L27.0640625,77.4078125 L26.3484375,76.334375 L27.3515625,76.934375 L28.2296875,77.7953125 M41.959375,74.2328125 L42.2921875,73.234375 L41.959375,74.2328125" id="Fill-37" fill="#34393F" sketch:type="MSShapeGroup"></path>
                <path d="M29.4875,78.215625 L28.2296875,77.7953125 L27.3515625,76.934375 L29.4875,78.215625 M42.2921875,73.234375 L42.5609375,72.4296875 L42.2921875,73.234375" id="Fill-38" fill="#313338" sketch:type="MSShapeGroup"></path>
                <path d="M42.5609375,72.4296875 L42.6515625,72.15625 L42.5609375,72.4296875" id="Fill-39" fill="#7C7B72" sketch:type="MSShapeGroup"></path>
                <path d="M37.190625,80.7125 C36.978125,80.6875 36.7640625,80.640625 36.553125,80.5703125 L35.4578125,80.20625 L37.5375,78.084375 C37.7625,77.996875 37.978125,77.884375 38.1796875,77.746875 C38.296875,77.7609375 38.4125,77.7671875 38.5296875,77.7671875 C38.8109375,77.7671875 39.0890625,77.728125 39.35625,77.6546875 L38.1078125,79.7375 C37.8671875,80.1375 37.553125,80.465625 37.190625,80.7125" id="Fill-40" fill="#3A4048" sketch:type="MSShapeGroup"></path>
                <path d="M25.2125,75.653125 L23.0984375,74.3859375 C22.90625,74.271875 22.7328125,74.1390625 22.575,73.99375 C22.5265625,73.559375 22.5703125,73.10625 22.7171875,72.6640625 L22.7859375,72.459375 L24.715625,74.3515625 L25.2125,75.653125" id="Fill-41" fill="#3A4048" sketch:type="MSShapeGroup"></path>
                <path d="M26.3484375,76.334375 L25.2125,75.653125 L24.715625,74.3515625 L25.6109375,75.2296875 L26.3484375,76.334375" id="Fill-42" fill="#34393F" sketch:type="MSShapeGroup"></path>
                <path d="M27.3515625,76.934375 L26.3484375,76.334375 L25.6109375,75.2296875 L27.3515625,76.934375" id="Fill-43" fill="#313338" sketch:type="MSShapeGroup"></path>
                <path d="M35.4578125,80.20625 L33.8234375,79.6609375 L35.9296875,78.2546875 C36.090625,78.2796875 36.2515625,78.2921875 36.4125,78.2921875 C36.7984375,78.2921875 37.1796875,78.221875 37.5375,78.084375 L35.4578125,80.20625 M24.715625,74.3515625 L22.7859375,72.459375 L23.1109375,71.4828125 L24.303125,73.2671875 L24.715625,74.3515625" id="Fill-44" fill="#34393F" sketch:type="MSShapeGroup"></path>
                <path d="M25.6109375,75.2296875 L24.715625,74.3515625 L24.303125,73.2671875 L25.6109375,75.2296875" id="Fill-45" fill="#313338" sketch:type="MSShapeGroup"></path>
                <path d="M33.8234375,79.6609375 L31.990625,79.05 L33.884375,78.3265625 C33.94375,78.33125 34.003125,78.3328125 34.0640625,78.3328125 C34.48125,78.3328125 34.8984375,78.2484375 35.2890625,78.0828125 C35.4984375,78.1640625 35.7140625,78.221875 35.9296875,78.2546875 L33.8234375,79.6609375 M24.303125,73.2671875 L23.1109375,71.4828125 L23.3390625,70.7984375 C23.3515625,70.8125 23.3640625,70.8265625 23.3765625,70.8390625 L24.303125,73.2671875" id="Fill-46" fill="#313338" sketch:type="MSShapeGroup"></path>
                <path d="M31.990625,79.05 L29.4875,78.215625 L27.3515625,76.934375 L25.6109375,75.2296875 L24.303125,73.2671875 L23.3765625,70.8390625 C23.4359375,70.9046875 23.4984375,70.96875 23.5625,71.0296875 C23.6921875,72.2046875 24.4875,73.2546875 25.6828125,73.653125 L26.6984375,73.9921875 L27.0796875,74.9921875 C27.534375,76.18125 28.6359375,76.9328125 29.8296875,76.9984375 C30.4265625,77.5953125 31.228125,77.9140625 32.0421875,77.9140625 C32.1796875,77.9140625 32.3171875,77.9046875 32.453125,77.8859375 C32.89375,78.1515625 33.3875,78.2984375 33.884375,78.3265625 L31.990625,79.05" id="Fill-47" fill="#2C2F32" sketch:type="MSShapeGroup"></path>
                <path d="M29.8296875,76.9984375 C28.6359375,76.9328125 27.534375,76.18125 27.0796875,74.9921875 L26.6984375,73.9921875 L28.053125,74.44375 L29.440625,76.521875 C29.55625,76.696875 29.6875,76.85625 29.8296875,76.9984375 M42.6515625,72.15625 L42.946875,71.2671875 L42.6515625,72.15625" id="Fill-48" fill="#6A665F" sketch:type="MSShapeGroup"></path>
                <path d="M32.0421875,77.9140625 C31.228125,77.9140625 30.4265625,77.5953125 29.8296875,76.9984375 C29.6875,76.85625 29.55625,76.696875 29.440625,76.521875 L28.053125,74.44375 L29.215625,74.83125 L31.8765625,77.4390625 C32.0546875,77.6140625 32.2484375,77.7625 32.453125,77.8859375 C32.3171875,77.9046875 32.1796875,77.9140625 32.0421875,77.9140625 M42.946875,71.2671875 L43.2796875,70.2703125 L42.946875,71.2671875" id="Fill-49" fill="#7C7B72" sketch:type="MSShapeGroup"></path>
                <path d="M34.0640625,78.3328125 C34.003125,78.3328125 33.94375,78.33125 33.884375,78.3265625 C33.3875,78.2984375 32.89375,78.1515625 32.453125,77.8859375 C32.2484375,77.7625 32.0546875,77.6140625 31.8765625,77.4390625 L29.215625,74.83125 L30.475,75.25 L34.809375,77.8484375 C34.9640625,77.940625 35.125,78.0203125 35.2890625,78.0828125 C34.8984375,78.2484375 34.48125,78.3328125 34.0640625,78.3328125 M43.2796875,70.2703125 L43.6390625,69.1921875 L43.2796875,70.2703125" id="Fill-50" fill="#A9A8A4" sketch:type="MSShapeGroup"></path>
                <path d="M27.5796875,58.0765625 L40.50625,19.3015625 C40.5078125,19.296875 40.509375,19.2921875 40.5109375,19.2875 L27.5796875,58.0765625" id="Fill-51" fill="#414A55" sketch:type="MSShapeGroup"></path>
                <path d="M27.1921875,59.2390625 L27.5796875,58.0765625 L27.1921875,59.2390625" id="Fill-52" fill="#B3B3A5" sketch:type="MSShapeGroup"></path>
                <path d="M26.8609375,60.2359375 L27.1921875,59.2390625 L26.8609375,60.234375 L26.8609375,60.2359375" id="Fill-53" fill="#B3B3A5" sketch:type="MSShapeGroup"></path>
                <path d="M26.5015625,61.3140625 L26.8609375,60.2359375 L26.8609375,60.234375 L26.5015625,61.3140625" id="Fill-54" fill="#CFCEC8" sketch:type="MSShapeGroup"></path>
                <path d="M48.2046875,55.49375 L58.2953125,25.2265625 C58.29375,25.228125 58.29375,25.2296875 58.29375,25.23125 L48.2046875,55.49375" id="Fill-55" fill="#AF7A51" sketch:type="MSShapeGroup"></path>
                <path d="M36.4125,78.2921875 C36.2515625,78.2921875 36.090625,78.2796875 35.9296875,78.2546875 C35.7140625,78.221875 35.4984375,78.1640625 35.2890625,78.0828125 C35.125,78.0203125 34.9640625,77.940625 34.809375,77.8484375 L30.475,75.25 L37.540625,77.60625 C37.753125,77.6765625 37.9671875,77.7234375 38.1796875,77.746875 C37.978125,77.884375 37.7625,77.996875 37.5375,78.084375 C37.1796875,78.221875 36.7984375,78.2921875 36.4125,78.2921875 M23.5625,71.0296875 C23.4984375,70.96875 23.4359375,70.9046875 23.3765625,70.8390625 C23.3640625,70.8265625 23.3515625,70.8125 23.3390625,70.7984375 L26.5015625,61.3140625 L23.70625,69.7 C23.5578125,70.1421875 23.515625,70.59375 23.5625,71.0296875 M43.6390625,69.1921875 L48.2046875,55.49375 L43.6390625,69.1921875" id="Fill-56" fill="#CFCEC8" sketch:type="MSShapeGroup"></path>
                <path d="M38.5296875,76.2046875 C38.3640625,76.2046875 38.196875,76.1765625 38.0359375,76.1234375 L26.1765625,72.1703125 C25.7796875,72.0390625 25.459375,71.7609375 25.2734375,71.3859375 C25.0875,71.0140625 25.05625,70.590625 25.1875,70.19375 L42.975,16.83125 C43.1890625,16.190625 43.784375,15.7609375 44.4578125,15.7609375 C44.625,15.7609375 44.7921875,15.7890625 44.953125,15.8421875 L56.8109375,19.7953125 C57.2078125,19.928125 57.528125,20.20625 57.7140625,20.5796875 C57.903125,20.953125 57.93125,21.3765625 57.8,21.771875 L40.0109375,75.134375 C39.7984375,75.775 39.203125,76.2046875 38.5296875,76.2046875" id="Fill-57" fill="#B95756" sketch:type="MSShapeGroup"></path>
                <path d="M44.4578125,14.1984375 C43.15,14.1984375 41.93125,15.0265625 41.49375,16.3359375 L23.70625,69.7 C23.159375,71.3375 24.0453125,73.1078125 25.6828125,73.653125 L37.540625,77.60625 C37.86875,77.715625 38.2015625,77.7671875 38.5296875,77.7671875 C39.8375,77.7671875 41.0578125,76.9390625 41.49375,75.6296875 L59.28125,22.265625 C59.828125,20.628125 58.9421875,18.859375 57.3046875,18.3140625 L45.446875,14.3609375 C45.11875,14.2515625 44.7859375,14.1984375 44.4578125,14.1984375 M44.4609375,17.325 L56.3171875,21.278125 L38.528125,74.640625 L26.6703125,70.6890625 L44.4609375,17.325" id="Fill-58" fill="#FFFFFF" sketch:type="MSShapeGroup"></path>
                <path d="M34.5390625,69.859375 C34.23125,69.859375 33.91875,69.8109375 33.6125,69.7078125 C32.0765625,69.196875 31.2484375,67.5375 31.759375,66.003125 C32.16875,64.775 33.3109375,63.9984375 34.5375,63.9984375 C34.8453125,63.9984375 35.1578125,64.046875 35.465625,64.15 C37,64.6609375 37.8296875,66.3203125 37.3171875,67.8546875 C36.909375,69.0828125 35.765625,69.859375 34.5390625,69.859375" id="Fill-59" fill="#974D4C" sketch:type="MSShapeGroup"></path>
                <path d="M37.9359375,66.003125 C37.4234375,67.5375 35.7640625,68.3671875 34.2296875,67.8546875 C32.6953125,67.34375 31.865625,65.684375 32.3765625,64.15 C32.8890625,62.6140625 34.5484375,61.784375 36.0828125,62.296875 C37.6171875,62.8078125 38.446875,64.4671875 37.9359375,66.003125" id="Fill-60" fill="#FFFFFF" sketch:type="MSShapeGroup"></path>
            </g>
        </g>
    </g>
</svg>