<?xml version="1.0" encoding="UTF-8" standalone="no"?>
<svg width="112px" height="112px" viewBox="0 0 112 112" version="1.1" xmlns="http://www.w3.org/2000/svg" xmlns:xlink="http://www.w3.org/1999/xlink" xmlns:sketch="http://www.bohemiancoding.com/sketch/ns">
    <!-- Generator: Sketch 3.3.3 (12072) - http://www.bohemiancoding.com/sketch -->
    <title>training</title>
    <desc>Created with Sketch.</desc>
    <defs></defs>
    <g id="Page-1" stroke="none" stroke-width="1" fill="none" fill-rule="evenodd" sketch:type="MSPage">
        <g id="training" sketch:type="MSArtboardGroup">
            <g id="Group" sketch:type="MSLayerGroup" transform="translate(18.000000, 19.000000)">
                <path d="M73.0504412,73.1796176 L3.9495588,73.1796176 C1.8285456,73.1796176 0.110620884,71.4753672 0.110620884,69.3712368 C0.110620884,68.6781115 0.296809373,68.0268784 0.625038564,67.4670464 C1.28725535,68.6057523 2.52915177,69.3712368 3.9495588,69.3712368 L73.0504412,69.3712368 C74.4708482,69.3712368 75.7127446,68.6057523 76.3749614,67.4670464 C76.7031906,68.0268784 76.8893791,68.6781115 76.8893791,69.3712368 C76.8893791,71.4753672 75.1714544,73.1796176 73.0504412,73.1796176" id="Fill-4" fill="#CED0D4" sketch:type="MSShapeGroup"></path>
                <path d="M76.8893791,65.562856 C76.8893791,67.6669864 75.1714544,69.3712368 73.0504412,69.3712368 L3.9495588,69.3712368 C1.8285456,69.3712368 0.110620884,67.6669864 0.110620884,65.562856 C0.110620884,63.4587256 1.8285456,61.7544752 3.9495588,61.7544752 L73.0504412,61.7544752 C75.1714544,61.7544752 76.8893791,63.4587256 76.8893791,65.562856" id="Fill-5" fill="#D5925C" sketch:type="MSShapeGroup"></path>
                <path d="M21.2247794,16.0539056 L13.5469036,16.0539056 C10.3663435,16.0539056 7.78849671,18.6112333 7.78849671,21.7664768 L7.78849671,61.7544752 L26.9831863,61.7544752 L26.9831863,21.7664768 C26.9831863,18.6112333 24.4053395,16.0539056 21.2247794,16.0539056" id="Fill-6" fill="#7F3E3D" sketch:type="MSShapeGroup"></path>
                <path d="M63.4530964,8.43714398 L55.7752206,8.43714398 C52.5946605,8.43714398 50.0168137,10.9944717 50.0168137,14.1497152 L50.0168137,61.7544752 L69.2115033,61.7544752 L69.2115033,14.1497152 C69.2115033,10.9944717 66.6336565,8.43714398 63.4530964,8.43714398" id="Fill-7" fill="#76ABC4" sketch:type="MSShapeGroup"></path>
                <path d="M7.78849671,23.6706672 L26.9831863,23.6706672 L26.9831863,29.3832384 L7.78849671,29.3832384 L7.78849671,23.6706672 Z" id="Fill-8" fill="#F0CB84" sketch:type="MSShapeGroup"></path>
                <path d="M7.78849671,48.4251424 L26.9831863,48.4251424 L26.9831863,54.1377136 L7.78849671,54.1377136 L7.78849671,48.4251424 Z" id="Fill-9" fill="#F0CB84" sketch:type="MSShapeGroup"></path>
                <path d="M50.0168137,48.4251424 L69.2115033,48.4251424 L69.2115033,54.1377136 L50.0168137,54.1377136 L50.0168137,48.4251424 Z" id="Fill-10" fill="#FFFFFF" sketch:type="MSShapeGroup"></path>
                <path d="M50.0168137,16.0539056 L69.2115033,16.0539056 L69.2115033,21.7664768 L50.0168137,21.7664768 L50.0168137,16.0539056 Z" id="Fill-11" fill="#FFFFFF" sketch:type="MSShapeGroup"></path>
                <path d="M50.0168137,54.1377136 L53.8557516,54.1377136 L53.8557516,61.7544752 L50.0168137,61.7544752 L50.0168137,54.1377136 Z M50.0168137,21.7664768 L53.8557516,21.7664768 L53.8557516,48.4251424 L50.0168137,48.4251424 L50.0168137,21.7664768 Z" id="Fill-12" fill="#497E97" sketch:type="MSShapeGroup"></path>
                <path d="M50.0168137,48.4251424 L53.8557516,48.4251424 L53.8557516,54.1377136 L50.0168137,54.1377136 L50.0168137,48.4251424 Z" id="Fill-13" fill="#CFCEC8" sketch:type="MSShapeGroup"></path>
                <path d="M50.0168137,14.1497152 L50.0168137,14.1420984 L50.0168137,14.1497152 M50.0168137,14.13829 L50.0168137,14.1325775 L50.0168137,14.13829 M50.0168137,14.1306733 L50.0168137,14.1249607 L50.0168137,14.1306733 M50.0168137,14.1211523 L50.0168137,14.1154398 L50.0168137,14.1211523 M50.0168137,14.107823 L50.0168137,14.1059188 L50.0168137,14.107823 M50.0168137,14.1002062 L50.0168137,14.098302 C50.0168137,14.098302 50.0168137,14.098302 50.0168137,14.1002062" id="Fill-14" fill="#638DA1" sketch:type="MSShapeGroup"></path>
                <path d="M53.8557516,16.0539056 L50.0168137,16.0539056 L50.0168137,14.1497152 L50.0168137,14.1420984 L50.0168137,14.13829 L50.0168137,14.1325775 L50.0168137,14.1306733 L50.0168137,14.1249607 L50.0168137,14.1211523 L50.0168137,14.1154398 L50.0168137,14.107823 L50.0168137,14.1059188 L50.0168137,14.1002062 L50.0168137,14.098302 C50.0398474,11.638088 51.6406845,9.56823308 53.8557516,8.78751502 L53.8557516,16.0539056" id="Fill-15" fill="#497E97" sketch:type="MSShapeGroup"></path>
                <path d="M50.0168137,16.0539056 L53.8557516,16.0539056 L53.8557516,21.7664768 L50.0168137,21.7664768 L50.0168137,16.0539056 Z" id="Fill-16" fill="#CFCEC8" sketch:type="MSShapeGroup"></path>
                <path d="M26.9831863,21.7664768 L26.9831863,21.75886 L26.9831863,21.7664768 M26.9831863,21.7550516 L26.9831863,21.7493391 L26.9831863,21.7550516 M26.9831863,21.7455307 L26.9831863,21.7417223 L26.9831863,21.7455307 M26.9831863,21.7379139 L26.9831863,21.7341056 L26.9831863,21.7379139 M26.9831863,21.7245846 L26.9831863,21.7226804 L26.9831863,21.7245846 M26.9831863,21.7169678 L26.9831863,21.7150637 C26.9831863,21.7150637 26.9831863,21.7150637 26.9831863,21.7169678" id="Fill-17" fill="#638DA1" sketch:type="MSShapeGroup"></path>
                <path d="M23.1442484,54.1377136 L26.9831863,54.1377136 L26.9831863,61.7544752 L23.1442484,61.7544752 L23.1442484,54.1377136 Z M23.1442484,29.3832384 L26.9831863,29.3832384 L26.9831863,48.4251424 L23.1442484,48.4251424 L23.1442484,29.3832384 Z M26.9831863,23.6706672 L23.1442484,23.6706672 L23.1442484,16.4042766 C25.3593155,17.1849947 26.9601526,19.2548497 26.9831863,21.7150637 C26.9831863,21.7150637 26.9831863,21.7150637 26.9831863,21.7169678 L26.9831863,21.7226804 L26.9831863,21.7245846 L26.9831863,21.7341056 L26.9831863,21.7379139 L26.9831863,21.7417223 L26.9831863,21.7455307 L26.9831863,21.7493391 L26.9831863,21.7550516 L26.9831863,21.75886 L26.9831863,21.7664768 L26.9831863,23.6706672 L26.9831863,23.6706672 Z" id="Fill-18" fill="#692D2C" sketch:type="MSShapeGroup"></path>
                <path d="M23.1442484,23.6706672 L26.9831863,23.6706672 L26.9831863,29.3832384 L23.1442484,29.3832384 L23.1442484,23.6706672 Z" id="Fill-19" fill="#AE7A51" sketch:type="MSShapeGroup"></path>
                <path d="M23.1442484,48.4251424 L26.9831863,48.4251424 L26.9831863,54.1377136 L23.1442484,54.1377136 L23.1442484,48.4251424 Z" id="Fill-20" fill="#AE7A51" sketch:type="MSShapeGroup"></path>
                <path d="M44.2584069,0.82038238 L32.7415931,0.82038238 C29.5610331,0.82038238 26.9831863,3.37771009 26.9831863,6.53295358 L26.9831863,61.7544752 L50.0168137,61.7544752 L50.0168137,6.53295358 C50.0168137,3.37771009 47.4389669,0.82038238 44.2584069,0.82038238" id="Fill-21" fill="#4C5665" sketch:type="MSShapeGroup"></path>
                <path d="M26.9831863,8.43714398 L50.0168137,8.43714398 L50.0168137,14.1497152 L26.9831863,14.1497152 L26.9831863,8.43714398 Z" id="Fill-22" fill="#73BBA2" sketch:type="MSShapeGroup"></path>
                <path d="M26.9831863,48.4251424 L50.0168137,48.4251424 L50.0168137,54.1377136 L26.9831863,54.1377136 L26.9831863,48.4251424 Z" id="Fill-23" fill="#73BBA2" sketch:type="MSShapeGroup"></path>
                <g transform="translate(37.296875, 19.096774)" fill="#B9BBBE" sketch:type="MSShapeGroup">
                    <path d="M1.74008108,18.2598861 C2.16844361,18.2598861 2.49064635,18.3623563 2.70651613,18.5672167 C2.88506546,18.7321122 2.97442671,18.945605 2.97442671,19.2072957 C2.97442671,19.4689863 2.88506546,19.6824791 2.70651613,19.8473746 C2.49064635,20.052235 2.16844361,20.1547052 1.74008108,20.1547052 L0.89868251,20.1547052 L0.89868251,21.0676649 C0.89868251,21.1218574 0.878074004,21.1674974 0.836164268,21.2042652 C0.794774074,21.2413527 0.744724844,21.2595767 0.686362938,21.2595767 C0.627654672,21.2595767 0.578557935,21.2413527 0.538293416,21.2042652 C0.498115487,21.1674974 0.478372884,21.1218574 0.478372884,21.0676649 L0.478372884,18.456274 C0.478372884,18.4024012 0.498115487,18.355882 0.538293416,18.3175955 C0.578557935,18.2790693 0.627654672,18.2598861 0.686362938,18.2598861 L1.74008108,18.2598861 L1.74008108,18.2598861 Z M1.69860429,19.787587 C2.01595798,19.787587 2.24568221,19.7251617 2.38751723,19.5997516 C2.49861266,19.5031163 2.55368413,19.3721911 2.55368413,19.2072957 C2.55368413,18.9425677 2.41055026,18.7662423 2.12410934,18.6782394 C2.01310049,18.6440294 1.87117889,18.6270043 1.69860429,18.6270043 L0.89868251,18.6270043 L0.89868251,19.787587 L1.69860429,19.787587 L1.69860429,19.787587 Z" id="Fill-1-Copy" transform="translate(1.726400, 19.759731) rotate(-90.000000) translate(-1.726400, -19.759731) "></path>
                    <path d="M2.68634619,15.5634115 C2.73223908,15.4981087 2.79025463,15.4654174 2.85952692,15.4654174 C2.92871262,15.4654174 2.98196569,15.4838812 3.01893978,15.5207289 C3.05600045,15.5578164 3.07453079,15.600499 3.07453079,15.6487766 C3.07453079,15.6970543 3.06206178,15.7398168 3.03747011,15.7769043 L1.92790119,17.2062115 L1.92790119,18.2943776 C1.92790119,18.3485701 1.90815859,18.3942101 1.86789407,18.4309779 C1.82771614,18.4680654 1.77861941,18.4862894 1.71991114,18.4862894 C1.66120287,18.4862894 1.6115,18.4680654 1.56976345,18.4309779 C1.5279403,18.3942101 1.50750498,18.3485701 1.50750498,18.2943776 L1.50750498,17.2062115 L0.402698523,15.7769043 C0.377847089,15.7398168 0.365724438,15.6970543 0.365724438,15.6487766 C0.365724438,15.600499 0.384168186,15.5578164 0.4208825,15.5207289 C0.457943176,15.4838812 0.511109659,15.4654174 0.580728312,15.4654174 C0.649567651,15.4654174 0.707669785,15.4981087 0.753909039,15.5634115 L1.71991114,16.8605944 L2.68634619,15.5634115" id="Fill-2-Copy" transform="translate(1.720128, 16.975853) rotate(-90.000000) translate(-1.720128, -16.975853) "></path>
                    <path d="M2.80185946,13.1743625 C2.80185946,13.4813733 2.65127882,13.7004613 2.34890527,13.8313865 C2.64175388,13.9224267 2.83623583,14.0716559 2.93131205,14.2794738 C2.96508229,14.3590041 2.98231378,14.4543605 2.98231378,14.5653832 C2.98231378,14.6760861 2.96066619,14.7829524 2.91789055,14.8854226 C2.87450877,14.9878928 2.8050633,15.0758957 2.70938095,15.1497509 C2.51221469,15.3033763 2.20733002,15.3802689 1.79429398,15.3802689 L0.675806255,15.3802689 C0.617097988,15.3802689 0.568001252,15.3618051 0.527823323,15.3249574 C0.487645394,15.2878699 0.467816201,15.2422299 0.467816201,15.1883571 L0.467816201,12.5981475 C0.467816201,12.5442748 0.487645394,12.4977555 0.527823323,12.4594691 C0.568001252,12.4209429 0.617097988,12.4017597 0.675806255,12.4017597 L1.76649848,12.4017597 C2.10584611,12.4017597 2.3629329,12.4729773 2.53836498,12.6151726 C2.71448978,12.757368 2.80185946,12.9437646 2.80185946,13.1743625 L2.80185946,13.1743625 Z M2.39999358,13.2040165 C2.39999358,13.0703736 2.34189145,12.9637471 2.22646649,12.883977 C2.11104154,12.8045266 1.94703939,12.7644817 1.73428686,12.7644817 L0.888212418,12.7644817 L0.888212418,13.6904701 L1.65557622,13.6904701 C2.0529394,13.6904701 2.290197,13.592396 2.3674356,13.3960082 C2.38908319,13.3362206 2.39999358,13.2723566 2.39999358,13.2040165 L2.39999358,13.2040165 Z M1.75247084,15.0175468 C2.19009854,15.0175468 2.4509953,14.9209914 2.53394887,14.7273212 C2.56200415,14.6678533 2.57533907,14.6010319 2.57533907,14.526777 C2.57533907,14.3560467 2.50641314,14.232395 2.3674356,14.1555024 C2.22897761,14.0786898 2.02557685,14.0404833 1.7573199,14.0404833 L0.888212418,14.0404833 L0.888212418,15.0175468 L1.75247084,15.0175468 L1.75247084,15.0175468 Z" id="Fill-3-Copy" transform="translate(1.725065, 13.891014) rotate(-90.000000) translate(-1.725065, -13.891014) "></path>
                    <path d="M1.73062682,9.0734375 C2.21735125,9.0734375 2.60839334,9.21707159 2.9043592,9.50449965 C3.19131966,9.78617275 3.34068804,10.1529712 3.35281069,10.6055345 C3.34068804,11.0576982 3.19131966,11.4244967 2.9043592,11.7063296 C2.60839334,11.9937577 2.21735125,12.1373119 1.73062682,12.1373119 C1.24009241,12.1373119 0.849050323,11.9937577 0.556288302,11.7063296 C0.263526282,11.421859 0.113551772,11.0548207 0.107836808,10.6055345 C0.113551772,10.1559286 0.263526282,9.78905023 0.556288302,9.50449965 C0.849050323,9.21707159 1.24009241,9.0734375 1.73062682,9.0734375 L1.73062682,9.0734375 Z M1.73062682,11.7745898 C2.10634241,11.7745898 2.40230827,11.6621284 2.61791828,11.4375253 C2.82712059,11.2213947 2.93241448,10.9441177 2.93241448,10.6055345 C2.93241448,10.2669513 2.82712059,9.98959444 2.61791828,9.7732241 C2.40230827,9.54862097 2.10634241,9.43607962 1.73062682,9.43607962 C1.3543051,9.43607962 1.05833923,9.54862097 0.842729226,9.7732241 C0.632920774,9.98959444 0.528233025,10.2669513 0.528233025,10.6055345 C0.528233025,10.9441177 0.632920774,11.2213947 0.842729226,11.4375253 C1.05833923,11.6621284 1.3543051,11.7745898 1.73062682,11.7745898 L1.73062682,11.7745898 Z" id="Fill-4-Copy-2" transform="translate(1.730324, 10.605375) rotate(-90.000000) translate(-1.730324, -10.605375) "></path>
                    <path d="M1.71669807,8.54349484 C2.25632921,8.54349484 2.52614479,8.38019798 2.52614479,8.05304475 C2.52614479,7.91644449 2.42284248,7.80694047 2.21615129,7.72445278 C2.12687662,7.69032269 2.02288159,7.65970953 1.9042528,7.63261328 C1.785624,7.60551703 1.66500362,7.5763426 1.5438637,7.54509 C1.42194447,7.51399725 1.30149727,7.47826857 1.18278188,7.43862332 C1.06415309,7.39849849 0.958859203,7.34734333 0.866380694,7.28491805 C0.662893339,7.14264276 0.561496023,6.95488734 0.561496023,6.72173171 C0.561496023,6.47123129 0.662893339,6.26653072 0.866380694,6.10699057 C1.08839839,5.9335426 1.38557652,5.84673869 1.75878098,5.84673869 C2.09431864,5.84673869 2.4011083,5.89381743 2.67863042,5.9877351 C2.76470124,6.0160303 2.80808301,6.07278055 2.80808301,6.15822566 C2.80808301,6.20090824 2.79154425,6.24159258 2.759679,6.27979909 C2.72712102,6.31840525 2.69144579,6.33750851 2.65308626,6.33750851 C2.61420719,6.33750851 2.56130048,6.32631832 2.49358681,6.30337842 C2.29338989,6.23799573 2.06366566,6.20538432 1.80467388,6.20538432 C1.56741628,6.20538432 1.37154888,6.24654824 1.21785098,6.32903593 C1.06034311,6.41440111 0.981805649,6.53541503 0.981805649,6.69167806 C0.981805649,6.8538559 1.08328956,6.97606878 1.28677691,7.05879626 C1.37925542,7.09852144 1.48385658,7.13129271 1.60127311,7.15687029 C1.71860306,7.18244787 1.83853071,7.20954412 1.96166221,7.23783932 C2.08531325,7.26637431 2.2052409,7.29962516 2.32265743,7.33815139 C2.43938124,7.37651776 2.54467513,7.42711341 2.6365475,7.48953869 C2.83994827,7.62613895 2.94203831,7.82252681 2.94203831,8.07862233 C2.94203831,8.3233678 2.83561875,8.52231341 2.623126,8.67601868 C2.40431215,8.83236164 2.11596623,8.91061305 1.75878098,8.91061305 C1.36713277,8.91061305 1.00033599,8.84235288 0.65847723,8.70575262 C0.624620398,8.69160502 0.594054,8.66898485 0.56781712,8.63741252 C0.54166683,8.60623985 0.528938046,8.56859284 0.528938046,8.52439159 C0.528938046,8.48058998 0.545476806,8.44046516 0.580026361,8.4048164 C0.613796603,8.3695673 0.652762266,8.35158307 0.697356304,8.35158307 C0.742036932,8.35158307 0.797454764,8.36509122 0.863782983,8.39218747 C0.930197792,8.41928372 1.03869552,8.45133563 1.1897957,8.48818333 C1.34098248,8.52527082 1.51641456,8.54349484 1.71669807,8.54349484" id="Fill-5-Copy-2" transform="translate(1.735488, 7.378676) rotate(-90.000000) translate(-1.735488, -7.378676) "></path>
                    <path d="M1.72164342,5.77827812 C2.26075502,5.77827812 2.53048401,5.61498126 2.53048401,5.28782803 C2.53048401,5.15122777 2.4271817,5.04172375 2.22049051,4.95923606 C2.13121584,4.92510597 2.02713422,4.89449281 1.90859201,4.86739656 C1.78987663,4.84030031 1.66994897,4.81112588 1.54820292,4.77987328 C1.42628369,4.74878053 1.30635603,4.71305185 1.18772724,4.6734066 C1.06909844,4.63328177 0.963198422,4.58212661 0.870719914,4.51970133 C0.667925281,4.37742604 0.565835242,4.18967062 0.565835242,3.95651499 C0.565835242,3.70601457 0.667925281,3.501314 0.870719914,3.34177385 C1.09273761,3.16832588 1.38991574,3.08152197 1.76320679,3.08152197 C2.09935059,3.08152197 2.40553411,3.1286007 2.68296964,3.22251838 C2.76912705,3.25081358 2.81242223,3.30756383 2.81242223,3.39300894 C2.81242223,3.43569152 2.79648961,3.47637586 2.76393163,3.51458237 C2.73137365,3.55318853 2.69639115,3.57229179 2.65751207,3.57229179 C2.61915254,3.57229179 2.56624583,3.56110159 2.49801262,3.5381617 C2.29772911,3.47277901 2.06800487,3.4401676 1.80970582,3.4401676 C1.5717555,3.4401676 1.37658082,3.48133152 1.22227679,3.56381921 C1.06528846,3.64918439 0.986837591,3.77019831 0.986837591,3.92646134 C0.986837591,4.08863918 1.08823491,4.21085205 1.29172226,4.29357954 C1.38428736,4.33330472 1.48888852,4.36607599 1.60621846,4.39165357 C1.72294227,4.41723115 1.84356265,4.4443274 1.96660756,4.4726226 C2.08973906,4.50115759 2.21035943,4.53440844 2.32699665,4.57293467 C2.44441319,4.61130104 2.54901435,4.66189669 2.64149285,4.72432197 C2.84498021,4.86092223 2.94646412,5.05731009 2.94646412,5.31340561 C2.94646412,5.55815108 2.84047751,5.75709669 2.62746522,5.91080196 C2.40873796,6.06714492 2.12039204,6.14539633 1.76320679,6.14539633 C1.37147199,6.14539633 1.00536793,6.07713616 0.66281645,5.9405359 C0.628959618,5.9263883 0.598999352,5.90376813 0.572935652,5.8721958 C0.546698772,5.84102312 0.533363856,5.80337612 0.533363856,5.75917487 C0.533363856,5.71537326 0.550595338,5.67524843 0.58436558,5.63959968 C0.618135822,5.60435058 0.657707618,5.58636634 0.702388246,5.58636634 C0.746982284,5.58636634 0.802486707,5.5998745 0.868901516,5.62697075 C0.935143144,5.654067 1.04355428,5.68611891 1.19474106,5.72296661 C1.34523511,5.7600541 1.52135991,5.77827812 1.72164342,5.77827812" id="Fill-6-Copy-2" transform="translate(1.739914, 4.613459) rotate(-90.000000) translate(-1.739914, -4.613459) "></path>
                    <path d="M3.21435272,2.91184519 C3.23028534,2.94597528 3.2379053,2.98250326 3.2379053,3.02070977 C3.2379053,3.05907614 3.21937496,3.09704286 3.18248746,3.13381063 C3.14542679,3.17089812 3.08671852,3.18912215 3.00636266,3.18912215 C2.92669953,3.18912215 2.86799126,3.1494769 2.83093059,3.06994661 L2.53046202,2.40429009 L0.958760328,2.40429009 L0.658291766,3.06994661 C0.62131768,3.1494769 0.562609414,3.18912215 0.482946279,3.18912215 C0.402503831,3.18912215 0.343882155,3.17089812 0.306908069,3.13381063 C0.269847393,3.09704286 0.251317056,3.05907614 0.251317056,3.02070977 C0.251317056,2.98250326 0.259023598,2.94597528 0.274350092,2.91184519 L1.45310472,0.343056871 C1.50869573,0.226519023 1.59797039,0.168250098 1.72170802,0.168250098 L1.76760092,0.168250098 C1.89073241,0.168250098 1.9806998,0.226519023 2.03611764,0.343056871 L3.21435272,2.91184519 L3.21435272,2.91184519 Z M2.36845145,2.05012054 L1.74456788,0.66309634 L1.1207709,2.05012054 L2.36845145,2.05012054 L2.36845145,2.05012054 Z" id="Fill-7-Copy" transform="translate(1.744611, 1.678686) rotate(-90.000000) translate(-1.744611, -1.678686) "></path>
                </g>
            </g>
        </g>
    </g>
</svg>