<?xml version="1.0" encoding="UTF-8" standalone="no"?>
<svg width="112px" height="100px" viewBox="0 0 112 100" version="1.1" xmlns="http://www.w3.org/2000/svg" xmlns:xlink="http://www.w3.org/1999/xlink" xmlns:sketch="http://www.bohemiancoding.com/sketch/ns">
    <!-- Generator: Sketch 3.3.3 (12072) - http://www.bohemiancoding.com/sketch -->
    <title>work</title>
    <desc>Created with Sketch.</desc>
    <defs></defs>
    <g id="Page-1" stroke="none" stroke-width="1" fill="none" fill-rule="evenodd" sketch:type="MSPage">
        <g id="work" sketch:type="MSArtboardGroup">
            <g id="Group" sketch:type="MSLayerGroup" transform="translate(23.000000, 25.000000)">
                <path d="M42.3987404,0 L22.8139708,0 C19.2087411,0 16.2857143,2.95709477 16.2857143,6.60434343 L16.2857143,39.6260606 C16.2857143,43.2733092 19.2087411,46.230404 22.8139708,46.230404 L42.3987404,46.230404 C46.00397,46.230404 48.9269969,43.2733092 48.9269969,39.6260606 L48.9269969,6.60434343 C48.9269969,2.95709477 46.00397,0 42.3987404,0 L42.3987404,0 Z M22.0467911,5.31080808 L43.1659201,5.31080808 L43.1659201,40.9195959 L22.0467911,40.9195959 L22.0467911,5.31080808 Z" id="Fill-5" fill="#7F3E3D" sketch:type="MSShapeGroup"></path>
                <path d="M49.3206413,26.5990482 L45.850873,26.5990482 C45.4102156,24.8637569 44.2889876,23.404197 42.7923848,22.5291215 L42.7923848,15.0414472 L49.3206413,15.0414472 L49.3206413,26.5990482 M20.149127,26.5990482 L16.6793587,26.5990482 L16.6793587,15.0414472 L23.2076152,15.0414472 L23.2076152,22.5291215 C21.7110124,23.404197 20.5897844,24.8637569 20.149127,26.5990482" id="Fill-9" fill="#AF7A51" sketch:type="MSShapeGroup"></path>
                <path d="M42.7923848,26.5990482 L23.2076152,26.5990482 L23.2076152,22.5291215 C24.1672689,21.9677524 25.2819687,21.6457906 26.4717435,21.6457906 L39.5282565,21.6457906 C40.7180313,21.6457906 41.8327311,21.9677524 42.7923848,22.5291215 L42.7923848,26.5990482" id="Fill-12" fill="#34393F" sketch:type="MSShapeGroup"></path>
                <path d="M45.850873,26.5990482 L42.7923848,26.5990482 L42.7923848,22.5291215 C44.2889876,23.404197 45.4102156,24.8637569 45.850873,26.5990482 M23.2076152,26.5990482 L20.149127,26.5990482 C20.5897844,24.8637569 21.7110124,23.404197 23.2076152,22.5291215 L23.2076152,26.5990482" id="Fill-13" fill="#906747" sketch:type="MSShapeGroup"></path>
                <g id="Group-+-Rectangle-99-+-Rectangle-101-+-Rectangle-101-Copy" transform="translate(0.000000, 12.055556)" sketch:type="MSShapeGroup">
                    <g id="Group">
                        <path d="M58.7543087,49.0982828 L6.52825652,49.0982828 C2.92302686,49.0982828 0,46.141188 0,42.4939394 L0,9.47222222 L0,39.1917676 C0,42.8390163 2.92302686,45.7961111 6.52825652,45.7961111 L58.7543087,45.7961111 C62.3595384,45.7961111 65.2825652,42.8390163 65.2825652,39.1917676 L65.2825652,42.4939394 C65.2825652,46.141188 62.3595384,49.0982828 58.7543087,49.0982828" id="Fill-4" fill-opacity="0.3" fill="#414A55"></path>
                        <path d="M0,39.4051767 C0,43.0524254 2.92302686,46.0095202 6.52825652,46.0095202 L58.7543087,46.0095202 C62.3595384,46.0095202 65.2825652,43.0524254 65.2825652,39.4051767 L65.2825652,14.6388889 L0,14.6388889 L0,39.4051767 Z" id="Fill-6" fill="#7F3E3D"></path>
                        <path d="M65.2825652,9.18767676 C65.2825652,5.54373027 62.3660666,2.58993768 58.7657331,2.58333333 C62.3660666,2.58993768 65.2825652,5.54373027 65.2825652,9.18767676 M0,9.18767676 C0,5.5404281 2.92302686,2.58333333 6.52825652,2.58333333 C2.92302686,2.58333333 0,5.5404281 0,9.18767676" id="Fill-7" fill="#414A55"></path>
                        <path d="M65.2825652,14.1409343 L48.9619239,14.1409343 L48.9619239,2.58333333 L58.7543087,2.58333333 L58.7657331,2.58333333 C62.3660666,2.58993768 65.2825652,5.54373027 65.2825652,9.18767676 L65.2825652,14.1409343 M16.3206413,14.1409343 L0,14.1409343 L0,9.18767676 C0,5.5404281 2.92302686,2.58333333 6.52825652,2.58333333 L16.3206413,2.58333333 L16.3206413,14.1409343 M42.4336674,10.0710077 C41.4740137,9.5096385 40.3593139,9.18767676 39.1695391,9.18767676 L26.1130261,9.18767676 C24.9232513,9.18767676 23.8085515,9.5096385 22.8488978,10.0710077 L22.8488978,2.58333333 L42.4336674,2.58333333 L42.4336674,10.0710077" id="Fill-8" fill="#3A4048"></path>
                        <path d="M65.2825652,6.60434343 C65.2825652,2.95709477 62.3595384,0 58.7543087,0 L6.52825652,0 C2.92302686,0 0,2.95709477 0,6.60434343 L0,14.8597727 L65.2825652,14.8597727 L65.2825652,6.60434343" id="Fill-16" fill="#7F3E3D"></path>
                        <rect id="Rectangle-100" fill="#AE7A51" x="0" y="13.7777778" width="65.2800031" height="3.44444444"></rect>
                    </g>
                    <rect id="Rectangle-99" fill="#F0CB84" x="24.1012349" y="9.09411322" width="17.7975301" height="13.6728847" rx="1.71428571"></rect>
                    <g id="Rectangle-101-+-Rectangle-101-Copy" transform="translate(29.466221, 12.380416)" fill="#AE7A51">
                        <rect id="Rectangle-101" x="0" y="0" width="7.06755872" height="4.05730223" rx="0.857142857"></rect>
                        <rect id="Rectangle-101-Copy" x="2.01930249" y="3.04297667" width="3.02895374" height="4.05730223" rx="0.857142857"></rect>
                    </g>
                </g>
            </g>
        </g>
    </g>
</svg>