<?xml version="1.0" encoding="UTF-8" standalone="no"?>
<svg width="945px" height="828px" viewBox="0 0 945 828" version="1.1" xmlns="http://www.w3.org/2000/svg" xmlns:xlink="http://www.w3.org/1999/xlink">
    <!-- Generator: sketchtool 40.3 (33839) - http://www.bohemiancoding.com/sketch -->
    <title>723170BF-2E61-4157-8ECD-742018A74959</title>
    <desc>Created with sketchtool.</desc>
    <defs>
        <path d="M0.431,3.5 C0.431,5.433 1.998,7 3.931,7 C5.863,7 7.43,5.433 7.43,3.5 C7.43,1.567 5.863,0 3.931,0 C1.998,0 0.431,1.567 0.431,3.5 L0.431,3.5 Z" id="path-1"></path>
        <path d="M0.431,3.5 C0.431,5.433 1.998,7 3.931,7 C5.864,7 7.431,5.433 7.431,3.5 C7.431,1.567 5.864,0 3.931,0 C1.998,0 0.431,1.567 0.431,3.5 L0.431,3.5 Z" id="path-3"></path>
        <path d="M0.431,3.5 C0.431,5.433 1.998,7 3.931,7 C5.864,7 7.431,5.433 7.431,3.5 C7.431,1.567 5.864,0 3.931,0 C1.998,0 0.431,1.567 0.431,3.5 L0.431,3.5 Z" id="path-5"></path>
        <path d="M0.43,3.5 C0.43,5.433 1.997,7 3.931,7 C5.864,7 7.431,5.433 7.431,3.5 C7.431,1.567 5.864,0 3.931,0 C1.997,0 0.43,1.567 0.43,3.5 L0.43,3.5 Z" id="path-7"></path>
        <path d="M0.43,3.5 C0.43,5.433 1.997,7 3.931,7 C5.864,7 7.431,5.433 7.431,3.5 C7.431,1.567 5.864,0 3.931,0 C1.997,0 0.43,1.567 0.43,3.5 L0.43,3.5 Z" id="path-9"></path>
        <path d="M0.43,3.5 C0.43,5.433 1.998,7 3.93,7 C5.864,7 7.43,5.433 7.43,3.5 C7.43,1.567 5.864,0 3.93,0 C1.998,0 0.43,1.567 0.43,3.5 L0.43,3.5 Z" id="path-11"></path>
        <polygon id="path-13" points="82.969 82.1641 82.969 9.99999997e-05 0.8052 9.99999999e-05 0.8052 82.1641"></polygon>
    </defs>
    <g id="Page-1" stroke="none" stroke-width="1" fill="none" fill-rule="evenodd">
        <g id="Desktop-HD" transform="translate(-219.000000, -1236.000000)">
            <g id="why-study" transform="translate(219.000000, 1071.000000)">
                <g id="cells-ani" transform="translate(0.000000, 164.000000)">
                    <g id="Group-127" transform="translate(0.000000, 0.331000)">
                        <g id="Group-9" transform="translate(221.000000, 123.000000)">
                            <path d="M0.8135,19.5 L28.1925,19.5" id="Stroke-1" stroke="#FFFFFF" stroke-width="3"></path>
                            <g id="Group-5" transform="translate(5.000000, 0.000000)">
                                <mask id="mask-2" fill="white">
                                    <use xlink:href="#path-1"></use>
                                </mask>
                                <g id="Clip-4"></g>
                                <polygon id="Fill-3" fill="#FFFFFF" mask="url(#mask-2)" points="-4.569 12 12.431 12 12.431 -5 -4.569 -5"></polygon>
                            </g>
                            <g id="Group-8" transform="translate(16.000000, 0.000000)">
                                <mask id="mask-4" fill="white">
                                    <use xlink:href="#path-3"></use>
                                </mask>
                                <g id="Clip-7"></g>
                                <polygon id="Fill-6" fill="#FFFFFF" mask="url(#mask-4)" points="-4.569 12 12.431 12 12.431 -5 -4.569 -5"></polygon>
                            </g>
                        </g>
                        <g id="Group-18" transform="translate(269.000000, 162.000000)">
                            <path d="M0.8135,19.5 L28.1925,19.5" id="Stroke-10" stroke="#FFFFFF" stroke-width="3"></path>
                            <g id="Group-14" transform="translate(5.000000, 0.000000)">
                                <mask id="mask-6" fill="white">
                                    <use xlink:href="#path-5"></use>
                                </mask>
                                <g id="Clip-13"></g>
                                <polygon id="Fill-12" fill="#FFFFFF" mask="url(#mask-6)" points="-4.569 12 12.431 12 12.431 -5 -4.569 -5"></polygon>
                            </g>
                            <g id="Group-17" transform="translate(16.000000, 0.000000)">
                                <mask id="mask-8" fill="white">
                                    <use xlink:href="#path-7"></use>
                                </mask>
                                <g id="Clip-16"></g>
                                <polygon id="Fill-15" fill="#FFFFFF" mask="url(#mask-8)" points="-4.569 12 12.431 12 12.431 -5 -4.569 -5"></polygon>
                            </g>
                        </g>
                        <g id="Group-27" transform="translate(325.000000, 138.000000)">
                            <path d="M0.8135,19.5 L28.1925,19.5" id="Stroke-19" stroke="#FFFFFF" stroke-width="3"></path>
                            <g id="Group-23" transform="translate(5.000000, 0.000000)">
                                <mask id="mask-10" fill="white">
                                    <use xlink:href="#path-9"></use>
                                </mask>
                                <g id="Clip-22"></g>
                                <polygon id="Fill-21" fill="#FFFFFF" mask="url(#mask-10)" points="-4.569 12 12.431 12 12.431 -5 -4.569 -5"></polygon>
                            </g>
                            <g id="Group-26" transform="translate(16.000000, 0.000000)">
                                <mask id="mask-12" fill="white">
                                    <use xlink:href="#path-11"></use>
                                </mask>
                                <g id="Clip-25"></g>
                                <polygon id="Fill-24" fill="#FFFFFF" mask="url(#mask-12)" points="-4.569 12 12.431 12 12.431 -5 -4.569 -5"></polygon>
                            </g>
                        </g>
                        <path d="M161.6205,115.3007 C161.6205,131.8587 148.1975,145.2817 131.6395,145.2817 C115.0815,145.2817 101.6585,131.8587 101.6585,115.3007 C101.6585,98.7427 115.0815,85.3197 131.6395,85.3197 C148.1975,85.3197 161.6205,98.7427 161.6205,115.3007" id="Fill-28" fill="#46C0EF"></path>
                        <path d="M131.6393,165.1152 C131.6393,179.5792 119.9133,191.3052 105.4493,191.3052 C90.9853,191.3052 79.2593,179.5792 79.2593,165.1152 C79.2593,150.6512 90.9853,138.9252 105.4493,138.9252 C119.9133,138.9252 131.6393,150.6512 131.6393,165.1152" id="Fill-30" fill="#2E368E"></path>
                        <path d="M208.155,155.8089 C208.155,172.0769 194.967,185.2659 178.698,185.2659 C162.43,185.2659 149.242,172.0769 149.242,155.8089 C149.242,139.5409 162.43,126.3519 178.698,126.3519 C194.967,126.3519 208.155,139.5409 208.155,155.8089" id="Fill-32" fill="#EB078B"></path>
                        <path d="M210.2657,103.8841 C210.2657,117.4141 199.2977,128.3821 185.7677,128.3821 C172.2387,128.3821 161.2707,117.4141 161.2707,103.8841 C161.2707,90.3541 172.2387,79.3861 185.7677,79.3861 C199.2977,79.3861 210.2657,90.3541 210.2657,103.8841" id="Fill-34" fill="#EB078B"></path>
                        <path d="M264.5496,132.0821 C264.5496,148.4201 251.3056,161.6641 234.9676,161.6641 C218.6296,161.6641 205.3856,148.4201 205.3856,132.0821 C205.3856,115.7441 218.6296,102.5001 234.9676,102.5001 C251.3056,102.5001 264.5496,115.7441 264.5496,132.0821" id="Fill-36" fill="#EB078B"></path>
                        <path d="M313.4307,172.8957 C313.4307,189.5567 299.9237,203.0637 283.2627,203.0637 C266.6017,203.0637 253.0947,189.5567 253.0947,172.8957 C253.0947,156.2347 266.6017,142.7277 283.2627,142.7277 C299.9237,142.7277 313.4307,156.2347 313.4307,172.8957" id="Fill-38" fill="#EB078B"></path>
                        <path d="M368.3727,149.9561 C368.3727,166.2101 355.1967,179.3861 338.9427,179.3861 C322.6887,179.3861 309.5127,166.2101 309.5127,149.9561 C309.5127,133.7021 322.6887,120.5261 338.9427,120.5261 C355.1967,120.5261 368.3727,133.7021 368.3727,149.9561" id="Fill-40" fill="#EB078B"></path>
                        <path d="M312.9166,118.3461 C312.9166,130.8571 302.7746,141.0001 290.2626,141.0001 C277.7516,141.0001 267.6086,130.8571 267.6086,118.3461 C267.6086,105.8351 277.7516,95.6921 290.2626,95.6921 C302.7746,95.6921 312.9166,105.8351 312.9166,118.3461" id="Fill-42" fill="#EB078B"></path>
                        <path d="M311.1891,100.6921 C311.1891,109.6991 318.4901,117.0001 327.4971,117.0001 C336.5041,117.0001 343.8051,109.6991 343.8051,100.6921 C343.8051,91.6851 336.5041,84.3841 327.4971,84.3841 C318.4901,84.3841 311.1891,91.6851 311.1891,100.6921" id="Fill-44" fill="#46C0EF"></path>
                        <path d="M347.2335,105.6327 C347.2335,118.6387 357.7765,129.1817 370.7825,129.1817 C383.7885,129.1817 394.3315,118.6387 394.3315,105.6327 C394.3315,92.6267 383.7885,82.0837 370.7825,82.0837 C357.7765,82.0837 347.2335,92.6267 347.2335,105.6327" id="Fill-46" fill="#EB078B"></path>
                        <path d="M202.0012,75.818 C202.0012,61.358 213.7232,49.636 228.1832,49.636 C242.6432,49.636 254.3652,61.358 254.3652,75.818 C254.3652,90.278 242.6432,102 228.1832,102 C213.7232,102 202.0012,90.278 202.0012,75.818" id="Fill-48" fill="#EB078B"></path>
                        <path d="M169.6847,197.423 C169.6847,210.851 158.7997,221.736 145.3717,221.736 C131.9437,221.736 121.0577,210.851 121.0577,197.423 C121.0577,183.995 131.9437,173.11 145.3717,173.11 C158.7997,173.11 169.6847,183.995 169.6847,197.423" id="Fill-50" fill="#EB078B"></path>
                        <path d="M111.3757,212 C111.3757,223.568 101.9987,232.945 90.4307,232.945 C78.8627,232.945 69.4857,223.568 69.4857,212 C69.4857,200.432 78.8627,191.055 90.4307,191.055 C101.9987,191.055 111.3757,200.432 111.3757,212" id="Fill-52" fill="#46C0EF"></path>
                        <path d="M166.0591,247.5 C166.0591,262.216 154.1291,274.146 139.4131,274.146 C124.6971,274.146 112.7671,262.216 112.7671,247.5 C112.7671,232.784 124.6971,220.854 139.4131,220.854 C154.1291,220.854 166.0591,232.784 166.0591,247.5" id="Fill-54" fill="#EB078B"></path>
                        <path d="M210.1302,203.1203 C210.1302,213.7433 201.5182,222.3553 190.8952,222.3553 C180.2732,222.3553 171.6612,213.7433 171.6612,203.1203 C171.6612,192.4973 180.2732,183.8853 190.8952,183.8853 C201.5182,183.8853 210.1302,192.4973 210.1302,203.1203" id="Fill-56" fill="#EB078B"></path>
                        <path d="M238.157,255.5231 C238.157,275.4181 222.029,291.5471 202.133,291.5471 C182.238,291.5471 166.109,275.4181 166.109,255.5231 C166.109,235.6281 182.238,219.4991 202.133,219.4991 C222.029,219.4991 238.157,235.6281 238.157,255.5231" id="Fill-58" fill="#2E368E"></path>
                        <path d="M115.0015,265.4803 C115.0015,283.4493 100.4345,298.0153 82.4665,298.0153 C64.4975,298.0153 49.9305,283.4493 49.9305,265.4803 C49.9305,247.5113 64.4975,232.9453 82.4665,232.9453 C100.4345,232.9453 115.0015,247.5113 115.0015,265.4803" id="Fill-60" fill="#EB078B"></path>
                        <path d="M185.4707,304.4138 C185.4707,322.0958 171.1367,336.4308 153.4537,336.4308 C135.7717,336.4308 121.4367,322.0958 121.4367,304.4138 C121.4367,286.7318 135.7717,272.3968 153.4537,272.3968 C171.1367,272.3968 185.4707,286.7318 185.4707,304.4138" id="Fill-62" fill="#EB078B"></path>
                        <path d="M224.5456,307.9377 C224.5456,316.9897 217.2076,324.3287 208.1546,324.3287 C199.1026,324.3287 191.7646,316.9897 191.7646,307.9377 C191.7646,298.8857 199.1026,291.5467 208.1546,291.5467 C217.2076,291.5467 224.5456,298.8857 224.5456,307.9377" id="Fill-64" fill="#46C0EF"></path>
                        <path d="M216.8903,344.5625 C216.8903,357.2625 206.5953,367.5575 193.8953,367.5575 C181.1963,367.5575 170.9013,357.2625 170.9013,344.5625 C170.9013,331.8625 181.1963,321.5675 193.8953,321.5675 C206.5953,321.5675 216.8903,331.8625 216.8903,344.5625" id="Fill-66" fill="#EB078B"></path>
                        <path d="M252.4307,186.7167 C252.4307,199.0927 242.3977,209.1257 230.0217,209.1257 C217.6457,209.1257 207.6127,199.0927 207.6127,186.7167 C207.6127,174.3407 217.6457,164.3077 230.0217,164.3077 C242.3977,164.3077 252.4307,174.3407 252.4307,186.7167" id="Fill-68" fill="#2E368E"></path>
                        <path d="M265.5969,223.8472 C265.5969,234.1352 257.2569,242.4752 246.9689,242.4752 C236.6819,242.4752 228.3419,234.1352 228.3419,223.8472 C228.3419,213.5592 236.6819,205.2192 246.9689,205.2192 C257.2569,205.2192 265.5969,213.5592 265.5969,223.8472" id="Fill-70" fill="#EB078B"></path>
                        <path d="M267.6088,225.8482 C267.6088,213.4032 277.6978,203.3152 290.1418,203.3152 C302.5868,203.3152 312.6758,213.4032 312.6758,225.8482 C312.6758,238.2932 302.5868,248.3812 290.1418,248.3812 C277.6978,248.3812 267.6088,238.2932 267.6088,225.8482" id="Fill-72" fill="#2E368E"></path>
                        <path d="M293.106,270.0298 C293.106,285.4748 280.586,297.9948 265.141,297.9948 C249.696,297.9948 237.176,285.4748 237.176,270.0298 C237.176,254.5848 249.696,242.0648 265.141,242.0648 C280.586,242.0648 293.106,254.5848 293.106,270.0298" id="Fill-74" fill="#EB078B"></path>
                        <path d="M265.0013,314.0814 C265.0013,325.3044 255.9033,334.4034 244.6793,334.4034 C233.4563,334.4034 224.3583,325.3044 224.3583,314.0814 C224.3583,302.8584 233.4563,293.7594 244.6793,293.7594 C255.9033,293.7594 265.0013,302.8584 265.0013,314.0814" id="Fill-76" fill="#EB078B"></path>
                        <path d="M353.1605,202 C353.1605,214.826 342.7635,225.223 329.9375,225.223 C317.1115,225.223 306.7145,214.826 306.7145,202 C306.7145,189.174 317.1115,178.777 329.9375,178.777 C342.7635,178.777 353.1605,189.174 353.1605,202" id="Fill-78" fill="#EB078B"></path>
                        <path d="M409.8757,191.11 C409.8757,206.984 397.0077,219.852 381.1337,219.852 C365.2597,219.852 352.3907,206.984 352.3907,191.11 C352.3907,175.236 365.2597,162.368 381.1337,162.368 C397.0077,162.368 409.8757,175.236 409.8757,191.11" id="Fill-80" fill="#EB078B"></path>
                        <path d="M428.4692,138.9686 C428.4692,152.0396 417.8732,162.6366 404.8012,162.6366 C391.7302,162.6366 381.1332,152.0396 381.1332,138.9686 C381.1332,125.8976 391.7302,115.3006 404.8012,115.3006 C417.8732,115.3006 428.4692,125.8976 428.4692,138.9686" id="Fill-82" fill="#EB078B"></path>
                        <path d="M366.4094,254.7012 C366.4094,271.1012 353.1144,284.3952 336.7154,284.3952 C320.3154,284.3952 307.0204,271.1012 307.0204,254.7012 C307.0204,238.3012 320.3154,225.0072 336.7154,225.0072 C353.1144,225.0072 366.4094,238.3012 366.4094,254.7012" id="Fill-84" fill="#EB078B"></path>
                        <path d="M405.7971,239.6627 C405.7971,250.7987 396.7701,259.8257 385.6341,259.8257 C374.4981,259.8257 365.4701,250.7987 365.4701,239.6627 C365.4701,228.5267 374.4981,219.4997 385.6341,219.4997 C396.7701,219.4997 405.7971,228.5267 405.7971,239.6627" id="Fill-86" fill="#2E368E"></path>
                        <path d="M409.8757,287.0796 C409.8757,301.9926 397.7867,314.0816 382.8737,314.0816 C367.9617,314.0816 355.8717,301.9926 355.8717,287.0796 C355.8717,272.1666 367.9617,260.0776 382.8737,260.0776 C397.7867,260.0776 409.8757,272.1666 409.8757,287.0796" id="Fill-88" fill="#EB078B"></path>
                        <path d="M458.1383,297.995 C458.1383,310.974 447.6173,321.495 434.6383,321.495 C421.6593,321.495 411.1383,310.974 411.1383,297.995 C411.1383,285.016 421.6593,274.495 434.6383,274.495 C447.6173,274.495 458.1383,285.016 458.1383,297.995" id="Fill-90" fill="#46C0EF"></path>
                        <path d="M333.7058,315.2776 C333.7058,332.1876 319.9978,345.8956 303.0878,345.8956 C286.1778,345.8956 272.4688,332.1876 272.4688,315.2776 C272.4688,298.3676 286.1778,284.6596 303.0878,284.6596 C319.9978,284.6596 333.7058,298.3676 333.7058,315.2776" id="Fill-92" fill="#EB078B"></path>
                        <path d="M385.6337,336.4306 C385.6337,351.3076 373.5737,363.3676 358.6967,363.3676 C343.8197,363.3676 331.7597,351.3076 331.7597,336.4306 C331.7597,321.5536 343.8197,309.4936 358.6967,309.4936 C373.5737,309.4936 385.6337,321.5536 385.6337,336.4306" id="Fill-94" fill="#EB078B"></path>
                        <path d="M442.2848,428 C471.5558,428 495.2848,404.271 495.2848,375 C495.2848,345.729 471.5558,322 442.2848,322 C413.0138,322 389.2848,345.729 389.2848,375 C389.2848,404.271 413.0138,428 442.2848,428" id="Fill-96" fill="#EB078B"></path>
                        <path d="M111.595,29.2513 C111.595,45.0363 98.798,57.8333 83.013,57.8333 C67.227,57.8333 54.431,45.0363 54.431,29.2513 C54.431,13.4663 67.227,0.6693 83.013,0.6693 C98.798,0.6693 111.595,13.4663 111.595,29.2513" id="Fill-98" fill="#EB078B"></path>
                        <path d="M111.595,82.0838 C111.595,95.3838 100.813,106.1658 87.513,106.1658 C74.213,106.1658 63.431,95.3838 63.431,82.0838 C63.431,68.7838 74.213,58.0018 87.513,58.0018 C100.813,58.0018 111.595,68.7838 111.595,82.0838" id="Fill-100" fill="#EB078B"></path>
                        <path d="M63.4673,81.5152 C63.4673,90.8912 55.8663,98.4922 46.4903,98.4922 C37.1143,98.4922 29.5133,90.8912 29.5133,81.5152 C29.5133,72.1392 37.1143,64.5382 46.4903,64.5382 C55.8663,64.5382 63.4673,72.1392 63.4673,81.5152" id="Fill-102" fill="#EB078B"></path>
                        <path d="M90.5129,131.2151 C90.5129,147.7301 77.1249,161.1181 60.6099,161.1181 C44.0949,161.1181 30.7069,147.7301 30.7069,131.2151 C30.7069,114.7001 44.0949,101.3121 60.6099,101.3121 C77.1249,101.3121 90.5129,114.7001 90.5129,131.2151" id="Fill-104" fill="#EB078B"></path>
                        <path d="M74.4307,187.989 C74.4307,201.329 63.6167,212.143 50.2767,212.143 C36.9367,212.143 26.1217,201.329 26.1217,187.989 C26.1217,174.649 36.9367,163.835 50.2767,163.835 C63.6167,163.835 74.4307,174.649 74.4307,187.989" id="Fill-106" fill="#EB078B"></path>
                        <path d="M415.9692,533.6488 C415.9692,612.9228 351.7052,677.1878 272.4302,677.1878 C193.1562,677.1878 128.8912,612.9228 128.8912,533.6488 C128.8912,454.3748 193.1562,390.1098 272.4302,390.1098 C351.7052,390.1098 415.9692,454.3748 415.9692,533.6488" id="Fill-108" fill="#46C0EF"></path>
                        <path d="M191.7643,465.0679 C191.7643,505.0849 159.3233,537.5259 119.3063,537.5259 C79.2893,537.5259 46.8483,505.0849 46.8483,465.0679 C46.8483,425.0509 79.2893,392.6099 119.3063,392.6099 C159.3233,392.6099 191.7643,425.0509 191.7643,465.0679" id="Fill-110" fill="#077DA1"></path>
                        <path d="M73.9692,537.7896 C73.9692,558.2156 57.4102,574.7746 36.9842,574.7746 C16.5582,574.7746 0.0002,558.2156 0.0002,537.7896 C0.0002,517.3636 16.5582,500.8046 36.9842,500.8046 C57.4102,500.8046 73.9692,517.3636 73.9692,537.7896" id="Fill-112" fill="#077DA1"></path>
                        <path d="M253.095,716.3365 C253.095,759.4795 218.121,794.4535 174.978,794.4535 C131.836,794.4535 96.862,759.4795 96.862,716.3365 C96.862,673.1935 131.836,638.2195 174.978,638.2195 C218.121,638.2195 253.095,673.1935 253.095,716.3365" id="Fill-114" fill="#077DA1"></path>
                        <path d="M504.9692,623.72 C504.9692,665.97 470.7192,700.22 428.4692,700.22 C386.2192,700.22 351.9692,665.97 351.9692,623.72 C351.9692,581.47 386.2192,547.22 428.4692,547.22 C470.7192,547.22 504.9692,581.47 504.9692,623.72" id="Fill-116" fill="#2E368E"></path>
                        <path d="M399.9692,409.9484 C399.9692,451.9844 365.8922,486.0614 323.8562,486.0614 C281.8202,486.0614 247.7442,451.9844 247.7442,409.9484 C247.7442,367.9124 281.8202,333.8354 323.8562,333.8354 C365.8922,333.8354 399.9692,367.9124 399.9692,409.9484" id="Fill-118" fill="#2E368E"></path>
                        <path d="M590.9692,691 C654.4822,691 705.9692,639.513 705.9692,576 C705.9692,512.487 654.4822,461 590.9692,461 C527.4562,461 475.9692,512.487 475.9692,576 C475.9692,639.513 527.4562,691 590.9692,691" id="Fill-120" fill="#EB078B"></path>
                        <path d="M860.9692,705 C860.9692,772.931 805.9002,828 737.9692,828 C670.0382,828 614.9692,772.931 614.9692,705 C614.9692,637.069 670.0382,582 737.9692,582 C805.9002,582 860.9692,637.069 860.9692,705" id="Fill-122" fill="#077DA1"></path>
                        <g id="Group-126" transform="translate(862.000000, 686.000000)">
                            <mask id="mask-14" fill="white">
                                <use xlink:href="#path-13"></use>
                            </mask>
                            <g id="Clip-125"></g>
                            <path d="M82.9692,41.0821 C82.9692,63.7711 64.5762,82.1641 41.8872,82.1641 C19.1982,82.1641 0.8052,63.7711 0.8052,41.0821 C0.8052,18.3931 19.1982,0.0001 41.8872,0.0001 C64.5762,0.0001 82.9692,18.3931 82.9692,41.0821" id="Fill-124" fill="#077DA1" mask="url(#mask-14)"></path>
                        </g>
                    </g>
                    <g id="Group-152" transform="translate(205.000000, 102.331000)">
                        <path d="M59.5128,30.0821 C59.5128,46.4201 46.2688,59.6641 29.9308,59.6641 C13.5928,59.6641 0.3488,46.4201 0.3488,30.0821 C0.3488,13.7441 13.5928,0.5001 29.9308,0.5001 C46.2688,0.5001 59.5128,13.7441 59.5128,30.0821" id="Fill-128" fill="#82265B"></path>
                        <path d="M38.9301,39.165 L20.9311,39.165 C20.3791,39.165 19.9311,38.718 19.9311,38.165 C19.9311,37.612 20.3791,37.165 20.9311,37.165 L38.9301,37.165 C39.4821,37.165 39.9301,37.612 39.9301,38.165 C39.9301,38.718 39.4821,39.165 38.9301,39.165" id="Fill-130" fill="#FFFFFF"></path>
                        <path d="M23.1833,19.9431 C23.1833,21.1871 22.1753,22.1951 20.9313,22.1951 C19.6883,22.1951 18.6803,21.1871 18.6803,19.9431 C18.6803,18.6991 19.6883,17.6911 20.9313,17.6911 C22.1753,17.6911 23.1833,18.6991 23.1833,19.9431" id="Fill-132" fill="#FFFFFF"></path>
                        <path d="M41.1815,19.9431 C41.1815,21.1871 40.1735,22.1951 38.9295,22.1951 C37.6865,22.1951 36.6785,21.1871 36.6785,19.9431 C36.6785,18.6991 37.6865,17.6911 38.9295,17.6911 C40.1735,17.6911 41.1815,18.6991 41.1815,19.9431" id="Fill-134" fill="#FFFFFF"></path>
                        <path d="M108.4307,71.1097 C108.4307,87.7707 94.9237,101.2777 78.2627,101.2777 C61.6017,101.2777 48.0947,87.7707 48.0947,71.1097 C48.0947,54.4487 61.6017,40.9417 78.2627,40.9417 C94.9237,40.9417 108.4307,54.4487 108.4307,71.1097" id="Fill-136" fill="#82265B"></path>
                        <path d="M86.9301,79.7401 L68.9311,79.7401 C68.3791,79.7401 67.9311,79.2931 67.9311,78.7401 C67.9311,78.1871 68.3791,77.7401 68.9311,77.7401 L86.9301,77.7401 C87.4821,77.7401 87.9301,78.1871 87.9301,78.7401 C87.9301,79.2931 87.4821,79.7401 86.9301,79.7401" id="Fill-138" fill="#FFFFFF"></path>
                        <path d="M71.1833,60.5182 C71.1833,61.7622 70.1753,62.7702 68.9313,62.7702 C67.6883,62.7702 66.6803,61.7622 66.6803,60.5182 C66.6803,59.2742 67.6883,58.2662 68.9313,58.2662 C70.1753,58.2662 71.1833,59.2742 71.1833,60.5182" id="Fill-140" fill="#FFFFFF"></path>
                        <path d="M89.1815,60.5182 C89.1815,61.7622 88.1735,62.7702 86.9295,62.7702 C85.6865,62.7702 84.6785,61.7622 84.6785,60.5182 C84.6785,59.2742 85.6865,58.2662 86.9295,58.2662 C88.1735,58.2662 89.1815,59.2742 89.1815,60.5182" id="Fill-142" fill="#FFFFFF"></path>
                        <path d="M163.3667,47.9561 C163.3667,64.2101 150.1907,77.3861 133.9367,77.3861 C117.6827,77.3861 104.5067,64.2101 104.5067,47.9561 C104.5067,31.7021 117.6827,18.5261 133.9367,18.5261 C150.1907,18.5261 163.3667,31.7021 163.3667,47.9561" id="Fill-144" fill="#82265B"></path>
                        <path d="M142.9361,57.3665 L124.9371,57.3665 C124.3851,57.3665 123.9371,56.9195 123.9371,56.3665 C123.9371,55.8135 124.3851,55.3665 124.9371,55.3665 L142.9361,55.3665 C143.4881,55.3665 143.9361,55.8135 143.9361,56.3665 C143.9361,56.9195 143.4881,57.3665 142.9361,57.3665" id="Fill-146" fill="#FFFFFF"></path>
                        <path d="M127.1892,38.1447 C127.1892,39.3887 126.1812,40.3967 124.9372,40.3967 C123.6942,40.3967 122.6862,39.3887 122.6862,38.1447 C122.6862,36.9007 123.6942,35.8927 124.9372,35.8927 C126.1812,35.8927 127.1892,36.9007 127.1892,38.1447" id="Fill-148" fill="#FFFFFF"></path>
                        <path d="M145.1874,38.1447 C145.1874,39.3887 144.1794,40.3967 142.9354,40.3967 C141.6924,40.3967 140.6844,39.3887 140.6844,38.1447 C140.6844,36.9007 141.6924,35.8927 142.9354,35.8927 C144.1794,35.8927 145.1874,36.9007 145.1874,38.1447" id="Fill-150" fill="#FFFFFF"></path>
                    </g>
                    <path d="M280.0247,211.1715 C263.8177,211.1715 249.8637,209.4585 238.4337,206.0575 C206.9277,196.6855 173.2617,170.6405 173.2617,125.6505 C173.2617,104.9615 179.1747,67.5325 218.7777,49.3165 C238.9977,40.0165 258.3157,40.0835 278.7747,40.1405 C280.4257,40.1465 282.0817,40.1505 283.7427,40.1505 C285.3997,40.1505 286.7427,41.4935 286.7427,43.1505 C286.7427,44.8085 285.3997,46.1505 283.7427,46.1505 C282.0747,46.1505 280.4137,46.1465 278.7557,46.1405 C258.9787,46.0835 240.3027,46.0205 221.2847,54.7675 C184.7217,71.5865 179.2617,106.3975 179.2617,125.6505 C179.2617,167.3415 210.7117,191.5515 240.1447,200.3075 C253.2707,204.2115 270.0347,205.7755 289.9757,204.9625 C312.8817,204.0255 330.1087,202.8035 343.2097,195.5595 C356.5447,188.1865 365.8117,174.5545 374.1957,149.9795 C380.1637,132.4895 377.1647,116.0815 364.1697,95.1135 C350.3317,72.7895 332.2067,60.9515 308.7577,58.9245 C285.6807,56.9315 260.0527,64.8535 240.3077,71.9815 C238.7517,72.5435 237.0297,71.7345 236.4677,70.1775 C235.9047,68.6185 236.7117,66.8995 238.2707,66.3365 C258.5937,59.0005 285.0307,50.8545 309.2747,52.9465 C334.7407,55.1495 354.3647,67.9075 369.2687,91.9535 C383.3127,114.6105 386.4847,132.5445 379.8747,151.9165 C361.5277,205.6905 337.8287,209.0115 290.2207,210.9565 C286.7317,211.1005 283.3297,211.1715 280.0247,211.1715" id="Fill-153" fill="#40C2F3"></path>
                </g>
            </g>
        </g>
    </g>
</svg>