<?xml version="1.0" encoding="UTF-8" standalone="no"?>
<svg
   xmlns:dc="http://purl.org/dc/elements/1.1/"
   xmlns:cc="http://creativecommons.org/ns#"
   xmlns:rdf="http://www.w3.org/1999/02/22-rdf-syntax-ns#"
   xmlns:svg="http://www.w3.org/2000/svg"
   xmlns="http://www.w3.org/2000/svg"
   xmlns:xlink="http://www.w3.org/1999/xlink"
   xmlns:sodipodi="http://sodipodi.sourceforge.net/DTD/sodipodi-0.dtd"
   xmlns:inkscape="http://www.inkscape.org/namespaces/inkscape"
   width="945px"
   height="828px"
   viewBox="0 0 945 828"
   version="1.1"
   id="svg2"
   inkscape:version="0.91 r13725"
   sodipodi:docname="cells-ani.svg">
  <metadata
     id="metadata134">
    <rdf:RDF>
      <cc:Work
         rdf:about="">
        <dc:format>image/svg+xml</dc:format>
        <dc:type
           rdf:resource="http://purl.org/dc/dcmitype/StillImage" />
      </cc:Work>
    </rdf:RDF>
  </metadata>
  <sodipodi:namedview
     pagecolor="#ffffff"
     bordercolor="#666666"
     borderopacity="1"
     objecttolerance="10"
     gridtolerance="10"
     guidetolerance="10"
     inkscape:pageopacity="0"
     inkscape:pageshadow="2"
     inkscape:window-width="1855"
     inkscape:window-height="1056"
     id="namedview132"
     showgrid="false"
     inkscape:zoom="1.5563832"
     inkscape:cx="737.3469"
     inkscape:cy="237.91762"
     inkscape:window-x="1985"
     inkscape:window-y="24"
     inkscape:window-maximized="1"
     inkscape:current-layer="svg2" />
  <!-- Generator: sketchtool 40.3 (33839) - http://www.bohemiancoding.com/sketch -->
  <title
     id="title4">723170BF-2E61-4157-8ECD-742018A74959</title>
  <desc
     id="desc6">Created with sketchtool.</desc>
  <circle
     r="24.736841"
     cy="81.911064"
     cx="87.51059"
     id="cell2"
     style="opacity:1;fill:#eb078b;fill-opacity:1;stroke:none;stroke-width:3;stroke-miterlimit:4;stroke-dasharray:none;stroke-opacity:1" />
  <defs
     id="defs8">
    <path
       d="M0.431,3.5 C0.431,5.433 1.998,7 3.931,7 C5.863,7 7.43,5.433 7.43,3.5 C7.43,1.567 5.863,0 3.931,0 C1.998,0 0.431,1.567 0.431,3.5 L0.431,3.5 Z"
       id="path-1" />
    <path
       d="M0.431,3.5 C0.431,5.433 1.998,7 3.931,7 C5.864,7 7.431,5.433 7.431,3.5 C7.431,1.567 5.864,0 3.931,0 C1.998,0 0.431,1.567 0.431,3.5 L0.431,3.5 Z"
       id="path-3" />
    <path
       d="M0.431,3.5 C0.431,5.433 1.998,7 3.931,7 C5.864,7 7.431,5.433 7.431,3.5 C7.431,1.567 5.864,0 3.931,0 C1.998,0 0.431,1.567 0.431,3.5 L0.431,3.5 Z"
       id="path-5" />
    <path
       d="M0.43,3.5 C0.43,5.433 1.997,7 3.931,7 C5.864,7 7.431,5.433 7.431,3.5 C7.431,1.567 5.864,0 3.931,0 C1.997,0 0.43,1.567 0.43,3.5 L0.43,3.5 Z"
       id="path-7" />
    <path
       d="M0.43,3.5 C0.43,5.433 1.997,7 3.931,7 C5.864,7 7.431,5.433 7.431,3.5 C7.431,1.567 5.864,0 3.931,0 C1.997,0 0.43,1.567 0.43,3.5 L0.43,3.5 Z"
       id="path-9" />
    <path
       d="M0.43,3.5 C0.43,5.433 1.998,7 3.93,7 C5.864,7 7.43,5.433 7.43,3.5 C7.43,1.567 5.864,0 3.93,0 C1.998,0 0.43,1.567 0.43,3.5 L0.43,3.5 Z"
       id="path-11" />
    <polygon
       id="path-13"
       points="82.969 82.1641 82.969 9.99999997e-05 0.8052 9.99999999e-05 0.8052 82.1641" />
  </defs>
  <g
     style="fill:none;fill-rule:evenodd;stroke:none;stroke-width:1"
     transform="translate(221,122.331)"
     id="Group-9">
    <path
       style="stroke:#ffffff;stroke-width:3"
       inkscape:connector-curvature="0"
       id="Stroke-1"
       d="m 0.8135,19.5 27.379,0" />
    <g
       transform="translate(5,0)"
       id="Group-5">
      <mask
         fill="white"
         id="mask-2">
        <use
           height="100%"
           width="100%"
           y="0"
           x="0"
           id="use26"
           xlink:href="#path-1" />
      </mask>
      <g
         id="Clip-4" />
      <polygon
         style="fill:#ffffff"
         points="12.431,-5 -4.569,-5 -4.569,12 12.431,12 "
         mask="url(#mask-2)"
         id="Fill-3" />
    </g>
    <g
       transform="translate(16,0)"
       id="Group-8">
      <mask
         fill="white"
         id="mask-4">
        <use
           height="100%"
           width="100%"
           y="0"
           x="0"
           id="use32"
           xlink:href="#path-3" />
      </mask>
      <g
         id="Clip-7" />
      <polygon
         style="fill:#ffffff"
         points="12.431,-5 -4.569,-5 -4.569,12 12.431,12 "
         mask="url(#mask-4)"
         id="Fill-6" />
    </g>
  </g>
  <g
     style="fill:none;fill-rule:evenodd;stroke:none;stroke-width:1"
     transform="translate(269,161.331)"
     id="Group-18">
    <path
       style="stroke:#ffffff;stroke-width:3"
       inkscape:connector-curvature="0"
       id="Stroke-10"
       d="m 0.8135,19.5 27.379,0" />
    <g
       transform="translate(5,0)"
       id="Group-14">
      <mask
         fill="white"
         id="mask-6">
        <use
           height="100%"
           width="100%"
           y="0"
           x="0"
           id="use40"
           xlink:href="#path-5" />
      </mask>
      <g
         id="Clip-13" />
      <polygon
         style="fill:#ffffff"
         points="12.431,-5 -4.569,-5 -4.569,12 12.431,12 "
         mask="url(#mask-6)"
         id="Fill-12" />
    </g>
    <g
       transform="translate(16,0)"
       id="Group-17">
      <mask
         fill="white"
         id="mask-8">
        <use
           height="100%"
           width="100%"
           y="0"
           x="0"
           id="use46"
           xlink:href="#path-7" />
      </mask>
      <g
         id="Clip-16" />
      <polygon
         style="fill:#ffffff"
         points="12.431,-5 -4.569,-5 -4.569,12 12.431,12 "
         mask="url(#mask-8)"
         id="Fill-15" />
    </g>
  </g>
  <g
     style="fill:none;fill-rule:evenodd;stroke:none;stroke-width:1"
     transform="translate(325,137.331)"
     id="Group-27">
    <path
       style="stroke:#ffffff;stroke-width:3"
       inkscape:connector-curvature="0"
       id="Stroke-19"
       d="m 0.8135,19.5 27.379,0" />
    <g
       transform="translate(5,0)"
       id="Group-23">
      <mask
         fill="white"
         id="mask-10">
        <use
           height="100%"
           width="100%"
           y="0"
           x="0"
           id="use54"
           xlink:href="#path-9" />
      </mask>
      <g
         id="Clip-22" />
      <polygon
         style="fill:#ffffff"
         points="12.431,-5 -4.569,-5 -4.569,12 12.431,12 "
         mask="url(#mask-10)"
         id="Fill-21" />
    </g>
    <g
       transform="translate(16,0)"
       id="Group-26">
      <mask
         fill="white"
         id="mask-12">
        <use
           height="100%"
           width="100%"
           y="0"
           x="0"
           id="use60"
           xlink:href="#path-11" />
      </mask>
      <g
         id="Clip-25" />
      <polygon
         style="fill:#ffffff"
         points="12.431,-5 -4.569,-5 -4.569,12 12.431,12 "
         mask="url(#mask-12)"
         id="Fill-24" />
    </g>
  </g>
  <path
     style="fill:#46c0ef;fill-rule:evenodd;stroke:none;stroke-width:1"
     inkscape:connector-curvature="0"
     id="Fill-28"
     d="m 161.6205,114.6317 c 0,16.558 -13.423,29.981 -29.981,29.981 -16.558,0 -29.981,-13.423 -29.981,-29.981 0,-16.558 13.423,-29.981 29.981,-29.981 16.558,0 29.981,13.423 29.981,29.981" />
  <path
     style="fill:#2e368e;fill-rule:evenodd;stroke:none;stroke-width:1"
     inkscape:connector-curvature="0"
     id="Fill-30"
     d="m 131.6393,164.4462 c 0,14.464 -11.726,26.19 -26.19,26.19 -14.464,0 -26.19,-11.726 -26.19,-26.19 0,-14.464 11.726,-26.19 26.19,-26.19 14.464,0 26.19,11.726 26.19,26.19" />
  <path
     style="fill:#eb078b;fill-rule:evenodd;stroke:none;stroke-width:1"
     inkscape:connector-curvature="0"
     id="Fill-32"
     d="m 208.155,155.1399 c 0,16.268 -13.188,29.457 -29.457,29.457 -16.268,0 -29.456,-13.189 -29.456,-29.457 0,-16.268 13.188,-29.457 29.456,-29.457 16.269,0 29.457,13.189 29.457,29.457" />
  <path
     style="fill:#eb078b;fill-rule:evenodd;stroke:none;stroke-width:1"
     inkscape:connector-curvature="0"
     id="Fill-34"
     d="m 210.2657,103.2151 c 0,13.53 -10.968,24.498 -24.498,24.498 -13.529,0 -24.497,-10.968 -24.497,-24.498 0,-13.53 10.968,-24.498 24.497,-24.498 13.53,0 24.498,10.968 24.498,24.498" />
  <path
     style="fill:#eb078b;fill-rule:evenodd;stroke:none;stroke-width:1"
     inkscape:connector-curvature="0"
     id="Fill-42"
     d="m 312.9166,117.6771 c 0,12.511 -10.142,22.654 -22.654,22.654 -12.511,0 -22.654,-10.143 -22.654,-22.654 0,-12.511 10.143,-22.654 22.654,-22.654 12.512,0 22.654,10.143 22.654,22.654" />
  <path
     style="fill:#46c0ef;fill-rule:evenodd;stroke:none;stroke-width:1"
     inkscape:connector-curvature="0"
     id="Fill-44"
     d="m 311.1891,100.0231 c 0,9.007 7.301,16.308 16.308,16.308 9.007,0 16.308,-7.301 16.308,-16.308 0,-9.007 -7.301,-16.308 -16.308,-16.308 -9.007,0 -16.308,7.301 -16.308,16.308" />
  <path
     style="fill:#eb078b;fill-rule:evenodd;stroke:none;stroke-width:1"
     inkscape:connector-curvature="0"
     id="Fill-46"
     d="m 347.2335,104.9637 c 0,13.006 10.543,23.549 23.549,23.549 13.006,0 23.549,-10.543 23.549,-23.549 0,-13.006 -10.543,-23.549 -23.549,-23.549 -13.006,0 -23.549,10.543 -23.549,23.549" />
  <path
     style="fill:#eb078b;fill-rule:evenodd;stroke:none;stroke-width:1"
     inkscape:connector-curvature="0"
     id="Fill-48"
     d="m 202.0012,75.149 c 0,-14.46 11.722,-26.182 26.182,-26.182 14.46,0 26.182,11.722 26.182,26.182 0,14.46 -11.722,26.182 -26.182,26.182 -14.46,0 -26.182,-11.722 -26.182,-26.182" />
  <path
     style="fill:#eb078b;fill-rule:evenodd;stroke:none;stroke-width:1"
     inkscape:connector-curvature="0"
     id="Fill-50"
     d="m 169.6847,196.754 c 0,13.428 -10.885,24.313 -24.313,24.313 -13.428,0 -24.314,-10.885 -24.314,-24.313 0,-13.428 10.886,-24.313 24.314,-24.313 13.428,0 24.313,10.885 24.313,24.313" />
  <path
     style="fill:#46c0ef;fill-rule:evenodd;stroke:none;stroke-width:1"
     inkscape:connector-curvature="0"
     id="Fill-52"
     d="m 111.3757,211.331 c 0,11.568 -9.377,20.945 -20.945,20.945 -11.568,0 -20.945,-9.377 -20.945,-20.945 0,-11.568 9.377,-20.945 20.945,-20.945 11.568,0 20.945,9.377 20.945,20.945" />
  <path
     style="fill:#eb078b;fill-rule:evenodd;stroke:none;stroke-width:1"
     inkscape:connector-curvature="0"
     id="Fill-54"
     d="m 166.0591,246.831 c 0,14.716 -11.93,26.646 -26.646,26.646 -14.716,0 -26.646,-11.93 -26.646,-26.646 0,-14.716 11.93,-26.646 26.646,-26.646 14.716,0 26.646,11.93 26.646,26.646" />
  <path
     style="fill:#eb078b;fill-rule:evenodd;stroke:none;stroke-width:1"
     inkscape:connector-curvature="0"
     id="Fill-56"
     d="m 210.1302,202.4513 c 0,10.623 -8.612,19.235 -19.235,19.235 -10.622,0 -19.234,-8.612 -19.234,-19.235 0,-10.623 8.612,-19.235 19.234,-19.235 10.623,0 19.235,8.612 19.235,19.235" />
  <path
     style="fill:#2e368e;fill-rule:evenodd;stroke:none;stroke-width:1"
     inkscape:connector-curvature="0"
     id="Fill-58"
     d="m 238.157,254.8541 c 0,19.895 -16.128,36.024 -36.024,36.024 -19.895,0 -36.024,-16.129 -36.024,-36.024 0,-19.895 16.129,-36.024 36.024,-36.024 19.896,0 36.024,16.129 36.024,36.024" />
  <path
     style="fill:#eb078b;fill-rule:evenodd;stroke:none;stroke-width:1"
     inkscape:connector-curvature="0"
     id="Fill-60"
     d="m 115.0015,264.8113 c 0,17.969 -14.567,32.535 -32.535,32.535 -17.969,0 -32.536,-14.566 -32.536,-32.535 0,-17.969 14.567,-32.535 32.536,-32.535 17.968,0 32.535,14.566 32.535,32.535" />
  <path
     style="fill:#eb078b;fill-rule:evenodd;stroke:none;stroke-width:1"
     inkscape:connector-curvature="0"
     id="Fill-62"
     d="m 185.4707,303.7448 c 0,17.682 -14.334,32.017 -32.017,32.017 -17.682,0 -32.017,-14.335 -32.017,-32.017 0,-17.682 14.335,-32.017 32.017,-32.017 17.683,0 32.017,14.335 32.017,32.017" />
  <path
     style="fill:#46c0ef;fill-rule:evenodd;stroke:none;stroke-width:1"
     inkscape:connector-curvature="0"
     id="Fill-64"
     d="m 224.5456,307.2687 c 0,9.052 -7.338,16.391 -16.391,16.391 -9.052,0 -16.39,-7.339 -16.39,-16.391 0,-9.052 7.338,-16.391 16.39,-16.391 9.053,0 16.391,7.339 16.391,16.391" />
  <path
     style="fill:#eb078b;fill-rule:evenodd;stroke:none;stroke-width:1"
     inkscape:connector-curvature="0"
     id="Fill-66"
     d="m 216.8903,343.8935 c 0,12.7 -10.295,22.995 -22.995,22.995 -12.699,0 -22.994,-10.295 -22.994,-22.995 0,-12.7 10.295,-22.995 22.994,-22.995 12.7,0 22.995,10.295 22.995,22.995" />
  <path
     style="fill:#2e368e;fill-rule:evenodd;stroke:none;stroke-width:1"
     inkscape:connector-curvature="0"
     id="Fill-68"
     d="m 252.4307,186.0477 c 0,12.376 -10.033,22.409 -22.409,22.409 -12.376,0 -22.409,-10.033 -22.409,-22.409 0,-12.376 10.033,-22.409 22.409,-22.409 12.376,0 22.409,10.033 22.409,22.409" />
  <path
     style="fill:#eb078b;fill-rule:evenodd;stroke:none;stroke-width:1"
     inkscape:connector-curvature="0"
     id="Fill-70"
     d="m 265.5969,223.1782 c 0,10.288 -8.34,18.628 -18.628,18.628 -10.287,0 -18.627,-8.34 -18.627,-18.628 0,-10.288 8.34,-18.628 18.627,-18.628 10.288,0 18.628,8.34 18.628,18.628" />
  <path
     style="fill:#2e368e;fill-rule:evenodd;stroke:none;stroke-width:1"
     inkscape:connector-curvature="0"
     id="Fill-72"
     d="m 267.6088,225.1792 c 0,-12.445 10.089,-22.533 22.533,-22.533 12.445,0 22.534,10.088 22.534,22.533 0,12.445 -10.089,22.533 -22.534,22.533 -12.444,0 -22.533,-10.088 -22.533,-22.533" />
  <path
     style="fill:#eb078b;fill-rule:evenodd;stroke:none;stroke-width:1"
     inkscape:connector-curvature="0"
     id="Fill-74"
     d="m 293.106,269.3608 c 0,15.445 -12.52,27.965 -27.965,27.965 -15.445,0 -27.965,-12.52 -27.965,-27.965 0,-15.445 12.52,-27.965 27.965,-27.965 15.445,0 27.965,12.52 27.965,27.965" />
  <path
     style="fill:#eb078b;fill-rule:evenodd;stroke:none;stroke-width:1"
     inkscape:connector-curvature="0"
     id="Fill-76"
     d="m 265.0013,313.4124 c 0,11.223 -9.098,20.322 -20.322,20.322 -11.223,0 -20.321,-9.099 -20.321,-20.322 0,-11.223 9.098,-20.322 20.321,-20.322 11.224,0 20.322,9.099 20.322,20.322" />
  <path
     style="fill:#eb078b;fill-rule:evenodd;stroke:none;stroke-width:1"
     inkscape:connector-curvature="0"
     id="Fill-78"
     d="m 353.1605,201.331 c 0,12.826 -10.397,23.223 -23.223,23.223 -12.826,0 -23.223,-10.397 -23.223,-23.223 0,-12.826 10.397,-23.223 23.223,-23.223 12.826,0 23.223,10.397 23.223,23.223" />
  <path
     style="fill:#eb078b;fill-rule:evenodd;stroke:none;stroke-width:1"
     inkscape:connector-curvature="0"
     id="Fill-80"
     d="m 409.8757,190.441 c 0,15.874 -12.868,28.742 -28.742,28.742 -15.874,0 -28.743,-12.868 -28.743,-28.742 0,-15.874 12.869,-28.742 28.743,-28.742 15.874,0 28.742,12.868 28.742,28.742" />
  <path
     style="fill:#eb078b;fill-rule:evenodd;stroke:none;stroke-width:1"
     inkscape:connector-curvature="0"
     id="Fill-82"
     d="m 428.4692,138.2996 c 0,13.071 -10.596,23.668 -23.668,23.668 -13.071,0 -23.668,-10.597 -23.668,-23.668 0,-13.071 10.597,-23.668 23.668,-23.668 13.072,0 23.668,10.597 23.668,23.668" />
  <path
     style="fill:#eb078b;fill-rule:evenodd;stroke:none;stroke-width:1"
     inkscape:connector-curvature="0"
     id="Fill-84"
     d="m 366.4094,254.0322 c 0,16.4 -13.295,29.694 -29.694,29.694 -16.4,0 -29.695,-13.294 -29.695,-29.694 0,-16.4 13.295,-29.694 29.695,-29.694 16.399,0 29.694,13.294 29.694,29.694" />
  <path
     style="fill:#2e368e;fill-rule:evenodd;stroke:none;stroke-width:1"
     inkscape:connector-curvature="0"
     id="Fill-86"
     d="m 405.7971,238.9937 c 0,11.136 -9.027,20.163 -20.163,20.163 -11.136,0 -20.164,-9.027 -20.164,-20.163 0,-11.136 9.028,-20.163 20.164,-20.163 11.136,0 20.163,9.027 20.163,20.163" />
  <path
     style="fill:#eb078b;fill-rule:evenodd;stroke:none;stroke-width:1"
     inkscape:connector-curvature="0"
     id="Fill-88"
     d="m 409.8757,286.4106 c 0,14.913 -12.089,27.002 -27.002,27.002 -14.912,0 -27.002,-12.089 -27.002,-27.002 0,-14.913 12.09,-27.002 27.002,-27.002 14.913,0 27.002,12.089 27.002,27.002" />
  <path
     style="fill:#46c0ef;fill-rule:evenodd;stroke:none;stroke-width:1"
     inkscape:connector-curvature="0"
     id="Fill-90"
     d="m 458.1383,297.326 c 0,12.979 -10.521,23.5 -23.5,23.5 -12.979,0 -23.5,-10.521 -23.5,-23.5 0,-12.979 10.521,-23.5 23.5,-23.5 12.979,0 23.5,10.521 23.5,23.5" />
  <path
     style="fill:#eb078b;fill-rule:evenodd;stroke:none;stroke-width:1"
     inkscape:connector-curvature="0"
     id="Fill-92"
     d="m 333.7058,314.6086 c 0,16.91 -13.708,30.618 -30.618,30.618 -16.91,0 -30.619,-13.708 -30.619,-30.618 0,-16.91 13.709,-30.618 30.619,-30.618 16.91,0 30.618,13.708 30.618,30.618" />
  <path
     style="fill:#eb078b;fill-rule:evenodd;stroke:none;stroke-width:1"
     inkscape:connector-curvature="0"
     id="Fill-94"
     d="m 385.6337,335.7616 c 0,14.877 -12.06,26.937 -26.937,26.937 -14.877,0 -26.937,-12.06 -26.937,-26.937 0,-14.877 12.06,-26.937 26.937,-26.937 14.877,0 26.937,12.06 26.937,26.937" />
  <path
     style="fill:#eb078b;fill-rule:evenodd;stroke:none;stroke-width:1"
     inkscape:connector-curvature="0"
     id="Fill-96"
     d="m 442.2848,427.331 c 29.271,0 53,-23.729 53,-53 0,-29.271 -23.729,-53 -53,-53 -29.271,0 -53,23.729 -53,53 0,29.271 23.729,53 53,53" />
  <path
     style="fill:#eb078b;fill-rule:evenodd;stroke:none;stroke-width:1"
     inkscape:connector-curvature="0"
     id="Fill-106"
     d="m 74.4307,187.32 c 0,13.34 -10.814,24.154 -24.154,24.154 -13.34,0 -24.155,-10.814 -24.155,-24.154 0,-13.34 10.815,-24.154 24.155,-24.154 13.34,0 24.154,10.814 24.154,24.154" />
  <circle
     style="opacity:1;fill:#46c0ef;fill-opacity:1;stroke:none;stroke-width:3;stroke-miterlimit:4;stroke-dasharray:none;stroke-opacity:1"
     id="bubble2"
     cx="265.61691"
     cy="561.09808"
     r="143.539" />
  <circle
     r="76.298698"
     cy="597.49768"
     cx="432.57336"
     id="bubble6"
     style="opacity:1;fill:#2e368e;fill-opacity:1;stroke:none;stroke-width:3;stroke-miterlimit:4;stroke-dasharray:none;stroke-opacity:1" />
  <circle
     style="opacity:1;fill:#eb078b;fill-opacity:1;stroke:none;stroke-width:3;stroke-miterlimit:4;stroke-dasharray:none;stroke-opacity:1"
     id="bubble7"
     cx="575.49072"
     cy="614.56647"
     r="115" />
  <path
     style="fill:#eb078b;fill-rule:evenodd;stroke:none;stroke-width:1"
     inkscape:connector-curvature="0"
     id="Fill-36"
     d="m 264.5496,131.4131 c 0,16.338 -13.244,29.582 -29.582,29.582 -16.338,0 -29.582,-13.244 -29.582,-29.582 0,-16.338 13.244,-29.582 29.582,-29.582 16.338,0 29.582,13.244 29.582,29.582" />
  <g
     id="face1"
     transform="translate(-5.5908203e-6,-1.1962891e-6)">
    <circle
       style="opacity:1;fill:#82265b;fill-opacity:1;stroke:none;stroke-width:3;stroke-miterlimit:4;stroke-dasharray:none;stroke-opacity:1"
       id="circle4846"
       cx="234.96761"
       cy="131.4131"
       r="29.582001" />
    <path
       d="m 243.9301,140.496 -17.999,0 c -0.552,0 -1,-0.447 -1,-1 0,-0.553 0.448,-1 1,-1 l 17.999,0 c 0.552,0 1,0.447 1,1 0,0.553 -0.448,1 -1,1"
       id="Fill-130"
       inkscape:connector-curvature="0"
       style="fill:#ffffff;fill-rule:evenodd;stroke:none;stroke-width:1" />
    <path
       d="m 228.1833,121.2741 c 0,1.244 -1.008,2.252 -2.252,2.252 -1.243,0 -2.251,-1.008 -2.251,-2.252 0,-1.244 1.008,-2.252 2.251,-2.252 1.244,0 2.252,1.008 2.252,2.252"
       id="Fill-132"
       inkscape:connector-curvature="0"
       style="fill:#ffffff;fill-rule:evenodd;stroke:none;stroke-width:1" />
    <path
       d="m 246.1815,121.2741 c 0,1.244 -1.008,2.252 -2.252,2.252 -1.243,0 -2.251,-1.008 -2.251,-2.252 0,-1.244 1.008,-2.252 2.251,-2.252 1.244,0 2.252,1.008 2.252,2.252"
       id="Fill-134"
       inkscape:connector-curvature="0"
       style="fill:#ffffff;fill-rule:evenodd;stroke:none;stroke-width:1" />
  </g>
  <path
     style="fill:#eb078b;fill-rule:evenodd;stroke:none;stroke-width:1"
     inkscape:connector-curvature="0"
     id="Fill-38"
     d="m 313.4307,172.2267 c 0,16.661 -13.507,30.168 -30.168,30.168 -16.661,0 -30.168,-13.507 -30.168,-30.168 0,-16.661 13.507,-30.168 30.168,-30.168 16.661,0 30.168,13.507 30.168,30.168" />
  <g
     id="face2"
     inkscape:label="#face2">
    <circle
       r="29.582001"
       cy="172.2267"
       cx="283.2627"
       id="path4844"
       style="opacity:1;fill:#82265b;fill-opacity:1;stroke:none;stroke-width:3;stroke-miterlimit:4;stroke-dasharray:none;stroke-opacity:1" />
    <path
       d="m 291.9301,181.0711 -17.999,0 c -0.552,0 -1,-0.447 -1,-1 0,-0.553 0.448,-1 1,-1 l 17.999,0 c 0.552,0 1,0.447 1,1 0,0.553 -0.448,1 -1,1"
       id="Fill-138"
       inkscape:connector-curvature="0"
       style="fill:#ffffff;fill-rule:evenodd;stroke:none;stroke-width:1" />
    <path
       d="m 276.1833,161.8492 c 0,1.244 -1.008,2.252 -2.252,2.252 -1.243,0 -2.251,-1.008 -2.251,-2.252 0,-1.244 1.008,-2.252 2.251,-2.252 1.244,0 2.252,1.008 2.252,2.252"
       id="Fill-140"
       inkscape:connector-curvature="0"
       style="fill:#ffffff;fill-rule:evenodd;stroke:none;stroke-width:1" />
    <path
       d="m 294.1815,161.8492 c 0,1.244 -1.008,2.252 -2.252,2.252 -1.243,0 -2.251,-1.008 -2.251,-2.252 0,-1.244 1.008,-2.252 2.251,-2.252 1.244,0 2.252,1.008 2.252,2.252"
       id="Fill-142"
       inkscape:connector-curvature="0"
       style="fill:#ffffff;fill-rule:evenodd;stroke:none;stroke-width:1" />
  </g>
  <path
     style="fill:#eb078b;fill-rule:evenodd;stroke:none;stroke-width:1"
     inkscape:connector-curvature="0"
     id="Fill-40"
     d="m 368.3727,149.2871 c 0,16.254 -13.176,29.43 -29.43,29.43 -16.254,0 -29.43,-13.176 -29.43,-29.43 0,-16.254 13.176,-29.43 29.43,-29.43 16.254,0 29.43,13.176 29.43,29.43" />
  <g
     id="face3">
    <circle
       r="29.582001"
       cy="149.28709"
       cx="338.94269"
       id="circle4848"
       style="opacity:1;fill:#82265b;fill-opacity:1;stroke:none;stroke-width:3;stroke-miterlimit:4;stroke-dasharray:none;stroke-opacity:1" />
    <path
       d="m 347.9361,158.6975 -17.999,0 c -0.552,0 -1,-0.447 -1,-1 0,-0.553 0.448,-1 1,-1 l 17.999,0 c 0.552,0 1,0.447 1,1 0,0.553 -0.448,1 -1,1"
       id="Fill-146"
       inkscape:connector-curvature="0"
       style="fill:#ffffff;fill-rule:evenodd;stroke:none;stroke-width:1" />
    <path
       d="m 332.1892,139.4757 c 0,1.244 -1.008,2.252 -2.252,2.252 -1.243,0 -2.251,-1.008 -2.251,-2.252 0,-1.244 1.008,-2.252 2.251,-2.252 1.244,0 2.252,1.008 2.252,2.252"
       id="Fill-148"
       inkscape:connector-curvature="0"
       style="fill:#ffffff;fill-rule:evenodd;stroke:none;stroke-width:1" />
    <path
       d="m 350.1874,139.4757 c 0,1.244 -1.008,2.252 -2.252,2.252 -1.243,0 -2.251,-1.008 -2.251,-2.252 0,-1.244 1.008,-2.252 2.251,-2.252 1.244,0 2.252,1.008 2.252,2.252"
       id="Fill-150"
       inkscape:connector-curvature="0"
       style="fill:#ffffff;fill-rule:evenodd;stroke:none;stroke-width:1" />
  </g>
  <path
     d="m 280.0247,210.1715 c -16.207,0 -30.161,-1.713 -41.591,-5.114 -31.506,-9.372 -65.172,-35.417 -65.172,-80.407 0,-20.689 5.913,-58.118 45.516,-76.334 20.22,-9.3 39.538,-9.233 59.997,-9.176 1.651,0.006 3.307,0.01 4.968,0.01 1.657,0 3,1.343 3,3 0,1.658 -1.343,3 -3,3 -1.668,0 -3.329,-0.004 -4.987,-0.01 -19.777,-0.057 -38.453,-0.12 -57.471,8.627 -36.563,16.819 -42.023,51.63 -42.023,70.883 0,41.691 31.45,65.901 60.883,74.657 13.126,3.904 29.89,5.468 49.831,4.655 22.906,-0.937 40.133,-2.159 53.234,-9.403 13.335,-7.373 22.602,-21.005 30.986,-45.58 5.968,-17.49 2.969,-33.898 -10.026,-54.866 -13.838,-22.324 -31.963,-34.162 -55.412,-36.189 -23.077,-1.993 -48.705,5.929 -68.45,13.057 -1.556,0.562 -3.278,-0.247 -3.84,-1.804 -0.563,-1.559 0.244,-3.278 1.803,-3.841 20.323,-7.336 46.76,-15.482 71.004,-13.39 25.466,2.203 45.09,14.961 59.994,39.007 14.044,22.657 17.216,40.591 10.606,59.963 -18.347,53.774 -42.046,57.095 -89.654,59.04 -3.489,0.144 -6.891,0.215 -10.196,0.215"
     id="Fill-153"
     inkscape:connector-curvature="0"
     style="fill:#40c2f3;fill-rule:evenodd;stroke:none;stroke-width:1" />
  <circle
     style="opacity:1;fill:#eb078b;fill-opacity:1;stroke:none;stroke-width:3;stroke-miterlimit:4;stroke-dasharray:none;stroke-opacity:1"
     id="cell1"
     cx="87.510597"
     cy="28.903557"
     r="27.949417" />
  <circle
     style="opacity:1;fill:#eb078b;fill-opacity:1;stroke:none;stroke-width:3;stroke-miterlimit:4;stroke-dasharray:none;stroke-opacity:1"
     id="cell3"
     cx="44.622692"
     cy="84.963013"
     r="17.829802" />
  <circle
     r="30.358849"
     cy="132.50914"
     cx="57.794258"
     id="cell4"
     style="opacity:1;fill:#eb078b;fill-opacity:1;stroke:none;stroke-width:3;stroke-miterlimit:4;stroke-dasharray:none;stroke-opacity:1" />
  <circle
     style="opacity:1;fill:#2e368e;fill-opacity:1;stroke:none;stroke-width:3;stroke-miterlimit:4;stroke-dasharray:none;stroke-opacity:1"
     id="bubble1"
     cx="316.92065"
     cy="409.88321"
     r="76.298698" />
  <circle
     style="opacity:1;fill:#077da1;fill-opacity:1;stroke:none;stroke-width:3;stroke-miterlimit:4;stroke-dasharray:none;stroke-opacity:1"
     id="bubble3"
     cx="128.99933"
     cy="452.27478"
     r="72.458" />
  <circle
     r="36.984501"
     cy="548.14471"
     cx="47.264725"
     id="bubble4"
     style="opacity:1;fill:#077da1;fill-opacity:1;stroke:none;stroke-width:3;stroke-miterlimit:4;stroke-dasharray:none;stroke-opacity:1" />
  <circle
     style="opacity:1;fill:#077da1;fill-opacity:1;stroke:none;stroke-width:3;stroke-miterlimit:4;stroke-dasharray:none;stroke-opacity:1"
     id="bubble5"
     cx="164.21352"
     cy="704.90741"
     r="78.116501" />
  <circle
     style="opacity:1;fill:#077da1;fill-opacity:1;stroke:none;stroke-width:3;stroke-miterlimit:4;stroke-dasharray:none;stroke-opacity:1"
     id="bubble8"
     cx="705.38922"
     cy="699.58954"
     r="123" />
  <circle
     style="opacity:1;fill:#077da1;fill-opacity:1;stroke:none;stroke-width:3;stroke-miterlimit:4;stroke-dasharray:none;stroke-opacity:1"
     id="bubble9"
     cx="897.18854"
     cy="726.755"
     r="41.082001" />
</svg>
