<?xml version="1.0" encoding="UTF-8" standalone="no"?>
<svg width="114px" height="153px" viewBox="0 0 114 153" version="1.1" xmlns="http://www.w3.org/2000/svg" xmlns:xlink="http://www.w3.org/1999/xlink">
    <!-- Generator: sketchtool 40.3 (33839) - http://www.bohemiancoding.com/sketch -->
    <title>36804AF6-5812-42BD-A26A-400189BCF2D9</title>
    <desc>Created with sketchtool.</desc>
    <defs>
        <polygon id="path-1" points="0 152.61 113.806 152.61 113.806 0 0 0"></polygon>
    </defs>
    <g id="Page-1" stroke="none" stroke-width="1" fill="none" fill-rule="evenodd">
        <g id="Desktop-HD" transform="translate(-1069.000000, -2249.000000)">
            <g id="why-scifabric" transform="translate(-11.000000, 1850.000000)">
                <g id="clock" transform="translate(1080.000000, 399.000000)">
                    <path d="M56.236,67.6768 C77.084,67.6768 93.984,84.5778 93.984,105.4248 C93.984,126.2728 77.084,143.1738 56.236,143.1738 C35.388,143.1738 18.488,126.2728 18.488,105.4248 C18.488,84.5778 35.388,67.6768 56.236,67.6768 L56.236,67.6768 Z" id="Fill-1" fill="#AEE4F6"></path>
                    <path d="M56.2353,69.5634 C36.4613,69.5634 20.3743,85.6504 20.3743,105.4244 C20.3743,125.1984 36.4613,141.2854 56.2353,141.2854 C76.0093,141.2854 92.0963,125.1984 92.0963,105.4244 C92.0963,85.6504 76.0093,69.5634 56.2353,69.5634 M56.2353,145.0604 C34.3803,145.0604 16.5993,127.2794 16.5993,105.4244 C16.5993,83.5694 34.3803,65.7884 56.2353,65.7884 C78.0903,65.7884 95.8713,83.5694 95.8713,105.4244 C95.8713,127.2794 78.0903,145.0604 56.2353,145.0604" id="Fill-3" fill="#077DA1"></path>
                    <path d="M56.2353,62.0137 C32.2983,62.0137 12.8243,81.4867 12.8243,105.4247 C12.8243,129.3617 32.2983,148.8347 56.2353,148.8347 C80.1723,148.8347 99.6463,129.3617 99.6463,105.4247 C99.6463,81.4867 80.1723,62.0137 56.2353,62.0137 M56.2353,152.6097 C30.2173,152.6097 9.0493,131.4427 9.0493,105.4247 C9.0493,79.4057 30.2173,58.2387 56.2353,58.2387 C82.2533,58.2387 103.4213,79.4057 103.4213,105.4247 C103.4213,131.4427 82.2533,152.6097 56.2353,152.6097" id="Fill-5" fill="#077DA1"></path>
                    <path d="M56.2372,109.1993 C55.6382,109.1993 55.0502,108.9153 54.6832,108.3863 L36.2052,81.7343 C35.6122,80.8783 35.8262,79.7023 36.6832,79.1073 C37.5342,78.5143 38.7142,78.7273 39.3092,79.5853 L57.7872,106.2373 C58.3812,107.0923 58.1672,108.2683 57.3102,108.8643 C56.9832,109.0903 56.6072,109.1993 56.2372,109.1993" id="Fill-7" fill="#077DA1"></path>
                    <mask id="mask-2" fill="white">
                        <use xlink:href="#path-1"></use>
                    </mask>
                    <g id="Clip-10"></g>
                    <polygon id="Fill-9" fill="#AEE4F6" mask="url(#mask-2)" points="41.137 54.465 71.336 54.465 71.336 41.253 41.137 41.253"></polygon>
                    <path d="M43.023,52.577 L69.447,52.577 L69.447,43.14 L43.023,43.14 L43.023,52.577 Z M71.335,56.351 L41.136,56.351 C40.093,56.351 39.249,55.507 39.249,54.464 L39.249,41.252 C39.249,40.209 40.093,39.365 41.136,39.365 L71.335,39.365 C72.378,39.365 73.222,40.209 73.222,41.252 L73.222,54.464 C73.222,55.507 72.378,56.351 71.335,56.351 L71.335,56.351 Z" id="Fill-11" fill="#077DA1" mask="url(#mask-2)"></path>
                    <polygon id="Fill-12" fill="#077DA1" mask="url(#mask-2)" points="54.348 62.014 58.123 62.014 58.123 52.577 54.348 52.577"></polygon>
                    <path d="M57.039,109.5956 C56.645,109.5956 56.248,109.4726 55.907,109.2176 C55.074,108.5926 54.905,107.4096 55.531,106.5746 L69.68,87.7166 C70.304,86.8806 71.486,86.7146 72.323,87.3396 C73.156,87.9636 73.325,89.1476 72.699,89.9826 L58.55,108.8396 C58.18,109.3356 57.612,109.5956 57.039,109.5956" id="Fill-13" fill="#077DA1" mask="url(#mask-2)"></path>
                    <path d="M28.118,48.2139 C29.061,51.3449 27.287,54.6469 24.156,55.5889 C21.026,56.5319 17.723,54.7579 16.781,51.6269 C15.838,48.4969 17.612,45.1949 20.743,44.2519 C23.873,43.3099 27.175,45.0829 28.118,48.2139" id="Fill-14" fill="#46C0EF" mask="url(#mask-2)"></path>
                    <path d="M96.144,62.0137 C95.694,62.0137 95.245,61.8547 94.883,61.5307 C94.107,60.8337 94.043,59.6417 94.739,58.8657 L110.513,41.2857 C111.212,40.5097 112.403,40.4467 113.179,41.1417 C113.955,41.8377 114.019,43.0307 113.322,43.8067 L97.548,61.3867 C97.176,61.8017 96.66,62.0137 96.144,62.0137" id="Fill-15" fill="#46C0EF" mask="url(#mask-2)"></path>
                    <path d="M47.6313,16.7635 C47.1483,16.7635 46.6653,16.5795 46.2973,16.2105 L33.3083,3.2215 C32.5703,2.4845 32.5703,1.2895 33.3083,0.5525 C34.0453,-0.1845 35.2393,-0.1845 35.9773,0.5525 L48.9653,13.5415 C49.7033,14.2785 49.7033,15.4735 48.9653,16.2105 C48.5973,16.5795 48.1143,16.7635 47.6313,16.7635" id="Fill-16" fill="#EC008C" mask="url(#mask-2)"></path>
                    <path d="M10.9379,32.166 C10.9379,35.186 8.4889,37.635 5.4689,37.635 C2.4489,37.635 -0.0001,35.186 -0.0001,32.166 C-0.0001,29.146 2.4489,26.697 5.4689,26.697 C8.4889,26.697 10.9379,29.146 10.9379,32.166" id="Fill-17" fill="#EC008C" mask="url(#mask-2)"></path>
                    <path d="M94.4752,19.0507 C94.4752,20.5607 93.2512,21.7847 91.7412,21.7847 C90.2302,21.7847 89.0062,20.5607 89.0062,19.0507 C89.0062,17.5407 90.2302,16.3167 91.7412,16.3167 C93.2512,16.3167 94.4752,17.5407 94.4752,19.0507" id="Fill-18" fill="#2E3192" mask="url(#mask-2)"></path>
                    <path d="M61.5879,29.1571 C61.3239,29.1571 61.0569,29.1021 60.8009,28.9841 C59.8539,28.5491 59.4389,27.4281 59.8759,26.4811 L64.9239,15.5121 C65.3569,14.5651 66.4739,14.1481 67.4269,14.5871 C68.3749,15.0221 68.7889,16.1421 68.3519,17.0901 L63.3039,28.0581 C62.9869,28.7501 62.3029,29.1571 61.5879,29.1571" id="Fill-19" fill="#2E3192" mask="url(#mask-2)"></path>
                </g>
            </g>
        </g>
    </g>
</svg>