<?xml version="1.0" encoding="UTF-8" standalone="no"?>
<svg
   xmlns:dc="http://purl.org/dc/elements/1.1/"
   xmlns:cc="http://creativecommons.org/ns#"
   xmlns:rdf="http://www.w3.org/1999/02/22-rdf-syntax-ns#"
   xmlns:svg="http://www.w3.org/2000/svg"
   xmlns="http://www.w3.org/2000/svg"
   xmlns:sodipodi="http://sodipodi.sourceforge.net/DTD/sodipodi-0.dtd"
   xmlns:inkscape="http://www.inkscape.org/namespaces/inkscape"
   width="34px"
   height="39px"
   viewBox="0 0 34 39"
   version="1.1"
   id="svg2"
   inkscape:version="0.91 r13725"
   sodipodi:docname="facebook.svg">
  <metadata
     id="metadata21">
    <rdf:RDF>
      <cc:Work
         rdf:about="">
        <dc:format>image/svg+xml</dc:format>
        <dc:type
           rdf:resource="http://purl.org/dc/dcmitype/StillImage" />
      </cc:Work>
    </rdf:RDF>
  </metadata>
  <sodipodi:namedview
     pagecolor="#ffffff"
     bordercolor="#666666"
     borderopacity="1"
     objecttolerance="10"
     gridtolerance="10"
     guidetolerance="10"
     inkscape:pageopacity="0"
     inkscape:pageshadow="2"
     inkscape:window-width="869"
     inkscape:window-height="480"
     id="namedview19"
     showgrid="false"
     inkscape:zoom="6.0512821"
     inkscape:cx="17"
     inkscape:cy="19.5"
     inkscape:window-x="2603"
     inkscape:window-y="113"
     inkscape:window-maximized="0"
     inkscape:current-layer="svg2" />
  <!-- Generator: sketchtool 40.3 (33839) - http://www.bohemiancoding.com/sketch -->
  <title
     id="title4">91BB5A1F-69B9-4F86-ACB2-7FF5C2A76F0E</title>
  <desc
     id="desc6">Created with sketchtool.</desc>
  <defs
     id="defs8" />
  <path
     style="fill:#3b5998;fill-rule:evenodd;stroke:none;stroke-width:1"
     inkscape:connector-curvature="0"
     id="Fill-10"
     d="m 17.532817,7.9470199e-4 3.702441,0 0.06221,0.061986758 0,4.07046354 -0.06221,0.065166 -2.234864,0 c -0.695504,0 -1.127801,0.1907285 -1.298487,0.5721854 -0.113258,0.2113907 -0.16909,0.621457 -0.16909,1.2286093 l 0,1.9088742 3.745512,0 0.01914,0.042914 0.04307,0 -0.488129,4.1547011 -3.319595,0 0,12.022252 -0.06381,0.06358 -4.916382,0 -0.06381,-0.06358 0,-12.022252 -2.424692,0 -0.06381,-0.06358 0,-4.0704629 0.06381,-0.063576 2.424692,0 0,-2.5017219 c 0,-2.6145695 0.886927,-4.2691391 2.659186,-4.96211919 0.810357,-0.29562914 1.603168,-0.4434437081 2.384812,-0.4434437081" />
  <g
     style="font-weight:500;font-size:11px;font-family:OpenSans-Semibold, 'Open Sans';fill:#3b5998;fill-rule:evenodd;stroke:none;stroke-width:1"
     id="SHARE">
    <path
       d="m 5.1352539,35.910645 q 0,1.036621 -0.7519531,1.616699 -0.7519531,0.580078 -2.0410156,0.580078 -1.39648442,0 -2.14843754,-0.359863 l 0,-0.88086 q 0.48339843,0.204102 1.05273434,0.322266 0.569336,0.118164 1.1279297,0.118164 0.913086,0 1.375,-0.34375 0.4619141,-0.349121 0.4619141,-0.966797 0,-0.408203 -0.1665039,-0.666016 Q 3.8837891,35.067383 3.4970703,34.847168 3.1157227,34.626953 2.331543,34.347656 1.2358398,33.955566 0.76318359,33.418457 0.29589844,32.881348 0.29589844,32.016602 q 0,-0.907715 0.6821289,-1.444825 0.68212886,-0.537109 1.80468746,-0.537109 1.1708985,0 2.1538086,0.429687 l -0.2846679,0.794922 q -0.972168,-0.408203 -1.890625,-0.408203 -0.7250977,0 -1.1333008,0.311524 -0.4082031,0.311523 -0.4082031,0.864746 0,0.408203 0.1503906,0.671386 0.1503906,0.257813 0.5048828,0.478028 0.3598633,0.214844 1.0957031,0.478027 1.2353516,0.44043 1.6972656,0.945313 0.4672852,0.504882 0.4672852,1.310547 z"
       style=""
       id="path4175" />
    <path
       d="m 12.703125,38 -0.913086,0 0,-3.695313 -4.1357421,0 0,3.695313 -0.913086,0 0,-7.852539 0.913086,0 0,3.34082 4.1357421,0 0,-3.34082 0.913086,0 0,7.852539 z"
       style=""
       id="path4177" />
    <path
       d="m 19.79834,38 -0.977539,-2.497559 -3.147461,0 L 14.706543,38 l -0.923828,0 3.104492,-7.884766 0.768066,0 L 20.743652,38 19.79834,38 Z m -1.262207,-3.319336 -0.913086,-2.433105 q -0.177246,-0.461914 -0.365235,-1.133301 -0.118164,0.515625 -0.338378,1.133301 l -0.923829,2.433105 2.540528,0 z"
       style=""
       id="path4179" />
    <path
       d="m 22.736328,34.734375 0,3.265625 -0.913086,0 0,-7.852539 2.153809,0 q 1.444824,0 2.132324,0.553223 0.692871,0.553222 0.692871,1.665039 0,1.557617 -1.579101,2.105468 L 27.355469,38 l -1.07959,0 -1.901367,-3.265625 -1.638184,0 z m 0,-0.78418 1.251465,0 q 0.966797,0 1.417969,-0.381347 0.451172,-0.386719 0.451172,-1.154786 0,-0.778808 -0.461914,-1.122558 -0.456543,-0.34375 -1.47168,-0.34375 l -1.187012,0 0,3.002441 z"
       style=""
       id="path4181" />
    <path
       d="m 33.01123,38 -4.377441,0 0,-7.852539 4.377441,0 0,0.811035 -3.464355,0 0,2.529785 3.254883,0 0,0.805664 -3.254883,0 0,2.889649 3.464355,0 0,0.816406 z"
       style=""
       id="path4183" />
  </g>
</svg>
