<?xml version="1.0" encoding="UTF-8" standalone="no"?>
<svg width="34px" height="39px" viewBox="0 0 34 39" version="1.1" xmlns="http://www.w3.org/2000/svg" xmlns:xlink="http://www.w3.org/1999/xlink">
    <!-- Generator: sketchtool 40.3 (33839) - http://www.bohemiancoding.com/sketch -->
    <title>91BB5A1F-69B9-4F86-ACB2-7FF5C2A76F0E</title>
    <desc>Created with sketchtool.</desc>
    <defs></defs>
    <g id="Page-1" stroke="none" stroke-width="1" fill="none" fill-rule="evenodd">
        <g id="Desktop-HD" transform="translate(-1253.000000, -972.000000)" fill="#3B5998">
            <g id="fixed-nav" transform="translate(-12.000000, 961.000000)">
                <g id="social-icons" transform="translate(1264.000000, 11.000000)">
                    <g id="FACEBOOK">
                        <path d="M18.5328171,0.000794701987 L22.2352585,0.000794701987 L22.297471,0.062781457 L22.297471,4.13324503 L22.2352585,4.1984106 L20.000394,4.1984106 C19.3048902,4.1984106 18.8725931,4.38913907 18.7019075,4.77059603 C18.5886488,4.98198675 18.5328171,5.39205298 18.5328171,5.9992053 L18.5328171,7.90807947 L22.2783287,7.90807947 L22.297471,7.95099338 L22.3405412,7.95099338 L21.8524123,12.1056954 L18.5328171,12.1056954 L18.5328171,24.127947 L18.4690094,24.1915232 L13.5526267,24.1915232 L13.488819,24.127947 L13.488819,12.1056954 L11.0641267,12.1056954 L11.000319,12.0421192 L11.000319,7.97165563 L11.0641267,7.90807947 L13.488819,7.90807947 L13.488819,5.40635762 C13.488819,2.79178808 14.375746,1.13721854 16.1480046,0.444238411 C16.9583623,0.148609272 17.7511729,0.000794701987 18.5328171,0.000794701987" id="Fill-10"></path>
                        <text id="SHARE" font-family="OpenSans-Semibold, Open Sans" font-size="11" font-weight="500">
                            <tspan x="0.624511719" y="38">SHARE</tspan>
                        </text>
                    </g>
                </g>
            </g>
        </g>
    </g>
</svg>