<?xml version="1.0" encoding="UTF-8" standalone="no"?>
<svg width="113px" height="147px" viewBox="0 0 113 147" version="1.1" xmlns="http://www.w3.org/2000/svg" xmlns:xlink="http://www.w3.org/1999/xlink">
    <!-- Generator: sketchtool 40.3 (33839) - http://www.bohemiancoding.com/sketch -->
    <title>C48318BC-C449-4CCB-842B-6C1AB9041A6E</title>
    <desc>Created with sketchtool.</desc>
    <defs>
        <polygon id="path-1" points="11.635 11.5617 11.635 0.6237 0.6971 0.6237 0.6971 11.5617 11.635 11.5617"></polygon>
    </defs>
    <g id="Page-1" stroke="none" stroke-width="1" fill="none" fill-rule="evenodd">
        <g id="Desktop-HD" transform="translate(-243.000000, -2240.000000)">
            <g id="why-scifabric" transform="translate(-11.000000, 1850.000000)">
                <g id="arrows" transform="translate(254.000000, 389.000000)">
                    <path d="M53.188,147.829 C51.999,147.829 51.036,146.867 51.036,145.677 C51.036,117.762 36.814,92.373 12.99,77.76 C11.977,77.138 11.658,75.814 12.28,74.801 C12.9,73.786 14.226,73.471 15.239,74.091 C40.348,89.494 55.34,116.255 55.34,145.677 C55.34,146.867 54.377,147.829 53.188,147.829" id="Fill-1" fill="#077DA1"></path>
                    <path d="M52.8476,147.829 C51.6586,147.829 50.6956,146.867 50.6956,145.677 C50.6956,116.255 65.6876,89.494 90.7966,74.091 C91.8056,73.471 93.1336,73.786 93.7556,74.801 C94.3776,75.814 94.0586,77.138 93.0456,77.76 C69.2216,92.373 54.9996,117.762 54.9996,145.677 C54.9996,146.867 54.0366,147.829 52.8476,147.829" id="Fill-3" fill="#077DA1"></path>
                    <path d="M10.1513,98.3368 C8.9623,98.3368 7.9993,97.3748 7.9993,96.1848 L7.9993,72.5148 C7.9993,71.3258 8.9623,70.3628 10.1513,70.3628 L33.8213,70.3628 C35.0113,70.3628 35.9733,71.3258 35.9733,72.5148 C35.9733,73.7038 35.0113,74.6668 33.8213,74.6668 L12.3033,74.6668 L12.3033,96.1848 C12.3033,97.3748 11.3403,98.3368 10.1513,98.3368" id="Fill-5" fill="#077DA1"></path>
                    <path d="M94.0728,98.3368 C92.8838,98.3368 91.9208,97.3748 91.9208,96.1848 L91.9208,74.6668 L70.4028,74.6668 C69.2128,74.6668 68.2508,73.7038 68.2508,72.5148 C68.2508,71.3258 69.2128,70.3628 70.4028,70.3628 L94.0728,70.3628 C95.2618,70.3628 96.2248,71.3258 96.2248,72.5148 L96.2248,96.1848 C96.2248,97.3748 95.2618,98.3368 94.0728,98.3368" id="Fill-7" fill="#077DA1"></path>
                    <g id="Group-11" transform="translate(101.000000, 0.829000)">
                        <mask id="mask-2" fill="white">
                            <use xlink:href="#path-1"></use>
                        </mask>
                        <g id="Clip-10"></g>
                        <path d="M11.6351,6.0927 C11.6351,9.1127 9.1861,11.5617 6.1661,11.5617 C3.1461,11.5617 0.6971,9.1127 0.6971,6.0927 C0.6971,3.0727 3.1461,0.6237 6.1661,0.6237 C9.1861,0.6237 11.6351,3.0727 11.6351,6.0927" id="Fill-9" fill="#EC008C" mask="url(#mask-2)"></path>
                    </g>
                    <path d="M28.8191,5.215 C29.7621,8.346 27.9881,11.648 24.8571,12.59 C21.7271,13.533 18.4241,11.759 17.4821,8.628 C16.5391,5.498 18.3131,2.196 21.4441,1.253 C24.5741,0.311 27.8761,2.084 28.8191,5.215" id="Fill-12" fill="#2E3192"></path>
                    <path d="M72.8177,42.8258 C72.4967,42.8258 72.1727,42.7448 71.8757,42.5728 C70.9727,42.0518 70.6627,40.8978 71.1847,39.9948 L80.3707,24.0858 C80.8927,23.1808 82.0467,22.8718 82.9497,23.3948 C83.8527,23.9168 84.1627,25.0708 83.6407,25.9738 L74.4547,41.8818 C74.1047,42.4888 73.4697,42.8258 72.8177,42.8258" id="Fill-14" fill="#46C0EF"></path>
                    <path d="M42.0623,55.1401 C41.5793,55.1401 41.0963,54.9561 40.7283,54.5871 L27.7373,41.5961 C26.9993,40.8591 26.9993,39.6651 27.7373,38.9271 C28.4743,38.1901 29.6683,38.1901 30.4063,38.9271 L43.3963,51.9181 C44.1343,52.6551 44.1343,53.8501 43.3963,54.5871 C43.0283,54.9561 42.5453,55.1401 42.0623,55.1401" id="Fill-16" fill="#EC008C"></path>
                    <path d="M89.7124,39.5172 C89.0604,39.5172 88.4254,39.1802 88.0754,38.5732 C87.5544,37.6702 87.8634,36.5162 88.7664,35.9952 L104.8574,26.7052 C105.7554,26.1832 106.9134,26.4912 107.4364,27.3962 C107.9584,28.2992 107.6484,29.4532 106.7454,29.9752 L90.6544,39.2642 C90.3574,39.4362 90.0334,39.5172 89.7124,39.5172" id="Fill-18" fill="#2E3192"></path>
                    <path d="M7.7017,34.8061 C7.0497,34.8061 6.4147,34.4691 6.0647,33.8621 L0.2537,23.7951 C-0.2683,22.8921 0.0417,21.7381 0.9447,21.2161 C1.8437,20.6931 2.9997,21.0021 3.5227,21.9071 L9.3347,31.9751 C9.8567,32.8781 9.5467,34.0321 8.6437,34.5531 C8.3467,34.7251 8.0227,34.8061 7.7017,34.8061" id="Fill-20" fill="#46C0EF"></path>
                </g>
            </g>
        </g>
    </g>
</svg>