<?xml version="1.0" encoding="UTF-8" standalone="no"?>
<!-- Generator: Adobe Illustrator 20.1.0, SVG Export Plug-In . SVG Version: 6.00 Build 0)  -->

<svg
   xmlns:dc="http://purl.org/dc/elements/1.1/"
   xmlns:cc="http://creativecommons.org/ns#"
   xmlns:rdf="http://www.w3.org/1999/02/22-rdf-syntax-ns#"
   xmlns:svg="http://www.w3.org/2000/svg"
   xmlns="http://www.w3.org/2000/svg"
   xmlns:sodipodi="http://sodipodi.sourceforge.net/DTD/sodipodi-0.dtd"
   xmlns:inkscape="http://www.inkscape.org/namespaces/inkscape"
   version="1.1"
   id="Layer_1"
   x="0px"
   y="0px"
   viewBox="0 0 520.6 430.7"
   style="enable-background:new 0 0 520.6 430.7;"
   xml:space="preserve"
   inkscape:version="0.91 r13725"
   sodipodi:docname="graphic2.svg"><metadata
     id="metadata161"><rdf:RDF><cc:Work
         rdf:about=""><dc:format>image/svg+xml</dc:format><dc:type
           rdf:resource="http://purl.org/dc/dcmitype/StillImage" /><dc:title></dc:title></cc:Work></rdf:RDF></metadata><defs
     id="defs159" /><sodipodi:namedview
     pagecolor="#ffffff"
     bordercolor="#666666"
     borderopacity="1"
     objecttolerance="10"
     gridtolerance="10"
     guidetolerance="10"
     inkscape:pageopacity="0"
     inkscape:pageshadow="2"
     inkscape:window-width="1920"
     inkscape:window-height="1056"
     id="namedview157"
     showgrid="false"
     inkscape:zoom="0.53015754"
     inkscape:cx="264.07245"
     inkscape:cy="215.35001"
     inkscape:window-x="0"
     inkscape:window-y="24"
     inkscape:window-maximized="1"
     inkscape:current-layer="layer1" /><style
     type="text/css"
     id="style3">
	.st0{fill:#808184;}
	.st1{opacity:0.2;fill:#46C0EF;}
	.st2{fill:#46C0EF;}
	.st3{fill:#A6A8AB;}
	.st4{fill:#BBBDBF;}
</style><g
     id="layer1"
     transform="translate(-284.59978,-463.99421)"
     inkscape:groupmode="layer"
     inkscape:label="Layer 1"><g
       id="g6617"
       transform="matrix(1.5003761,0,0,-1.5003761,-367.17041,1695.3477)"><g
         id="g7"><path
           class="st0"
           d="M477.5,793.2h-1.4v5.5c0,0.7,0,1.2,0,1.6c-0.1-0.1-0.2-0.2-0.3-0.3c-0.1-0.1-0.6-0.5-1.3-1.1l-0.7,0.9l2.5,2     h1.1V793.2z"
           id="path9" /><path
           class="st0"
           d="M486,797.5c0-1.5-0.2-2.6-0.7-3.3c-0.5-0.7-1.2-1.1-2.2-1.1c-0.9,0-1.7,0.4-2.1,1.1s-0.7,1.8-0.7,3.2     c0,1.5,0.2,2.6,0.7,3.3c0.5,0.7,1.2,1.1,2.2,1.1c0.9,0,1.7-0.4,2.2-1.1C485.8,800,486,798.9,486,797.5z M481.7,797.5     c0-1.2,0.1-2,0.4-2.5c0.2-0.5,0.6-0.7,1.1-0.7s0.9,0.3,1.1,0.8c0.2,0.5,0.4,1.3,0.4,2.5c0,1.1-0.1,2-0.4,2.5     c-0.2,0.5-0.6,0.8-1.1,0.8s-0.9-0.2-1.1-0.7C481.8,799.4,481.7,798.6,481.7,797.5z"
           id="path11" /><path
           class="st0"
           d="M492.8,797.5c0-1.5-0.2-2.6-0.7-3.3c-0.5-0.7-1.2-1.1-2.2-1.1c-0.9,0-1.7,0.4-2.1,1.1     c-0.5,0.7-0.7,1.8-0.7,3.2c0,1.5,0.2,2.6,0.7,3.3c0.5,0.7,1.2,1.1,2.2,1.1c0.9,0,1.7-0.4,2.2-1.1     C492.6,800,492.8,798.9,492.8,797.5z M488.4,797.5c0-1.2,0.1-2,0.4-2.5c0.2-0.5,0.6-0.7,1.1-0.7s0.9,0.3,1.1,0.8     c0.2,0.5,0.4,1.3,0.4,2.5c0,1.1-0.1,2-0.4,2.5c-0.2,0.5-0.6,0.8-1.1,0.8s-0.9-0.2-1.1-0.7C488.6,799.4,488.4,798.6,488.4,797.5z"
           id="path13" /><path
           class="st0"
           d="M497.6,799.2c0-0.9-0.2-1.6-0.5-2c-0.3-0.4-0.8-0.7-1.4-0.7c-0.6,0-1,0.2-1.4,0.7c-0.3,0.5-0.5,1.1-0.5,2     c0,1.8,0.6,2.6,1.8,2.6c0.6,0,1.1-0.2,1.4-0.7C497.4,800.7,497.6,800,497.6,799.2z M494.9,799.2c0-0.6,0.1-1,0.2-1.3     c0.1-0.3,0.3-0.4,0.6-0.4c0.5,0,0.8,0.6,0.8,1.7s-0.3,1.7-0.8,1.7c-0.3,0-0.4-0.1-0.6-0.4C495,800.2,494.9,799.7,494.9,799.2z      M501.3,801.7l-4.7-8.5h-1.1l4.7,8.5H501.3z M503.1,795.8c0-0.9-0.2-1.6-0.5-2c-0.3-0.4-0.8-0.7-1.4-0.7c-0.6,0-1,0.2-1.4,0.7     c-0.3,0.5-0.5,1.1-0.5,2c0,1.8,0.6,2.6,1.9,2.6c0.6,0,1.1-0.2,1.4-0.7C502.9,797.3,503.1,796.6,503.1,795.8z M500.5,795.8     c0-0.6,0.1-1,0.2-1.3c0.1-0.3,0.3-0.4,0.6-0.4c0.5,0,0.8,0.6,0.8,1.7c0,1.1-0.3,1.7-0.8,1.7c-0.3,0-0.4-0.1-0.6-0.4     C500.5,796.8,500.5,796.3,500.5,795.8z"
           id="path15" /></g><g
         id="g17"><path
           class="st0"
           d="M486,736.9c0-1.7-0.3-2.9-1-3.7c-0.7-0.8-1.7-1.2-3-1.2c-0.5,0-0.9,0-1.1,0.1v1.1c0.3-0.1,0.7-0.1,1-0.1     c0.9,0,1.6,0.2,2.1,0.7c0.5,0.5,0.7,1.3,0.7,2.3h-0.1c-0.2-0.3-0.5-0.6-0.8-0.8c-0.3-0.2-0.7-0.2-1.1-0.2c-0.7,0-1.3,0.2-1.8,0.7     c-0.4,0.5-0.6,1.1-0.6,1.9c0,0.9,0.2,1.6,0.7,2.1c0.5,0.5,1.2,0.8,2,0.8c0.6,0,1.1-0.1,1.6-0.4s0.8-0.7,1-1.3     C485.9,738.4,486,737.7,486,736.9z M483.1,739.5c-0.5,0-0.8-0.2-1.1-0.5c-0.3-0.3-0.4-0.7-0.4-1.3c0-0.5,0.1-0.9,0.4-1.1     s0.6-0.4,1.1-0.4c0.5,0,0.8,0.1,1.2,0.4s0.5,0.6,0.5,1c0,0.3-0.1,0.7-0.2,1c-0.1,0.3-0.3,0.5-0.6,0.7S483.4,739.5,483.1,739.5z"
           id="path19" /><path
           class="st0"
           d="M492.8,736.3c0-1.5-0.2-2.6-0.7-3.3c-0.5-0.7-1.2-1.1-2.2-1.1c-0.9,0-1.7,0.4-2.1,1.1s-0.7,1.8-0.7,3.2     c0,1.5,0.2,2.6,0.7,3.3c0.5,0.7,1.2,1.1,2.2,1.1c0.9,0,1.7-0.4,2.2-1.1C492.6,738.8,492.8,737.7,492.8,736.3z M488.4,736.3     c0-1.2,0.1-2,0.4-2.5c0.2-0.5,0.6-0.7,1.1-0.7s0.9,0.3,1.1,0.8s0.4,1.3,0.4,2.5c0,1.1-0.1,2-0.4,2.5s-0.6,0.8-1.1,0.8     s-0.9-0.2-1.1-0.7C488.6,738.3,488.4,737.5,488.4,736.3z"
           id="path21" /><path
           class="st0"
           d="M497.6,738c0-0.9-0.2-1.6-0.5-2c-0.3-0.4-0.8-0.7-1.4-0.7c-0.6,0-1,0.2-1.4,0.7c-0.3,0.5-0.5,1.1-0.5,2     c0,1.8,0.6,2.6,1.8,2.6c0.6,0,1.1-0.2,1.4-0.7C497.4,739.5,497.6,738.9,497.6,738z M494.9,738c0-0.6,0.1-1,0.2-1.3     c0.1-0.3,0.3-0.4,0.6-0.4c0.5,0,0.8,0.6,0.8,1.7s-0.3,1.7-0.8,1.7c-0.3,0-0.4-0.1-0.6-0.4C495,739,494.9,738.6,494.9,738z      M501.3,740.5l-4.7-8.5h-1.1l4.7,8.5H501.3z M503.1,734.6c0-0.9-0.2-1.6-0.5-2s-0.8-0.7-1.4-0.7c-0.6,0-1,0.2-1.4,0.7     c-0.3,0.5-0.5,1.1-0.5,2c0,1.8,0.6,2.6,1.9,2.6c0.6,0,1.1-0.2,1.4-0.7C502.9,736.1,503.1,735.5,503.1,734.6z M500.5,734.6     c0-0.6,0.1-1,0.2-1.3c0.1-0.3,0.3-0.4,0.6-0.4c0.5,0,0.8,0.6,0.8,1.7c0,1.1-0.3,1.7-0.8,1.7c-0.3,0-0.4-0.1-0.6-0.4     C500.5,735.6,500.5,735.2,500.5,734.6z"
           id="path23" /></g><g
         id="g25"><path
           class="st0"
           d="M483.2,675.8c0.8,0,1.4-0.2,1.9-0.6c0.5-0.4,0.7-0.9,0.7-1.5c0-0.9-0.5-1.6-1.6-2.1c0.7-0.3,1.1-0.7,1.4-1     c0.3-0.4,0.4-0.8,0.4-1.2c0-0.7-0.3-1.3-0.8-1.7c-0.5-0.4-1.2-0.6-2.1-0.6c-0.9,0-1.6,0.2-2.1,0.6c-0.5,0.4-0.8,1-0.8,1.7     c0,0.5,0.1,0.9,0.4,1.3c0.3,0.4,0.7,0.7,1.3,1c-0.5,0.3-0.9,0.6-1.1,1c-0.2,0.3-0.3,0.7-0.3,1.2c0,0.6,0.2,1.1,0.7,1.5     C481.8,675.6,482.4,675.8,483.2,675.8z M481.6,669.4c0-0.4,0.1-0.7,0.4-0.9c0.3-0.2,0.7-0.3,1.1-0.3c0.5,0,0.9,0.1,1.2,0.3     c0.3,0.2,0.4,0.5,0.4,0.9c0,0.3-0.1,0.6-0.4,0.9c-0.3,0.3-0.6,0.5-1.2,0.7L483,671c-0.5-0.2-0.9-0.5-1.1-0.7     C481.7,670,481.6,669.7,481.6,669.4z M483.1,674.7c-0.4,0-0.7-0.1-0.9-0.3c-0.2-0.2-0.4-0.5-0.4-0.8c0-0.2,0-0.4,0.1-0.5     c0.1-0.2,0.2-0.3,0.4-0.4c0.2-0.1,0.4-0.3,0.8-0.5c0.5,0.2,0.8,0.4,1,0.6c0.2,0.2,0.3,0.5,0.3,0.8c0,0.3-0.1,0.6-0.4,0.8     C483.9,674.6,483.5,674.7,483.1,674.7z"
           id="path27" /><path
           class="st0"
           d="M492.8,671.4c0-1.5-0.2-2.6-0.7-3.3c-0.5-0.7-1.2-1.1-2.2-1.1c-0.9,0-1.7,0.4-2.1,1.1     c-0.5,0.7-0.7,1.8-0.7,3.2c0,1.5,0.2,2.6,0.7,3.3c0.5,0.7,1.2,1.1,2.2,1.1c0.9,0,1.7-0.4,2.2-1.1     C492.6,673.9,492.8,672.8,492.8,671.4z M488.4,671.4c0-1.2,0.1-2,0.4-2.5c0.2-0.5,0.6-0.7,1.1-0.7s0.9,0.3,1.1,0.8     c0.2,0.5,0.4,1.3,0.4,2.5c0,1.1-0.1,2-0.4,2.5c-0.2,0.5-0.6,0.8-1.1,0.8s-0.9-0.2-1.1-0.7C488.6,673.4,488.4,672.6,488.4,671.4z"
           id="path29" /><path
           class="st0"
           d="M497.6,673.1c0-0.9-0.2-1.6-0.5-2c-0.3-0.4-0.8-0.7-1.4-0.7c-0.6,0-1,0.2-1.4,0.7c-0.3,0.5-0.5,1.1-0.5,2     c0,1.8,0.6,2.6,1.8,2.6c0.6,0,1.1-0.2,1.4-0.7C497.4,674.6,497.6,674,497.6,673.1z M494.9,673.1c0-0.6,0.1-1,0.2-1.3     c0.1-0.3,0.3-0.4,0.6-0.4c0.5,0,0.8,0.6,0.8,1.7s-0.3,1.7-0.8,1.7c-0.3,0-0.4-0.1-0.6-0.4C495,674.1,494.9,673.7,494.9,673.1z      M501.3,675.7l-4.7-8.5h-1.1l4.7,8.5H501.3z M503.1,669.7c0-0.9-0.2-1.6-0.5-2c-0.3-0.4-0.8-0.7-1.4-0.7c-0.6,0-1,0.2-1.4,0.7     c-0.3,0.5-0.5,1.1-0.5,2c0,1.8,0.6,2.6,1.9,2.6c0.6,0,1.1-0.2,1.4-0.7C502.9,671.2,503.1,670.6,503.1,669.7z M500.5,669.7     c0-0.6,0.1-1,0.2-1.3c0.1-0.3,0.3-0.4,0.6-0.4c0.5,0,0.8,0.6,0.8,1.7c0,1.1-0.3,1.7-0.8,1.7c-0.3,0-0.4-0.1-0.6-0.4     C500.5,670.7,500.5,670.3,500.5,669.7z"
           id="path31" /></g><g
         id="g33"><path
           class="st0"
           d="M481.3,607.8l3.4,7.3h-4.4v1.2h5.9v-1l-3.3-7.5H481.3z"
           id="path35" /><path
           class="st0"
           d="M492.8,612.1c0-1.5-0.2-2.6-0.7-3.3c-0.5-0.7-1.2-1.1-2.2-1.1c-0.9,0-1.7,0.4-2.1,1.1     c-0.5,0.7-0.7,1.8-0.7,3.2c0,1.5,0.2,2.6,0.7,3.3c0.5,0.7,1.2,1.1,2.2,1.1c0.9,0,1.7-0.4,2.2-1.1     C492.6,614.6,492.8,613.5,492.8,612.1z M488.4,612.1c0-1.2,0.1-2,0.4-2.5c0.2-0.5,0.6-0.7,1.1-0.7s0.9,0.3,1.1,0.8     c0.2,0.5,0.4,1.3,0.4,2.5c0,1.1-0.1,2-0.4,2.5c-0.2,0.5-0.6,0.8-1.1,0.8s-0.9-0.2-1.1-0.7C488.6,614,488.4,613.2,488.4,612.1z"
           id="path37" /><path
           class="st0"
           d="M497.6,613.8c0-0.9-0.2-1.6-0.5-2c-0.3-0.4-0.8-0.7-1.4-0.7c-0.6,0-1,0.2-1.4,0.7c-0.3,0.5-0.5,1.1-0.5,2     c0,1.8,0.6,2.6,1.8,2.6c0.6,0,1.1-0.2,1.4-0.7C497.4,615.3,497.6,614.6,497.6,613.8z M494.9,613.8c0-0.6,0.1-1,0.2-1.3     c0.1-0.3,0.3-0.4,0.6-0.4c0.5,0,0.8,0.6,0.8,1.7s-0.3,1.7-0.8,1.7c-0.3,0-0.4-0.1-0.6-0.4C495,614.8,494.9,614.3,494.9,613.8z      M501.3,616.3l-4.7-8.5h-1.1l4.7,8.5H501.3z M503.1,610.4c0-0.9-0.2-1.6-0.5-2c-0.3-0.4-0.8-0.7-1.4-0.7c-0.6,0-1,0.2-1.4,0.7     c-0.3,0.5-0.5,1.1-0.5,2c0,1.8,0.6,2.6,1.9,2.6c0.6,0,1.1-0.2,1.4-0.7C502.9,611.9,503.1,611.2,503.1,610.4z M500.5,610.4     c0-0.6,0.1-1,0.2-1.3c0.1-0.3,0.3-0.4,0.6-0.4c0.5,0,0.8,0.6,0.8,1.7c0,1.1-0.3,1.7-0.8,1.7c-0.3,0-0.4-0.1-0.6-0.4     C500.5,611.4,500.5,610.9,500.5,610.4z"
           id="path39" /></g><path
         class="st1"
         d="M520.2,769c0,0,5.2,5.3,27.2,8.3s46.4,3,92.1,2.4c45.7-0.6,114,0.3,114,0.3v-11c0,0-55.1-1.2-87.5-3    c-32.4-1.8-69.2-1.8-99.5-14.8c-18.4-8.3-34.4-18.4-46.3-52.2C520.2,735.2,520.2,769,520.2,769z"
         id="path41" /><g
         id="g43"><path
           class="st2"
           d="M520.2,739.6c-0.3,0-0.6,0.1-0.9,0.3c-0.7,0.5-0.9,1.5-0.5,2.2c0.3,0.5,8.6,12.9,18.4,17.8     c0.3,0.2,0.7,0.3,1.1,0.5c9.7,4.9,23,11.6,99.4,13.3c78,1.8,115.4,3,115.7,3c0.9,0,1.6-0.7,1.6-1.5c0-0.9-0.7-1.6-1.5-1.6     c-0.4,0-37.7-1.2-115.8-3c-75.7-1.7-88.6-8.2-98-13c-0.4-0.2-0.7-0.4-1.1-0.5c-9.1-4.5-17.1-16.5-17.1-16.7     C521.2,739.8,520.7,739.6,520.2,739.6z"
           id="path45" /></g><g
         id="g47"><path
           class="st0"
           d="M565.1,587.4h-1.4v5.5c0,0.7,0,1.2,0,1.6c-0.1-0.1-0.2-0.2-0.3-0.3c-0.1-0.1-0.6-0.5-1.3-1.1l-0.7,0.9l2.5,2     h1.1V587.4z"
           id="path49" /><path
           class="st0"
           d="M573.6,591.7c0-1.5-0.2-2.6-0.7-3.3c-0.5-0.7-1.2-1.1-2.2-1.1c-0.9,0-1.7,0.4-2.1,1.1     c-0.5,0.7-0.7,1.8-0.7,3.2c0,1.5,0.2,2.6,0.7,3.3c0.5,0.7,1.2,1.1,2.2,1.1c0.9,0,1.7-0.4,2.2-1.1     C573.4,594.2,573.6,593.1,573.6,591.7z M569.3,591.7c0-1.2,0.1-2,0.4-2.5c0.2-0.5,0.6-0.7,1.1-0.7c0.5,0,0.9,0.3,1.1,0.8     s0.4,1.3,0.4,2.5c0,1.1-0.1,2-0.4,2.5c-0.2,0.5-0.6,0.8-1.1,0.8c-0.5,0-0.9-0.2-1.1-0.7C569.4,593.7,569.3,592.8,569.3,591.7z"
           id="path51" /></g><g
         id="g53"><path
           class="st0"
           d="M629.5,587.4h-5.7v1l2.2,2.2c0.6,0.7,1.1,1.1,1.3,1.4c0.2,0.3,0.4,0.5,0.5,0.8c0.1,0.2,0.1,0.5,0.1,0.8     c0,0.4-0.1,0.7-0.3,0.9s-0.5,0.3-1,0.3c-0.3,0-0.6-0.1-0.9-0.2c-0.3-0.1-0.7-0.3-1.1-0.6l-0.7,0.9c0.5,0.4,0.9,0.7,1.4,0.8     c0.4,0.2,0.9,0.2,1.4,0.2c0.8,0,1.4-0.2,1.9-0.6s0.7-1,0.7-1.7c0-0.4-0.1-0.7-0.2-1.1c-0.1-0.3-0.3-0.7-0.6-1.1     c-0.3-0.4-0.8-0.9-1.4-1.5l-1.5-1.4v-0.1h4V587.4z"
           id="path55" /><path
           class="st0"
           d="M636.3,591.7c0-1.5-0.2-2.6-0.7-3.3c-0.5-0.7-1.2-1.1-2.2-1.1c-0.9,0-1.7,0.4-2.1,1.1     c-0.5,0.7-0.7,1.8-0.7,3.2c0,1.5,0.2,2.6,0.7,3.3c0.5,0.7,1.2,1.1,2.2,1.1c0.9,0,1.7-0.4,2.2-1.1     C636.1,594.2,636.3,593.1,636.3,591.7z M631.9,591.7c0-1.2,0.1-2,0.4-2.5c0.2-0.5,0.6-0.7,1.1-0.7c0.5,0,0.9,0.3,1.1,0.8     s0.4,1.3,0.4,2.5c0,1.1-0.1,2-0.4,2.5c-0.2,0.5-0.6,0.8-1.1,0.8c-0.5,0-0.9-0.2-1.1-0.7C632,593.7,631.9,592.8,631.9,591.7z"
           id="path57" /></g><g
         id="g59"><path
           class="st0"
           d="M692.1,594c0-0.5-0.2-1-0.5-1.3c-0.3-0.4-0.8-0.6-1.3-0.7v0c0.7-0.1,1.2-0.3,1.5-0.6s0.5-0.8,0.5-1.3     c0-0.8-0.3-1.4-0.9-1.9c-0.6-0.4-1.4-0.7-2.5-0.7c-0.9,0-1.7,0.2-2.4,0.5v1.2c0.4-0.2,0.7-0.3,1.1-0.4c0.4-0.1,0.8-0.1,1.2-0.1     c0.7,0,1.1,0.1,1.5,0.4s0.5,0.6,0.5,1.1c0,0.5-0.2,0.8-0.5,1c-0.4,0.2-0.9,0.3-1.7,0.3h-0.7v1.1h0.7c1.4,0,2,0.5,2,1.4     c0,0.4-0.1,0.6-0.4,0.8s-0.6,0.3-1,0.3c-0.3,0-0.6,0-0.9-0.1c-0.3-0.1-0.6-0.3-1.1-0.5l-0.7,1c0.8,0.6,1.7,0.9,2.7,0.9     c0.9,0,1.5-0.2,2-0.6S692.1,594.6,692.1,594z"
           id="path61" /><path
           class="st0"
           d="M699.2,591.7c0-1.5-0.2-2.6-0.7-3.3c-0.5-0.7-1.2-1.1-2.2-1.1c-0.9,0-1.7,0.4-2.1,1.1s-0.7,1.8-0.7,3.2     c0,1.5,0.2,2.6,0.7,3.3c0.5,0.7,1.2,1.1,2.2,1.1c0.9,0,1.7-0.4,2.2-1.1C699,594.2,699.2,593.1,699.2,591.7z M694.8,591.7     c0-1.2,0.1-2,0.4-2.5c0.2-0.5,0.6-0.7,1.1-0.7c0.5,0,0.9,0.3,1.1,0.8c0.2,0.5,0.4,1.3,0.4,2.5c0,1.1-0.1,2-0.4,2.5     c-0.2,0.5-0.6,0.8-1.1,0.8c-0.5,0-0.9-0.2-1.1-0.7C694.9,593.7,694.8,592.8,694.8,591.7z"
           id="path63" /></g><g
         id="g65"><path
           class="st0"
           d="M755.4,589.3h-1.1v-1.8h-1.3v1.8H749v1l3.9,5.6h1.3v-5.5h1.1V589.3z M752.9,590.4v2.1c0,0.8,0,1.4,0.1,1.9h0     c-0.1-0.3-0.3-0.6-0.5-0.9l-2.1-3.1H752.9z"
           id="path67" /><path
           class="st0"
           d="M761.9,591.7c0-1.5-0.2-2.6-0.7-3.3c-0.5-0.7-1.2-1.1-2.2-1.1c-0.9,0-1.7,0.4-2.1,1.1     c-0.5,0.7-0.7,1.8-0.7,3.2c0,1.5,0.2,2.6,0.7,3.3c0.5,0.7,1.2,1.1,2.2,1.1c0.9,0,1.7-0.4,2.2-1.1     C761.6,594.2,761.9,593.1,761.9,591.7z M757.5,591.7c0-1.2,0.1-2,0.4-2.5c0.2-0.5,0.6-0.7,1.1-0.7c0.5,0,0.9,0.3,1.1,0.8     s0.4,1.3,0.4,2.5c0,1.1-0.1,2-0.4,2.5c-0.2,0.5-0.6,0.8-1.1,0.8c-0.5,0-0.9-0.2-1.1-0.7C757.6,593.7,757.5,592.8,757.5,591.7z"
           id="path69" /></g><g
         id="g71"><path
           class="st0"
           d="M558.4,556.4h-1.7l-4.2,6.9h0l0-0.4c0.1-0.7,0.1-1.4,0.1-2v-4.5h-1.3v8.6h1.7l4.2-6.8h0c0,0.1,0,0.4,0,1     c0,0.6,0,1,0,1.3v4.5h1.3V556.4z"
           id="path73" /><path
           class="st0"
           d="M567.4,565v-5.6c0-0.6-0.1-1.2-0.4-1.7c-0.3-0.5-0.7-0.8-1.2-1.1c-0.5-0.3-1.1-0.4-1.8-0.4     c-1.1,0-1.9,0.3-2.5,0.8s-0.9,1.3-0.9,2.3v5.5h1.4v-5.4c0-0.7,0.2-1.2,0.5-1.6c0.3-0.3,0.8-0.5,1.5-0.5c1.3,0,2,0.7,2,2.1v5.4     H567.4z"
           id="path75" /><path
           class="st0"
           d="M573.3,556.4l-2.5,7.2h0c0.1-1.1,0.1-2.1,0.1-3v-4.2h-1.3v8.6h2l2.4-6.8h0l2.5,6.8h2v-8.6h-1.4v4.3     c0,0.4,0,1,0,1.7c0,0.7,0,1.1,0.1,1.2h0l-2.6-7.2H573.3z"
           id="path77" /><path
           class="st0"
           d="M580.7,565h2.6c1.2,0,2-0.2,2.6-0.5c0.5-0.3,0.8-0.9,0.8-1.6c0-0.5-0.1-0.9-0.4-1.3     c-0.3-0.3-0.6-0.5-1.1-0.6v-0.1c0.6-0.1,1-0.3,1.3-0.7c0.3-0.3,0.4-0.8,0.4-1.4c0-0.8-0.3-1.4-0.8-1.8c-0.5-0.4-1.3-0.7-2.2-0.7     h-3.1V565z M582.1,561.4h1.4c0.6,0,1,0.1,1.3,0.3s0.4,0.5,0.4,0.9c0,0.4-0.1,0.7-0.4,0.9c-0.3,0.2-0.8,0.3-1.4,0.3h-1.2V561.4z      M582.1,560.3v-2.7h1.5c0.6,0,1,0.1,1.3,0.3c0.3,0.2,0.4,0.6,0.4,1.1c0,0.4-0.2,0.8-0.5,1c-0.3,0.2-0.8,0.3-1.4,0.3H582.1z"
           id="path79" /><path
           class="st0"
           d="M593.5,556.4h-4.9v8.6h4.9v-1.2h-3.5v-2.3h3.2v-1.2h-3.2v-2.7h3.5V556.4z"
           id="path81" /><path
           class="st0"
           d="M596.8,559.8v-3.4h-1.4v8.6h2.4c1.1,0,1.9-0.2,2.5-0.6c0.5-0.4,0.8-1,0.8-1.9c0-1.1-0.6-1.8-1.7-2.3l2.4-3.8     h-1.6l-2.1,3.4H596.8z M596.8,561h1c0.7,0,1.1,0.1,1.4,0.4c0.3,0.2,0.4,0.6,0.4,1.1c0,0.5-0.2,0.8-0.5,1     c-0.3,0.2-0.8,0.3-1.4,0.3h-0.9V561z"
           id="path83" /><path
           class="st0"
           d="M613.8,560.7c0-1.4-0.4-2.5-1-3.3s-1.7-1.2-3-1.2c-1.3,0-2.3,0.4-3,1.2c-0.7,0.8-1,1.9-1,3.3     c0,1.4,0.4,2.5,1,3.3c0.7,0.8,1.7,1.1,3,1.1c1.3,0,2.3-0.4,3-1.2C613.5,563.2,613.8,562.1,613.8,560.7z M607.3,560.7     c0-1.1,0.2-1.9,0.6-2.4c0.4-0.5,1.1-0.8,1.9-0.8c0.8,0,1.5,0.3,1.9,0.8c0.4,0.5,0.6,1.3,0.6,2.4c0,1.1-0.2,1.9-0.6,2.4     c-0.4,0.5-1,0.8-1.9,0.8c-0.8,0-1.5-0.3-1.9-0.8S607.3,561.7,607.3,560.7z"
           id="path85" /><path
           class="st0"
           d="M617.1,556.4h-1.4v8.6h4.9v-1.2h-3.5v-2.7h3.2v-1.2h-3.2V556.4z"
           id="path87" /><path
           class="st0"
           d="M628.9,563.9c-0.8,0-1.4-0.3-1.9-0.9c-0.5-0.6-0.7-1.4-0.7-2.4c0-1.1,0.2-1.9,0.7-2.4     c0.4-0.5,1.1-0.8,1.9-0.8c0.4,0,0.7,0,1.1,0.1c0.3,0.1,0.7,0.2,1.1,0.3v-1.2c-0.7-0.3-1.4-0.4-2.3-0.4c-1.3,0-2.2,0.4-2.9,1.1     c-0.7,0.8-1,1.9-1,3.3c0,0.9,0.2,1.7,0.5,2.3c0.3,0.7,0.8,1.2,1.4,1.5c0.6,0.4,1.3,0.5,2.2,0.5c0.9,0,1.7-0.2,2.4-0.6l-0.5-1.2     c-0.3,0.1-0.6,0.3-0.9,0.4C629.6,563.8,629.2,563.9,628.9,563.9z"
           id="path89" /><path
           class="st0"
           d="M632.8,556.4v8.6h1.4v-8.6H632.8z"
           id="path91" /><path
           class="st0"
           d="M639.5,556.4h-1.4v7.4h-2.5v1.2h6.5v-1.2h-2.5V556.4z"
           id="path93" /><path
           class="st0"
           d="M643.3,556.4v8.6h1.4v-8.6H643.3z"
           id="path95" /><path
           class="st0"
           d="M652.4,556.4h-6.2v1l4.3,6.4h-4.2v1.2h5.9v-1l-4.4-6.4h4.5V556.4z"
           id="path97" /><path
           class="st0"
           d="M658.8,556.4h-4.9v8.6h4.9v-1.2h-3.5v-2.3h3.2v-1.2h-3.2v-2.7h3.5V556.4z"
           id="path99" /><path
           class="st0"
           d="M667.8,556.4h-1.7l-4.2,6.9h0l0-0.4c0.1-0.7,0.1-1.4,0.1-2v-4.5h-1.3v8.6h1.7l4.2-6.8h0c0,0.1,0,0.4,0,1     c0,0.6,0,1,0,1.3v4.5h1.3V556.4z"
           id="path101" /><path
           class="st0"
           d="M678.2,558.7c0-0.8-0.3-1.4-0.8-1.8c-0.6-0.4-1.3-0.7-2.3-0.7c-1,0-1.8,0.2-2.4,0.5v1.3     c0.4-0.2,0.8-0.3,1.2-0.4c0.4-0.1,0.9-0.2,1.2-0.2c0.6,0,1,0.1,1.2,0.3s0.4,0.5,0.4,0.9c0,0.3-0.1,0.6-0.4,0.8     c-0.2,0.2-0.7,0.5-1.5,0.8c-0.8,0.3-1.3,0.7-1.7,1.1c-0.3,0.4-0.5,0.9-0.5,1.5c0,0.7,0.3,1.3,0.8,1.7s1.2,0.6,2.1,0.6     c0.8,0,1.6-0.2,2.5-0.5l-0.4-1.1c-0.8,0.3-1.4,0.5-2,0.5c-0.5,0-0.8-0.1-1-0.3c-0.2-0.2-0.4-0.5-0.4-0.8c0-0.2,0-0.4,0.1-0.6     c0.1-0.2,0.2-0.3,0.5-0.4s0.6-0.3,1.2-0.6c0.6-0.3,1.1-0.5,1.4-0.7c0.3-0.2,0.5-0.5,0.6-0.8C678.1,559.4,678.2,559.1,678.2,558.7     z"
           id="path103" /><path
           class="st0"
           d="M683.5,563.9c-0.8,0-1.4-0.3-1.9-0.9c-0.5-0.6-0.7-1.4-0.7-2.4c0-1.1,0.2-1.9,0.7-2.4     c0.4-0.5,1.1-0.8,1.9-0.8c0.4,0,0.7,0,1.1,0.1c0.3,0.1,0.7,0.2,1.1,0.3v-1.2c-0.7-0.3-1.4-0.4-2.3-0.4c-1.3,0-2.2,0.4-2.9,1.1     c-0.7,0.8-1,1.9-1,3.3c0,0.9,0.2,1.7,0.5,2.3c0.3,0.7,0.8,1.2,1.4,1.5c0.6,0.4,1.3,0.5,2.2,0.5c0.9,0,1.7-0.2,2.4-0.6l-0.5-1.2     c-0.3,0.1-0.6,0.3-0.9,0.4C684.2,563.8,683.9,563.9,683.5,563.9z"
           id="path105" /><path
           class="st0"
           d="M687.5,556.4v8.6h1.4v-8.6H687.5z"
           id="path107" /><path
           class="st0"
           d="M696,556.4h-4.9v8.6h4.9v-1.2h-3.5v-2.3h3.2v-1.2h-3.2v-2.7h3.5V556.4z"
           id="path109" /><path
           class="st0"
           d="M705,556.4h-1.7l-4.2,6.9h0l0-0.4c0.1-0.7,0.1-1.4,0.1-2v-4.5h-1.3v8.6h1.7l4.2-6.8h0c0,0.1,0,0.4,0,1     c0,0.6,0,1,0,1.3v4.5h1.3V556.4z"
           id="path111" /><path
           class="st0"
           d="M710.3,556.4h-1.4v7.4h-2.5v1.2h6.5v-1.2h-2.5V556.4z"
           id="path113" /><path
           class="st0"
           d="M714.1,556.4v8.6h1.4v-8.6H714.1z"
           id="path115" /><path
           class="st0"
           d="M722.8,558.7c0-0.8-0.3-1.4-0.8-1.8c-0.6-0.4-1.3-0.7-2.3-0.7s-1.8,0.2-2.4,0.5v1.3c0.4-0.2,0.8-0.3,1.2-0.4     c0.4-0.1,0.9-0.2,1.2-0.2c0.6,0,1,0.1,1.2,0.3s0.4,0.5,0.4,0.9c0,0.3-0.1,0.6-0.4,0.8c-0.2,0.2-0.7,0.5-1.5,0.8     c-0.8,0.3-1.3,0.7-1.7,1.1c-0.3,0.4-0.5,0.9-0.5,1.5c0,0.7,0.3,1.3,0.8,1.7c0.5,0.4,1.2,0.6,2.1,0.6c0.8,0,1.6-0.2,2.5-0.5     l-0.4-1.1c-0.8,0.3-1.4,0.5-2,0.5c-0.5,0-0.8-0.1-1-0.3c-0.2-0.2-0.4-0.5-0.4-0.8c0-0.2,0-0.4,0.1-0.6c0.1-0.2,0.2-0.3,0.5-0.4     s0.6-0.3,1.2-0.6c0.6-0.3,1.1-0.5,1.4-0.7c0.3-0.2,0.5-0.5,0.6-0.8C722.7,559.4,722.8,559.1,722.8,558.7z"
           id="path117" /><path
           class="st0"
           d="M727.4,556.4H726v7.4h-2.5v1.2h6.5v-1.2h-2.5V556.4z"
           id="path119" /></g><g
         id="g121"><g
           id="g123"><rect
             x="503"
             y="733.7"
             class="st3"
             width="3.6"
             height="1.8"
             id="rect125" /></g><g
           id="g127"><path
             class="st3"
             d="M755.2,734h-4.8v1.2h4.8V734z M745.6,734h-4.8v1.2h4.8V734z M736,734h-4.8v1.2h4.8V734z M726.4,734h-4.8      v1.2h4.8V734z M716.8,734h-4.8v1.2h4.8V734z M707.3,734h-4.8v1.2h4.8V734z M697.7,734h-4.8v1.2h4.8V734z M688.1,734h-4.8v1.2      h4.8V734z M678.5,734h-4.8v1.2h4.8V734z M668.9,734h-4.8v1.2h4.8V734z M659.3,734h-4.8v1.2h4.8V734z M649.7,734h-4.8v1.2h4.8      V734z M640.2,734h-4.8v1.2h4.8V734z M630.6,734h-4.8v1.2h4.8V734z M621,734h-4.8v1.2h4.8V734z M611.4,734h-4.8v1.2h4.8V734z       M601.8,734H597v1.2h4.8V734z M592.2,734h-4.8v1.2h4.8V734z M582.6,734h-4.8v1.2h4.8V734z M573,734h-4.8v1.2h4.8V734z       M563.5,734h-4.8v1.2h4.8V734z M553.9,734h-4.8v1.2h4.8V734z M544.3,734h-4.8v1.2h4.8V734z M534.7,734h-4.8v1.2h4.8V734z       M525.1,734h-4.8v1.2h4.8V734z M515.5,734h-4.8v1.2h4.8V734z"
             id="path129" /></g><g
           id="g131"><rect
             x="759.4"
             y="733.7"
             class="st3"
             width="3.6"
             height="1.8"
             id="rect133" /></g></g><g
         id="g135"><polygon
           class="st4"
           points="762.4,603.6 510.9,603.6 510.9,811.2 511.7,811.2 511.7,604.4 762.4,604.4    "
           id="polygon137" /></g><g
         id="g139"><path
           class="st0"
           d="M456.5,685l-2.4-0.9v-3.3l2.4-0.8v-1.5l-8.6,3.2v1.5l8.6,3.2V685z M452.9,683.8l-2.3-0.8     c-0.2-0.1-0.4-0.1-0.7-0.2c-0.3-0.1-0.6-0.2-0.7-0.2c0.5-0.1,1-0.3,1.6-0.5l2.2-0.8V683.8z"
           id="path141" /><path
           class="st0"
           d="M449,691.3c0-0.8,0.3-1.4,0.9-1.9c0.6-0.5,1.4-0.7,2.4-0.7c1.1,0,1.9,0.2,2.4,0.7c0.5,0.4,0.8,1.1,0.8,1.9     c0,0.4,0,0.7-0.1,1.1c-0.1,0.3-0.2,0.7-0.3,1.1h1.2c0.3-0.7,0.4-1.4,0.4-2.3c0-1.3-0.4-2.2-1.1-2.9c-0.8-0.7-1.9-1-3.3-1     c-0.9,0-1.7,0.2-2.3,0.5c-0.7,0.3-1.2,0.8-1.5,1.4c-0.4,0.6-0.5,1.3-0.5,2.2c0,0.9,0.2,1.7,0.6,2.4l1.2-0.5     c-0.1-0.3-0.3-0.6-0.4-0.9C449.1,692,449,691.7,449,691.3z"
           id="path143" /><path
           class="st0"
           d="M449,698.9c0-0.8,0.3-1.4,0.9-1.9s1.4-0.7,2.4-0.7c1.1,0,1.9,0.2,2.4,0.7c0.5,0.4,0.8,1.1,0.8,1.9     c0,0.4,0,0.7-0.1,1.1c-0.1,0.3-0.2,0.7-0.3,1.1h1.2c0.3-0.7,0.4-1.4,0.4-2.3c0-1.3-0.4-2.2-1.1-2.9c-0.8-0.7-1.9-1-3.3-1     c-0.9,0-1.7,0.2-2.3,0.5c-0.7,0.3-1.2,0.8-1.5,1.4c-0.4,0.6-0.5,1.3-0.5,2.2c0,0.9,0.2,1.7,0.6,2.4l1.2-0.5     c-0.1-0.3-0.3-0.6-0.4-0.9C449.1,699.6,449,699.3,449,698.9z"
           id="path145" /><path
           class="st0"
           d="M447.9,709.7h5.6c0.6,0,1.2-0.1,1.7-0.4c0.5-0.3,0.8-0.7,1.1-1.2c0.3-0.5,0.4-1.1,0.4-1.8     c0-1.1-0.3-1.9-0.8-2.5c-0.6-0.6-1.3-0.9-2.3-0.9h-5.5v1.4h5.4c0.7,0,1.2,0.2,1.6,0.5c0.3,0.3,0.5,0.8,0.5,1.5c0,1.3-0.7,2-2.1,2     h-5.4V709.7z"
           id="path147" /><path
           class="st0"
           d="M453.1,713.3h3.4v-1.4h-8.6v2.4c0,1.1,0.2,1.9,0.6,2.5c0.4,0.5,1,0.8,1.9,0.8c1.1,0,1.8-0.6,2.3-1.7l3.8,2.4     v-1.6l-3.4-2.1V713.3z M451.9,713.3v1c0,0.7-0.1,1.1-0.4,1.4c-0.2,0.3-0.6,0.4-1.1,0.4c-0.5,0-0.8-0.2-1-0.5     c-0.2-0.3-0.3-0.8-0.3-1.4v-0.9H451.9z"
           id="path149" /><path
           class="st0"
           d="M456.5,724.9l-2.4-0.9v-3.3l2.4-0.8v-1.5l-8.6,3.2v1.5l8.6,3.2V724.9z M452.9,723.7l-2.3-0.8     c-0.2-0.1-0.4-0.1-0.7-0.2c-0.3-0.1-0.6-0.2-0.7-0.2c0.5-0.1,1-0.3,1.6-0.5l2.2-0.8V723.7z"
           id="path151" /><path
           class="st0"
           d="M449,731.2c0-0.8,0.3-1.4,0.9-1.9c0.6-0.5,1.4-0.7,2.4-0.7c1.1,0,1.9,0.2,2.4,0.7c0.5,0.4,0.8,1.1,0.8,1.9     c0,0.4,0,0.7-0.1,1.1c-0.1,0.3-0.2,0.7-0.3,1.1h1.2c0.3-0.7,0.4-1.4,0.4-2.3c0-1.3-0.4-2.2-1.1-2.9c-0.8-0.7-1.9-1-3.3-1     c-0.9,0-1.7,0.2-2.3,0.5c-0.7,0.3-1.2,0.8-1.5,1.4c-0.4,0.6-0.5,1.3-0.5,2.2c0,0.9,0.2,1.7,0.6,2.4l1.2-0.5     c-0.1-0.3-0.3-0.6-0.4-0.9C449.1,731.9,449,731.5,449,731.2z"
           id="path153" /><path
           class="st0"
           d="M451.9,737.6l-3.9,2v1.5l5.3-2.9h3.3v-1.4h-3.3l-5.3-2.9v1.5L451.9,737.6z"
           id="path155" /></g></g></g></svg>