<?xml version="1.0" encoding="UTF-8" standalone="no"?>
<!-- Generator: Adobe Illustrator 20.1.0, SVG Export Plug-In . SVG Version: 6.00 Build 0)  -->

<svg
   xmlns:dc="http://purl.org/dc/elements/1.1/"
   xmlns:cc="http://creativecommons.org/ns#"
   xmlns:rdf="http://www.w3.org/1999/02/22-rdf-syntax-ns#"
   xmlns:svg="http://www.w3.org/2000/svg"
   xmlns="http://www.w3.org/2000/svg"
   xmlns:sodipodi="http://sodipodi.sourceforge.net/DTD/sodipodi-0.dtd"
   xmlns:inkscape="http://www.inkscape.org/namespaces/inkscape"
   version="1.1"
   id="Layer_1"
   x="0px"
   y="0px"
   viewBox="0 0 520.6 430.7"
   style="enable-background:new 0 0 520.6 430.7;"
   xml:space="preserve"
   inkscape:version="0.91 r13725"
   sodipodi:docname="graphic.svg"><metadata
     id="metadata161"><rdf:RDF><cc:Work
         rdf:about=""><dc:format>image/svg+xml</dc:format><dc:type
           rdf:resource="http://purl.org/dc/dcmitype/StillImage" /><dc:title /></cc:Work></rdf:RDF></metadata><defs
     id="defs159" /><sodipodi:namedview
     pagecolor="#ffffff"
     bordercolor="#666666"
     borderopacity="1"
     objecttolerance="10"
     gridtolerance="10"
     guidetolerance="10"
     inkscape:pageopacity="0"
     inkscape:pageshadow="2"
     inkscape:window-width="1855"
     inkscape:window-height="1056"
     id="namedview157"
     showgrid="false"
     inkscape:zoom="1.499512"
     inkscape:cx="127.23842"
     inkscape:cy="286.07424"
     inkscape:window-x="1985"
     inkscape:window-y="24"
     inkscape:window-maximized="1"
     inkscape:current-layer="layer1" /><style
     type="text/css"
     id="style3">
	.st0{fill:#808184;}
	.st1{opacity:0.2;fill:#46C0EF;}
	.st2{fill:#46C0EF;}
	.st3{fill:#A6A8AB;}
	.st4{fill:#BBBDBF;}
</style><g
     id="layer1"
     transform="translate(-284.59978,-463.99421)"
     inkscape:groupmode="layer"
     inkscape:label="Layer 1"><g
       id="g7"
       transform="matrix(1.5003761,0,0,-1.5003761,-367.17041,1695.3477)"><path
         style="fill:#808184"
         inkscape:connector-curvature="0"
         id="path9"
         d="m 477.5,793.2 -1.4,0 0,5.5 c 0,0.7 0,1.2 0,1.6 -0.1,-0.1 -0.2,-0.2 -0.3,-0.3 -0.1,-0.1 -0.6,-0.5 -1.3,-1.1 l -0.7,0.9 2.5,2 1.1,0 0,-8.6 z"
         class="st0" /><path
         style="fill:#808184"
         inkscape:connector-curvature="0"
         id="path11"
         d="m 486,797.5 c 0,-1.5 -0.2,-2.6 -0.7,-3.3 -0.5,-0.7 -1.2,-1.1 -2.2,-1.1 -0.9,0 -1.7,0.4 -2.1,1.1 -0.4,0.7 -0.7,1.8 -0.7,3.2 0,1.5 0.2,2.6 0.7,3.3 0.5,0.7 1.2,1.1 2.2,1.1 0.9,0 1.7,-0.4 2.2,-1.1 0.4,-0.7 0.6,-1.8 0.6,-3.2 z m -4.3,0 c 0,-1.2 0.1,-2 0.4,-2.5 0.2,-0.5 0.6,-0.7 1.1,-0.7 0.5,0 0.9,0.3 1.1,0.8 0.2,0.5 0.4,1.3 0.4,2.5 0,1.1 -0.1,2 -0.4,2.5 -0.2,0.5 -0.6,0.8 -1.1,0.8 -0.5,0 -0.9,-0.2 -1.1,-0.7 -0.3,-0.8 -0.4,-1.6 -0.4,-2.7 z"
         class="st0" /><path
         style="fill:#808184"
         inkscape:connector-curvature="0"
         id="path13"
         d="m 492.8,797.5 c 0,-1.5 -0.2,-2.6 -0.7,-3.3 -0.5,-0.7 -1.2,-1.1 -2.2,-1.1 -0.9,0 -1.7,0.4 -2.1,1.1 -0.5,0.7 -0.7,1.8 -0.7,3.2 0,1.5 0.2,2.6 0.7,3.3 0.5,0.7 1.2,1.1 2.2,1.1 0.9,0 1.7,-0.4 2.2,-1.1 0.4,-0.7 0.6,-1.8 0.6,-3.2 z m -4.4,0 c 0,-1.2 0.1,-2 0.4,-2.5 0.2,-0.5 0.6,-0.7 1.1,-0.7 0.5,0 0.9,0.3 1.1,0.8 0.2,0.5 0.4,1.3 0.4,2.5 0,1.1 -0.1,2 -0.4,2.5 -0.2,0.5 -0.6,0.8 -1.1,0.8 -0.5,0 -0.9,-0.2 -1.1,-0.7 -0.2,-0.8 -0.4,-1.6 -0.4,-2.7 z"
         class="st0" /><path
         style="fill:#808184"
         inkscape:connector-curvature="0"
         id="path15"
         d="m 497.6,799.2 c 0,-0.9 -0.2,-1.6 -0.5,-2 -0.3,-0.4 -0.8,-0.7 -1.4,-0.7 -0.6,0 -1,0.2 -1.4,0.7 -0.3,0.5 -0.5,1.1 -0.5,2 0,1.8 0.6,2.6 1.8,2.6 0.6,0 1.1,-0.2 1.4,-0.7 0.4,-0.4 0.6,-1.1 0.6,-1.9 z m -2.7,0 c 0,-0.6 0.1,-1 0.2,-1.3 0.1,-0.3 0.3,-0.4 0.6,-0.4 0.5,0 0.8,0.6 0.8,1.7 0,1.1 -0.3,1.7 -0.8,1.7 -0.3,0 -0.4,-0.1 -0.6,-0.4 -0.1,-0.3 -0.2,-0.8 -0.2,-1.3 z m 6.4,2.5 -4.7,-8.5 -1.1,0 4.7,8.5 1.1,0 z m 1.8,-5.9 c 0,-0.9 -0.2,-1.6 -0.5,-2 -0.3,-0.4 -0.8,-0.7 -1.4,-0.7 -0.6,0 -1,0.2 -1.4,0.7 -0.3,0.5 -0.5,1.1 -0.5,2 0,1.8 0.6,2.6 1.9,2.6 0.6,0 1.1,-0.2 1.4,-0.7 0.3,-0.4 0.5,-1.1 0.5,-1.9 z m -2.6,0 c 0,-0.6 0.1,-1 0.2,-1.3 0.1,-0.3 0.3,-0.4 0.6,-0.4 0.5,0 0.8,0.6 0.8,1.7 0,1.1 -0.3,1.7 -0.8,1.7 -0.3,0 -0.4,-0.1 -0.6,-0.4 -0.2,-0.3 -0.2,-0.8 -0.2,-1.3 z"
         class="st0" /></g><g
       id="g17"
       transform="matrix(1.5003761,0,0,-1.5003761,-367.17041,1695.3477)"><path
         style="fill:#808184"
         inkscape:connector-curvature="0"
         id="path19"
         d="m 486,736.9 c 0,-1.7 -0.3,-2.9 -1,-3.7 -0.7,-0.8 -1.7,-1.2 -3,-1.2 -0.5,0 -0.9,0 -1.1,0.1 l 0,1.1 c 0.3,-0.1 0.7,-0.1 1,-0.1 0.9,0 1.6,0.2 2.1,0.7 0.5,0.5 0.7,1.3 0.7,2.3 l -0.1,0 c -0.2,-0.3 -0.5,-0.6 -0.8,-0.8 -0.3,-0.2 -0.7,-0.2 -1.1,-0.2 -0.7,0 -1.3,0.2 -1.8,0.7 -0.4,0.5 -0.6,1.1 -0.6,1.9 0,0.9 0.2,1.6 0.7,2.1 0.5,0.5 1.2,0.8 2,0.8 0.6,0 1.1,-0.1 1.6,-0.4 0.5,-0.3 0.8,-0.7 1,-1.3 0.3,-0.5 0.4,-1.2 0.4,-2 z m -2.9,2.6 c -0.5,0 -0.8,-0.2 -1.1,-0.5 -0.3,-0.3 -0.4,-0.7 -0.4,-1.3 0,-0.5 0.1,-0.9 0.4,-1.1 0.3,-0.2 0.6,-0.4 1.1,-0.4 0.5,0 0.8,0.1 1.2,0.4 0.4,0.3 0.5,0.6 0.5,1 0,0.3 -0.1,0.7 -0.2,1 -0.1,0.3 -0.3,0.5 -0.6,0.7 -0.3,0.2 -0.6,0.2 -0.9,0.2 z"
         class="st0" /><path
         style="fill:#808184"
         inkscape:connector-curvature="0"
         id="path21"
         d="m 492.8,736.3 c 0,-1.5 -0.2,-2.6 -0.7,-3.3 -0.5,-0.7 -1.2,-1.1 -2.2,-1.1 -0.9,0 -1.7,0.4 -2.1,1.1 -0.4,0.7 -0.7,1.8 -0.7,3.2 0,1.5 0.2,2.6 0.7,3.3 0.5,0.7 1.2,1.1 2.2,1.1 0.9,0 1.7,-0.4 2.2,-1.1 0.4,-0.7 0.6,-1.8 0.6,-3.2 z m -4.4,0 c 0,-1.2 0.1,-2 0.4,-2.5 0.2,-0.5 0.6,-0.7 1.1,-0.7 0.5,0 0.9,0.3 1.1,0.8 0.2,0.5 0.4,1.3 0.4,2.5 0,1.1 -0.1,2 -0.4,2.5 -0.3,0.5 -0.6,0.8 -1.1,0.8 -0.5,0 -0.9,-0.2 -1.1,-0.7 -0.2,-0.7 -0.4,-1.5 -0.4,-2.7 z"
         class="st0" /><path
         style="fill:#808184"
         inkscape:connector-curvature="0"
         id="path23"
         d="m 497.6,738 c 0,-0.9 -0.2,-1.6 -0.5,-2 -0.3,-0.4 -0.8,-0.7 -1.4,-0.7 -0.6,0 -1,0.2 -1.4,0.7 -0.3,0.5 -0.5,1.1 -0.5,2 0,1.8 0.6,2.6 1.8,2.6 0.6,0 1.1,-0.2 1.4,-0.7 0.4,-0.4 0.6,-1 0.6,-1.9 z m -2.7,0 c 0,-0.6 0.1,-1 0.2,-1.3 0.1,-0.3 0.3,-0.4 0.6,-0.4 0.5,0 0.8,0.6 0.8,1.7 0,1.1 -0.3,1.7 -0.8,1.7 -0.3,0 -0.4,-0.1 -0.6,-0.4 -0.1,-0.3 -0.2,-0.7 -0.2,-1.3 z m 6.4,2.5 -4.7,-8.5 -1.1,0 4.7,8.5 1.1,0 z m 1.8,-5.9 c 0,-0.9 -0.2,-1.6 -0.5,-2 -0.3,-0.4 -0.8,-0.7 -1.4,-0.7 -0.6,0 -1,0.2 -1.4,0.7 -0.3,0.5 -0.5,1.1 -0.5,2 0,1.8 0.6,2.6 1.9,2.6 0.6,0 1.1,-0.2 1.4,-0.7 0.3,-0.4 0.5,-1 0.5,-1.9 z m -2.6,0 c 0,-0.6 0.1,-1 0.2,-1.3 0.1,-0.3 0.3,-0.4 0.6,-0.4 0.5,0 0.8,0.6 0.8,1.7 0,1.1 -0.3,1.7 -0.8,1.7 -0.3,0 -0.4,-0.1 -0.6,-0.4 -0.2,-0.3 -0.2,-0.7 -0.2,-1.3 z"
         class="st0" /></g><g
       id="g25"
       transform="matrix(1.5003761,0,0,-1.5003761,-367.17041,1695.3477)"><path
         style="fill:#808184"
         inkscape:connector-curvature="0"
         id="path27"
         d="m 483.2,675.8 c 0.8,0 1.4,-0.2 1.9,-0.6 0.5,-0.4 0.7,-0.9 0.7,-1.5 0,-0.9 -0.5,-1.6 -1.6,-2.1 0.7,-0.3 1.1,-0.7 1.4,-1 0.3,-0.4 0.4,-0.8 0.4,-1.2 0,-0.7 -0.3,-1.3 -0.8,-1.7 -0.5,-0.4 -1.2,-0.6 -2.1,-0.6 -0.9,0 -1.6,0.2 -2.1,0.6 -0.5,0.4 -0.8,1 -0.8,1.7 0,0.5 0.1,0.9 0.4,1.3 0.3,0.4 0.7,0.7 1.3,1 -0.5,0.3 -0.9,0.6 -1.1,1 -0.2,0.3 -0.3,0.7 -0.3,1.2 0,0.6 0.2,1.1 0.7,1.5 0.6,0.2 1.2,0.4 2,0.4 z m -1.6,-6.4 c 0,-0.4 0.1,-0.7 0.4,-0.9 0.3,-0.2 0.7,-0.3 1.1,-0.3 0.5,0 0.9,0.1 1.2,0.3 0.3,0.2 0.4,0.5 0.4,0.9 0,0.3 -0.1,0.6 -0.4,0.9 -0.3,0.3 -0.6,0.5 -1.2,0.7 l -0.1,0 c -0.5,-0.2 -0.9,-0.5 -1.1,-0.7 -0.2,-0.3 -0.3,-0.6 -0.3,-0.9 z m 1.5,5.3 c -0.4,0 -0.7,-0.1 -0.9,-0.3 -0.2,-0.2 -0.4,-0.5 -0.4,-0.8 0,-0.2 0,-0.4 0.1,-0.5 0.1,-0.2 0.2,-0.3 0.4,-0.4 0.2,-0.1 0.4,-0.3 0.8,-0.5 0.5,0.2 0.8,0.4 1,0.6 0.2,0.2 0.3,0.5 0.3,0.8 0,0.3 -0.1,0.6 -0.4,0.8 -0.1,0.2 -0.5,0.3 -0.9,0.3 z"
         class="st0" /><path
         style="fill:#808184"
         inkscape:connector-curvature="0"
         id="path29"
         d="m 492.8,671.4 c 0,-1.5 -0.2,-2.6 -0.7,-3.3 -0.5,-0.7 -1.2,-1.1 -2.2,-1.1 -0.9,0 -1.7,0.4 -2.1,1.1 -0.5,0.7 -0.7,1.8 -0.7,3.2 0,1.5 0.2,2.6 0.7,3.3 0.5,0.7 1.2,1.1 2.2,1.1 0.9,0 1.7,-0.4 2.2,-1.1 0.4,-0.7 0.6,-1.8 0.6,-3.2 z m -4.4,0 c 0,-1.2 0.1,-2 0.4,-2.5 0.2,-0.5 0.6,-0.7 1.1,-0.7 0.5,0 0.9,0.3 1.1,0.8 0.2,0.5 0.4,1.3 0.4,2.5 0,1.1 -0.1,2 -0.4,2.5 -0.2,0.5 -0.6,0.8 -1.1,0.8 -0.5,0 -0.9,-0.2 -1.1,-0.7 -0.2,-0.7 -0.4,-1.5 -0.4,-2.7 z"
         class="st0" /><path
         style="fill:#808184"
         inkscape:connector-curvature="0"
         id="path31"
         d="m 497.6,673.1 c 0,-0.9 -0.2,-1.6 -0.5,-2 -0.3,-0.4 -0.8,-0.7 -1.4,-0.7 -0.6,0 -1,0.2 -1.4,0.7 -0.3,0.5 -0.5,1.1 -0.5,2 0,1.8 0.6,2.6 1.8,2.6 0.6,0 1.1,-0.2 1.4,-0.7 0.4,-0.4 0.6,-1 0.6,-1.9 z m -2.7,0 c 0,-0.6 0.1,-1 0.2,-1.3 0.1,-0.3 0.3,-0.4 0.6,-0.4 0.5,0 0.8,0.6 0.8,1.7 0,1.1 -0.3,1.7 -0.8,1.7 -0.3,0 -0.4,-0.1 -0.6,-0.4 -0.1,-0.3 -0.2,-0.7 -0.2,-1.3 z m 6.4,2.6 -4.7,-8.5 -1.1,0 4.7,8.5 1.1,0 z m 1.8,-6 c 0,-0.9 -0.2,-1.6 -0.5,-2 -0.3,-0.4 -0.8,-0.7 -1.4,-0.7 -0.6,0 -1,0.2 -1.4,0.7 -0.3,0.5 -0.5,1.1 -0.5,2 0,1.8 0.6,2.6 1.9,2.6 0.6,0 1.1,-0.2 1.4,-0.7 0.3,-0.4 0.5,-1 0.5,-1.9 z m -2.6,0 c 0,-0.6 0.1,-1 0.2,-1.3 0.1,-0.3 0.3,-0.4 0.6,-0.4 0.5,0 0.8,0.6 0.8,1.7 0,1.1 -0.3,1.7 -0.8,1.7 -0.3,0 -0.4,-0.1 -0.6,-0.4 -0.2,-0.3 -0.2,-0.7 -0.2,-1.3 z"
         class="st0" /></g><g
       id="g33"
       transform="matrix(1.5003761,0,0,-1.5003761,-367.17041,1695.3477)"><path
         style="fill:#808184"
         inkscape:connector-curvature="0"
         id="path35"
         d="m 481.3,607.8 3.4,7.3 -4.4,0 0,1.2 5.9,0 0,-1 -3.3,-7.5 -1.6,0 z"
         class="st0" /><path
         style="fill:#808184"
         inkscape:connector-curvature="0"
         id="path37"
         d="m 492.8,612.1 c 0,-1.5 -0.2,-2.6 -0.7,-3.3 -0.5,-0.7 -1.2,-1.1 -2.2,-1.1 -0.9,0 -1.7,0.4 -2.1,1.1 -0.5,0.7 -0.7,1.8 -0.7,3.2 0,1.5 0.2,2.6 0.7,3.3 0.5,0.7 1.2,1.1 2.2,1.1 0.9,0 1.7,-0.4 2.2,-1.1 0.4,-0.7 0.6,-1.8 0.6,-3.2 z m -4.4,0 c 0,-1.2 0.1,-2 0.4,-2.5 0.2,-0.5 0.6,-0.7 1.1,-0.7 0.5,0 0.9,0.3 1.1,0.8 0.2,0.5 0.4,1.3 0.4,2.5 0,1.1 -0.1,2 -0.4,2.5 -0.2,0.5 -0.6,0.8 -1.1,0.8 -0.5,0 -0.9,-0.2 -1.1,-0.7 -0.2,-0.8 -0.4,-1.6 -0.4,-2.7 z"
         class="st0" /><path
         style="fill:#808184"
         inkscape:connector-curvature="0"
         id="path39"
         d="m 497.6,613.8 c 0,-0.9 -0.2,-1.6 -0.5,-2 -0.3,-0.4 -0.8,-0.7 -1.4,-0.7 -0.6,0 -1,0.2 -1.4,0.7 -0.3,0.5 -0.5,1.1 -0.5,2 0,1.8 0.6,2.6 1.8,2.6 0.6,0 1.1,-0.2 1.4,-0.7 0.4,-0.4 0.6,-1.1 0.6,-1.9 z m -2.7,0 c 0,-0.6 0.1,-1 0.2,-1.3 0.1,-0.3 0.3,-0.4 0.6,-0.4 0.5,0 0.8,0.6 0.8,1.7 0,1.1 -0.3,1.7 -0.8,1.7 -0.3,0 -0.4,-0.1 -0.6,-0.4 -0.1,-0.3 -0.2,-0.8 -0.2,-1.3 z m 6.4,2.5 -4.7,-8.5 -1.1,0 4.7,8.5 1.1,0 z m 1.8,-5.9 c 0,-0.9 -0.2,-1.6 -0.5,-2 -0.3,-0.4 -0.8,-0.7 -1.4,-0.7 -0.6,0 -1,0.2 -1.4,0.7 -0.3,0.5 -0.5,1.1 -0.5,2 0,1.8 0.6,2.6 1.9,2.6 0.6,0 1.1,-0.2 1.4,-0.7 0.3,-0.4 0.5,-1.1 0.5,-1.9 z m -2.6,0 c 0,-0.6 0.1,-1 0.2,-1.3 0.1,-0.3 0.3,-0.4 0.6,-0.4 0.5,0 0.8,0.6 0.8,1.7 0,1.1 -0.3,1.7 -0.8,1.7 -0.3,0 -0.4,-0.1 -0.6,-0.4 -0.2,-0.3 -0.2,-0.8 -0.2,-1.3 z"
         class="st0" /></g><path
       style="opacity:0.2;fill:#46c0ef"
       inkscape:connector-curvature="0"
       id="area"
       d="m 413.32524,541.55848 c 0,0 7.80195,-7.95199 40.81023,-12.45312 33.00827,-4.50113 69.61745,-4.50113 138.18464,-3.60091 68.56718,0.90023 171.04287,-0.45011 171.04287,-0.45011 l 0,16.50414 c 0,0 -82.67072,1.80045 -131.28291,4.50113 -48.61218,2.70067 -103.82602,2.70067 -149.28742,22.20556 -27.60692,12.45313 -51.61294,27.60692 -69.46741,78.31964 0,-54.31362 0,-105.02633 0,-105.02633 z"
       class="st1" /><g
       id="g47"
       transform="matrix(1.5003761,0,0,-1.5003761,-367.17041,1695.3477)"><path
         style="fill:#808184"
         inkscape:connector-curvature="0"
         id="path49"
         d="m 565.1,587.4 -1.4,0 0,5.5 c 0,0.7 0,1.2 0,1.6 -0.1,-0.1 -0.2,-0.2 -0.3,-0.3 -0.1,-0.1 -0.6,-0.5 -1.3,-1.1 l -0.7,0.9 2.5,2 1.1,0 0,-8.6 z"
         class="st0" /><path
         style="fill:#808184"
         inkscape:connector-curvature="0"
         id="path51"
         d="m 573.6,591.7 c 0,-1.5 -0.2,-2.6 -0.7,-3.3 -0.5,-0.7 -1.2,-1.1 -2.2,-1.1 -0.9,0 -1.7,0.4 -2.1,1.1 -0.5,0.7 -0.7,1.8 -0.7,3.2 0,1.5 0.2,2.6 0.7,3.3 0.5,0.7 1.2,1.1 2.2,1.1 0.9,0 1.7,-0.4 2.2,-1.1 0.4,-0.7 0.6,-1.8 0.6,-3.2 z m -4.3,0 c 0,-1.2 0.1,-2 0.4,-2.5 0.2,-0.5 0.6,-0.7 1.1,-0.7 0.5,0 0.9,0.3 1.1,0.8 0.2,0.5 0.4,1.3 0.4,2.5 0,1.1 -0.1,2 -0.4,2.5 -0.2,0.5 -0.6,0.8 -1.1,0.8 -0.5,0 -0.9,-0.2 -1.1,-0.7 -0.3,-0.7 -0.4,-1.6 -0.4,-2.7 z"
         class="st0" /></g><g
       id="g53"
       transform="matrix(1.5003761,0,0,-1.5003761,-367.17041,1695.3477)"><path
         style="fill:#808184"
         inkscape:connector-curvature="0"
         id="path55"
         d="m 629.5,587.4 -5.7,0 0,1 2.2,2.2 c 0.6,0.7 1.1,1.1 1.3,1.4 0.2,0.3 0.4,0.5 0.5,0.8 0.1,0.2 0.1,0.5 0.1,0.8 0,0.4 -0.1,0.7 -0.3,0.9 -0.2,0.2 -0.5,0.3 -1,0.3 -0.3,0 -0.6,-0.1 -0.9,-0.2 -0.3,-0.1 -0.7,-0.3 -1.1,-0.6 l -0.7,0.9 c 0.5,0.4 0.9,0.7 1.4,0.8 0.4,0.2 0.9,0.2 1.4,0.2 0.8,0 1.4,-0.2 1.9,-0.6 0.5,-0.4 0.7,-1 0.7,-1.7 0,-0.4 -0.1,-0.7 -0.2,-1.1 -0.1,-0.3 -0.3,-0.7 -0.6,-1.1 -0.3,-0.4 -0.8,-0.9 -1.4,-1.5 l -1.5,-1.4 0,-0.1 4,0 0,-1 z"
         class="st0" /><path
         style="fill:#808184"
         inkscape:connector-curvature="0"
         id="path57"
         d="m 636.3,591.7 c 0,-1.5 -0.2,-2.6 -0.7,-3.3 -0.5,-0.7 -1.2,-1.1 -2.2,-1.1 -0.9,0 -1.7,0.4 -2.1,1.1 -0.5,0.7 -0.7,1.8 -0.7,3.2 0,1.5 0.2,2.6 0.7,3.3 0.5,0.7 1.2,1.1 2.2,1.1 0.9,0 1.7,-0.4 2.2,-1.1 0.4,-0.7 0.6,-1.8 0.6,-3.2 z m -4.4,0 c 0,-1.2 0.1,-2 0.4,-2.5 0.2,-0.5 0.6,-0.7 1.1,-0.7 0.5,0 0.9,0.3 1.1,0.8 0.2,0.5 0.4,1.3 0.4,2.5 0,1.1 -0.1,2 -0.4,2.5 -0.2,0.5 -0.6,0.8 -1.1,0.8 -0.5,0 -0.9,-0.2 -1.1,-0.7 -0.3,-0.7 -0.4,-1.6 -0.4,-2.7 z"
         class="st0" /></g><g
       id="g59"
       transform="matrix(1.5003761,0,0,-1.5003761,-367.17041,1695.3477)"><path
         style="fill:#808184"
         inkscape:connector-curvature="0"
         id="path61"
         d="m 692.1,594 c 0,-0.5 -0.2,-1 -0.5,-1.3 -0.3,-0.4 -0.8,-0.6 -1.3,-0.7 l 0,0 c 0.7,-0.1 1.2,-0.3 1.5,-0.6 0.3,-0.3 0.5,-0.8 0.5,-1.3 0,-0.8 -0.3,-1.4 -0.9,-1.9 -0.6,-0.4 -1.4,-0.7 -2.5,-0.7 -0.9,0 -1.7,0.2 -2.4,0.5 l 0,1.2 c 0.4,-0.2 0.7,-0.3 1.1,-0.4 0.4,-0.1 0.8,-0.1 1.2,-0.1 0.7,0 1.1,0.1 1.5,0.4 0.4,0.3 0.5,0.6 0.5,1.1 0,0.5 -0.2,0.8 -0.5,1 -0.4,0.2 -0.9,0.3 -1.7,0.3 l -0.7,0 0,1.1 0.7,0 c 1.4,0 2,0.5 2,1.4 0,0.4 -0.1,0.6 -0.4,0.8 -0.3,0.2 -0.6,0.3 -1,0.3 -0.3,0 -0.6,0 -0.9,-0.1 -0.3,-0.1 -0.6,-0.3 -1.1,-0.5 l -0.7,1 c 0.8,0.6 1.7,0.9 2.7,0.9 0.9,0 1.5,-0.2 2,-0.6 0.5,-0.4 0.9,-1.2 0.9,-1.8 z"
         class="st0" /><path
         style="fill:#808184"
         inkscape:connector-curvature="0"
         id="path63"
         d="m 699.2,591.7 c 0,-1.5 -0.2,-2.6 -0.7,-3.3 -0.5,-0.7 -1.2,-1.1 -2.2,-1.1 -0.9,0 -1.7,0.4 -2.1,1.1 -0.4,0.7 -0.7,1.8 -0.7,3.2 0,1.5 0.2,2.6 0.7,3.3 0.5,0.7 1.2,1.1 2.2,1.1 0.9,0 1.7,-0.4 2.2,-1.1 0.4,-0.7 0.6,-1.8 0.6,-3.2 z m -4.4,0 c 0,-1.2 0.1,-2 0.4,-2.5 0.2,-0.5 0.6,-0.7 1.1,-0.7 0.5,0 0.9,0.3 1.1,0.8 0.2,0.5 0.4,1.3 0.4,2.5 0,1.1 -0.1,2 -0.4,2.5 -0.2,0.5 -0.6,0.8 -1.1,0.8 -0.5,0 -0.9,-0.2 -1.1,-0.7 -0.3,-0.7 -0.4,-1.6 -0.4,-2.7 z"
         class="st0" /></g><g
       id="g65"
       transform="matrix(1.5003761,0,0,-1.5003761,-367.17041,1695.3477)"><path
         style="fill:#808184"
         inkscape:connector-curvature="0"
         id="path67"
         d="m 755.4,589.3 -1.1,0 0,-1.8 -1.3,0 0,1.8 -4,0 0,1 3.9,5.6 1.3,0 0,-5.5 1.1,0 0,-1.1 z m -2.5,1.1 0,2.1 c 0,0.8 0,1.4 0.1,1.9 l 0,0 c -0.1,-0.3 -0.3,-0.6 -0.5,-0.9 l -2.1,-3.1 2.5,0 z"
         class="st0" /><path
         style="fill:#808184"
         inkscape:connector-curvature="0"
         id="path69"
         d="m 761.9,591.7 c 0,-1.5 -0.2,-2.6 -0.7,-3.3 -0.5,-0.7 -1.2,-1.1 -2.2,-1.1 -0.9,0 -1.7,0.4 -2.1,1.1 -0.5,0.7 -0.7,1.8 -0.7,3.2 0,1.5 0.2,2.6 0.7,3.3 0.5,0.7 1.2,1.1 2.2,1.1 0.9,0 1.7,-0.4 2.2,-1.1 0.3,-0.7 0.6,-1.8 0.6,-3.2 z m -4.4,0 c 0,-1.2 0.1,-2 0.4,-2.5 0.2,-0.5 0.6,-0.7 1.1,-0.7 0.5,0 0.9,0.3 1.1,0.8 0.2,0.5 0.4,1.3 0.4,2.5 0,1.1 -0.1,2 -0.4,2.5 -0.2,0.5 -0.6,0.8 -1.1,0.8 -0.5,0 -0.9,-0.2 -1.1,-0.7 -0.3,-0.7 -0.4,-1.6 -0.4,-2.7 z"
         class="st0" /></g><g
       id="g71"
       transform="matrix(1.5003761,0,0,-1.5003761,-367.17041,1695.3477)"><path
         style="fill:#808184"
         inkscape:connector-curvature="0"
         id="path73"
         d="m 558.4,556.4 -1.7,0 -4.2,6.9 0,0 0,-0.4 c 0.1,-0.7 0.1,-1.4 0.1,-2 l 0,-4.5 -1.3,0 0,8.6 1.7,0 4.2,-6.8 0,0 c 0,0.1 0,0.4 0,1 0,0.6 0,1 0,1.3 l 0,4.5 1.3,0 0,-8.6 z"
         class="st0" /><path
         style="fill:#808184"
         inkscape:connector-curvature="0"
         id="path75"
         d="m 567.4,565 0,-5.6 c 0,-0.6 -0.1,-1.2 -0.4,-1.7 -0.3,-0.5 -0.7,-0.8 -1.2,-1.1 -0.5,-0.3 -1.1,-0.4 -1.8,-0.4 -1.1,0 -1.9,0.3 -2.5,0.8 -0.6,0.5 -0.9,1.3 -0.9,2.3 l 0,5.5 1.4,0 0,-5.4 c 0,-0.7 0.2,-1.2 0.5,-1.6 0.3,-0.3 0.8,-0.5 1.5,-0.5 1.3,0 2,0.7 2,2.1 l 0,5.4 1.4,0 z"
         class="st0" /><path
         style="fill:#808184"
         inkscape:connector-curvature="0"
         id="path77"
         d="m 573.3,556.4 -2.5,7.2 0,0 c 0.1,-1.1 0.1,-2.1 0.1,-3 l 0,-4.2 -1.3,0 0,8.6 2,0 2.4,-6.8 0,0 2.5,6.8 2,0 0,-8.6 -1.4,0 0,4.3 c 0,0.4 0,1 0,1.7 0,0.7 0,1.1 0.1,1.2 l 0,0 -2.6,-7.2 -1.3,0 z"
         class="st0" /><path
         style="fill:#808184"
         inkscape:connector-curvature="0"
         id="path79"
         d="m 580.7,565 2.6,0 c 1.2,0 2,-0.2 2.6,-0.5 0.5,-0.3 0.8,-0.9 0.8,-1.6 0,-0.5 -0.1,-0.9 -0.4,-1.3 -0.3,-0.3 -0.6,-0.5 -1.1,-0.6 l 0,-0.1 c 0.6,-0.1 1,-0.3 1.3,-0.7 0.3,-0.3 0.4,-0.8 0.4,-1.4 0,-0.8 -0.3,-1.4 -0.8,-1.8 -0.5,-0.4 -1.3,-0.7 -2.2,-0.7 l -3.1,0 0,8.7 z m 1.4,-3.6 1.4,0 c 0.6,0 1,0.1 1.3,0.3 0.3,0.2 0.4,0.5 0.4,0.9 0,0.4 -0.1,0.7 -0.4,0.9 -0.3,0.2 -0.8,0.3 -1.4,0.3 l -1.2,0 0,-2.4 z m 0,-1.1 0,-2.7 1.5,0 c 0.6,0 1,0.1 1.3,0.3 0.3,0.2 0.4,0.6 0.4,1.1 0,0.4 -0.2,0.8 -0.5,1 -0.3,0.2 -0.8,0.3 -1.4,0.3 l -1.3,0 z"
         class="st0" /><path
         style="fill:#808184"
         inkscape:connector-curvature="0"
         id="path81"
         d="m 593.5,556.4 -4.9,0 0,8.6 4.9,0 0,-1.2 -3.5,0 0,-2.3 3.2,0 0,-1.2 -3.2,0 0,-2.7 3.5,0 0,-1.2 z"
         class="st0" /><path
         style="fill:#808184"
         inkscape:connector-curvature="0"
         id="path83"
         d="m 596.8,559.8 0,-3.4 -1.4,0 0,8.6 2.4,0 c 1.1,0 1.9,-0.2 2.5,-0.6 0.5,-0.4 0.8,-1 0.8,-1.9 0,-1.1 -0.6,-1.8 -1.7,-2.3 l 2.4,-3.8 -1.6,0 -2.1,3.4 -1.3,0 z m 0,1.2 1,0 c 0.7,0 1.1,0.1 1.4,0.4 0.3,0.2 0.4,0.6 0.4,1.1 0,0.5 -0.2,0.8 -0.5,1 -0.3,0.2 -0.8,0.3 -1.4,0.3 l -0.9,0 0,-2.8 z"
         class="st0" /><path
         style="fill:#808184"
         inkscape:connector-curvature="0"
         id="path85"
         d="m 613.8,560.7 c 0,-1.4 -0.4,-2.5 -1,-3.3 -0.6,-0.8 -1.7,-1.2 -3,-1.2 -1.3,0 -2.3,0.4 -3,1.2 -0.7,0.8 -1,1.9 -1,3.3 0,1.4 0.4,2.5 1,3.3 0.7,0.8 1.7,1.1 3,1.1 1.3,0 2.3,-0.4 3,-1.2 0.7,-0.7 1,-1.8 1,-3.2 z m -6.5,0 c 0,-1.1 0.2,-1.9 0.6,-2.4 0.4,-0.5 1.1,-0.8 1.9,-0.8 0.8,0 1.5,0.3 1.9,0.8 0.4,0.5 0.6,1.3 0.6,2.4 0,1.1 -0.2,1.9 -0.6,2.4 -0.4,0.5 -1,0.8 -1.9,0.8 -0.8,0 -1.5,-0.3 -1.9,-0.8 -0.4,-0.5 -0.6,-1.4 -0.6,-2.4 z"
         class="st0" /><path
         style="fill:#808184"
         inkscape:connector-curvature="0"
         id="path87"
         d="m 617.1,556.4 -1.4,0 0,8.6 4.9,0 0,-1.2 -3.5,0 0,-2.7 3.2,0 0,-1.2 -3.2,0 0,-3.5 z"
         class="st0" /><path
         style="fill:#808184"
         inkscape:connector-curvature="0"
         id="path89"
         d="m 628.9,563.9 c -0.8,0 -1.4,-0.3 -1.9,-0.9 -0.5,-0.6 -0.7,-1.4 -0.7,-2.4 0,-1.1 0.2,-1.9 0.7,-2.4 0.4,-0.5 1.1,-0.8 1.9,-0.8 0.4,0 0.7,0 1.1,0.1 0.3,0.1 0.7,0.2 1.1,0.3 l 0,-1.2 c -0.7,-0.3 -1.4,-0.4 -2.3,-0.4 -1.3,0 -2.2,0.4 -2.9,1.1 -0.7,0.8 -1,1.9 -1,3.3 0,0.9 0.2,1.7 0.5,2.3 0.3,0.7 0.8,1.2 1.4,1.5 0.6,0.4 1.3,0.5 2.2,0.5 0.9,0 1.7,-0.2 2.4,-0.6 l -0.5,-1.2 c -0.3,0.1 -0.6,0.3 -0.9,0.4 -0.4,0.3 -0.8,0.4 -1.1,0.4 z"
         class="st0" /><path
         style="fill:#808184"
         inkscape:connector-curvature="0"
         id="path91"
         d="m 632.8,556.4 0,8.6 1.4,0 0,-8.6 -1.4,0 z"
         class="st0" /><path
         style="fill:#808184"
         inkscape:connector-curvature="0"
         id="path93"
         d="m 639.5,556.4 -1.4,0 0,7.4 -2.5,0 0,1.2 6.5,0 0,-1.2 -2.5,0 0,-7.4 z"
         class="st0" /><path
         style="fill:#808184"
         inkscape:connector-curvature="0"
         id="path95"
         d="m 643.3,556.4 0,8.6 1.4,0 0,-8.6 -1.4,0 z"
         class="st0" /><path
         style="fill:#808184"
         inkscape:connector-curvature="0"
         id="path97"
         d="m 652.4,556.4 -6.2,0 0,1 4.3,6.4 -4.2,0 0,1.2 5.9,0 0,-1 -4.4,-6.4 4.5,0 0,-1.2 z"
         class="st0" /><path
         style="fill:#808184"
         inkscape:connector-curvature="0"
         id="path99"
         d="m 658.8,556.4 -4.9,0 0,8.6 4.9,0 0,-1.2 -3.5,0 0,-2.3 3.2,0 0,-1.2 -3.2,0 0,-2.7 3.5,0 0,-1.2 z"
         class="st0" /><path
         style="fill:#808184"
         inkscape:connector-curvature="0"
         id="path101"
         d="m 667.8,556.4 -1.7,0 -4.2,6.9 0,0 0,-0.4 c 0.1,-0.7 0.1,-1.4 0.1,-2 l 0,-4.5 -1.3,0 0,8.6 1.7,0 4.2,-6.8 0,0 c 0,0.1 0,0.4 0,1 0,0.6 0,1 0,1.3 l 0,4.5 1.3,0 0,-8.6 z"
         class="st0" /><path
         style="fill:#808184"
         inkscape:connector-curvature="0"
         id="path103"
         d="m 678.2,558.7 c 0,-0.8 -0.3,-1.4 -0.8,-1.8 -0.6,-0.4 -1.3,-0.7 -2.3,-0.7 -1,0 -1.8,0.2 -2.4,0.5 l 0,1.3 c 0.4,-0.2 0.8,-0.3 1.2,-0.4 0.4,-0.1 0.9,-0.2 1.2,-0.2 0.6,0 1,0.1 1.2,0.3 0.2,0.2 0.4,0.5 0.4,0.9 0,0.3 -0.1,0.6 -0.4,0.8 -0.2,0.2 -0.7,0.5 -1.5,0.8 -0.8,0.3 -1.3,0.7 -1.7,1.1 -0.3,0.4 -0.5,0.9 -0.5,1.5 0,0.7 0.3,1.3 0.8,1.7 0.5,0.4 1.2,0.6 2.1,0.6 0.8,0 1.6,-0.2 2.5,-0.5 l -0.4,-1.1 c -0.8,0.3 -1.4,0.5 -2,0.5 -0.5,0 -0.8,-0.1 -1,-0.3 -0.2,-0.2 -0.4,-0.5 -0.4,-0.8 0,-0.2 0,-0.4 0.1,-0.6 0.1,-0.2 0.2,-0.3 0.5,-0.4 0.3,-0.1 0.6,-0.3 1.2,-0.6 0.6,-0.3 1.1,-0.5 1.4,-0.7 0.3,-0.2 0.5,-0.5 0.6,-0.8 0.1,-0.4 0.2,-0.7 0.2,-1.1 z"
         class="st0" /><path
         style="fill:#808184"
         inkscape:connector-curvature="0"
         id="path105"
         d="m 683.5,563.9 c -0.8,0 -1.4,-0.3 -1.9,-0.9 -0.5,-0.6 -0.7,-1.4 -0.7,-2.4 0,-1.1 0.2,-1.9 0.7,-2.4 0.4,-0.5 1.1,-0.8 1.9,-0.8 0.4,0 0.7,0 1.1,0.1 0.3,0.1 0.7,0.2 1.1,0.3 l 0,-1.2 c -0.7,-0.3 -1.4,-0.4 -2.3,-0.4 -1.3,0 -2.2,0.4 -2.9,1.1 -0.7,0.8 -1,1.9 -1,3.3 0,0.9 0.2,1.7 0.5,2.3 0.3,0.7 0.8,1.2 1.4,1.5 0.6,0.4 1.3,0.5 2.2,0.5 0.9,0 1.7,-0.2 2.4,-0.6 l -0.5,-1.2 c -0.3,0.1 -0.6,0.3 -0.9,0.4 -0.4,0.3 -0.7,0.4 -1.1,0.4 z"
         class="st0" /><path
         style="fill:#808184"
         inkscape:connector-curvature="0"
         id="path107"
         d="m 687.5,556.4 0,8.6 1.4,0 0,-8.6 -1.4,0 z"
         class="st0" /><path
         style="fill:#808184"
         inkscape:connector-curvature="0"
         id="path109"
         d="m 696,556.4 -4.9,0 0,8.6 4.9,0 0,-1.2 -3.5,0 0,-2.3 3.2,0 0,-1.2 -3.2,0 0,-2.7 3.5,0 0,-1.2 z"
         class="st0" /><path
         style="fill:#808184"
         inkscape:connector-curvature="0"
         id="path111"
         d="m 705,556.4 -1.7,0 -4.2,6.9 0,0 0,-0.4 c 0.1,-0.7 0.1,-1.4 0.1,-2 l 0,-4.5 -1.3,0 0,8.6 1.7,0 4.2,-6.8 0,0 c 0,0.1 0,0.4 0,1 0,0.6 0,1 0,1.3 l 0,4.5 1.3,0 0,-8.6 z"
         class="st0" /><path
         style="fill:#808184"
         inkscape:connector-curvature="0"
         id="path113"
         d="m 710.3,556.4 -1.4,0 0,7.4 -2.5,0 0,1.2 6.5,0 0,-1.2 -2.5,0 0,-7.4 z"
         class="st0" /><path
         style="fill:#808184"
         inkscape:connector-curvature="0"
         id="path115"
         d="m 714.1,556.4 0,8.6 1.4,0 0,-8.6 -1.4,0 z"
         class="st0" /><path
         style="fill:#808184"
         inkscape:connector-curvature="0"
         id="path117"
         d="m 722.8,558.7 c 0,-0.8 -0.3,-1.4 -0.8,-1.8 -0.6,-0.4 -1.3,-0.7 -2.3,-0.7 -1,0 -1.8,0.2 -2.4,0.5 l 0,1.3 c 0.4,-0.2 0.8,-0.3 1.2,-0.4 0.4,-0.1 0.9,-0.2 1.2,-0.2 0.6,0 1,0.1 1.2,0.3 0.2,0.2 0.4,0.5 0.4,0.9 0,0.3 -0.1,0.6 -0.4,0.8 -0.2,0.2 -0.7,0.5 -1.5,0.8 -0.8,0.3 -1.3,0.7 -1.7,1.1 -0.3,0.4 -0.5,0.9 -0.5,1.5 0,0.7 0.3,1.3 0.8,1.7 0.5,0.4 1.2,0.6 2.1,0.6 0.8,0 1.6,-0.2 2.5,-0.5 l -0.4,-1.1 c -0.8,0.3 -1.4,0.5 -2,0.5 -0.5,0 -0.8,-0.1 -1,-0.3 -0.2,-0.2 -0.4,-0.5 -0.4,-0.8 0,-0.2 0,-0.4 0.1,-0.6 0.1,-0.2 0.2,-0.3 0.5,-0.4 0.3,-0.1 0.6,-0.3 1.2,-0.6 0.6,-0.3 1.1,-0.5 1.4,-0.7 0.3,-0.2 0.5,-0.5 0.6,-0.8 0.1,-0.4 0.2,-0.7 0.2,-1.1 z"
         class="st0" /><path
         style="fill:#808184"
         inkscape:connector-curvature="0"
         id="path119"
         d="m 727.4,556.4 -1.4,0 0,7.4 -2.5,0 0,1.2 6.5,0 0,-1.2 -2.5,0 0,-7.4 z"
         class="st0" /></g><g
       id="g121"
       transform="matrix(1.5003761,0,0,-1.5003761,-367.17041,1695.3477)"><g
         id="g123"><rect
           style="fill:#a6a8ab"
           id="rect125"
           height="1.8"
           width="3.5999999"
           class="st3"
           y="733.70001"
           x="503" /></g><g
         id="g127"><path
           style="fill:#a6a8ab"
           inkscape:connector-curvature="0"
           id="path129"
           d="m 755.2,734 -4.8,0 0,1.2 4.8,0 0,-1.2 z m -9.6,0 -4.8,0 0,1.2 4.8,0 0,-1.2 z m -9.6,0 -4.8,0 0,1.2 4.8,0 0,-1.2 z m -9.6,0 -4.8,0 0,1.2 4.8,0 0,-1.2 z m -9.6,0 -4.8,0 0,1.2 4.8,0 0,-1.2 z m -9.5,0 -4.8,0 0,1.2 4.8,0 0,-1.2 z m -9.6,0 -4.8,0 0,1.2 4.8,0 0,-1.2 z m -9.6,0 -4.8,0 0,1.2 4.8,0 0,-1.2 z m -9.6,0 -4.8,0 0,1.2 4.8,0 0,-1.2 z m -9.6,0 -4.8,0 0,1.2 4.8,0 0,-1.2 z m -9.6,0 -4.8,0 0,1.2 4.8,0 0,-1.2 z m -9.6,0 -4.8,0 0,1.2 4.8,0 0,-1.2 z m -9.5,0 -4.8,0 0,1.2 4.8,0 0,-1.2 z m -9.6,0 -4.8,0 0,1.2 4.8,0 0,-1.2 z m -9.6,0 -4.8,0 0,1.2 4.8,0 0,-1.2 z m -9.6,0 -4.8,0 0,1.2 4.8,0 0,-1.2 z m -9.6,0 -4.8,0 0,1.2 4.8,0 0,-1.2 z m -9.6,0 -4.8,0 0,1.2 4.8,0 0,-1.2 z m -9.6,0 -4.8,0 0,1.2 4.8,0 0,-1.2 z m -9.6,0 -4.8,0 0,1.2 4.8,0 0,-1.2 z m -9.5,0 -4.8,0 0,1.2 4.8,0 0,-1.2 z m -9.6,0 -4.8,0 0,1.2 4.8,0 0,-1.2 z m -9.6,0 -4.8,0 0,1.2 4.8,0 0,-1.2 z m -9.6,0 -4.8,0 0,1.2 4.8,0 0,-1.2 z m -9.6,0 -4.8,0 0,1.2 4.8,0 0,-1.2 z m -9.6,0 -4.8,0 0,1.2 4.8,0 0,-1.2 z"
           class="st3" /></g><g
         id="g131"><rect
           style="fill:#a6a8ab"
           id="rect133"
           height="1.8"
           width="3.5999999"
           class="st3"
           y="733.70001"
           x="759.40002" /></g></g><g
       id="g135"
       transform="matrix(1.5003761,0,0,-1.5003761,-367.17041,1695.3477)"><polygon
         style="fill:#bbbdbf"
         id="polygon137"
         points="510.9,811.2 511.7,811.2 511.7,604.4 762.4,604.4 762.4,603.6 510.9,603.6 "
         class="st4" /></g><g
       id="g139"
       transform="matrix(1.5003761,0,0,-1.5003761,-367.17041,1695.3477)"><path
         style="fill:#808184"
         inkscape:connector-curvature="0"
         id="path141"
         d="m 456.5,685 -2.4,-0.9 0,-3.3 2.4,-0.8 0,-1.5 -8.6,3.2 0,1.5 8.6,3.2 0,-1.4 z m -3.6,-1.2 -2.3,-0.8 c -0.2,-0.1 -0.4,-0.1 -0.7,-0.2 -0.3,-0.1 -0.6,-0.2 -0.7,-0.2 0.5,-0.1 1,-0.3 1.6,-0.5 l 2.2,-0.8 0,2.5 z"
         class="st0" /><path
         style="fill:#808184"
         inkscape:connector-curvature="0"
         id="path143"
         d="m 449,691.3 c 0,-0.8 0.3,-1.4 0.9,-1.9 0.6,-0.5 1.4,-0.7 2.4,-0.7 1.1,0 1.9,0.2 2.4,0.7 0.5,0.4 0.8,1.1 0.8,1.9 0,0.4 0,0.7 -0.1,1.1 -0.1,0.3 -0.2,0.7 -0.3,1.1 l 1.2,0 c 0.3,-0.7 0.4,-1.4 0.4,-2.3 0,-1.3 -0.4,-2.2 -1.1,-2.9 -0.8,-0.7 -1.9,-1 -3.3,-1 -0.9,0 -1.7,0.2 -2.3,0.5 -0.7,0.3 -1.2,0.8 -1.5,1.4 -0.4,0.6 -0.5,1.3 -0.5,2.2 0,0.9 0.2,1.7 0.6,2.4 l 1.2,-0.5 c -0.1,-0.3 -0.3,-0.6 -0.4,-0.9 -0.3,-0.4 -0.4,-0.7 -0.4,-1.1 z"
         class="st0" /><path
         style="fill:#808184"
         inkscape:connector-curvature="0"
         id="path145"
         d="m 449,698.9 c 0,-0.8 0.3,-1.4 0.9,-1.9 0.6,-0.5 1.4,-0.7 2.4,-0.7 1.1,0 1.9,0.2 2.4,0.7 0.5,0.4 0.8,1.1 0.8,1.9 0,0.4 0,0.7 -0.1,1.1 -0.1,0.3 -0.2,0.7 -0.3,1.1 l 1.2,0 c 0.3,-0.7 0.4,-1.4 0.4,-2.3 0,-1.3 -0.4,-2.2 -1.1,-2.9 -0.8,-0.7 -1.9,-1 -3.3,-1 -0.9,0 -1.7,0.2 -2.3,0.5 -0.7,0.3 -1.2,0.8 -1.5,1.4 -0.4,0.6 -0.5,1.3 -0.5,2.2 0,0.9 0.2,1.7 0.6,2.4 l 1.2,-0.5 c -0.1,-0.3 -0.3,-0.6 -0.4,-0.9 -0.3,-0.4 -0.4,-0.7 -0.4,-1.1 z"
         class="st0" /><path
         style="fill:#808184"
         inkscape:connector-curvature="0"
         id="path147"
         d="m 447.9,709.7 5.6,0 c 0.6,0 1.2,-0.1 1.7,-0.4 0.5,-0.3 0.8,-0.7 1.1,-1.2 0.3,-0.5 0.4,-1.1 0.4,-1.8 0,-1.1 -0.3,-1.9 -0.8,-2.5 -0.6,-0.6 -1.3,-0.9 -2.3,-0.9 l -5.5,0 0,1.4 5.4,0 c 0.7,0 1.2,0.2 1.6,0.5 0.3,0.3 0.5,0.8 0.5,1.5 0,1.3 -0.7,2 -2.1,2 l -5.4,0 0,1.4 z"
         class="st0" /><path
         style="fill:#808184"
         inkscape:connector-curvature="0"
         id="path149"
         d="m 453.1,713.3 3.4,0 0,-1.4 -8.6,0 0,2.4 c 0,1.1 0.2,1.9 0.6,2.5 0.4,0.5 1,0.8 1.9,0.8 1.1,0 1.8,-0.6 2.3,-1.7 l 3.8,2.4 0,-1.6 -3.4,-2.1 0,-1.3 z m -1.2,0 0,1 c 0,0.7 -0.1,1.1 -0.4,1.4 -0.2,0.3 -0.6,0.4 -1.1,0.4 -0.5,0 -0.8,-0.2 -1,-0.5 -0.2,-0.3 -0.3,-0.8 -0.3,-1.4 l 0,-0.9 2.8,0 z"
         class="st0" /><path
         style="fill:#808184"
         inkscape:connector-curvature="0"
         id="path151"
         d="m 456.5,724.9 -2.4,-0.9 0,-3.3 2.4,-0.8 0,-1.5 -8.6,3.2 0,1.5 8.6,3.2 0,-1.4 z m -3.6,-1.2 -2.3,-0.8 c -0.2,-0.1 -0.4,-0.1 -0.7,-0.2 -0.3,-0.1 -0.6,-0.2 -0.7,-0.2 0.5,-0.1 1,-0.3 1.6,-0.5 l 2.2,-0.8 0,2.5 z"
         class="st0" /><path
         style="fill:#808184"
         inkscape:connector-curvature="0"
         id="path153"
         d="m 449,731.2 c 0,-0.8 0.3,-1.4 0.9,-1.9 0.6,-0.5 1.4,-0.7 2.4,-0.7 1.1,0 1.9,0.2 2.4,0.7 0.5,0.4 0.8,1.1 0.8,1.9 0,0.4 0,0.7 -0.1,1.1 -0.1,0.3 -0.2,0.7 -0.3,1.1 l 1.2,0 c 0.3,-0.7 0.4,-1.4 0.4,-2.3 0,-1.3 -0.4,-2.2 -1.1,-2.9 -0.8,-0.7 -1.9,-1 -3.3,-1 -0.9,0 -1.7,0.2 -2.3,0.5 -0.7,0.3 -1.2,0.8 -1.5,1.4 -0.4,0.6 -0.5,1.3 -0.5,2.2 0,0.9 0.2,1.7 0.6,2.4 l 1.2,-0.5 c -0.1,-0.3 -0.3,-0.6 -0.4,-0.9 -0.3,-0.4 -0.4,-0.8 -0.4,-1.1 z"
         class="st0" /><path
         style="fill:#808184"
         inkscape:connector-curvature="0"
         id="path155"
         d="m 451.9,737.6 -3.9,2 0,1.5 5.3,-2.9 3.3,0 0,-1.4 -3.3,0 -5.3,-2.9 0,1.5 3.9,2.2 z"
         class="st0" /></g><path
       style="fill:none;fill-rule:evenodd;stroke:#46c0ef;stroke-width:4.4000001;stroke-linecap:round;stroke-linejoin:bevel;stroke-miterlimit:4;stroke-dasharray:none;stroke-opacity:1"
       d="m 413.30832,583.92644 c 15.83579,-29.70628 52.50336,-40.88599 96.69812,-44.01432 56.46282,-3.18942 112.92563,-3.7378 169.38844,-5.33507 l 84.69422,-2.66753"
       id="path4211"
       inkscape:connector-curvature="0"
       sodipodi:nodetypes="cccc" /></g></svg>