<?xml version="1.0" encoding="UTF-8" standalone="no"?>
<svg width="34px" height="39px" viewBox="0 0 34 39" version="1.1" xmlns="http://www.w3.org/2000/svg" xmlns:xlink="http://www.w3.org/1999/xlink">
    <!-- Generator: sketchtool 40.3 (33839) - http://www.bohemiancoding.com/sketch -->
    <title>C423E702-B325-4B5A-95B1-4F5F0879C292</title>
    <desc>Created with sketchtool.</desc>
    <defs>
        <polygon id="path-1" points="0.232184127 17.0582011 16.690528 17.0582011 16.690528 0.445067725 0.232184127 0.445067725 0.232184127 17.0582011"></polygon>
    </defs>
    <g id="Page-1" stroke="none" stroke-width="1" fill="none" fill-rule="evenodd">
        <g id="Desktop-HD" transform="translate(-1373.000000, -972.000000)">
            <g id="fixed-nav" transform="translate(-12.000000, 961.000000)">
                <g id="social-icons" transform="translate(1264.000000, 11.000000)">
                    <g id="LinkedIn" transform="translate(120.000000, 0.000000)">
                        <g id="Page-1" transform="translate(5.000000, 0.000000)">
                            <path d="M3.07863386,0 L3.11054921,0 C4.58264444,0 5.54608889,0.706126984 6.00287725,2.11638624 L6.09662857,2.89232804 C6.09662857,4.05324868 5.49622116,4.89501587 4.29341164,5.4116455 C3.81667619,5.57720635 3.38980847,5.66098413 3.01679788,5.66098413 C1.58659153,5.66098413 0.62314709,5.00671958 0.124469841,3.70018519 C0.0406920635,3.45084656 0.000797883598,3.13967196 0.000797883598,2.76666138 C0.000797883598,1.52395767 0.694956614,0.630328042 2.08526878,0.0897619048 L3.07863386,0 Z" id="Fill-1" fill="#287BBC"></path>
                            <polygon id="Fill-3" fill="#287BBC" points="0.403130688 7.80729101 5.62926825 7.80729101 5.72301958 7.90104233 5.72301958 23.9524656 5.62926825 24.0462169 0.403130688 24.0462169 0.309379365 23.9524656 0.309379365 7.90104233"></polygon>
                            <g id="Group-7" transform="translate(7.978836, 6.989213)">
                                <mask id="mask-2" fill="white">
                                    <use xlink:href="#path-1"></use>
                                </mask>
                                <g id="Clip-6"></g>
                                <path d="M10.4371153,0.445067725 L10.5927026,0.445067725 C13.4551101,0.445067725 15.3620519,1.90718942 16.3155228,4.8314328 C16.5648614,5.66123175 16.690528,7.12335344 16.690528,9.21779788 L16.690528,16.9652476 L16.5967767,17.0589989 L11.3407185,17.0589989 L11.2469672,16.9652476 L11.2469672,8.00501481 C11.2469672,6.38730582 10.6545386,5.3400836 9.4736709,4.86135344 C9.24427937,4.77957037 8.93310476,4.73768148 8.53815238,4.73768148 L8.47831111,4.73768148 C7.2116709,4.73768148 6.30008889,5.48370265 5.73957566,6.97773968 C5.67773968,7.2470254 5.64582434,7.62003598 5.64582434,8.09677143 L5.64582434,16.9652476 L5.55207302,17.0589989 L0.32593545,17.0589989 L0.232184127,16.9652476 L0.232184127,0.91182963 L0.32593545,0.820073016 L5.55207302,0.820073016 L5.64582434,0.91182963 L5.64582434,2.99630053 C6.76685079,1.29481376 8.36261799,0.445067725 10.4371153,0.445067725" id="Fill-5" fill="#287BBC" mask="url(#mask-2)"></path>
                            </g>
                        </g>
                        <text id="SHARE" font-family="OpenSans-Semibold, Open Sans" font-size="11" font-weight="500" fill="#287BBC">
                            <tspan x="0.624511719" y="38">SHARE</tspan>
                        </text>
                    </g>
                </g>
            </g>
        </g>
    </g>
</svg>