<?xml version="1.0" encoding="UTF-8" standalone="no"?>
<svg
   xmlns:dc="http://purl.org/dc/elements/1.1/"
   xmlns:cc="http://creativecommons.org/ns#"
   xmlns:rdf="http://www.w3.org/1999/02/22-rdf-syntax-ns#"
   xmlns:svg="http://www.w3.org/2000/svg"
   xmlns="http://www.w3.org/2000/svg"
   xmlns:xlink="http://www.w3.org/1999/xlink"
   xmlns:sodipodi="http://sodipodi.sourceforge.net/DTD/sodipodi-0.dtd"
   xmlns:inkscape="http://www.inkscape.org/namespaces/inkscape"
   width="34px"
   height="39px"
   viewBox="0 0 34 39"
   version="1.1"
   id="svg2"
   inkscape:version="0.91 r13725"
   sodipodi:docname="linkedin.svg">
  <metadata
     id="metadata31">
    <rdf:RDF>
      <cc:Work
         rdf:about="">
        <dc:format>image/svg+xml</dc:format>
        <dc:type
           rdf:resource="http://purl.org/dc/dcmitype/StillImage" />
      </cc:Work>
    </rdf:RDF>
  </metadata>
  <sodipodi:namedview
     pagecolor="#ffffff"
     bordercolor="#666666"
     borderopacity="1"
     objecttolerance="10"
     gridtolerance="10"
     guidetolerance="10"
     inkscape:pageopacity="0"
     inkscape:pageshadow="2"
     inkscape:window-width="869"
     inkscape:window-height="480"
     id="namedview29"
     showgrid="false"
     inkscape:zoom="6.0512821"
     inkscape:cx="17"
     inkscape:cy="19.5"
     inkscape:window-x="0"
     inkscape:window-y="24"
     inkscape:window-maximized="0"
     inkscape:current-layer="svg2" />
  <!-- Generator: sketchtool 40.3 (33839) - http://www.bohemiancoding.com/sketch -->
  <title
     id="title4">C423E702-B325-4B5A-95B1-4F5F0879C292</title>
  <desc
     id="desc6">Created with sketchtool.</desc>
  <defs
     id="defs8">
    <polygon
       id="path-1"
       points="0.232184127 17.0582011 16.690528 17.0582011 16.690528 0.445067725 0.232184127 0.445067725 0.232184127 17.0582011" />
  </defs>
  <g
     style="fill:none;fill-rule:evenodd;stroke:none;stroke-width:1"
     transform="translate(4,0)"
     id="g16">
    <path
       style="fill:#287bbc"
       inkscape:connector-curvature="0"
       id="Fill-1"
       d="m 3.0786339,0 0.031915,0 c 1.4720952,0 2.4355397,0.70612698 2.892328,2.1163862 l 0.093751,0.7759418 c 0,1.1609207 -0.6004074,2.0026879 -1.803217,2.5193175 -0.4767347,0.1655608 -0.9036024,0.2493386 -1.276613,0.2493386 -1.4302064,0 -2.39365081,-0.6542645 -2.89232806,-1.9607989 C 0.04069206,3.4508466 7.978836e-4,3.139672 7.978836e-4,2.7666614 7.978836e-4,1.5239577 0.69495661,0.63032804 2.0852688,0.0897619 L 3.0786339,0 Z" />
    <polygon
       style="fill:#287bbc"
       points="5.7230196,7.9010423 5.7230196,23.952466 5.6292682,24.046217 0.40313069,24.046217 0.30937937,23.952466 0.30937937,7.9010423 0.40313069,7.807291 5.6292682,7.807291 "
       id="Fill-3" />
    <g
       transform="translate(7.978836,6.989213)"
       id="Group-7">
      <mask
         fill="white"
         id="mask-2">
        <use
           height="100%"
           width="100%"
           y="0"
           x="0"
           id="use22"
           xlink:href="#path-1" />
      </mask>
      <g
         id="Clip-6" />
      <path
         style="fill:#287bbc"
         inkscape:connector-curvature="0"
         mask="url(#mask-2)"
         id="Fill-5"
         d="m 10.437115,0.44506773 0.155588,0 c 2.862407,0 4.769349,1.46212167 5.72282,4.38636507 0.249338,0.8297989 0.375005,2.2919206 0.375005,4.3863651 l 0,7.7474501 -0.09375,0.09375 -5.256059,0 -0.09375,-0.09375 0,-8.9602332 c 0,-1.617709 -0.592428,-2.6649312 -1.7732961,-3.1436614 C 9.2442794,4.7795704 8.9331048,4.7376815 8.5381524,4.7376815 l -0.059841,0 c -1.2666402,0 -2.1782222,0.7460211 -2.7387354,2.2400582 C 5.67774,7.2470254 5.645825,7.620036 5.645825,8.0967714 l 0,8.8684766 -0.093751,0.09375 -5.22613755,0 -0.0937513,-0.09375 0,-16.05341837 0.0937513,-0.0917566 5.22613755,0 0.093751,0.0917566 0,2.08447087 C 6.7668508,1.2948138 8.362618,0.44506773 10.437115,0.44506773" />
    </g>
  </g>
  <g
     style="font-weight:500;font-size:11px;font-family:OpenSans-Semibold, 'Open Sans';fill:#287bbc;fill-rule:evenodd;stroke:none;stroke-width:1"
     id="SHARE">
    <path
       d="m 5.1352539,35.910645 q 0,1.036621 -0.7519531,1.616699 -0.7519531,0.580078 -2.0410156,0.580078 -1.39648442,0 -2.14843754,-0.359863 l 0,-0.88086 q 0.48339843,0.204102 1.05273434,0.322266 0.569336,0.118164 1.1279297,0.118164 0.913086,0 1.375,-0.34375 0.4619141,-0.349121 0.4619141,-0.966797 0,-0.408203 -0.1665039,-0.666016 Q 3.8837891,35.067383 3.4970703,34.847168 3.1157227,34.626953 2.331543,34.347656 1.2358398,33.955566 0.76318359,33.418457 0.29589844,32.881348 0.29589844,32.016602 q 0,-0.907715 0.6821289,-1.444825 0.68212886,-0.537109 1.80468746,-0.537109 1.1708985,0 2.1538086,0.429687 l -0.2846679,0.794922 q -0.972168,-0.408203 -1.890625,-0.408203 -0.7250977,0 -1.1333008,0.311524 -0.4082031,0.311523 -0.4082031,0.864746 0,0.408203 0.1503906,0.671386 0.1503906,0.257813 0.5048828,0.478028 0.3598633,0.214844 1.0957031,0.478027 1.2353516,0.44043 1.6972656,0.945313 0.4672852,0.504882 0.4672852,1.310547 z"
       style=""
       id="path4220" />
    <path
       d="m 12.703125,38 -0.913086,0 0,-3.695313 -4.1357421,0 0,3.695313 -0.913086,0 0,-7.852539 0.913086,0 0,3.34082 4.1357421,0 0,-3.34082 0.913086,0 0,7.852539 z"
       style=""
       id="path4222" />
    <path
       d="m 19.79834,38 -0.977539,-2.497559 -3.147461,0 L 14.706543,38 l -0.923828,0 3.104492,-7.884766 0.768066,0 L 20.743652,38 19.79834,38 Z m -1.262207,-3.319336 -0.913086,-2.433105 q -0.177246,-0.461914 -0.365235,-1.133301 -0.118164,0.515625 -0.338378,1.133301 l -0.923829,2.433105 2.540528,0 z"
       style=""
       id="path4224" />
    <path
       d="m 22.736328,34.734375 0,3.265625 -0.913086,0 0,-7.852539 2.153809,0 q 1.444824,0 2.132324,0.553223 0.692871,0.553222 0.692871,1.665039 0,1.557617 -1.579101,2.105468 L 27.355469,38 l -1.07959,0 -1.901367,-3.265625 -1.638184,0 z m 0,-0.78418 1.251465,0 q 0.966797,0 1.417969,-0.381347 0.451172,-0.386719 0.451172,-1.154786 0,-0.778808 -0.461914,-1.122558 -0.456543,-0.34375 -1.47168,-0.34375 l -1.187012,0 0,3.002441 z"
       style=""
       id="path4226" />
    <path
       d="m 33.01123,38 -4.377441,0 0,-7.852539 4.377441,0 0,0.811035 -3.464355,0 0,2.529785 3.254883,0 0,0.805664 -3.254883,0 0,2.889649 3.464355,0 0,0.816406 z"
       style=""
       id="path4228" />
  </g>
</svg>
