<?xml version="1.0" encoding="UTF-8" standalone="no"?>
<svg width="60px" height="60px" viewBox="0 0 60 60" version="1.1" xmlns="http://www.w3.org/2000/svg" xmlns:xlink="http://www.w3.org/1999/xlink">
    <!-- Generator: sketchtool 40.3 (33839) - http://www.bohemiancoding.com/sketch -->
    <title>F9E62F4F-26D5-49BE-8443-FAC2175479A2</title>
    <desc>Created with sketchtool.</desc>
    <defs>
        <path d="M0.0992729424,36.7966972 C5.58375956,43.1945194 13.7336507,47.2496208 22.8327775,47.2496208 C31.1561631,47.2496208 38.6852871,43.8564241 44.1065092,38.3807547 L44.1065092,0.0976101362 L0.0992729424,0.0976101362 L0.0992729424,36.7966972 L0.0992729424,36.7966972 Z" id="path-1"></path>
        <path d="M30.7634565,0.806067975 C30.7634565,0.806067975 27.2566824,6.072642 25.8957951,8.31849922 C23.8309742,11.7255631 17.5574882,13.231081 14.2221655,13.5478779 C10.8870981,13.8649297 1.49991223,12.3515141 1.49991223,12.3515141 C1.49991223,12.3515141 1.67532115,13.5478779 2.07248065,14.0232644 C2.46951249,14.4987783 3.26357616,16.3210932 2.97990904,16.1775346 C2.69636958,16.033976 1.59591478,18.2227665 0.643038379,20.0452087 C-0.309965691,21.8675236 0.0871938083,22.9768861 0.0871938083,22.9768861 C0.0871938083,22.9768861 3.10489109,27.3348503 3.81942073,28.6025476 C3.98333998,28.8933588 4.30160377,29.4213537 4.69506104,30.0628452 C7.35645097,31.304302 10.2296338,32.1656534 13.2479694,32.5779862 C13.9059443,32.1476927 14.4409798,31.7719182 14.6987313,31.5343524 C15.7311418,30.583452 30.7395835,22.1053442 30.5014921,21.4714956 C30.2634006,20.8375195 31.5337748,10.7746627 31.5337748,9.74465868 C31.5337748,8.71465462 32.0894917,4.83194951 32.3279662,4.27745932 C32.5663129,3.722587 32.2483045,1.1871924 31.4150483,0.380487522 C31.2096386,0.181390771 31.0658901,0.106490649 30.9658023,0.106490649 C30.6604325,0.106490649 30.7634565,0.806067975 30.7634565,0.806067975 L30.7634565,0.806067975 Z" id="path-3"></path>
        <path d="M0.00298307506,0.0245981258 C4.61150633,10.5758947 15.1567654,17.9519541 27.4286444,17.9519541 C39.7004285,17.9519541 50.2456632,10.5758947 54.8541802,0.0245981258 L0.00298271518,0.0245973018 L0.00298307506,0.0245981258 Z" id="path-5"></path>
        <path d="M0.0858787903,17.3164246 C3.06187009,18.3070853 6.2460519,18.8436223 9.55582861,18.8436223 C19.1113539,18.8436223 27.6200574,14.3714541 33.0942887,7.41035601 L33.0942887,0.0212726536 L0.0858788798,0.0212726536 L0.0858788798,17.3164254 L0.0858787903,17.3164246 Z" id="path-7"></path>
        <path d="M0.110877367,0.0138081177 C1.00122746,1.17227424 1.97481745,2.26369948 3.0227272,3.2791834 L3.0227272,0.0138081177 L0.110877367,0.0138081177 L0.110877367,0.0138081177 Z" id="path-9"></path>
        <path d="M0.124532219,0.0771217126 C0.963863518,1.19992362 1.88052097,2.26179791 2.86663369,3.25489107 L2.86663369,0.0771217126 L0.124532219,0.0771217126 L0.124532219,0.0771217126 Z" id="path-11"></path>
        <path d="M0.0165833544,13.4701007 C2.90224965,14.3952219 5.97907224,14.8948063 9.1728397,14.8948063 C20.2269286,14.8948063 29.8801099,8.90993383 35.0552581,0.0104834694 L0.0165834198,0.0104834694 L0.0165834198,13.4701014 L0.0165833544,13.4701007 Z" id="path-13"></path>
        <path d="M0.00749980724,3.68838197 C2.05226253,4.97532267 4.26422414,6.02185521 6.60352023,6.78820315 L6.60352031,0.0416002565 L0.00749980725,0.0416002565 L0.00749980725,3.68838197 L0.00749980724,3.68838197 Z" id="path-15"></path>
        <path d="M0.124752254,5.55727162 C2.22368972,6.90935204 4.50320104,8.00630512 6.91923075,8.80417263 L6.91923083,0.0563534248 L0.124752254,0.0563534248 L0.124752254,5.55727162 L0.124752254,5.55727162 Z" id="path-17"></path>
        <path d="M0.11199934,7.1918526 C3.05472233,9.61453282 6.46980014,11.4864356 10.1987265,12.6494044 L10.1987266,0.103408025 L0.11199934,0.103408025 L0.11199934,7.1918526 L0.11199934,7.1918526 Z" id="path-19"></path>
        <path d="M0.125313971,5.74266039 C3.40586372,9.02554521 7.44824154,11.5500899 11.965416,13.0298967 L11.9654161,0.031093741 L0.125313971,0.031093741 L0.125313971,5.74266039 L0.125313971,5.74266039 Z" id="path-21"></path>
        <path d="M0.0164046916,7.19329031 C1.90428574,7.5660321 3.85607065,7.76146141 5.85360249,7.76146141 C7.69637695,7.76146141 9.5002193,7.59513801 11.2508737,7.27671539 L11.2508737,0.126642348 L0.0164046916,0.126642348 L0.0164046916,7.19329031 L0.0164046916,7.19329031 Z" id="path-23"></path>
        <path d="M0.123413073,3.80267627 C5.11861586,3.67495238 9.80918464,2.32494484 13.9058784,0.0412525625 L0.123410608,0.0412516807 L0.123410608,3.80267634 L0.123413073,3.80267627 Z" id="path-25"></path>
        <path d="M0.0261659639,7.95748077 C2.66130131,5.72917357 4.90456398,3.05366017 6.63823312,0.0484000869 L0.0261659639,0.0483921024 L0.0261659639,7.95748077 L0.0261659639,7.95748077 Z" id="path-27"></path>
    </defs>
    <g id="Page-1" stroke="none" stroke-width="1" fill="none" fill-rule="evenodd">
        <g id="Desktop-HD" transform="translate(-1375.000000, -6755.000000)">
            <g id="witget" transform="translate(1224.000000, 6646.000000)">
                <g id="Nick" transform="translate(151.000000, 109.000000)">
                    <path d="M29.9027527,59.6734873 C13.3880156,59.6734873 0,46.3151526 0,29.8367437 C0,13.3583348 13.3880156,0 29.9027527,0 C46.4176175,0 59.8055055,13.3583348 59.8055055,29.8367437 C59.8055055,46.3151526 46.4176175,59.6734873 29.9027527,59.6734873 Z" id="Fill-1" fill="#C4E9F5"></path>
                    <g id="Group-5" transform="translate(7.000000, 12.000000)">
                        <mask id="mask-2" fill="white">
                            <use xlink:href="#path-1"></use>
                        </mask>
                        <g id="Clip-4"></g>
                        <path d="M4.07918934,36.2585374 L6.90462619,32.3652597 L7.91380196,30.8885299 L6.27601372,26.7345029 C6.27601372,26.7345029 0.379133488,25.0935788 0.177425995,22.6993226 C0.0189962499,20.8217243 -0.226371978,18.1350009 3.13729195,16.1212321 C6.50095588,14.1074634 3.8996952,14.1521742 3.8996952,14.1521742 C3.8996952,14.1521742 9.8646198,0.816895374 22.3773781,0.145596665 C34.8900088,-0.525702044 38.1191159,6.05251578 38.2536727,6.99233397 C38.3882295,7.9318974 42.2899928,18.2692606 42.6937908,19.8802501 C43.0972058,21.4911123 44.1065092,31.4926987 44.1065092,31.4926987 C44.1065092,31.4926987 29.5082486,38.5408257 28.8354648,38.9434775 C28.1628086,39.3462567 24.5301588,40.554467 23.7228182,41.2257657 C22.9154775,41.8969371 13.4972696,49.8177523 13.4972696,49.8177523 L11.2100598,43.2394071 C11.2100598,43.2394071 7.03918296,38.5408257 6.50095588,37.6010075 C5.9627288,36.6613167 4.07918934,36.2585374 4.07918934,36.2585374" id="Fill-3" fill="#A9C5C8" mask="url(#mask-2)"></path>
                    </g>
                    <g id="Group-8" transform="translate(13.000000, 27.000000)">
                        <mask id="mask-4" fill="white">
                            <use xlink:href="#path-3"></use>
                        </mask>
                        <g id="Clip-7"></g>
                        <path d="M-1.41031836,21.8644664 L1.41511849,17.9711887 L2.42429426,16.4944589 L0.786506024,12.3404319 C0.786506024,12.3404319 -5.1776526,10.1847606 -5.3120817,8.30525158 C-5.44676614,6.42586996 -5.71587968,3.74092988 -2.35221575,1.72716114 C1.01144818,-0.286607608 -1.5898125,-0.241896821 -1.5898125,-0.241896821 C-1.5898125,-0.241896821 4.3751121,-13.5771756 16.8878704,-14.2484743 C29.4005011,-14.919773 32.6296082,-8.34155521 32.764165,-7.40173702 C32.8987218,-6.46217359 36.8004851,3.87518962 37.2042831,5.48617914 C37.6076981,7.09704128 38.6170015,17.0986278 38.6170015,17.0986278 C38.6170015,17.0986278 24.0187409,24.1467547 23.3459571,24.5494065 C22.6733009,24.9521857 19.0406511,26.160396 18.2333105,26.8316947 C17.4259698,27.5028661 8.00776191,35.4236813 8.00776191,35.4236813 L5.72055214,28.8453361 C5.72055214,28.8453361 1.54967526,24.1467547 1.01144818,23.2069365 C0.473221096,22.2672457 -1.41031836,21.8644664 -1.41031836,21.8644664" id="Fill-6" fill="#CCDADA" mask="url(#mask-4)"></path>
                    </g>
                    <g id="Group-208" transform="translate(2.000000, 12.000000)">
                        <path d="M13.8208314,28.0108621 C13.8208314,28.0108621 14.1795644,29.8903711 14.2245017,30.0246309 C14.2691838,30.1588906 14.4037405,30.6958022 14.6729817,30.4721209 C14.9419676,30.2483122 15.4801947,28.6821608 15.4801947,28.6821608 L16.6014585,28.6821608 C16.9153818,28.6821608 17.6556994,29.9734237 17.9133232,30.3122575 C18.1710748,30.6510914 18.3056315,31.0090325 18.5746174,30.9196109 C18.8438586,30.8301893 19.3371483,28.950553 19.3371483,28.950553 L20.0098045,28.950553 C20.2789181,28.950553 21.9382813,28.9953911 21.9382813,28.9953911 C21.9382813,28.9953911 21.8038522,30.6510914 22.1176478,30.9196109 C22.4316987,31.1881304 22.8352414,31.2328412 22.9697981,31.1432922 C23.1043549,31.0538707 23.9116955,28.8164206 23.9116955,28.8164206 C23.9116955,28.8164206 24.4946046,28.9058422 24.988022,28.8164206 C25.4814394,28.7268716 26.1539679,30.4274101 26.2661837,30.4721209 C26.3783994,30.5168317 26.1539679,30.7853512 26.7371324,30.6959296 C27.3202968,30.6063806 27.3651065,29.6218517 27.4995356,29.2190724 C27.6342201,28.8164206 27.544473,28.6373227 28.0377627,28.5031903 C28.5311801,28.3688032 30.2847586,29.5498813 30.2847586,29.5498813 C30.2847586,29.5498813 30.3251001,29.7561114 30.7286428,29.5771409 C31.1324408,29.3981703 31.1324408,27.4739506 31.1324408,27.4739506 L31.8499066,27.1158821 L32.9710428,27.0710439 C32.9710428,27.0710439 33.2848384,28.0557003 34.002432,28.1898327 C34.7201532,28.3240924 34.9893944,27.4291124 34.9893944,26.4894216 C34.9893944,25.5497308 35.30319,24.5650744 35.30319,24.5650744 L36.6935674,24.3861039 C36.6935674,24.3861039 37.2766042,24.5650744 37.3214139,24.1624226 C37.3660959,23.7596433 36.9177436,22.2829136 36.9177436,22.2829136 C36.9177436,22.2829136 37.2316668,22.0143941 37.3214139,21.6116148 C37.4111609,21.208963 37.3663512,21.5221933 36.3347068,22.5065949 C35.30319,23.4911238 28.9797878,27.4291124 27.5894104,27.6529211 C26.1987776,27.8766024 17.4086715,28.1451219 16.1528509,27.9661514 C14.8971579,27.7871808 13.8208314,28.0108621 13.8208314,28.0108621" id="Fill-9" fill="#91AAAD"></path>
                        <path d="M18.3953914,28.5254183 C18.3953914,28.5254183 23.4465044,31.5303399 23.9452837,31.8145272 C24.6516429,32.2173065 26.8156579,32.7208442 28.2507173,32.7208442 C29.6859044,32.7208442 32.2238443,31.7842105 33.5542201,30.1141161 C35.247031,27.9885067 36.1554807,23.7595796 36.6038331,23.2226681 C37.0523131,22.6856291 37.1420602,22.8198888 34.4959898,24.632268 C31.8499194,26.4446471 28.5236607,27.5249667 27.5894231,27.6528574 C25.6271156,27.9213769 18.6643772,28.5254183 18.3953914,28.5254183" id="Fill-11" fill="#000000"></path>
                        <g id="Group-15" transform="translate(0.167558, 29.552429)">
                            <mask id="mask-6" fill="white">
                                <use xlink:href="#path-5"></use>
                            </mask>
                            <g id="Clip-14"></g>
                            <path d="M-7.5154552,7.00572173 C-7.5154552,7.00572173 -8.4121599,13.1810329 -8.68127344,14.1655619 C-8.95051464,15.1499635 -12.1796218,17.9691633 -12.1796218,18.1035505 C-12.1796218,18.2378102 -14.0632889,17.7007712 -14.0632889,17.7007712 C-14.0632889,17.7007712 -14.5116413,20.8782943 -14.1527807,20.9675884 C-13.7940477,21.05701 -11.1031676,22.6679995 -11.1031676,22.6679995 L-11.1031676,23.7420775 L-7.06684752,26.5612773 L-6.2595069,25.4427433 C-6.2595069,25.4427433 -2.76141387,26.0242383 -1.5505306,26.0242383 L-0.339519668,26.0242383 C-0.339519668,26.0242383 -1.14673263,33.0053627 -1.28141706,33.9449262 C-1.41597383,34.8848718 -3.8376127,42.8054322 -3.8376127,42.8054322 L-4.68989069,44.729652 L-0.339519668,45.4903723 C-0.339519668,45.4903723 6.38780819,48.04118 7.46413468,47.6384008 C8.54046118,47.2357489 13.7877922,44.8190736 13.7877922,44.8190736 C13.7877922,44.8190736 18.4968962,48.1753124 21.1877763,48.5780916 C23.878784,48.9807434 34.5076199,50.591733 36.1223011,50.994767 C37.736727,51.3974188 41.3696322,52.6056291 42.3786803,52.471242 C43.3877284,52.3371096 49.4424001,52.2028499 52.6715072,50.0548214 C55.9006144,47.9067929 56.7076997,47.7726605 57.5150403,46.2958034 C58.3222533,44.8190736 60.4751616,40.2548793 60.4751616,39.0464142 C60.4751616,37.8382039 61.2825022,37.5698118 61.2825022,37.5698118 C61.2825022,37.5698118 61.2825022,30.7228198 59.9369345,26.0242383 C58.5913668,21.3256569 55.6313732,11.9279845 54.8241602,10.7197742 C54.0168196,9.51156389 50.7877124,2.97818424 50.7877124,2.97818424 L50.8774595,0.0245973018 C50.8774595,0.0245973018 47.4240485,2.26217474 44.8678529,3.87316426 C42.3112742,5.48415378 30.2023139,10.5855144 28.9914306,11.6595924 C27.7805474,12.7335429 21.1877763,17.0293451 21.1877763,17.0293451 C21.1877763,17.0293451 14.9985478,14.4787922 14.5950052,13.1363222 C14.1913349,11.7938521 10.5936647,8.78307104 10.1725046,8.07330323 C9.75134445,7.36353541 9.48223091,5.34989404 9.48223091,5.34989404 L10.1550148,4.27581611 L11.5004548,3.06760581 C11.5004548,3.06760581 8.94413149,3.73890452 8.27147531,3.87316426 C7.59869145,4.00742401 7.06046437,4.27581611 6.65679406,5.34989404 C6.25325142,6.42397198 5.17679726,7.76631463 5.17679726,7.76631463 C5.17679726,7.76631463 4.10047076,8.43761334 3.2932578,9.24304441 C2.48591718,10.0486029 0.73680683,10.8540339 -0.945025134,10.5855144 C-2.6268571,10.3171223 -7.5154552,7.00572173 -7.5154552,7.00572173" id="Fill-13" fill="#E9ECEB" mask="url(#mask-6)"></path>
                        </g>
                        <path d="M39.474169,8.45523015 C39.474169,9.0978681 38.9520274,9.61872966 38.3080954,9.61872966 C37.6640357,9.61872966 37.1418942,9.0978681 37.1418942,8.45523015 C37.1418942,7.81271959 37.6640357,7.29185803 38.3080954,7.29185803 C38.9520274,7.29185803 39.474169,7.81271959 39.474169,8.45523015" id="Fill-16" fill="#8FBEC3"></path>
                        <path d="M32.208729,1.47433501 C32.208729,1.47433501 27.5182638,0.848129234 23.8669752,1.56375659 C18.8438203,2.54828557 14.7237533,6.56346708 13.2826937,7.82887152 C11.040166,9.7978021 9.51523179,14.0041827 9.51523179,14.0041827 L9.3135243,14.6979005 L11.2195324,14.1832806 C11.2195324,14.1832806 13.4850395,9.81512593 14.0899066,8.99224365 C15.0766137,7.64977361 19.3820474,3.17487349 24.1359611,2.10066817 C26.4914705,1.56872445 32.208729,1.47433501 32.208729,1.47433501" id="Fill-18" fill="#DFE8E7"></path>
                        <path d="M41.1334174,14.3175022 C41.1334174,14.3175022 41.6269624,14.2727914 41.8511386,14.7202814 C42.0753148,15.167644 42.7929083,16.6893394 42.5239224,17.136702 C42.2546812,17.584192 42.3444283,17.5394812 42.2098715,16.9577315 C42.0753148,16.3759817 41.4025309,15.9732025 41.4025309,15.9732025 C41.4025309,15.9732025 41.4025309,15.3915801 41.1334174,16.0627514 C40.8643038,16.7340501 40.0124088,17.2262509 40.0124088,17.2262509 C40.0124088,17.2262509 40.3711418,16.4655307 40.5506359,15.9284917 C40.7298747,15.3915801 40.4606335,14.362213 40.4606335,14.362213 L41.1334174,14.3175022 Z" id="Fill-20" fill="#8BABAB"></path>
                        <path d="M4.94085055,22.0591431 C4.94085055,22.0591431 6.10679646,26.8921116 14.5382973,27.6976701 C22.1703726,28.4267998 31.6794766,27.9688646 34.3658885,24.7901951 C37.0523003,21.6116531 39.4741945,16.3313219 39.4741945,16.3313219 C39.4741945,16.3313219 34.9306694,23.1798425 33.4643326,24.1176226 C29.9662395,26.3552 19.4717051,26.9816606 17.4086715,26.4446216 C15.3456379,25.9075827 6.55527647,25.5049308 4.94085055,22.0591431" id="Fill-22" fill="#8BABAB"></path>
                        <path d="M20.9657193,17.8582398 C20.4698763,16.974342 19.0736264,16.3899172 17.1815336,16.3899172 C15.2894407,16.3899172 12.0879087,17.6632193 12.4752382,19.0161346 C12.8340988,20.269183 14.0281305,21.0048092 17.1815336,21.0048092 C20.3350642,21.0048092 21.895361,19.5158508 20.9657193,17.8582398" id="Fill-24" fill="#000000"></path>
                        <path d="M32.7469433,12.3932951 C32.7469433,13.6784436 31.7029155,14.7201668 30.4146685,14.7201668 C29.1268044,14.7201668 28.0827767,13.6784436 28.0827767,12.3932951 C28.0827767,11.1081466 29.1268044,10.0662961 30.4146685,10.0662961 C31.7029155,10.0662961 32.7469433,11.1081466 32.7469433,12.3932951" id="Fill-26" fill="#000000"></path>
                        <path d="M31.4911354,11.4982005 C31.4911354,11.8442951 31.2100215,12.1247884 30.8632889,12.1247884 C30.5165563,12.1247884 30.2354424,11.8442951 30.2354424,11.4982005 C30.2354424,11.1521058 30.5165563,10.8717399 30.8632889,10.8717399 C31.2100215,10.8717399 31.4911354,11.1521058 31.4911354,11.4982005" id="Fill-28" fill="#FFFFFF"></path>
                        <path d="M14.4935004,11.2185606 C14.4935004,12.3740351 13.5549222,13.3106688 12.3968914,13.3106688 C11.2387329,13.3106688 10.3000271,12.3740351 10.3000271,11.2185606 C10.3000271,10.0632135 11.2387329,9.12657982 12.3968914,9.12657982 C13.5549222,9.12657982 14.4935004,10.0632135 14.4935004,11.2185606" id="Fill-30" fill="#000000"></path>
                        <path d="M13.3090689,10.6033605 C13.3090689,10.9144253 13.0562962,11.16664 12.7444155,11.16664 C12.4326626,11.16664 12.1798899,10.9144253 12.1798899,10.6033605 C12.1798899,10.2921684 12.4326626,10.0400811 12.7444155,10.0400811 C13.0562962,10.0400811 13.3090689,10.2921684 13.3090689,10.6033605" id="Fill-32" fill="#FFFFFF"></path>
                        <path d="M11.2940748,27.6722448 C11.2940748,27.6722448 13.2858725,30.8435261 13.6895428,31.1120456 C14.0930855,31.3804377 17.6223283,32.5816421 17.6223283,32.5816421 L13.62469,31.5641214 C13.62469,31.5641214 12.4473821,31.5983869 11.9092827,32.4039453 C11.370928,33.2093764 10.1207245,36.1106097 10.1207245,36.1106097 L9.31351153,35.774833 L12.4080619,30.4049528 C12.4080619,30.4049528 12.2062268,30.2706931 11.9372409,29.7336541 C11.7783005,29.4169845 11.1153467,28.3831591 10.9543637,27.9467512 C10.8422756,27.6433293 11.2940748,27.6722448 11.2940748,27.6722448" id="Fill-34" fill="#000000"></path>
                        <path d="M35.0533408,15.7017787 C34.5188159,16.3538429 31.9844507,16.5549777 31.2668571,16.6443993 C30.5493912,16.7339482 26.4680061,15.34664 26.1542105,15.1676695 C25.8402872,14.988699 24.5843389,14.1833953 24.2705434,13.55668 C23.9566201,12.9302194 23.777126,11.8562689 23.777126,11.3192299 C23.777126,10.7823183 24.1539871,9.58710092 24.6578728,9.22138961 C25.7521998,8.42716809 31.3160073,8.75734005 32.3802059,8.92497366 C33.5087465,9.10292513 35.0947036,9.340491 35.588121,10.0117897 C36.081283,10.682961 36.1864773,14.3195657 35.0533408,15.7017787 M38.6221591,9.35017196 C38.2264039,9.30928261 37.7495827,9.47475074 37.0522876,9.21591222 C36.8772616,9.15107521 35.8550642,8.48347056 35.6620378,8.41048115 C34.3550243,7.91649702 32.743024,7.88758149 29.7643916,7.64976087 C23.0371914,7.1127219 23.3061773,8.92510104 22.9026346,9.05936078 C22.4989643,9.19362052 21.9055869,8.96446181 21.153269,8.94484512 C20.8002809,8.93554629 20.3802697,9.13311447 19.7408059,8.92510104 C19.2380691,8.76167101 18.7316301,7.51550113 18.0589739,7.1127219 C17.3861901,6.71007006 10.6189037,6.87974176 8.90987952,7.04559203 C7.76933855,7.15641364 7.34396553,8.03598055 7.07485199,8.03598055 C6.80573845,8.03598055 5.32472034,8.1938058 5.20982367,8.43290024 C5.10373574,8.65352441 5.1314386,9.39959585 5.27710205,9.59639975 C5.44319157,9.82084535 6.27031996,9.90033119 6.42070693,10.2005686 C6.81378122,10.9845996 6.89165563,13.0868983 7.22804755,14.093719 C7.56443948,15.1005396 8.79766377,15.5480296 9.06677731,15.34664 C9.17388654,15.2666447 9.91152318,14.7670558 10.7615032,14.5590423 C9.83428708,14.6452794 8.96783851,14.6502472 8.663107,14.4069492 C7.99045081,13.8699103 7.55039655,10.107453 7.69899625,9.57398066 C7.89687385,8.86281165 8.663107,8.11979735 10.1432315,7.89598865 C11.6231006,7.67217995 16.9246884,7.99700191 17.1395452,8.0748318 C17.7929243,8.31201552 18.3280874,8.94752012 18.3280874,9.86491923 C18.3280874,10.6853813 18.2158717,12.1247884 18.1262523,12.6617 C18.0365052,13.1987389 17.4085311,13.4672584 17.0497981,13.55668 C16.9859666,13.57273 16.8557504,13.600117 16.6818735,13.6346373 C17.6915599,13.5501835 18.6411171,13.4785953 18.8563568,12.7776168 C19.0685327,12.086574 19.1761526,11.6890174 19.4898205,11.3748955 C19.8139568,11.0504557 20.6173398,10.5957049 21.3908498,10.7427028 C22.2224463,10.9007828 22.8352286,11.341649 22.969913,12.5498593 C23.1043421,13.7580696 24.0462395,14.6307579 24.8535801,14.89915 C25.6607931,15.1676695 30.3698971,17.2485681 30.7735674,17.315698 C31.17711,17.3828279 34.0640804,17.470084 35.4825437,16.6892375 C37.4333615,15.6152869 37.072586,12.1330681 37.2990601,11.7444282 C37.5016612,11.3960408 38.396068,11.2307 38.6221591,11.0059997 C38.913103,10.716717 39.109321,9.40074228 38.6221591,9.35017196" id="Fill-36" fill="#000000"></path>
                        <g id="Group-40" transform="translate(18.040373, 28.660761)">
                            <mask id="mask-8" fill="white">
                                <use xlink:href="#path-7"></use>
                            </mask>
                            <g id="Clip-39"></g>
                            <path d="M31.2107492,0.0212726536 C31.2107492,0.0212726536 33.9912487,0.692571362 31.4349254,2.14688206 C28.8786021,3.60132013 11.7467422,11.5665914 9.86294742,12.8197672 C7.97915264,14.0728157 0.0858788798,21.8593712 0.0858788798,21.8593712 L16.0520482,14.6095999 L15.6930599,12.9091888 L20.2677348,13.8040415 C20.2677348,13.8040415 29.0579686,7.7182792 29.9550563,6.73375022 C30.851761,5.74922124 32.9149222,3.86983962 32.9149222,3.86983962 L33.0942887,1.5428406 L32.5560616,3.24325169 C32.5560616,3.24325169 26.6360744,8.8817787 25.1113955,9.68720977 C23.5864613,10.4927682 20.2677348,12.7302183 20.2677348,12.7302183 L15.1548328,12.2827283 L14.975594,14.4307568 L2.86650602,19.9798622 C2.86650602,19.9798622 9.14535387,14.1622373 10.4907939,13.3566788 C11.8362339,12.5512478 30.6725221,3.4223496 31.3003686,2.97473221 C31.9282151,2.5272422 32.9150499,1.45329164 33.0046693,0.916252678 C33.0942887,0.379341092 31.2107492,0.0212726536 31.2107492,0.0212726536" id="Fill-38" fill="#000000" mask="url(#mask-8)"></path>
                        </g>
                        <path d="M44.7664629,20.9851798 C44.7664629,21.6278177 44.2443214,22.1486793 43.6002617,22.1486793 C42.9563297,22.1486793 42.4340605,21.6278177 42.4340605,20.9851798 C42.4340605,20.3426692 42.9563297,19.8216803 43.6002617,19.8216803 C44.2443214,19.8216803 44.7664629,20.3426692 44.7664629,20.9851798" id="Fill-41" fill="#8FBEC3"></path>
                        <path d="M39.0479151,4.9648208 C39.0479151,5.47154305 38.6363297,5.88209253 38.1284864,5.88209253 C37.6207708,5.88209253 37.2091854,5.47154305 37.2091854,4.9648208 C37.2091854,4.45809855 37.6207708,4.04742169 38.1284864,4.04742169 C38.6363297,4.04742169 39.0479151,4.45809855 39.0479151,4.9648208" id="Fill-43" fill="#8FBEC3"></path>
                        <path d="M45.7754217,28.5925864 C45.7754217,29.0993087 45.3637086,29.5099855 44.855993,29.5099855 C44.3482773,29.5099855 43.9366919,29.0993087 43.9366919,28.5925864 C43.9366919,28.0858642 44.3482773,27.6753147 44.855993,27.6753147 C45.3637086,27.6753147 45.7754217,28.0858642 45.7754217,28.5925864" id="Fill-45" fill="#8FBEC3"></path>
                        <path d="M41.1111019,6.84425337 C41.1111019,7.35097562 40.6995165,7.76165248 40.1915455,7.76165248 C39.6839576,7.76165248 39.2723721,7.35097562 39.2723721,6.84425337 C39.2723721,6.33753112 39.6839576,5.92698165 40.1915455,5.92698165 C40.6995165,5.92698165 41.1111019,6.33753112 41.1111019,6.84425337" id="Fill-47" fill="#8FBEC3"></path>
                        <path d="M45.057943,15.5257634 C45.057943,16.0324857 44.64623,16.4430351 44.1383867,16.4430351 C43.630671,16.4430351 43.2192133,16.0324857 43.2192133,15.5257634 C43.2192133,15.0190412 43.630671,14.6084917 44.1383867,14.6084917 C44.64623,14.6084917 45.057943,15.0190412 45.057943,15.5257634" id="Fill-49" fill="#8FBEC3"></path>
                        <path d="M43.824323,11.6996665 C43.824323,12.6017799 43.0914099,13.3329477 42.1873007,13.3329477 C41.2833192,13.3329477 40.5500231,12.6017799 40.5500231,11.6996665 C40.5500231,10.7975531 41.2833192,10.0663853 42.1873007,10.0663853 C43.0914099,10.0663853 43.824323,10.7975531 43.824323,11.6996665" id="Fill-51" fill="#8FBEC3"></path>
                        <path d="M48.2197207,24.4085484 C48.2197207,25.3106618 47.4865523,26.0418297 46.5824432,26.0418297 C45.6784617,26.0418297 44.9454209,25.3106618 44.9454209,24.4085484 C44.9454209,23.5064351 45.6784617,22.7752672 46.5824432,22.7752672 C47.4865523,22.7752672 48.2197207,23.5064351 48.2197207,24.4085484" id="Fill-53" fill="#8FBEC3"></path>
                        <path d="M35.9871316,3.71184876 C35.9871316,4.36060101 35.4598835,4.88655781 34.809696,4.88655781 C34.1596362,4.88655781 33.6325158,4.36072839 33.6325158,3.71184876 C33.6325158,3.06309652 34.1596362,2.5372671 34.809696,2.5372671 C35.4598835,2.5372671 35.9871316,3.06309652 35.9871316,3.71184876" id="Fill-55" fill="#8FBEC3"></path>
                        <path d="M37.8846118,10.9205142 C37.8846118,10.9205142 43.4129291,9.56097504 43.6819149,9.56097504 C43.9511561,9.56097504 45.2293178,9.02393608 45.9692524,9.56097504 C46.7091869,10.0978866 47.7182351,11.6418737 48.0547546,11.9773956 C48.3911466,12.313045 48.8619676,12.5144346 49.1983595,12.1116554 C49.5347515,11.7088762 50.274686,11.3062243 49.5347515,10.9034451 C48.7946892,10.5006659 46.372795,8.48702449 45.8345679,8.48702449 C45.2964685,8.48702449 37.8253762,9.35971281 37.8253762,9.35971281 L37.8846118,10.9205142 Z" id="Fill-57" fill="#000000"></path>
                        <path d="M18.5186755,17.1310845 C18.2584984,17.0621713 18.3953531,17.0471403 17.498393,16.9577187 C16.6013054,16.8682971 15.5249789,16.7787482 15.5249789,17.1366892 C15.5249789,17.4947577 15.8837118,17.5841793 16.8704189,17.6737282 C17.8569983,17.7632772 19.1521392,17.2989728 18.5186755,17.1310845" id="Fill-59" fill="#FFFFFF"></path>
                        <g id="Group-63" transform="translate(3.742121, 35.794106)">
                            <mask id="mask-10" fill="white">
                                <use xlink:href="#path-9"></use>
                            </mask>
                            <g id="Clip-62"></g>
                            <path d="M3.0227272,0.0138081177 C3.0227272,0.0138081177 -3.29505785,17.5119032 -3.90056331,19.9283238 C-4.50606878,22.3447444 -5.91865954,33.6211615 -7.33137796,35.4334132 C-8.74396872,37.2455376 -9.95485199,39.259179 -9.95485199,39.259179 C-9.95485199,39.259179 -9.95485199,39.6617034 -8.54226123,41.4740826 C-7.12954281,43.2863343 -3.496893,45.0985861 -3.496893,45.0985861 C-3.496893,45.0985861 -8.75775632,40.9491448 -8.75775632,39.7408071 C-8.75775632,38.5325968 -8.08497247,38.8459545 -8.08497247,38.8459545 C-8.08497247,38.8459545 -8.02854544,38.1586058 -7.54700072,37.8615529 C-7.19835315,37.6465335 -6.38067183,37.99594 -6.38067183,37.234965 C-6.38067183,35.4228406 -3.6085981,22.2033513 -3.19650203,20.632869 C-2.70321232,18.7532326 3.0227272,0.0138081177 3.0227272,0.0138081177" id="Fill-61" fill="#000000" mask="url(#mask-10)"></path>
                        </g>
                        <g id="Group-66" transform="translate(3.486795, 35.411962)">
                            <mask id="mask-12" fill="white">
                                <use xlink:href="#path-11"></use>
                            </mask>
                            <g id="Clip-65"></g>
                            <path d="M2.86663369,1.43689769 C2.86663369,1.43689769 -2.04430543,4.45748712 -2.58253251,4.86026634 C-3.12050427,5.26304557 -4.06252932,5.66569741 -6.08062555,4.7260066 C-8.09884944,3.78631579 -10.6999824,1.81738521 -10.8346669,1.14621388 C-10.969096,0.474915176 -10.520616,2.57797811 -10.6550451,3.78631579 C-10.7897295,4.99452608 -12.0006128,11.5726165 -13.2114961,12.5124347 C-14.4223793,13.4523803 -16.1716173,14.9291101 -16.57516,14.9291101 C-16.9788303,14.9291101 -16.6647794,11.5279057 -16.6647794,11.5279057 C-16.6647794,11.5279057 -16.57516,11.7068763 -15.4988335,12.2440426 C-14.4223793,12.7810816 -13.0770669,11.304097 -12.8079534,9.55897516 C-12.5387122,7.81359852 -10.7897295,5.12878583 -11.5970701,2.04106653 C-12.4042831,-1.04665277 -10.520616,0.430077008 -10.520616,0.430077008 C-10.520616,0.430077008 -11.7314992,-0.509613803 -9.17517594,1.6382873 C-6.61885263,3.78631579 -5.20600654,4.7260066 -4.26423681,4.7260066 C-3.32246709,4.7260066 2.86663369,1.43689769 2.86663369,1.43689769" id="Fill-64" fill="#000000" mask="url(#mask-12)"></path>
                        </g>
                        <path d="M11.4437469,28.1899218 C11.4437469,28.1899218 12.7445049,30.7404748 13.8208314,31.232803 C14.8971579,31.7251311 19.0680348,33.2465717 20.7722078,33.0676012 C22.4765084,32.8885033 20.4582845,33.1124393 18.7989212,32.5305622 C17.139558,31.9488125 14.134627,30.7851856 13.686147,30.1588524 C13.237667,29.5323919 12.026656,27.6975937 12.026656,27.6975937 L11.3539998,27.7423044 L11.4437469,28.1899218 Z" id="Fill-67" fill="#91AAAD"></path>
                        <path d="M20.4807532,14.160887 C20.4807532,14.160887 16.4444331,13.5567182 12.8116556,14.6307961 C9.17900582,15.7047467 7.16065427,16.5101778 6.15173382,17.5842557 C5.14255805,18.6582062 5.14255805,19.5980244 5.14255805,19.5980244 C5.14255805,19.5980244 8.03527328,17.1143466 9.58254847,16.5101778 C11.1298237,15.9061363 16.5117115,13.9594974 20.4807532,14.160887" id="Fill-69" fill="#DFE8E7"></path>
                        <path d="M12.2824671,27.6976319 C12.2824671,27.6976319 12.6976271,30.3936541 13.1042336,30.4107232 C13.5108402,30.4275375 13.97681,29.9880725 14.0614506,29.802096 C14.1460911,29.6161195 14.6543174,28.0271669 14.6543174,28.0271669 L12.2824671,27.6976319 Z" id="Fill-71" fill="#EDE1C4"></path>
                        <path d="M5.63593713,24.8112767 C5.63593713,24.8112767 5.25460784,26.1985849 5.2995452,26.4893961 C5.3443549,26.7803347 5.18745711,27.2501164 5.52384904,27.2948272 C5.86024096,27.3396653 7.40751616,26.0419061 7.40751616,26.0419061 C7.40751616,26.0419061 6.80188303,25.571997 6.51042847,25.3034775 C6.21884625,25.034958 5.63593713,24.8112767 5.63593713,24.8112767" id="Fill-73" fill="#EDE1C4"></path>
                        <path d="M8.8426139,26.7131029 C8.8426139,26.7131029 8.82014522,27.1828846 8.82014522,27.5186613 C8.82014522,27.8541833 8.68558845,29.0178102 9.13406846,29.2190724 C9.58254847,29.420462 9.87413069,28.7715824 10.0984345,28.5703202 C10.3226107,28.3688032 11.1971021,27.3172717 11.1971021,27.3172717 C11.1971021,27.3172717 11.0178632,27.4962423 10.3674204,27.2277228 C9.71710524,26.9593307 8.8426139,26.7131029 8.8426139,26.7131029" id="Fill-75" fill="#EDE1C4"></path>
                        <path d="M16.1528764,28.2793689 C16.1528764,28.2793689 16.4892683,30.3379758 16.7360409,30.4945272 C16.982558,30.6510787 17.408697,31.0538579 17.6776829,30.7853384 C17.9469241,30.5168189 18.6868587,28.2569498 18.6868587,28.2569498 C18.6868587,28.2569498 18.3056571,28.2793689 17.6776829,28.2793689 L16.1528764,28.2793689 Z" id="Fill-77" fill="#EDE1C4"></path>
                        <path d="M19.9425517,28.4135904 C19.9425517,28.4135904 20.0546398,28.9730485 20.2116652,29.3532812 C20.3686907,29.7336414 20.772361,31.1656604 21.0413468,31.1656604 C21.3104604,31.1656604 22.0055853,30.8077193 22.2748265,29.6218007 C22.5438123,28.4360095 22.6334317,28.3465879 22.6334317,28.3465879 C22.6334317,28.3465879 22.8352669,28.3240415 21.8934972,28.3911713 C20.9517274,28.4584286 19.9425517,28.4135904 19.9425517,28.4135904" id="Fill-79" fill="#EDE1C4"></path>
                        <path d="M24.5171627,28.2793689 C24.5171627,28.2793689 25.4141227,30.9418899 25.6832363,30.9418899 C25.9522221,30.9418899 26.3335514,30.785211 26.4232985,30.6063679 C26.5129179,30.4273974 27.1632331,27.9437195 27.1632331,27.9437195 L24.5171627,28.2793689 Z" id="Fill-81" fill="#EDE1C4"></path>
                        <path d="M28.0377372,27.7424063 C28.0377372,27.7424063 29.1813421,27.6528574 29.4729243,27.5410167 C29.7643788,27.4291761 30.414694,27.2053674 30.414694,27.2053674 C30.414694,27.2053674 30.6164015,29.0400382 30.5717195,29.2638469 C30.5269098,29.4876556 30.3252023,29.8455967 30.1905178,29.9350182 C30.0559611,30.0245672 29.3608362,29.7561751 29.2261518,29.5547855 C29.0917227,29.3532685 28.0377372,27.7424063 28.0377372,27.7424063" id="Fill-83" fill="#EDE1C4"></path>
                        <path d="M31.6928557,26.6459858 C31.6928557,26.6459858 33.1729801,28.5254948 33.4869034,28.5479138 C33.8008266,28.5703329 34.2043693,28.4583649 34.2043693,28.2122645 C34.2043693,27.9661641 33.8455087,25.1021261 33.8455087,25.1021261 C33.8455087,25.1021261 33.2401309,25.8181356 32.9036113,26.0195252 C32.567347,26.2209148 31.6928557,26.6459858 31.6928557,26.6459858" id="Fill-85" fill="#EDE1C4"></path>
                        <path d="M34.4959515,24.632268 C34.4959515,24.632268 35.123798,23.9833883 35.3031644,23.7821261 C35.4825309,23.5807365 36.3345536,22.6184992 36.3345536,22.6184992 C36.3345536,22.6184992 37.1420219,24.184778 37.1868316,24.4532974 C37.2317689,24.7218169 37.321516,25.5720862 37.1643629,25.6615077 C37.0074651,25.7510567 36.2227208,25.4154073 35.9759483,25.3482775 C35.7291758,25.2811476 34.4959515,24.632268 34.4959515,24.632268" id="Fill-87" fill="#EDE1C4"></path>
                        <path d="M16.5821814,28.2183533 L15.9125892,28.1551723 C15.9125892,28.1551723 16.3892827,30.9645637 17.1197702,31.1009889 C17.8501301,31.2372868 18.1560105,30.8616397 18.4456778,29.9451323 C18.7353451,29.0284975 19.1651863,28.0577257 19.1651863,28.0577257 L18.5018495,27.9276695 C18.5018495,27.9276695 18.2183101,29.7617034 17.9133232,30.3122448 C17.6134429,30.8538695 16.7951233,30.6777013 16.7371643,29.8630988 C16.679333,29.0484963 16.5821814,28.2183533 16.5821814,28.2183533" id="Fill-89" fill="#000000"></path>
                        <path d="M9.12285965,26.6797545 L8.50471555,26.4151838 C8.50471555,26.4151838 8.32343413,29.4032911 8.97706854,29.7561369 C9.63070294,30.1091101 9.81058007,29.6769058 10.3671906,28.89262 C10.9241842,28.1087163 11.6311817,27.3156412 11.6311817,27.3156412 L11.0394638,26.9892907 C11.0394638,26.9892907 10.1313971,28.542067 9.67219341,28.9729975 C9.22039416,29.3971768 8.86498045,29.1072573 8.86498045,28.346537 C8.86498045,27.5300237 9.12285965,26.6797545 9.12285965,26.6797545" id="Fill-91" fill="#000000"></path>
                        <path d="M6.03733504,24.6427132 L5.47804356,24.2698686 C5.47804356,24.2698686 4.75279023,27.1747959 5.3307205,27.6407562 C5.9085231,28.1069712 6.16474268,27.714892 6.85552701,27.0452493 C7.54669433,26.376116 8.23709567,25.9524463 8.23709567,25.9524463 L7.5419708,25.6390886 C7.5419708,25.6390886 6.68803319,26.6576284 6.15746589,26.9976087 C5.63570733,27.3321116 5.33927392,26.9824504 5.47868188,26.2344682 C5.62804755,25.4317121 6.03733504,24.6427132 6.03733504,24.6427132" id="Fill-93" fill="#000000"></path>
                        <path d="M20.2117163,28.4583649 L19.7245544,28.4237172 C19.7245544,28.4237172 20.2013756,31.2329813 20.9318631,31.3695339 C21.6620953,31.5057044 21.9681034,31.1301847 22.2577707,30.2135499 C22.547438,29.2969151 22.9774068,28.3262706 22.9774068,28.3262706 L22.3139424,28.1960871 C22.3139424,28.1960871 22.1782367,30.3954502 21.6714147,30.7521174 C21.1645927,31.1087847 21.0530152,31.1187204 20.7498157,30.3601656 C20.4191686,29.5325702 20.2117163,28.4583649 20.2117163,28.4583649" id="Fill-95" fill="#000000"></path>
                        <path d="M24.9207947,28.3240797 L24.2480109,28.3240797 C24.2480109,28.3240797 24.9879454,31.0761496 25.7280077,31.1432795 C26.4680699,31.2104094 26.8568036,30.8080123 27.0586388,29.8683215 C27.2606016,28.9286307 27.4772457,27.9214278 27.4772457,27.9214278 L26.8044618,27.854298 C26.8044618,27.854298 26.7371834,30.0693289 26.2662347,30.4721082 C25.795286,30.8748874 25.5483859,30.5638226 25.2725062,29.7524046 C25.0096481,28.9790736 24.9207947,28.3240797 24.9207947,28.3240797" id="Fill-97" fill="#000000"></path>
                        <path d="M28.474536,27.7738822 L27.8202633,27.9304337 C27.8202633,27.9304337 29.1828102,30.4346199 29.9181489,30.3278745 C30.6534876,30.2210017 30.8209814,29.7667605 30.7977467,28.8059244 C30.7746398,27.8450883 30.8665571,26.7876973 30.8665571,26.7876973 L30.180624,27.0718847 C30.180624,27.0718847 30.6486364,29.0487129 30.2847969,29.5498304 C29.9208298,30.0509478 29.5854592,29.6798865 29.1788526,28.9843854 C28.7663736,28.2790759 28.474536,27.7738822 28.474536,27.7738822" id="Fill-99" fill="#000000"></path>
                        <path d="M31.9674842,26.5620798 L31.3797239,26.7797742 C31.3797239,26.7797742 33.1135147,29.0205362 33.7820857,28.8396549 C34.4504013,28.6586463 34.4921471,27.857164 34.3629522,26.9705912 C34.2336296,26.0840183 34.1304779,25.1449644 34.1304779,25.1449644 L33.460758,25.5416293 C33.460758,25.5416293 34.1220522,27.4990956 33.8415766,28.003525 C33.5611011,28.5076996 33.2321136,28.3407029 32.8528269,27.6804864 C32.4731573,27.0201424 31.9674842,26.5620798 31.9674842,26.5620798" id="Fill-101" fill="#000000"></path>
                        <path d="M34.854378,24.3980904 L34.3659395,24.7901696 C34.3659395,24.7901696 36.515018,26.3574674 37.0919269,25.9749418 C37.6684529,25.5922888 37.6561972,24.815009 37.2526546,24.0148005 C36.848729,23.2147195 36.5557424,22.3196121 36.5557424,22.3196121 L35.9471731,22.958556 C35.9471731,22.958556 37.1954616,24.6067408 37.0893737,25.1737143 C36.9835411,25.7405605 36.6719157,25.5071982 35.9167893,25.1594476 C35.22409,24.8403578 34.854378,24.3980904 34.854378,24.3980904" id="Fill-103" fill="#000000"></path>
                        <path d="M12.545823,27.6365526 L11.8761031,27.5733715 C11.8761031,27.5733715 12.3529243,30.382763 13.0832841,30.5191882 C13.813644,30.6556135 14.1196521,30.279839 14.4093194,29.3633316 C14.6989867,28.4466968 15.1288279,27.4760523 15.1288279,27.4760523 L14.4654911,27.3458688 C14.4654911,27.3458688 14.1819516,29.1799027 13.8770925,29.7304441 C13.5769568,30.2720688 12.7587649,30.0959006 12.7008059,29.2814255 C12.6429745,28.4666956 12.545823,27.6365526 12.545823,27.6365526" id="Fill-105" fill="#000000"></path>
                        <path d="M47.7934541,27.048714 C47.7934541,27.048714 47.4123801,27.3396526 46.8516844,27.6528829 C46.2909886,27.9661131 42.8823873,29.0400637 42.2545408,29.0400637 C41.626822,29.0400637 43.1515008,28.8610932 44.4073215,28.7715442 C45.6632698,28.6819953 47.3673151,28.1449563 47.9055422,27.7870152 C48.4437692,27.4290742 48.5335163,26.7130647 48.5335163,26.7130647 L47.7934541,27.048714 Z" id="Fill-107" fill="#8BABAB"></path>
                        <path d="M8.7080316,15.3690846 C8.7080316,15.3690846 8.57347483,15.8389937 8.84258837,14.3622639 C9.11170191,12.8855341 11.4088694,6.05191709 19.2923131,2.19035725 C26.6922971,-1.43440102 34.1007069,-0.0298963581 39.5189787,3.35385675 C44.0294391,6.17076371 46.1646023,12.9324104 47.5916189,18.926713 C48.210912,21.5278363 48.3577244,23.9738093 49.0717434,25.9075827 C50.0135131,28.4583904 50.0807915,30.7405512 50.0807915,30.7405512 L48.8699082,31.7474993 C48.8699082,31.7474993 48.9158669,26.3487036 47.7934541,27.0486631 C47.255227,27.3844398 47.4754456,27.170949 46.8516844,27.6528319 C46.4409926,27.970011 48.108271,26.0139459 48.0102258,25.445826 C46.7467454,18.1203902 43.8611793,6.61621562 37.9042975,3.35385675 C32.1657193,0.210981414 24.80863,0.445107984 19.8304125,2.9959157 C11.5016804,7.26343929 9.31353706,14.295134 9.31353706,14.6979133 C9.31353706,15.1005651 8.7080316,15.3690846 8.7080316,15.3690846" id="Fill-109" fill="#000000"></path>
                        <path d="M31.4496194,17.7168722 C31.4496194,17.7168722 23.6875832,13.6462799 17.4087353,13.9147994 C11.1298875,14.1833189 5.88115216,16.9710555 5.34432937,18.7924787 C4.33528126,22.2158474 7.18318679,25.8628973 10.0534333,26.5789068 C12.9238075,27.2949163 24.3154297,28.6819698 30.1456698,26.9815587 C35.97591,25.2811476 39.832736,16.6892884 39.922483,15.2572694 C40.0123578,13.8252504 39.047864,15.1005906 38.7788782,15.1005906 C38.5098923,15.1005906 39.4443852,14.0815413 40.6370127,14.3582132 C41.4886524,14.5559087 41.9438985,16.3142783 41.9438985,16.3142783 C41.9438985,16.3142783 41.4486938,15.6145736 41.1123019,15.3461815 C40.7760377,15.077662 40.4607101,15.7718893 40.4607101,15.7718893 C40.4607101,15.7718893 36.0608059,25.6911875 30.7062379,27.317208 C22.969862,29.6664988 13.080833,28.5925482 8.37160137,26.8474263 C5.49560999,25.7813734 3.0571196,21.8800706 4.53711641,18.1883099 C5.08274795,16.8272422 10.1207117,13.5567309 16.9825963,13.0868218 C23.8443533,12.6170401 31.4496194,17.7168722 31.4496194,17.7168722" id="Fill-111" fill="#000000"></path>
                        <path d="M14.4261198,32.1502403 C14.4261198,32.1502403 13.4844778,32.1166117 12.9462507,32.3851311 C12.4080236,32.6536506 10.6253379,36.8824504 10.6253379,36.8824504 L9.95255406,36.37904 C9.95255406,36.37904 11.9483093,31.9040125 12.5761557,31.8145909 C13.2041299,31.725042 13.1143828,31.277552 16.1865922,32.1166117 C17.068871,32.3576168 17.8908928,32.6536506 17.8908928,32.6536506" id="Fill-113" fill="#ECECEB"></path>
                        <path d="M27.6788893,8.85803486 C27.6788893,8.85803486 25.5262363,8.79090499 24.9880093,9.46207631 C24.4499098,10.133375 23.9789611,12.1470164 24.1807963,12.5497956 C24.3826315,12.9525748 25.9299066,14.6979515 26.4680061,14.8992137 C27.0062331,15.1006033 29.2935706,15.9731643 29.2935706,15.9731643 C29.2935706,15.9731643 25.6607931,13.9595229 25.3244012,12.8855723 C24.9880093,11.8114944 24.9880093,10.3347646 25.3244012,9.86485554 C25.6607931,9.39494644 27.6788893,8.85803486 27.6788893,8.85803486" id="Fill-115" fill="#DFE8E7"></path>
                        <path d="M12.3408091,8.18672341 C12.3408091,8.18672341 10.5916987,8.25385328 9.91891486,8.45524289 C9.24625868,8.65663251 8.64075321,8.99228186 8.50619644,9.52932083 C8.37163967,10.0662324 8.2370829,12.9525621 8.77530998,13.5567309 C9.31353706,14.1608998 9.98632091,14.3622894 9.98632091,14.3622894 C9.98632091,14.3622894 9.17898029,13.019692 9.11170191,12.2813908 C9.04429586,11.5430896 8.90986675,9.66358057 9.38068778,9.32793121 C9.85150882,8.99228186 12.3408091,8.18672341 12.3408091,8.18672341" id="Fill-117" fill="#DFE8E7"></path>
                        <path d="M20.368729,28.6820335 C20.368729,28.6820335 20.5930328,29.7114006 20.7051209,29.9799201 C20.8170813,30.2483122 20.9291694,30.6510914 21.0189165,30.7629321 C21.1086635,30.8749001 21.310371,30.8749001 21.310371,30.8749001 C21.310371,30.8749001 21.0861948,30.6510914 21.0861948,30.5392508 C21.0861948,30.4274101 20.6825245,28.7268716 20.6825245,28.7268716 L20.368729,28.6820335 Z" id="Fill-119" fill="#FFFFFF"></path>
                        <path d="M5.88255645,25.124507 C5.88255645,25.124507 5.47888614,26.2319588 5.46777946,26.4110567 C5.45654512,26.5900272 5.50135482,26.9368861 5.59110189,26.9815969 C5.6807213,27.0264351 5.60220857,26.466977 5.64714593,26.3774281 C5.69195564,26.2880065 6.07315726,25.3258966 6.07315726,25.3258966 L5.88255645,25.124507 Z" id="Fill-121" fill="#FFFFFF"></path>
                        <path d="M9.07804995,27.104698 C9.07804995,27.104698 8.94362084,27.809498 8.93225884,27.9548399 C8.9210245,28.1003092 8.94362084,28.9505784 9.13409399,29.0624191 C9.32469481,29.1743871 9.14532833,28.6708494 9.14532833,28.5253801 C9.14532833,28.3801656 9.33592915,27.2054565 9.33592915,27.2054565 L9.07804995,27.104698 Z" id="Fill-123" fill="#FFFFFF"></path>
                        <path d="M12.6546046,28.0108621 C12.6546046,28.0108621 12.6996697,29.1966533 12.7555861,29.34225 C12.8116301,29.4875919 12.9015048,29.8008222 13.0359339,29.8791616 C13.1704907,29.957501 13.2265347,29.9687106 13.2265347,29.9687106 C13.2265347,29.9687106 13.125681,29.8343234 13.091978,29.6665624 C13.0584026,29.4988015 12.9237182,28.0444908 12.9237182,28.0444908 L12.6546046,28.0108621 Z" id="Fill-125" fill="#FFFFFF"></path>
                        <path d="M16.6573494,28.5366788 L16.7920338,29.9686978 C16.7920338,29.9686978 16.8032682,30.1588779 16.9489316,30.3043472 C17.0947227,30.4496891 17.3974116,30.5615297 17.3974116,30.5615297 C17.3974116,30.5615297 17.3190266,30.4833177 17.2068108,30.3154293 C17.0947227,30.1476683 17.0274443,29.5994198 17.0274443,29.554709 L17.0274443,28.5703075 L16.6573494,28.5366788 Z" id="Fill-127" fill="#FFFFFF"></path>
                        <path d="M24.987971,28.4695617 C24.987971,28.4695617 25.3243629,30.04705 25.4926227,30.2483122 C25.6607548,30.4497018 25.7728429,30.6175902 25.8961653,30.6175902 C26.0196154,30.6175902 26.0868938,30.5056221 26.0868938,30.5056221 C26.0868938,30.5056221 26.0308498,30.572752 25.9522094,30.4833304 C25.873952,30.3937815 25.4028756,28.4247235 25.4028756,28.4247235 L24.987971,28.4695617 Z" id="Fill-129" fill="#FFFFFF"></path>
                        <path d="M28.5871092,27.8989578 C28.5871092,27.8989578 29.3719812,29.3085577 29.4729626,29.3981067 C29.5738163,29.4876556 29.7755238,29.7114643 29.8653985,29.7225465 C29.955018,29.7336286 30.1120434,29.6443344 30.1120434,29.6443344 C30.1120434,29.6443344 30.0222963,29.655544 29.9326769,29.6107058 C29.8430575,29.5658676 29.0694199,27.7983267 29.0694199,27.7983267 L28.5871092,27.8989578 Z" id="Fill-131" fill="#FFFFFF"></path>
                        <path d="M32.1861709,26.7131029 C32.1861709,26.7131029 32.5784792,27.1381738 32.6347786,27.2501419 C32.6908226,27.3619825 33.0270869,27.8878119 33.1279406,27.99978 C33.228922,28.1114933 33.4195229,28.2346708 33.4980356,28.2346708 C33.5765483,28.2346708 33.6661677,28.1339123 33.6661677,28.1339123 C33.6661677,28.1339123 33.599017,28.1674136 33.5205043,28.1227028 C33.4418639,28.077992 32.7693354,26.9928319 32.7131636,26.8922008 C32.6571196,26.7914423 32.5337972,26.5453419 32.5337972,26.5453419 L32.1861709,26.7131029 Z" id="Fill-133" fill="#FFFFFF"></path>
                        <path d="M35.3817282,23.9610329 L35.1013804,24.2965549 L35.011761,24.3861039 C35.011761,24.3861039 35.1463177,24.5652018 35.2134684,24.6099126 C35.2807468,24.6546234 35.9872337,25.1581611 36.1104285,25.213954 C36.2337509,25.2698744 36.6598899,25.4489723 36.7607436,25.4377627 C36.861725,25.4265532 36.9514721,25.303503 36.9514721,25.303503 C36.9514721,25.303503 36.8841937,25.2587922 36.794319,25.2587922 C36.7046996,25.2587922 36.1104285,24.9008511 35.987106,24.7778009 C35.8636559,24.6546234 35.3817282,23.9610329 35.3817282,23.9610329" id="Fill-135" fill="#FFFFFF"></path>
                        <path d="M5.73107157,27.0655156 C5.73107157,27.0655156 5.865756,27.0991442 5.98358893,27.0152 C6.10116652,26.9312559 7.00936089,26.159326 7.00936089,26.159326 C7.00936089,26.159326 6.92523099,26.1258248 6.82437724,26.0250663 C6.7235235,25.9244352 6.67309662,25.840491 6.67309662,25.840491 C6.67309662,25.840491 6.55539137,26.1929547 6.43755845,26.3104001 C6.31985319,26.4278455 5.88260752,27.0487013 5.73107157,27.0655156" id="Fill-137" fill="#DAC18D"></path>
                        <path d="M9.68350435,27.3004319 L10.6084226,27.5522645 L10.1376015,28.2905657 C10.1376015,28.2905657 9.83478497,28.7436605 9.68350435,28.8947345 C9.53209607,29.0456812 9.41451847,29.0456812 9.41451847,29.0456812 C9.41451847,29.0456812 9.80120961,28.475141 9.86848799,28.2737514 C9.93576638,28.0723618 10.0198963,27.7368398 10.0198963,27.7368398 L9.68350435,27.3004319 Z" id="Fill-139" fill="#DAC18D"></path>
                        <path d="M13.3498316,28.1227537 L14.2411745,28.2401992 L13.9889125,29.3980939 C13.9889125,29.3980939 13.8712072,29.7001146 13.6860959,29.8511887 C13.5012399,30.0021354 13.3498316,30.0021354 13.3498316,30.0021354 C13.3498316,30.0021354 13.5683906,29.8176875 13.6188175,29.7001146 C13.6693721,29.5826692 13.753502,28.5254056 13.753502,28.5254056 L13.3498316,28.1227537 Z" id="Fill-141" fill="#DAC18D"></path>
                        <path d="M17.6721168,28.6093243 L18.3280492,28.6429529 L18.0253602,29.985423 C18.0253602,29.985423 17.8908035,30.3713879 17.7898221,30.4553321 C17.6888407,30.5391489 17.5879869,30.5391489 17.5879869,30.5391489 C17.5879869,30.5391489 17.7393952,30.3043854 17.7898221,30.0860541 C17.8403766,29.8678502 17.8065459,28.7099554 17.8065459,28.7099554 L17.6721168,28.6093243 Z" id="Fill-143" fill="#DAC18D"></path>
                        <path d="M21.0189675,28.7100191 L22.1625724,28.6765179 C22.1625724,28.6765179 22.0954217,29.5155776 22.0280156,29.784097 C21.9606096,30.0524891 21.8598835,30.488897 21.7590298,30.5895281 C21.6580484,30.6901592 21.5065124,30.7741034 21.5065124,30.7741034 C21.5065124,30.7741034 21.7421782,30.0189879 21.7253267,29.8344126 C21.7084752,29.6498373 21.7189436,29.3143153 21.6074938,29.1631139 C21.4904269,29.004397 21.0189675,28.7100191 21.0189675,28.7100191" id="Fill-145" fill="#DAC18D"></path>
                        <path d="M25.8457257,28.3911968 L26.7203447,28.2401227 C26.7203447,28.2401227 26.6866417,29.1463123 26.6193633,29.3477019 C26.5520849,29.5490915 26.467955,30.1700747 26.3503774,30.2875201 C26.2325445,30.4049655 26.1653938,30.4552811 26.1653938,30.4552811 C26.1653938,30.4552811 26.3839528,29.6162214 26.3671013,29.4652747 C26.3503774,29.3142007 26.1485422,28.5422709 26.1485422,28.5422709 L25.8457257,28.3911968 Z" id="Fill-147" fill="#DAC18D"></path>
                        <path d="M29.4785542,27.7031602 L30.1849134,27.5017706 C30.1849134,27.5017706 30.3866209,28.324016 30.3866209,28.5758485 C30.3866209,28.8275537 30.3530456,29.3477784 30.3026187,29.4147808 C30.2520642,29.4819107 30.1680619,29.5323537 30.1680619,29.5323537 C30.1680619,29.5323537 30.2016373,29.3644653 30.1680619,29.0624446 C30.1343589,28.7604238 30.0670805,28.3744589 29.9326514,28.1394407 C29.7980946,27.9045498 29.4785542,27.7031602 29.4785542,27.7031602" id="Fill-149" fill="#DAC18D"></path>
                        <path d="M32.7075337,26.377479 C32.7075337,26.377479 33.0943525,26.1594025 33.1617586,26.058644 C33.2289093,25.9578855 33.4643198,25.7901245 33.4643198,25.7901245 C33.4643198,25.7901245 33.8681178,27.0654647 33.8511386,27.3171698 C33.8342871,27.5690024 33.9495667,27.9345863 33.8415639,28.0034995 C33.7334333,28.0722853 33.7504125,28.0219698 33.699858,27.7534503 C33.6494311,27.4850582 33.4643198,26.9480192 33.363466,26.7970725 C33.2626123,26.6459985 32.7075337,26.377479 32.7075337,26.377479" id="Fill-151" fill="#DAC18D"></path>
                        <path d="M35.5162467,23.7260529 L36.0039193,23.1388258 C36.0039193,23.1388258 36.4747403,23.9106282 36.5925732,24.0785166 C36.7102785,24.2462776 37.0635219,24.9342632 37.0298189,25.0350217 C36.9962435,25.1356528 36.9962435,25.0013931 36.8616867,24.8839477 C36.7270023,24.7665022 36.172179,23.8434983 36.0376223,23.8099971 C35.9030655,23.7764959 35.5162467,23.7260529 35.5162467,23.7260529" id="Fill-153" fill="#DAC18D"></path>
                        <path d="M12.3914913,6.92591743 C12.3914913,6.92591743 8.96616612,7.07750101 8.81399186,7.12807133 C8.66220059,7.17876903 8.003332,7.41136703 7.78043246,7.64383765 C7.55753291,7.87643564 7.35480412,8.007893 7.35480412,8.007893 C7.35480412,8.007893 7.04075321,8.14954085 6.85819516,8.14954085 C6.67563712,8.14954085 5.59139552,8.27080771 5.46973271,8.35169475 C5.34832522,8.43258178 5.28730232,8.54378554 5.28730232,8.54378554 C5.28730232,8.54378554 5.40896513,8.47308899 5.51032953,8.44277228 C5.61169393,8.41232818 7.12169153,8.240491 7.12169153,8.240491 L7.13190457,8.38201146 C7.13190457,8.38201146 7.32442033,8.16966707 7.3851879,8.10903364 C7.44595548,8.04840021 8.24665762,7.42143014 8.38849118,7.39098605 C8.53032474,7.36079671 9.65516317,7.13838921 10.0807915,7.13838921 C10.5064199,7.13838921 12.3914913,6.92591743 12.3914913,6.92591743" id="Fill-155" fill="#8B8D8F"></path>
                        <path d="M19.964982,9.14887152 C19.964982,9.14887152 20.5480188,9.10403335 20.7051719,9.08174165 C20.8619421,9.05944994 21.1085869,9.12657982 21.1085869,9.12657982 L20.7946637,10.4690499 L20.5032091,10.6480204 C20.5032091,10.6480204 20.4360584,10.3795009 20.4582718,10.1781113 C20.4807404,9.97684905 20.5032091,9.21600139 20.5032091,9.21600139 C20.5032091,9.21600139 20.4582718,9.21600139 20.3238427,9.19370969 C20.1892859,9.1712906 19.964982,9.14887152 19.964982,9.14887152" id="Fill-157" fill="#8B8D8F"></path>
                        <path d="M23.283798,8.85803486 C23.283798,8.85803486 23.7464486,8.32889352 23.8669624,8.25386602 C24.4050618,7.91821666 25.7056922,7.62740548 26.378476,7.64982456 C27.0512599,7.67211626 29.3831517,7.73924614 29.3831517,7.73924614 C29.3831517,7.73924614 26.3782207,7.87350588 26.0644251,7.89592496 C25.7506295,7.91821666 24.8760105,8.00776562 24.4723402,8.18673615 C24.0685422,8.36583406 23.283798,8.85803486 23.283798,8.85803486" id="Fill-159" fill="#8B8D8F"></path>
                        <path d="M5.5805314,8.95331596 L5.60134046,9.16158416 C5.60134046,9.16158416 5.83100614,9.31788084 6.05020346,9.33864397 C6.26940078,9.3594071 6.81209607,9.32819871 6.81209607,9.32819871 L6.85371419,9.08872214 C6.85371419,9.08872214 6.51987553,8.93242545 6.342424,8.93242545 C6.16484481,8.93242545 5.5805314,8.95331596 5.5805314,8.95331596" id="Fill-161" fill="#DFE8E7"></path>
                        <path d="M36.3795931,10.1781113 L36.4693401,10.5361797 C36.4693401,10.5361797 36.5140222,10.513888 36.760667,10.5584714 C37.0075672,10.6033096 38.0840214,10.4243391 38.0840214,10.4243391 L38.0840214,10.2229495 C38.0840214,10.2229495 37.6576271,10.0215598 37.2990218,10.0215598 C36.9402888,10.0215598 36.3795931,10.1781113 36.3795931,10.1781113" id="Fill-163" fill="#DFE8E7"></path>
                        <g id="Group-167" transform="translate(18.423362, 32.609577)">
                            <mask id="mask-14" fill="white">
                                <use xlink:href="#path-13"></use>
                            </mask>
                            <g id="Clip-166"></g>
                            <path d="M0.0165834198,17.6940455 L15.444781,10.7503711 L15.3100965,8.96028371 L19.8847714,9.85526374 C19.8847714,9.85526374 24.5264693,6.52157142 25.1992532,5.91740258 C25.8717817,5.31323374 32.1955669,0.0104834694 32.1955669,0.0104834694 C32.1955669,0.0104834694 33.5411346,1.88999247 33.675436,2.2927717 C33.8101205,2.69542354 38.1156818,11.0860205 38.7210596,12.8312698 C39.3264374,14.576519 42.1518743,24.3768433 42.4209878,26.189095 C42.6901013,28.0016015 43.0266209,32.5659232 42.6901013,33.1700921 L42.3538371,33.7742609 L41.4792181,32.0960141 C41.4792181,32.0960141 41.9502944,29.3439442 41.8827607,28.5385131 C41.81561,27.7329547 38.222408,15.0398043 37.0392276,11.8914516 C35.8283444,8.66947253 32.262973,1.35295351 32.262973,1.35295351 L20.4229985,11.4216699 L16.8573717,10.1462023 L16.386423,11.2874101 L0.0165834198,17.6940455 Z" id="Fill-165" fill="#BFC5C5" mask="url(#mask-14)"></path>
                        </g>
                        <g id="Group-170" transform="translate(11.657225, 39.233397)">
                            <mask id="mask-16" fill="white">
                                <use xlink:href="#path-15"></use>
                            </mask>
                            <g id="Clip-169"></g>
                            <path d="M1.71504987,1.17311679 C1.71504987,1.17311679 2.07378281,1.53105784 2.34289635,1.97867524 C2.61200989,2.42616525 6.60352031,10.8390539 6.60352031,10.8390539 L1.44593633,6.27447745 C1.44593633,6.27447745 1.89441634,5.82711482 1.80479694,4.75316426 C1.71504987,3.67908633 0.10049629,0.45710729 0.0107492221,0.0990388513 C-0.0788701827,-0.258902206 1.71504987,1.17311679 1.71504987,1.17311679" id="Fill-168" fill="#BFC5C5" mask="url(#mask-16)"></path>
                        </g>
                        <g id="Group-173" transform="translate(11.274236, 37.195298)">
                            <mask id="mask-18" fill="white">
                                <use xlink:href="#path-17"></use>
                            </mask>
                            <g id="Clip-172"></g>
                            <path d="M0.124752254,0.0563534248 C0.124752254,0.0563534248 3.89195883,2.33851427 4.0265156,2.53990389 C4.16107237,2.7412935 5.43923402,6.03027503 5.50651241,6.5003115 C5.57379079,6.97009322 6.91923083,12.6087476 6.91923083,12.6087476 C6.91923083,12.6087476 4.36290752,6.43305425 3.89195883,5.69488044 C3.42101013,4.95645186 2.41183436,2.67416363 1.40291391,2.0029923 C0.393738131,1.33169359 0.124752254,0.0563534248 0.124752254,0.0563534248" id="Fill-171" fill="#91AAAD" mask="url(#mask-18)"></path>
                        </g>
                        <g id="Group-176" transform="translate(8.465651, 33.501245)">
                            <mask id="mask-20" fill="white">
                                <use xlink:href="#path-19"></use>
                            </mask>
                            <g id="Clip-175"></g>
                            <path d="M1.40849278,1.89324069 C1.22899864,3.0567402 5.98303997,6.81575821 6.43164765,7.88970876 C6.87987234,8.96365931 10.1987266,17.4663517 10.1987266,17.4663517 C10.1987266,17.4663517 8.49455358,14.2441179 7.50797415,12.0962168 C6.52113939,9.94831567 5.80354584,7.44221875 4.90658581,6.90530716 C4.00975345,6.3682682 0.960012766,3.41480864 0.690771563,2.43015228 C0.421785686,1.44575068 -0.295807867,0.461221701 0.421785686,0.282251172 C1.13937924,0.103408025 2.3054528,0.103408025 2.3054528,0.103408025 L1.40849278,1.89324069 Z" id="Fill-174" fill="#000000" mask="url(#mask-20)"></path>
                        </g>
                        <g id="Group-179" transform="translate(6.295380, 32.991720)">
                            <mask id="mask-22" fill="white">
                                <use xlink:href="#path-21"></use>
                            </mask>
                            <g id="Clip-178"></g>
                            <path d="M3.75809144,0.031093741 C3.75809144,0.031093741 0.932654592,0.568132708 0.663541052,1.37356378 C0.394427511,2.17899485 0.125313971,7.01196341 0.125313971,7.01196341 L3.35442113,7.41474263 L1.73986755,9.15999189 L11.9654161,17.7521058 L3.35442113,9.02573215 L4.43074763,7.01196341 L1.20164047,6.34079208 C1.20164047,6.34079208 1.20164047,2.58177407 1.60543844,1.91060274 C2.00885343,1.23930404 3.75809144,0.031093741 3.75809144,0.031093741" id="Fill-177" fill="#000000" mask="url(#mask-22)"></path>
                        </g>
                        <path d="M8.23707013,34.8352058 C8.23707013,34.8352058 8.10264103,35.4393747 8.10264103,35.7748966 C8.10264103,36.110546 8.3716269,38.5940965 8.3716269,38.5940965 L8.70801883,39.3995275 L7.7662491,39.332525 C7.7662491,39.332525 7.69897072,37.3187563 7.63169233,36.7145875 C7.56441395,36.110546 8.30422086,35.2378577 8.23707013,34.8352058" id="Fill-189" fill="#FFFFFF"></path>
                        <g id="Group-193" transform="translate(21.742600, 39.742922)">
                            <mask id="mask-24" fill="white">
                                <use xlink:href="#path-23"></use>
                            </mask>
                            <g id="Clip-192"></g>
                            <path d="M0.0164046916,8.31597707 C0.0164046916,8.31597707 4.79738291,3.90744253 5.86413468,2.99513867 C5.92196601,2.94571478 5.96894598,2.906354 6.00367031,2.87858491 C6.6763265,2.34167333 11.2508737,0.126642348 11.2508737,0.126642348 C11.2508737,0.126642348 7.81993138,2.87858491 7.14714753,3.28149152 C6.47449134,3.68414336 4.72538099,4.5567043 4.38898907,4.89235366 C4.05259714,5.22800301 0.0164046916,8.31597707 0.0164046916,8.31597707" id="Fill-191" fill="#FFFFFF" mask="url(#mask-24)"></path>
                        </g>
                        <g id="Group-196" transform="translate(28.253411, 43.691738)">
                            <mask id="mask-26" fill="white">
                                <use xlink:href="#path-25"></use>
                            </mask>
                            <g id="Clip-195"></g>
                            <path d="M24.9525189,23.3883782 C23.8107013,20.0811812 21.9510349,14.3291575 21.9510349,14.3291575 C21.9510349,14.3291575 22.9424655,12.1038087 22.6946717,8.39421458 C22.6946717,8.39421458 21.9509072,5.17975103 20.7118104,3.94287997 C19.4727136,2.70639106 17.9859507,0.480914828 15.7550403,0.480914828 C13.5243852,0.480914828 12.7808761,-0.508327254 11.2939855,0.480914828 C10.5504763,0.975535869 9.43508498,1.2227827 8.50582622,1.3464698 C7.57631214,1.47002953 6.832803,1.47002953 6.832803,1.47002953 L8.31994893,2.70639106 L6.91220937,3.26814197 L5.84137238,3.69563314 C5.84137238,3.69563314 7.8239783,3.69550576 7.08059682,4.93224944 C6.33721535,6.16886573 5.84137238,7.89972092 5.84137238,8.64158879 C5.84137238,9.38371142 5.34604005,11.114694 6.33721535,13.5876718 C7.32826299,16.0605223 7.32826299,17.2967564 7.32826299,18.7806195 C7.32826299,20.26461 4.01234501,25.4444375 2.5254544,28.9067848 C1.03843613,32.3687499 0.707789037,34.9245255 0.212201388,38.139626 C-0.283513923,41.3540895 1.38044522,43.0153946 3.11538498,44.2517561 C4.85019708,45.488245 6.5852645,46.2298581 10.3026825,46.4773597 C14.0202282,46.7247339 17.9855677,48.4560987 21.4554472,45.7356192 C24.9250714,43.0152672 23.685847,43.0152672 25.9166297,43.2622593 C28.1469018,43.5097609 29.3862539,43.5097609 29.3862539,43.5097609 L29.1385877,42.0262799 L26.9076773,40.5424168 L27.4033926,39.5533021 L25.1728652,39.5533021 C25.1728652,39.5533021 26.9076773,40.0477957 26.9076773,36.83295 C26.9076773,33.6182317 26.4122173,27.4357872 25.4207867,24.7158173 C25.2880172,24.3516345 25.1289492,23.899304 24.9525189,23.3883782" id="Fill-194" fill="#000000" mask="url(#mask-26)"></path>
                        </g>
                        <g id="Group-199" transform="translate(46.892205, 32.482196)">
                            <mask id="mask-28" fill="white">
                                <use xlink:href="#path-27"></use>
                            </mask>
                            <g id="Clip-198"></g>
                            <path d="M4.06302721,0.0483921024 C4.06302721,0.0483921024 6.21580787,3.76257194 7.69580468,5.77634069 C9.17592915,7.78998205 11.4631389,14.7709791 12.1357951,16.5162284 C12.808579,18.261605 16.306672,32.6261236 14.557817,34.6400197 C13.2753148,36.1161126 10.2536599,38.1884766 8.68302242,38.8071669 C8.11121998,39.0322494 7.65112264,38.4436211 7.65112264,38.4436211 C7.65112264,38.4436211 7.78542408,37.8618713 7.11289556,35.0427989 C6.60262667,32.9041966 2.37289715,29.000601 0.561231948,26.9363893 C-0.0149110349,26.2796121 0.0268347562,25.2424747 0.0268347562,25.2424747 L2.98670071,22.9603138 C2.98670071,22.9603138 5.09467167,20.6333148 5.76745552,20.3649227 C6.44011171,20.0964032 7.29213437,19.4699427 7.29213437,19.4699427 C7.29213437,19.4699427 6.61935051,15.1737583 6.48504907,14.2338127 C6.3504923,13.2942493 5.54315168,6.04486017 5.54315168,6.04486017 C5.54315168,6.04486017 7.1575776,13.1599896 7.29213437,14.2338127 C7.4268188,15.3080181 8.6375744,20.0068543 8.6375744,20.0068543 C8.6375744,20.0068543 8.5031453,20.2753737 9.44478736,20.8122853 C10.3866848,21.3494517 10.7903551,22.5575346 10.7903551,22.5575346 C10.7903551,22.5575346 7.74074204,20.4990551 7.20251496,20.3649227 C6.66428788,20.230663 5.94682199,20.8122853 5.94682199,20.8122853 L1.23759036,25.1080875 C1.23759036,25.1080875 5.76720019,30.7080181 6.48504907,31.5520456 C7.84887258,33.1566661 9.2536759,37.668252 9.2536759,37.668252 C9.2536759,37.668252 9.98301444,37.0564403 11.0594686,36.1166221 C12.1357951,35.1769313 13.7186883,34.3253882 14.0194622,33.5660691 C15.4546493,29.9411835 12.2256698,19.5594916 11.4183292,16.6059047 C10.6109886,13.6523178 4.46669752,0.764274217 4.06302721,0.0483921024" id="Fill-197" fill="#000000" mask="url(#mask-28)"></path>
                        </g>
                        <path d="M35.7516189,25.8069388 C35.7516189,25.8069388 34.2043437,30.3377592 32.2871013,31.3783359 C30.3698588,32.4186579 29.1251448,33.1234578 27.2753084,32.7543072 C25.4253443,32.3851566 28.55347,33.1234578 29.5289428,32.9893255 C30.5044155,32.8550657 32.8926067,31.5795982 33.4642815,30.9755567 C33.8295253,30.5897192 35.7516189,25.8069388 35.7516189,25.8069388" id="Fill-200" fill="#ECECEB"></path>
                        <path d="M30.571745,33.8506769 C30.571745,33.8506769 32.9262331,33.5597383 33.5988893,33.1346674 C34.2716732,32.7095964 35.9085678,29.4651983 35.9085678,29.4651983 C35.9085678,29.4651983 35.7068603,31.5013861 34.3614203,32.9779885 C33.3567127,34.0808546 31.1994638,33.8059661 30.571745,33.8506769" id="Fill-202" fill="#A9C5C8"></path>
                        <path d="M29.9999426,33.7947565 C29.9999426,33.7947565 32.7019293,33.3098165 33.6438267,32.3963662 C34.8378585,31.2384714 36.0544866,29.0624191 36.0544866,29.0624191 C36.0544866,29.0624191 35.0117354,32.1781622 34.0699657,32.8661479 C32.3984744,34.0872237 29.9999426,33.7947565 29.9999426,33.7947565" id="Fill-204" fill="#000000"></path>
                        <path d="M25.9429027,31.9497806 C25.9429027,31.9497806 26.2150802,31.4336321 26.6779861,31.053272 C27.1407644,30.6730392 28.2299848,30.0753668 29.1557967,30.1567634 C30.0813532,30.2382873 30.1084178,30.3740756 30.1084178,30.3740756 C30.1084178,30.3740756 30.054161,30.3469434 29.836368,30.5915153 C29.6183196,30.8359597 29.0467725,31.8139922 29.0467725,31.8139922 C29.0467725,31.8139922 29.9724567,30.7545631 30.1084178,30.6457796 C30.2446342,30.5371235 30.4351073,30.2382873 30.653028,30.1296312 C30.870821,30.020975 31.9599138,29.3961705 33.0216867,29.8309224 C33.4199952,29.9938429 33.2939919,30.0482346 33.1307109,30.2112825 C32.9673023,30.3740756 30.4897471,31.9769127 29.8634325,32.1672202 C29.2373733,32.3572729 28.7745951,32.4387968 28.1482805,32.3572729 C27.5220937,32.2758763 25.9429027,31.9497806 25.9429027,31.9497806" id="Fill-206" fill="#741016"></path>
                    </g>
                </g>
            </g>
        </g>
    </g>
</svg>