<?xml version="1.0" encoding="UTF-8" standalone="no"?>
<svg
   xmlns:dc="http://purl.org/dc/elements/1.1/"
   xmlns:cc="http://creativecommons.org/ns#"
   xmlns:rdf="http://www.w3.org/1999/02/22-rdf-syntax-ns#"
   xmlns:svg="http://www.w3.org/2000/svg"
   xmlns="http://www.w3.org/2000/svg"
   xmlns:xlink="http://www.w3.org/1999/xlink"
   xmlns:sodipodi="http://sodipodi.sourceforge.net/DTD/sodipodi-0.dtd"
   xmlns:inkscape="http://www.inkscape.org/namespaces/inkscape"
   width="320"
   height="332"
   viewBox="0 0 320 332"
   version="1.1"
   id="svg2"
   inkscape:version="0.91 r13725"
   sodipodi:docname="process-video.svg">
  <metadata
     id="metadata345">
    <rdf:RDF>
      <cc:Work
         rdf:about="">
        <dc:format>image/svg+xml</dc:format>
        <dc:type
           rdf:resource="http://purl.org/dc/dcmitype/StillImage" />
        <dc:title>24A0E6F6-CF96-4EB6-9811-3E2882D128FF</dc:title>
      </cc:Work>
    </rdf:RDF>
  </metadata>
  <sodipodi:namedview
     pagecolor="#ffffff"
     bordercolor="#666666"
     borderopacity="1"
     objecttolerance="10"
     gridtolerance="10"
     guidetolerance="10"
     inkscape:pageopacity="0"
     inkscape:pageshadow="2"
     inkscape:window-width="1855"
     inkscape:window-height="1056"
     id="namedview343"
     showgrid="false"
     inkscape:zoom="0.45734387"
     inkscape:cx="715.546"
     inkscape:cy="208.42544"
     inkscape:window-x="1985"
     inkscape:window-y="24"
     inkscape:window-maximized="1"
     inkscape:current-layer="svg2">
    <inkscape:grid
       type="xygrid"
       id="grid4442" />
  </sodipodi:namedview>
  <!-- Generator: sketchtool 40.3 (33839) - http://www.bohemiancoding.com/sketch -->
  <title
     id="title4">24A0E6F6-CF96-4EB6-9811-3E2882D128FF</title>
  <desc
     id="desc6">Created with sketchtool.</desc>
  <defs
     id="defs8">
    <polygon
       id="path-1"
       points="1136.339,0 0,0 0,332 1136.339,332 " />
    <polygon
       id="path-3"
       points="47.776,31.919 47.11,21.597 51.106,11.609 51.106,0.954 0.497,0.954 0.497,11.609 4.492,21.597 3.826,31.919 15.146,42.241 36.456,42.241 " />
    <polygon
       id="path-5"
       points="47.442,0.313 0.829,0.313 0.829,30.945 47.442,30.945 " />
    <path
       d="m 29.135,0.66 -14.666,0 -8.185,4.682 C 3.096,7.166 0.666,11.627 0.868,15.299 l 1.03,18.655 5.262,0 0,-18.645 28.635,3.33 7.324,-1.332 3.996,-7.991 3.995,5.993 0,18.645 5.262,0 1.03,-18.655 C 57.605,11.627 55.215,7.112 52.065,5.214 l -7.566,-4.554 -15.364,0 0,0 z"
       id="path-7"
       inkscape:connector-curvature="0" />
    <polygon
       id="path-9"
       points="20.778,11.609 22.11,0.954 0.802,0.954 3.465,11.609 " />
    <polygon
       id="path-11"
       points="18.805,11.609 21.469,0.954 0.16,0.954 1.492,11.609 " />
    <polygon
       id="path-13"
       points="1136.339,0 0,0 0,332 1136.339,332 " />
    <path
       d="m 23.275,0.201 -22.549,0 0,12.888 c 0,5.34 4.332,9.66 9.674,9.66 l 25.749,0 c 5.351,0 9.674,-4.325 9.674,-9.66 l 0,-12.888 -22.548,0 0,0 z"
       id="path-15"
       inkscape:connector-curvature="0" />
    <polygon
       id="path-17"
       points="45.823,0.041 0.726,0.041 0.726,24.201 45.823,24.201 " />
    <path
       d="m 0.823,11.759 c 3.559,0 6.443,-2.524 6.443,-5.638 0,-3.113 -2.884,-5.637 -6.443,-5.637 l 0,11.275 0,0 z"
       id="path-19"
       inkscape:connector-curvature="0" />
    <path
       d="m 0.284,6.121 c 0,3.114 2.884,5.638 6.442,5.638 l 0,-11.275 c -3.558,0 -6.442,2.524 -6.442,5.637 l 0,0 z"
       id="path-21"
       inkscape:connector-curvature="0" />
    <path
       d="m 0.726,0.988 0,8.053 61.204,0 0,-4.026 c 0,-2.24 -1.798,-4.027 -4.016,-4.027 l -57.188,0 0,0 z"
       id="path-23"
       inkscape:connector-curvature="0" />
    <polygon
       id="path-25"
       points="22.934,0.516 0.446,0.516 0.446,8.548 22.934,8.548 " />
    <path
       d="m 0.201,0.749 0,31.123 c 0,5.338 4.32,9.644 9.649,9.644 l 25.68,0 c 5.336,0 9.648,-4.318 9.648,-9.644 l 0,-31.123 -44.977,0 0,0 z"
       id="path-27"
       inkscape:connector-curvature="0" />
    <polygon
       id="path-29"
       points="1136.339,0 0,0 0,332 1136.339,332 " />
    <path
       d="m 0.178,11.633 c 3.549,0 6.425,-2.516 6.425,-5.621 C 6.603,2.907 3.727,0.39 0.178,0.39 l 0,11.243 0,0 z"
       id="path-31"
       inkscape:connector-curvature="0" />
    <path
       d="m 0.776,6.012 c 0,3.105 2.877,5.621 6.425,5.621 l 0,-11.243 c -3.548,0 -6.425,2.517 -6.425,5.622 l 0,0 z"
       id="path-33"
       inkscape:connector-curvature="0" />
    <polygon
       id="path-35"
       points="1136.339,0 0,0 0,332 1136.339,332 " />
    <polygon
       id="path-37"
       points="18.281,0.069 0.62,0.069 0.62,8.9 18.281,8.9 " />
    <polygon
       id="path-39"
       points="1136.339,0 0,0 0,332 1136.339,332 " />
    <polygon
       id="path-41"
       points="6.114,0.696 0.653,0.696 0.653,12.711 6.114,12.711 " />
    <polygon
       id="path-43"
       points="5.635,0.696 0.174,0.696 0.174,12.711 5.635,12.711 " />
    <path
       d="m 6.671,0.774 c -3.622,0 -6.556,2.937 -6.556,6.559 l 0,26.203 c 0,3.636 2.935,6.559 6.556,6.559 l 34.946,0 c 3.623,0 6.557,-2.937 6.557,-6.559 l 0,-26.203 c 0,-3.636 -2.936,-6.559 -6.557,-6.559 l -34.946,0 0,0 z"
       id="path-45"
       inkscape:connector-curvature="0" />
    <path
       d="m 1.483,0.605 c -0.596,0 -1.091,0.489 -1.091,1.094 l 0,10.917 c 0,0.598 0.492,1.095 1.1,1.095 l 11.784,0 5.683,-7.645 0,-4.36 c 0,-0.617 -0.488,-1.101 -1.092,-1.101 l -16.384,0 0,0 z"
       id="path-47"
       inkscape:connector-curvature="0" />
    <polygon
       id="path-49"
       points="1136.339,0 0,0 0,332 1136.339,332 " />
    <path
       d="m 1.421,0.605 c -0.603,0 -1.092,0.484 -1.092,1.101 l 0,4.36 5.683,7.645 11.783,0 c 0.609,0 1.102,-0.497 1.102,-1.095 l 0,-10.917 c 0,-0.605 -0.497,-1.094 -1.093,-1.094 l -16.383,0 0,0 z"
       id="path-51"
       inkscape:connector-curvature="0" />
    <polygon
       id="path-53"
       points="1136.339,0 0,0 0,332 1136.339,332 " />
    <path
       d="m 0.498,7.711 c 0,4.223 3.423,7.646 7.646,7.646 4.223,0 7.646,-3.423 7.646,-7.646 0,-4.222 -3.423,-7.645 -7.646,-7.645 -4.223,0 -7.646,3.423 -7.646,7.645 l 0,0 z"
       id="path-55"
       inkscape:connector-curvature="0" />
    <path
       d="m 23.134,0.759 c -2.664,0 -4.82,2.157 -4.82,4.818 0,1.055 0.34,2.033 0.919,2.828 l -10.744,0 c -4.235,0 -7.651,3.423 -7.651,7.646 l 0,7.645 3.277,0 0,-4.362 c 0,-3.622 2.934,-6.56 6.556,-6.56 l 34.946,0 c 3.621,0 6.557,2.928 6.557,6.56 l 0,4.362 3.277,0 0,-7.645 c 0,-4.214 -3.426,-7.646 -7.652,-7.646 l -0.911,0 c 0.577,-0.794 0.916,-1.771 0.916,-2.828 0,-2.655 -2.158,-4.818 -4.82,-4.818 l -19.85,0 0,0 z"
       id="path-57"
       inkscape:connector-curvature="0" />
  </defs>
  <polyline
     transform="translate(2177.0938,44.184136)"
     id="polyline5590"
     points="689.3622 222.9138 689.3622 232.5438 768.3392 232.5438 768.3392 94.6478 663.3842 94.6478 663.3842 54.2608 404.3972 54.2608"
     style="fill:none;fill-rule:evenodd;stroke:#077da1;stroke-width:6" />
  <g
     id="g4452"
     transform="matrix(0.90750435,0,0,0.90750435,58.351377,-9.8764607)">
    <path
       style="fill:none;fill-rule:evenodd;stroke:#99e9f6;stroke-width:4.99509621;stroke-linecap:butt;stroke-linejoin:miter;stroke-miterlimit:4;stroke-dasharray:none;stroke-opacity:1"
       d="m 281.48953,95.13047 213.88854,0 0,33.22099 86.92067,0 0,116.04594 -64.62165,0 0,-7.7364"
       data-ignore="true"
       id="stroke-dark-blue-1"
       inkscape:connector-curvature="0" />
    <g
       transform="matrix(0.83251605,0,0,0.83251605,-360.77878,55.60467)"
       id="Group-19"
       style="fill:none;fill-rule:evenodd;stroke:none;stroke-width:1">
      <path
         style="fill:#c4e9f6"
         inkscape:connector-curvature="0"
         id="Fill-1"
         d="m 1107.2,179.7605 c 0,59.851 -48.519,108.369 -108.369,108.369 -59.851,0 -108.369,-48.518 -108.369,-108.369 0,-59.851 48.518,-108.369 108.369,-108.369 59.85,0 108.369,48.518 108.369,108.369 l 0,0 z" />
      <mask
         fill="white"
         id="mask-2">
        <use
           height="100%"
           width="100%"
           y="0"
           x="0"
           id="use46"
           xlink:href="#path-1" />
      </mask>
      <g
         id="Clip-4" />
      <polygon
         style="fill:#ffffff"
         points="967.854,159.893 932.185,159.893 932.185,259.796 967.854,259.796 "
         mask="url(#mask-2)"
         id="Fill-3" />
      <polygon
         style="fill:#46c0ef"
         points="929.2596,202.0157 937.2876,275.4317 946.9356,275.4317 946.9356,219.7377 949.7386,219.7377 949.7586,219.7377 952.5626,219.7377 952.5626,275.4317 962.2106,275.4317 970.2376,202.0157 949.7586,202.0157 949.7386,202.0157 "
         mask="url(#mask-2)"
         id="Fill-5" />
      <polygon
         style="fill:#9d772f"
         points="945.935,281.024 935.944,281.024 935.944,282.884 945.935,282.884 "
         mask="url(#mask-2)"
         id="Fill-6" />
      <polygon
         style="fill:#424242"
         points="945.9353,280.8443 945.9353,275.4313 937.2873,275.4313 935.9443,280.8443 "
         mask="url(#mask-2)"
         id="Fill-7" />
      <polygon
         style="fill:#9d772f"
         points="964.67,281.024 953.562,281.024 953.562,282.884 964.67,282.884 "
         mask="url(#mask-2)"
         id="Fill-8" />
      <polygon
         style="fill:#424242"
         points="953.5623,280.8443 953.5623,275.4313 962.2103,275.4313 964.6703,280.8443 "
         mask="url(#mask-2)"
         id="Fill-9" />
      <polygon
         style="fill:#9dc03b"
         points="970.228,179.5 929.269,179.5 929.269,196.402 970.228,196.402 "
         mask="url(#mask-2)"
         id="Fill-10" />
      <polyline
         style="fill:#46c0ef"
         points="970.2281 162.3656 970.2281 204.1926 929.2691 204.1926 929.2691 162.3656"
         mask="url(#mask-2)"
         id="Fill-11" />
      <polygon
         style="fill:#ffffff"
         points="979.2129,261.8958 970.7999,168.5728 956.4949,158.4738 962.2549,261.8958 "
         mask="url(#mask-2)"
         id="Fill-12" />
      <polygon
         style="fill:#ffffff"
         points="920.8569,261.896 929.2699,168.573 943.5139,159.566 937.8149,261.896 "
         mask="url(#mask-2)"
         id="Fill-13" />
      <path
         style="fill:#ffffff"
         inkscape:connector-curvature="0"
         mask="url(#mask-2)"
         id="Fill-14"
         d="m 916.3478,195.7363 c -0.729,0 -1.446,-0.238 -2.037,-0.69 -0.81,-0.62 -1.294,-1.576 -1.313,-2.597 -0.42,-21.975 17.404,-31.042 18.163,-31.417 1.66,-0.819 3.668,-0.14 4.489,1.518 0.818,1.656 0.142,3.661 -1.509,4.484 -0.572,0.289 -12.469,6.464 -14.232,21.009 l 13.388,-3.343 c 1.795,-0.45 3.613,0.644 4.062,2.439 0.448,1.795 -0.644,3.614 -2.439,4.062 l -17.761,4.435 c -0.268,0.067 -0.54,0.1 -0.811,0.1" />
      <path
         style="fill:#231f1f"
         inkscape:connector-curvature="0"
         mask="url(#mask-2)"
         id="Fill-15"
         d="m 959.7482,192.386 -18.933,0 c -1.65,0 -3,-1.35 -3,-3 l 0,-6.886 c 0,-1.65 1.35,-3 3,-3 l 18.933,0 c 1.65,0 3,1.35 3,3 l 0,6.886 c 0,1.65 -1.35,3 -3,3" />
      <path
         style="fill:#fcd0be"
         inkscape:connector-curvature="0"
         mask="url(#mask-2)"
         id="Fill-16"
         d="m 937.6069,191.2692 -0.896,0 c -1.65,0 -3,-1.35 -3,-3 l 0,-3.107 c 0,-1.65 1.35,-3 3,-3 l 0.896,0 c 1.65,0 3,1.35 3,3 l 0,3.107 c 0,1.65 -1.35,3 -3,3" />
      <path
         style="fill:#ffffff"
         inkscape:connector-curvature="0"
         mask="url(#mask-2)"
         id="Fill-17"
         d="m 983.597,195.7363 c -0.271,0 -0.543,-0.033 -0.812,-0.1 l -17.76,-4.435 c -1.795,-0.448 -2.887,-2.267 -2.439,-4.062 0.449,-1.796 2.268,-2.887 4.062,-2.439 l 13.383,3.342 c -1.808,-14.695 -14.082,-20.937 -14.217,-21.003 -1.659,-0.82 -2.339,-2.83 -1.519,-4.489 0.821,-1.658 2.83,-2.336 4.488,-1.518 0.759,0.375 18.584,9.442 18.164,31.417 -0.02,1.021 -0.503,1.977 -1.313,2.597 -0.591,0.452 -1.308,0.69 -2.037,0.69" />
      <path
         style="fill:#fcd0be"
         inkscape:connector-curvature="0"
         mask="url(#mask-2)"
         id="Fill-18"
         d="m 962.3378,191.2692 0.896,0 c 1.65,0 3,-1.35 3,-3 l 0,-3.107 c 0,-1.65 -1.35,-3 -3,-3 l -0.896,0 c -1.65,0 -3,1.35 -3,3 l 0,3.107 c 0,1.65 1.35,3 3,3" />
    </g>
    <g
       transform="matrix(0.83251605,0,0,0.83251605,408.46606,158.83666)"
       id="Group-22"
       style="fill:none;fill-rule:evenodd;stroke:none;stroke-width:1">
      <mask
         fill="white"
         id="mask-4">
        <use
           height="100%"
           width="100%"
           y="0"
           x="0"
           id="use66"
           xlink:href="#path-3" />
      </mask>
      <g
         id="Clip-21" />
      <polygon
         style="fill:#fcd0be"
         points="57.765,-5.705 -6.162,-5.705 -6.162,48.899 57.765,48.899 "
         mask="url(#mask-4)"
         id="Fill-20" />
    </g>
    <path
       style="fill:#fcd0be;fill-rule:evenodd;stroke:none;stroke-width:1"
       inkscape:connector-curvature="0"
       id="Fill-23"
       d="m 421.25592,193.5376 17.3796,0 9.12688,-8.321 -0.54031,-8.36929 c -0.004,-0.0691 0.007,-0.13903 0.0325,-0.20313 l 3.2926,-8.23275 0,-8.31517 -41.20288,0 0,8.31517 3.29343,8.23275 c 0.0258,0.0641 0.0366,0.13403 0.0325,0.20313 l -0.5403,8.36929 9.12604,8.321 z m 17.56026,0.92992 -17.74009,0 c -0.11655,0 -0.22811,-0.0433 -0.31302,-0.12155 l -9.42492,-8.5924 c -0.10406,-0.0957 -0.15984,-0.2331 -0.15068,-0.3738 l 0.54779,-8.4875 -3.2876,-8.2186 c -0.0216,-0.0549 -0.0325,-0.11405 -0.0325,-0.17233 l 0,-8.87046 c 0,-0.25641 0.20813,-0.46454 0.46454,-0.46454 l 42.13198,0 c 0.25724,0 0.46537,0.20813 0.46537,0.46454 l 0,8.87046 c 0,0.0583 -0.0116,0.11738 -0.0333,0.17233 l -3.28677,8.2186 0.54696,8.4875 c 0.009,0.1407 -0.0458,0.27806 -0.15068,0.3738 l -9.42409,8.5924 c -0.0857,0.0782 -0.1973,0.12155 -0.31302,0.12155 l 0,0 z" />
    <g
       transform="matrix(0.83251605,0,0,0.83251605,409.29857,140.52131)"
       id="Group-27"
       style="fill:none;fill-rule:evenodd;stroke:none;stroke-width:1">
      <mask
         fill="white"
         id="mask-6">
        <use
           height="100%"
           width="100%"
           y="0"
           x="0"
           id="use73"
           xlink:href="#path-5" />
      </mask>
      <g
         id="Clip-26" />
      <polygon
         style="fill:#fcd0be"
         points="54.101,-6.345 -5.83,-6.345 -5.83,37.605 54.101,37.605 "
         mask="url(#mask-6)"
         id="Fill-25" />
    </g>
    <polygon
       transform="matrix(0.83251605,0,0,0.83251605,-360.77878,55.60467)"
       style="fill:#ff8556;fill-rule:evenodd;stroke:none;stroke-width:1"
       points="955.622,150.974 955.745,152.084 942.649,153.539 942.525,152.429 "
       id="Fill-28" />
    <g
       transform="matrix(0.83251605,0,0,0.83251605,405.13599,131.36363)"
       id="Group-32"
       style="fill:none;fill-rule:evenodd;stroke:none;stroke-width:1">
      <mask
         fill="white"
         id="mask-8">
        <use
           height="100%"
           width="100%"
           y="0"
           x="0"
           id="use80"
           xlink:href="#path-7" />
      </mask>
      <g
         id="Clip-31" />
      <polygon
         style="fill:#f7a02e"
         points="64.074,-6 -5.802,-6 -5.802,40.613 64.074,40.613 "
         mask="url(#mask-8)"
         id="Fill-30" />
    </g>
    <path
       style="fill:#f7a02e;fill-rule:evenodd;stroke:none;stroke-width:1"
       inkscape:connector-curvature="0"
       id="Fill-33"
       d="m 448.15093,159.16625 3.47576,0 0.83334,-15.09185 c 0.15985,-2.89799 -1.73246,-6.47364 -4.21919,-7.97134 l -6.18726,-3.72551 -24.7482,0 -6.70758,3.83707 c -2.5167,1.43942 -4.43398,4.96596 -4.27497,7.85978 l 0.83335,15.09185 3.47658,0 0,-15.05771 c 0,-0.13237 0.0566,-0.25892 0.15568,-0.34716 0.0982,-0.0883 0.23061,-0.13154 0.36298,-0.11489 l 23.76917,2.76395 5.80097,-1.05396 3.22267,-6.44534 c 0.0741,-0.14736 0.22145,-0.24559 0.38629,-0.25558 0.164,-0.006 0.32384,0.0683 0.41625,0.20563 l 3.3259,4.98927 c 0.0508,0.0766 0.0783,0.1665 0.0783,0.25808 l 0,15.05771 z m 3.91616,0.92992 -4.3807,0 c -0.25725,0 -0.46538,-0.20812 -0.46538,-0.46537 l 0,-15.38157 -2.80391,-4.20587 -2.96792,5.93667 c -0.0658,0.13071 -0.18815,0.22312 -0.33301,0.24892 l -6.09735,1.10892 c -0.0458,0.008 -0.0916,0.01 -0.13736,0.004 l -23.31961,-2.71151 0,15.00028 c 0,0.25725 -0.20813,0.46537 -0.46454,0.46537 l -4.3807,0 c -0.24726,0 -0.45123,-0.19314 -0.46455,-0.43956 l -0.85749,-15.53142 c -0.17649,-3.21019 1.95059,-7.12051 4.74201,-8.71728 l 6.81415,-3.8995 c 0.0708,-0.04 0.14985,-0.0608 0.23144,-0.0608 l 25.00045,0 c 0.0841,0 0.16734,0.0233 0.23977,0.0666 l 6.29798,3.79295 c 2.75147,1.65587 4.84525,5.61199 4.66792,8.81801 l -0.85749,15.53142 c -0.0133,0.24642 -0.21729,0.43956 -0.46371,0.43956 l 0,0 z" />
    <g
       transform="matrix(0.83251605,0,0,0.83251605,429.27896,158.83666)"
       id="Group-37"
       style="fill:none;fill-rule:evenodd;stroke:none;stroke-width:1">
      <mask
         fill="white"
         id="mask-10">
        <use
           height="100%"
           width="100%"
           y="0"
           x="0"
           id="use87"
           xlink:href="#path-9" />
      </mask>
      <g
         id="Clip-36" />
      <polygon
         style="fill:#c4e9f6"
         points="28.769,-5.705 -5.858,-5.705 -5.858,18.268 28.769,18.268 "
         mask="url(#mask-10)"
         id="Fill-35" />
    </g>
    <path
       style="fill:#231f1f;fill-rule:evenodd;stroke:none;stroke-width:1"
       inkscape:connector-curvature="0"
       id="Fill-38"
       d="m 432.52652,168.03613 13.63994,0 0.99319,-7.94054 -16.61785,0 1.98472,7.94054 z m 14.05037,0.92992 -14.41335,0 c -0.21312,0 -0.3996,-0.14569 -0.45122,-0.35215 l -2.21699,-8.87046 c -0.035,-0.13903 -0.003,-0.28556 0.0841,-0.39795 0.0883,-0.11322 0.22312,-0.17899 0.36631,-0.17899 l 17.74008,0 c 0.13321,0 0.26058,0.0566 0.34883,0.15652 0.0883,0.10073 0.12904,0.23393 0.11239,0.36547 l -1.10891,8.87046 c -0.0283,0.23227 -0.22645,0.4071 -0.46122,0.4071 l 0,0 z" />
    <g
       transform="matrix(0.83251605,0,0,0.83251605,410.9636,158.83666)"
       id="Group-42"
       style="fill:none;fill-rule:evenodd;stroke:none;stroke-width:1">
      <mask
         fill="white"
         id="mask-12">
        <use
           height="100%"
           width="100%"
           y="0"
           x="0"
           id="use94"
           xlink:href="#path-11" />
      </mask>
      <g
         id="Clip-41" />
      <polygon
         style="fill:#c4e9f6"
         points="28.128,-5.705 -6.499,-5.705 -6.499,18.268 28.128,18.268 "
         mask="url(#mask-12)"
         id="Fill-40" />
    </g>
    <g
       transform="matrix(0.83251605,0,0,0.83251605,410.13109,158.83666)"
       id="Group-46"
       style="fill:none;fill-rule:evenodd;stroke:none;stroke-width:1">
      <path
         style="fill:#231f1f"
         inkscape:connector-curvature="0"
         id="Fill-43"
         d="m 7.261,6.84 9.108,0 0,-1.117 -9.108,0 0,1.117 z m 22.641,0 9.108,0 0,-1.117 -9.108,0 0,1.117 z m -26.917,4.21 16.385,0 2.384,-9.537 -19.961,0 1.192,9.537 z m 16.821,1.117 -17.314,0 c -0.281,0 -0.519,-0.21 -0.554,-0.489 L 0.606,1.023 C 0.587,0.865 0.636,0.704 0.742,0.585 0.848,0.465 1,0.396 1.16,0.396 l 21.309,0 c 0.172,0 0.335,0.079 0.44,0.215 0.106,0.135 0.144,0.312 0.102,0.478 l -2.663,10.655 c -0.063,0.248 -0.286,0.423 -0.542,0.423 l 0,0 z" />
      <polygon
         style="fill:#e1ac98"
         points="24.359,37.686 23.242,37.686 23.242,41.467 24.359,41.467 "
         id="Fill-45" />
    </g>
    <g
       transform="matrix(0.83251605,0,0,0.83251605,-360.77878,55.60467)"
       id="Group-61"
       style="fill:none;fill-rule:evenodd;stroke:none;stroke-width:1">
      <polygon
         style="fill:#929497"
         points="203.9087,202.0157 211.9367,275.4317 220.5847,275.4317 220.5847,219.7377 224.3877,219.7377 224.4077,219.7377 228.2117,219.7377 228.2117,275.4317 236.8597,275.4317 244.8867,202.0157 224.4077,202.0157 224.3877,202.0157 "
         id="Fill-47" />
      <mask
         fill="white"
         id="mask-14">
        <use
           height="100%"
           width="100%"
           y="0"
           x="0"
           id="use104"
           xlink:href="#path-13" />
      </mask>
      <g
         id="Clip-50" />
      <polygon
         style="fill:#9d772f"
         points="220.584,281.024 211.71,281.024 211.71,282.884 220.584,282.884 "
         mask="url(#mask-14)"
         id="Fill-49" />
      <polygon
         style="fill:#424242"
         points="220.5843,280.8443 220.5843,275.4313 211.9363,275.4313 211.7103,280.8443 "
         mask="url(#mask-14)"
         id="Fill-51" />
      <polygon
         style="fill:#9d772f"
         points="237.086,281.024 228.212,281.024 228.212,282.884 237.086,282.884 "
         mask="url(#mask-14)"
         id="Fill-52" />
      <polygon
         style="fill:#424242"
         points="228.2114,280.8443 228.2114,275.4313 236.8594,275.4313 237.0854,280.8443 "
         mask="url(#mask-14)"
         id="Fill-53" />
      <polygon
         style="fill:#9dc03b"
         points="244.877,179.5 203.918,179.5 203.918,196.402 244.877,196.402 "
         mask="url(#mask-14)"
         id="Fill-54" />
      <polyline
         style="fill:#2e368e"
         points="244.8772 162.3656 244.8772 204.1926 203.9182 204.1926 203.9182 162.3656"
         mask="url(#mask-14)"
         id="Fill-55" />
      <path
         style="fill:#2e368e"
         inkscape:connector-curvature="0"
         mask="url(#mask-14)"
         id="Fill-56"
         d="m 190.9965,195.7365 c -0.729,0 -1.446,-0.238 -2.037,-0.69 -0.81,-0.62 -1.293,-1.576 -1.313,-2.597 -0.42,-21.975 17.405,-31.042 18.164,-31.418 1.658,-0.819 3.668,-0.14 4.488,1.519 0.818,1.655 0.143,3.66 -1.509,4.484 -0.572,0.287 -12.469,6.464 -14.232,21.009 l 13.388,-3.344 c 1.794,-0.45 3.614,0.644 4.062,2.439 0.448,1.795 -0.643,3.614 -2.439,4.063 l -17.76,4.435 c -0.268,0.067 -0.541,0.1 -0.812,0.1" />
      <path
         style="fill:#231f1f"
         inkscape:connector-curvature="0"
         mask="url(#mask-14)"
         id="Fill-57"
         d="m 234.3973,192.386 -18.933,0 c -1.65,0 -3,-1.35 -3,-3 l 0,-6.886 c 0,-1.65 1.35,-3 3,-3 l 18.933,0 c 1.65,0 3,1.35 3,3 l 0,6.886 c 0,1.65 -1.35,3 -3,3" />
      <path
         style="fill:#fcd0be"
         inkscape:connector-curvature="0"
         mask="url(#mask-14)"
         id="Fill-58"
         d="m 212.256,191.2692 -0.896,0 c -1.65,0 -3,-1.35 -3,-3 l 0,-3.107 c 0,-1.65 1.35,-3 3,-3 l 0.896,0 c 1.65,0 3,1.35 3,3 l 0,3.107 c 0,1.65 -1.35,3 -3,3" />
      <path
         style="fill:#2e368e"
         inkscape:connector-curvature="0"
         mask="url(#mask-14)"
         id="Fill-59"
         d="m 258.2463,195.7365 c -0.271,0 -0.543,-0.033 -0.812,-0.1 l -17.76,-4.435 c -1.796,-0.449 -2.887,-2.268 -2.439,-4.063 0.448,-1.795 2.268,-2.888 4.062,-2.439 l 13.388,3.344 c -1.765,-14.558 -13.681,-20.732 -14.234,-21.01 -1.648,-0.831 -2.32,-2.84 -1.496,-4.491 0.824,-1.651 2.822,-2.329 4.477,-1.511 0.759,0.376 18.584,9.443 18.164,31.418 -0.02,1.021 -0.503,1.977 -1.313,2.597 -0.591,0.452 -1.308,0.69 -2.037,0.69" />
      <path
         style="fill:#fcd0be"
         inkscape:connector-curvature="0"
         mask="url(#mask-14)"
         id="Fill-60"
         d="m 236.9868,191.2692 0.896,0 c 1.65,0 3,-1.35 3,-3 l 0,-3.107 c 0,-1.65 -1.35,-3 -3,-3 l -0.896,0 c -1.65,0 -3,1.35 -3,3 l 0,3.107 c 0,1.65 1.35,3 3,3" />
    </g>
    <g
       transform="matrix(0.83251605,0,0,0.83251605,-193.44305,172.98943)"
       id="Group-64"
       style="fill:none;fill-rule:evenodd;stroke:none;stroke-width:1">
      <mask
         fill="white"
         id="mask-16">
        <use
           height="100%"
           width="100%"
           y="0"
           x="0"
           id="use120"
           xlink:href="#path-15" />
      </mask>
      <g
         id="Clip-63" />
      <polygon
         style="fill:#88714d"
         points="53.877,-7.852 -7.327,-7.852 -7.327,30.803 53.877,30.803 "
         mask="url(#mask-16)"
         id="Fill-62" />
    </g>
    <path
       style="fill:#88714d;fill-rule:evenodd;stroke:none;stroke-width:1"
       inkscape:connector-curvature="0"
       id="Fill-65"
       d="m -192.37368,173.62156 0,10.26493 c 0,4.17839 3.40416,7.57756 7.58921,7.57756 l 21.43646,0 c 4.18423,0 7.58922,-3.39917 7.58922,-7.57756 l 0,-10.26493 -36.61489,0 z m 29.02567,18.77241 -21.43646,0 c -4.69705,0 -8.51913,-3.81709 -8.51913,-8.50748 l 0,-10.72947 c 0,-0.25725 0.20813,-0.46538 0.46537,-0.46538 l 37.54398,0 c 0.25725,0 0.46538,0.20813 0.46538,0.46538 l 0,10.72947 c 0,4.69039 -3.82209,8.50748 -8.51914,8.50748 l 0,0 z" />
    <g
       transform="matrix(0.83251605,0,0,0.83251605,-193.44305,153.00905)"
       id="Group-69"
       style="fill:none;fill-rule:evenodd;stroke:none;stroke-width:1">
      <mask
         fill="white"
         id="mask-18">
        <use
           height="100%"
           width="100%"
           y="0"
           x="0"
           id="use127"
           xlink:href="#path-17" />
      </mask>
      <g
         id="Clip-68" />
      <polygon
         style="fill:#fcd0be"
         points="53.877,-8.012 -7.327,-8.012 -7.327,32.254 53.877,32.254 "
         mask="url(#mask-18)"
         id="Fill-67" />
    </g>
    <g
       transform="matrix(0.83251605,0,0,0.83251605,-193.44305,152.17653)"
       id="Group-74"
       style="fill:none;fill-rule:evenodd;stroke:none;stroke-width:1">
      <path
         style="fill:#fcd0be"
         inkscape:connector-curvature="0"
         id="Fill-70"
         d="m 1.284,24.643 43.981,0 0,-23.043 -43.981,0 0,23.043 z m 44.54,1.116 -45.098,0 c -0.308,0 -0.558,-0.249 -0.558,-0.558 l 0,-24.16 c 0,-0.308 0.25,-0.558 0.558,-0.558 l 45.098,0 c 0.308,0 0.558,0.25 0.558,0.558 l 0,24.16 c 0,0.309 -0.25,0.558 -0.558,0.558 l 0,0 z" />
      <polygon
         style="fill:#ff88ab"
         points="27.054,31.085 19.495,31.085 19.495,32.202 27.054,32.202 "
         id="Fill-72" />
      <path
         style="fill:#446581"
         inkscape:connector-curvature="0"
         id="Fill-73"
         d="m 12.0004,15.0434 c 0.89,0 1.611,-0.721 1.611,-1.611 0,-0.889 -0.721,-1.61 -1.611,-1.61 -0.89,0 -1.611,0.721 -1.611,1.61 0,0.89 0.721,1.611 1.611,1.611" />
    </g>
    <g
       transform="matrix(0.83251605,0,0,0.83251605,-155.97983,158.00414)"
       id="Group-77"
       style="fill:none;fill-rule:evenodd;stroke:none;stroke-width:1">
      <mask
         fill="white"
         id="mask-20">
        <use
           height="100%"
           width="100%"
           y="0"
           x="0"
           id="use137"
           xlink:href="#path-19" />
      </mask>
      <g
         id="Clip-76" />
      <polygon
         style="fill:#fcd0be"
         points="15.319,-7.569 -7.23,-7.569 -7.23,19.812 15.319,19.812 "
         mask="url(#mask-20)"
         id="Fill-75" />
    </g>
    <path
       style="fill:#fcd0be;fill-rule:evenodd;stroke:none;stroke-width:1"
       inkscape:connector-curvature="0"
       id="Fill-78"
       d="m -155.29408,168.25825 -0.46455,0 0,-0.92993 0.46455,0 c 2.70068,0 4.89852,-1.89647 4.89852,-4.22834 0,-2.33105 -2.19784,-4.22752 -4.89852,-4.22752 l -0.46455,0 0,-0.92992 0.46455,0 c 3.21351,0 5.82844,2.31356 5.82844,5.15744 0,2.8447 -2.61493,5.15827 -5.82844,5.15827" />
    <g
       transform="matrix(0.83251605,0,0,0.83251605,-198.43815,158.00414)"
       id="Group-82"
       style="fill:none;fill-rule:evenodd;stroke:none;stroke-width:1">
      <mask
         fill="white"
         id="mask-22">
        <use
           height="100%"
           width="100%"
           y="0"
           x="0"
           id="use144"
           xlink:href="#path-21" />
      </mask>
      <g
         id="Clip-81" />
      <polygon
         style="fill:#fcd0be"
         points="14.779,-7.569 -7.77,-7.569 -7.77,19.812 14.779,19.812 "
         mask="url(#mask-22)"
         id="Fill-80" />
    </g>
    <g
       transform="matrix(0.83251605,0,0,0.83251605,-199.27066,157.17163)"
       id="Group-87"
       style="fill:none;fill-rule:evenodd;stroke:none;stroke-width:1">
      <path
         style="fill:#fcd0be"
         inkscape:connector-curvature="0"
         id="Fill-83"
         d="m 8.2845,13.317 -0.558,0 c -3.861,0 -7.001,-2.779 -7.001,-6.196 0,-3.416 3.14,-6.195 7.001,-6.195 l 0.558,0 0,1.117 -0.558,0 c -3.245,0 -5.885,2.278 -5.885,5.078 0,2.801 2.64,5.079 5.885,5.079 l 0.558,0 0,1.117 z" />
      <path
         style="fill:#446581"
         inkscape:connector-curvature="0"
         id="Fill-85"
         d="m 41.5491,9.0434 c 0.89,0 1.611,-0.721 1.611,-1.611 0,-0.889 -0.721,-1.61 -1.611,-1.61 -0.89,0 -1.611,0.721 -1.611,1.61 0,0.89 0.721,1.611 1.611,1.611" />
    </g>
    <g
       transform="matrix(0.83251605,0,0,0.83251605,-193.44305,145.5164)"
       id="Group-90"
       style="fill:none;fill-rule:evenodd;stroke:none;stroke-width:1">
      <mask
         fill="white"
         id="mask-24">
        <use
           height="100%"
           width="100%"
           y="0"
           x="0"
           id="use153"
           xlink:href="#path-23" />
      </mask>
      <g
         id="Clip-89" />
      <polygon
         style="fill:#2e368e"
         points="69.983,-7.065 -7.327,-7.065 -7.327,17.094 69.983,17.094 "
         mask="url(#mask-24)"
         id="Fill-88" />
    </g>
    <path
       style="fill:#2e368e;fill-rule:evenodd;stroke:none;stroke-width:1"
       inkscape:connector-curvature="0"
       id="Fill-91"
       d="m -157.79172,151.60892 -32.58384,0 c -1.37365,0 -2.49755,-1.12389 -2.49755,-2.49755 l 0,-8.37344 c 0,-1.37365 1.1239,-2.49755 2.49755,-2.49755 l 32.58384,0 c 1.37366,0 2.49755,1.1239 2.49755,2.49755 l 0,8.37344 c 0,1.37366 -1.12389,2.49755 -2.49755,2.49755" />
    <g
       transform="matrix(0.83251605,0,0,0.83251605,-312.49285,172.15692)"
       id="Group-95"
       style="fill:none;fill-rule:evenodd;stroke:none;stroke-width:1">
      <mask
         fill="white"
         id="mask-26">
        <use
           height="100%"
           width="100%"
           y="0"
           x="0"
           id="use160"
           xlink:href="#path-25" />
      </mask>
      <g
         id="Clip-94" />
      <polygon
         style="fill:#88714d"
         points="30.965,-7.516 -7.586,-7.516 -7.586,16.579 30.965,16.579 "
         mask="url(#mask-26)"
         id="Fill-93" />
    </g>
    <path
       style="fill:#88714d;fill-rule:evenodd;stroke:none;stroke-width:1"
       inkscape:connector-curvature="0"
       id="Fill-96"
       d="m -293.39976,179.73764 -18.72162,0 c -0.25724,0 -0.46537,-0.20813 -0.46537,-0.46454 l 0,-7.15215 0.92992,0 0,6.68677 17.79253,0 0,-6.68677 0.92909,0 0,7.15215 c 0,0.25641 -0.20813,0.46454 -0.46455,0.46454" />
    <g
       transform="matrix(0.83251605,0,0,0.83251605,-321.65052,138.02376)"
       id="Group-100"
       style="fill:none;fill-rule:evenodd;stroke:none;stroke-width:1">
      <mask
         fill="white"
         id="mask-28">
        <use
           height="100%"
           width="100%"
           y="0"
           x="0"
           id="use167"
           xlink:href="#path-27" />
      </mask>
      <g
         id="Clip-99" />
      <polygon
         style="fill:#a28458"
         points="53.21,-7.283 -7.83,-7.283 -7.83,49.547 53.21,49.547 "
         mask="url(#mask-28)"
         id="Fill-98" />
    </g>
    <g
       transform="matrix(0.83251605,0,0,0.83251605,-360.77878,55.60467)"
       id="Group-106"
       style="fill:none;fill-rule:evenodd;stroke:none;stroke-width:1">
      <path
         style="fill:#a28458"
         inkscape:connector-curvature="0"
         id="Fill-101"
         d="m 47.7599,100.3069 0,30.565 c 0,5.01 4.078,9.085 9.09,9.085 l 25.68,0 c 5.012,0 9.09,-4.075 9.09,-9.085 l 0,-30.565 -43.86,0 0,0 z m 34.77,40.767 -25.68,0 c -5.628,0 -10.207,-4.577 -10.207,-10.202 l 0,-31.123 c 0,-0.309 0.25,-0.559 0.559,-0.559 l 44.976,0 c 0.309,0 0.559,0.25 0.559,0.559 l 0,31.123 c 0,5.625 -4.579,10.202 -10.207,10.202 l 0,0 z" />
      <mask
         fill="white"
         id="mask-30">
        <use
           height="100%"
           width="100%"
           y="0"
           x="0"
           id="use174"
           xlink:href="#path-29" />
      </mask>
      <g
         id="Clip-104" />
      <polygon
         style="fill:#ffac8d"
         points="73.461,130.319 65.919,130.319 65.919,131.436 73.461,131.436 "
         mask="url(#mask-30)"
         id="Fill-103" />
      <path
         style="fill:#2f4555"
         inkscape:connector-curvature="0"
         mask="url(#mask-30)"
         id="Fill-105"
         d="m 58.4457,114.8148 c 0.887,0 1.606,-0.719 1.606,-1.606 0,-0.887 -0.719,-1.607 -1.606,-1.607 -0.887,0 -1.606,0.72 -1.606,1.607 0,0.887 0.719,1.606 1.606,1.606" />
    </g>
    <g
       transform="matrix(0.83251605,0,0,0.83251605,-284.1873,145.5164)"
       id="Group-109"
       style="fill:none;fill-rule:evenodd;stroke:none;stroke-width:1">
      <mask
         fill="white"
         id="mask-32">
        <use
           height="100%"
           width="100%"
           y="0"
           x="0"
           id="use181"
           xlink:href="#path-31" />
      </mask>
      <g
         id="Clip-108" />
      <polygon
         style="fill:#a28458"
         points="14.635,-7.642 -7.853,-7.642 -7.853,19.665 14.635,19.665 "
         mask="url(#mask-32)"
         id="Fill-107" />
    </g>
    <path
       style="fill:#a28458;fill-rule:evenodd;stroke:none;stroke-width:1"
       inkscape:connector-curvature="0"
       id="Fill-110"
       d="m -284.03886,155.66669 -0.46455,0 0,-0.92992 0.46455,0 c 2.69319,0 4.88437,-1.89148 4.88437,-4.21586 0,-2.32439 -2.19118,-4.21503 -4.88437,-4.21503 l -0.46455,0 0,-0.92992 0.46455,0 c 3.20602,0 5.81429,2.30773 5.81429,5.14495 0,2.83805 -2.60827,5.14578 -5.81429,5.14578" />
    <g
       transform="matrix(0.83251605,0,0,0.83251605,-327.47813,145.5164)"
       id="Group-114"
       style="fill:none;fill-rule:evenodd;stroke:none;stroke-width:1">
      <mask
         fill="white"
         id="mask-34">
        <use
           height="100%"
           width="100%"
           y="0"
           x="0"
           id="use188"
           xlink:href="#path-33" />
      </mask>
      <g
         id="Clip-113" />
      <polygon
         style="fill:#a28458"
         points="15.233,-7.642 -7.255,-7.642 -7.255,19.665 15.233,19.665 "
         mask="url(#mask-34)"
         id="Fill-112" />
    </g>
    <g
       transform="matrix(0.83251605,0,0,0.83251605,-360.77878,55.60467)"
       id="Group-141"
       style="fill:none;fill-rule:evenodd;stroke:none;stroke-width:1">
      <path
         style="fill:#a28458"
         inkscape:connector-curvature="0"
         id="Fill-115"
         d="m 47.7599,120.1923 -0.558,0 c -3.851,0 -6.984,-2.772 -6.984,-6.181 0,-3.408 3.133,-6.18 6.984,-6.18 l 0.558,0 0,1.117 -0.558,0 c -3.235,0 -5.867,2.271 -5.867,5.063 0,2.792 2.632,5.064 5.867,5.064 l 0.558,0 0,1.117 0,0 z" />
      <path
         style="stroke:#c4dfed;stroke-width:2;stroke-linecap:square;stroke-linejoin:round"
         inkscape:connector-curvature="0"
         d=""
         id="Stroke-117" />
      <path
         style="fill:#2f4555"
         inkscape:connector-curvature="0"
         id="Fill-119"
         d="m 80.9341,114.8148 c 0.887,0 1.606,-0.719 1.606,-1.606 0,-0.887 -0.719,-1.607 -1.606,-1.607 -0.887,0 -1.606,0.72 -1.606,1.607 0,0.887 0.719,1.606 1.606,1.606" />
      <mask
         fill="white"
         id="mask-36">
        <use
           height="100%"
           width="100%"
           y="0"
           x="0"
           id="use197"
           xlink:href="#path-35" />
      </mask>
      <g
         id="Clip-122" />
      <polygon
         style="fill:#2f4555"
         points="93.075,88.16 46.305,88.16 46.305,103.135 93.075,103.135 "
         mask="url(#mask-36)"
         id="Fill-121" />
      <polygon
         style="fill:#2e368e"
         points="48.5593,190.0563 56.5873,274.3713 65.2353,274.3713 65.2353,210.4093 69.0383,210.4093 69.0583,210.4093 72.8623,210.4093 72.8623,274.3713 81.5103,274.3713 89.5373,190.0563 69.0583,190.0563 69.0383,190.0563 "
         mask="url(#mask-36)"
         id="Fill-123" />
      <polygon
         style="fill:#9d772f"
         points="65.209,281.024 56.335,281.024 56.335,282.884 65.209,282.884 "
         mask="url(#mask-36)"
         id="Fill-124" />
      <polygon
         style="fill:#424242"
         points="65.2349,280.5869 65.2349,274.3709 56.5869,274.3709 56.3609,280.5869 "
         mask="url(#mask-36)"
         id="Fill-125" />
      <polygon
         style="fill:#9d772f"
         points="81.711,281.024 72.837,281.024 72.837,282.884 81.711,282.884 "
         mask="url(#mask-36)"
         id="Fill-126" />
      <polygon
         style="fill:#424242"
         points="72.862,280.5869 72.862,274.3709 81.51,274.3709 81.736,280.5869 "
         mask="url(#mask-36)"
         id="Fill-127" />
      <polygon
         style="fill:#9dc03b"
         points="89.528,164.198 48.569,164.198 48.569,183.609 89.528,183.609 "
         mask="url(#mask-36)"
         id="Fill-128" />
      <polyline
         style="fill:#46c0ef"
         points="89.5278 144.5199 89.5278 192.5569 48.5688 192.5569 48.5688 144.5199"
         mask="url(#mask-36)"
         id="Fill-129" />
      <path
         style="fill:#46c0ef"
         inkscape:connector-curvature="0"
         mask="url(#mask-36)"
         id="Fill-130"
         d="m 35.6474,182.8447 c -0.729,0 -1.446,-0.273 -2.037,-0.793 -0.81,-0.712 -1.293,-1.81 -1.313,-2.982 -0.42,-25.237 17.404,-35.65 18.163,-36.081 1.659,-0.94 3.669,-0.161 4.489,1.744 0.818,1.902 0.142,4.205 -1.511,5.15 -0.592,0.344 -12.469,7.438 -14.23,24.127 l 13.388,-3.839 c 1.794,-0.518 3.613,0.739 4.062,2.8 0.448,2.063 -0.644,4.151 -2.439,4.666 l -17.761,5.093 c -0.268,0.077 -0.54,0.115 -0.811,0.115" />
      <path
         style="fill:#231f1f"
         inkscape:connector-curvature="0"
         mask="url(#mask-36)"
         id="Fill-131"
         d="m 79.0479,178.9971 -18.933,0 c -1.65,0 -3,-1.35 -3,-3 l 0,-8.8 c 0,-1.65 1.35,-3 3,-3 l 18.933,0 c 1.65,0 3,1.35 3,3 l 0,8.8 c 0,1.65 -1.35,3 -3,3" />
      <path
         style="fill:#fcd0be"
         inkscape:connector-curvature="0"
         mask="url(#mask-36)"
         id="Fill-132"
         d="m 56.9066,177.7145 -0.896,0 c -1.65,0 -3,-1.35 -3,-3 l 0,-4.459 c 0,-1.65 1.35,-3 3,-3 l 0.896,0 c 1.65,0 3,1.35 3,3 l 0,4.459 c 0,1.65 -1.35,3 -3,3" />
      <path
         style="fill:#46c0ef"
         inkscape:connector-curvature="0"
         mask="url(#mask-36)"
         id="Fill-133"
         d="m 102.8967,182.8447 c -0.271,0 -0.543,-0.038 -0.811,-0.115 l -17.761,-5.093 c -1.795,-0.515 -2.887,-2.603 -2.439,-4.666 0.449,-2.061 2.267,-3.315 4.062,-2.8 l 13.383,3.838 c -1.808,-16.877 -14.082,-24.045 -14.217,-24.121 -1.659,-0.942 -2.339,-3.25 -1.519,-5.155 0.82,-1.905 2.829,-2.684 4.488,-1.744 0.759,0.431 18.584,10.844 18.164,36.081 -0.02,1.172 -0.503,2.27 -1.313,2.982 -0.591,0.519 -1.308,0.793 -2.037,0.793" />
      <path
         style="fill:#fcd0be"
         inkscape:connector-curvature="0"
         mask="url(#mask-36)"
         id="Fill-134"
         d="m 81.6374,177.7145 0.896,0 c 1.65,0 3,-1.35 3,-3 l 0,-4.459 c 0,-1.65 -1.35,-3 -3,-3 l -0.896,0 c -1.65,0 -3,1.35 -3,3 l 0,4.459 c 0,1.65 1.35,3 3,3" />
      <polyline
         style="fill:#fff100"
         points="125.2829 142.6432 113.0109 164.3042 135.0869 164.3042"
         mask="url(#mask-36)"
         id="Fill-135" />
      <path
         style="fill:#fff100"
         inkscape:connector-curvature="0"
         mask="url(#mask-36)"
         id="Fill-136"
         d="m 135.0873,164.8621 -22.076,0 c -0.199,0 -0.383,-0.106 -0.482,-0.277 -0.101,-0.172 -0.102,-0.384 -0.004,-0.557 l 12.272,-21.66 c 0.152,-0.268 0.493,-0.362 0.761,-0.211 0.268,0.153 0.362,0.493 0.21,0.762 l -11.799,20.826 21.118,0 c 0.308,0 0.558,0.25 0.558,0.559 0,0.308 -0.25,0.558 -0.558,0.558" />
      <polyline
         style="fill:#fff100"
         points="169.0588 141.5264 181.8888 164.3044 159.8128 164.3044"
         mask="url(#mask-36)"
         id="Fill-137" />
      <path
         style="fill:#fff100"
         inkscape:connector-curvature="0"
         mask="url(#mask-36)"
         id="Fill-138"
         d="m 181.889,164.8621 -22.076,0 c -0.309,0 -0.559,-0.25 -0.559,-0.558 0,-0.309 0.25,-0.559 0.559,-0.559 l 21.121,0 -12.362,-21.944 c -0.151,-0.269 -0.056,-0.61 0.213,-0.761 0.269,-0.152 0.609,-0.056 0.76,0.212 l 12.83,22.777 c 0.098,0.174 0.096,0.385 -0.004,0.557 -0.1,0.171 -0.283,0.276 -0.482,0.276" />
      <path
         style="fill:#fff100"
         inkscape:connector-curvature="0"
         mask="url(#mask-36)"
         id="Fill-139"
         d="m 170.3393,130.4401 c 0,10.296 -10.264,18.642 -22.924,18.642 -12.661,0 -22.925,-8.346 -22.925,-18.642 0,-10.296 10.264,-18.642 22.925,-18.642 12.66,0 22.924,8.346 22.924,18.642" />
      <path
         style="fill:#fff100"
         inkscape:connector-curvature="0"
         mask="url(#mask-36)"
         id="Fill-140"
         d="m 147.4151,112.3567 c -12.333,0 -22.366,8.112 -22.366,18.084 0,9.971 10.033,18.083 22.366,18.083 12.333,0 22.366,-8.112 22.366,-18.083 0,-9.972 -10.033,-18.084 -22.366,-18.084 m 0,37.284 c -12.948,0 -23.483,-8.614 -23.483,-19.2 0,-10.588 10.535,-19.201 23.483,-19.201 12.948,0 23.482,8.613 23.482,19.201 0,10.586 -10.534,19.2 -23.482,19.2" />
    </g>
    <g
       transform="matrix(0.83251605,0,0,0.83251605,-245.89156,193.80234)"
       id="Group-144"
       style="fill:none;fill-rule:evenodd;stroke:none;stroke-width:1">
      <mask
         fill="white"
         id="mask-38">
        <use
           height="100%"
           width="100%"
           y="0"
           x="0"
           id="use221"
           xlink:href="#path-37" />
      </mask>
      <g
         id="Clip-143" />
      <polygon
         style="fill:#e1ac98"
         points="27.111,-8.76 -8.211,-8.76 -8.211,17.731 27.111,17.731 "
         mask="url(#mask-38)"
         id="Fill-142" />
    </g>
    <g
       transform="matrix(0.83251605,0,0,0.83251605,-360.77878,55.60467)"
       id="Group-186"
       style="fill:none;fill-rule:evenodd;stroke:none;stroke-width:1">
      <path
         style="fill:#fcd0be"
         inkscape:connector-curvature="0"
         id="Fill-145"
         d="m 124.4908,128.9819 45.919,0 0,18.544 c 0,10.242 -8.316,20.219 -18.545,20.219 l -8.829,0 c -10.242,0 -18.545,-9.975 -18.545,-20.219 l 0,-18.544 0,0 z" />
      <path
         style="fill:#ff88ab"
         inkscape:connector-curvature="0"
         id="Fill-147"
         d="m 147.45,157.7981 c -3.229,0 -5.857,-2.627 -5.857,-5.857 l 0,-0.558 1.117,0 0,0.558 c 0,2.614 2.126,4.74 4.74,4.74 2.614,0 4.74,-2.126 4.74,-4.74 l 0,-0.558 1.117,0 0,0.558 c 0,3.23 -2.628,5.857 -5.857,5.857" />
      <path
         style="fill:#2f4555"
         inkscape:connector-curvature="0"
         id="Fill-149"
         d="m 135.0873,140.6045 c 0.975,0 1.766,-0.791 1.766,-1.766 0,-0.976 -0.791,-1.766 -1.766,-1.766 -0.975,0 -1.766,0.79 -1.766,1.766 0,0.975 0.791,1.766 1.766,1.766" />
      <path
         style="fill:#fcd0be"
         inkscape:connector-curvature="0"
         id="Fill-151"
         d="m 170.4093,143.1107 c 3.902,0 7.064,-2.768 7.064,-6.181 0,-3.414 -3.162,-6.182 -7.064,-6.182" />
      <path
         style="fill:#fcd0be"
         inkscape:connector-curvature="0"
         id="Fill-153"
         d="m 124.4908,143.1107 c -3.902,0 -7.064,-2.768 -7.064,-6.181 0,-3.414 3.162,-6.182 7.064,-6.182" />
      <path
         style="fill:#2f4555"
         inkscape:connector-curvature="0"
         id="Fill-155"
         d="m 159.8127,140.6045 c 0.975,0 1.766,-0.791 1.766,-1.766 0,-0.976 -0.791,-1.766 -1.766,-1.766 -0.975,0 -1.766,0.79 -1.766,1.766 0,0.975 0.791,1.766 1.766,1.766" />
      <polygon
         style="fill:#fcd0be"
         points="128.6622,207.797 136.1152,275.964 141.9112,275.964 141.9112,224.252 147.6772,224.252 147.6952,224.252 153.4602,224.252 153.4602,275.964 159.2572,275.964 166.7102,207.797 147.6952,207.797 147.6772,207.797 "
         id="Fill-157" />
      <mask
         fill="white"
         id="mask-40">
        <use
           height="100%"
           width="100%"
           y="0"
           x="0"
           id="use234"
           xlink:href="#path-39" />
      </mask>
      <g
         id="Clip-160" />
      <polygon
         style="fill:#231f1f"
         points="143.029,281.157 131.997,281.157 131.997,282.884 143.029,282.884 "
         mask="url(#mask-40)"
         id="Fill-159" />
      <polygon
         style="fill:#231f1f"
         points="143.0286,280.9901 143.0286,275.9641 134.9986,275.9641 131.9966,280.9901 "
         mask="url(#mask-40)"
         id="Fill-161" />
      <polygon
         style="fill:#231f1f"
         points="162.817,281.157 152.344,281.157 152.344,282.884 162.817,282.884 "
         mask="url(#mask-40)"
         id="Fill-162" />
      <polygon
         style="fill:#231f1f"
         points="152.3435,280.9901 152.3435,275.9641 160.3735,275.9641 162.8175,280.9901 "
         mask="url(#mask-40)"
         id="Fill-163" />
      <polyline
         style="fill:#d0d2d3"
         points="166.7013 168.7379 166.7013 209.8189 128.6713 209.8189 128.6713 168.7379"
         mask="url(#mask-40)"
         id="Fill-164" />
      <path
         style="fill:#d0d2d3"
         inkscape:connector-curvature="0"
         mask="url(#mask-40)"
         id="Fill-165"
         d="m 114.6329,201.4929 c -0.729,0 -1.446,-0.238 -2.037,-0.69 -0.81,-0.62 -1.293,-1.576 -1.313,-2.597 -0.424,-22.175 17.651,-29.553 18.421,-29.856 1.72,-0.679 3.666,0.167 4.345,1.889 0.676,1.717 -0.164,3.657 -1.877,4.34 -0.563,0.229 -12.205,5.121 -13.972,19.219 l 13.382,-3.342 c 1.794,-0.449 3.614,0.644 4.062,2.439 0.448,1.795 -0.643,3.614 -2.439,4.063 l -17.76,4.435 c -0.268,0.067 -0.541,0.1 -0.812,0.1" />
      <path
         style="fill:#231f1f"
         inkscape:connector-curvature="0"
         mask="url(#mask-40)"
         id="Fill-166"
         d="m 158.0335,198.1423 -18.933,0 c -1.65,0 -3,-1.35 -3,-3 l 0,-6.886 c 0,-1.65 1.35,-3 3,-3 l 18.933,0 c 1.65,0 3,1.35 3,3 l 0,6.886 c 0,1.65 -1.35,3 -3,3" />
      <path
         style="fill:#fcd0be"
         inkscape:connector-curvature="0"
         mask="url(#mask-40)"
         id="Fill-167"
         d="m 135.8922,197.0255 -0.896,0 c -1.65,0 -3,-1.35 -3,-3 l 0,-3.107 c 0,-1.65 1.35,-3 3,-3 l 0.896,0 c 1.65,0 3,1.35 3,3 l 0,3.107 c 0,1.65 -1.35,3 -3,3" />
      <path
         style="fill:#d0d2d3"
         inkscape:connector-curvature="0"
         mask="url(#mask-40)"
         id="Fill-168"
         d="m 181.8824,201.4929 c -0.271,0 -0.543,-0.033 -0.812,-0.1 l -17.76,-4.435 c -1.796,-0.449 -2.887,-2.268 -2.439,-4.063 0.448,-1.795 2.268,-2.888 4.062,-2.439 l 13.377,3.342 c -1.809,-14.258 -13.822,-19.162 -13.955,-19.214 -1.721,-0.678 -2.567,-2.623 -1.889,-4.345 0.678,-1.722 2.625,-2.569 4.345,-1.889 0.77,0.303 18.845,7.681 18.421,29.856 -0.02,1.021 -0.503,1.977 -1.313,2.597 -0.591,0.452 -1.308,0.69 -2.037,0.69" />
      <path
         style="fill:#fcd0be"
         inkscape:connector-curvature="0"
         mask="url(#mask-40)"
         id="Fill-169"
         d="m 160.623,197.0255 0.896,0 c 1.65,0 3,-1.35 3,-3 l 0,-3.107 c 0,-1.65 -1.35,-3 -3,-3 l -0.896,0 c -1.65,0 -3,1.35 -3,3 l 0,3.107 c 0,1.65 1.35,3 3,3" />
      <polygon
         style="fill:#eb078b"
         points="175.9558,257.8518 166.7008,209.8188 128.6708,209.8188 120.6378,257.8518 "
         mask="url(#mask-40)"
         id="Fill-170" />
      <polygon
         style="fill:#ffffff"
         points="1072.467,191.421 1036.798,191.421 1036.798,259.796 1072.467,259.796 "
         mask="url(#mask-40)"
         id="Fill-171" />
      <polygon
         style="fill:#46c0ef"
         points="1033.8729,233.5434 1041.9009,275.4314 1050.5489,275.4314 1050.5489,246.0694 1054.3519,246.0374 1054.3719,246.0374 1058.1759,246.0694 1058.1759,275.4314 1066.8239,275.4314 1074.8509,233.5434 1054.3719,233.5434 1054.3519,233.5434 "
         mask="url(#mask-40)"
         id="Fill-172" />
      <polygon
         style="fill:#9d772f"
         points="1050.548,281.024 1040.557,281.024 1040.557,282.884 1050.548,282.884 "
         mask="url(#mask-40)"
         id="Fill-173" />
      <polygon
         style="fill:#424242"
         points="1050.5486,280.8443 1050.5486,275.4313 1041.9006,275.4313 1040.5576,280.8443 "
         mask="url(#mask-40)"
         id="Fill-174" />
      <polygon
         style="fill:#9d772f"
         points="1069.284,281.024 1058.176,281.024 1058.176,282.884 1069.284,282.884 "
         mask="url(#mask-40)"
         id="Fill-175" />
      <polygon
         style="fill:#424242"
         points="1058.1756,280.8443 1058.1756,275.4313 1066.8236,275.4313 1069.2836,280.8443 "
         mask="url(#mask-40)"
         id="Fill-176" />
      <polygon
         style="fill:#9dc03b"
         points="1074.841,211.028 1033.882,211.028 1033.882,227.93 1074.841,227.93 "
         mask="url(#mask-40)"
         id="Fill-177" />
      <polyline
         style="fill:#46c0ef"
         points="1070.8376 193.8934 1070.8376 235.7204 1038.3236 235.7204 1038.3236 193.8934"
         mask="url(#mask-40)"
         id="Fill-178" />
      <polygon
         style="fill:#ffffff"
         points="1083.8263,261.8956 1072.4673,191.4206 1061.1083,190.0016 1066.8683,261.8956 "
         mask="url(#mask-40)"
         id="Fill-179" />
      <polygon
         style="fill:#ffffff"
         points="1025.4702,261.8958 1036.7982,191.4208 1048.1272,191.0938 1042.4282,261.8958 "
         mask="url(#mask-40)"
         id="Fill-180" />
      <path
         style="fill:#ffffff"
         inkscape:connector-curvature="0"
         mask="url(#mask-40)"
         id="Fill-181"
         d="m 1020.961,227.2642 c -0.729,0 -1.446,-0.238 -2.037,-0.69 -0.81,-0.62 -1.293,-1.576 -1.313,-2.597 -0.42,-21.975 17.405,-31.042 18.164,-31.417 1.659,-0.819 3.668,-0.14 4.488,1.518 0.818,1.656 0.143,3.66 -1.508,4.484 -0.557,0.28 -12.469,6.454 -14.233,21.009 l 13.388,-3.343 c 1.794,-0.451 3.613,0.643 4.062,2.439 0.448,1.795 -0.644,3.614 -2.439,4.062 l -17.761,4.435 c -0.268,0.067 -0.54,0.1 -0.811,0.1" />
      <path
         style="fill:#231f1f"
         inkscape:connector-curvature="0"
         mask="url(#mask-40)"
         id="Fill-182"
         d="m 1064.3616,223.9138 -18.933,0 c -1.65,0 -3,-1.35 -3,-3 l 0,-6.886 c 0,-1.65 1.35,-3 3,-3 l 18.933,0 c 1.65,0 3,1.35 3,3 l 0,6.886 c 0,1.65 -1.35,3 -3,3" />
      <path
         style="fill:#fcd0be"
         inkscape:connector-curvature="0"
         mask="url(#mask-40)"
         id="Fill-183"
         d="m 1042.2202,222.797 -0.896,0 c -1.65,0 -3,-1.35 -3,-3 l 0,-3.107 c 0,-1.65 1.35,-3 3,-3 l 0.896,0 c 1.65,0 3,1.35 3,3 l 0,3.107 c 0,1.65 -1.35,3 -3,3" />
      <path
         style="fill:#ffffff"
         inkscape:connector-curvature="0"
         mask="url(#mask-40)"
         id="Fill-184"
         d="m 1088.2103,227.2642 c -0.271,0 -0.543,-0.033 -0.811,-0.1 l -17.761,-4.435 c -1.795,-0.448 -2.887,-2.267 -2.439,-4.062 0.449,-1.795 2.267,-2.887 4.062,-2.439 l 13.383,3.342 c -1.808,-14.695 -14.082,-20.937 -14.217,-21.003 -1.659,-0.82 -2.339,-2.83 -1.519,-4.489 0.821,-1.658 2.831,-2.336 4.489,-1.518 0.759,0.375 18.583,9.442 18.163,31.417 -0.02,1.021 -0.503,1.977 -1.313,2.597 -0.591,0.452 -1.308,0.69 -2.037,0.69" />
      <path
         style="fill:#fcd0be"
         inkscape:connector-curvature="0"
         mask="url(#mask-40)"
         id="Fill-185"
         d="m 1066.951,222.797 0.896,0 c 1.65,0 3,-1.35 3,-3 l 0,-3.107 c 0,-1.65 -1.35,-3 -3,-3 l -0.896,0 c -1.65,0 -3,1.35 -3,3 l 0,3.107 c 0,1.65 1.35,3 3,3" />
    </g>
    <g
       transform="matrix(0.83251605,0,0,0.83251605,492.55018,192.1373)"
       id="Group-189"
       style="fill:none;fill-rule:evenodd;stroke:none;stroke-width:1">
      <mask
         fill="white"
         id="mask-42">
        <use
           height="100%"
           width="100%"
           y="0"
           x="0"
           id="use265"
           xlink:href="#path-41" />
      </mask>
      <g
         id="Clip-188" />
      <polygon
         style="fill:#e1ac98"
         points="11.576,-4.765 -4.808,-4.765 -4.808,18.172 11.576,18.172 "
         mask="url(#mask-42)"
         id="Fill-187" />
    </g>
    <path
       style="fill:#e1ac98;fill-rule:evenodd;stroke:none;stroke-width:1"
       inkscape:connector-curvature="0"
       id="Fill-190"
       d="m 493.55919,202.25487 3.61645,0 0,-9.07276 -3.61645,0 0,9.07276 z m 4.08182,0.92909 -4.5472,0 c -0.25641,0 -0.46454,-0.2073 -0.46454,-0.46455 l 0,-10.00268 c 0,-0.25724 0.20813,-0.46454 0.46454,-0.46454 l 4.5472,0 c 0.25642,0 0.46455,0.2073 0.46455,0.46454 l 0,10.00268 c 0,0.25725 -0.20813,0.46455 -0.46455,0.46455 l 0,0 z" />
    <g
       transform="matrix(0.83251605,0,0,0.83251605,537.50604,192.1373)"
       id="Group-194"
       style="fill:none;fill-rule:evenodd;stroke:none;stroke-width:1">
      <mask
         fill="white"
         id="mask-44">
        <use
           height="100%"
           width="100%"
           y="0"
           x="0"
           id="use272"
           xlink:href="#path-43" />
      </mask>
      <g
         id="Clip-193" />
      <polygon
         style="fill:#e1ac98"
         points="11.096,-4.765 -5.288,-4.765 -5.288,18.172 11.096,18.172 "
         mask="url(#mask-44)"
         id="Fill-192" />
    </g>
    <path
       style="fill:#e1ac98;fill-rule:evenodd;stroke:none;stroke-width:1"
       inkscape:connector-curvature="0"
       id="Fill-195"
       d="m 538.11545,202.25487 3.61645,0 0,-9.07276 -3.61645,0 0,9.07276 z m 4.08182,0.92909 -4.54637,0 c -0.25724,0 -0.46537,-0.2073 -0.46537,-0.46455 l 0,-10.00268 c 0,-0.25724 0.20813,-0.46454 0.46537,-0.46454 l 4.54637,0 c 0.25642,0 0.46455,0.2073 0.46455,0.46454 l 0,10.00268 c 0,0.25725 -0.20813,0.46455 -0.46455,0.46455 l 0,0 z" />
    <g
       transform="matrix(0.83251605,0,0,0.83251605,497.54527,182.97963)"
       id="Group-199"
       style="fill:none;fill-rule:evenodd;stroke:none;stroke-width:1">
      <mask
         fill="white"
         id="mask-46">
        <use
           height="100%"
           width="100%"
           y="0"
           x="0"
           id="use279"
           xlink:href="#path-45" />
      </mask>
      <g
         id="Clip-198" />
      <polygon
         style="fill:#fcd0be"
         points="53.635,-4.687 -5.347,-4.687 -5.347,45.557 53.635,45.557 "
         mask="url(#mask-46)"
         id="Fill-197" />
    </g>
    <path
       style="fill:#fcd0be;fill-rule:evenodd;stroke:none;stroke-width:1"
       inkscape:connector-curvature="0"
       id="Fill-200"
       d="m 503.09899,184.08895 c -2.75313,0 -4.99343,2.24114 -4.99343,4.99593 l 0,21.81359 c 0,2.75479 2.2403,4.99593 4.99343,4.99593 l 29.0931,0 c 2.75314,0 4.99344,-2.24114 4.99344,-4.99593 l 0,-21.81359 c 0,-2.75479 -2.2403,-4.99593 -4.99344,-4.99593 l -29.0931,0 z m 29.0931,32.73537 -29.0931,0 c -3.26596,0 -5.92335,-2.65823 -5.92335,-5.92585 l 0,-21.81359 c 0,-3.26762 2.65739,-5.92585 5.92335,-5.92585 l 29.0931,0 c 3.26597,0 5.92336,2.65823 5.92336,5.92585 l 0,21.81359 c 0,3.26762 -2.65739,5.92585 -5.92336,5.92585 l 0,0 z" />
    <g
       transform="matrix(0.83251605,0,0,0.83251605,500.04282,191.30479)"
       id="Group-204"
       style="fill:none;fill-rule:evenodd;stroke:none;stroke-width:1">
      <mask
         fill="white"
         id="mask-48">
        <use
           height="100%"
           width="100%"
           y="0"
           x="0"
           id="use286"
           xlink:href="#path-47" />
      </mask>
      <g
         id="Clip-203" />
      <polygon
         style="fill:#ffe7df"
         points="24.421,-4.857 -5.07,-4.857 -5.07,19.173 24.421,19.173 "
         mask="url(#mask-48)"
         id="Fill-202" />
    </g>
    <g
       transform="matrix(0.83251605,0,0,0.83251605,-360.77878,55.60467)"
       id="Group-209"
       style="fill:none;fill-rule:evenodd;stroke:none;stroke-width:1">
      <path
         style="fill:#231f1f"
         inkscape:connector-curvature="0"
         id="Fill-205"
         d="m 1047.2759,177.2694 -11.783,0 c -0.915,0 -1.66,-0.742 -1.66,-1.653 l 0,-10.918 c 0,-0.911 0.74,-1.653 1.651,-1.653 l 16.384,0 c 0.91,0 1.65,0.745 1.65,1.661 l 0,4.359 c 0,0.308 -0.25,0.558 -0.558,0.558 -0.309,0 -0.559,-0.25 -0.559,-0.558 l 0,-4.359 c 0,-0.305 -0.234,-0.544 -0.533,-0.544 l -16.384,0 c -0.29,0 -0.534,0.246 -0.534,0.536 l 0,10.918 c 0,0.29 0.248,0.536 0.543,0.536 l 11.783,0 c 0.308,0 0.558,0.25 0.558,0.559 0,0.308 -0.25,0.558 -0.558,0.558 l 0,0 z" />
      <mask
         fill="white"
         id="mask-50">
        <use
           height="100%"
           width="100%"
           y="0"
           x="0"
           id="use293"
           xlink:href="#path-49" />
      </mask>
      <g
         id="Clip-208" />
      <polygon
         style="fill:#4d656c"
         points="1048.057,167.414 1044.756,167.414 1044.756,168.531 1048.057,168.531 "
         mask="url(#mask-50)"
         id="Fill-207" />
    </g>
    <g
       transform="matrix(0.83251605,0,0,0.83251605,519.19069,191.30479)"
       id="Group-212"
       style="fill:none;fill-rule:evenodd;stroke:none;stroke-width:1">
      <mask
         fill="white"
         id="mask-52">
        <use
           height="100%"
           width="100%"
           y="0"
           x="0"
           id="use299"
           xlink:href="#path-51" />
      </mask>
      <g
         id="Clip-211" />
      <polygon
         style="fill:#ffe7df"
         points="24.358,-4.857 -5.133,-4.857 -5.133,19.173 24.358,19.173 "
         mask="url(#mask-52)"
         id="Fill-210" />
    </g>
    <g
       transform="matrix(0.83251605,0,0,0.83251605,-360.77878,55.60467)"
       id="Group-217"
       style="fill:none;fill-rule:evenodd;stroke:none;stroke-width:1">
      <path
         style="fill:#231f1f"
         inkscape:connector-curvature="0"
         id="Fill-213"
         d="m 1074.7957,177.2694 -11.783,0 c -0.309,0 -0.559,-0.25 -0.559,-0.558 0,-0.309 0.25,-0.559 0.559,-0.559 l 11.783,0 c 0.294,0 0.543,-0.246 0.543,-0.536 l 0,-10.918 c 0,-0.29 -0.245,-0.536 -0.534,-0.536 l -16.384,0 c -0.299,0 -0.534,0.239 -0.534,0.544 l 0,4.359 c 0,0.308 -0.25,0.558 -0.558,0.558 -0.309,0 -0.559,-0.25 -0.559,-0.558 l 0,-4.359 c 0,-0.916 0.741,-1.661 1.651,-1.661 l 16.384,0 c 0.91,0 1.651,0.742 1.651,1.653 l 0,10.918 c 0,0.911 -0.745,1.653 -1.66,1.653 l 0,0 z" />
      <mask
         fill="white"
         id="mask-54">
        <use
           height="100%"
           width="100%"
           y="0"
           x="0"
           id="use306"
           xlink:href="#path-53" />
      </mask>
      <g
         id="Clip-216" />
      <polygon
         style="fill:#4d656c"
         points="1065.533,167.414 1062.232,167.414 1062.232,168.531 1065.533,168.531 "
         mask="url(#mask-54)"
         id="Fill-215" />
    </g>
    <g
       transform="matrix(0.83251605,0,0,0.83251605,510.86553,196.29988)"
       id="Group-220"
       style="fill:none;fill-rule:evenodd;stroke:none;stroke-width:1">
      <mask
         fill="white"
         id="mask-56">
        <use
           height="100%"
           width="100%"
           y="0"
           x="0"
           id="use312"
           xlink:href="#path-55" />
      </mask>
      <g
         id="Clip-219" />
      <polygon
         style="fill:#e1ac98"
         points="21.251,-5.396 -4.963,-5.396 -4.963,20.818 21.251,20.818 "
         mask="url(#mask-56)"
         id="Fill-218" />
    </g>
    <path
       style="fill:#e1ac98;fill-rule:evenodd;stroke:none;stroke-width:1"
       inkscape:connector-curvature="0"
       id="Fill-221"
       d="m 517.64546,196.81904 c -3.25347,0 -5.90004,2.64657 -5.90004,5.90004 0,3.25431 2.64657,5.90088 5.90004,5.90088 3.25347,0 5.90004,-2.64657 5.90004,-5.90088 0,-3.25347 -2.64657,-5.90004 -5.90004,-5.90004 m 0,12.73084 c -3.7663,0 -6.82996,-3.0645 -6.82996,-6.8308 0,-3.76547 3.06366,-6.82996 6.82996,-6.82996 3.7663,0 6.82996,3.06449 6.82996,6.82996 0,3.7663 -3.06366,6.8308 -6.82996,6.8308" />
    <g
       transform="matrix(0.83251605,0,0,0.83251605,494.21521,172.98943)"
       id="Group-225"
       style="fill:none;fill-rule:evenodd;stroke:none;stroke-width:1">
      <mask
         fill="white"
         id="mask-58">
        <use
           height="100%"
           width="100%"
           y="0"
           x="0"
           id="use319"
           xlink:href="#path-57" />
      </mask>
      <g
         id="Clip-224" />
      <polygon
         style="fill:#603813"
         points="60.911,-4.702 -4.624,-4.702 -4.624,29.158 60.911,29.158 "
         mask="url(#mask-58)"
         id="Fill-223" />
    </g>
    <path
       style="fill:#603813;fill-rule:evenodd;stroke:none;stroke-width:1"
       inkscape:connector-curvature="0"
       id="Fill-226"
       d="m 538.11553,192.25194 1.79823,0 0,-5.90004 c 0,-3.25347 -2.64906,-5.90004 -5.90503,-5.90004 l -0.75842,0 c -0.17483,0 -0.33468,-0.0982 -0.4146,-0.25392 -0.0791,-0.15568 -0.0641,-0.343 0.0383,-0.48369 0.44123,-0.60857 0.67434,-1.32786 0.67434,-2.08212 0,-1.95475 -1.59177,-3.54569 -3.54819,-3.54569 l -16.52544,0 c -1.95641,0 -3.54818,1.59094 -3.54818,3.54569 0,0.75342 0.23393,1.47272 0.676,2.08129 0.10323,0.14152 0.11738,0.32884 0.0383,0.48452 -0.0791,0.15568 -0.23976,0.25392 -0.41459,0.25392 l -8.94372,0 c -3.25597,0 -5.90503,2.64657 -5.90503,5.90004 l 0,5.90004 1.79823,0 0,-3.16689 c 0,-3.26763 2.65739,-5.92585 5.92335,-5.92585 l 29.09311,0 c 3.26596,0 5.92335,2.65822 5.92335,5.92585 l 0,3.16689 z m 2.26278,0.92992 -2.72732,0 c -0.25725,0 -0.46538,-0.20813 -0.46538,-0.46538 l 0,-3.63143 c 0,-2.7548 -2.2403,-4.99593 -4.99343,-4.99593 l -29.09311,0 c -2.75313,0 -4.99343,2.24113 -4.99343,4.99593 l 0,3.63143 c 0,0.25725 -0.20813,0.46538 -0.46538,0.46538 l -2.72732,0 c -0.25725,0 -0.46537,-0.20813 -0.46537,-0.46538 l 0,-6.36458 c 0,-3.7663 3.06615,-6.82996 6.83495,-6.82996 l 8.13202,0 c -0.27473,-0.58776 -0.41792,-1.2288 -0.41792,-1.88981 0,-2.46758 2.00886,-4.47561 4.4781,-4.47561 l 16.52544,0 c 2.46925,0 4.47811,2.00803 4.47811,4.47561 0,0.66185 -0.14236,1.30288 -0.41709,1.88981 3.74465,0.0283 6.7825,3.08114 6.7825,6.82996 l 0,6.36458 c 0,0.25725 -0.20812,0.46538 -0.46537,0.46538 l 0,0 z" />
    <path
       d="m 273.50929,331.16748 -322.732337,0 c -3.893677,0 -7.079716,-3.18603 -7.079716,-7.07971 l 0,-260.570867 c 0,-3.893678 3.186039,-7.079716 7.079716,-7.079716 l 322.732337,0 c 3.89368,0 7.07972,3.186038 7.07972,7.079716 l 0,260.570867 c 0,3.89368 -3.18604,7.07971 -7.07972,7.07971 l 0,0 z"
       data-ignore="true"
       id="Stroke-228"
       inkscape:connector-curvature="0"
       style="fill:none;fill-rule:evenodd;stroke:#a6a8ab;stroke-width:1.66503215" />
    <path
       d="m 271.56903,85.297771 -255.025473,0 c -1.297893,0 -2.359351,-1.062291 -2.359351,-2.360183 l 0,-17.48034 c 0,-1.297892 1.061458,-2.360183 2.359351,-2.360183 l 255.025473,0 c 1.29789,0 2.36018,1.062291 2.36018,2.360183 l 0,17.48034 c 0,1.297892 -1.06229,2.360183 -2.36018,2.360183 l 0,0 z"
       data-ignore="true"
       id="Stroke-230"
       inkscape:connector-curvature="0"
       style="fill:none;fill-rule:evenodd;stroke:#a6a8ab;stroke-width:1.66503215" />
    <path
       d="m -56.857469,90.847822 337.446229,0"
       data-ignore="true"
       id="Stroke-232"
       inkscape:connector-curvature="0"
       style="fill:none;fill-rule:evenodd;stroke:#a6a8ab;stroke-width:1.66503215" />
    <path
       d="m -33.067906,73.819206 c 0,2.814737 -2.281927,5.095831 -5.095831,5.095831 -2.814737,0 -5.095831,-2.281094 -5.095831,-5.095831 0,-2.814737 2.281094,-5.095831 5.095831,-5.095831 2.813904,0 5.095831,2.281094 5.095831,5.095831 l 0,0 z"
       data-ignore="true"
       id="Stroke-234"
       inkscape:connector-curvature="0"
       style="fill:none;fill-rule:evenodd;stroke:#a6a8ab;stroke-width:1.66503215" />
    <path
       d="m -16.417585,73.819206 c 0,2.814737 -2.281927,5.095831 -5.095831,5.095831 -2.814737,0 -5.095831,-2.281094 -5.095831,-5.095831 0,-2.814737 2.281094,-5.095831 5.095831,-5.095831 2.813904,0 5.095831,2.281094 5.095831,5.095831 l 0,0 z"
       data-ignore="true"
       id="Stroke-236"
       inkscape:connector-curvature="0"
       style="fill:none;fill-rule:evenodd;stroke:#a6a8ab;stroke-width:1.66503215" />
    <path
       d="m 0.23273562,73.819206 c 0,2.814737 -2.28192652,5.095831 -5.09583072,5.095831 -2.8147368,0 -5.0958308,-2.281094 -5.0958308,-5.095831 0,-2.814737 2.281094,-5.095831 5.0958308,-5.095831 2.8139042,0 5.09583072,2.281094 5.09583072,5.095831 l 0,0 z"
       data-ignore="true"
       id="Stroke-238"
       inkscape:connector-curvature="0"
       style="fill:none;fill-rule:evenodd;stroke:#a6a8ab;stroke-width:1.66503215" />
    <polyline
       data-ignore="true"
       transform="matrix(0.83251605,0,0,0.83251605,-237.5664,220.44285)"
       id="Stroke-Pink"
       points="0.5668 0.1423 0.5668 125.7463 124.5938 125.7463 124.5938 59.7233 217.0638 59.7233"
       style="fill:none;fill-rule:evenodd;stroke:#ffb5e0;stroke-width:6" />
    <polyline
       transform="matrix(0.83251605,0,0,0.83251605,-360.77878,55.60467)"
       data-ignore="true"
       style="fill:none;fill-rule:evenodd;stroke:#bfc5ff;stroke-width:6"
       points="224.9306 192.386 224.9306 209.819 301.0636 209.819 301.0636 153.474 365.7306 153.474"
       id="Stroke-purple" />
    <path
       inkscape:connector-curvature="0"
       data-ignore="true"
       id="Stroke-blue"
       d="m -303.29479,204.62263 0,19.16369 -54.98602,0 0,-122.17673 300.590742,0"
       style="fill:none;fill-rule:evenodd;stroke:#b5ebff;stroke-width:4.99509621" />
    <polyline
       style="fill:none;fill-rule:evenodd;stroke:#eb078b;stroke-width:6"
       points="0.5668 0.1423 0.5668 125.7463 124.5938 125.7463 124.5938 59.7233 217.0638 59.7233"
       id="polyline5574"
       transform="matrix(0.83251605,0,0,0.83251605,-237.5664,220.44285)" />
    <polyline
       transform="matrix(0.83251605,0,0,0.83251605,-360.77878,55.60467)"
       id="polyline5576"
       points="224.9306 192.386 224.9306 209.819 301.0636 209.819 301.0636 153.474 365.7306 153.474"
       style="fill:none;fill-rule:evenodd;stroke:#2e368e;stroke-width:6" />
    <path
       inkscape:connector-curvature="0"
       style="fill:none;fill-rule:evenodd;stroke:#46c0ef;stroke-width:4.99509621"
       d="m -303.29479,204.62263 0,19.16369 -54.98602,0 0,-122.17673 300.590742,0"
       id="path5578" />
    <path
       inkscape:connector-curvature="0"
       data-ignore="true"
       id="Stroke-dark-blue-2"
       d="m 280.17372,254.83929 52.77383,0 0,-45.69441 31.53558,0 0,114.55782 65.00191,0 0,-107.47841"
       style="fill:none;fill-rule:evenodd;stroke:#99e9f6;stroke-width:4.99509621;stroke-linecap:butt;stroke-linejoin:miter;stroke-miterlimit:4;stroke-dasharray:none;stroke-opacity:1" />
    <path
       style="fill:none;fill-rule:evenodd;stroke:#077da1;stroke-width:4.99509621;stroke-linecap:butt;stroke-linejoin:miter;stroke-miterlimit:4;stroke-dasharray:none;stroke-opacity:1"
       d="m 280.17372,254.83929 52.77383,0 0,-45.69441 31.53558,0 0,114.55782 65.00191,0 0,-107.47841"
       id="path4446"
       inkscape:connector-curvature="0" />
    <path
       inkscape:connector-curvature="0"
       data-delay="200"
       id="path4436"
       d="m 281.48953,95.130469 213.88854,0 0,33.220991 86.92067,0 0,116.04594 -64.62165,0 0,-7.7364"
       style="fill:none;fill-rule:evenodd;stroke:#077da1;stroke-width:4.99509621;stroke-linecap:butt;stroke-linejoin:miter;stroke-miterlimit:4;stroke-dasharray:none;stroke-opacity:1" />
  </g>
</svg>
