<?xml version="1.0" encoding="UTF-8" standalone="no"?>
<svg width="1137px" height="332px" viewBox="0 0 1137 332" version="1.1" xmlns="http://www.w3.org/2000/svg" xmlns:xlink="http://www.w3.org/1999/xlink">
    <!-- Generator: sketchtool 40.3 (33839) - http://www.bohemiancoding.com/sketch -->
    <title>24A0E6F6-CF96-4EB6-9811-3E2882D128FF</title>
    <desc>Created with sketchtool.</desc>
    <defs>
        <polygon id="path-1" points="0 332 1136.339 332 1136.339 0 0 0"></polygon>
        <polygon id="path-3" points="0.497 0.954 0.497 11.609 4.492 21.597 3.826 31.919 15.146 42.241 36.456 42.241 47.776 31.919 47.11 21.597 51.106 11.609 51.106 0.954"></polygon>
        <polygon id="path-5" points="0.829 30.945 47.442 30.945 47.442 0.313 0.829 0.313"></polygon>
        <path d="M29.135,0.66 L14.469,0.66 L6.284,5.342 C3.096,7.166 0.666,11.627 0.868,15.299 L1.898,33.954 L7.16,33.954 L7.16,15.309 L35.795,18.639 L43.119,17.307 L47.115,9.316 L51.11,15.309 L51.11,33.954 L56.372,33.954 L57.402,15.299 C57.605,11.627 55.215,7.112 52.065,5.214 L44.499,0.66 L29.135,0.66 L29.135,0.66 Z" id="path-7"></path>
        <polygon id="path-9" points="0.802 0.954 3.465 11.609 20.778 11.609 22.11 0.954"></polygon>
        <polygon id="path-11" points="0.16 0.954 1.492 11.609 18.805 11.609 21.469 0.954"></polygon>
        <polygon id="path-13" points="0 332 1136.339 332 1136.339 0 0 0"></polygon>
        <path d="M23.275,0.201 L0.726,0.201 L0.726,13.089 C0.726,18.429 5.058,22.749 10.4,22.749 L36.149,22.749 C41.5,22.749 45.823,18.424 45.823,13.089 L45.823,0.201 L23.275,0.201 L23.275,0.201 Z" id="path-15"></path>
        <polygon id="path-17" points="0.726 24.201 45.823 24.201 45.823 0.041 0.726 0.041"></polygon>
        <path d="M0.823,11.759 C4.382,11.759 7.266,9.235 7.266,6.121 C7.266,3.008 4.382,0.484 0.823,0.484 L0.823,11.759 L0.823,11.759 Z" id="path-19"></path>
        <path d="M0.284,6.121 C0.284,9.235 3.168,11.759 6.726,11.759 L6.726,0.484 C3.168,0.484 0.284,3.008 0.284,6.121 L0.284,6.121 Z" id="path-21"></path>
        <path d="M0.726,0.988 L0.726,9.041 L61.93,9.041 L61.93,5.015 C61.93,2.775 60.132,0.988 57.914,0.988 L0.726,0.988 L0.726,0.988 Z" id="path-23"></path>
        <polygon id="path-25" points="0.446 8.548 22.934 8.548 22.934 0.516 0.446 0.516"></polygon>
        <path d="M0.201,0.749 L0.201,31.872 C0.201,37.21 4.521,41.516 9.85,41.516 L35.53,41.516 C40.866,41.516 45.178,37.198 45.178,31.872 L45.178,0.749 L0.201,0.749 L0.201,0.749 Z" id="path-27"></path>
        <polygon id="path-29" points="0 332 1136.339 332 1136.339 0 0 0"></polygon>
        <path d="M0.178,11.633 C3.727,11.633 6.603,9.117 6.603,6.012 C6.603,2.907 3.727,0.39 0.178,0.39 L0.178,11.633 L0.178,11.633 Z" id="path-31"></path>
        <path d="M0.776,6.012 C0.776,9.117 3.653,11.633 7.201,11.633 L7.201,0.39 C3.653,0.39 0.776,2.907 0.776,6.012 L0.776,6.012 Z" id="path-33"></path>
        <polygon id="path-35" points="0 332 1136.339 332 1136.339 0 0 0"></polygon>
        <polygon id="path-37" points="0.62 8.9 18.281 8.9 18.281 0.069 0.62 0.069"></polygon>
        <polygon id="path-39" points="0 332 1136.339 332 1136.339 0 0 0"></polygon>
        <polygon id="path-41" points="0.653 12.711 6.114 12.711 6.114 0.696 0.653 0.696"></polygon>
        <polygon id="path-43" points="0.174 12.711 5.635 12.711 5.635 0.696 0.174 0.696"></polygon>
        <path d="M6.671,0.774 C3.049,0.774 0.115,3.711 0.115,7.333 L0.115,33.536 C0.115,37.172 3.05,40.095 6.671,40.095 L41.617,40.095 C45.24,40.095 48.174,37.158 48.174,33.536 L48.174,7.333 C48.174,3.697 45.238,0.774 41.617,0.774 L6.671,0.774 L6.671,0.774 Z" id="path-45"></path>
        <path d="M1.483,0.605 C0.887,0.605 0.392,1.094 0.392,1.699 L0.392,12.616 C0.392,13.214 0.884,13.711 1.492,13.711 L13.276,13.711 L18.959,6.066 L18.959,1.706 C18.959,1.089 18.471,0.605 17.867,0.605 L1.483,0.605 L1.483,0.605 Z" id="path-47"></path>
        <polygon id="path-49" points="0 332 1136.339 332 1136.339 0 0 0"></polygon>
        <path d="M1.421,0.605 C0.818,0.605 0.329,1.089 0.329,1.706 L0.329,6.066 L6.012,13.711 L17.795,13.711 C18.404,13.711 18.897,13.214 18.897,12.616 L18.897,1.699 C18.897,1.094 18.4,0.605 17.804,0.605 L1.421,0.605 L1.421,0.605 Z" id="path-51"></path>
        <polygon id="path-53" points="0 332 1136.339 332 1136.339 0 0 0"></polygon>
        <path d="M0.498,7.711 C0.498,11.934 3.921,15.357 8.144,15.357 C12.367,15.357 15.79,11.934 15.79,7.711 C15.79,3.489 12.367,0.066 8.144,0.066 C3.921,0.066 0.498,3.489 0.498,7.711 L0.498,7.711 Z" id="path-55"></path>
        <path d="M23.134,0.759 C20.47,0.759 18.314,2.916 18.314,5.577 C18.314,6.632 18.654,7.61 19.233,8.405 L8.489,8.405 C4.254,8.405 0.838,11.828 0.838,16.051 L0.838,23.696 L4.115,23.696 L4.115,19.334 C4.115,15.712 7.049,12.774 10.671,12.774 L45.617,12.774 C49.238,12.774 52.174,15.702 52.174,19.334 L52.174,23.696 L55.451,23.696 L55.451,16.051 C55.451,11.837 52.025,8.405 47.799,8.405 L46.888,8.405 C47.465,7.611 47.804,6.634 47.804,5.577 C47.804,2.922 45.646,0.759 42.984,0.759 L23.134,0.759 L23.134,0.759 Z" id="path-57"></path>
    </defs>
    <g id="Page-1" stroke="none" stroke-width="1" fill="none" fill-rule="evenodd">
        <g id="Desktop-HD" transform="translate(-143.000000, -3057.000000)">
            <g id="How" transform="translate(136.000000, 2926.000000)">
                <g id="process" transform="translate(7.000000, 131.000000)">
                    <g id="Group-19">
                        <path d="M1107.2,179.7605 C1107.2,239.6115 1058.681,288.1295 998.831,288.1295 C938.98,288.1295 890.462,239.6115 890.462,179.7605 C890.462,119.9095 938.98,71.3915 998.831,71.3915 C1058.681,71.3915 1107.2,119.9095 1107.2,179.7605 L1107.2,179.7605 Z" id="Fill-1" fill="#C4E9F6"></path>
                        <mask id="mask-2" fill="white">
                            <use xlink:href="#path-1"></use>
                        </mask>
                        <g id="Clip-4"></g>
                        <polygon id="Fill-3" fill="#FFFFFF" mask="url(#mask-2)" points="932.185 259.796 967.854 259.796 967.854 159.893 932.185 159.893"></polygon>
                        <polygon id="Fill-5" fill="#46C0EF" mask="url(#mask-2)" points="949.7586 202.0157 949.7386 202.0157 929.2596 202.0157 937.2876 275.4317 946.9356 275.4317 946.9356 219.7377 949.7386 219.7377 949.7586 219.7377 952.5626 219.7377 952.5626 275.4317 962.2106 275.4317 970.2376 202.0157"></polygon>
                        <polygon id="Fill-6" fill="#9D772F" mask="url(#mask-2)" points="935.944 282.884 945.935 282.884 945.935 281.024 935.944 281.024"></polygon>
                        <polygon id="Fill-7" fill="#424242" mask="url(#mask-2)" points="937.2873 275.4313 935.9443 280.8443 945.9353 280.8443 945.9353 275.4313"></polygon>
                        <polygon id="Fill-8" fill="#9D772F" mask="url(#mask-2)" points="953.562 282.884 964.67 282.884 964.67 281.024 953.562 281.024"></polygon>
                        <polygon id="Fill-9" fill="#424242" mask="url(#mask-2)" points="962.2103 275.4313 964.6703 280.8443 953.5623 280.8443 953.5623 275.4313"></polygon>
                        <polygon id="Fill-10" fill="#9DC03B" mask="url(#mask-2)" points="929.269 196.402 970.228 196.402 970.228 179.5 929.269 179.5"></polygon>
                        <polyline id="Fill-11" fill="#46C0EF" mask="url(#mask-2)" points="970.2281 162.3656 970.2281 204.1926 929.2691 204.1926 929.2691 162.3656"></polyline>
                        <polygon id="Fill-12" fill="#FFFFFF" mask="url(#mask-2)" points="956.4949 158.4738 962.2549 261.8958 979.2129 261.8958 970.7999 168.5728"></polygon>
                        <polygon id="Fill-13" fill="#FFFFFF" mask="url(#mask-2)" points="943.5139 159.566 937.8149 261.896 920.8569 261.896 929.2699 168.573"></polygon>
                        <path d="M916.3478,195.7363 C915.6188,195.7363 914.9018,195.4983 914.3108,195.0463 C913.5008,194.4263 913.0168,193.4703 912.9978,192.4493 C912.5778,170.4743 930.4018,161.4073 931.1608,161.0323 C932.8208,160.2133 934.8288,160.8923 935.6498,162.5503 C936.4678,164.2063 935.7918,166.2113 934.1408,167.0343 C933.5688,167.3233 921.6718,173.4983 919.9088,188.0433 L933.2968,184.7003 C935.0918,184.2503 936.9098,185.3443 937.3588,187.1393 C937.8068,188.9343 936.7148,190.7533 934.9198,191.2013 L917.1588,195.6363 C916.8908,195.7033 916.6188,195.7363 916.3478,195.7363" id="Fill-14" fill="#FFFFFF" mask="url(#mask-2)"></path>
                        <path d="M959.7482,192.386 L940.8152,192.386 C939.1652,192.386 937.8152,191.036 937.8152,189.386 L937.8152,182.5 C937.8152,180.85 939.1652,179.5 940.8152,179.5 L959.7482,179.5 C961.3982,179.5 962.7482,180.85 962.7482,182.5 L962.7482,189.386 C962.7482,191.036 961.3982,192.386 959.7482,192.386" id="Fill-15" fill="#231F1F" mask="url(#mask-2)"></path>
                        <path d="M937.6069,191.2692 L936.7109,191.2692 C935.0609,191.2692 933.7109,189.9192 933.7109,188.2692 L933.7109,185.1622 C933.7109,183.5122 935.0609,182.1622 936.7109,182.1622 L937.6069,182.1622 C939.2569,182.1622 940.6069,183.5122 940.6069,185.1622 L940.6069,188.2692 C940.6069,189.9192 939.2569,191.2692 937.6069,191.2692" id="Fill-16" fill="#FCD0BE" mask="url(#mask-2)"></path>
                        <path d="M983.597,195.7363 C983.326,195.7363 983.054,195.7033 982.785,195.6363 L965.025,191.2013 C963.23,190.7533 962.138,188.9343 962.586,187.1393 C963.035,185.3433 964.854,184.2523 966.648,184.7003 L980.031,188.0423 C978.223,173.3473 965.949,167.1053 965.814,167.0393 C964.155,166.2193 963.475,164.2093 964.295,162.5503 C965.116,160.8923 967.125,160.2143 968.783,161.0323 C969.542,161.4073 987.367,170.4743 986.947,192.4493 C986.927,193.4703 986.444,194.4263 985.634,195.0463 C985.043,195.4983 984.326,195.7363 983.597,195.7363" id="Fill-17" fill="#FFFFFF" mask="url(#mask-2)"></path>
                        <path d="M962.3378,191.2692 L963.2338,191.2692 C964.8838,191.2692 966.2338,189.9192 966.2338,188.2692 L966.2338,185.1622 C966.2338,183.5122 964.8838,182.1622 963.2338,182.1622 L962.3378,182.1622 C960.6878,182.1622 959.3378,183.5122 959.3378,185.1622 L959.3378,188.2692 C959.3378,189.9192 960.6878,191.2692 962.3378,191.2692" id="Fill-18" fill="#FCD0BE" mask="url(#mask-2)"></path>
                    </g>
                    <g id="Group-22" transform="translate(924.000000, 124.000000)">
                        <mask id="mask-4" fill="white">
                            <use xlink:href="#path-3"></use>
                        </mask>
                        <g id="Clip-21"></g>
                        <polygon id="Fill-20" fill="#FCD0BE" mask="url(#mask-4)" points="-6.162 48.899 57.765 48.899 57.765 -5.705 -6.162 -5.705"></polygon>
                    </g>
                    <path d="M939.3629,165.682 L960.2389,165.682 L971.2019,155.687 L970.5529,145.634 C970.5479,145.551 970.5609,145.467 970.5919,145.39 L974.5469,135.501 L974.5469,125.513 L925.0549,125.513 L925.0549,135.501 L929.0109,145.39 C929.0419,145.467 929.0549,145.551 929.0499,145.634 L928.4009,155.687 L939.3629,165.682 Z M960.4559,166.799 L939.1469,166.799 C939.0069,166.799 938.8729,166.747 938.7709,166.653 L927.4499,156.332 C927.3249,156.217 927.2579,156.052 927.2689,155.883 L927.9269,145.688 L923.9779,135.816 C923.9519,135.75 923.9389,135.679 923.9389,135.609 L923.9389,124.954 C923.9389,124.646 924.1889,124.396 924.4969,124.396 L975.1049,124.396 C975.4139,124.396 975.6639,124.646 975.6639,124.954 L975.6639,135.609 C975.6639,135.679 975.6499,135.75 975.6239,135.816 L971.6759,145.688 L972.3329,155.883 C972.3439,156.052 972.2779,156.217 972.1519,156.332 L960.8319,166.653 C960.7289,166.747 960.5949,166.799 960.4559,166.799 L960.4559,166.799 Z" id="Fill-23" fill="#FCD0BE"></path>
                    <g id="Group-27" transform="translate(925.000000, 102.000000)">
                        <mask id="mask-6" fill="white">
                            <use xlink:href="#path-5"></use>
                        </mask>
                        <g id="Clip-26"></g>
                        <polygon id="Fill-25" fill="#FCD0BE" mask="url(#mask-6)" points="-5.83 37.605 54.101 37.605 54.101 -6.345 -5.83 -6.345"></polygon>
                    </g>
                    <polygon id="Fill-28" fill="#FF8556" points="942.649 153.539 942.525 152.429 955.622 150.974 955.745 152.084"></polygon>
                    <g id="Group-32" transform="translate(920.000000, 91.000000)">
                        <mask id="mask-8" fill="white">
                            <use xlink:href="#path-7"></use>
                        </mask>
                        <g id="Clip-31"></g>
                        <polygon id="Fill-30" fill="#F7A02E" mask="url(#mask-8)" points="-5.802 40.613 64.074 40.613 64.074 -6 -5.802 -6"></polygon>
                    </g>
                    <path d="M971.6686,124.3959 L975.8436,124.3959 L976.8446,106.2679 C977.0366,102.7869 974.7636,98.4919 971.7766,96.6929 L964.3446,92.2179 L934.6176,92.2179 L926.5606,96.8269 C923.5376,98.5559 921.2346,102.7919 921.4256,106.2679 L922.4266,124.3959 L926.6026,124.3959 L926.6026,106.3089 C926.6026,106.1499 926.6706,105.9979 926.7896,105.8919 C926.9076,105.7859 927.0666,105.7339 927.2256,105.7539 L955.7766,109.0739 L962.7446,107.8079 L966.6156,100.0659 C966.7046,99.8889 966.8816,99.7709 967.0796,99.7589 C967.2766,99.7519 967.4686,99.8409 967.5796,100.0059 L971.5746,105.9989 C971.6356,106.0909 971.6686,106.1989 971.6686,106.3089 L971.6686,124.3959 Z M976.3726,125.5129 L971.1106,125.5129 C970.8016,125.5129 970.5516,125.2629 970.5516,124.9539 L970.5516,106.4779 L967.1836,101.4259 L963.6186,108.5569 C963.5396,108.7139 963.3926,108.8249 963.2186,108.8559 L955.8946,110.1879 C955.8396,110.1979 955.7846,110.1999 955.7296,110.1929 L927.7186,106.9359 L927.7186,124.9539 C927.7186,125.2629 927.4686,125.5129 927.1606,125.5129 L921.8986,125.5129 C921.6016,125.5129 921.3566,125.2809 921.3406,124.9849 L920.3106,106.3289 C920.0986,102.4729 922.6536,97.7759 926.0066,95.8579 L934.1916,91.1739 C934.2766,91.1259 934.3716,91.1009 934.4696,91.1009 L964.4996,91.1009 C964.6006,91.1009 964.7006,91.1289 964.7876,91.1809 L972.3526,95.7369 C975.6576,97.7259 978.1726,102.4779 977.9596,106.3289 L976.9296,124.9849 C976.9136,125.2809 976.6686,125.5129 976.3726,125.5129 L976.3726,125.5129 Z" id="Fill-33" fill="#F7A02E"></path>
                    <g id="Group-37" transform="translate(949.000000, 124.000000)">
                        <mask id="mask-10" fill="white">
                            <use xlink:href="#path-9"></use>
                        </mask>
                        <g id="Clip-36"></g>
                        <polygon id="Fill-35" fill="#C4E9F6" mask="url(#mask-10)" points="-5.858 18.268 28.769 18.268 28.769 -5.705 -5.858 -5.705"></polygon>
                    </g>
                    <path d="M952.9009,135.0502 L969.2849,135.0502 L970.4779,125.5122 L950.5169,125.5122 L952.9009,135.0502 Z M969.7779,136.1672 L952.4649,136.1672 C952.2089,136.1672 951.9849,135.9922 951.9229,135.7442 L949.2599,125.0892 C949.2179,124.9222 949.2559,124.7462 949.3609,124.6112 C949.4669,124.4752 949.6289,124.3962 949.8009,124.3962 L971.1099,124.3962 C971.2699,124.3962 971.4229,124.4642 971.5289,124.5842 C971.6349,124.7052 971.6839,124.8652 971.6639,125.0232 L970.3319,135.6782 C970.2979,135.9572 970.0599,136.1672 969.7779,136.1672 L969.7779,136.1672 Z" id="Fill-38" fill="#231F1F"></path>
                    <g id="Group-42" transform="translate(927.000000, 124.000000)">
                        <mask id="mask-12" fill="white">
                            <use xlink:href="#path-11"></use>
                        </mask>
                        <g id="Clip-41"></g>
                        <polygon id="Fill-40" fill="#C4E9F6" mask="url(#mask-12)" points="-6.499 18.268 28.128 18.268 28.128 -5.705 -6.499 -5.705"></polygon>
                    </g>
                    <g id="Group-46" transform="translate(926.000000, 124.000000)">
                        <path d="M7.261,6.84 L16.369,6.84 L16.369,5.723 L7.261,5.723 L7.261,6.84 Z M29.902,6.84 L39.01,6.84 L39.01,5.723 L29.902,5.723 L29.902,6.84 Z M2.985,11.05 L19.37,11.05 L21.754,1.513 L1.793,1.513 L2.985,11.05 Z M19.806,12.167 L2.492,12.167 C2.211,12.167 1.973,11.957 1.938,11.678 L0.606,1.023 C0.587,0.865 0.636,0.704 0.742,0.585 C0.848,0.465 1,0.396 1.16,0.396 L22.469,0.396 C22.641,0.396 22.804,0.475 22.909,0.611 C23.015,0.746 23.053,0.923 23.011,1.089 L20.348,11.744 C20.285,11.992 20.062,12.167 19.806,12.167 L19.806,12.167 Z" id="Fill-43" fill="#231F1F"></path>
                        <polygon id="Fill-45" fill="#E1AC98" points="23.242 41.467 24.359 41.467 24.359 37.686 23.242 37.686"></polygon>
                    </g>
                    <g id="Group-61">
                        <polygon id="Fill-47" fill="#929497" points="224.4077 202.0157 224.3877 202.0157 203.9087 202.0157 211.9367 275.4317 220.5847 275.4317 220.5847 219.7377 224.3877 219.7377 224.4077 219.7377 228.2117 219.7377 228.2117 275.4317 236.8597 275.4317 244.8867 202.0157"></polygon>
                        <mask id="mask-14" fill="white">
                            <use xlink:href="#path-13"></use>
                        </mask>
                        <g id="Clip-50"></g>
                        <polygon id="Fill-49" fill="#9D772F" mask="url(#mask-14)" points="211.71 282.884 220.584 282.884 220.584 281.024 211.71 281.024"></polygon>
                        <polygon id="Fill-51" fill="#424242" mask="url(#mask-14)" points="211.9363 275.4313 211.7103 280.8443 220.5843 280.8443 220.5843 275.4313"></polygon>
                        <polygon id="Fill-52" fill="#9D772F" mask="url(#mask-14)" points="228.212 282.884 237.086 282.884 237.086 281.024 228.212 281.024"></polygon>
                        <polygon id="Fill-53" fill="#424242" mask="url(#mask-14)" points="236.8594 275.4313 237.0854 280.8443 228.2114 280.8443 228.2114 275.4313"></polygon>
                        <polygon id="Fill-54" fill="#9DC03B" mask="url(#mask-14)" points="203.918 196.402 244.877 196.402 244.877 179.5 203.918 179.5"></polygon>
                        <polyline id="Fill-55" fill="#2E368E" mask="url(#mask-14)" points="244.8772 162.3656 244.8772 204.1926 203.9182 204.1926 203.9182 162.3656"></polyline>
                        <path d="M190.9965,195.7365 C190.2675,195.7365 189.5505,195.4985 188.9595,195.0465 C188.1495,194.4265 187.6665,193.4705 187.6465,192.4495 C187.2265,170.4745 205.0515,161.4075 205.8105,161.0315 C207.4685,160.2125 209.4785,160.8915 210.2985,162.5505 C211.1165,164.2055 210.4415,166.2105 208.7895,167.0345 C208.2175,167.3215 196.3205,173.4985 194.5575,188.0435 L207.9455,184.6995 C209.7395,184.2495 211.5595,185.3435 212.0075,187.1385 C212.4555,188.9335 211.3645,190.7525 209.5685,191.2015 L191.8085,195.6365 C191.5405,195.7035 191.2675,195.7365 190.9965,195.7365" id="Fill-56" fill="#2E368E" mask="url(#mask-14)"></path>
                        <path d="M234.3973,192.386 L215.4643,192.386 C213.8143,192.386 212.4643,191.036 212.4643,189.386 L212.4643,182.5 C212.4643,180.85 213.8143,179.5 215.4643,179.5 L234.3973,179.5 C236.0473,179.5 237.3973,180.85 237.3973,182.5 L237.3973,189.386 C237.3973,191.036 236.0473,192.386 234.3973,192.386" id="Fill-57" fill="#231F1F" mask="url(#mask-14)"></path>
                        <path d="M212.256,191.2692 L211.36,191.2692 C209.71,191.2692 208.36,189.9192 208.36,188.2692 L208.36,185.1622 C208.36,183.5122 209.71,182.1622 211.36,182.1622 L212.256,182.1622 C213.906,182.1622 215.256,183.5122 215.256,185.1622 L215.256,188.2692 C215.256,189.9192 213.906,191.2692 212.256,191.2692" id="Fill-58" fill="#FCD0BE" mask="url(#mask-14)"></path>
                        <path d="M258.2463,195.7365 C257.9753,195.7365 257.7033,195.7035 257.4343,195.6365 L239.6743,191.2015 C237.8783,190.7525 236.7873,188.9335 237.2353,187.1385 C237.6833,185.3435 239.5033,184.2505 241.2973,184.6995 L254.6853,188.0435 C252.9203,173.4855 241.0043,167.3115 240.4513,167.0335 C238.8033,166.2025 238.1313,164.1935 238.9553,162.5425 C239.7793,160.8915 241.7773,160.2135 243.4323,161.0315 C244.1913,161.4075 262.0163,170.4745 261.5963,192.4495 C261.5763,193.4705 261.0933,194.4265 260.2833,195.0465 C259.6923,195.4985 258.9753,195.7365 258.2463,195.7365" id="Fill-59" fill="#2E368E" mask="url(#mask-14)"></path>
                        <path d="M236.9868,191.2692 L237.8828,191.2692 C239.5328,191.2692 240.8828,189.9192 240.8828,188.2692 L240.8828,185.1622 C240.8828,183.5122 239.5328,182.1622 237.8828,182.1622 L236.9868,182.1622 C235.3368,182.1622 233.9868,183.5122 233.9868,185.1622 L233.9868,188.2692 C233.9868,189.9192 235.3368,191.2692 236.9868,191.2692" id="Fill-60" fill="#FCD0BE" mask="url(#mask-14)"></path>
                    </g>
                    <g id="Group-64" transform="translate(201.000000, 141.000000)">
                        <mask id="mask-16" fill="white">
                            <use xlink:href="#path-15"></use>
                        </mask>
                        <g id="Clip-63"></g>
                        <polygon id="Fill-62" fill="#88714D" mask="url(#mask-16)" points="-7.327 30.803 53.877 30.803 53.877 -7.852 -7.327 -7.852"></polygon>
                    </g>
                    <path d="M202.2845,141.7593 L202.2845,154.0893 C202.2845,159.1083 206.3735,163.1913 211.4005,163.1913 L237.1495,163.1913 C242.1755,163.1913 246.2655,159.1083 246.2655,154.0893 L246.2655,141.7593 L202.2845,141.7593 Z M237.1495,164.3083 L211.4005,164.3083 C205.7585,164.3083 201.1675,159.7233 201.1675,154.0893 L201.1675,141.2013 C201.1675,140.8923 201.4175,140.6423 201.7265,140.6423 L246.8235,140.6423 C247.1325,140.6423 247.3825,140.8923 247.3825,141.2013 L247.3825,154.0893 C247.3825,159.7233 242.7915,164.3083 237.1495,164.3083 L237.1495,164.3083 Z" id="Fill-65" fill="#88714D"></path>
                    <g id="Group-69" transform="translate(201.000000, 117.000000)">
                        <mask id="mask-18" fill="white">
                            <use xlink:href="#path-17"></use>
                        </mask>
                        <g id="Clip-68"></g>
                        <polygon id="Fill-67" fill="#FCD0BE" mask="url(#mask-18)" points="-7.327 32.254 53.877 32.254 53.877 -8.012 -7.327 -8.012"></polygon>
                    </g>
                    <g id="Group-74" transform="translate(201.000000, 116.000000)">
                        <path d="M1.284,24.643 L45.265,24.643 L45.265,1.6 L1.284,1.6 L1.284,24.643 Z M45.824,25.759 L0.726,25.759 C0.418,25.759 0.168,25.51 0.168,25.201 L0.168,1.041 C0.168,0.733 0.418,0.483 0.726,0.483 L45.824,0.483 C46.132,0.483 46.382,0.733 46.382,1.041 L46.382,25.201 C46.382,25.51 46.132,25.759 45.824,25.759 L45.824,25.759 Z" id="Fill-70" fill="#FCD0BE"></path>
                        <polygon id="Fill-72" fill="#FF88AB" points="19.495 32.202 27.054 32.202 27.054 31.085 19.495 31.085"></polygon>
                        <path d="M12.0004,15.0434 C12.8904,15.0434 13.6114,14.3224 13.6114,13.4324 C13.6114,12.5434 12.8904,11.8224 12.0004,11.8224 C11.1104,11.8224 10.3894,12.5434 10.3894,13.4324 C10.3894,14.3224 11.1104,15.0434 12.0004,15.0434" id="Fill-73" fill="#446581"></path>
                    </g>
                    <g id="Group-77" transform="translate(246.000000, 123.000000)">
                        <mask id="mask-20" fill="white">
                            <use xlink:href="#path-19"></use>
                        </mask>
                        <g id="Clip-76"></g>
                        <polygon id="Fill-75" fill="#FCD0BE" mask="url(#mask-20)" points="-7.23 19.812 15.319 19.812 15.319 -7.569 -7.23 -7.569"></polygon>
                    </g>
                    <path d="M246.8237,135.317 L246.2657,135.317 L246.2657,134.2 L246.8237,134.2 C250.0677,134.2 252.7077,131.922 252.7077,129.121 C252.7077,126.321 250.0677,124.043 246.8237,124.043 L246.2657,124.043 L246.2657,122.926 L246.8237,122.926 C250.6837,122.926 253.8247,125.705 253.8247,129.121 C253.8247,132.538 250.6837,135.317 246.8237,135.317" id="Fill-78" fill="#FCD0BE"></path>
                    <g id="Group-82" transform="translate(195.000000, 123.000000)">
                        <mask id="mask-22" fill="white">
                            <use xlink:href="#path-21"></use>
                        </mask>
                        <g id="Clip-81"></g>
                        <polygon id="Fill-80" fill="#FCD0BE" mask="url(#mask-22)" points="-7.77 19.812 14.779 19.812 14.779 -7.569 -7.77 -7.569"></polygon>
                    </g>
                    <g id="Group-87" transform="translate(194.000000, 122.000000)">
                        <path d="M8.2845,13.317 L7.7265,13.317 C3.8655,13.317 0.7255,10.538 0.7255,7.121 C0.7255,3.705 3.8655,0.926 7.7265,0.926 L8.2845,0.926 L8.2845,2.043 L7.7265,2.043 C4.4815,2.043 1.8415,4.321 1.8415,7.121 C1.8415,9.922 4.4815,12.2 7.7265,12.2 L8.2845,12.2 L8.2845,13.317 Z" id="Fill-83" fill="#FCD0BE"></path>
                        <path d="M41.5491,9.0434 C42.4391,9.0434 43.1601,8.3224 43.1601,7.4324 C43.1601,6.5434 42.4391,5.8224 41.5491,5.8224 C40.6591,5.8224 39.9381,6.5434 39.9381,7.4324 C39.9381,8.3224 40.6591,9.0434 41.5491,9.0434" id="Fill-85" fill="#446581"></path>
                    </g>
                    <g id="Group-90" transform="translate(201.000000, 108.000000)">
                        <mask id="mask-24" fill="white">
                            <use xlink:href="#path-23"></use>
                        </mask>
                        <g id="Clip-89"></g>
                        <polygon id="Fill-88" fill="#2E368E" mask="url(#mask-24)" points="-7.327 17.094 69.983 17.094 69.983 -7.065 -7.327 -7.065"></polygon>
                    </g>
                    <path d="M243.8236,115.3182 L204.6846,115.3182 C203.0346,115.3182 201.6846,113.9682 201.6846,112.3182 L201.6846,102.2602 C201.6846,100.6102 203.0346,99.2602 204.6846,99.2602 L243.8236,99.2602 C245.4736,99.2602 246.8236,100.6102 246.8236,102.2602 L246.8236,112.3182 C246.8236,113.9682 245.4736,115.3182 243.8236,115.3182" id="Fill-91" fill="#2E368E"></path>
                    <g id="Group-95" transform="translate(58.000000, 140.000000)">
                        <mask id="mask-26" fill="white">
                            <use xlink:href="#path-25"></use>
                        </mask>
                        <g id="Clip-94"></g>
                        <polygon id="Fill-93" fill="#88714D" mask="url(#mask-26)" points="-7.586 16.579 30.965 16.579 30.965 -7.516 -7.586 -7.516"></polygon>
                    </g>
                    <path d="M80.9342,149.1058 L58.4462,149.1058 C58.1372,149.1058 57.8872,148.8558 57.8872,148.5478 L57.8872,139.9568 L59.0042,139.9568 L59.0042,147.9888 L80.3762,147.9888 L80.3762,139.9568 L81.4922,139.9568 L81.4922,148.5478 C81.4922,148.8558 81.2422,149.1058 80.9342,149.1058" id="Fill-96" fill="#88714D"></path>
                    <g id="Group-100" transform="translate(47.000000, 99.000000)">
                        <mask id="mask-28" fill="white">
                            <use xlink:href="#path-27"></use>
                        </mask>
                        <g id="Clip-99"></g>
                        <polygon id="Fill-98" fill="#A28458" mask="url(#mask-28)" points="-7.83 49.547 53.21 49.547 53.21 -7.283 -7.83 -7.283"></polygon>
                    </g>
                    <g id="Group-106">
                        <path d="M47.7599,100.3069 L47.7599,130.8719 C47.7599,135.8819 51.8379,139.9569 56.8499,139.9569 L82.5299,139.9569 C87.5419,139.9569 91.6199,135.8819 91.6199,130.8719 L91.6199,100.3069 L47.7599,100.3069 L47.7599,100.3069 Z M82.5299,141.0739 L56.8499,141.0739 C51.2219,141.0739 46.6429,136.4969 46.6429,130.8719 L46.6429,99.7489 C46.6429,99.4399 46.8929,99.1899 47.2019,99.1899 L92.1779,99.1899 C92.4869,99.1899 92.7369,99.4399 92.7369,99.7489 L92.7369,130.8719 C92.7369,136.4969 88.1579,141.0739 82.5299,141.0739 L82.5299,141.0739 Z" id="Fill-101" fill="#A28458"></path>
                        <mask id="mask-30" fill="white">
                            <use xlink:href="#path-29"></use>
                        </mask>
                        <g id="Clip-104"></g>
                        <polygon id="Fill-103" fill="#FFAC8D" mask="url(#mask-30)" points="65.919 131.436 73.461 131.436 73.461 130.319 65.919 130.319"></polygon>
                        <path d="M58.4457,114.8148 C59.3327,114.8148 60.0517,114.0958 60.0517,113.2088 C60.0517,112.3218 59.3327,111.6018 58.4457,111.6018 C57.5587,111.6018 56.8397,112.3218 56.8397,113.2088 C56.8397,114.0958 57.5587,114.8148 58.4457,114.8148" id="Fill-105" fill="#2F4555" mask="url(#mask-30)"></path>
                    </g>
                    <g id="Group-109" transform="translate(92.000000, 108.000000)">
                        <mask id="mask-32" fill="white">
                            <use xlink:href="#path-31"></use>
                        </mask>
                        <g id="Clip-108"></g>
                        <polygon id="Fill-107" fill="#A28458" mask="url(#mask-32)" points="-7.853 19.665 14.635 19.665 14.635 -7.642 -7.853 -7.642"></polygon>
                    </g>
                    <path d="M92.1783,120.1923 L91.6203,120.1923 L91.6203,119.0753 L92.1783,119.0753 C95.4133,119.0753 98.0453,116.8033 98.0453,114.0113 C98.0453,111.2193 95.4133,108.9483 92.1783,108.9483 L91.6203,108.9483 L91.6203,107.8313 L92.1783,107.8313 C96.0293,107.8313 99.1623,110.6033 99.1623,114.0113 C99.1623,117.4203 96.0293,120.1923 92.1783,120.1923" id="Fill-110" fill="#A28458"></path>
                    <g id="Group-114" transform="translate(40.000000, 108.000000)">
                        <mask id="mask-34" fill="white">
                            <use xlink:href="#path-33"></use>
                        </mask>
                        <g id="Clip-113"></g>
                        <polygon id="Fill-112" fill="#A28458" mask="url(#mask-34)" points="-7.255 19.665 15.233 19.665 15.233 -7.642 -7.255 -7.642"></polygon>
                    </g>
                    <g id="Group-141">
                        <path d="M47.7599,120.1923 L47.2019,120.1923 C43.3509,120.1923 40.2179,117.4203 40.2179,114.0113 C40.2179,110.6033 43.3509,107.8313 47.2019,107.8313 L47.7599,107.8313 L47.7599,108.9483 L47.2019,108.9483 C43.9669,108.9483 41.3349,111.2193 41.3349,114.0113 C41.3349,116.8033 43.9669,119.0753 47.2019,119.0753 L47.7599,119.0753 L47.7599,120.1923 L47.7599,120.1923 Z" id="Fill-115" fill="#A28458"></path>
                        <path id="Stroke-117" stroke="#C4DFED" stroke-width="2" stroke-linecap="square" stroke-linejoin="round"></path>
                        <path d="M80.9341,114.8148 C81.8211,114.8148 82.5401,114.0958 82.5401,113.2088 C82.5401,112.3218 81.8211,111.6018 80.9341,111.6018 C80.0471,111.6018 79.3281,112.3218 79.3281,113.2088 C79.3281,114.0958 80.0471,114.8148 80.9341,114.8148" id="Fill-119" fill="#2F4555"></path>
                        <mask id="mask-36" fill="white">
                            <use xlink:href="#path-35"></use>
                        </mask>
                        <g id="Clip-122"></g>
                        <polygon id="Fill-121" fill="#2F4555" mask="url(#mask-36)" points="46.305 103.135 93.075 103.135 93.075 88.16 46.305 88.16"></polygon>
                        <polygon id="Fill-123" fill="#2E368E" mask="url(#mask-36)" points="69.0583 190.0563 69.0383 190.0563 48.5593 190.0563 56.5873 274.3713 65.2353 274.3713 65.2353 210.4093 69.0383 210.4093 69.0583 210.4093 72.8623 210.4093 72.8623 274.3713 81.5103 274.3713 89.5373 190.0563"></polygon>
                        <polygon id="Fill-124" fill="#9D772F" mask="url(#mask-36)" points="56.335 282.884 65.209 282.884 65.209 281.024 56.335 281.024"></polygon>
                        <polygon id="Fill-125" fill="#424242" mask="url(#mask-36)" points="56.5869 274.3709 56.3609 280.5869 65.2349 280.5869 65.2349 274.3709"></polygon>
                        <polygon id="Fill-126" fill="#9D772F" mask="url(#mask-36)" points="72.837 282.884 81.711 282.884 81.711 281.024 72.837 281.024"></polygon>
                        <polygon id="Fill-127" fill="#424242" mask="url(#mask-36)" points="81.51 274.3709 81.736 280.5869 72.862 280.5869 72.862 274.3709"></polygon>
                        <polygon id="Fill-128" fill="#9DC03B" mask="url(#mask-36)" points="48.569 183.609 89.528 183.609 89.528 164.198 48.569 164.198"></polygon>
                        <polyline id="Fill-129" fill="#46C0EF" mask="url(#mask-36)" points="89.5278 144.5199 89.5278 192.5569 48.5688 192.5569 48.5688 144.5199"></polyline>
                        <path d="M35.6474,182.8447 C34.9184,182.8447 34.2014,182.5717 33.6104,182.0517 C32.8004,181.3397 32.3174,180.2417 32.2974,179.0697 C31.8774,153.8327 49.7014,143.4197 50.4604,142.9887 C52.1194,142.0487 54.1294,142.8277 54.9494,144.7327 C55.7674,146.6347 55.0914,148.9377 53.4384,149.8827 C52.8464,150.2267 40.9694,157.3207 39.2084,174.0097 L52.5964,170.1707 C54.3904,169.6527 56.2094,170.9097 56.6584,172.9707 C57.1064,175.0337 56.0144,177.1217 54.2194,177.6367 L36.4584,182.7297 C36.1904,182.8067 35.9184,182.8447 35.6474,182.8447" id="Fill-130" fill="#46C0EF" mask="url(#mask-36)"></path>
                        <path d="M79.0479,178.9971 L60.1149,178.9971 C58.4649,178.9971 57.1149,177.6471 57.1149,175.9971 L57.1149,167.1971 C57.1149,165.5471 58.4649,164.1971 60.1149,164.1971 L79.0479,164.1971 C80.6979,164.1971 82.0479,165.5471 82.0479,167.1971 L82.0479,175.9971 C82.0479,177.6471 80.6979,178.9971 79.0479,178.9971" id="Fill-131" fill="#231F1F" mask="url(#mask-36)"></path>
                        <path d="M56.9066,177.7145 L56.0106,177.7145 C54.3606,177.7145 53.0106,176.3645 53.0106,174.7145 L53.0106,170.2555 C53.0106,168.6055 54.3606,167.2555 56.0106,167.2555 L56.9066,167.2555 C58.5566,167.2555 59.9066,168.6055 59.9066,170.2555 L59.9066,174.7145 C59.9066,176.3645 58.5566,177.7145 56.9066,177.7145" id="Fill-132" fill="#FCD0BE" mask="url(#mask-36)"></path>
                        <path d="M102.8967,182.8447 C102.6257,182.8447 102.3537,182.8067 102.0857,182.7297 L84.3247,177.6367 C82.5297,177.1217 81.4377,175.0337 81.8857,172.9707 C82.3347,170.9097 84.1527,169.6557 85.9477,170.1707 L99.3307,174.0087 C97.5227,157.1317 85.2487,149.9637 85.1137,149.8877 C83.4547,148.9457 82.7747,146.6377 83.5947,144.7327 C84.4147,142.8277 86.4237,142.0487 88.0827,142.9887 C88.8417,143.4197 106.6667,153.8327 106.2467,179.0697 C106.2267,180.2417 105.7437,181.3397 104.9337,182.0517 C104.3427,182.5707 103.6257,182.8447 102.8967,182.8447" id="Fill-133" fill="#46C0EF" mask="url(#mask-36)"></path>
                        <path d="M81.6374,177.7145 L82.5334,177.7145 C84.1834,177.7145 85.5334,176.3645 85.5334,174.7145 L85.5334,170.2555 C85.5334,168.6055 84.1834,167.2555 82.5334,167.2555 L81.6374,167.2555 C79.9874,167.2555 78.6374,168.6055 78.6374,170.2555 L78.6374,174.7145 C78.6374,176.3645 79.9874,177.7145 81.6374,177.7145" id="Fill-134" fill="#FCD0BE" mask="url(#mask-36)"></path>
                        <polyline id="Fill-135" fill="#FFF100" mask="url(#mask-36)" points="125.2829 142.6432 113.0109 164.3042 135.0869 164.3042"></polyline>
                        <path d="M135.0873,164.8621 L113.0113,164.8621 C112.8123,164.8621 112.6283,164.7561 112.5293,164.5851 C112.4283,164.4131 112.4273,164.2011 112.5253,164.0281 L124.7973,142.3681 C124.9493,142.1001 125.2903,142.0061 125.5583,142.1571 C125.8263,142.3101 125.9203,142.6501 125.7683,142.9191 L113.9693,163.7451 L135.0873,163.7451 C135.3953,163.7451 135.6453,163.9951 135.6453,164.3041 C135.6453,164.6121 135.3953,164.8621 135.0873,164.8621" id="Fill-136" fill="#FFF100" mask="url(#mask-36)"></path>
                        <polyline id="Fill-137" fill="#FFF100" mask="url(#mask-36)" points="169.0588 141.5264 181.8888 164.3044 159.8128 164.3044"></polyline>
                        <path d="M181.889,164.8621 L159.813,164.8621 C159.504,164.8621 159.254,164.6121 159.254,164.3041 C159.254,163.9951 159.504,163.7451 159.813,163.7451 L180.934,163.7451 L168.572,141.8011 C168.421,141.5321 168.516,141.1911 168.785,141.0401 C169.054,140.8881 169.394,140.9841 169.545,141.2521 L182.375,164.0291 C182.473,164.2031 182.471,164.4141 182.371,164.5861 C182.271,164.7571 182.088,164.8621 181.889,164.8621" id="Fill-138" fill="#FFF100" mask="url(#mask-36)"></path>
                        <path d="M170.3393,130.4401 C170.3393,140.7361 160.0753,149.0821 147.4153,149.0821 C134.7543,149.0821 124.4903,140.7361 124.4903,130.4401 C124.4903,120.1441 134.7543,111.7981 147.4153,111.7981 C160.0753,111.7981 170.3393,120.1441 170.3393,130.4401" id="Fill-139" fill="#FFF100" mask="url(#mask-36)"></path>
                        <path d="M147.4151,112.3567 C135.0821,112.3567 125.0491,120.4687 125.0491,130.4407 C125.0491,140.4117 135.0821,148.5237 147.4151,148.5237 C159.7481,148.5237 169.7811,140.4117 169.7811,130.4407 C169.7811,120.4687 159.7481,112.3567 147.4151,112.3567 M147.4151,149.6407 C134.4671,149.6407 123.9321,141.0267 123.9321,130.4407 C123.9321,119.8527 134.4671,111.2397 147.4151,111.2397 C160.3631,111.2397 170.8971,119.8527 170.8971,130.4407 C170.8971,141.0267 160.3631,149.6407 147.4151,149.6407" id="Fill-140" fill="#FFF100" mask="url(#mask-36)"></path>
                    </g>
                    <g id="Group-144" transform="translate(138.000000, 166.000000)">
                        <mask id="mask-38" fill="white">
                            <use xlink:href="#path-37"></use>
                        </mask>
                        <g id="Clip-143"></g>
                        <polygon id="Fill-142" fill="#E1AC98" mask="url(#mask-38)" points="-8.211 17.731 27.111 17.731 27.111 -8.76 -8.211 -8.76"></polygon>
                    </g>
                    <g id="Group-186">
                        <path d="M124.4908,128.9819 L170.4098,128.9819 L170.4098,147.5259 C170.4098,157.7679 162.0938,167.7449 151.8648,167.7449 L143.0358,167.7449 C132.7938,167.7449 124.4908,157.7699 124.4908,147.5259 L124.4908,128.9819 L124.4908,128.9819 Z" id="Fill-145" fill="#FCD0BE"></path>
                        <path d="M147.45,157.7981 C144.221,157.7981 141.593,155.1711 141.593,151.9411 L141.593,151.3831 L142.71,151.3831 L142.71,151.9411 C142.71,154.5551 144.836,156.6811 147.45,156.6811 C150.064,156.6811 152.19,154.5551 152.19,151.9411 L152.19,151.3831 L153.307,151.3831 L153.307,151.9411 C153.307,155.1711 150.679,157.7981 147.45,157.7981" id="Fill-147" fill="#FF88AB"></path>
                        <path d="M135.0873,140.6045 C136.0623,140.6045 136.8533,139.8135 136.8533,138.8385 C136.8533,137.8625 136.0623,137.0725 135.0873,137.0725 C134.1123,137.0725 133.3213,137.8625 133.3213,138.8385 C133.3213,139.8135 134.1123,140.6045 135.0873,140.6045" id="Fill-149" fill="#2F4555"></path>
                        <path d="M170.4093,143.1107 C174.3113,143.1107 177.4733,140.3427 177.4733,136.9297 C177.4733,133.5157 174.3113,130.7477 170.4093,130.7477" id="Fill-151" fill="#FCD0BE"></path>
                        <path d="M124.4908,143.1107 C120.5888,143.1107 117.4268,140.3427 117.4268,136.9297 C117.4268,133.5157 120.5888,130.7477 124.4908,130.7477" id="Fill-153" fill="#FCD0BE"></path>
                        <path d="M159.8127,140.6045 C160.7877,140.6045 161.5787,139.8135 161.5787,138.8385 C161.5787,137.8625 160.7877,137.0725 159.8127,137.0725 C158.8377,137.0725 158.0467,137.8625 158.0467,138.8385 C158.0467,139.8135 158.8377,140.6045 159.8127,140.6045" id="Fill-155" fill="#2F4555"></path>
                        <polygon id="Fill-157" fill="#FCD0BE" points="147.6952 207.797 147.6772 207.797 128.6622 207.797 136.1152 275.964 141.9112 275.964 141.9112 224.252 147.6772 224.252 147.6952 224.252 153.4602 224.252 153.4602 275.964 159.2572 275.964 166.7102 207.797"></polygon>
                        <mask id="mask-40" fill="white">
                            <use xlink:href="#path-39"></use>
                        </mask>
                        <g id="Clip-160"></g>
                        <polygon id="Fill-159" fill="#231F1F" mask="url(#mask-40)" points="131.997 282.884 143.029 282.884 143.029 281.157 131.997 281.157"></polygon>
                        <polygon id="Fill-161" fill="#231F1F" mask="url(#mask-40)" points="134.9986 275.9641 131.9966 280.9901 143.0286 280.9901 143.0286 275.9641"></polygon>
                        <polygon id="Fill-162" fill="#231F1F" mask="url(#mask-40)" points="152.344 282.884 162.817 282.884 162.817 281.157 152.344 281.157"></polygon>
                        <polygon id="Fill-163" fill="#231F1F" mask="url(#mask-40)" points="160.3735 275.9641 162.8175 280.9901 152.3435 280.9901 152.3435 275.9641"></polygon>
                        <polyline id="Fill-164" fill="#D0D2D3" mask="url(#mask-40)" points="166.7013 168.7379 166.7013 209.8189 128.6713 209.8189 128.6713 168.7379"></polyline>
                        <path d="M114.6329,201.4929 C113.9039,201.4929 113.1869,201.2549 112.5959,200.8029 C111.7859,200.1829 111.3029,199.2269 111.2829,198.2059 C110.8589,176.0309 128.9339,168.6529 129.7039,168.3499 C131.4239,167.6709 133.3699,168.5169 134.0489,170.2389 C134.7249,171.9559 133.8849,173.8959 132.1719,174.5789 C131.6089,174.8079 119.9669,179.6999 118.1999,193.7979 L131.5819,190.4559 C133.3759,190.0069 135.1959,191.0999 135.6439,192.8949 C136.0919,194.6899 135.0009,196.5089 133.2049,196.9579 L115.4449,201.3929 C115.1769,201.4599 114.9039,201.4929 114.6329,201.4929" id="Fill-165" fill="#D0D2D3" mask="url(#mask-40)"></path>
                        <path d="M158.0335,198.1423 L139.1005,198.1423 C137.4505,198.1423 136.1005,196.7923 136.1005,195.1423 L136.1005,188.2563 C136.1005,186.6063 137.4505,185.2563 139.1005,185.2563 L158.0335,185.2563 C159.6835,185.2563 161.0335,186.6063 161.0335,188.2563 L161.0335,195.1423 C161.0335,196.7923 159.6835,198.1423 158.0335,198.1423" id="Fill-166" fill="#231F1F" mask="url(#mask-40)"></path>
                        <path d="M135.8922,197.0255 L134.9962,197.0255 C133.3462,197.0255 131.9962,195.6755 131.9962,194.0255 L131.9962,190.9185 C131.9962,189.2685 133.3462,187.9185 134.9962,187.9185 L135.8922,187.9185 C137.5422,187.9185 138.8922,189.2685 138.8922,190.9185 L138.8922,194.0255 C138.8922,195.6755 137.5422,197.0255 135.8922,197.0255" id="Fill-167" fill="#FCD0BE" mask="url(#mask-40)"></path>
                        <path d="M181.8824,201.4929 C181.6114,201.4929 181.3394,201.4599 181.0704,201.3929 L163.3104,196.9579 C161.5144,196.5089 160.4234,194.6899 160.8714,192.8949 C161.3194,191.0999 163.1394,190.0069 164.9334,190.4559 L178.3104,193.7979 C176.5014,179.5399 164.4884,174.6359 164.3554,174.5839 C162.6344,173.9059 161.7884,171.9609 162.4664,170.2389 C163.1444,168.5169 165.0914,167.6699 166.8114,168.3499 C167.5814,168.6529 185.6564,176.0309 185.2324,198.2059 C185.2124,199.2269 184.7294,200.1829 183.9194,200.8029 C183.3284,201.2549 182.6114,201.4929 181.8824,201.4929" id="Fill-168" fill="#D0D2D3" mask="url(#mask-40)"></path>
                        <path d="M160.623,197.0255 L161.519,197.0255 C163.169,197.0255 164.519,195.6755 164.519,194.0255 L164.519,190.9185 C164.519,189.2685 163.169,187.9185 161.519,187.9185 L160.623,187.9185 C158.973,187.9185 157.623,189.2685 157.623,190.9185 L157.623,194.0255 C157.623,195.6755 158.973,197.0255 160.623,197.0255" id="Fill-169" fill="#FCD0BE" mask="url(#mask-40)"></path>
                        <polygon id="Fill-170" fill="#EB078B" mask="url(#mask-40)" points="128.6708 209.8188 120.6378 257.8518 175.9558 257.8518 166.7008 209.8188"></polygon>
                        <polygon id="Fill-171" fill="#FFFFFF" mask="url(#mask-40)" points="1036.798 259.796 1072.467 259.796 1072.467 191.421 1036.798 191.421"></polygon>
                        <polygon id="Fill-172" fill="#46C0EF" mask="url(#mask-40)" points="1054.3719 233.5434 1054.3519 233.5434 1033.8729 233.5434 1041.9009 275.4314 1050.5489 275.4314 1050.5489 246.0694 1054.3519 246.0374 1054.3719 246.0374 1058.1759 246.0694 1058.1759 275.4314 1066.8239 275.4314 1074.8509 233.5434"></polygon>
                        <polygon id="Fill-173" fill="#9D772F" mask="url(#mask-40)" points="1040.557 282.884 1050.548 282.884 1050.548 281.024 1040.557 281.024"></polygon>
                        <polygon id="Fill-174" fill="#424242" mask="url(#mask-40)" points="1041.9006 275.4313 1040.5576 280.8443 1050.5486 280.8443 1050.5486 275.4313"></polygon>
                        <polygon id="Fill-175" fill="#9D772F" mask="url(#mask-40)" points="1058.176 282.884 1069.284 282.884 1069.284 281.024 1058.176 281.024"></polygon>
                        <polygon id="Fill-176" fill="#424242" mask="url(#mask-40)" points="1066.8236 275.4313 1069.2836 280.8443 1058.1756 280.8443 1058.1756 275.4313"></polygon>
                        <polygon id="Fill-177" fill="#9DC03B" mask="url(#mask-40)" points="1033.882 227.93 1074.841 227.93 1074.841 211.028 1033.882 211.028"></polygon>
                        <polyline id="Fill-178" fill="#46C0EF" mask="url(#mask-40)" points="1070.8376 193.8934 1070.8376 235.7204 1038.3236 235.7204 1038.3236 193.8934"></polyline>
                        <polygon id="Fill-179" fill="#FFFFFF" mask="url(#mask-40)" points="1061.1083 190.0016 1066.8683 261.8956 1083.8263 261.8956 1072.4673 191.4206"></polygon>
                        <polygon id="Fill-180" fill="#FFFFFF" mask="url(#mask-40)" points="1048.1272 191.0938 1042.4282 261.8958 1025.4702 261.8958 1036.7982 191.4208"></polygon>
                        <path d="M1020.961,227.2642 C1020.232,227.2642 1019.515,227.0262 1018.924,226.5742 C1018.114,225.9542 1017.631,224.9982 1017.611,223.9772 C1017.191,202.0022 1035.016,192.9352 1035.775,192.5602 C1037.434,191.7412 1039.443,192.4202 1040.263,194.0782 C1041.081,195.7342 1040.406,197.7382 1038.755,198.5622 C1038.198,198.8422 1026.286,205.0162 1024.522,219.5712 L1037.91,216.2282 C1039.704,215.7772 1041.523,216.8712 1041.972,218.6672 C1042.42,220.4622 1041.328,222.2812 1039.533,222.7292 L1021.772,227.1642 C1021.504,227.2312 1021.232,227.2642 1020.961,227.2642" id="Fill-181" fill="#FFFFFF" mask="url(#mask-40)"></path>
                        <path d="M1064.3616,223.9138 L1045.4286,223.9138 C1043.7786,223.9138 1042.4286,222.5638 1042.4286,220.9138 L1042.4286,214.0278 C1042.4286,212.3778 1043.7786,211.0278 1045.4286,211.0278 L1064.3616,211.0278 C1066.0116,211.0278 1067.3616,212.3778 1067.3616,214.0278 L1067.3616,220.9138 C1067.3616,222.5638 1066.0116,223.9138 1064.3616,223.9138" id="Fill-182" fill="#231F1F" mask="url(#mask-40)"></path>
                        <path d="M1042.2202,222.797 L1041.3242,222.797 C1039.6742,222.797 1038.3242,221.447 1038.3242,219.797 L1038.3242,216.69 C1038.3242,215.04 1039.6742,213.69 1041.3242,213.69 L1042.2202,213.69 C1043.8702,213.69 1045.2202,215.04 1045.2202,216.69 L1045.2202,219.797 C1045.2202,221.447 1043.8702,222.797 1042.2202,222.797" id="Fill-183" fill="#FCD0BE" mask="url(#mask-40)"></path>
                        <path d="M1088.2103,227.2642 C1087.9393,227.2642 1087.6673,227.2312 1087.3993,227.1642 L1069.6383,222.7292 C1067.8433,222.2812 1066.7513,220.4622 1067.1993,218.6672 C1067.6483,216.8722 1069.4663,215.7802 1071.2613,216.2282 L1084.6443,219.5702 C1082.8363,204.8752 1070.5623,198.6332 1070.4273,198.5672 C1068.7683,197.7472 1068.0883,195.7372 1068.9083,194.0782 C1069.7293,192.4202 1071.7393,191.7422 1073.3973,192.5602 C1074.1563,192.9352 1091.9803,202.0022 1091.5603,223.9772 C1091.5403,224.9982 1091.0573,225.9542 1090.2473,226.5742 C1089.6563,227.0262 1088.9393,227.2642 1088.2103,227.2642" id="Fill-184" fill="#FFFFFF" mask="url(#mask-40)"></path>
                        <path d="M1066.951,222.797 L1067.847,222.797 C1069.497,222.797 1070.847,221.447 1070.847,219.797 L1070.847,216.69 C1070.847,215.04 1069.497,213.69 1067.847,213.69 L1066.951,213.69 C1065.301,213.69 1063.951,215.04 1063.951,216.69 L1063.951,219.797 C1063.951,221.447 1065.301,222.797 1066.951,222.797" id="Fill-185" fill="#FCD0BE" mask="url(#mask-40)"></path>
                    </g>
                    <g id="Group-189" transform="translate(1025.000000, 164.000000)">
                        <mask id="mask-42" fill="white">
                            <use xlink:href="#path-41"></use>
                        </mask>
                        <g id="Clip-188"></g>
                        <polygon id="Fill-187" fill="#E1AC98" mask="url(#mask-42)" points="-4.808 18.172 11.576 18.172 11.576 -4.765 -4.808 -4.765"></polygon>
                    </g>
                    <path d="M1026.212,176.153 L1030.556,176.153 L1030.556,165.255 L1026.212,165.255 L1026.212,176.153 Z M1031.115,177.269 L1025.653,177.269 C1025.345,177.269 1025.095,177.02 1025.095,176.711 L1025.095,164.696 C1025.095,164.387 1025.345,164.138 1025.653,164.138 L1031.115,164.138 C1031.423,164.138 1031.673,164.387 1031.673,164.696 L1031.673,176.711 C1031.673,177.02 1031.423,177.269 1031.115,177.269 L1031.115,177.269 Z" id="Fill-190" fill="#E1AC98"></path>
                    <g id="Group-194" transform="translate(1079.000000, 164.000000)">
                        <mask id="mask-44" fill="white">
                            <use xlink:href="#path-43"></use>
                        </mask>
                        <g id="Clip-193"></g>
                        <polygon id="Fill-192" fill="#E1AC98" mask="url(#mask-44)" points="-5.288 18.172 11.096 18.172 11.096 -4.765 -5.288 -4.765"></polygon>
                    </g>
                    <path d="M1079.732,176.153 L1084.076,176.153 L1084.076,165.255 L1079.732,165.255 L1079.732,176.153 Z M1084.635,177.269 L1079.174,177.269 C1078.865,177.269 1078.615,177.02 1078.615,176.711 L1078.615,164.696 C1078.615,164.387 1078.865,164.138 1079.174,164.138 L1084.635,164.138 C1084.943,164.138 1085.193,164.387 1085.193,164.696 L1085.193,176.711 C1085.193,177.02 1084.943,177.269 1084.635,177.269 L1084.635,177.269 Z" id="Fill-195" fill="#E1AC98"></path>
                    <g id="Group-199" transform="translate(1031.000000, 153.000000)">
                        <mask id="mask-46" fill="white">
                            <use xlink:href="#path-45"></use>
                        </mask>
                        <g id="Clip-198"></g>
                        <polygon id="Fill-197" fill="#FCD0BE" mask="url(#mask-46)" points="-5.347 45.557 53.635 45.557 53.635 -4.687 -5.347 -4.687"></polygon>
                    </g>
                    <path d="M1037.671,154.3325 C1034.364,154.3325 1031.673,157.0245 1031.673,160.3335 L1031.673,186.5355 C1031.673,189.8445 1034.364,192.5365 1037.671,192.5365 L1072.617,192.5365 C1075.924,192.5365 1078.615,189.8445 1078.615,186.5355 L1078.615,160.3335 C1078.615,157.0245 1075.924,154.3325 1072.617,154.3325 L1037.671,154.3325 Z M1072.617,193.6535 L1037.671,193.6535 C1033.748,193.6535 1030.556,190.4605 1030.556,186.5355 L1030.556,160.3335 C1030.556,156.4085 1033.748,153.2155 1037.671,153.2155 L1072.617,153.2155 C1076.54,153.2155 1079.732,156.4085 1079.732,160.3335 L1079.732,186.5355 C1079.732,190.4605 1076.54,193.6535 1072.617,193.6535 L1072.617,193.6535 Z" id="Fill-200" fill="#FCD0BE"></path>
                    <g id="Group-204" transform="translate(1034.000000, 163.000000)">
                        <mask id="mask-48" fill="white">
                            <use xlink:href="#path-47"></use>
                        </mask>
                        <g id="Clip-203"></g>
                        <polygon id="Fill-202" fill="#FFE7DF" mask="url(#mask-48)" points="-5.07 19.173 24.421 19.173 24.421 -4.857 -5.07 -4.857"></polygon>
                    </g>
                    <g id="Group-209">
                        <path d="M1047.2759,177.2694 L1035.4929,177.2694 C1034.5779,177.2694 1033.8329,176.5274 1033.8329,175.6164 L1033.8329,164.6984 C1033.8329,163.7874 1034.5729,163.0454 1035.4839,163.0454 L1051.8679,163.0454 C1052.7779,163.0454 1053.5179,163.7904 1053.5179,164.7064 L1053.5179,169.0654 C1053.5179,169.3734 1053.2679,169.6234 1052.9599,169.6234 C1052.6509,169.6234 1052.4009,169.3734 1052.4009,169.0654 L1052.4009,164.7064 C1052.4009,164.4014 1052.1669,164.1624 1051.8679,164.1624 L1035.4839,164.1624 C1035.1939,164.1624 1034.9499,164.4084 1034.9499,164.6984 L1034.9499,175.6164 C1034.9499,175.9064 1035.1979,176.1524 1035.4929,176.1524 L1047.2759,176.1524 C1047.5839,176.1524 1047.8339,176.4024 1047.8339,176.7114 C1047.8339,177.0194 1047.5839,177.2694 1047.2759,177.2694 L1047.2759,177.2694 Z" id="Fill-205" fill="#231F1F"></path>
                        <mask id="mask-50" fill="white">
                            <use xlink:href="#path-49"></use>
                        </mask>
                        <g id="Clip-208"></g>
                        <polygon id="Fill-207" fill="#4D656C" mask="url(#mask-50)" points="1044.756 168.531 1048.057 168.531 1048.057 167.414 1044.756 167.414"></polygon>
                    </g>
                    <g id="Group-212" transform="translate(1057.000000, 163.000000)">
                        <mask id="mask-52" fill="white">
                            <use xlink:href="#path-51"></use>
                        </mask>
                        <g id="Clip-211"></g>
                        <polygon id="Fill-210" fill="#FFE7DF" mask="url(#mask-52)" points="-5.133 19.173 24.358 19.173 24.358 -4.857 -5.133 -4.857"></polygon>
                    </g>
                    <g id="Group-217">
                        <path d="M1074.7957,177.2694 L1063.0127,177.2694 C1062.7037,177.2694 1062.4537,177.0194 1062.4537,176.7114 C1062.4537,176.4024 1062.7037,176.1524 1063.0127,176.1524 L1074.7957,176.1524 C1075.0897,176.1524 1075.3387,175.9064 1075.3387,175.6164 L1075.3387,164.6984 C1075.3387,164.4084 1075.0937,164.1624 1074.8047,164.1624 L1058.4207,164.1624 C1058.1217,164.1624 1057.8867,164.4014 1057.8867,164.7064 L1057.8867,169.0654 C1057.8867,169.3734 1057.6367,169.6234 1057.3287,169.6234 C1057.0197,169.6234 1056.7697,169.3734 1056.7697,169.0654 L1056.7697,164.7064 C1056.7697,163.7904 1057.5107,163.0454 1058.4207,163.0454 L1074.8047,163.0454 C1075.7147,163.0454 1076.4557,163.7874 1076.4557,164.6984 L1076.4557,175.6164 C1076.4557,176.5274 1075.7107,177.2694 1074.7957,177.2694 L1074.7957,177.2694 Z" id="Fill-213" fill="#231F1F"></path>
                        <mask id="mask-54" fill="white">
                            <use xlink:href="#path-53"></use>
                        </mask>
                        <g id="Clip-216"></g>
                        <polygon id="Fill-215" fill="#4D656C" mask="url(#mask-54)" points="1062.232 168.531 1065.533 168.531 1065.533 167.414 1062.232 167.414"></polygon>
                    </g>
                    <g id="Group-220" transform="translate(1047.000000, 169.000000)">
                        <mask id="mask-56" fill="white">
                            <use xlink:href="#path-55"></use>
                        </mask>
                        <g id="Clip-219"></g>
                        <polygon id="Fill-218" fill="#E1AC98" mask="url(#mask-56)" points="-4.963 20.818 21.251 20.818 21.251 -5.396 -4.963 -5.396"></polygon>
                    </g>
                    <path d="M1055.1439,169.6236 C1051.2359,169.6236 1048.0569,172.8026 1048.0569,176.7106 C1048.0569,180.6196 1051.2359,183.7986 1055.1439,183.7986 C1059.0519,183.7986 1062.2309,180.6196 1062.2309,176.7106 C1062.2309,172.8026 1059.0519,169.6236 1055.1439,169.6236 M1055.1439,184.9156 C1050.6199,184.9156 1046.9399,181.2346 1046.9399,176.7106 C1046.9399,172.1876 1050.6199,168.5066 1055.1439,168.5066 C1059.6679,168.5066 1063.3479,172.1876 1063.3479,176.7106 C1063.3479,181.2346 1059.6679,184.9156 1055.1439,184.9156" id="Fill-221" fill="#E1AC98"></path>
                    <g id="Group-225" transform="translate(1027.000000, 141.000000)">
                        <mask id="mask-58" fill="white">
                            <use xlink:href="#path-57"></use>
                        </mask>
                        <g id="Clip-224"></g>
                        <polygon id="Fill-223" fill="#603813" mask="url(#mask-58)" points="-4.624 29.158 60.911 29.158 60.911 -4.702 -4.624 -4.702"></polygon>
                    </g>
                    <path d="M1079.7321,164.1377 L1081.8921,164.1377 L1081.8921,157.0507 C1081.8921,153.1427 1078.7101,149.9637 1074.7991,149.9637 L1073.8881,149.9637 C1073.6781,149.9637 1073.4861,149.8457 1073.3901,149.6587 C1073.2951,149.4717 1073.3131,149.2467 1073.4361,149.0777 C1073.9661,148.3467 1074.2461,147.4827 1074.2461,146.5767 C1074.2461,144.2287 1072.3341,142.3177 1069.9841,142.3177 L1050.1341,142.3177 C1047.7841,142.3177 1045.8721,144.2287 1045.8721,146.5767 C1045.8721,147.4817 1046.1531,148.3457 1046.6841,149.0767 C1046.8081,149.2467 1046.8251,149.4717 1046.7301,149.6587 C1046.6351,149.8457 1046.4421,149.9637 1046.2321,149.9637 L1035.4891,149.9637 C1031.5781,149.9637 1028.3961,153.1427 1028.3961,157.0507 L1028.3961,164.1377 L1030.5561,164.1377 L1030.5561,160.3337 C1030.5561,156.4087 1033.7481,153.2157 1037.6711,153.2157 L1072.6171,153.2157 C1076.5401,153.2157 1079.7321,156.4087 1079.7321,160.3337 L1079.7321,164.1377 Z M1082.4501,165.2547 L1079.1741,165.2547 C1078.8651,165.2547 1078.6151,165.0047 1078.6151,164.6957 L1078.6151,160.3337 C1078.6151,157.0247 1075.9241,154.3327 1072.6171,154.3327 L1037.6711,154.3327 C1034.3641,154.3327 1031.6731,157.0247 1031.6731,160.3337 L1031.6731,164.6957 C1031.6731,165.0047 1031.4231,165.2547 1031.1141,165.2547 L1027.8381,165.2547 C1027.5291,165.2547 1027.2791,165.0047 1027.2791,164.6957 L1027.2791,157.0507 C1027.2791,152.5267 1030.9621,148.8467 1035.4891,148.8467 L1045.2571,148.8467 C1044.9271,148.1407 1044.7551,147.3707 1044.7551,146.5767 C1044.7551,143.6127 1047.1681,141.2007 1050.1341,141.2007 L1069.9841,141.2007 C1072.9501,141.2007 1075.3631,143.6127 1075.3631,146.5767 C1075.3631,147.3717 1075.1921,148.1417 1074.8621,148.8467 C1079.3601,148.8807 1083.0091,152.5477 1083.0091,157.0507 L1083.0091,164.6957 C1083.0091,165.0047 1082.7591,165.2547 1082.4501,165.2547 L1082.4501,165.2547 Z" id="Fill-226" fill="#603813"></path>
                    <g id="Group-248" transform="translate(365.000000, 1.000000)">
                        <path d="M396.8929,330 L9.2339,330 C4.5569,330 0.7299,326.173 0.7299,321.496 L0.7299,8.504 C0.7299,3.827 4.5569,0 9.2339,0 L396.8929,0 C401.5699,0 405.3969,3.827 405.3969,8.504 L405.3969,321.496 C405.3969,326.173 401.5699,330 396.8929,330 L396.8929,330 Z" id="Stroke-228" stroke="#A6A8AB" stroke-width="2"></path>
                        <path d="M394.5623,34.6667 L88.2313,34.6667 C86.6723,34.6667 85.3973,33.3907 85.3973,31.8317 L85.3973,10.8347 C85.3973,9.2757 86.6723,7.9997 88.2313,7.9997 L394.5623,7.9997 C396.1213,7.9997 397.3973,9.2757 397.3973,10.8347 L397.3973,31.8317 C397.3973,33.3907 396.1213,34.6667 394.5623,34.6667 L394.5623,34.6667 Z" id="Stroke-230" stroke="#A6A8AB" stroke-width="2"></path>
                        <path d="M0.0636,41.3333 L405.3966,41.3333" id="Stroke-232" stroke="#A6A8AB" stroke-width="2"></path>
                        <path d="M28.6391,20.8789 C28.6391,24.2599 25.8981,26.9999 22.5181,26.9999 C19.1371,26.9999 16.3971,24.2599 16.3971,20.8789 C16.3971,17.4979 19.1371,14.7579 22.5181,14.7579 C25.8981,14.7579 28.6391,17.4979 28.6391,20.8789 L28.6391,20.8789 Z" id="Stroke-234" stroke="#A6A8AB" stroke-width="2"></path>
                        <path d="M48.6391,20.8789 C48.6391,24.2599 45.8981,26.9999 42.5181,26.9999 C39.1371,26.9999 36.3971,24.2599 36.3971,20.8789 C36.3971,17.4979 39.1371,14.7579 42.5181,14.7579 C45.8981,14.7579 48.6391,17.4979 48.6391,20.8789 L48.6391,20.8789 Z" id="Stroke-236" stroke="#A6A8AB" stroke-width="2"></path>
                        <path d="M68.6391,20.8789 C68.6391,24.2599 65.8981,26.9999 62.5181,26.9999 C59.1371,26.9999 56.3971,24.2599 56.3971,20.8789 C56.3971,17.4979 59.1371,14.7579 62.5181,14.7579 C65.8981,14.7579 68.6391,17.4979 68.6391,20.8789 L68.6391,20.8789 Z" id="Stroke-238" stroke="#A6A8AB" stroke-width="2"></path>
                        <polyline id="Stroke-240" stroke="#C4E9F6" stroke-width="6" points="689.3622 222.9138 689.3622 232.5438 768.3392 232.5438 768.3392 94.6478 663.3842 94.6478 663.3842 54.2608 404.3972 54.2608"></polyline>
                        <polyline id="Stroke-242" stroke="#C4E9F6" stroke-width="6" points="584.7488 191.9428 584.7488 322.7468 507.8948 322.7468 507.8948 185.7158 470.3968 185.7158 470.3968 240.8808 404.3968 240.8808"></polyline>
                        <polyline id="Stroke-244" stroke="#077DA1" stroke-width="6" points="726.5677 94.6476 663.3837 94.6476 663.3837 54.2606 404.3967 54.2606"></polyline>
                        <polyline id="Stroke-246" stroke="#077DA1" stroke-width="6" points="507.8945 260.8956 507.8945 185.7156 470.3965 185.7156 470.3965 240.8806 404.3965 240.8806"></polyline>
                    </g>
                    <g id="Group-253" transform="translate(148.000000, 198.000000)" stroke-width="6">
                        <polyline id="Stroke-249" stroke="#FFB5E0" points="0.5668 0.1423 0.5668 125.7463 124.5938 125.7463 124.5938 59.7233 217.0638 59.7233"></polyline>
                        <polyline id="Stroke-251" stroke="#EB078B" points="0.5668 0.1423 0.5668 125.7463 89.5938 125.7463"></polyline>
                    </g>
                    <polyline id="Stroke-254" stroke="#BFC5FF" stroke-width="6" points="224.9306 192.386 224.9306 209.819 301.0636 209.819 301.0636 153.474 365.7306 153.474"></polyline>
                    <polyline id="Stroke-255" stroke="#2E368E" stroke-width="6" points="224.9306 192.386 224.9306 209.819 288.0636 209.819"></polyline>
                    <g id="Group-260" transform="translate(3.000000, 55.000000)" stroke-width="6">
                        <polyline id="Stroke-256" stroke="#B5EBFF" points="66.0485 123.9971 66.0485 147.0161 0.0005 147.0161 0.0005 0.2601 361.0635 0.2601"></polyline>
                        <polyline id="Stroke-258" stroke="#46C0EF" points="66.0485 123.9971 66.0485 147.0161 0.0005 147.0161 0.0005 60.3181"></polyline>
                    </g>
                </g>
            </g>
        </g>
    </g>
</svg>