<?xml version="1.0" encoding="UTF-8" standalone="no"?>
<svg width="69px" height="51px" viewBox="0 0 69 51" version="1.1" xmlns="http://www.w3.org/2000/svg" xmlns:xlink="http://www.w3.org/1999/xlink">
    <!-- Generator: sketchtool 40.3 (33839) - http://www.bohemiancoding.com/sketch -->
    <title>FBC804E2-CA79-4652-8747-00C24C4D8307</title>
    <desc>Created with sketchtool.</desc>
    <defs></defs>
    <g id="Page-1" stroke="none" stroke-width="1" fill="none" fill-rule="evenodd">
        <g id="Desktop-HD" transform="translate(-256.000000, -5071.000000)" fill="#EC008C">
            <g id="quote" transform="translate(-8.000000, 4985.000000)">
                <g id="quote-icon" transform="translate(264.000000, 86.000000)">
                    <path d="M53.8530918,18.8758443 C53.7094592,17.3194296 53.8136633,13.0712173 57.9071939,7.14449101 C58.2155816,6.70100403 58.1592551,6.09752491 57.7748265,5.71438585 C56.1131939,4.05832688 55.0852347,3.01136079 54.3586224,2.27595833 C53.4067041,1.30618143 52.9673571,0.866904767 52.3350918,0.291494447 C51.9112347,-0.0916446192 51.2677041,-0.0972583784 50.8382143,0.276056609 C43.7100918,6.45399862 35.7948061,19.222494 36.9382347,34.8680409 C37.6155612,44.0563613 44.3367245,50.7227003 52.9293367,50.7227003 C61.7458469,50.7227003 68.9190306,43.573578 68.9190306,34.7852379 C68.9190306,26.309865 62.2415204,19.3586276 53.8530918,18.8758443" id="Fill-1"></path>
                    <path d="M17.0256796,18.8758443 C16.8820469,17.3194296 16.986251,13.0712173 21.0797816,7.14449101 C21.3881694,6.70100403 21.3318429,6.09752491 20.9474143,5.71438585 C19.2857816,4.05832688 18.2578224,3.01136079 17.5312102,2.27595833 C16.5792918,1.30618143 16.1399449,0.866904767 15.5076796,0.291494447 C15.0838224,-0.0916446192 14.4402918,-0.0972583784 14.010802,0.276056609 C6.88267959,6.45399862 -1.03260612,19.222494 0.110822449,34.8680409 C0.78814898,44.0563613 7.50931224,50.7227003 16.1019245,50.7227003 C24.9184347,50.7227003 32.0916184,43.573578 32.0916184,34.7852379 C32.0916184,26.309865 25.4141082,19.3586276 17.0256796,18.8758443" id="Fill-4"></path>
                </g>
            </g>
        </g>
    </g>
</svg>