<?xml version="1.0" encoding="UTF-8" standalone="no"?>
<svg width="131px" height="135px" viewBox="0 0 131 135" version="1.1" xmlns="http://www.w3.org/2000/svg" xmlns:xlink="http://www.w3.org/1999/xlink">
    <!-- Generator: sketchtool 40.3 (33839) - http://www.bohemiancoding.com/sketch -->
    <title>8188AEBF-7D64-4E97-B79F-7E1052CC2E2C</title>
    <desc>Created with sketchtool.</desc>
    <defs>
        <polygon id="path-1" points="10.938 11 0 11 0 5.53105 0 0.0621 10.938 0.0621"></polygon>
    </defs>
    <g id="Page-1" stroke="none" stroke-width="1" fill="none" fill-rule="evenodd">
        <g id="Desktop-HD" transform="translate(-647.000000, -2273.000000)">
            <g id="why-scifabric" transform="translate(-11.000000, 1850.000000)">
                <g id="rocket" transform="translate(658.000000, 422.000000)">
                    <path d="M46.5018,47.9977 C50.2938,42.3137 56.8098,38.6177 64.1478,38.7467 C65.3248,38.7667 66.4758,38.8847 67.5958,39.0927 C69.8568,31.2077 74.0928,23.7687 80.3038,17.5577 C92.9768,4.8847 110.7588,0.4337 127.0208,4.2057 C130.7928,20.4677 126.3418,38.2497 113.6688,50.9227 C107.4578,57.1347 100.0198,61.3707 92.1348,63.6317 C92.3418,64.7507 92.4598,65.9027 92.4808,67.0787 C92.6088,74.4177 88.9128,80.9337 83.2288,84.7247 C83.8358,82.8347 84.1788,80.8257 84.2148,78.7387 C84.3648,70.1307 79.2558,62.6557 71.8478,59.3797 C68.5718,51.9717 61.0958,46.8617 52.4888,47.0117 C50.4018,47.0487 48.3918,47.3917 46.5018,47.9977" id="Fill-1" fill="#AEE4F6"></path>
                    <g id="Group-5" transform="translate(44.000000, 0.739000)" fill="#077DA1">
                        <path d="M29.2709,57.2169 C37.2429,61.0509 42.2579,69.1409 42.1029,78.0319 C42.0979,78.3469 42.0849,78.6639 42.0659,78.9779 C45.0359,75.5179 46.6759,71.0669 46.5929,66.3719 C46.5749,65.3179 46.4699,64.2629 46.2779,63.2369 C46.1009,62.2799 46.6779,61.3459 47.6139,61.0779 C55.4039,58.8429 62.5699,54.6139 68.3349,48.8489 C79.8869,37.2979 84.7379,21.0059 81.4349,5.0529 C65.4879,1.7479 49.1899,6.6009 37.6389,18.1539 C31.8739,23.9179 27.6449,31.0819 25.4099,38.8739 C25.1419,39.8079 24.2109,40.3829 23.2509,40.2099 C22.2259,40.0179 21.1719,39.9129 20.1159,39.8949 C15.4069,39.7819 10.9699,41.4539 7.5099,44.4219 C7.8259,44.4029 8.1409,44.3899 8.4559,44.3849 C17.3399,44.2959 25.4369,49.2449 29.2709,57.2169 M39.2299,85.8729 C38.8279,85.8729 38.4279,85.7459 38.0919,85.4909 C37.4529,85.0089 37.1869,84.1739 37.4329,83.4089 C37.9949,81.6589 38.2949,79.8269 38.3279,77.9659 C38.4609,70.3549 34.0469,63.4469 27.0849,60.3649 C26.6559,60.1749 26.3129,59.8319 26.1229,59.4029 C23.0429,52.4409 16.0979,48.0069 8.5219,48.1599 C6.6609,48.1929 4.8289,48.4929 3.0789,49.0549 C2.3139,49.2989 1.4789,49.0349 0.9969,48.3959 C0.5119,47.7539 0.4879,46.8789 0.9319,46.2109 C5.2379,39.7579 12.3429,36.0219 20.1819,36.1199 C20.8769,36.1329 21.5739,36.1749 22.2629,36.2509 C24.7739,28.4599 29.1459,21.3079 34.9699,15.4849 C47.7269,2.7229 65.8509,-2.4511 83.4459,1.6279 C84.1479,1.7919 84.6959,2.3399 84.8599,3.0419 C88.9419,20.6369 83.7629,38.7589 71.0039,51.5179 C65.1779,57.3439 58.0279,61.7139 50.2369,64.2249 C50.3109,64.9159 50.3549,65.6109 50.3679,66.3059 C50.5049,74.0529 46.7309,81.2479 40.2769,85.5559 C39.9599,85.7679 39.5949,85.8729 39.2299,85.8729" id="Fill-3"></path>
                    </g>
                    <path d="M115.0036,16.2233 C117.5836,18.8033 117.5836,22.9853 115.0036,25.5653 C112.4236,28.1453 108.2416,28.1453 105.6616,25.5653 C103.0816,22.9853 103.0816,18.8033 105.6616,16.2233 C108.2416,13.6433 112.4236,13.6433 115.0036,16.2233" id="Fill-6" fill="#FFFFFF"></path>
                    <path d="M110.3337,16.1783 C109.1247,16.1783 107.9157,16.6373 106.9957,17.5573 C105.1557,19.3963 105.1557,22.3913 106.9957,24.2313 C108.8337,26.0693 111.8287,26.0703 113.6697,24.2313 C115.5077,22.3913 115.5077,19.3983 113.6697,17.5573 C112.7497,16.6373 111.5407,16.1783 110.3337,16.1783 M110.3317,29.3843 C108.1567,29.3843 105.9817,28.5553 104.3267,26.9003 C101.0147,23.5883 101.0147,18.2003 104.3267,14.8883 C107.6367,11.5773 113.0247,11.5773 116.3387,14.8883 C119.6487,18.2003 119.6487,23.5883 116.3387,26.9003 C114.6837,28.5553 112.5087,29.3843 110.3317,29.3843" id="Fill-8" fill="#077DA1"></path>
                    <path d="M98.9883,32.2386 C103.0423,36.2926 103.0423,42.8656 98.9883,46.9196 C94.9343,50.9736 88.3613,50.9736 84.3073,46.9196 C80.2533,42.8656 80.2533,36.2926 84.3073,32.2386 C88.3613,28.1846 94.9343,28.1846 98.9883,32.2386" id="Fill-10" fill="#FFFFFF"></path>
                    <path d="M91.6475,31.0896 C89.4725,31.0896 87.2975,31.9176 85.6425,33.5726 C84.0365,35.1776 83.1545,37.3106 83.1545,39.5796 C83.1545,41.8486 84.0365,43.9806 85.6425,45.5846 C87.2455,47.1896 89.3785,48.0726 91.6475,48.0726 C93.9165,48.0726 96.0495,47.1896 97.6545,45.5846 C100.9645,42.2736 100.9645,36.8846 97.6545,33.5726 C95.9975,31.9176 93.8225,31.0896 91.6475,31.0896 M91.6475,51.8476 C88.3705,51.8476 85.2905,50.5706 82.9735,48.2536 C80.6565,45.9366 79.3795,42.8566 79.3795,39.5796 C79.3795,36.3026 80.6565,33.2206 82.9735,30.9036 C87.7545,26.1186 95.5385,26.1186 100.3235,30.9036 C105.1065,35.6886 105.1065,43.4706 100.3235,48.2536 C98.0065,50.5706 94.9245,51.8476 91.6475,51.8476" id="Fill-12" fill="#077DA1"></path>
                    <path d="M42.7056,88.5214 C42.7056,88.5214 60.8506,85.0574 64.9046,81.0034 C68.9586,76.9494 68.9586,70.3764 64.9046,66.3224 C60.8506,62.2684 54.2776,62.2684 50.2236,66.3224 C46.1696,70.3764 42.7056,88.5214 42.7056,88.5214" id="Fill-14" fill="#AEE4F6"></path>
                    <path d="M57.5633,65.1738 C55.3883,65.1738 53.2133,66.0018 51.5583,67.6568 C49.2393,69.9768 46.6183,79.2598 45.1293,86.0978 C51.9693,84.6068 61.2513,81.9858 63.5703,79.6688 C66.8803,76.3578 66.8803,70.9688 63.5703,67.6568 C61.9133,66.0018 59.7383,65.1738 57.5633,65.1738 M42.7053,90.4088 C42.2093,90.4088 41.7283,90.2138 41.3713,89.8558 C40.9283,89.4138 40.7353,88.7818 40.8513,88.1678 C41.2183,86.2528 44.5503,69.3288 48.8893,64.9878 C53.6703,60.2048 61.4543,60.2028 66.2393,64.9878 C71.0223,69.7728 71.0223,77.5548 66.2393,82.3378 C61.8983,86.6768 44.9743,90.0088 43.0593,90.3758 C42.9413,90.3978 42.8233,90.4088 42.7053,90.4088" id="Fill-16" fill="#077DA1"></path>
                    <path d="M31.7329,93.7193 C31.5859,93.7193 31.4379,93.7023 31.2889,93.6663 C30.2749,93.4223 29.6519,92.4033 29.8969,91.3893 L33.6779,75.7113 C33.9229,74.6973 34.9439,74.0673 35.9539,74.3193 C36.9679,74.5633 37.5909,75.5823 37.3459,76.5963 L33.5649,92.2743 C33.3569,93.1383 32.5849,93.7193 31.7329,93.7193" id="Fill-18" fill="#46C0EF"></path>
                    <path d="M55.9063,96.3827 C54.9443,96.3827 54.1223,95.6507 54.0303,94.6737 C53.9303,93.6367 54.6913,92.7147 55.7293,92.6167 L63.7563,91.8517 C64.7983,91.7287 65.7153,92.5157 65.8133,93.5517 C65.9133,94.5897 65.1513,95.5107 64.1143,95.6087 L56.0873,96.3737 C56.0263,96.3807 55.9653,96.3827 55.9063,96.3827" id="Fill-20" fill="#2E3192"></path>
                    <path d="M23.7777,113.3492 C23.1257,113.3492 22.4907,113.0122 22.1407,112.4052 C21.6197,111.5022 21.9287,110.3482 22.8317,109.8272 L38.7407,100.6422 C39.6397,100.1202 40.7957,100.4262 41.3197,101.3332 C41.8407,102.2362 41.5317,103.3902 40.6277,103.9122 L24.7197,113.0962 C24.4227,113.2682 24.0987,113.3492 23.7777,113.3492" id="Fill-22" fill="#EC008C"></path>
                    <g id="Group-26" transform="translate(0.000000, 124.739000)">
                        <mask id="mask-2" fill="white">
                            <use xlink:href="#path-1"></use>
                        </mask>
                        <g id="Clip-25"></g>
                        <path d="M0,5.5311 C0,2.5111 2.449,0.0621 5.469,0.0621 C8.489,0.0621 10.938,2.5111 10.938,5.5311 C10.938,8.5511 8.489,11.0001 5.469,11.0001 C2.449,11.0001 0,8.5511 0,5.5311" id="Fill-24" fill="#EC008C" mask="url(#mask-2)"></path>
                    </g>
                    <path d="M31.6044,123.9477 C32.0754,125.5127 31.1884,127.1637 29.6234,127.6357 C28.0584,128.1067 26.4074,127.2197 25.9354,125.6547 C25.4644,124.0887 26.3514,122.4377 27.9164,121.9667 C29.4824,121.4957 31.1334,122.3827 31.6044,123.9477" id="Fill-27" fill="#46C0EF"></path>
                </g>
            </g>
        </g>
    </g>
</svg>