<?xml version="1.0" encoding="UTF-8" standalone="no"?>
<svg width="27px" height="38px" viewBox="0 0 27 38" version="1.1" xmlns="http://www.w3.org/2000/svg" xmlns:xlink="http://www.w3.org/1999/xlink">
    <!-- Generator: sketchtool 40.3 (33839) - http://www.bohemiancoding.com/sketch -->
    <title>6E4D227C-584E-49AE-8A74-91CF77D793F9</title>
    <desc>Created with sketchtool.</desc>
    <defs></defs>
    <g id="Page-1" stroke="none" stroke-width="1" fill="none" fill-rule="evenodd">
        <g id="Desktop-HD" transform="translate(-25.000000, -976.000000)" fill="#087DA1">
            <g id="fixed-nav" transform="translate(-12.000000, 961.000000)">
                <path d="M52.0710192,29.693221 C50.3408479,29.2480448 48.8741728,28.7318811 47.6734002,28.1423234 C46.4702213,27.5527657 45.8710382,26.7418231 45.8710382,25.7082924 C45.8710382,23.641231 47.9850236,22.6077003 52.2154007,22.6077003 C55.3881835,22.6077003 58.2240762,23.197258 60.7254852,24.373967 L60.7254852,17.6325555 C57.6718171,15.8783206 54.3197606,15 50.6645031,15 C46.7710161,15 43.5212298,15.9914194 40.9127379,17.9742583 C38.304246,19.9583004 37,22.800209 37,26.5023905 C37,28.8570117 37.6076054,30.8097711 38.8216129,32.3606687 C40.0344172,33.9115663 41.4998892,35.0221005 43.2192319,35.6958807 C44.9385745,36.3684577 46.6555109,36.9519995 48.3760567,37.4440997 C50.0941962,37.9386062 51.5608714,38.5137257 52.7736757,39.174271 C53.9876832,39.8360194 54.5952886,40.7083241 54.5952886,41.789982 C54.5952886,42.9666909 54.2102713,43.8498243 53.4402368,44.4381788 C52.6714055,45.0289396 51.0122218,45.3225153 48.465092,45.3225153 C44.7641136,45.3225153 41.290536,44.2396542 38.0455625,42.0775417 L38.0455625,49.9728018 C41.6033626,51.9929392 45.4968496,53 49.7272267,53 C53.8613495,53 57.1845297,51.9809075 59.6955641,49.9379096 C62.2078017,47.8937086 63.4639205,45.3225153 63.4639205,42.2219232 C63.4639205,39.4341576 62.8563151,37.137289 61.6423076,35.334927 C60.4295032,33.532565 58.9628281,32.2523826 57.2446886,31.4955831 C55.5265491,30.7387835 53.8023937,30.1383972 52.0710192,29.693221 Z" id="Fill-7-path"></path>
            </g>
        </g>
    </g>
</svg>