<?xml version="1.0" encoding="UTF-8" standalone="no"?>
<svg width="194px" height="41px" viewBox="0 0 194 41" version="1.1" xmlns="http://www.w3.org/2000/svg" xmlns:xlink="http://www.w3.org/1999/xlink">
    <!-- Generator: sketchtool 40.3 (33839) - http://www.bohemiancoding.com/sketch -->
    <title>FF0FFA37-EFAC-4BB0-B0BE-C0350062B207</title>
    <desc>Created with sketchtool.</desc>
    <defs></defs>
    <g id="Page-1" stroke="none" stroke-width="1" fill="none" fill-rule="evenodd">
        <g id="Desktop-HD" transform="translate(-519.000000, -2117.000000)" fill="#087DA1">
            <g id="why-scifabric" transform="translate(-11.000000, 1850.000000)">
                <g id="logo-scifabric" transform="translate(530.000000, 267.000000)">
                    <path d="M99.3080507,30.4207583 C99.3080507,33.2715155 97.4775173,34.6964338 93.8174465,34.6964338 L93.7566943,34.6964338 C89.9173548,34.6964338 87.998183,33.1886714 87.998183,30.172226 C88.0161099,27.7264844 90.3256892,26.5040738 94.9209454,26.5040738 C96.1339975,26.5224836 97.5970298,26.6430678 99.3080507,26.8630649 L99.3080507,30.4207583 L99.3080507,30.4207583 Z M93.1890099,11.6087065 C89.7679642,11.6087065 86.6536672,12.1324653 83.8491069,13.1809033 L83.8491069,18.6707049 C86.3758006,17.7143159 89.3496704,17.2356612 92.772708,17.2356612 C97.0891016,17.2356612 99.2482944,19.0112862 99.2482944,22.5597747 C97.338086,22.302958 95.5493821,22.1731689 93.8762069,22.1731689 C91.5487006,22.1731689 89.530931,22.4170988 87.8189142,22.9040379 C86.1068975,23.390977 84.8131745,23.9764086 83.9377453,24.6557301 C83.0623161,25.3378132 82.3711354,26.1275935 81.8622113,27.0287531 C81.3572709,27.9289922 81.0435506,28.6782709 80.925034,29.2765894 C80.8045255,29.8730668 80.7437734,30.4584984 80.7437734,31.0273611 C80.7437734,33.7133506 81.8044469,35.993404 83.9247981,37.8693624 C86.0431574,39.7444003 89.339711,40.6805385 93.8174465,40.6805385 C98.1726818,40.6805385 101.402507,39.7490028 103.500948,37.8822493 C105.599389,36.0164163 106.650103,33.7860693 106.650103,31.1930493 L106.650103,23.5796775 C106.650103,19.7007331 105.495811,16.7358352 103.188224,14.6840632 C100.87964,12.6350528 97.546237,11.6087065 93.1890099,11.6087065 L93.1890099,11.6087065 L93.1890099,11.6087065 Z M185.723566,17.4841935 C188.369773,17.4841935 190.896466,17.9352335 193.302652,18.8354726 L193.302652,13.1809033 C190.41742,12.1324653 187.484384,11.6087065 184.500555,11.6087065 C179.863469,11.6087065 176.302992,12.8596523 173.816136,15.3606233 C171.327288,17.8606738 170.084358,21.4653122 170.084358,26.173618 C170.084358,30.8432631 171.327288,34.4285712 173.816136,36.9304627 C176.302992,39.4323543 179.863469,40.6805385 184.500555,40.6805385 C187.484384,40.6805385 190.41742,40.1577003 193.302652,39.1092623 L193.302652,33.4556134 C190.775958,34.3926721 188.25026,34.862122 185.723566,34.862122 C182.917014,34.862122 180.832517,34.2592011 179.470074,33.0542798 C178.106635,31.8521201 177.42641,29.5573388 177.42641,26.173618 C177.42641,22.7521571 178.106635,20.4500119 179.470074,19.2644209 C180.832517,18.0779094 182.917014,17.4841935 185.723566,17.4841935 L185.723566,17.4841935 L185.723566,17.4841935 Z M128.164347,32.6630716 C127.228166,34.129412 125.59682,34.862122 123.27031,34.862122 C119.609243,34.862122 117.77871,33.8477421 117.77871,31.8180619 L117.77871,17.3755757 C119.151112,17.0616886 120.733657,16.9042848 122.523357,16.9042848 C124.810029,16.9042848 126.556904,17.5375819 127.760993,18.800494 C128.963089,20.0634061 129.566628,22.2817867 129.566628,25.4537949 C129.566628,28.7924117 129.099533,31.1967313 128.164347,32.6630716 L128.164347,32.6630716 L128.164347,32.6630716 Z M122.79226,11.6087065 C121.199756,11.6087065 119.529568,11.7569054 117.77871,12.0505417 L117.77871,1.21085281 L110.437654,1.21085281 L110.437654,31.1801624 C110.437654,33.7952742 111.486376,36.0320646 113.584816,37.8923747 C115.683257,39.7517642 118.913083,40.6805385 123.27031,40.6805385 C124.279195,40.6805385 125.285092,40.6087403 126.285013,40.4605415 C127.28593,40.3123426 128.463129,39.9257368 129.821588,39.3007242 C131.179051,38.6738706 132.34131,37.862919 133.313345,36.8678694 C134.283388,35.8746609 135.124955,34.4138434 135.840039,32.4881786 C136.552134,30.5625137 136.90868,28.3376897 136.90868,25.8146269 C136.90868,21.2269053 135.689652,17.7115545 133.253589,15.2704153 C130.817525,12.8292761 127.329752,11.6087065 122.79226,11.6087065 L122.79226,11.6087065 L122.79226,11.6087065 Z M158.867112,40.2405444 L166.178291,40.2405444 L166.178291,12.0505417 L158.867112,12.0505417 L158.867112,40.2405444 L158.867112,40.2405444 Z M81.4648322,12.0505417 L74.4514394,12.0505417 C74.4514394,9.60480006 74.8697333,7.95988464 75.7053249,7.11395444 C76.5409166,6.26802423 77.9143146,5.84459889 79.8245229,5.84459889 C80.1820645,5.84459889 80.7308262,5.88141848 81.4648322,5.95505767 L81.4648322,0.630944186 C80.4499718,0.446846209 79.4540341,0.35479722 78.4810031,0.35479722 C70.9407593,0.35479722 67.1492248,4.25307188 67.1103832,12.0505417 L61.9175645,12.0505417 L61.9175645,17.8707992 L67.1103832,17.8707992 L67.1103832,40.2405444 L74.4514394,40.2405444 L74.4514394,17.8707992 L81.4648322,17.8707992 L81.4648322,12.0505417 L81.4648322,12.0505417 Z M17.3852096,24.2286228 C15.9630106,23.6496347 14.535832,23.1903103 13.1016818,22.849729 C11.6705195,22.5091477 10.4564715,22.1142576 9.46252576,21.6632175 C8.46658814,21.2121775 7.9706112,20.5917673 7.9706112,19.8010665 C7.9706112,18.2196649 9.7204736,17.4289641 13.2221903,17.4289641 C15.8484778,17.4289641 18.1968987,17.8800041 20.2664571,18.7802432 L20.2664571,13.6227384 C17.7397633,12.2806642 14.9640852,11.6087065 11.9384267,11.6087065 C8.71557254,11.6087065 6.02554502,12.3671902 3.86635225,13.8841575 C1.70715948,15.4020453 0.6275631,17.5762425 0.6275631,20.4085898 C0.6275631,22.2099885 1.1305116,23.7039436 2.13541266,24.8904551 C3.13832185,26.0769665 4.35236981,26.9265787 5.77556468,27.442053 C7.19875954,27.9566069 8.61996253,28.4030445 10.0441533,28.7795248 C11.4663523,29.1578462 12.6804002,29.5978403 13.6833094,30.1031893 C14.6892064,30.6094587 15.1921549,31.2768139 15.1921549,32.1043343 C15.1921549,33.0045734 14.8744508,33.680213 14.2360548,34.1303325 C13.5996506,34.5822931 12.2262527,34.8068926 10.1178527,34.8068926 C7.05434859,34.8068926 4.17907667,33.9784517 1.49303289,32.3243314 L1.49303289,38.364586 C4.43802045,39.9100885 7.6608746,40.6805385 11.1625913,40.6805385 C14.584633,40.6805385 17.3344167,39.9008836 19.4139345,38.3378918 C21.4934523,36.7739795 22.5332111,34.8068926 22.5332111,32.4347902 C22.5332111,30.3020151 22.0302626,28.5447999 21.0243656,27.1659061 C20.0214564,25.7870122 18.8074085,24.807611 17.3852096,24.2286228 L17.3852096,24.2286228 L17.3852096,24.2286228 Z M51.2062553,40.2405444 L58.5184293,40.2405444 L58.5184293,12.0505417 L51.2062553,12.0505417 L51.2062553,40.2405444 L51.2062553,40.2405444 Z M28.4978816,15.3606233 C26.0100294,17.8606738 24.7680952,21.4653122 24.7680952,26.173618 C24.7680952,30.8432631 26.0100294,34.4285712 28.4978816,36.9304627 C30.9857337,39.4323543 34.5482026,40.6805385 39.1832963,40.6805385 C42.1671254,40.6805385 45.1021536,40.1577003 47.9873849,39.1092623 L47.9873849,33.4556134 C45.4606912,34.3926721 42.9339974,34.862122 40.4063077,34.862122 C37.6017474,34.862122 35.516254,34.2592011 34.1548073,33.0542798 C32.7913687,31.8521201 32.1101473,29.5573388 32.1101473,26.173618 C32.1101473,22.7521571 32.7913687,20.4500119 34.1548073,19.2644209 C35.516254,18.0779094 37.6017474,17.4841935 40.4063077,17.4841935 C43.052514,17.4841935 45.5792077,17.9352335 47.9873849,18.8354726 L47.9873849,13.1809033 C45.1021536,12.1324653 42.1671254,11.6087065 39.1832963,11.6087065 C34.5482026,11.6087065 30.9857337,12.8596523 28.4978816,15.3606233 L28.4978816,15.3606233 L28.4978816,15.3606233 Z M142.605443,13.7810627 C141.729018,14.0820629 141.042817,14.341641 140.54684,14.5607176 L140.54684,40.2405444 L147.887896,40.2405444 L147.887896,18.3687842 C150.076967,17.7796707 152.702259,17.4667042 155.765763,17.4289641 L155.765763,11.6087065 C153.159394,11.6464466 150.534102,11.9419239 147.887896,12.4969793 C145.24169,13.0529552 143.480872,13.480983 142.605443,13.7810627 L142.605443,13.7810627 L142.605443,13.7810627 Z" id="Fill-70"></path>
                </g>
            </g>
        </g>
    </g>
</svg>