<?xml version="1.0" encoding="UTF-8" standalone="no"?>
<svg width="210px" height="45px" viewBox="0 0 210 45" version="1.1" xmlns="http://www.w3.org/2000/svg" xmlns:xlink="http://www.w3.org/1999/xlink">
    <!-- Generator: sketchtool 40.3 (33839) - http://www.bohemiancoding.com/sketch -->
    <title>3A208D97-15DD-4BC8-B6AE-383AD7F7DC34</title>
    <desc>Created with sketchtool.</desc>
    <defs></defs>
    <g id="Page-1" stroke="none" stroke-width="1" fill="none" fill-rule="evenodd">
        <g id="Desktop-HD" transform="translate(-478.000000, -167.000000)" fill="#FFFFFF">
            <g id="inicio" transform="translate(-407.000000, -129.000000)">
                <g id="scifabric" transform="translate(885.000000, 296.000000)">
                    <path d="M107.326354,33.3154689 C107.326354,36.4207579 105.341523,37.9729011 101.37294,37.9729011 L101.307067,37.9729011 C97.144105,37.9729011 95.0631639,36.330517 95.0631639,33.0447462 C95.0826019,30.3806348 97.5868584,29.0490804 102.569454,29.0490804 C103.884756,29.069134 105.471109,29.2004846 107.326354,29.4401243 L107.326354,33.3154689 L107.326354,33.3154689 Z M100.691532,12.8237696 C96.9821221,12.8237696 93.6053173,13.3942925 90.5643573,14.5363411 L90.5643573,20.5163036 C93.304029,19.4745227 96.5285698,18.9531309 100.240139,18.9531309 C104.920367,18.9531309 107.261561,20.8872939 107.261561,24.7526117 C105.190339,24.472865 103.250863,24.3314876 101.436653,24.3314876 C98.9129589,24.3314876 96.7251091,24.5971969 94.8687844,25.1276127 C93.0124597,25.6580286 91.6096873,26.2957308 90.6604671,27.0357061 C89.711247,27.7786893 88.9618059,28.6389857 88.4099839,29.620606 C87.8624815,30.6012236 87.5223173,31.4174023 87.3938108,32.069142 C87.2631446,32.7188763 87.1972715,33.3565786 87.1972715,33.9762327 C87.1972715,36.9020426 88.3473505,39.3856723 90.6464286,41.4291269 C92.943347,43.4715789 96.5177709,44.4913009 101.37294,44.4913009 C106.095283,44.4913009 109.597355,43.4765923 111.872675,41.4431644 C114.147996,39.4107392 115.287276,36.9812541 115.287276,34.1567144 L115.287276,25.8635772 C115.287276,21.6382986 114.035688,18.4086776 111.533591,16.1737117 C109.030415,13.9417539 105.416035,12.8237696 100.691532,12.8237696 L100.691532,12.8237696 L100.691532,12.8237696 Z M201.025936,19.2238536 C203.895194,19.2238536 206.634866,19.7151651 209.243871,20.6957827 L209.243871,14.5363411 C206.115441,13.3942925 202.935175,12.8237696 199.699835,12.8237696 C194.671884,12.8237696 190.811291,14.186407 188.114814,16.910679 C185.416178,19.6339483 184.06848,23.5604294 184.06848,28.6891196 C184.06848,33.7756974 185.416178,37.6811222 188.114814,40.4063969 C190.811291,43.1316716 194.671884,44.4913009 199.699835,44.4913009 C202.935175,44.4913009 206.115441,43.9217807 209.243871,42.7797322 L209.243871,36.6212932 C206.5042,37.6420179 203.765608,38.1533829 201.025936,38.1533829 C197.982816,38.1533829 195.722614,37.4966298 194.245329,36.1841263 C192.766965,34.8746308 192.029402,32.3749583 192.029402,28.6891196 C192.029402,24.9621711 192.766965,22.4544772 194.245329,21.1630299 C195.722614,19.8705799 197.982816,19.2238536 201.025936,19.2238536 L201.025936,19.2238536 L201.025936,19.2238536 Z M138.614982,35.7579888 C137.599889,37.3552524 135.831035,38.1533829 133.30842,38.1533829 C129.338758,38.1533829 127.353927,37.0484334 127.353927,34.8375317 L127.353927,19.1055378 C128.84201,18.7636251 130.55795,18.5921674 132.498506,18.5921674 C134.977925,18.5921674 136.872045,19.2820088 138.177628,20.657681 C139.481051,22.0333531 140.135462,24.4498034 140.135462,27.9050266 C140.135462,31.5417342 139.628995,34.1607251 138.614982,35.7579888 L138.614982,35.7579888 L138.614982,35.7579888 Z M132.790075,12.8237696 C131.063336,12.8237696 129.252367,12.9852005 127.353927,13.3050543 L127.353927,1.4975361 L119.394084,1.4975361 L119.394084,34.1426769 C119.394084,36.9912808 120.531205,39.4277847 122.806525,41.4541938 C125.081846,43.4796003 128.583917,44.4913009 133.30842,44.4913009 C134.402345,44.4913009 135.49303,44.4130921 136.577236,44.2516612 C137.662522,44.0902303 138.938948,43.6691062 140.411913,42.9882889 C141.883798,42.3054662 143.144026,41.4221082 144.197995,40.3382149 C145.249804,39.256327 146.162308,37.6650794 146.937666,35.5674802 C147.709785,33.469881 148.096385,31.046412 148.096385,28.2980757 C148.096385,23.3007362 146.774604,19.4715147 144.133201,16.8124167 C141.491799,14.1533186 137.710037,12.8237696 132.790075,12.8237696 L132.790075,12.8237696 L132.790075,12.8237696 Z M171.90572,44.0120215 L179.833166,44.0120215 L179.833166,13.3050543 L171.90572,13.3050543 L171.90572,44.0120215 L171.90572,44.0120215 Z M87.9791092,13.3050543 L80.3745493,13.3050543 C80.3745493,10.6409429 80.8281016,8.84916005 81.7341263,7.92770037 C82.6401509,7.00624068 84.1293143,6.5450095 86.2005364,6.5450095 C86.5882156,6.5450095 87.183233,6.58511656 87.9791092,6.66533068 L87.9791092,0.865849916 C86.878705,0.66531462 85.7988186,0.565046972 84.7437696,0.565046972 C76.5679498,0.565046972 72.4568223,4.81138187 72.4147067,13.3050543 L66.7841791,13.3050543 L66.7841791,19.6449777 L72.4147067,19.6449777 L72.4147067,44.0120215 L80.3745493,44.0120215 L80.3745493,19.6449777 L87.9791092,19.6449777 L87.9791092,13.3050543 L87.9791092,13.3050543 Z M18.4981391,26.5704642 C16.9560613,25.9397807 15.4085841,25.4394451 13.8535477,25.0684548 C12.301751,24.6974645 10.9853695,24.2673163 9.90764287,23.7760048 C8.82775648,23.2846933 8.28997306,22.6088894 8.28997306,21.7475903 C8.28997306,20.0249921 10.1873334,19.163693 13.984214,19.163693 C16.8318744,19.163693 19.3782465,19.6550045 21.6222504,20.6356221 L21.6222504,15.0176258 C18.8825787,13.5557235 15.8729353,12.8237696 12.5922404,12.8237696 C9.09772808,12.8237696 6.18095495,13.649975 3.83976125,15.3023859 C1.49856756,16.9557994 0.327970718,19.3241212 0.327970718,22.4093568 C0.327970718,24.3715946 0.873313344,25.9989386 1.96291871,27.2913886 C3.0503643,28.5838385 4.36674581,29.5093089 5.90990346,30.0708078 C7.45306111,30.6313039 8.99405899,31.117602 10.5382965,31.5276967 C12.0803743,31.9397967 13.3967558,32.4190761 14.4842014,32.9695455 C15.5748866,33.5210175 16.1202293,34.247958 16.1202293,35.1493641 C16.1202293,36.1299817 15.7757455,36.8659463 15.0835383,37.3562551 C14.3934909,37.8485692 12.9043276,38.0932223 10.6182081,38.0932223 C7.29647758,38.0932223 4.17884558,37.1908134 1.26639199,35.3890038 L1.26639199,41.9685669 C4.45961604,43.6520607 7.9541284,44.4913009 11.7510089,44.4913009 C15.4614986,44.4913009 18.4430649,43.6420339 20.6978677,41.9394893 C22.9526704,40.2359419 24.0800718,38.0932223 24.0800718,35.509325 C24.0800718,33.1861236 23.5347292,31.2720142 22.444044,29.7700048 C21.3565984,28.2679954 20.0402169,27.2011477 18.4981391,26.5704642 L18.4981391,26.5704642 L18.4981391,26.5704642 Z M55.170001,44.0120215 L63.0985268,44.0120215 L63.0985268,13.3050543 L55.170001,13.3050543 L55.170001,44.0120215 L55.170001,44.0120215 Z M30.5475114,16.910679 C27.8499552,19.6339483 26.5033369,23.5604294 26.5033369,28.6891196 C26.5033369,33.7756974 27.8499552,37.6811222 30.5475114,40.4063969 C33.2450676,43.1316716 37.1078212,44.4913009 42.1336125,44.4913009 C45.3689521,44.4913009 48.5513773,43.9217807 51.6798082,42.7797322 L51.6798082,36.6212932 C48.9401364,37.6420179 46.2004646,38.1533829 43.459713,38.1533829 C40.4187529,38.1533829 38.1574708,37.4966298 36.6812661,36.1841263 C35.2029016,34.8746308 34.4642594,32.3749583 34.4642594,28.6891196 C34.4642594,24.9621711 35.2029016,22.4544772 36.6812661,21.1630299 C38.1574708,19.8705799 40.4187529,19.2238536 43.459713,19.2238536 C46.3289711,19.2238536 49.0686429,19.7151651 51.6798082,20.6957827 L51.6798082,14.5363411 C48.5513773,13.3942925 45.3689521,12.8237696 42.1336125,12.8237696 C37.1078212,12.8237696 33.2450676,14.186407 30.5475114,16.910679 L30.5475114,16.910679 L30.5475114,16.910679 Z M154.273335,15.1900861 C153.323035,15.5179613 152.578993,15.8007161 152.041209,16.0393531 L152.041209,44.0120215 L160.001052,44.0120215 L160.001052,20.1874257 C162.374642,19.5457127 165.221223,19.2048027 168.542953,19.163693 L168.542953,12.8237696 C165.716891,12.8648794 162.87031,13.1867385 160.001052,13.7913524 C157.131794,14.396969 155.222555,14.8632136 154.273335,15.1900861 L154.273335,15.1900861 L154.273335,15.1900861 Z" id="Fill-70"></path>
                </g>
            </g>
        </g>
    </g>
</svg>