<?xml version="1.0" encoding="UTF-8" standalone="no"?>
<svg
   xmlns:dc="http://purl.org/dc/elements/1.1/"
   xmlns:cc="http://creativecommons.org/ns#"
   xmlns:rdf="http://www.w3.org/1999/02/22-rdf-syntax-ns#"
   xmlns:svg="http://www.w3.org/2000/svg"
   xmlns="http://www.w3.org/2000/svg"
   xmlns:sodipodi="http://sodipodi.sourceforge.net/DTD/sodipodi-0.dtd"
   xmlns:inkscape="http://www.inkscape.org/namespaces/inkscape"
   width="36px"
   height="36px"
   viewBox="0 0 36 36"
   version="1.1"
   id="svg2"
   inkscape:version="0.91 r13725"
   sodipodi:docname="twitter.svg">
  <metadata
     id="metadata22">
    <rdf:RDF>
      <cc:Work
         rdf:about="">
        <dc:format>image/svg+xml</dc:format>
        <dc:type
           rdf:resource="http://purl.org/dc/dcmitype/StillImage" />
      </cc:Work>
    </rdf:RDF>
  </metadata>
  <sodipodi:namedview
     pagecolor="#ffffff"
     bordercolor="#666666"
     borderopacity="1"
     objecttolerance="10"
     gridtolerance="10"
     guidetolerance="10"
     inkscape:pageopacity="0"
     inkscape:pageshadow="2"
     inkscape:window-width="869"
     inkscape:window-height="480"
     id="namedview20"
     showgrid="false"
     inkscape:zoom="6.5555556"
     inkscape:cx="18"
     inkscape:cy="18"
     inkscape:window-x="0"
     inkscape:window-y="24"
     inkscape:window-maximized="0"
     inkscape:current-layer="svg2" />
  <!-- Generator: sketchtool 40.3 (33839) - http://www.bohemiancoding.com/sketch -->
  <title
     id="title4">58EA23FC-5A90-4373-BB51-4EF9ED2488E0</title>
  <desc
     id="desc6">Created with sketchtool.</desc>
  <defs
     id="defs8" />
  <path
     style="fill:#1da1f2;fill-rule:evenodd;stroke:none;stroke-width:1"
     inkscape:connector-curvature="0"
     id="Fill-1"
     d="m 23.61927,0 0,0.05086093 c 0,0.21139073 -0.232898,0.46728476 -0.70348,0.76768212 l 0.0319,0 c 0.705075,-0.26701987 1.231489,-0.4005298 1.577645,-0.4005298 0.256826,0 0.384442,0.0953642 0.384442,0.2829139 l 0,0.1176159 c -0.0654,0.16688741 -0.312658,0.33536425 -0.738574,0.50225165 -0.636482,0.1668874 -1.145348,0.3162914 -1.523409,0.4513907 l 0,0.033378 0.317443,0 c 1.710046,0 3.246217,0.9091391 4.611701,2.722649 0.569484,1.0029139 0.894903,1.8325828 0.973068,2.4890066 0.08773,0.1446358 0.406774,0.2177484 0.95552,0.2177484 l 0.100497,0 c 0.759311,0 1.513837,-0.1668874 2.263578,-0.5022517 l 0,0.034967 c -0.24566,0.6341722 -0.765693,1.1189404 -1.560098,1.4527153 -0.547151,0.2113907 -1.006567,0.3178808 -1.373461,0.3178808 0,0.089007 0.437083,0.2002649 1.306463,0.3337748 l 0.856618,0.049272 0.216946,0 0.654029,-0.049272 0.0335,0.017483 0,0.031788 c -0.803977,0.8137748 -1.922207,1.2206624 -3.353094,1.2206624 l 0,0.03338 c -0.36849,1.54808 -1.127801,2.973775 -2.281125,4.277086 -0.623721,0.724769 -1.172467,1.25404 -1.644644,1.586225 -0.768882,0.602385 -1.596787,1.125298 -2.478928,1.571921 -2.282721,1.091921 -4.528751,1.637086 -6.741283,1.637086 l -0.655624,0 c -2.616115,0 -5.1413049,-0.778808 -7.5787588,-2.339603 C 6.7564923,16.596556 5.9780385,15.922649 4.9395683,14.887947 4.3126577,14.163179 4,13.767417 4,13.700662 c 1.4659817,1.304901 3.1680519,1.954967 5.1141865,1.954967 1.8440425,0 3.5046375,-0.656424 4.9801905,-1.970861 0.111663,-0.157351 0.194613,-0.235232 0.25204,-0.235232 l 0,-0.01589 -0.185042,0.01589 -0.25204,0 c -0.547151,0 -1.004971,-0.222516 -1.375056,-0.66596 -0.12283,-0.190728 -0.183447,-0.368742 -0.183447,-0.535629 0,-0.433907 0.33499,-0.818543 1.004971,-1.152318 l 0,-0.01589 -0.401989,0 c -1.319224,0 -2.292291,-0.578543 -2.917606,-1.7388078 C 10.494028,8.9070199 10.958229,8.6733775 11.427215,8.64 l 0.419536,-0.050861 0,-0.015894 C 10.706189,8.2839735 9.8958308,7.8325828 9.4156779,7.2206622 9.0583548,6.6850331 8.8621461,6.2177483 8.8302423,5.8156291 9.4220587,5.6598676 9.9692096,5.5819868 10.47329,5.5819868 l 0,-0.015894 C 10.082468,5.4309934 9.5448885,5.0034437 8.8621461,4.2770861 8.3915644,3.6095364 8.1586664,3.0023841 8.1586664,2.4572185 l 0,-0.3512582 c 0.8486423,0.2781457 2.1295816,0.7803973 3.8396276,1.5035761 1.978039,0.8805298 3.319595,1.5655629 4.023075,2.0550994 0.504081,0.4005298 0.984234,0.818543 1.442054,1.2524503 l 0.01755,0 C 18.072786,5.28 18.737982,3.8654305 19.476556,2.6733775 19.790809,2.1282119 20.34434,1.4765563 21.135556,0.72 l 0.70348,-0.51814569 0.01914,0.015894 0,0.0349669 c -0.0335,0.2002649 -0.106878,0.38304636 -0.218541,0.54993378 l 0,0.0174834 0.01755,0 C 22.462756,0.27178808 23.115189,0 23.61927,0" />
  <g
     style="font-weight:500;font-size:11px;font-family:OpenSans-Semibold, 'Open Sans';fill:#40c2f3;fill-rule:evenodd;stroke:none;stroke-width:1"
     id="text16">
    <path
       d="m 3.9304199,36 -0.9130859,0 0,-7.041504 -2.48681642,0 0,-0.811035 5.88671872,0 0,0.811035 -2.4868164,0 0,7.041504 z"
       style=""
       id="path4176" />
    <path
       d="m 14.447021,36 -0.902343,0 -1.584473,-5.258301 q -0.112793,-0.349121 -0.252441,-0.880859 -0.139649,-0.531738 -0.14502,-0.63916 -0.118164,0.708984 -0.375976,1.552246 L 9.6506348,36 8.748291,36 6.6589355,28.147461 l 0.9667969,0 1.2407227,4.850098 q 0.2578125,1.020507 0.3759765,1.847656 0.1450196,-0.98291 0.4296875,-1.922852 l 1.4072269,-4.774902 0.966797,0 1.47705,4.817871 q 0.257813,0.83252 0.435059,1.879883 0.102051,-0.762695 0.386719,-1.858399 l 1.235351,-4.839355 0.966797,0 L 14.447021,36 Z"
       style=""
       id="path4178" />
    <path
       d="m 22.154541,36 -4.377441,0 0,-7.852539 4.377441,0 0,0.811035 -3.464355,0 0,2.529785 3.254882,0 0,0.805664 -3.254882,0 0,2.889649 3.464355,0 0,0.816406 z"
       style=""
       id="path4180" />
    <path
       d="m 28.277588,36 -4.377442,0 0,-7.852539 4.377442,0 0,0.811035 -3.464356,0 0,2.529785 3.254883,0 0,0.805664 -3.254883,0 0,2.889649 3.464356,0 0,0.816406 z"
       style=""
       id="path4182" />
    <path
       d="m 32.440186,36 -0.913086,0 0,-7.041504 -2.486817,0 0,-0.811035 5.886719,0 0,0.811035 -2.486816,0 0,7.041504 z"
       style=""
       id="path4184" />
  </g>
</svg>
